# Blender 4.5.3 LTS
# www.blender.org
mtllib laser2_base.mtl
o Circle.003
v 0.927184 0.374607 0.000000
v 0.390731 0.920505 0.000000
v -0.374607 0.927184 0.000000
v -0.920505 0.390731 0.000000
v -0.927184 -0.374607 0.000000
v -0.390731 -0.920505 0.000000
v 0.374607 -0.927184 0.000000
v 0.920505 -0.390731 0.000000
v 0.927184 0.374607 0.311450
v 0.390731 0.920505 0.311450
v -0.374607 0.927184 0.311450
v -0.920505 0.390731 0.311450
v -0.927184 -0.374607 0.311450
v -0.390731 -0.920505 0.311450
v 0.374607 -0.927184 0.311450
v 0.920505 -0.390731 0.311450
v 0.164482 -0.069818 1.752886
v 0.232612 -0.098738 1.574199
v 0.164482 -0.069818 1.395513
v 0.066937 -0.165675 1.752886
v 0.094663 -0.234300 1.574199
v 0.066937 -0.165675 1.395513
v -0.069818 -0.164482 1.752886
v -0.098738 -0.232612 1.574199
v -0.069818 -0.164482 1.395513
v -0.165675 -0.066937 1.752886
v -0.234300 -0.094663 1.574199
v -0.165675 -0.066937 1.395513
v -0.164482 0.069818 1.752886
v -0.232612 0.098738 1.574199
v -0.164482 0.069818 1.395513
v 0.000000 0.000000 1.321499
v -0.066937 0.165675 1.752886
v -0.094663 0.234300 1.574199
v -0.066937 0.165675 1.395513
v 0.069818 0.164482 1.752886
v 0.098738 0.232612 1.574199
v 0.069818 0.164482 1.395513
v 0.000000 0.000000 1.826900
v 0.165675 0.066937 1.752886
v 0.234300 0.094663 1.574199
v 0.165675 0.066937 1.395513
v 0.300249 0.121308 0.311449
v 0.126530 0.298086 0.311449
v -0.121308 0.300249 0.311449
v -0.298086 0.126530 0.311449
v -0.300249 -0.121308 0.311449
v -0.126530 -0.298086 0.311449
v 0.121308 -0.300249 0.311449
v 0.298086 -0.126530 0.311449
v 0.200337 0.080942 0.412305
v 0.084426 0.198894 0.412305
v -0.080942 0.200337 0.412305
v -0.198894 0.084426 0.412305
v -0.200337 -0.080942 0.412305
v -0.084426 -0.198894 0.412305
v 0.080942 -0.200337 0.412305
v 0.198894 -0.084426 0.412305
v 0.084426 0.198894 1.544014
v 0.200337 0.080942 1.544014
v -0.080942 0.200337 1.544014
v -0.198894 0.084426 1.544014
v -0.200337 -0.080942 1.544014
v -0.084426 -0.198894 1.544014
v 0.080942 -0.200337 1.544014
v 0.198894 -0.084426 1.544014
vn -0.0000 -0.0000 -1.0000
vn -0.0000 -0.0000 1.0000
vn 0.7009 -0.7133 -0.0000
vn -0.7133 -0.7009 -0.0000
vn -0.7009 0.7133 -0.0000
vn 0.7133 0.7009 -0.0000
vn 1.0000 -0.0087 -0.0000
vn -0.0087 -1.0000 -0.0000
vn -1.0000 0.0087 -0.0000
vn 0.0087 1.0000 -0.0000
vn 0.9339 -0.0082 -0.3574
vn 0.4091 -0.0036 0.9125
vn 0.4091 -0.0036 -0.9125
vn 0.9339 -0.0082 0.3574
vn 0.6546 -0.6661 -0.3574
vn 0.2867 -0.2918 0.9125
vn 0.2867 -0.2918 -0.9125
vn 0.6546 -0.6661 0.3574
vn -0.0081 -0.9339 -0.3574
vn -0.0036 -0.4091 0.9125
vn -0.0036 -0.4091 -0.9125
vn -0.0082 -0.9339 0.3574
vn -0.6661 -0.6546 -0.3574
vn -0.2918 -0.2867 0.9125
vn -0.2918 -0.2867 -0.9125
vn -0.6661 -0.6546 0.3574
vn -0.9339 0.0082 -0.3574
vn -0.4091 0.0036 0.9125
vn -0.4091 0.0036 -0.9125
vn -0.9339 0.0082 0.3574
vn -0.6546 0.6661 0.3574
vn -0.6546 0.6661 -0.3574
vn -0.2867 0.2918 0.9125
vn -0.2867 0.2918 -0.9125
vn 0.0036 0.4091 -0.9125
vn 0.0082 0.9339 0.3574
vn 0.0081 0.9339 -0.3574
vn 0.0036 0.4091 0.9125
vn 0.2918 0.2867 -0.9125
vn 0.6661 0.6546 0.3574
vn 0.6661 0.6546 -0.3574
vn 0.2918 0.2867 0.9125
vn 0.4988 -0.5076 0.7025
vn -0.5076 -0.4988 0.7025
vn -0.4988 0.5076 0.7025
vn 0.5076 0.4988 0.7025
vn 0.7117 -0.0062 0.7025
vn -0.0062 -0.7117 0.7025
vn -0.7117 0.0062 0.7025
vn 0.0062 0.7117 0.7025
vn 0.9339 -0.0081 -0.3574
vn 0.9339 -0.0081 0.3574
vn -0.0082 -0.9339 -0.3574
vn -0.9339 0.0081 -0.3574
vn -0.9339 0.0081 0.3574
vn 0.0082 0.9339 -0.3574
vt 0.000000 0.000000
vt 0.750000 0.500000
vt 0.625000 0.250000
vt 0.750000 0.250000
vt 0.750000 0.750000
vt 0.687500 1.000000
vt 0.625000 0.750000
vt 0.687500 0.000000
vt 0.625000 0.500000
vt 0.500000 0.500000
vt 0.500000 0.250000
vt 0.562500 1.000000
vt 0.500000 0.750000
vt 0.562500 0.000000
vt 0.375000 0.250000
vt 0.437500 1.000000
vt 0.375000 0.750000
vt 0.437500 0.000000
vt 0.375000 0.500000
vt 0.250000 0.500000
vt 0.250000 0.250000
vt 0.312500 1.000000
vt 0.250000 0.750000
vt 0.312500 0.000000
vt 0.125000 0.250000
vt 0.187500 1.000000
vt 0.125000 0.750000
vt 0.187500 0.000000
vt 0.125000 0.500000
vt 0.000000 0.500000
vt 0.000000 0.250000
vt 0.062500 1.000000
vt 0.000000 0.750000
vt 0.062500 0.000000
vt 0.937500 0.000000
vt 1.000000 0.250000
vt 0.875000 0.250000
vt 1.000000 0.500000
vt 0.875000 0.750000
vt 0.875000 0.500000
vt 1.000000 0.750000
vt 0.937500 1.000000
vt 0.812500 0.000000
vt 0.812500 1.000000
s 0
usemtl Material
f 7/1/1 5/1/1 3/1/1
f 13/1/2 15/1/2 9/1/2
f 8/1/3 15/1/3 7/1/3
f 6/1/4 13/1/4 5/1/4
f 4/1/5 11/1/5 3/1/5
f 2/1/6 9/1/6 1/1/6
f 1/1/7 16/1/7 8/1/7
f 7/1/8 14/1/8 6/1/8
f 5/1/9 12/1/9 4/1/9
f 3/1/10 10/1/10 2/1/10
f 41/2/11 19/3/11 42/4/11
f 40/5/12 39/6/12 17/7/12
f 32/8/13 42/4/13 19/3/13
f 41/2/14 17/7/14 18/9/14
f 19/3/15 21/10/15 22/11/15
f 17/7/16 39/12/16 20/13/16
f 32/14/17 19/3/17 22/11/17
f 17/7/18 21/10/18 18/9/18
f 21/10/19 25/15/19 22/11/19
f 20/13/20 39/16/20 23/17/20
f 32/18/21 22/11/21 25/15/21
f 21/10/22 23/17/22 24/19/22
f 25/15/23 27/20/23 28/21/23
f 23/17/24 39/22/24 26/23/24
f 32/24/25 25/15/25 28/21/25
f 23/17/26 27/20/26 24/19/26
f 27/20/27 31/25/27 28/21/27
f 26/23/28 39/26/28 29/27/28
f 32/28/29 28/21/29 31/25/29
f 27/20/30 29/27/30 30/29/30
f 29/27/31 34/30/31 30/29/31
f 31/25/32 34/30/32 35/31/32
f 29/27/33 39/32/33 33/33/33
f 32/34/34 31/25/34 35/31/34
f 32/35/35 35/36/35 38/37/35
f 34/38/36 36/39/36 37/40/36
f 34/38/37 38/37/37 35/36/37
f 33/41/38 39/42/38 36/39/38
f 32/43/39 38/37/39 42/4/39
f 36/39/40 41/2/40 37/40/40
f 38/37/41 41/2/41 42/4/41
f 36/39/42 39/44/42 40/5/42
f 3/1/1 2/1/1 1/1/1
f 1/1/1 8/1/1 7/1/1
f 7/1/1 6/1/1 5/1/1
f 5/1/1 4/1/1 3/1/1
f 3/1/1 1/1/1 7/1/1
f 9/1/2 10/1/2 11/1/2
f 11/1/2 12/1/2 13/1/2
f 13/1/2 14/1/2 15/1/2
f 15/1/2 16/1/2 9/1/2
f 9/1/2 11/1/2 13/1/2
f 8/1/3 16/1/3 15/1/3
f 6/1/4 14/1/4 13/1/4
f 4/1/5 12/1/5 11/1/5
f 2/1/6 10/1/6 9/1/6
f 1/1/7 9/1/7 16/1/7
f 7/1/8 15/1/8 14/1/8
f 5/1/9 13/1/9 12/1/9
f 3/1/10 11/1/10 10/1/10
f 41/2/51 18/9/51 19/3/51
f 41/2/52 40/5/52 17/7/52
f 19/3/15 18/9/15 21/10/15
f 17/7/18 20/13/18 21/10/18
f 21/10/53 24/19/53 25/15/53
f 21/10/22 20/13/22 23/17/22
f 25/15/23 24/19/23 27/20/23
f 23/17/26 26/23/26 27/20/26
f 27/20/54 30/29/54 31/25/54
f 27/20/55 26/23/55 29/27/55
f 29/27/31 33/33/31 34/30/31
f 31/25/32 30/29/32 34/30/32
f 34/38/36 33/41/36 36/39/36
f 34/38/56 37/40/56 38/37/56
f 36/39/40 40/5/40 41/2/40
f 38/37/41 37/40/41 41/2/41
usemtl Material.012
f 49/1/1 47/1/1 45/1/1
f 53/1/10 59/1/10 52/1/10
f 50/1/43 57/1/43 49/1/43
f 48/1/44 55/1/44 47/1/44
f 46/1/45 53/1/45 45/1/45
f 44/1/46 51/1/46 43/1/46
f 43/1/47 58/1/47 50/1/47
f 49/1/48 56/1/48 48/1/48
f 47/1/49 54/1/49 46/1/49
f 45/1/50 52/1/50 44/1/50
f 63/1/2 65/1/2 60/1/2
f 58/1/3 65/1/3 57/1/3
f 56/1/4 63/1/4 55/1/4
f 54/1/5 61/1/5 53/1/5
f 52/1/6 60/1/6 51/1/6
f 51/1/7 66/1/7 58/1/7
f 57/1/8 64/1/8 56/1/8
f 55/1/9 62/1/9 54/1/9
f 45/1/1 44/1/1 43/1/1
f 43/1/1 50/1/1 49/1/1
f 49/1/1 48/1/1 47/1/1
f 47/1/1 46/1/1 45/1/1
f 45/1/1 43/1/1 49/1/1
f 53/1/10 61/1/10 59/1/10
f 50/1/43 58/1/43 57/1/43
f 48/1/44 56/1/44 55/1/44
f 46/1/45 54/1/45 53/1/45
f 44/1/46 52/1/46 51/1/46
f 43/1/47 51/1/47 58/1/47
f 49/1/48 57/1/48 56/1/48
f 47/1/49 55/1/49 54/1/49
f 45/1/50 53/1/50 52/1/50
f 60/1/2 59/1/2 61/1/2
f 61/1/2 62/1/2 63/1/2
f 63/1/2 64/1/2 65/1/2
f 65/1/2 66/1/2 60/1/2
f 60/1/2 61/1/2 63/1/2
f 58/1/3 66/1/3 65/1/3
f 56/1/4 64/1/4 63/1/4
f 54/1/5 62/1/5 61/1/5
f 52/1/6 59/1/6 60/1/6
f 51/1/7 60/1/7 66/1/7
f 57/1/8 65/1/8 64/1/8
f 55/1/9 63/1/9 62/1/9
