# Blender 3.6.1
# www.blender.org
mtllib radius2.mtl
o azul
v 1.000000 -0.000000 -0.058051
v 1.000000 0.000000 0.058051
v 0.923880 -0.382683 -0.058051
v 0.923880 -0.382683 0.058051
v 0.707107 -0.707107 -0.058051
v 0.707107 -0.707107 0.058051
v 0.382683 -0.923880 -0.058051
v 0.382683 -0.923880 0.058051
v 0.000000 -1.000000 -0.058051
v 0.000000 -1.000000 0.058051
v -0.382683 -0.923880 -0.058051
v -0.382683 -0.923880 0.058051
v -0.707107 -0.707107 -0.058051
v -0.707107 -0.707107 0.058051
v -0.923880 -0.382683 -0.058051
v -0.923880 -0.382683 0.058051
v -1.000000 -0.000000 -0.058051
v -1.000000 0.000000 0.058051
v -0.923880 0.382683 -0.058051
v -0.923880 0.382683 0.058051
v -0.707107 0.707107 -0.058051
v -0.707107 0.707107 0.058051
v -0.382683 0.923880 -0.058051
v -0.382683 0.923880 0.058051
v 0.000000 1.000000 -0.058051
v 0.000000 1.000000 0.058051
v 0.382683 0.923880 -0.058051
v 0.382683 0.923880 0.058051
v 0.707107 0.707107 -0.058051
v 0.707107 0.707107 0.058051
v 0.923880 0.382683 -0.058051
v 0.923880 0.382683 0.058051
v 0.982838 -0.000000 -0.058051
v 0.982838 0.000000 0.058051
v 0.908024 -0.376116 -0.058051
v 0.908024 -0.376116 0.058051
v 0.694972 -0.694972 -0.058051
v 0.694972 -0.694972 0.058051
v 0.376116 -0.908024 -0.058051
v 0.376116 -0.908024 0.058051
v 0.000000 -0.982838 -0.058051
v 0.000000 -0.982838 0.058051
v -0.376116 -0.908024 -0.058051
v -0.376116 -0.908024 0.058051
v -0.694972 -0.694972 -0.058051
v -0.694972 -0.694972 0.058051
v -0.908024 -0.376116 -0.058051
v -0.908024 -0.376116 0.058051
v -0.982838 -0.000000 -0.058051
v -0.982838 0.000000 0.058051
v -0.908024 0.376116 -0.058051
v -0.908024 0.376116 0.058051
v -0.694972 0.694972 -0.058051
v -0.694972 0.694972 0.058051
v -0.376116 0.908024 -0.058051
v -0.376116 0.908024 0.058051
v 0.000000 0.982838 -0.058051
v 0.000000 0.982838 0.058051
v 0.376116 0.908024 -0.058051
v 0.376116 0.908024 0.058051
v 0.694972 0.694972 -0.058051
v 0.694972 0.694972 0.058051
v 0.908024 0.376116 -0.058051
v 0.908024 0.376116 0.058051
vn 0.9808 -0.1951 -0.0000
vn 0.8315 -0.5556 -0.0000
vn 0.5556 -0.8315 -0.0000
vn 0.1951 -0.9808 -0.0000
vn -0.1951 -0.9808 -0.0000
vn -0.5556 -0.8315 -0.0000
vn -0.8315 -0.5556 -0.0000
vn -0.9808 -0.1951 -0.0000
vn -0.9808 0.1951 -0.0000
vn -0.8315 0.5556 -0.0000
vn -0.5556 0.8315 -0.0000
vn -0.1951 0.9808 -0.0000
vn 0.1951 0.9808 -0.0000
vn 0.5556 0.8315 -0.0000
vn 0.8315 0.5556 -0.0000
vn 0.9808 0.1951 -0.0000
vn -0.0000 -0.0000 -1.0000
vn -0.0000 -0.0000 1.0000
vt 1.000000 0.000000
vt 1.000000 1.000000
vt 0.937500 1.000000
vt 0.937500 0.000000
vt 0.875000 1.000000
vt 0.875000 0.000000
vt 0.812500 1.000000
vt 0.812500 0.000000
vt 0.750000 1.000000
vt 0.750000 0.000000
vt 0.687500 1.000000
vt 0.687500 0.000000
vt 0.625000 1.000000
vt 0.625000 0.000000
vt 0.562500 1.000000
vt 0.562500 0.000000
vt 0.500000 1.000000
vt 0.500000 0.000000
vt 0.437500 1.000000
vt 0.437500 0.000000
vt 0.375000 1.000000
vt 0.375000 0.000000
vt 0.312500 1.000000
vt 0.312500 0.000000
vt 0.250000 1.000000
vt 0.250000 0.000000
vt 0.187500 1.000000
vt 0.187500 0.000000
vt 0.125000 1.000000
vt 0.125000 0.000000
vt 0.062500 1.000000
vt 0.062500 0.000000
vt 0.000000 1.000000
vt 0.000000 0.000000
s 0
usemtl Material.001
f 1/1/1 2/2/1 4/3/1 3/4/1
f 3/4/2 4/3/2 6/5/2 5/6/2
f 5/6/3 6/5/3 8/7/3 7/8/3
f 7/8/4 8/7/4 10/9/4 9/10/4
f 9/10/5 10/9/5 12/11/5 11/12/5
f 11/12/6 12/11/6 14/13/6 13/14/6
f 13/14/7 14/13/7 16/15/7 15/16/7
f 15/16/8 16/15/8 18/17/8 17/18/8
f 17/18/9 18/17/9 20/19/9 19/20/9
f 19/20/10 20/19/10 22/21/10 21/22/10
f 21/22/11 22/21/11 24/23/11 23/24/11
f 23/24/12 24/23/12 26/25/12 25/26/12
f 25/26/13 26/25/13 28/27/13 27/28/13
f 27/28/14 28/27/14 30/29/14 29/30/14
f 29/30/15 30/29/15 32/31/15 31/32/15
f 31/32/16 32/31/16 2/33/16 1/34/16
f 33/1/9 35/4/9 36/3/9 34/2/9
f 35/4/10 37/6/10 38/5/10 36/3/10
f 37/6/11 39/8/11 40/7/11 38/5/11
f 39/8/12 41/10/12 42/9/12 40/7/12
f 41/10/13 43/12/13 44/11/13 42/9/13
f 43/12/14 45/14/14 46/13/14 44/11/14
f 45/14/15 47/16/15 48/15/15 46/13/15
f 47/16/16 49/18/16 50/17/16 48/15/16
f 49/18/1 51/20/1 52/19/1 50/17/1
f 51/20/2 53/22/2 54/21/2 52/19/2
f 53/22/3 55/24/3 56/23/3 54/21/3
f 55/24/4 57/26/4 58/25/4 56/23/4
f 57/26/5 59/28/5 60/27/5 58/25/5
f 59/28/6 61/30/6 62/29/6 60/27/6
f 61/30/7 63/32/7 64/31/7 62/29/7
f 63/32/8 33/34/8 34/33/8 64/31/8
f 1/1/17 3/4/17 35/4/17 33/1/17
f 4/3/18 2/2/18 34/2/18 36/3/18
f 3/4/17 5/6/17 37/6/17 35/4/17
f 6/5/18 4/3/18 36/3/18 38/5/18
f 5/6/17 7/8/17 39/8/17 37/6/17
f 8/7/18 6/5/18 38/5/18 40/7/18
f 7/8/17 9/10/17 41/10/17 39/8/17
f 10/9/18 8/7/18 40/7/18 42/9/18
f 9/10/17 11/12/17 43/12/17 41/10/17
f 12/11/18 10/9/18 42/9/18 44/11/18
f 11/12/17 13/14/17 45/14/17 43/12/17
f 14/13/18 12/11/18 44/11/18 46/13/18
f 13/14/17 15/16/17 47/16/17 45/14/17
f 16/15/18 14/13/18 46/13/18 48/15/18
f 15/16/17 17/18/17 49/18/17 47/16/17
f 18/17/18 16/15/18 48/15/18 50/17/18
f 17/18/17 19/20/17 51/20/17 49/18/17
f 20/19/18 18/17/18 50/17/18 52/19/18
f 19/20/17 21/22/17 53/22/17 51/20/17
f 22/21/18 20/19/18 52/19/18 54/21/18
f 21/22/17 23/24/17 55/24/17 53/22/17
f 24/23/18 22/21/18 54/21/18 56/23/18
f 23/24/17 25/26/17 57/26/17 55/24/17
f 26/25/18 24/23/18 56/23/18 58/25/18
f 25/26/17 27/28/17 59/28/17 57/26/17
f 28/27/18 26/25/18 58/25/18 60/27/18
f 27/28/17 29/30/17 61/30/17 59/28/17
f 30/29/18 28/27/18 60/27/18 62/29/18
f 29/30/17 31/32/17 63/32/17 61/30/17
f 32/31/18 30/29/18 62/29/18 64/31/18
f 31/32/17 1/34/17 33/34/17 63/32/17
f 2/33/18 32/31/18 64/31/18 34/33/18
