# Blender 4.5.3 LTS
# www.blender.org
mtllib sniperMOV.mtl
o Circle.001
v 0.371758 0.137450 -0.004496
v 0.176988 0.332220 -0.004496
v -0.098458 0.332220 -0.004496
v -0.293228 0.137450 -0.004496
v -0.293228 -0.137996 -0.004496
v -0.098458 -0.332766 -0.004496
v 0.176988 -0.332766 -0.004496
v 0.371758 -0.137996 -0.004496
v 0.371758 0.137450 0.309318
v 0.176988 0.332220 0.309318
v -0.098458 0.332220 0.309318
v -0.293228 0.137450 0.309318
v -0.293228 -0.137996 0.309318
v -0.098458 -0.332766 0.309318
v 0.176988 -0.332766 0.309318
v 0.371758 -0.137996 0.309318
v 0.054261 0.063658 0.046251
v 0.039492 0.063658 0.061020
v 0.054261 0.078427 0.061020
v 0.039492 0.063658 0.243878
v 0.054261 0.063658 0.258647
v 0.054261 0.078427 0.243878
v 0.612475 0.063658 0.046251
v 0.612475 0.078427 0.061020
v 0.627244 0.063658 0.061020
v 0.612475 0.063658 0.258647
v 0.627244 0.063658 0.243878
v 0.612475 0.078427 0.243878
v 0.054261 -0.068702 0.046251
v 0.054261 -0.083471 0.061020
v 0.039492 -0.068702 0.061020
v 0.054261 -0.068702 0.258647
v 0.039492 -0.068702 0.243878
v 0.054261 -0.083471 0.243878
v 0.612475 -0.068702 0.046251
v 0.627244 -0.068702 0.061020
v 0.612475 -0.083471 0.061020
v 0.612475 -0.068702 0.258647
v 0.612475 -0.083471 0.243878
v 0.627244 -0.068702 0.243878
v 0.572054 -0.028148 0.231842
v 0.572054 0.022759 0.231842
v 0.572054 0.058756 0.195845
v 0.572054 0.059086 0.107093
v 0.572054 0.023089 0.071096
v 0.572054 -0.027818 0.071096
v 0.572054 -0.063815 0.107093
v 0.572054 -0.064145 0.195845
v 1.385183 -0.028148 0.231842
v 1.385183 0.022759 0.231842
v 1.385183 0.058756 0.195845
v 1.385183 0.059086 0.107093
v 1.385183 0.023089 0.071096
v 1.385183 -0.027818 0.071096
v 1.385183 -0.063815 0.107093
v 1.385183 -0.064146 0.195845
v 1.385183 0.027861 0.248055
v 1.385183 -0.033317 0.248055
v 1.385183 0.071119 0.204797
v 1.385183 0.071516 0.098141
v 1.385183 0.028257 0.054882
v 1.385183 -0.032920 0.054882
v 1.385183 -0.076178 0.098141
v 1.385183 -0.076575 0.204796
v 1.399251 0.027861 0.248055
v 1.399251 -0.033317 0.248055
v 1.399251 0.071119 0.204797
v 1.399251 0.071516 0.098141
v 1.399251 0.028257 0.054882
v 1.399251 -0.032920 0.054882
v 1.399251 -0.076178 0.098141
v 1.399251 -0.076575 0.204796
v 1.399251 0.024737 0.238129
v 1.399251 -0.030153 0.238129
v 1.399251 0.063551 0.199316
v 1.399251 0.063907 0.103621
v 1.399251 0.025094 0.064808
v 1.399251 -0.029796 0.064808
v 1.399251 -0.068610 0.103621
v 1.399251 -0.068966 0.199316
v 1.409368 0.024737 0.238129
v 1.409368 -0.030153 0.238129
v 1.409368 0.063551 0.199316
v 1.409368 0.063907 0.103621
v 1.409368 0.025094 0.064808
v 1.409368 -0.029797 0.064808
v 1.409368 -0.068610 0.103621
v 1.409368 -0.068966 0.199316
v 1.409368 0.027859 0.248050
v 1.409368 -0.033315 0.248050
v 1.409368 0.071116 0.204794
v 1.409368 0.071512 0.098144
v 1.409368 0.028256 0.054887
v 1.409368 -0.032918 0.054887
v 1.409368 -0.076175 0.098144
v 1.409368 -0.076572 0.204794
v 1.424243 0.027859 0.248050
v 1.424243 -0.033315 0.248050
v 1.424243 0.071116 0.204794
v 1.424243 0.071512 0.098144
v 1.424243 0.028256 0.054887
v 1.424243 -0.032918 0.054887
v 1.424243 -0.076175 0.098144
v 1.424243 -0.076571 0.204794
v 1.424243 0.024736 0.238125
v 1.424243 -0.030151 0.238125
v 1.424243 0.063547 0.199314
v 1.424243 0.063903 0.103624
v 1.424243 0.025092 0.064813
v 1.424243 -0.029795 0.064813
v 1.424243 -0.068606 0.103624
v 1.424243 -0.068962 0.199314
v 1.433427 0.024736 0.238125
v 1.433427 -0.030151 0.238125
v 1.433427 0.063547 0.199314
v 1.433427 0.063903 0.103624
v 1.433427 0.025092 0.064813
v 1.433427 -0.029795 0.064813
v 1.433427 -0.068606 0.103624
v 1.433427 -0.068962 0.199314
v 1.433427 0.027860 0.248054
v 1.433427 -0.033316 0.248054
v 1.433427 0.071118 0.204796
v 1.433427 0.071515 0.098142
v 1.433427 0.028257 0.054884
v 1.433427 -0.032919 0.054884
v 1.433427 -0.076177 0.098142
v 1.433427 -0.076574 0.204796
v 1.447729 0.027860 0.248054
v 1.447729 -0.033316 0.248054
v 1.447729 0.071118 0.204796
v 1.447729 0.071515 0.098142
v 1.447729 0.028257 0.054884
v 1.447729 -0.032919 0.054884
v 1.447729 -0.076177 0.098142
v 1.447729 -0.076574 0.204796
v 1.441701 0.008624 0.186918
v 1.441701 -0.013829 0.186918
v 1.441701 0.024501 0.171041
v 1.441701 0.024647 0.131896
v 1.441701 0.008770 0.116019
v 1.441701 -0.013683 0.116019
v 1.441701 -0.029560 0.131896
v 1.441701 -0.029706 0.171041
v 1.267497 0.008624 0.186918
v 1.267497 -0.013829 0.186918
v 1.267497 0.024501 0.171041
v 1.267497 0.024646 0.131896
v 1.267497 0.008770 0.116019
v 1.267497 -0.013684 0.116019
v 1.267497 -0.029561 0.131896
v 1.267497 -0.029706 0.171041
vn -0.0000 -0.0000 -1.0000
vn -0.0000 -0.0000 1.0000
vn 0.7071 -0.7071 -0.0000
vn -0.7071 -0.7071 -0.0000
vn -0.7071 0.7071 -0.0000
vn 0.7071 0.7071 -0.0000
vn 1.0000 -0.0000 -0.0000
vn -0.0000 -1.0000 -0.0000
vn -1.0000 -0.0000 -0.0000
vn -0.0000 1.0000 -0.0000
vn -0.5774 0.5774 -0.5773
vn -0.5773 0.5774 0.5773
vn 0.5774 0.5773 -0.5773
vn 0.5774 0.5773 0.5774
vn -0.5774 -0.5773 -0.5774
vn -0.5773 -0.5774 0.5774
vn 0.5774 -0.5773 -0.5773
vn 0.5774 -0.5774 0.5773
vn -0.0000 0.7071 -0.7071
vn -0.0000 0.7071 0.7071
vn 0.7071 -0.0000 -0.7071
vn 0.7071 -0.0000 0.7071
vn -0.0000 -0.7071 -0.7071
vn -0.0000 -0.7071 0.7071
vn -0.7071 -0.0000 -0.7071
vn -0.7071 -0.0000 0.7071
vn -0.0000 -1.0000 -0.0037
vn -0.0000 1.0000 0.0037
vn 0.9918 -0.1279 -0.0005
vn 0.9952 -0.0000 -0.0981
vn 0.9945 0.0744 -0.0744
vn 0.9944 0.0746 0.0746
vn 0.9945 -0.0744 0.0744
vn 0.9944 -0.0746 -0.0746
vn 0.9918 0.1279 0.0005
vn 0.9952 -0.0000 0.0981
vt 0.000000 0.000000
vt 0.147806 0.743470
vt 0.147806 0.750000
vt 0.125000 0.743470
vt 0.602194 0.000000
vt 0.625000 0.006530
vt 0.602194 0.006530
vt 0.147806 0.506530
vt 0.125000 0.506530
vt 0.147806 0.500000
vt 0.625000 0.243470
vt 0.602194 0.272596
vt 0.602194 0.243470
vt 0.352194 0.743470
vt 0.397755 0.743470
vt 0.392009 0.769907
vt 0.647755 0.743470
vt 0.607620 0.769907
vt 0.602194 0.743470
vt 0.352194 0.506530
vt 0.392009 0.480093
vt 0.397755 0.506530
vt 0.647755 0.506530
vt 0.602194 0.506530
vt 0.607620 0.480093
vt 0.397806 0.000000
vt 0.397806 0.006530
vt 0.397806 0.272806
vt 0.397806 0.243470
vt 0.852194 0.506530
vt 0.852194 0.500000
vt 0.852194 0.743470
vt 0.852194 0.750000
vt 0.602194 0.977194
vt 0.397806 0.977194
s 0
usemtl Material
f 2/1/1 1/1/1 8/1/1 7/1/1 6/1/1 5/1/1 4/1/1 3/1/1
f 10/1/2 11/1/2 12/1/2 13/1/2 14/1/2 15/1/2 16/1/2 9/1/2
f 7/1/3 8/1/3 16/1/3 15/1/3
f 5/1/4 6/1/4 14/1/4 13/1/4
f 3/1/5 4/1/5 12/1/5 11/1/5
f 1/1/6 2/1/6 10/1/6 9/1/6
f 8/1/7 1/1/7 9/1/7 16/1/7
f 6/1/8 7/1/8 15/1/8 14/1/8
f 4/1/9 5/1/9 13/1/9 12/1/9
f 2/1/10 3/1/10 11/1/10 10/1/10
usemtl Material.008
f 17/2/11 18/3/11 19/4/11
f 20/5/12 21/6/12 22/7/12
f 23/8/13 24/9/13 25/10/13
f 26/11/14 27/12/14 28/13/14
f 29/14/15 30/15/15 31/16/15
f 32/17/16 33/18/16 34/19/16
f 35/20/17 36/21/17 37/22/17
f 38/23/18 39/24/18 40/25/18
f 23/8/19 17/2/19 19/4/19 24/9/19
f 18/26/5 20/5/5 22/7/5 19/27/5
f 21/6/20 26/11/20 28/13/20 22/7/20
f 27/12/6 25/28/6 24/29/6 28/13/6
f 35/20/21 23/8/21 25/10/21 36/21/21
f 26/30/22 38/23/22 40/25/22 27/31/22
f 39/24/3 37/22/3 36/21/3 40/25/3
f 29/14/23 35/20/23 37/22/23 30/15/23
f 38/23/24 32/17/24 34/19/24 39/24/24
f 33/18/4 31/16/4 30/15/4 34/19/4
f 17/2/25 29/14/25 31/16/25 18/3/25
f 32/17/26 21/32/26 20/33/26 33/18/26
f 23/8/1 35/20/1 29/14/1 17/2/1
f 19/27/10 22/7/10 28/13/10 24/29/10
f 31/16/9 33/18/9 20/34/9 18/35/9
f 38/23/2 26/30/2 21/32/2 32/17/2
f 25/28/7 27/12/7 40/25/7 36/21/7
f 37/22/8 39/24/8 34/19/8 30/15/8
usemtl Material.007
f 42/1/9 43/1/9 44/1/9 45/1/9 46/1/9 47/1/9 48/1/9 41/1/9
f 48/1/24 56/1/24 49/1/24 41/1/24
f 46/1/23 54/1/23 55/1/23 47/1/23
f 44/1/19 52/1/19 53/1/19 45/1/19
f 42/1/20 50/1/20 51/1/20 43/1/20
f 47/1/27 55/1/27 56/1/27 48/1/27
f 45/1/1 53/1/1 54/1/1 46/1/1
f 43/1/28 51/1/28 52/1/28 44/1/28
f 41/1/2 49/1/2 50/1/2 42/1/2
f 55/1/9 63/1/9 64/1/9 56/1/9
f 63/1/27 71/1/27 72/1/27 64/1/27
f 53/1/9 61/1/9 62/1/9 54/1/9
f 51/1/9 59/1/9 60/1/9 52/1/9
f 49/1/9 58/1/9 57/1/9 50/1/9
f 56/1/9 64/1/9 58/1/9 49/1/9
f 54/1/9 62/1/9 63/1/9 55/1/9
f 52/1/9 60/1/9 61/1/9 53/1/9
f 50/1/9 57/1/9 59/1/9 51/1/9
f 70/1/7 78/1/7 79/1/7 71/1/7
f 61/1/1 69/1/1 70/1/1 62/1/1
f 59/1/28 67/1/28 68/1/28 60/1/28
f 58/1/2 66/1/2 65/1/2 57/1/2
f 64/1/24 72/1/24 66/1/24 58/1/24
f 62/1/23 70/1/23 71/1/23 63/1/23
f 60/1/19 68/1/19 69/1/19 61/1/19
f 57/1/20 65/1/20 67/1/20 59/1/20
f 68/1/7 76/1/7 77/1/7 69/1/7
f 65/1/7 73/1/7 75/1/7 67/1/7
f 71/1/7 79/1/7 80/1/7 72/1/7
f 69/1/7 77/1/7 78/1/7 70/1/7
f 67/1/7 75/1/7 76/1/7 68/1/7
f 66/1/7 74/1/7 73/1/7 65/1/7
f 72/1/7 80/1/7 74/1/7 66/1/7
f 87/1/9 95/1/9 96/1/9 88/1/9
f 94/1/23 102/1/23 103/1/23 95/1/23
f 85/1/9 93/1/9 94/1/9 86/1/9
f 83/1/9 91/1/9 92/1/9 84/1/9
f 82/1/9 90/1/9 89/1/9 81/1/9
f 88/1/9 96/1/9 90/1/9 82/1/9
f 86/1/9 94/1/9 95/1/9 87/1/9
f 84/1/9 92/1/9 93/1/9 85/1/9
f 81/1/9 89/1/9 91/1/9 83/1/9
f 98/1/7 106/1/7 105/1/7 97/1/7
f 92/1/19 100/1/19 101/1/19 93/1/19
f 89/1/20 97/1/20 99/1/20 91/1/20
f 95/1/27 103/1/27 104/1/27 96/1/27
f 93/1/1 101/1/1 102/1/1 94/1/1
f 91/1/28 99/1/28 100/1/28 92/1/28
f 90/1/2 98/1/2 97/1/2 89/1/2
f 96/1/24 104/1/24 98/1/24 90/1/24
f 104/1/7 112/1/7 106/1/7 98/1/7
f 102/1/7 110/1/7 111/1/7 103/1/7
f 100/1/7 108/1/7 109/1/7 101/1/7
f 97/1/7 105/1/7 107/1/7 99/1/7
f 103/1/7 111/1/7 112/1/7 104/1/7
f 101/1/7 109/1/7 110/1/7 102/1/7
f 99/1/7 107/1/7 108/1/7 100/1/7
f 115/1/9 123/1/9 124/1/9 116/1/9
f 128/1/24 136/1/24 130/1/24 122/1/24
f 114/1/9 122/1/9 121/1/9 113/1/9
f 120/1/9 128/1/9 122/1/9 114/1/9
f 118/1/9 126/1/9 127/1/9 119/1/9
f 116/1/9 124/1/9 125/1/9 117/1/9
f 113/1/9 121/1/9 123/1/9 115/1/9
f 119/1/9 127/1/9 128/1/9 120/1/9
f 117/1/9 125/1/9 126/1/9 118/1/9
f 131/1/29 139/1/29 140/1/29 132/1/29
f 126/1/23 134/1/23 135/1/23 127/1/23
f 124/1/19 132/1/19 133/1/19 125/1/19
f 121/1/20 129/1/20 131/1/20 123/1/20
f 127/1/27 135/1/27 136/1/27 128/1/27
f 125/1/1 133/1/1 134/1/1 126/1/1
f 123/1/28 131/1/28 132/1/28 124/1/28
f 122/1/2 130/1/2 129/1/2 121/1/2
f 143/1/28 151/1/28 152/1/28 144/1/28
f 130/1/30 138/1/30 137/1/30 129/1/30
f 136/1/31 144/1/31 138/1/31 130/1/31
f 134/1/32 142/1/32 143/1/32 135/1/32
f 132/1/33 140/1/33 141/1/33 133/1/33
f 129/1/34 137/1/34 139/1/34 131/1/34
f 135/1/35 143/1/35 144/1/35 136/1/35
f 133/1/36 141/1/36 142/1/36 134/1/36
f 141/1/2 149/1/2 150/1/2 142/1/2
f 139/1/27 147/1/27 148/1/27 140/1/27
f 138/1/1 146/1/1 145/1/1 137/1/1
f 144/1/19 152/1/19 146/1/19 138/1/19
f 142/1/20 150/1/20 151/1/20 143/1/20
f 140/1/24 148/1/24 149/1/24 141/1/24
f 137/1/23 145/1/23 147/1/23 139/1/23
usemtl Material.004
f 79/1/27 87/1/27 88/1/27 80/1/27
f 77/1/1 85/1/1 86/1/1 78/1/1
f 75/1/28 83/1/28 84/1/28 76/1/28
f 74/1/2 82/1/2 81/1/2 73/1/2
f 80/1/24 88/1/24 82/1/24 74/1/24
f 78/1/23 86/1/23 87/1/23 79/1/23
f 76/1/19 84/1/19 85/1/19 77/1/19
f 73/1/20 81/1/20 83/1/20 75/1/20
f 112/1/24 120/1/24 114/1/24 106/1/24
f 110/1/23 118/1/23 119/1/23 111/1/23
f 108/1/19 116/1/19 117/1/19 109/1/19
f 105/1/20 113/1/20 115/1/20 107/1/20
f 111/1/27 119/1/27 120/1/27 112/1/27
f 109/1/1 117/1/1 118/1/1 110/1/1
f 107/1/28 115/1/28 116/1/28 108/1/28
f 106/1/2 114/1/2 113/1/2 105/1/2
usemtl Material.011
f 145/1/7 146/1/7 152/1/7 151/1/7 150/1/7 149/1/7 148/1/7 147/1/7
