# Blender 4.5.3 LTS
# www.blender.org
mtllib sniper3_head.mtl
o Circle
v 0.925036 -0.044504 0.141048
v 0.925036 0.043905 0.141048
v 0.925036 0.106419 0.078533
v 0.925036 0.106993 -0.075598
v 0.925036 0.044478 -0.138113
v 0.925036 -0.043931 -0.138113
v 0.925036 -0.106445 -0.075598
v 0.925036 -0.107019 0.078533
v 2.337160 -0.044504 0.141048
v 2.337160 0.043905 0.141048
v 2.337160 0.106419 0.078533
v 2.337160 0.106993 -0.075598
v 2.337160 0.044478 -0.138112
v 2.337160 -0.043931 -0.138112
v 2.337160 -0.106445 -0.075598
v 2.337160 -0.107019 0.078533
v 2.337160 0.052764 0.169205
v 2.337160 -0.053479 0.169205
v 2.337160 0.127890 0.094079
v 2.337160 0.128579 -0.091144
v 2.337160 0.053453 -0.166270
v 2.337160 -0.052790 -0.166270
v 2.337160 -0.127916 -0.091144
v 2.337160 -0.128605 0.094079
v 2.361591 0.052764 0.169205
v 2.361591 -0.053479 0.169205
v 2.361591 0.127890 0.094079
v 2.361591 0.128579 -0.091144
v 2.361591 0.053453 -0.166270
v 2.361591 -0.052790 -0.166270
v 2.361591 -0.127916 -0.091144
v 2.361591 -0.128605 0.094079
v 2.361591 0.047340 0.151967
v 2.361591 -0.047985 0.151967
v 2.361591 0.114745 0.084562
v 2.361591 0.115364 -0.081627
v 2.361591 0.047959 -0.149031
v 2.361591 -0.047366 -0.149031
v 2.361591 -0.114771 -0.081627
v 2.361591 -0.115390 0.084562
v 2.379160 0.047340 0.151967
v 2.379160 -0.047985 0.151967
v 2.379160 0.114745 0.084562
v 2.379160 0.115364 -0.081627
v 2.379160 0.047959 -0.149031
v 2.379160 -0.047366 -0.149031
v 2.379160 -0.114771 -0.081627
v 2.379160 -0.115390 0.084562
v 2.379160 0.052761 0.169196
v 2.379160 -0.053477 0.169196
v 2.379160 0.127883 0.094075
v 2.379160 0.128572 -0.091140
v 2.379160 0.053451 -0.166261
v 2.379160 -0.052787 -0.166261
v 2.379160 -0.127909 -0.091140
v 2.379160 -0.128598 0.094075
v 2.404994 0.052761 0.169196
v 2.404994 -0.053477 0.169196
v 2.404994 0.127883 0.094075
v 2.404994 0.128572 -0.091140
v 2.404994 0.053451 -0.166261
v 2.404994 -0.052787 -0.166261
v 2.404994 -0.127909 -0.091140
v 2.404994 -0.128598 0.094075
v 2.404994 0.047338 0.151959
v 2.404994 -0.047982 0.151959
v 2.404994 0.114739 0.084557
v 2.404994 0.115358 -0.081622
v 2.404994 0.047956 -0.149024
v 2.404994 -0.047364 -0.149024
v 2.404994 -0.114765 -0.081622
v 2.404994 -0.115384 0.084557
v 2.420942 0.047338 0.151959
v 2.420942 -0.047982 0.151959
v 2.420942 0.114739 0.084557
v 2.420942 0.115358 -0.081622
v 2.420942 0.047956 -0.149024
v 2.420942 -0.047364 -0.149024
v 2.420942 -0.114765 -0.081622
v 2.420942 -0.115384 0.084557
v 2.420942 0.052763 0.169202
v 2.420942 -0.053479 0.169202
v 2.420942 0.127888 0.094078
v 2.420942 0.128577 -0.091143
v 2.420942 0.053453 -0.166267
v 2.420942 -0.052789 -0.166267
v 2.420942 -0.127914 -0.091143
v 2.420942 -0.128603 0.094078
v 2.445780 0.052763 0.169202
v 2.445780 -0.053479 0.169202
v 2.445780 0.127888 0.094078
v 2.445780 0.128577 -0.091143
v 2.445780 0.053453 -0.166267
v 2.445780 -0.052789 -0.166267
v 2.445780 -0.127914 -0.091143
v 2.445780 -0.128603 0.094078
v 2.435311 0.019357 0.063031
v 2.435311 -0.019636 0.063031
v 2.435311 0.046930 0.035458
v 2.435311 0.047183 -0.032523
v 2.435311 0.019610 -0.060095
v 2.435311 -0.019383 -0.060095
v 2.435311 -0.046956 -0.032523
v 2.435311 -0.047209 0.035458
v 2.132780 0.019357 0.063030
v 2.132780 -0.019637 0.063030
v 2.132780 0.046929 0.035458
v 2.132780 0.047182 -0.032523
v 2.132780 0.019610 -0.060096
v 2.132780 -0.019384 -0.060096
v 2.132780 -0.046957 -0.032523
v 2.132780 -0.047210 0.035458
v 0.025809 0.114931 -0.181259
v 0.000161 0.114931 -0.155610
v 0.025809 0.140580 -0.155610
v 0.000161 0.114931 0.161951
v 0.025809 0.114931 0.187600
v 0.025809 0.140580 0.161951
v 0.995234 0.114931 -0.181259
v 0.995234 0.140580 -0.155610
v 1.020882 0.114931 -0.155610
v 0.995234 0.114931 0.187600
v 1.020882 0.114931 0.161951
v 0.995234 0.140580 0.161951
v 0.025809 -0.114931 -0.181259
v 0.025809 -0.140580 -0.155610
v 0.000161 -0.114931 -0.155610
v 0.025809 -0.114931 0.187600
v 0.000161 -0.114931 0.161951
v 0.025809 -0.140580 0.161951
v 0.995234 -0.114931 -0.181259
v 1.020882 -0.114931 -0.155610
v 0.995234 -0.140580 -0.155610
v 0.995234 -0.114931 0.187600
v 0.995234 -0.140580 0.161951
v 1.020882 -0.114931 0.161951
vn -1.0000 -0.0000 -0.0000
vn -0.0000 -0.7071 0.7071
vn -0.0000 -0.7071 -0.7071
vn -0.0000 0.7071 -0.7071
vn -0.0000 0.7071 0.7071
vn -0.0000 -1.0000 -0.0037
vn -0.0000 -0.0000 -1.0000
vn -0.0000 1.0000 0.0037
vn -0.0000 -0.0000 1.0000
vn 1.0000 -0.0000 -0.0000
vn 0.9918 -0.1279 -0.0005
vn 0.9952 -0.0000 -0.0981
vn 0.9945 0.0744 -0.0744
vn 0.9944 0.0746 0.0746
vn 0.9945 -0.0744 0.0744
vn 0.9944 -0.0746 -0.0746
vn 0.9918 0.1279 0.0005
vn 0.9952 -0.0000 0.0981
vn -0.5773 0.5774 -0.5774
vn -0.5773 0.5774 0.5774
vn 0.5774 0.5774 -0.5773
vn 0.5774 0.5774 0.5773
vn -0.5773 -0.5774 -0.5774
vn -0.5773 -0.5774 0.5774
vn 0.5774 -0.5774 -0.5773
vn 0.5774 -0.5774 0.5773
vn -0.7071 0.7071 -0.0000
vn 0.7071 0.7071 -0.0000
vn 0.7071 -0.0000 -0.7071
vn 0.7071 -0.0000 0.7071
vn 0.7071 -0.7071 -0.0000
vn -0.7071 -0.7071 -0.0000
vn -0.7071 -0.0000 -0.7071
vn -0.7071 -0.0000 0.7071
vn -0.0000 1.0000 -0.0000
vn -0.0000 -1.0000 -0.0000
vn 0.9945 0.0744 -0.0743
vt 0.000000 0.000000
vt 0.147806 0.743470
vt 0.147806 0.750000
vt 0.125000 0.743470
vt 0.602194 0.000000
vt 0.625000 0.006530
vt 0.602194 0.006530
vt 0.147806 0.506530
vt 0.125000 0.506530
vt 0.147806 0.500000
vt 0.625000 0.243470
vt 0.602194 0.272596
vt 0.602194 0.243470
vt 0.352194 0.743470
vt 0.397755 0.743470
vt 0.392009 0.769907
vt 0.647755 0.743470
vt 0.607620 0.769907
vt 0.602194 0.743470
vt 0.352194 0.506530
vt 0.392009 0.480093
vt 0.397755 0.506530
vt 0.647755 0.506530
vt 0.602194 0.506530
vt 0.607620 0.480093
vt 0.397806 0.006530
vt 0.397806 0.000000
vt 0.397806 0.272806
vt 0.852194 0.500000
vt 0.852194 0.506530
vt 0.852194 0.743470
vt 0.397806 0.243470
vt 0.397806 0.977194
vt 0.852194 0.750000
vt 0.602194 0.977194
s 0
usemtl Material.007
f 5/1/1 7/1/1 1/1/1
f 16/1/2 1/1/2 8/1/2
f 14/1/3 7/1/3 6/1/3
f 12/1/4 5/1/4 4/1/4
f 10/1/5 3/1/5 2/1/5
f 15/1/6 8/1/6 7/1/6
f 5/1/7 14/1/7 6/1/7
f 11/1/8 4/1/8 3/1/8
f 9/1/9 2/1/9 1/1/9
f 23/1/1 16/1/1 15/1/1
f 31/1/6 24/1/6 23/1/6
f 13/1/1 22/1/1 14/1/1
f 19/1/1 12/1/1 11/1/1
f 9/1/1 17/1/1 10/1/1
f 24/1/1 9/1/1 16/1/1
f 14/1/1 23/1/1 15/1/1
f 20/1/1 13/1/1 12/1/1
f 10/1/1 19/1/1 11/1/1
f 38/1/10 31/1/10 30/1/10
f 29/1/7 22/1/7 21/1/7
f 27/1/8 20/1/8 19/1/8
f 18/1/9 25/1/9 17/1/9
f 32/1/2 18/1/2 24/1/2
f 30/1/3 23/1/3 22/1/3
f 28/1/4 21/1/4 20/1/4
f 25/1/5 19/1/5 17/1/5
f 28/1/10 37/1/10 29/1/10
f 33/1/10 27/1/10 25/1/10
f 31/1/10 40/1/10 32/1/10
f 37/1/10 30/1/10 29/1/10
f 27/1/10 36/1/10 28/1/10
f 34/1/10 25/1/10 26/1/10
f 32/1/10 34/1/10 26/1/10
f 55/1/1 48/1/1 47/1/1
f 62/1/3 55/1/3 54/1/3
f 45/1/1 54/1/1 46/1/1
f 51/1/1 44/1/1 43/1/1
f 42/1/1 49/1/1 41/1/1
f 56/1/1 42/1/1 48/1/1
f 46/1/1 55/1/1 47/1/1
f 52/1/1 45/1/1 44/1/1
f 41/1/1 51/1/1 43/1/1
f 66/1/10 57/1/10 58/1/10
f 52/1/4 61/1/4 53/1/4
f 57/1/5 51/1/5 49/1/5
f 63/1/6 56/1/6 55/1/6
f 61/1/7 54/1/7 53/1/7
f 59/1/8 52/1/8 51/1/8
f 58/1/9 49/1/9 50/1/9
f 64/1/2 50/1/2 56/1/2
f 64/1/10 66/1/10 58/1/10
f 70/1/10 63/1/10 62/1/10
f 60/1/10 69/1/10 61/1/10
f 65/1/10 59/1/10 57/1/10
f 63/1/10 72/1/10 64/1/10
f 69/1/10 62/1/10 61/1/10
f 59/1/10 68/1/10 60/1/10
f 83/1/1 76/1/1 75/1/1
f 88/1/2 90/1/2 82/1/2
f 74/1/1 81/1/1 73/1/1
f 88/1/1 74/1/1 80/1/1
f 78/1/1 87/1/1 79/1/1
f 84/1/1 77/1/1 76/1/1
f 73/1/1 83/1/1 75/1/1
f 87/1/1 80/1/1 79/1/1
f 77/1/1 86/1/1 78/1/1
f 91/1/11 100/1/11 92/1/11
f 94/1/3 87/1/3 86/1/3
f 92/1/4 85/1/4 84/1/4
f 89/1/5 83/1/5 81/1/5
f 95/1/6 88/1/6 87/1/6
f 93/1/7 86/1/7 85/1/7
f 91/1/8 84/1/8 83/1/8
f 90/1/9 81/1/9 82/1/9
f 103/1/8 112/1/8 104/1/8
f 98/1/12 89/1/12 90/1/12
f 96/1/13 98/1/13 90/1/13
f 102/1/14 95/1/14 94/1/14
f 92/1/15 101/1/15 93/1/15
f 97/1/16 91/1/16 89/1/16
f 95/1/17 104/1/17 96/1/17
f 101/1/18 94/1/18 93/1/18
f 109/1/9 102/1/9 101/1/9
f 107/1/6 100/1/6 99/1/6
f 98/1/7 105/1/7 97/1/7
f 104/1/4 106/1/4 98/1/4
f 102/1/5 111/1/5 103/1/5
f 108/1/2 101/1/2 100/1/2
f 105/1/3 99/1/3 97/1/3
f 1/1/1 2/1/1 3/1/1
f 3/1/1 4/1/1 5/1/1
f 5/1/1 6/1/1 7/1/1
f 7/1/1 8/1/1 1/1/1
f 1/1/1 3/1/1 5/1/1
f 16/1/2 9/1/2 1/1/2
f 14/1/3 15/1/3 7/1/3
f 12/1/4 13/1/4 5/1/4
f 10/1/5 11/1/5 3/1/5
f 15/1/6 16/1/6 8/1/6
f 5/1/7 13/1/7 14/1/7
f 11/1/8 12/1/8 4/1/8
f 9/1/9 10/1/9 2/1/9
f 23/1/1 24/1/1 16/1/1
f 31/1/6 32/1/6 24/1/6
f 13/1/1 21/1/1 22/1/1
f 19/1/1 20/1/1 12/1/1
f 9/1/1 18/1/1 17/1/1
f 24/1/1 18/1/1 9/1/1
f 14/1/1 22/1/1 23/1/1
f 20/1/1 21/1/1 13/1/1
f 10/1/1 17/1/1 19/1/1
f 38/1/10 39/1/10 31/1/10
f 29/1/7 30/1/7 22/1/7
f 27/1/8 28/1/8 20/1/8
f 18/1/9 26/1/9 25/1/9
f 32/1/2 26/1/2 18/1/2
f 30/1/3 31/1/3 23/1/3
f 28/1/4 29/1/4 21/1/4
f 25/1/5 27/1/5 19/1/5
f 28/1/10 36/1/10 37/1/10
f 33/1/10 35/1/10 27/1/10
f 31/1/10 39/1/10 40/1/10
f 37/1/10 38/1/10 30/1/10
f 27/1/10 35/1/10 36/1/10
f 34/1/10 33/1/10 25/1/10
f 32/1/10 40/1/10 34/1/10
f 55/1/1 56/1/1 48/1/1
f 62/1/3 63/1/3 55/1/3
f 45/1/1 53/1/1 54/1/1
f 51/1/1 52/1/1 44/1/1
f 42/1/1 50/1/1 49/1/1
f 56/1/1 50/1/1 42/1/1
f 46/1/1 54/1/1 55/1/1
f 52/1/1 53/1/1 45/1/1
f 41/1/1 49/1/1 51/1/1
f 66/1/10 65/1/10 57/1/10
f 52/1/4 60/1/4 61/1/4
f 57/1/5 59/1/5 51/1/5
f 63/1/6 64/1/6 56/1/6
f 61/1/7 62/1/7 54/1/7
f 59/1/8 60/1/8 52/1/8
f 58/1/9 57/1/9 49/1/9
f 64/1/2 58/1/2 50/1/2
f 64/1/10 72/1/10 66/1/10
f 70/1/10 71/1/10 63/1/10
f 60/1/10 68/1/10 69/1/10
f 65/1/10 67/1/10 59/1/10
f 63/1/10 71/1/10 72/1/10
f 69/1/10 70/1/10 62/1/10
f 59/1/10 67/1/10 68/1/10
f 83/1/1 84/1/1 76/1/1
f 88/1/2 96/1/2 90/1/2
f 74/1/1 82/1/1 81/1/1
f 88/1/1 82/1/1 74/1/1
f 78/1/1 86/1/1 87/1/1
f 84/1/1 85/1/1 77/1/1
f 73/1/1 81/1/1 83/1/1
f 87/1/1 88/1/1 80/1/1
f 77/1/1 85/1/1 86/1/1
f 91/1/11 99/1/11 100/1/11
f 94/1/3 95/1/3 87/1/3
f 92/1/4 93/1/4 85/1/4
f 89/1/5 91/1/5 83/1/5
f 95/1/6 96/1/6 88/1/6
f 93/1/7 94/1/7 86/1/7
f 91/1/8 92/1/8 84/1/8
f 90/1/9 89/1/9 81/1/9
f 103/1/8 111/1/8 112/1/8
f 98/1/12 97/1/12 89/1/12
f 96/1/37 104/1/37 98/1/37
f 102/1/14 103/1/14 95/1/14
f 92/1/15 100/1/15 101/1/15
f 97/1/16 99/1/16 91/1/16
f 95/1/17 103/1/17 104/1/17
f 101/1/18 102/1/18 94/1/18
f 109/1/9 110/1/9 102/1/9
f 107/1/6 108/1/6 100/1/6
f 98/1/7 106/1/7 105/1/7
f 104/1/4 112/1/4 106/1/4
f 102/1/5 110/1/5 111/1/5
f 108/1/2 109/1/2 101/1/2
f 105/1/3 107/1/3 99/1/3
usemtl Material.004
f 47/1/6 40/1/6 39/1/6
f 37/1/7 46/1/7 38/1/7
f 43/1/8 36/1/8 35/1/8
f 42/1/9 33/1/9 34/1/9
f 40/1/2 42/1/2 34/1/2
f 46/1/3 39/1/3 38/1/3
f 44/1/4 37/1/4 36/1/4
f 41/1/5 35/1/5 33/1/5
f 72/1/2 74/1/2 66/1/2
f 78/1/3 71/1/3 70/1/3
f 76/1/4 69/1/4 68/1/4
f 65/1/5 75/1/5 67/1/5
f 71/1/6 80/1/6 72/1/6
f 77/1/7 70/1/7 69/1/7
f 75/1/8 68/1/8 67/1/8
f 74/1/9 65/1/9 66/1/9
f 47/1/6 48/1/6 40/1/6
f 37/1/7 45/1/7 46/1/7
f 43/1/8 44/1/8 36/1/8
f 42/1/9 41/1/9 33/1/9
f 40/1/2 48/1/2 42/1/2
f 46/1/3 47/1/3 39/1/3
f 44/1/4 45/1/4 37/1/4
f 41/1/5 43/1/5 35/1/5
f 72/1/2 80/1/2 74/1/2
f 78/1/3 79/1/3 71/1/3
f 76/1/4 77/1/4 69/1/4
f 65/1/5 73/1/5 75/1/5
f 71/1/6 79/1/6 80/1/6
f 77/1/7 78/1/7 70/1/7
f 75/1/8 76/1/8 68/1/8
f 74/1/9 73/1/9 65/1/9
usemtl Material.011
f 111/1/10 109/1/10 107/1/10
f 107/1/10 105/1/10 106/1/10
f 106/1/10 112/1/10 111/1/10
f 111/1/10 110/1/10 109/1/10
f 109/1/10 108/1/10 107/1/10
f 107/1/10 106/1/10 111/1/10
usemtl Material.008
f 113/2/19 114/3/19 115/4/19
f 116/5/20 117/6/20 118/7/20
f 119/8/21 120/9/21 121/10/21
f 122/11/22 123/12/22 124/13/22
f 125/14/23 126/15/23 127/16/23
f 128/17/24 129/18/24 130/19/24
f 131/20/25 132/21/25 133/22/25
f 134/23/26 135/24/26 136/25/26
f 113/2/4 120/9/4 119/8/4
f 116/5/27 115/26/27 114/27/27
f 122/11/5 118/7/5 117/6/5
f 121/28/28 124/13/28 123/12/28
f 119/8/29 132/21/29 131/20/29
f 134/23/30 123/29/30 122/30/30
f 133/22/31 136/25/31 135/24/31
f 131/20/3 126/15/3 125/14/3
f 128/17/2 135/24/2 134/23/2
f 127/16/32 130/19/32 129/18/32
f 125/14/33 114/3/33 113/2/33
f 117/31/34 129/18/34 128/17/34
f 131/20/7 113/2/7 119/8/7
f 118/7/35 120/32/35 115/26/35
f 129/18/1 114/33/1 127/16/1
f 122/30/9 128/17/9 134/23/9
f 123/12/10 132/21/10 121/28/10
f 135/24/36 126/15/36 133/22/36
f 113/2/4 115/4/4 120/9/4
f 116/5/27 118/7/27 115/26/27
f 122/11/5 124/13/5 118/7/5
f 121/28/28 120/32/28 124/13/28
f 119/8/29 121/10/29 132/21/29
f 134/23/30 136/25/30 123/29/30
f 133/22/31 132/21/31 136/25/31
f 131/20/3 133/22/3 126/15/3
f 128/17/2 130/19/2 135/24/2
f 127/16/32 126/15/32 130/19/32
f 125/14/33 127/16/33 114/3/33
f 117/31/34 116/34/34 129/18/34
f 131/20/7 125/14/7 113/2/7
f 118/7/35 124/13/35 120/32/35
f 129/18/1 116/35/1 114/33/1
f 122/30/9 117/31/9 128/17/9
f 123/12/10 136/25/10 132/21/10
f 135/24/36 130/19/36 126/15/36
