# Blender 4.5.3 LTS
# www.blender.org
mtllib sniper.mtl
o Circle.003
v 1.057246 0.022318 -0.187886
v 1.040427 0.193083 -0.187886
v 0.846638 0.357286 -0.187886
v 0.727558 0.508616 -0.187886
v 0.618702 0.641258 -0.187886
v 0.486060 0.750114 -0.187886
v 0.319222 0.884457 -0.187886
v 0.169437 1.027970 -0.187886
v -0.000238 1.044789 -0.187886
v -0.202080 1.027970 -0.187886
v -0.340087 0.867572 -0.187886
v -0.486535 0.750114 -0.187886
v -0.619177 0.641258 -0.187886
v -0.728033 0.508616 -0.187886
v -0.827852 0.357286 -0.187886
v -1.028646 0.193083 -0.187886
v -1.045465 0.022318 -0.187886
v -1.028646 -0.148447 -0.187886
v -0.832620 -0.312649 -0.187886
v -0.728033 -0.463979 -0.187886
v -0.619177 -0.596621 -0.187886
v -0.486535 -0.705477 -0.187886
v -0.335205 -0.810842 -0.187886
v -0.171003 -1.053571 -0.187886
v -0.000238 -1.070390 -0.187886
v 0.175559 -1.053571 -0.187886
v 0.334730 -0.813996 -0.187886
v 0.486060 -0.705477 -0.187886
v 0.618702 -0.596621 -0.187886
v 0.727558 -0.463979 -0.187886
v 0.860757 -0.312649 -0.187886
v 1.040427 -0.148447 -0.187886
v -0.700516 0.356524 -0.187886
v -0.695886 -0.310633 -0.187886
v -0.335740 -0.690730 -0.187886
v 0.329872 -0.686987 -0.187886
v 0.710709 -0.310782 -0.187886
v 0.705796 0.360484 -0.187886
v 0.851819 0.193083 0.186119
v 0.868638 0.022318 0.186119
v 0.808445 0.357286 0.219491
v 0.727558 0.508616 0.219491
v 0.618702 0.641258 0.219491
v 0.486060 0.750114 0.219491
v 0.294661 0.831001 0.219491
v 0.133702 0.890045 0.166628
v -0.000238 0.906864 0.166628
v -0.164427 0.890045 0.166628
v -0.319964 0.831001 0.219491
v -0.486535 0.750114 0.219491
v -0.619177 0.641258 0.219491
v -0.728033 0.508616 0.219491
v -0.808921 0.357286 0.219491
v -0.856515 0.193083 0.176125
v -0.873333 0.022318 0.176125
v -0.856515 -0.148447 0.176125
v -0.808921 -0.312649 0.219491
v -0.728033 -0.463979 0.219491
v -0.619177 -0.596621 0.219491
v -0.486535 -0.705477 0.219491
v -0.335205 -0.786365 0.219491
v -0.171003 -0.844509 0.167492
v -0.000238 -0.861329 0.167492
v 0.170527 -0.844509 0.167492
v 0.334730 -0.786365 0.219491
v 0.486060 -0.705477 0.219491
v 0.618702 -0.596621 0.219491
v 0.727558 -0.463979 0.219491
v 0.808445 -0.312649 0.219491
v 0.851819 -0.148447 0.186119
v 0.875075 0.022318 -0.187886
v 0.858256 0.193083 -0.187886
v 0.727558 0.508616 -0.187886
v 0.618702 0.641258 -0.187886
v 0.486060 0.750114 -0.187886
v -0.486535 0.750114 -0.187886
v -0.619177 0.641258 -0.187886
v -0.728033 0.508616 -0.187886
v -0.858731 0.193083 -0.187886
v -0.875550 0.022318 -0.187886
v -0.858731 -0.148447 -0.187886
v -0.728033 -0.463979 -0.187886
v -0.619177 -0.596621 -0.187886
v -0.486535 -0.705477 -0.187886
v -0.171003 -0.836175 -0.187886
v -0.000238 -0.852994 -0.187886
v 0.170527 -0.836175 -0.187886
v 0.486060 -0.705477 -0.187886
v 0.618702 -0.596621 -0.187886
v 0.727558 -0.463979 -0.187886
v 0.858256 -0.148447 -0.187886
v -0.586860 0.613061 0.217603
v -0.586860 -0.552412 0.217603
v 0.578613 0.613061 0.217603
v 0.578613 -0.552412 0.217603
v 0.767659 0.802107 0.465878
v -0.775906 0.802107 0.465878
v -0.775906 -0.741458 0.465878
v 0.767659 -0.741458 0.465878
v 0.720717 0.029812 0.423595
v 0.706850 0.170608 0.423595
v 0.665781 0.305993 0.423595
v 0.599089 0.430765 0.423595
v 0.509337 0.540129 0.423595
v 0.399973 0.629881 0.423595
v 0.275201 0.696573 0.423595
v 0.139816 0.737642 0.423595
v -0.000980 0.751509 0.423595
v -0.141777 0.737642 0.423595
v -0.277162 0.696573 0.423595
v -0.401934 0.629881 0.423595
v -0.511298 0.540129 0.423595
v -0.601050 0.430765 0.423595
v -0.667742 0.305993 0.423595
v -0.708811 0.170608 0.423595
v -0.722678 0.029812 0.423595
v -0.708811 -0.110985 0.423595
v -0.667742 -0.246370 0.423595
v -0.601050 -0.371142 0.423595
v -0.511298 -0.480506 0.423595
v -0.401934 -0.570258 0.423595
v -0.277162 -0.636950 0.423595
v -0.141777 -0.678019 0.423595
v -0.000980 -0.691886 0.423595
v 0.139816 -0.678019 0.423595
v 0.275201 -0.636950 0.423595
v 0.399973 -0.570258 0.423595
v 0.509337 -0.480506 0.423595
v 0.599089 -0.371142 0.423595
v 0.665781 -0.246370 0.423595
v 0.706850 -0.110985 0.423595
v 0.750476 0.179285 0.541212
v 0.765198 0.029812 0.541212
v 0.706876 0.323015 0.541212
v 0.636073 0.455477 0.541212
v 0.540789 0.571581 0.541212
v 0.424685 0.666865 0.541212
v 0.292223 0.737668 0.541212
v 0.148494 0.781268 0.541212
v -0.000980 0.795990 0.541212
v -0.150454 0.781268 0.541212
v -0.294184 0.737668 0.541212
v -0.426646 0.666865 0.541212
v -0.542750 0.571581 0.541212
v -0.638034 0.455477 0.541212
v -0.708837 0.323015 0.541212
v -0.752437 0.179285 0.541212
v -0.767158 0.029812 0.541212
v -0.752437 -0.119662 0.541212
v -0.708837 -0.263392 0.541212
v -0.638034 -0.395854 0.541212
v -0.542750 -0.511958 0.541212
v -0.426646 -0.607242 0.541212
v -0.294184 -0.678045 0.541212
v -0.150454 -0.721645 0.541212
v -0.000980 -0.736367 0.541212
v 0.148494 -0.721645 0.541212
v 0.292223 -0.678045 0.541212
v 0.424685 -0.607242 0.541212
v 0.540789 -0.511958 0.541212
v 0.636073 -0.395854 0.541212
v 0.706876 -0.263392 0.541212
v 0.750476 -0.119662 0.541212
vn -0.0000 -0.0000 -1.0000
vn 0.3370 -0.0332 0.9409
vn -0.0456 0.4456 0.8941
vn -0.4064 -0.0400 0.9128
vn 0.0427 -0.4336 0.9001
vn -0.0000 -0.0000 1.0000
vn -0.3172 -0.9467 0.0569
vn -0.7189 0.6186 0.3170
vn -0.0846 -0.8588 0.5052
vn -0.6225 0.7761 0.1004
vn 0.0822 -0.8590 0.5053
vn -0.6344 0.7730 -0.0000
vn 0.7892 -0.5244 0.3196
vn -0.7730 0.6344 -0.0000
vn 0.5819 -0.8114 0.0550
vn -0.8819 0.4714 -0.0000
vn 0.8895 0.0876 0.4485
vn 0.6344 -0.7730 -0.0000
vn -0.9626 0.2672 0.0447
vn 0.6146 0.7254 0.3100
vn 0.7730 -0.6344 -0.0000
vn -0.9005 0.0887 0.4258
vn 0.7837 0.6167 0.0735
vn 0.8819 -0.4714 -0.0000
vn -0.9005 -0.0887 0.4258
vn 0.7730 0.6344 -0.0000
vn 0.9653 -0.2298 0.1240
vn -0.6144 -0.7335 0.2906
vn 0.6344 0.7730 -0.0000
vn 0.8895 -0.0876 0.4485
vn -0.8217 -0.5679 0.0478
vn 0.3893 0.9211 -0.0000
vn -0.7730 -0.6344 -0.0000
vn 0.2995 0.9435 0.1419
vn -0.6344 -0.7730 -0.0000
vn 0.0917 0.9249 0.3691
vn -0.4714 -0.8819 -0.0000
vn -0.0950 0.9277 0.3609
vn -0.0000 -0.7956 -0.6058
vn -0.0000 0.7956 -0.6058
vn 0.7956 -0.0000 -0.6058
vn -0.7956 -0.0000 -0.6058
vn 0.7235 -0.5937 -0.3522
vn -0.9314 0.0917 -0.3522
vn 0.8254 0.4412 -0.3522
vn 0.8254 -0.4412 -0.3522
vn -0.9314 -0.0917 -0.3522
vn 0.7235 0.5937 -0.3522
vn 0.8956 -0.2717 -0.3522
vn -0.8956 -0.2717 -0.3522
vn 0.5937 0.7235 -0.3522
vn 0.9314 -0.0917 -0.3522
vn -0.8254 -0.4412 -0.3522
vn 0.4412 0.8254 -0.3522
vn -0.7235 -0.5937 -0.3522
vn 0.2717 0.8956 -0.3522
vn -0.5937 -0.7235 -0.3522
vn 0.0917 0.9314 -0.3522
vn -0.4412 -0.8254 -0.3522
vn -0.0917 0.9314 -0.3522
vn -0.2717 -0.8956 -0.3522
vn -0.2717 0.8956 -0.3522
vn -0.0917 -0.9314 -0.3522
vn -0.4412 0.8254 -0.3522
vn 0.0917 -0.9314 -0.3522
vn -0.5937 0.7235 -0.3522
vn 0.2717 -0.8956 -0.3522
vn -0.7235 0.5937 -0.3522
vn 0.4412 -0.8254 -0.3522
vn -0.8254 0.4412 -0.3522
vn 0.9314 0.0917 -0.3522
vn 0.5937 -0.7235 -0.3522
vn -0.8956 0.2717 -0.3522
vn 0.8956 0.2717 -0.3522
vn 0.7729 0.0761 0.6300
vn 0.6098 -0.0000 0.7926
vn -0.0000 0.6670 0.7450
vn 0.1007 0.8018 0.5890
vn -0.6735 -0.0000 0.7392
vn -0.8072 0.0795 0.5849
vn -0.0000 -0.6666 0.7454
vn -0.0764 -0.7759 0.6263
vn -0.7866 -0.5322 0.3131
vn -0.3231 0.9410 0.1004
vn -0.4368 0.8995 -0.0000
vn 0.0845 -0.8583 0.5061
vn 0.3150 -0.9469 0.0642
vn 0.4714 -0.8819 -0.0000
vn -0.8341 0.5502 0.0388
vn -0.6065 0.7416 0.2868
vn 0.9673 0.2371 0.0907
vn 0.8819 0.4714 -0.0000
vn 0.7472 -0.6577 0.0959
vn 0.6387 -0.6988 0.3221
vn -0.9628 -0.2643 0.0560
vn -0.8819 -0.4714 -0.0000
vn 0.6211 0.7714 0.1387
vn 0.6529 0.6814 0.3309
vn 0.1162 0.9256 0.3601
vn -0.5707 -0.8197 0.0492
vn -0.0772 0.9264 0.3686
vt 0.000000 0.000000
vt 0.000000 1.000000
vt 1.000000 0.000000
vt 1.000000 1.000000
s 0
usemtl base
f 1/1/1 31/1/1 38/1/1
f 10/1/1 8/1/1 7/1/1
f 18/1/1 16/1/1 33/1/1
f 26/1/1 24/1/1 35/1/1
f 35/1/1 11/1/1 4/1/1
f 50/1/6 61/1/6 68/1/6
f 12/1/10 49/1/10 11/1/10
f 13/1/12 50/1/12 12/1/12
f 14/1/14 51/1/14 13/1/14
f 28/1/15 65/1/15 27/1/15
f 14/1/16 53/1/16 52/1/16
f 29/1/18 66/1/18 28/1/18
f 30/1/21 67/1/21 29/1/21
f 4/1/23 41/1/23 3/1/23
f 30/1/24 69/1/24 68/1/24
f 5/1/26 42/1/26 4/1/26
f 6/1/29 43/1/29 5/1/29
f 20/1/31 57/1/31 19/1/31
f 6/1/32 45/1/32 44/1/32
f 21/1/33 58/1/33 20/1/33
f 22/1/35 59/1/35 21/1/35
f 22/1/37 61/1/37 60/1/37
f 9/1/6 80/1/6 86/1/6
f 3/1/1 2/1/1 1/1/1
f 1/1/1 32/1/1 31/1/1
f 31/1/1 37/1/1 38/1/1
f 38/1/1 3/1/1 1/1/1
f 7/1/1 11/1/1 10/1/1
f 10/1/1 9/1/1 8/1/1
f 34/1/1 19/1/1 18/1/1
f 18/1/1 17/1/1 16/1/1
f 16/1/1 15/1/1 33/1/1
f 33/1/1 34/1/1 18/1/1
f 36/1/1 27/1/1 26/1/1
f 26/1/1 25/1/1 24/1/1
f 24/1/1 23/1/1 35/1/1
f 35/1/1 36/1/1 26/1/1
f 37/1/1 31/1/1 30/1/1
f 30/1/1 29/1/1 28/1/1
f 28/1/1 27/1/1 36/1/1
f 35/1/1 23/1/1 22/1/1
f 30/1/1 28/1/1 36/1/1
f 35/1/1 22/1/1 21/1/1
f 30/1/1 36/1/1 35/1/1
f 37/1/1 30/1/1 35/1/1
f 35/1/1 21/1/1 20/1/1
f 20/1/1 19/1/1 34/1/1
f 33/1/1 15/1/1 14/1/1
f 35/1/1 20/1/1 34/1/1
f 33/1/1 14/1/1 13/1/1
f 35/1/1 34/1/1 33/1/1
f 38/1/1 37/1/1 35/1/1
f 4/1/1 3/1/1 38/1/1
f 6/1/1 5/1/1 4/1/1
f 11/1/1 7/1/1 6/1/1
f 13/1/1 12/1/1 11/1/1
f 35/1/1 33/1/1 13/1/1
f 4/1/1 38/1/1 35/1/1
f 11/1/1 6/1/1 4/1/1
f 35/1/1 13/1/1 11/1/1
f 68/1/6 69/1/6 41/1/6
f 41/1/6 42/1/6 43/1/6
f 43/1/6 44/1/6 45/1/6
f 45/1/6 49/1/6 50/1/6
f 50/1/6 51/1/6 52/1/6
f 52/1/6 53/1/6 57/1/6
f 57/1/6 58/1/6 59/1/6
f 59/1/6 60/1/6 61/1/6
f 61/1/6 65/1/6 66/1/6
f 66/1/6 67/1/6 68/1/6
f 68/1/6 41/1/6 43/1/6
f 43/1/6 45/1/6 50/1/6
f 50/1/6 52/1/6 57/1/6
f 57/1/6 59/1/6 61/1/6
f 61/1/6 66/1/6 68/1/6
f 68/1/6 43/1/6 50/1/6
f 50/1/6 57/1/6 61/1/6
f 12/1/85 50/1/85 49/1/85
f 13/1/12 51/1/12 50/1/12
f 14/1/14 52/1/14 51/1/14
f 28/1/88 66/1/88 65/1/88
f 14/1/89 15/1/89 53/1/89
f 29/1/18 67/1/18 66/1/18
f 30/1/21 68/1/21 67/1/21
f 4/1/92 42/1/92 41/1/92
f 30/1/93 31/1/93 69/1/93
f 5/1/26 43/1/26 42/1/26
f 6/1/29 44/1/29 43/1/29
f 20/1/96 58/1/96 57/1/96
f 6/1/97 7/1/97 45/1/97
f 21/1/33 59/1/33 58/1/33
f 22/1/35 60/1/35 59/1/35
f 22/1/100 23/1/100 61/1/100
f 72/1/6 3/1/6 73/1/6
f 73/1/6 74/1/6 75/1/6
f 7/1/6 8/1/6 9/1/6
f 73/1/6 75/1/6 7/1/6
f 71/1/6 72/1/6 73/1/6
f 90/1/6 31/1/6 91/1/6
f 91/1/6 71/1/6 73/1/6
f 73/1/6 7/1/6 9/1/6
f 9/1/6 10/1/6 11/1/6
f 11/1/6 76/1/6 77/1/6
f 77/1/6 78/1/6 15/1/6
f 15/1/6 79/1/6 80/1/6
f 80/1/6 81/1/6 19/1/6
f 19/1/6 82/1/6 83/1/6
f 83/1/6 84/1/6 23/1/6
f 23/1/6 85/1/6 86/1/6
f 86/1/6 87/1/6 27/1/6
f 27/1/6 88/1/6 89/1/6
f 89/1/6 90/1/6 91/1/6
f 91/1/6 73/1/6 9/1/6
f 9/1/6 11/1/6 77/1/6
f 77/1/6 15/1/6 80/1/6
f 80/1/6 19/1/6 83/1/6
f 83/1/6 23/1/6 86/1/6
f 86/1/6 27/1/6 89/1/6
f 89/1/6 91/1/6 9/1/6
f 9/1/6 77/1/6 80/1/6
f 80/1/6 83/1/6 86/1/6
f 86/1/6 89/1/6 9/1/6
usemtl rojo
f 41/1/2 70/1/2 40/1/2
f 45/1/3 47/1/3 48/1/3
f 53/1/4 55/1/4 56/1/4
f 61/1/5 63/1/5 64/1/5
f 23/1/7 62/1/7 61/1/7
f 11/1/8 48/1/8 10/1/8
f 24/1/9 63/1/9 62/1/9
f 26/1/11 63/1/11 25/1/11
f 27/1/13 64/1/13 26/1/13
f 2/1/17 40/1/17 1/1/17
f 15/1/19 54/1/19 53/1/19
f 3/1/20 39/1/20 2/1/20
f 16/1/22 55/1/22 54/1/22
f 18/1/25 55/1/25 17/1/25
f 31/1/27 70/1/27 69/1/27
f 19/1/28 56/1/28 18/1/28
f 32/1/30 40/1/30 70/1/30
f 7/1/34 46/1/34 45/1/34
f 9/1/36 46/1/36 8/1/36
f 9/1/38 48/1/38 47/1/38
f 40/1/75 39/1/75 41/1/75
f 41/1/76 69/1/76 70/1/76
f 48/1/77 49/1/77 45/1/77
f 45/1/78 46/1/78 47/1/78
f 56/1/79 57/1/79 53/1/79
f 53/1/80 54/1/80 55/1/80
f 64/1/81 65/1/81 61/1/81
f 61/1/82 62/1/82 63/1/82
f 23/1/83 24/1/83 62/1/83
f 11/1/84 49/1/84 48/1/84
f 24/1/9 25/1/9 63/1/9
f 26/1/86 64/1/86 63/1/86
f 27/1/87 65/1/87 64/1/87
f 2/1/17 39/1/17 40/1/17
f 15/1/90 16/1/90 54/1/90
f 3/1/91 41/1/91 39/1/91
f 16/1/22 17/1/22 55/1/22
f 18/1/25 56/1/25 55/1/25
f 31/1/94 32/1/94 70/1/94
f 19/1/95 57/1/95 56/1/95
f 32/1/30 1/1/30 40/1/30
f 7/1/98 8/1/98 46/1/98
f 9/1/99 47/1/99 46/1/99
f 9/1/101 10/1/101 48/1/101
usemtl gris2
f 94/2/1 93/3/1 92/1/1
f 98/3/6 96/2/6 97/1/6
f 95/4/39 98/3/39 93/3/39
f 92/1/40 96/2/40 94/2/40
f 94/2/41 99/4/41 95/4/41
f 93/3/42 97/1/42 92/1/42
f 94/2/1 95/4/1 93/3/1
f 98/3/6 99/4/6 96/2/6
f 95/4/39 99/4/39 98/3/39
f 92/1/40 97/1/40 96/2/40
f 94/2/41 96/2/41 99/4/41
f 93/3/42 98/3/42 97/1/42
usemtl gris
f 118/1/1 110/1/1 102/1/1
f 148/1/6 156/1/6 133/1/6
f 129/1/43 160/1/43 128/1/43
f 116/1/44 147/1/44 115/1/44
f 103/1/45 134/1/45 102/1/45
f 129/1/46 162/1/46 161/1/46
f 117/1/47 148/1/47 116/1/47
f 103/1/48 136/1/48 135/1/48
f 131/1/49 162/1/49 130/1/49
f 118/1/50 149/1/50 117/1/50
f 105/1/51 136/1/51 104/1/51
f 100/1/52 163/1/52 131/1/52
f 118/1/53 151/1/53 150/1/53
f 105/1/54 138/1/54 137/1/54
f 120/1/55 151/1/55 119/1/55
f 107/1/56 138/1/56 106/1/56
f 121/1/57 152/1/57 120/1/57
f 108/1/58 139/1/58 107/1/58
f 122/1/59 153/1/59 121/1/59
f 109/1/60 140/1/60 108/1/60
f 123/1/61 154/1/61 122/1/61
f 110/1/62 141/1/62 109/1/62
f 124/1/63 155/1/63 123/1/63
f 111/1/64 142/1/64 110/1/64
f 124/1/65 157/1/65 156/1/65
f 111/1/66 144/1/66 143/1/66
f 125/1/67 158/1/67 157/1/67
f 113/1/68 144/1/68 112/1/68
f 127/1/69 158/1/69 126/1/69
f 114/1/70 145/1/70 113/1/70
f 101/1/71 133/1/71 100/1/71
f 128/1/72 159/1/72 127/1/72
f 114/1/73 147/1/73 146/1/73
f 102/1/74 132/1/74 101/1/74
f 102/1/1 101/1/1 100/1/1
f 100/1/1 131/1/1 130/1/1
f 130/1/1 129/1/1 128/1/1
f 128/1/1 127/1/1 126/1/1
f 126/1/1 125/1/1 124/1/1
f 124/1/1 123/1/1 122/1/1
f 122/1/1 121/1/1 120/1/1
f 120/1/1 119/1/1 118/1/1
f 118/1/1 117/1/1 116/1/1
f 116/1/1 115/1/1 114/1/1
f 114/1/1 113/1/1 112/1/1
f 112/1/1 111/1/1 110/1/1
f 110/1/1 109/1/1 108/1/1
f 108/1/1 107/1/1 106/1/1
f 106/1/1 105/1/1 104/1/1
f 104/1/1 103/1/1 102/1/1
f 102/1/1 100/1/1 130/1/1
f 130/1/1 128/1/1 126/1/1
f 126/1/1 124/1/1 122/1/1
f 122/1/1 120/1/1 118/1/1
f 118/1/1 116/1/1 114/1/1
f 114/1/1 112/1/1 110/1/1
f 110/1/1 108/1/1 106/1/1
f 106/1/1 104/1/1 102/1/1
f 102/1/1 130/1/1 126/1/1
f 126/1/1 122/1/1 118/1/1
f 118/1/1 114/1/1 110/1/1
f 110/1/1 106/1/1 102/1/1
f 102/1/1 126/1/1 118/1/1
f 133/1/6 132/1/6 134/1/6
f 134/1/6 135/1/6 136/1/6
f 136/1/6 137/1/6 138/1/6
f 138/1/6 139/1/6 140/1/6
f 140/1/6 141/1/6 142/1/6
f 142/1/6 143/1/6 144/1/6
f 144/1/6 145/1/6 146/1/6
f 146/1/6 147/1/6 148/1/6
f 148/1/6 149/1/6 150/1/6
f 150/1/6 151/1/6 152/1/6
f 152/1/6 153/1/6 154/1/6
f 154/1/6 155/1/6 156/1/6
f 156/1/6 157/1/6 158/1/6
f 158/1/6 159/1/6 160/1/6
f 160/1/6 161/1/6 162/1/6
f 162/1/6 163/1/6 133/1/6
f 133/1/6 134/1/6 136/1/6
f 136/1/6 138/1/6 140/1/6
f 140/1/6 142/1/6 144/1/6
f 144/1/6 146/1/6 148/1/6
f 148/1/6 150/1/6 152/1/6
f 152/1/6 154/1/6 156/1/6
f 156/1/6 158/1/6 160/1/6
f 160/1/6 162/1/6 133/1/6
f 133/1/6 136/1/6 140/1/6
f 140/1/6 144/1/6 148/1/6
f 148/1/6 152/1/6 156/1/6
f 156/1/6 160/1/6 133/1/6
f 133/1/6 140/1/6 148/1/6
f 129/1/43 161/1/43 160/1/43
f 116/1/44 148/1/44 147/1/44
f 103/1/45 135/1/45 134/1/45
f 129/1/46 130/1/46 162/1/46
f 117/1/47 149/1/47 148/1/47
f 103/1/48 104/1/48 136/1/48
f 131/1/49 163/1/49 162/1/49
f 118/1/50 150/1/50 149/1/50
f 105/1/51 137/1/51 136/1/51
f 100/1/52 133/1/52 163/1/52
f 118/1/53 119/1/53 151/1/53
f 105/1/54 106/1/54 138/1/54
f 120/1/55 152/1/55 151/1/55
f 107/1/56 139/1/56 138/1/56
f 121/1/57 153/1/57 152/1/57
f 108/1/58 140/1/58 139/1/58
f 122/1/59 154/1/59 153/1/59
f 109/1/60 141/1/60 140/1/60
f 123/1/61 155/1/61 154/1/61
f 110/1/62 142/1/62 141/1/62
f 124/1/63 156/1/63 155/1/63
f 111/1/64 143/1/64 142/1/64
f 124/1/65 125/1/65 157/1/65
f 111/1/66 112/1/66 144/1/66
f 125/1/67 126/1/67 158/1/67
f 113/1/68 145/1/68 144/1/68
f 127/1/69 159/1/69 158/1/69
f 114/1/70 146/1/70 145/1/70
f 101/1/71 132/1/71 133/1/71
f 128/1/72 160/1/72 159/1/72
f 114/1/73 115/1/73 147/1/73
f 102/1/74 134/1/74 132/1/74
