# Blender 4.5.3 LTS
# www.blender.org
mtllib sniper3_base.mtl
o Circle.002
v 0.577425 0.239177 0.000001
v 0.239177 0.577425 0.000001
v -0.239177 0.577425 0.000001
v -0.577425 0.239177 0.000001
v -0.577425 -0.239177 0.000001
v -0.239177 -0.577425 0.000001
v 0.239177 -0.577425 0.000001
v 0.577425 -0.239177 0.000001
v 0.819755 0.046075 1.308522
v 0.547074 0.612234 1.308522
v -0.046075 0.819755 1.308522
v -0.612234 0.547074 1.308522
v -0.819755 -0.046075 1.308522
v -0.547074 -0.612234 1.308522
v 0.547074 -0.612234 1.308522
v 0.612234 -0.547074 1.308522
v 0.586578 0.750790 1.669168
v 0.239669 0.578612 2.143607
v 0.578612 0.239669 2.143607
v 0.945662 0.116115 1.669168
v -0.116115 0.945662 1.669168
v -0.239669 0.578612 2.143607
v -0.750790 0.586578 1.669168
v -0.578612 0.239669 2.143607
v -0.945662 -0.116115 1.669168
v -0.578612 -0.239669 2.143607
v -0.586578 -0.750790 1.669168
v -0.239669 -0.578612 2.143607
v 0.586578 -0.750790 1.669168
v 0.239669 -0.578612 2.143607
v 0.750790 -0.586578 1.669168
v 0.578612 -0.239669 2.143607
v 0.673898 -0.410569 1.156936
v 0.410569 -0.673898 1.156936
v 0.116115 -0.945662 1.669168
v 0.945662 -0.116115 1.669168
v 0.819755 -0.046075 1.308522
v 0.046075 -0.819755 1.308522
v 0.643423 -0.542105 1.361628
v 0.542105 -0.643423 1.361628
v 0.655122 -0.391793 1.166206
v 0.391793 -0.655122 1.166206
v 0.593458 -0.528298 1.317792
v 0.528298 -0.593458 1.317792
v 0.766834 0.186201 1.156936
v 0.766834 -0.186201 1.156936
v 1.035663 -0.428986 1.926967
v 0.750790 0.586578 1.669168
v 0.612234 0.547074 1.308522
v 0.748294 -0.309953 1.103830
v 0.838295 0.071643 1.361628
v 0.838295 -0.071642 1.361628
v 0.740281 0.186201 1.166206
v 0.740281 -0.186201 1.166206
v 0.793201 0.046075 1.317792
v 0.793201 -0.046075 1.317792
v 0.410569 0.673898 1.156936
v 0.673898 0.410569 1.156936
v 1.035663 0.428986 1.926967
v 0.116115 0.945662 1.669168
v 0.046075 0.819755 1.308522
v 0.748294 0.309953 1.103830
v 0.542105 0.643423 1.361628
v 0.643423 0.542105 1.361628
v 0.391793 0.655122 1.166206
v 0.655122 0.391793 1.166206
v 0.528298 0.593458 1.317792
v 0.593458 0.528298 1.317792
v -0.186201 0.766834 1.156936
v 0.186201 0.766834 1.156936
v 0.428986 1.035663 1.926967
v -0.586578 0.750790 1.669168
v -0.547074 0.612234 1.308522
v 0.309953 0.748294 1.103830
v -0.071643 0.838295 1.361628
v 0.071642 0.838295 1.361628
v -0.186201 0.740281 1.166206
v 0.186201 0.740281 1.166206
v -0.046075 0.793201 1.317792
v 0.046075 0.793201 1.317792
v -0.673898 0.410569 1.156936
v -0.410569 0.673898 1.156936
v -0.428986 1.035663 1.926967
v -0.945662 0.116115 1.669168
v -0.819755 0.046075 1.308522
v -0.309953 0.748294 1.103830
v -0.643423 0.542105 1.361628
v -0.542105 0.643423 1.361628
v -0.655122 0.391793 1.166206
v -0.391793 0.655122 1.166206
v -0.593458 0.528298 1.317792
v -0.528298 0.593458 1.317792
v -0.766834 -0.186201 1.156936
v -0.766834 0.186201 1.156936
v -1.035663 0.428986 1.926967
v -0.750790 -0.586578 1.669168
v -0.612234 -0.547074 1.308522
v -0.748294 0.309953 1.103830
v -0.838295 -0.071643 1.361628
v -0.838295 0.071642 1.361628
v -0.410569 -0.673898 1.156936
v -0.673898 -0.410569 1.156936
v -1.035663 -0.428986 1.926967
v -0.116115 -0.945662 1.669168
v -0.046075 -0.819755 1.308522
v -0.748294 -0.309953 1.103830
v -0.542105 -0.643423 1.361628
v -0.643423 -0.542105 1.361628
v -0.391793 -0.655122 1.166206
v -0.655122 -0.391793 1.166206
v -0.528298 -0.593458 1.317792
v -0.593458 -0.528298 1.317792
v 0.186201 -0.766834 1.156936
v -0.186201 -0.766834 1.156936
v -0.428986 -1.035663 1.926967
v 0.428986 -1.035663 1.926967
v 0.309953 -0.748294 1.103830
v -0.309953 -0.748294 1.103830
v 0.071643 -0.838295 1.361628
v -0.071642 -0.838295 1.361628
v 0.186201 -0.766834 1.156936
v -0.186201 -0.766834 1.156936
v 0.046075 -0.819755 1.308522
v -0.046075 -0.819755 1.308522
v 0.186201 -0.740281 1.166206
v -0.186201 -0.740281 1.166206
v 0.046075 -0.793201 1.317792
v -0.046075 -0.793201 1.317792
v -0.740281 -0.186201 1.166206
v -0.740281 0.186201 1.166206
v -0.793201 -0.046075 1.317792
v -0.793201 0.046075 1.317792
v 0.577425 0.239177 2.142031
v 0.239177 0.577425 2.142031
v -0.239177 0.577425 2.142031
v -0.577425 0.239177 2.142031
v -0.577425 -0.239177 2.142031
v -0.239177 -0.577425 2.142031
v 0.239177 -0.577425 2.142031
v 0.577425 -0.239177 2.142031
v 0.577425 0.239177 2.687017
v 0.239177 0.577425 2.687017
v -0.239177 0.577425 2.687017
v -0.577425 0.239177 2.687017
v -0.577425 -0.239177 2.687017
v -0.239177 -0.577425 2.687017
v 0.239177 -0.577425 2.687017
v 0.577425 -0.239177 2.687017
v 0.816670 0.044797 3.512115
v 0.545797 0.609150 3.512115
v -0.044797 0.816670 3.512115
v -0.609150 0.545797 3.512115
v -0.816670 -0.044797 3.512115
v -0.044797 -0.816670 3.512115
v 0.044797 -0.816670 3.512115
v 0.609150 -0.545797 3.512115
v 0.584810 0.746521 3.154861
v 0.239669 0.578612 2.678726
v 0.578612 0.239669 2.678726
v 0.941393 0.114347 3.154861
v -0.114347 0.941393 3.154861
v -0.239669 0.578612 2.678726
v -0.746521 0.584810 3.154861
v -0.578612 0.239669 2.678726
v -0.941393 -0.114347 3.154861
v -0.578612 -0.239669 2.678726
v -0.114347 -0.941393 3.154861
v -0.239669 -0.578612 2.678726
v 0.114347 -0.941393 3.154861
v 0.239669 -0.578612 2.678726
v 0.746521 -0.584810 3.154861
v 0.578612 -0.239669 2.678726
v 0.184924 -0.763750 3.663700
v -0.184924 -0.763750 3.663700
v -0.584810 -0.746521 3.154861
v 0.584810 -0.746521 3.154861
v 0.545797 -0.609150 3.512115
v -0.545797 -0.609150 3.512115
v 0.070365 -0.835211 3.459008
v -0.070365 -0.835211 3.459008
v 0.184924 -0.737196 3.654430
v -0.184924 -0.737196 3.654430
v 0.044797 -0.790117 3.502845
v -0.044797 -0.790117 3.502845
v 0.670813 -0.409292 3.663700
v 0.409292 -0.670813 3.663700
v 0.427218 -1.031394 2.897063
v 0.941393 -0.114347 3.154861
v 0.816670 -0.044797 3.512115
v 0.308676 -0.745209 3.716807
v 0.640339 -0.540828 3.459008
v 0.540828 -0.640339 3.459008
v 0.670813 -0.409292 3.663700
v 0.409292 -0.670813 3.663700
v 0.609150 -0.545797 3.512115
v 0.545797 -0.609150 3.512115
v 0.652037 -0.390516 3.654430
v 0.390516 -0.652037 3.654430
v 0.590374 -0.527021 3.502845
v 0.527021 -0.590374 3.502845
v 0.763750 0.184924 3.663700
v 0.763750 -0.184924 3.663700
v 1.031394 -0.427217 2.897063
v 0.746521 0.584810 3.154861
v 0.609150 0.545797 3.512115
v 0.745209 -0.308676 3.716807
v 0.835211 0.070365 3.459008
v 0.835211 -0.070365 3.459008
v 0.737196 0.184924 3.654430
v 0.737196 -0.184924 3.654430
v 0.790117 0.044797 3.502845
v 0.790117 -0.044797 3.502845
v 0.409292 0.670813 3.663700
v 0.670813 0.409292 3.663700
v 1.031394 0.427218 2.897063
v 0.114347 0.941393 3.154861
v 0.044797 0.816670 3.512115
v 0.745209 0.308676 3.716807
v 0.540828 0.640339 3.459008
v 0.640339 0.540828 3.459008
v 0.390516 0.652037 3.654430
v 0.652037 0.390516 3.654430
v 0.527021 0.590374 3.502845
v 0.590374 0.527021 3.502845
v -0.184924 0.763750 3.663700
v 0.184924 0.763750 3.663700
v 0.427217 1.031394 2.897063
v -0.584810 0.746521 3.154861
v -0.545797 0.609150 3.512115
v 0.308676 0.745209 3.716807
v -0.070365 0.835211 3.459008
v 0.070365 0.835211 3.459008
v -0.184924 0.737196 3.654430
v 0.184924 0.737196 3.654430
v -0.044797 0.790117 3.502845
v 0.044797 0.790117 3.502845
v -0.670813 0.409292 3.663700
v -0.409292 0.670813 3.663700
v -0.427218 1.031394 2.897063
v -0.941393 0.114347 3.154861
v -0.816670 0.044797 3.512115
v -0.308676 0.745209 3.716807
v -0.640339 0.540828 3.459008
v -0.540828 0.640339 3.459008
v -0.652037 0.390516 3.654430
v -0.390516 0.652037 3.654430
v -0.590374 0.527021 3.502845
v -0.527021 0.590374 3.502845
v -0.763750 -0.184924 3.663700
v -0.763750 0.184924 3.663700
v -1.031394 0.427217 2.897063
v -0.746521 -0.584810 3.154861
v -0.609150 -0.545797 3.512115
v -0.745209 0.308676 3.716807
v -0.835211 -0.070365 3.459008
v -0.835211 0.070365 3.459008
v -0.737196 -0.184924 3.654430
v -0.737196 0.184924 3.654430
v -0.790117 -0.044797 3.502845
v -0.790117 0.044797 3.502845
v -0.409292 -0.670813 3.663700
v -0.670813 -0.409292 3.663700
v -1.031394 -0.427218 2.897063
v -0.427217 -1.031394 2.897063
v -0.308676 -0.745209 3.716807
v -0.745209 -0.308676 3.716807
v -0.540828 -0.640339 3.459008
v -0.640339 -0.540828 3.459008
v -0.390516 -0.652037 3.654430
v -0.652037 -0.390516 3.654430
v -0.527021 -0.590374 3.502845
v -0.590374 -0.527021 3.502845
v 0.526242 -0.217976 3.950248
v 0.744218 -0.308265 3.716523
v 0.217976 -0.526242 3.950248
v 0.308265 -0.744218 3.716523
v -0.217976 -0.526242 3.950248
v -0.308265 -0.744218 3.716523
v -0.526242 -0.217976 3.950248
v -0.744218 -0.308265 3.716523
v -0.526242 0.217976 3.950248
v -0.744218 0.308265 3.716523
v -0.217976 0.526242 3.950248
v -0.308265 0.744218 3.716523
v 0.217976 0.526242 3.950248
v 0.308265 0.744218 3.716523
v 0.000000 0.000000 4.047059
v 0.526242 0.217976 3.950248
v 0.744218 0.308265 3.716523
v 0.490329 -1.183760 1.768682
v 0.392263 -0.947008 2.024940
v 0.294198 -0.710256 1.768682
v 0.392263 -0.947008 1.512424
v 1.183760 -0.490329 1.768682
v 0.947008 -0.392263 2.024940
v 0.710256 -0.294198 1.768682
v 0.947008 -0.392263 1.512424
v 1.183760 0.490329 1.768682
v 0.947008 0.392263 2.024940
v 0.710256 0.294198 1.768682
v 0.947008 0.392263 1.512424
v 0.490329 1.183760 1.768682
v 0.392263 0.947008 2.024940
v 0.294197 0.710256 1.768682
v 0.392263 0.947008 1.512424
v -0.490329 1.183760 1.768682
v -0.392263 0.947008 2.024940
v -0.294198 0.710256 1.768682
v -0.392263 0.947008 1.512424
v -1.183760 0.490330 1.768682
v -0.947008 0.392264 2.024940
v -0.710256 0.294198 1.768682
v -0.947008 0.392264 1.512424
v -1.183760 -0.490329 1.768682
v -0.947008 -0.392264 2.024940
v -0.710256 -0.294198 1.768682
v -0.947008 -0.392264 1.512424
v -0.490330 -1.183759 1.768682
v -0.392264 -0.947008 2.024940
v -0.294198 -0.710256 1.768682
v -0.392264 -0.947008 1.512424
v 0.490329 -1.183760 3.058114
v 0.392263 -0.947008 3.314373
v 0.294198 -0.710256 3.058114
v 0.392263 -0.947008 2.801856
v 1.183760 -0.490329 3.058114
v 0.947008 -0.392263 3.314373
v 0.710256 -0.294198 3.058114
v 0.947008 -0.392263 2.801856
v 1.183760 0.490329 3.058114
v 0.947008 0.392263 3.314373
v 0.710256 0.294198 3.058114
v 0.947008 0.392263 2.801856
v 0.490329 1.183760 3.058114
v 0.392263 0.947008 3.314373
v 0.294197 0.710256 3.058114
v 0.392263 0.947008 2.801856
v -0.490329 1.183760 3.058114
v -0.392263 0.947008 3.314373
v -0.294198 0.710256 3.058114
v -0.392263 0.947008 2.801856
v -1.183760 0.490330 3.058114
v -0.947008 0.392264 3.314373
v -0.710256 0.294198 3.058114
v -0.947008 0.392264 2.801856
v -1.183760 -0.490329 3.058114
v -0.947008 -0.392264 3.314373
v -0.710256 -0.294198 3.058114
v -0.947008 -0.392264 2.801856
v -0.490330 -1.183759 3.058114
v -0.392264 -0.947008 3.314373
v -0.294198 -0.710256 3.058114
v -0.392264 -0.947008 2.801856
v 0.131845 -0.131845 4.177558
v 0.186457 -0.186457 3.889454
v 0.131845 -0.131845 3.601351
v 0.000000 -0.186457 4.177558
v 0.000000 -0.263690 3.889454
v 0.000000 -0.186457 3.601351
v -0.131845 -0.131845 4.177558
v -0.186457 -0.186457 3.889454
v -0.131845 -0.131845 3.601351
v -0.186457 -0.000000 4.177558
v -0.263690 0.000000 3.889454
v -0.186457 -0.000000 3.601351
v -0.131845 0.131845 4.177558
v -0.186457 0.186457 3.889454
v -0.131845 0.131845 3.601351
v 0.000000 0.000000 3.482014
v -0.000000 0.186457 4.177558
v 0.000000 0.263690 3.889454
v -0.000000 0.186457 3.601351
v 0.131845 0.131845 4.177558
v 0.186457 0.186457 3.889454
v 0.131845 0.131845 3.601351
v 0.000000 0.000000 4.296894
v 0.186457 0.000000 4.177558
v 0.263690 -0.000000 3.889454
v 0.186457 0.000000 3.601351
v 0.000000 -0.271184 4.001365
v -0.000000 -0.216947 4.055602
v -0.000000 -0.162710 4.001365
v -0.000000 -0.216947 3.947128
v 0.191756 -0.191756 4.001365
v 0.153405 -0.153405 4.055602
v 0.115054 -0.115054 4.001365
v 0.153405 -0.153405 3.947128
v 0.271184 -0.000000 4.001365
v 0.216947 -0.000000 4.055602
v 0.162710 -0.000000 4.001365
v 0.216947 -0.000000 3.947128
v 0.191756 0.191756 4.001365
v 0.153405 0.153405 4.055602
v 0.115054 0.115054 4.001365
v 0.153405 0.153405 3.947128
v 0.000000 0.271184 4.001365
v 0.000000 0.216947 4.055602
v 0.000000 0.162710 4.001365
v 0.000000 0.216947 3.947128
v -0.191756 0.191756 4.001365
v -0.153405 0.153405 4.055602
v -0.115054 0.115054 4.001365
v -0.153405 0.153405 3.947128
v -0.271184 -0.000000 4.001365
v -0.216947 -0.000000 4.055602
v -0.162710 -0.000000 4.001365
v -0.216947 -0.000000 3.947128
v -0.191756 -0.191756 4.001365
v -0.153405 -0.153405 4.055602
v -0.115054 -0.115054 4.001365
v -0.153405 -0.153405 3.947128
vn -0.0000 -0.0000 -1.0000
vn 0.6988 -0.6988 -0.1530
vn -0.6988 -0.6988 -0.1530
vn -0.6988 0.6988 -0.1530
vn 0.6988 0.6988 -0.1530
vn 0.9882 -0.0000 -0.1530
vn -0.0000 -0.9882 -0.1530
vn -0.9882 -0.0000 -0.1530
vn -0.0000 0.9882 -0.1530
vn 0.3029 0.3029 0.9036
vn -0.0000 0.4283 0.9036
vn -0.3029 0.3029 0.9036
vn -0.4283 -0.0000 0.9036
vn -0.3029 -0.3029 0.9036
vn -0.0000 -0.4283 0.9036
vn 0.3029 -0.3029 0.9036
vn 0.4283 -0.0000 0.9036
vn -0.0000 -0.0000 1.0000
vn -0.0000 0.9441 -0.3296
vn 0.6676 0.6676 -0.3296
vn 0.9441 -0.0000 -0.3296
vn -0.6676 0.6676 -0.3296
vn -0.9441 -0.0000 -0.3296
vn -0.6676 -0.6676 -0.3296
vn -0.0000 -0.9441 -0.3296
vn 0.6676 -0.6676 -0.3296
vn 0.3795 0.6860 -0.6208
vn -0.2331 0.2331 -0.9441
vn -0.6860 -0.3795 -0.6208
vn 0.2331 -0.2331 0.9441
vn -0.3296 -0.0000 -0.9441
vn -0.2167 -0.7534 -0.6208
vn 0.3296 -0.0000 0.9441
vn -0.2167 0.7534 -0.6208
vn 0.3795 -0.6860 -0.6208
vn 0.2331 0.2331 0.9441
vn -0.6860 0.3795 -0.6208
vn -0.2331 -0.2331 -0.9441
vn -0.7534 -0.2167 -0.6208
vn -0.0000 -0.3296 -0.9441
vn 0.7534 -0.2167 -0.6208
vn -0.0000 0.3296 0.9441
vn 0.6860 0.3795 -0.6208
vn -0.2331 0.2331 0.9441
vn -0.3795 -0.6860 -0.6208
vn 0.2331 -0.2331 -0.9441
vn 0.2167 0.7534 -0.6208
vn 0.2331 0.2331 -0.9441
vn -0.3795 0.6860 -0.6208
vn -0.2331 -0.2331 0.9441
vn 0.6860 -0.3795 -0.6208
vn 0.7534 0.2167 -0.6208
vn -0.0000 0.3296 -0.9441
vn -0.7534 0.2167 -0.6208
vn -0.0000 -0.3296 0.9441
vn -0.3296 -0.0000 0.9441
vn 0.2167 -0.7534 -0.6208
vn 0.3296 -0.0000 -0.9441
vn 0.7071 -0.7071 -0.0000
vn -0.7071 -0.7071 -0.0000
vn -0.7071 0.7071 -0.0000
vn 0.7071 0.7071 -0.0000
vn 1.0000 -0.0000 -0.0000
vn -0.0000 -1.0000 -0.0000
vn -1.0000 -0.0000 -0.0000
vn -0.0000 1.0000 -0.0000
vn 0.3071 0.3071 -0.9007
vn -0.0000 0.4343 -0.9007
vn -0.3071 0.3071 -0.9007
vn -0.4343 -0.0000 -0.9007
vn -0.3071 -0.3071 -0.9007
vn -0.0000 -0.4343 -0.9007
vn 0.3071 -0.3071 -0.9007
vn 0.4343 -0.0000 -0.9007
vn -0.0000 0.9441 0.3296
vn 0.6676 0.6676 0.3296
vn 0.9441 -0.0000 0.3296
vn -0.6676 0.6676 0.3296
vn -0.9441 -0.0000 0.3296
vn -0.6676 -0.6676 0.3296
vn -0.0000 -0.9441 0.3296
vn 0.6676 -0.6676 0.3296
vn 0.7534 0.2167 0.6208
vn -0.7534 0.2167 0.6208
vn 0.3795 0.6860 0.6208
vn -0.6860 -0.3795 0.6208
vn -0.2167 0.7534 0.6208
vn -0.2167 -0.7534 0.6208
vn -0.6860 0.3795 0.6208
vn 0.3795 -0.6860 0.6208
vn 0.7534 -0.2167 0.6208
vn -0.7534 -0.2167 0.6208
vn 0.6860 0.3795 0.6208
vn -0.3795 -0.6860 0.6208
vn 0.2167 -0.7534 0.6208
vn 0.2167 0.7534 0.6208
vn -0.3795 0.6860 0.6208
vn 0.6860 -0.3795 0.6208
vn 0.7313 -0.0000 0.6820
vn 0.1809 -0.0000 0.9835
vn 0.5171 -0.5171 0.6820
vn 0.1279 -0.1279 0.9835
vn -0.0000 -0.7313 0.6820
vn -0.0000 -0.1809 0.9835
vn -0.5171 -0.5171 0.6820
vn -0.1279 -0.1279 0.9835
vn -0.7313 -0.0000 0.6820
vn -0.1809 -0.0000 0.9835
vn -0.1279 0.1279 0.9835
vn -0.5171 0.5171 0.6820
vn -0.0000 0.1809 0.9835
vn -0.0000 0.7313 0.6820
vn 0.1279 0.1279 0.9835
vn 0.5171 0.5171 0.6820
vn 0.5194 -0.5194 0.6786
vn -0.5194 0.5194 0.6786
vn -0.5194 0.5194 -0.6786
vn 0.5194 -0.5194 -0.6786
vn 0.7345 -0.0000 0.6786
vn -0.7345 -0.0000 0.6786
vn -0.7345 -0.0000 -0.6786
vn 0.7345 -0.0000 -0.6786
vn 0.5194 0.5194 0.6786
vn -0.5194 -0.5194 0.6786
vn -0.5194 -0.5194 -0.6786
vn 0.5194 0.5194 -0.6786
vn -0.0000 0.7345 0.6786
vn -0.0000 -0.7345 0.6786
vn -0.0000 -0.7345 -0.6786
vn -0.0000 0.7345 -0.6786
vn 0.5261 -0.2179 -0.8220
vn 0.8968 -0.3715 0.2404
vn 0.8968 -0.3715 -0.2404
vn 0.5261 -0.2179 0.8220
vn 0.3715 -0.8968 0.2404
vn 0.3715 -0.8968 -0.2404
vn 0.2179 -0.5261 0.8220
vn 0.2179 -0.5261 -0.8220
vn -0.2179 -0.5261 -0.8220
vn -0.3715 -0.8968 0.2404
vn -0.3715 -0.8968 -0.2404
vn -0.2179 -0.5261 0.8220
vn -0.5261 -0.2179 -0.8220
vn -0.8968 -0.3715 0.2404
vn -0.8968 -0.3715 -0.2404
vn -0.5261 -0.2179 0.8220
vn -0.5261 0.2179 -0.8220
vn -0.8968 0.3715 0.2404
vn -0.8968 0.3715 -0.2404
vn -0.5261 0.2179 0.8220
vn -0.2179 0.5261 -0.8220
vn -0.3715 0.8968 0.2404
vn -0.3715 0.8968 -0.2404
vn -0.2179 0.5261 0.8220
vn 0.2179 0.5261 0.8220
vn 0.2179 0.5261 -0.8220
vn 0.3715 0.8968 0.2404
vn 0.3715 0.8968 -0.2404
vn 0.8968 0.3715 -0.2404
vn 0.5261 0.2179 0.8220
vn 0.5261 0.2179 -0.8220
vn 0.8968 0.3715 0.2404
vn 0.2811 -0.6786 0.6786
vn -0.2811 0.6786 0.6786
vn -0.2811 0.6786 -0.6786
vn 0.2811 -0.6786 -0.6786
vn 0.6786 -0.2811 0.6786
vn -0.6786 0.2811 0.6786
vn -0.6786 0.2811 -0.6786
vn 0.6786 -0.2811 -0.6786
vn 0.6786 0.2811 0.6786
vn -0.6786 -0.2811 0.6786
vn -0.6786 -0.2811 -0.6786
vn 0.6786 0.2811 -0.6786
vn 0.2811 0.6786 0.6786
vn -0.2811 -0.6786 0.6786
vn -0.2811 -0.6786 -0.6786
vn 0.2811 0.6786 -0.6786
vn -0.0000 0.4344 -0.9007
vt 0.000000 0.000000
vt 0.750000 0.750000
vt 0.625000 0.500000
vt 0.750000 0.500000
vt 0.687500 1.000000
vt 0.625000 0.750000
vt 0.500000 0.500000
vt 0.562500 1.000000
vt 0.500000 0.750000
vt 0.375000 0.500000
vt 0.437500 1.000000
vt 0.375000 0.750000
vt 0.250000 0.500000
vt 0.312500 1.000000
vt 0.250000 0.750000
vt 0.125000 0.500000
vt 0.187500 1.000000
vt 0.125000 0.750000
vt 0.062500 1.000000
vt 0.000000 0.750000
vt 0.000000 0.500000
vt 1.000000 0.750000
vt 0.937500 1.000000
vt 0.875000 0.750000
vt 0.875000 0.500000
vt 1.000000 0.500000
vt 0.812500 1.000000
vt 0.500000 0.750000
vt 0.625000 0.750000
vt 0.500000 1.000000
vt 0.500000 0.000000
vt 0.625000 0.250000
vt 0.500000 0.250000
vt 0.750000 1.000000
vt 0.625000 1.000000
vt 0.625000 0.000000
vt 0.750000 0.250000
vt 0.750000 0.750000
vt 0.875000 1.000000
vt 0.875000 0.000000
vt 0.750000 0.000000
vt 1.000000 0.750000
vt 0.875000 0.750000
vt 1.000000 1.000000
vt 1.000000 0.000000
vt 0.875000 0.250000
vt 1.000000 0.250000
vt 0.000000 0.750000
vt 0.125000 0.750000
vt 0.000000 1.000000
vt 0.125000 0.000000
vt 0.000000 0.250000
vt 0.250000 0.750000
vt 0.125000 1.000000
vt 0.250000 0.000000
vt 0.125000 0.250000
vt 0.250000 0.250000
vt 0.375000 0.750000
vt 0.250000 1.000000
vt 0.375000 0.000000
vt 0.375000 0.250000
vt 0.375000 1.000000
vt 0.687500 0.000000
vt 0.562500 0.000000
vt 0.437500 0.000000
vt 0.312500 0.000000
vt 0.187500 0.000000
vt 0.062500 0.000000
vt 0.937500 0.000000
vt 0.812500 0.000000
s 0
usemtl Material.015
f 7/1/1 5/1/1 3/1/1
f 8/1/2 117/1/2 7/1/2
f 6/1/3 106/1/3 5/1/3
f 4/1/4 86/1/4 3/1/4
f 2/1/5 62/1/5 1/1/5
f 1/1/6 50/1/6 8/1/6
f 7/1/7 118/1/7 6/1/7
f 5/1/8 98/1/8 4/1/8
f 3/1/9 74/1/9 2/1/9
f 26/1/18 30/1/18 19/1/18
f 75/1/19 60/1/19 76/1/19
f 63/1/20 48/1/20 64/1/20
f 52/1/21 20/1/21 36/1/21
f 87/1/22 72/1/22 88/1/22
f 99/1/23 84/1/23 100/1/23
f 107/1/24 96/1/24 108/1/24
f 119/1/25 104/1/25 120/1/25
f 39/1/26 29/1/26 40/1/26
f 34/1/27 44/1/27 15/1/27
f 29/1/26 47/1/26 116/1/26
f 31/1/26 50/1/26 47/1/26
f 29/1/26 117/1/26 40/1/26
f 34/1/26 50/1/26 33/1/26
f 16/1/26 40/1/26 15/1/26
f 33/1/26 39/1/26 16/1/26
f 34/1/26 40/1/26 117/1/26
f 16/1/28 44/1/28 43/1/28
f 33/1/29 43/1/29 41/1/29
f 33/1/30 42/1/30 34/1/30
f 37/1/31 55/1/31 9/1/31
f 20/1/21 47/1/21 36/1/21
f 20/1/21 62/1/21 59/1/21
f 36/1/21 50/1/21 52/1/21
f 45/1/21 50/1/21 62/1/21
f 9/1/21 52/1/21 37/1/21
f 45/1/21 51/1/21 9/1/21
f 46/1/21 52/1/21 50/1/21
f 45/1/32 55/1/32 53/1/32
f 45/1/33 54/1/33 46/1/33
f 46/1/34 56/1/34 37/1/34
f 57/1/35 67/1/35 65/1/35
f 48/1/20 71/1/20 59/1/20
f 17/1/20 74/1/20 71/1/20
f 48/1/20 62/1/20 64/1/20
f 58/1/20 74/1/20 57/1/20
f 10/1/20 64/1/20 49/1/20
f 57/1/20 63/1/20 10/1/20
f 58/1/20 64/1/20 62/1/20
f 57/1/36 66/1/36 58/1/36
f 58/1/37 68/1/37 49/1/37
f 10/1/38 68/1/38 67/1/38
f 70/1/39 80/1/39 61/1/39
f 21/1/19 71/1/19 60/1/19
f 60/1/19 74/1/19 76/1/19
f 21/1/19 86/1/19 83/1/19
f 69/1/19 74/1/19 86/1/19
f 11/1/19 76/1/19 61/1/19
f 69/1/19 75/1/19 11/1/19
f 70/1/19 76/1/19 74/1/19
f 61/1/40 79/1/40 11/1/40
f 69/1/41 79/1/41 77/1/41
f 69/1/42 78/1/42 70/1/42
f 81/1/43 91/1/43 89/1/43
f 72/1/22 95/1/22 83/1/22
f 72/1/22 86/1/22 88/1/22
f 23/1/22 98/1/22 95/1/22
f 82/1/22 98/1/22 81/1/22
f 12/1/22 88/1/22 73/1/22
f 81/1/22 87/1/22 12/1/22
f 82/1/22 88/1/22 86/1/22
f 81/1/44 90/1/44 82/1/44
f 82/1/45 92/1/45 73/1/45
f 12/1/46 92/1/46 91/1/46
f 93/1/47 131/1/47 129/1/47
f 25/1/23 95/1/23 84/1/23
f 84/1/23 98/1/23 100/1/23
f 25/1/23 106/1/23 103/1/23
f 93/1/23 98/1/23 106/1/23
f 13/1/23 100/1/23 85/1/23
f 93/1/23 99/1/23 13/1/23
f 94/1/23 100/1/23 98/1/23
f 14/1/48 112/1/48 111/1/48
f 27/1/24 103/1/24 96/1/24
f 96/1/24 106/1/24 108/1/24
f 27/1/24 118/1/24 115/1/24
f 102/1/24 118/1/24 101/1/24
f 14/1/24 108/1/24 97/1/24
f 101/1/24 107/1/24 14/1/24
f 102/1/24 108/1/24 106/1/24
f 101/1/49 111/1/49 109/1/49
f 101/1/50 110/1/50 102/1/50
f 102/1/51 112/1/51 97/1/51
f 114/1/52 128/1/52 105/1/52
f 35/1/25 115/1/25 104/1/25
f 104/1/25 118/1/25 120/1/25
f 35/1/25 117/1/25 116/1/25
f 121/1/25 118/1/25 117/1/25
f 123/1/25 120/1/25 124/1/25
f 121/1/25 119/1/25 123/1/25
f 122/1/25 120/1/25 118/1/25
f 113/1/18 122/1/18 121/1/18
f 105/1/18 123/1/18 124/1/18
f 38/1/18 121/1/18 123/1/18
f 114/1/18 124/1/18 122/1/18
f 105/1/53 127/1/53 38/1/53
f 113/1/54 127/1/54 125/1/54
f 113/1/55 126/1/55 114/1/55
f 93/1/56 130/1/56 94/1/56
f 94/1/57 132/1/57 85/1/57
f 85/1/58 131/1/58 13/1/58
f 3/1/1 2/1/1 1/1/1
f 1/1/1 8/1/1 7/1/1
f 7/1/1 6/1/1 5/1/1
f 5/1/1 4/1/1 3/1/1
f 3/1/1 1/1/1 7/1/1
f 8/1/2 50/1/2 117/1/2
f 6/1/3 118/1/3 106/1/3
f 4/1/4 98/1/4 86/1/4
f 2/1/5 74/1/5 62/1/5
f 1/1/6 62/1/6 50/1/6
f 7/1/7 117/1/7 118/1/7
f 5/1/8 106/1/8 98/1/8
f 3/1/9 86/1/9 74/1/9
f 19/1/18 18/1/18 22/1/18
f 22/1/18 24/1/18 26/1/18
f 26/1/18 28/1/18 30/1/18
f 30/1/18 32/1/18 19/1/18
f 19/1/18 22/1/18 26/1/18
f 75/1/19 21/1/19 60/1/19
f 63/1/20 17/1/20 48/1/20
f 52/1/21 51/1/21 20/1/21
f 87/1/22 23/1/22 72/1/22
f 99/1/23 25/1/23 84/1/23
f 107/1/24 27/1/24 96/1/24
f 119/1/25 35/1/25 104/1/25
f 39/1/26 31/1/26 29/1/26
f 34/1/27 42/1/27 44/1/27
f 29/1/26 31/1/26 47/1/26
f 31/1/26 39/1/26 50/1/26
f 29/1/26 116/1/26 117/1/26
f 34/1/26 117/1/26 50/1/26
f 16/1/26 39/1/26 40/1/26
f 33/1/26 50/1/26 39/1/26
f 34/1/26 15/1/26 40/1/26
f 16/1/28 15/1/28 44/1/28
f 33/1/29 16/1/29 43/1/29
f 33/1/30 41/1/30 42/1/30
f 37/1/31 56/1/31 55/1/31
f 20/1/21 59/1/21 47/1/21
f 20/1/21 51/1/21 62/1/21
f 36/1/21 47/1/21 50/1/21
f 45/1/21 46/1/21 50/1/21
f 9/1/21 51/1/21 52/1/21
f 45/1/21 62/1/21 51/1/21
f 46/1/21 37/1/21 52/1/21
f 45/1/32 9/1/32 55/1/32
f 45/1/33 53/1/33 54/1/33
f 46/1/34 54/1/34 56/1/34
f 57/1/35 10/1/35 67/1/35
f 48/1/20 17/1/20 71/1/20
f 17/1/20 63/1/20 74/1/20
f 48/1/20 59/1/20 62/1/20
f 58/1/20 62/1/20 74/1/20
f 10/1/20 63/1/20 64/1/20
f 57/1/20 74/1/20 63/1/20
f 58/1/20 49/1/20 64/1/20
f 57/1/36 65/1/36 66/1/36
f 58/1/37 66/1/37 68/1/37
f 10/1/38 49/1/38 68/1/38
f 70/1/39 78/1/39 80/1/39
f 21/1/19 83/1/19 71/1/19
f 60/1/19 71/1/19 74/1/19
f 21/1/19 75/1/19 86/1/19
f 69/1/19 70/1/19 74/1/19
f 11/1/19 75/1/19 76/1/19
f 69/1/19 86/1/19 75/1/19
f 70/1/19 61/1/19 76/1/19
f 61/1/40 80/1/40 79/1/40
f 69/1/41 11/1/41 79/1/41
f 69/1/42 77/1/42 78/1/42
f 81/1/43 12/1/43 91/1/43
f 72/1/22 23/1/22 95/1/22
f 72/1/22 83/1/22 86/1/22
f 23/1/22 87/1/22 98/1/22
f 82/1/22 86/1/22 98/1/22
f 12/1/22 87/1/22 88/1/22
f 81/1/22 98/1/22 87/1/22
f 82/1/22 73/1/22 88/1/22
f 81/1/44 89/1/44 90/1/44
f 82/1/45 90/1/45 92/1/45
f 12/1/46 73/1/46 92/1/46
f 93/1/47 13/1/47 131/1/47
f 25/1/23 103/1/23 95/1/23
f 84/1/23 95/1/23 98/1/23
f 25/1/23 99/1/23 106/1/23
f 93/1/23 94/1/23 98/1/23
f 13/1/23 99/1/23 100/1/23
f 93/1/23 106/1/23 99/1/23
f 94/1/23 85/1/23 100/1/23
f 14/1/48 97/1/48 112/1/48
f 27/1/24 115/1/24 103/1/24
f 96/1/24 103/1/24 106/1/24
f 27/1/24 107/1/24 118/1/24
f 102/1/24 106/1/24 118/1/24
f 14/1/24 107/1/24 108/1/24
f 101/1/24 118/1/24 107/1/24
f 102/1/24 97/1/24 108/1/24
f 101/1/49 14/1/49 111/1/49
f 101/1/50 109/1/50 110/1/50
f 102/1/51 110/1/51 112/1/51
f 114/1/52 126/1/52 128/1/52
f 35/1/25 116/1/25 115/1/25
f 104/1/25 115/1/25 118/1/25
f 35/1/25 119/1/25 117/1/25
f 121/1/25 122/1/25 118/1/25
f 123/1/25 119/1/25 120/1/25
f 121/1/25 117/1/25 119/1/25
f 122/1/25 124/1/25 120/1/25
f 113/1/18 114/1/18 122/1/18
f 105/1/18 38/1/18 123/1/18
f 38/1/18 113/1/18 121/1/18
f 114/1/18 105/1/18 124/1/18
f 105/1/53 128/1/53 127/1/53
f 113/1/54 38/1/54 127/1/54
f 113/1/55 125/1/55 126/1/55
f 93/1/56 129/1/56 130/1/56
f 94/1/57 130/1/57 132/1/57
f 85/1/58 132/1/58 131/1/58
usemtl Material.003
f 44/1/26 41/1/26 43/1/26
f 56/1/21 53/1/21 55/1/21
f 68/1/20 65/1/20 67/1/20
f 80/1/19 77/1/19 79/1/19
f 92/1/22 89/1/22 91/1/22
f 112/1/24 109/1/24 111/1/24
f 128/1/25 125/1/25 127/1/25
f 132/1/23 129/1/23 131/1/23
f 181/1/81 184/1/81 183/1/81
f 199/1/82 198/1/82 200/1/82
f 209/1/77 212/1/77 211/1/77
f 221/1/76 224/1/76 223/1/76
f 233/1/75 236/1/75 235/1/75
f 247/1/78 246/1/78 248/1/78
f 257/1/79 260/1/79 259/1/79
f 269/1/80 272/1/80 271/1/80
f 44/1/26 42/1/26 41/1/26
f 56/1/21 54/1/21 53/1/21
f 68/1/20 66/1/20 65/1/20
f 80/1/19 78/1/19 77/1/19
f 92/1/22 90/1/22 89/1/22
f 112/1/24 110/1/24 109/1/24
f 128/1/25 126/1/25 125/1/25
f 132/1/23 130/1/23 129/1/23
f 181/1/81 182/1/81 184/1/81
f 199/1/82 197/1/82 198/1/82
f 209/1/77 210/1/77 212/1/77
f 221/1/76 222/1/76 224/1/76
f 233/1/75 234/1/75 236/1/75
f 247/1/78 245/1/78 246/1/78
f 257/1/79 258/1/79 260/1/79
f 269/1/80 270/1/80 272/1/80
usemtl Material.006
f 19/1/10 71/1/10 18/1/10
f 22/1/11 71/1/11 83/1/11
f 22/1/12 95/1/12 24/1/12
f 26/1/13 95/1/13 103/1/13
f 26/1/14 115/1/14 28/1/14
f 30/1/15 115/1/15 116/1/15
f 30/1/16 47/1/16 32/1/16
f 19/1/17 47/1/17 59/1/17
f 227/1/67 159/1/67 158/1/67
f 162/1/68 227/1/68 158/1/68
f 251/1/69 162/1/69 164/1/69
f 166/1/70 251/1/70 164/1/70
f 264/1/71 166/1/71 168/1/71
f 170/1/72 264/1/72 168/1/72
f 203/1/73 170/1/73 172/1/73
f 215/1/74 172/1/74 159/1/74
f 294/3/115 291/28/115 290/7/115
f 295/29/116 292/30/116 291/28/116
f 292/31/117 297/32/117 293/33/117
f 297/32/118 290/7/118 293/33/118
f 298/4/119 295/29/119 294/3/119
f 295/29/120 300/34/120 296/35/120
f 296/36/121 301/37/121 297/32/121
f 301/37/122 294/3/122 297/32/122
f 302/25/123 299/38/123 298/4/123
f 299/38/124 304/39/124 300/34/124
f 304/40/125 301/37/125 300/41/125
f 301/37/126 302/25/126 298/4/126
f 302/25/127 307/42/127 303/43/127
f 303/43/128 308/44/128 304/39/128
f 308/45/129 305/46/129 304/40/129
f 309/47/130 302/25/130 305/46/130
f 310/16/116 307/48/116 306/21/116
f 311/49/115 308/50/115 307/48/115
f 312/51/118 309/52/118 308/1/118
f 309/52/117 310/16/117 306/21/117
f 314/13/120 311/49/120 310/16/120
f 315/53/119 312/54/119 311/49/119
f 316/55/122 313/56/122 312/51/122
f 317/57/121 310/16/121 313/56/121
f 318/10/124 315/53/124 314/13/124
f 319/58/123 316/59/123 315/53/123
f 320/60/126 317/57/126 316/55/126
f 321/61/125 314/13/125 317/57/125
f 318/10/128 291/28/128 319/58/128
f 291/28/127 320/62/127 319/58/127
f 292/31/130 321/61/130 320/60/130
f 321/61/129 290/7/129 318/10/129
f 326/3/115 323/28/115 322/7/115
f 327/29/116 324/30/116 323/28/116
f 324/31/117 329/32/117 325/33/117
f 329/32/118 322/7/118 325/33/118
f 330/4/119 327/29/119 326/3/119
f 327/29/120 332/34/120 328/35/120
f 332/41/121 329/32/121 328/36/121
f 333/37/122 326/3/122 329/32/122
f 330/4/123 335/43/123 331/38/123
f 335/43/124 332/34/124 331/38/124
f 332/41/125 337/46/125 333/37/125
f 333/37/126 334/25/126 330/4/126
f 334/25/127 339/42/127 335/43/127
f 335/43/128 340/44/128 336/39/128
f 340/45/129 337/46/129 336/40/129
f 341/47/130 334/25/130 337/46/130
f 342/16/116 339/48/116 338/21/116
f 339/48/115 344/54/115 340/50/115
f 344/51/118 341/52/118 340/1/118
f 341/52/117 342/16/117 338/21/117
f 346/13/120 343/49/120 342/16/120
f 343/49/119 348/59/119 344/54/119
f 348/55/122 345/56/122 344/51/122
f 345/56/121 346/13/121 342/16/121
f 350/10/124 347/53/124 346/13/124
f 351/58/123 348/59/123 347/53/123
f 352/60/126 349/57/126 348/55/126
f 353/61/125 346/13/125 349/57/125
f 322/7/128 351/58/128 350/10/128
f 323/28/127 352/62/127 351/58/127
f 324/31/130 353/61/130 352/60/130
f 325/33/129 350/10/129 353/61/129
f 19/1/10 59/1/10 71/1/10
f 22/1/11 18/1/11 71/1/11
f 22/1/12 83/1/12 95/1/12
f 26/1/13 24/1/13 95/1/13
f 26/1/14 103/1/14 115/1/14
f 30/1/15 28/1/15 115/1/15
f 30/1/16 116/1/16 47/1/16
f 19/1/17 32/1/17 47/1/17
f 227/1/67 215/1/67 159/1/67
f 162/1/179 239/1/179 227/1/179
f 251/1/69 239/1/69 162/1/69
f 166/1/70 263/1/70 251/1/70
f 264/1/71 263/1/71 166/1/71
f 170/1/72 187/1/72 264/1/72
f 203/1/73 187/1/73 170/1/73
f 215/1/74 203/1/74 172/1/74
f 294/3/115 295/29/115 291/28/115
f 295/29/116 296/35/116 292/30/116
f 292/31/117 296/36/117 297/32/117
f 297/32/118 294/3/118 290/7/118
f 298/4/119 299/38/119 295/29/119
f 295/29/120 299/38/120 300/34/120
f 296/36/121 300/41/121 301/37/121
f 301/37/122 298/4/122 294/3/122
f 302/25/123 303/43/123 299/38/123
f 299/38/124 303/43/124 304/39/124
f 304/40/125 305/46/125 301/37/125
f 301/37/126 305/46/126 302/25/126
f 302/25/127 306/26/127 307/42/127
f 303/43/128 307/42/128 308/44/128
f 308/45/129 309/47/129 305/46/129
f 309/47/130 306/26/130 302/25/130
f 310/16/116 311/49/116 307/48/116
f 311/49/115 312/54/115 308/50/115
f 312/51/118 313/56/118 309/52/118
f 309/52/117 313/56/117 310/16/117
f 314/13/120 315/53/120 311/49/120
f 315/53/119 316/59/119 312/54/119
f 316/55/122 317/57/122 313/56/122
f 317/57/121 314/13/121 310/16/121
f 318/10/124 319/58/124 315/53/124
f 319/58/123 320/62/123 316/59/123
f 320/60/126 321/61/126 317/57/126
f 321/61/125 318/10/125 314/13/125
f 318/10/128 290/7/128 291/28/128
f 291/28/127 292/30/127 320/62/127
f 292/31/130 293/33/130 321/61/130
f 321/61/129 293/33/129 290/7/129
f 326/3/115 327/29/115 323/28/115
f 327/29/116 328/35/116 324/30/116
f 324/31/117 328/36/117 329/32/117
f 329/32/118 326/3/118 322/7/118
f 330/4/119 331/38/119 327/29/119
f 327/29/120 331/38/120 332/34/120
f 332/41/121 333/37/121 329/32/121
f 333/37/122 330/4/122 326/3/122
f 330/4/123 334/25/123 335/43/123
f 335/43/124 336/39/124 332/34/124
f 332/41/125 336/40/125 337/46/125
f 333/37/126 337/46/126 334/25/126
f 334/25/127 338/26/127 339/42/127
f 335/43/128 339/42/128 340/44/128
f 340/45/129 341/47/129 337/46/129
f 341/47/130 338/26/130 334/25/130
f 342/16/116 343/49/116 339/48/116
f 339/48/115 343/49/115 344/54/115
f 344/51/118 345/56/118 341/52/118
f 341/52/117 345/56/117 342/16/117
f 346/13/120 347/53/120 343/49/120
f 343/49/119 347/53/119 348/59/119
f 348/55/122 349/57/122 345/56/122
f 345/56/121 349/57/121 346/13/121
f 350/10/124 351/58/124 347/53/124
f 351/58/123 352/62/123 348/59/123
f 352/60/126 353/61/126 349/57/126
f 353/61/125 350/10/125 346/13/125
f 322/7/128 323/28/128 351/58/128
f 323/28/127 324/30/127 352/62/127
f 324/31/130 325/33/130 353/61/130
f 325/33/129 322/7/129 350/10/129
usemtl Material
f 139/1/1 137/1/1 135/1/1
f 145/1/18 147/1/18 141/1/18
f 140/1/59 147/1/59 139/1/59
f 138/1/60 145/1/60 137/1/60
f 136/1/61 143/1/61 135/1/61
f 134/1/62 141/1/62 133/1/62
f 133/1/63 148/1/63 140/1/63
f 139/1/64 146/1/64 138/1/64
f 137/1/65 144/1/65 136/1/65
f 135/1/66 142/1/66 134/1/66
f 135/1/1 134/1/1 133/1/1
f 133/1/1 140/1/1 139/1/1
f 139/1/1 138/1/1 137/1/1
f 137/1/1 136/1/1 135/1/1
f 135/1/1 133/1/1 139/1/1
f 141/1/18 142/1/18 143/1/18
f 143/1/18 144/1/18 145/1/18
f 145/1/18 146/1/18 147/1/18
f 147/1/18 148/1/18 141/1/18
f 141/1/18 143/1/18 145/1/18
f 140/1/59 148/1/59 147/1/59
f 138/1/60 146/1/60 145/1/60
f 136/1/61 144/1/61 143/1/61
f 134/1/62 142/1/62 141/1/62
f 133/1/63 141/1/63 148/1/63
f 139/1/64 147/1/64 146/1/64
f 137/1/65 145/1/65 144/1/65
f 135/1/66 143/1/66 142/1/66
usemtl 
f 384/3/163 381/28/163 380/7/163
f 385/29/164 382/30/164 381/28/164
f 386/36/165 383/33/165 382/31/165
f 387/32/166 380/7/166 383/33/166
f 384/3/167 389/38/167 385/29/167
f 385/29/168 390/34/168 386/35/168
f 390/41/169 387/32/169 386/36/169
f 391/37/170 384/3/170 387/32/170
f 392/25/171 389/38/171 388/4/171
f 389/38/172 394/39/172 390/34/172
f 394/40/173 391/37/173 390/41/173
f 395/46/174 388/4/174 391/37/174
f 392/25/175 397/42/175 393/43/175
f 393/43/176 398/44/176 394/39/176
f 398/45/177 395/46/177 394/40/177
f 399/47/178 392/25/178 395/46/178
f 400/16/164 397/48/164 396/21/164
f 397/48/163 402/54/163 398/50/163
f 398/1/166 403/56/166 399/52/166
f 403/56/165 396/21/165 399/52/165
f 404/13/168 401/49/168 400/16/168
f 401/49/167 406/59/167 402/54/167
f 406/55/170 403/56/170 402/51/170
f 403/56/169 404/13/169 400/16/169
f 408/10/172 405/53/172 404/13/172
f 405/53/171 410/62/171 406/59/171
f 410/60/174 407/57/174 406/55/174
f 411/61/173 404/13/173 407/57/173
f 380/7/176 409/58/176 408/10/176
f 381/28/175 410/62/175 409/58/175
f 382/31/178 411/61/178 410/60/178
f 383/33/177 408/10/177 411/61/177
f 384/3/163 385/29/163 381/28/163
f 385/29/164 386/35/164 382/30/164
f 386/36/165 387/32/165 383/33/165
f 387/32/166 384/3/166 380/7/166
f 384/3/167 388/4/167 389/38/167
f 385/29/168 389/38/168 390/34/168
f 390/41/169 391/37/169 387/32/169
f 391/37/170 388/4/170 384/3/170
f 392/25/171 393/43/171 389/38/171
f 389/38/172 393/43/172 394/39/172
f 394/40/173 395/46/173 391/37/173
f 395/46/174 392/25/174 388/4/174
f 392/25/175 396/26/175 397/42/175
f 393/43/176 397/42/176 398/44/176
f 398/45/177 399/47/177 395/46/177
f 399/47/178 396/26/178 392/25/178
f 400/16/164 401/49/164 397/48/164
f 397/48/163 401/49/163 402/54/163
f 398/1/166 402/51/166 403/56/166
f 403/56/165 400/16/165 396/21/165
f 404/13/168 405/53/168 401/49/168
f 401/49/167 405/53/167 406/59/167
f 406/55/170 407/57/170 403/56/170
f 403/56/169 407/57/169 404/13/169
f 408/10/172 409/58/172 405/53/172
f 405/53/171 409/58/171 410/62/171
f 410/60/174 411/61/174 407/57/174
f 411/61/173 408/10/173 404/13/173
f 380/7/176 381/28/176 409/58/176
f 381/28/175 382/30/175 410/62/175
f 382/31/178 383/33/178 411/61/178
f 383/33/177 380/7/177 408/10/177
usemtl Material.002
f 170/1/1 166/1/1 162/1/1
f 216/1/75 231/1/75 232/1/75
f 204/1/76 219/1/76 220/1/76
f 188/1/77 207/1/77 208/1/77
f 228/1/78 243/1/78 244/1/78
f 256/1/79 165/1/79 255/1/79
f 252/1/80 267/1/80 268/1/80
f 167/1/81 179/1/81 180/1/81
f 176/1/82 191/1/82 192/1/82
f 266/1/18 190/1/18 218/1/18
f 182/1/40 173/1/40 174/1/40
f 264/1/81 169/1/81 167/1/81
f 265/1/81 167/1/81 180/1/81
f 169/1/81 190/1/81 179/1/81
f 190/1/81 174/1/81 173/1/81
f 180/1/81 155/1/81 154/1/81
f 179/1/81 173/1/81 155/1/81
f 174/1/81 180/1/81 154/1/81
f 154/1/83 182/1/83 174/1/83
f 183/1/42 154/1/42 155/1/42
f 181/1/84 155/1/84 173/1/84
f 177/1/18 194/1/18 186/1/18
f 187/1/82 171/1/82 176/1/82
f 171/1/82 206/1/82 191/1/82
f 190/1/82 176/1/82 192/1/82
f 206/1/82 186/1/82 185/1/82
f 192/1/82 156/1/82 177/1/82
f 191/1/82 185/1/82 156/1/82
f 186/1/82 192/1/82 177/1/82
f 196/1/85 198/1/85 194/1/85
f 156/1/18 196/1/18 177/1/18
f 185/1/18 195/1/18 156/1/18
f 186/1/18 193/1/18 185/1/18
f 195/1/44 200/1/44 196/1/44
f 193/1/86 199/1/86 195/1/86
f 198/1/46 193/1/46 194/1/46
f 210/1/58 201/1/58 202/1/58
f 203/1/77 160/1/77 188/1/77
f 160/1/77 218/1/77 207/1/77
f 206/1/77 188/1/77 208/1/77
f 218/1/77 202/1/77 201/1/77
f 208/1/77 149/1/77 189/1/77
f 207/1/77 201/1/77 149/1/77
f 202/1/77 208/1/77 189/1/77
f 189/1/87 210/1/87 202/1/87
f 211/1/56 189/1/56 149/1/56
f 209/1/88 149/1/88 201/1/88
f 222/1/48 213/1/48 214/1/48
f 204/1/76 227/1/76 157/1/76
f 157/1/76 230/1/76 219/1/76
f 218/1/76 204/1/76 220/1/76
f 230/1/76 214/1/76 213/1/76
f 205/1/76 219/1/76 150/1/76
f 219/1/76 213/1/76 150/1/76
f 214/1/76 220/1/76 205/1/76
f 205/1/89 222/1/89 214/1/89
f 150/1/50 224/1/50 205/1/50
f 221/1/90 150/1/90 213/1/90
f 233/1/91 151/1/91 225/1/91
f 227/1/75 161/1/75 216/1/75
f 230/1/75 216/1/75 232/1/75
f 161/1/75 242/1/75 231/1/75
f 242/1/75 226/1/75 225/1/75
f 232/1/75 151/1/75 217/1/75
f 231/1/75 225/1/75 151/1/75
f 226/1/75 232/1/75 217/1/75
f 234/1/53 225/1/53 226/1/53
f 217/1/92 234/1/92 226/1/92
f 235/1/55 217/1/55 151/1/55
f 237/1/93 247/1/93 152/1/93
f 239/1/78 163/1/78 228/1/78
f 242/1/78 228/1/78 244/1/78
f 163/1/78 254/1/78 243/1/78
f 254/1/78 238/1/78 237/1/78
f 244/1/78 152/1/78 229/1/78
f 243/1/78 237/1/78 152/1/78
f 238/1/78 244/1/78 229/1/78
f 246/1/28 237/1/28 238/1/28
f 229/1/94 246/1/94 238/1/94
f 152/1/30 248/1/30 229/1/30
f 241/1/95 258/1/95 250/1/95
f 251/1/79 165/1/79 240/1/79
f 254/1/79 240/1/79 256/1/79
f 165/1/79 266/1/79 255/1/79
f 266/1/79 250/1/79 249/1/79
f 256/1/79 153/1/79 241/1/79
f 255/1/79 249/1/79 153/1/79
f 250/1/79 256/1/79 241/1/79
f 259/1/33 241/1/33 153/1/33
f 257/1/96 153/1/96 249/1/96
f 258/1/31 249/1/31 250/1/31
f 261/1/97 271/1/97 178/1/97
f 263/1/80 175/1/80 252/1/80
f 266/1/80 252/1/80 268/1/80
f 175/1/80 265/1/80 267/1/80
f 265/1/80 262/1/80 261/1/80
f 253/1/80 267/1/80 178/1/80
f 267/1/80 261/1/80 178/1/80
f 262/1/80 268/1/80 253/1/80
f 270/1/38 261/1/38 262/1/38
f 272/1/98 262/1/98 253/1/98
f 271/1/36 253/1/36 178/1/36
f 288/2/99 274/3/99 289/4/99
f 288/2/100 287/5/100 273/6/100
f 273/6/101 276/7/101 274/3/101
f 273/6/102 287/8/102 275/9/102
f 275/9/103 278/10/103 276/7/103
f 275/9/104 287/11/104 277/12/104
f 277/12/105 280/13/105 278/10/105
f 277/12/106 287/14/106 279/15/106
f 279/15/107 282/16/107 280/13/107
f 279/15/108 287/17/108 281/18/108
f 281/18/109 287/19/109 283/20/109
f 281/18/110 284/21/110 282/16/110
f 283/22/111 287/23/111 285/24/111
f 283/22/112 286/25/112 284/26/112
f 285/24/113 287/27/113 288/2/113
f 285/24/114 289/4/114 286/25/114
f 162/1/1 158/1/1 159/1/1
f 159/1/1 172/1/1 170/1/1
f 170/1/1 168/1/1 166/1/1
f 166/1/1 164/1/1 162/1/1
f 162/1/1 159/1/1 170/1/1
f 216/1/75 161/1/75 231/1/75
f 204/1/76 157/1/76 219/1/76
f 188/1/77 160/1/77 207/1/77
f 228/1/78 163/1/78 243/1/78
f 256/1/79 240/1/79 165/1/79
f 252/1/80 175/1/80 267/1/80
f 167/1/81 169/1/81 179/1/81
f 176/1/82 171/1/82 191/1/82
f 218/1/18 230/1/18 242/1/18
f 242/1/18 254/1/18 266/1/18
f 266/1/18 265/1/18 190/1/18
f 190/1/18 206/1/18 218/1/18
f 218/1/18 242/1/18 266/1/18
f 182/1/40 181/1/40 173/1/40
f 264/1/81 187/1/81 169/1/81
f 265/1/81 264/1/81 167/1/81
f 169/1/81 187/1/81 190/1/81
f 190/1/81 265/1/81 174/1/81
f 180/1/81 179/1/81 155/1/81
f 179/1/81 190/1/81 173/1/81
f 174/1/81 265/1/81 180/1/81
f 154/1/83 184/1/83 182/1/83
f 183/1/42 184/1/42 154/1/42
f 181/1/84 183/1/84 155/1/84
f 177/1/18 196/1/18 194/1/18
f 187/1/82 203/1/82 171/1/82
f 171/1/82 203/1/82 206/1/82
f 190/1/82 187/1/82 176/1/82
f 206/1/82 190/1/82 186/1/82
f 192/1/82 191/1/82 156/1/82
f 191/1/82 206/1/82 185/1/82
f 186/1/82 190/1/82 192/1/82
f 196/1/85 200/1/85 198/1/85
f 156/1/18 195/1/18 196/1/18
f 185/1/18 193/1/18 195/1/18
f 186/1/18 194/1/18 193/1/18
f 195/1/44 199/1/44 200/1/44
f 193/1/86 197/1/86 199/1/86
f 198/1/46 197/1/46 193/1/46
f 210/1/58 209/1/58 201/1/58
f 203/1/77 215/1/77 160/1/77
f 160/1/77 215/1/77 218/1/77
f 206/1/77 203/1/77 188/1/77
f 218/1/77 206/1/77 202/1/77
f 208/1/77 207/1/77 149/1/77
f 207/1/77 218/1/77 201/1/77
f 202/1/77 206/1/77 208/1/77
f 189/1/87 212/1/87 210/1/87
f 211/1/56 212/1/56 189/1/56
f 209/1/88 211/1/88 149/1/88
f 222/1/48 221/1/48 213/1/48
f 204/1/76 215/1/76 227/1/76
f 157/1/76 227/1/76 230/1/76
f 218/1/76 215/1/76 204/1/76
f 230/1/76 218/1/76 214/1/76
f 205/1/76 220/1/76 219/1/76
f 219/1/76 230/1/76 213/1/76
f 214/1/76 218/1/76 220/1/76
f 205/1/89 224/1/89 222/1/89
f 150/1/50 223/1/50 224/1/50
f 221/1/90 223/1/90 150/1/90
f 233/1/91 235/1/91 151/1/91
f 227/1/75 239/1/75 161/1/75
f 230/1/75 227/1/75 216/1/75
f 161/1/75 239/1/75 242/1/75
f 242/1/75 230/1/75 226/1/75
f 232/1/75 231/1/75 151/1/75
f 231/1/75 242/1/75 225/1/75
f 226/1/75 230/1/75 232/1/75
f 234/1/53 233/1/53 225/1/53
f 217/1/92 236/1/92 234/1/92
f 235/1/55 236/1/55 217/1/55
f 237/1/93 245/1/93 247/1/93
f 239/1/78 251/1/78 163/1/78
f 242/1/78 239/1/78 228/1/78
f 163/1/78 251/1/78 254/1/78
f 254/1/78 242/1/78 238/1/78
f 244/1/78 243/1/78 152/1/78
f 243/1/78 254/1/78 237/1/78
f 238/1/78 242/1/78 244/1/78
f 246/1/28 245/1/28 237/1/28
f 229/1/94 248/1/94 246/1/94
f 152/1/30 247/1/30 248/1/30
f 241/1/95 260/1/95 258/1/95
f 251/1/79 263/1/79 165/1/79
f 254/1/79 251/1/79 240/1/79
f 165/1/79 263/1/79 266/1/79
f 266/1/79 254/1/79 250/1/79
f 256/1/79 255/1/79 153/1/79
f 255/1/79 266/1/79 249/1/79
f 250/1/79 254/1/79 256/1/79
f 259/1/33 260/1/33 241/1/33
f 257/1/96 259/1/96 153/1/96
f 258/1/31 257/1/31 249/1/31
f 261/1/97 269/1/97 271/1/97
f 263/1/80 264/1/80 175/1/80
f 266/1/80 263/1/80 252/1/80
f 175/1/80 264/1/80 265/1/80
f 265/1/80 266/1/80 262/1/80
f 253/1/80 268/1/80 267/1/80
f 267/1/80 265/1/80 261/1/80
f 262/1/80 266/1/80 268/1/80
f 270/1/38 269/1/38 261/1/38
f 272/1/98 270/1/98 262/1/98
f 271/1/36 272/1/36 253/1/36
f 288/2/99 273/6/99 274/3/99
f 273/6/101 275/9/101 276/7/101
f 275/9/103 277/12/103 278/10/103
f 277/12/105 279/15/105 280/13/105
f 279/15/107 281/18/107 282/16/107
f 281/18/110 283/20/110 284/21/110
f 283/22/112 285/24/112 286/25/112
f 285/24/114 288/2/114 289/4/114
usemtl Material.012
f 369/63/131 379/37/131 356/32/131
f 378/4/132 354/6/132 355/3/132
f 378/4/133 356/32/133 379/37/133
f 377/2/134 376/5/134 354/6/134
f 354/6/135 358/7/135 355/3/135
f 355/3/136 359/33/136 356/32/136
f 354/6/137 376/8/137 357/9/137
f 369/64/138 356/32/138 359/33/138
f 369/65/139 359/33/139 362/61/139
f 357/9/140 361/10/140 358/7/140
f 358/7/141 362/61/141 359/33/141
f 357/9/142 376/11/142 360/12/142
f 369/66/143 362/61/143 365/57/143
f 360/12/144 364/13/144 361/10/144
f 361/10/145 365/57/145 362/61/145
f 360/12/146 376/14/146 363/15/146
f 369/67/147 365/57/147 368/56/147
f 363/15/148 367/16/148 364/13/148
f 364/13/149 368/56/149 365/57/149
f 363/15/150 376/17/150 366/18/150
f 369/68/151 368/56/151 372/52/151
f 366/18/152 371/21/152 367/16/152
f 367/16/153 372/52/153 368/56/153
f 366/18/154 376/19/154 370/20/154
f 370/22/155 376/23/155 373/24/155
f 369/69/156 372/47/156 375/46/156
f 370/22/157 374/25/157 371/26/157
f 371/26/158 375/46/158 372/47/158
f 374/25/159 379/37/159 375/46/159
f 373/24/160 376/27/160 377/2/160
f 369/70/161 375/46/161 379/37/161
f 373/24/162 378/4/162 374/25/162
f 378/4/132 377/2/132 354/6/132
f 378/4/133 355/3/133 356/32/133
f 354/6/135 357/9/135 358/7/135
f 355/3/136 358/7/136 359/33/136
f 357/9/140 360/12/140 361/10/140
f 358/7/141 361/10/141 362/61/141
f 360/12/144 363/15/144 364/13/144
f 361/10/145 364/13/145 365/57/145
f 363/15/148 366/18/148 367/16/148
f 364/13/149 367/16/149 368/56/149
f 366/18/152 370/20/152 371/21/152
f 367/16/153 371/21/153 372/52/153
f 370/22/157 373/24/157 374/25/157
f 371/26/158 374/25/158 375/46/158
f 374/25/159 378/4/159 379/37/159
f 373/24/162 377/2/162 378/4/162
