# Blender 4.5.3 LTS
# www.blender.org
mtllib toxic2_base.mtl
o Circle.003
v 0.579490 0.234129 0.000000
v 0.244207 0.575316 0.000000
v -0.234129 0.579490 0.000000
v -0.575316 0.244207 0.000000
v -0.579490 -0.234129 0.000000
v -0.244207 -0.575316 0.000000
v 0.234129 -0.579490 0.000000
v 0.575316 -0.244207 0.000000
v 0.579490 0.234129 0.194656
v 0.244207 0.575316 0.194656
v -0.234129 0.579490 0.194656
v -0.575316 0.244207 0.194656
v -0.579490 -0.234129 0.194656
v -0.244207 -0.575316 0.194656
v 0.234129 -0.579490 0.194656
v 0.575316 -0.244207 0.194656
v -0.162501 -0.065655 0.778335
v -0.162501 -0.065655 0.188257
v -0.161331 0.068481 0.778335
v -0.161331 0.068481 0.188257
v -0.065655 0.162501 0.778335
v -0.065655 0.162501 0.188257
v 0.068480 0.161330 0.778335
v 0.068480 0.161330 0.188257
v 0.162501 0.065654 0.778335
v 0.162501 0.065654 0.188257
v 0.161330 -0.068481 0.778335
v 0.161330 -0.068481 0.188257
v 0.065654 -0.162501 0.778335
v 0.065654 -0.162501 0.188257
v -0.068481 -0.161331 0.778335
v -0.068481 -0.161331 0.188257
v 0.130907 -0.055567 0.962011
v 0.185131 -0.078584 0.819799
v 0.130907 -0.055567 0.677586
v 0.053273 -0.131857 0.962011
v 0.075340 -0.186474 0.819799
v 0.053273 -0.131857 0.677586
v -0.055567 -0.130908 0.962011
v -0.078584 -0.185131 0.819799
v -0.055567 -0.130908 0.677586
v -0.131858 -0.053274 0.962011
v -0.186475 -0.075341 0.819799
v -0.131858 -0.053274 0.677586
v -0.130908 0.055567 0.962011
v -0.185131 0.078583 0.819799
v -0.130908 0.055567 0.677586
v -0.000000 -0.000000 0.618680
v -0.053274 0.131857 0.962011
v -0.075341 0.186474 0.819799
v -0.053274 0.131857 0.677586
v 0.055566 0.130907 0.962011
v 0.078583 0.185131 0.819799
v 0.055566 0.130907 0.677586
v -0.000000 -0.000000 1.020918
v 0.131857 0.053274 0.962011
v 0.186474 0.075340 0.819799
v 0.131857 0.053274 0.677586
vn -0.0000 -0.0000 -1.0000
vn -0.0000 -0.0000 1.0000
vn 0.7009 -0.7133 -0.0000
vn -0.7133 -0.7009 -0.0000
vn -0.7009 0.7133 -0.0000
vn 0.7133 0.7009 -0.0000
vn 1.0000 -0.0087 -0.0000
vn -0.0087 -1.0000 -0.0000
vn -1.0000 0.0087 -0.0000
vn 0.0087 1.0000 -0.0000
vn 0.4091 -0.0036 -0.9125
vn 0.9339 -0.0082 0.3574
vn 0.9339 -0.0082 -0.3574
vn 0.4091 -0.0036 0.9125
vn 0.6546 -0.6661 -0.3574
vn 0.2867 -0.2918 0.9125
vn 0.2867 -0.2918 -0.9125
vn 0.6546 -0.6661 0.3574
vn -0.0082 -0.9339 0.3574
vn -0.0082 -0.9339 -0.3574
vn -0.0036 -0.4091 0.9125
vn -0.0036 -0.4091 -0.9125
vn -0.2918 -0.2867 -0.9125
vn -0.6661 -0.6546 0.3574
vn -0.6661 -0.6546 -0.3574
vn -0.2918 -0.2867 0.9125
vn -0.4091 0.0036 -0.9125
vn -0.9339 0.0082 0.3574
vn -0.9339 0.0082 -0.3574
vn -0.4091 0.0036 0.9125
vn -0.2867 0.2918 -0.9125
vn -0.6546 0.6661 0.3574
vn -0.6546 0.6661 -0.3574
vn -0.2867 0.2918 0.9125
vn 0.0036 0.4091 -0.9125
vn 0.0082 0.9339 0.3574
vn 0.0082 0.9339 -0.3574
vn 0.0036 0.4091 0.9125
vn 0.2918 0.2867 0.9125
vn 0.2918 0.2867 -0.9125
vn 0.6661 0.6546 0.3574
vn 0.6661 0.6546 -0.3574
vn 0.0081 0.9339 -0.3574
vt 0.000000 0.000000
vt 0.875000 0.500000
vt 1.000000 1.000000
vt 1.000000 0.500000
vt 0.750000 0.500000
vt 0.875000 1.000000
vt 0.625000 0.500000
vt 0.750000 1.000000
vt 0.500000 0.500000
vt 0.625000 1.000000
vt 0.375000 0.500000
vt 0.500000 1.000000
vt 0.250000 0.500000
vt 0.375000 1.000000
vt 0.250000 0.010000
vt 0.010000 0.250000
vt 0.250000 0.490000
vt 0.125000 0.500000
vt 0.250000 1.000000
vt 0.000000 0.500000
vt 0.125000 1.000000
vt 0.580294 0.080294
vt 0.919706 0.080294
vt 0.919706 0.419706
vt 0.687500 0.000000
vt 0.750000 0.250000
vt 0.625000 0.250000
vt 0.750000 0.750000
vt 0.687500 1.000000
vt 0.625000 0.750000
vt 0.500000 0.250000
vt 0.562500 1.000000
vt 0.500000 0.750000
vt 0.562500 0.000000
vt 0.375000 0.250000
vt 0.437500 1.000000
vt 0.375000 0.750000
vt 0.437500 0.000000
vt 0.312500 0.000000
vt 0.250000 0.250000
vt 0.250000 0.750000
vt 0.312500 1.000000
vt 0.187500 0.000000
vt 0.125000 0.250000
vt 0.187500 1.000000
vt 0.125000 0.750000
vt 0.062500 0.000000
vt 0.000000 0.250000
vt 0.062500 1.000000
vt 0.000000 0.750000
vt 0.937500 0.000000
vt 1.000000 0.250000
vt 0.875000 0.250000
vt 1.000000 0.750000
vt 0.937500 1.000000
vt 0.875000 0.750000
vt 0.812500 1.000000
vt 0.812500 0.000000
vt 0.419706 0.419706
vt 0.490000 0.250000
vt 0.419706 0.080294
vt 0.080294 0.080294
vt 0.080294 0.419706
vt 0.000000 1.000000
vt 0.750000 0.490000
vt 0.580294 0.419706
vt 0.510000 0.250000
vt 0.750000 0.010000
vt 0.990000 0.250000
s 0
usemtl Material
f 7/1/1 5/1/1 3/1/1
f 13/1/2 15/1/2 9/1/2
f 8/1/3 15/1/3 7/1/3
f 6/1/4 13/1/4 5/1/4
f 4/1/5 11/1/5 3/1/5
f 2/1/6 9/1/6 1/1/6
f 1/1/7 16/1/7 8/1/7
f 7/1/8 14/1/8 6/1/8
f 5/1/9 12/1/9 4/1/9
f 3/1/10 10/1/10 2/1/10
f 19/2/9 18/3/9 17/4/9
f 21/5/5 20/6/5 19/2/5
f 23/7/10 22/8/10 21/5/10
f 25/9/6 24/10/6 23/7/6
f 27/11/7 26/12/7 25/9/7
f 29/13/3 28/14/3 27/11/3
f 26/15/1 30/16/1 18/17/1
f 31/18/8 30/19/8 29/13/8
f 17/20/4 32/21/4 31/18/4
f 27/22/2 23/23/2 19/24/2
f 48/25/11 58/26/11 35/27/11
f 56/28/12 34/7/12 57/5/12
f 57/5/13 35/27/13 58/26/13
f 56/28/14 55/29/14 33/30/14
f 34/7/15 38/31/15 35/27/15
f 33/30/16 55/32/16 36/33/16
f 48/34/17 35/27/17 38/31/17
f 33/30/18 37/9/18 34/7/18
f 36/33/19 40/11/19 37/9/19
f 37/9/20 41/35/20 38/31/20
f 36/33/21 55/36/21 39/37/21
f 48/38/22 38/31/22 41/35/22
f 48/39/23 41/35/23 44/40/23
f 40/11/24 42/41/24 43/13/24
f 40/11/25 44/40/25 41/35/25
f 39/37/26 55/42/26 42/41/26
f 48/43/27 44/40/27 47/44/27
f 42/41/28 46/18/28 43/13/28
f 43/13/29 47/44/29 44/40/29
f 42/41/30 55/45/30 45/46/30
f 48/47/31 47/44/31 51/48/31
f 45/46/32 50/20/32 46/18/32
f 46/18/33 51/48/33 47/44/33
f 45/46/34 55/49/34 49/50/34
f 48/51/35 51/52/35 54/53/35
f 49/54/36 53/2/36 50/4/36
f 50/4/37 54/53/37 51/52/37
f 49/54/38 55/55/38 52/56/38
f 52/56/39 55/57/39 56/28/39
f 48/58/40 54/53/40 58/26/40
f 52/56/41 57/5/41 53/2/41
f 53/2/42 58/26/42 54/53/42
f 3/1/1 2/1/1 1/1/1
f 1/1/1 8/1/1 7/1/1
f 7/1/1 6/1/1 5/1/1
f 5/1/1 4/1/1 3/1/1
f 3/1/1 1/1/1 7/1/1
f 9/1/2 10/1/2 11/1/2
f 11/1/2 12/1/2 13/1/2
f 13/1/2 14/1/2 15/1/2
f 15/1/2 16/1/2 9/1/2
f 9/1/2 11/1/2 13/1/2
f 8/1/3 16/1/3 15/1/3
f 6/1/4 14/1/4 13/1/4
f 4/1/5 12/1/5 11/1/5
f 2/1/6 10/1/6 9/1/6
f 1/1/7 9/1/7 16/1/7
f 7/1/8 15/1/8 14/1/8
f 5/1/9 13/1/9 12/1/9
f 3/1/10 11/1/10 10/1/10
f 19/2/9 20/6/9 18/3/9
f 21/5/5 22/8/5 20/6/5
f 23/7/10 24/10/10 22/8/10
f 25/9/6 26/12/6 24/10/6
f 27/11/7 28/14/7 26/12/7
f 29/13/3 30/19/3 28/14/3
f 18/17/1 20/59/1 22/60/1
f 22/60/1 24/61/1 26/15/1
f 26/15/1 28/62/1 30/16/1
f 30/16/1 32/63/1 18/17/1
f 18/17/1 22/60/1 26/15/1
f 31/18/8 32/21/8 30/19/8
f 17/20/4 18/64/4 32/21/4
f 19/24/2 17/65/2 31/66/2
f 31/66/2 29/67/2 27/22/2
f 27/22/2 25/68/2 23/23/2
f 23/23/2 21/69/2 19/24/2
f 19/24/2 31/66/2 27/22/2
f 56/28/12 33/30/12 34/7/12
f 57/5/13 34/7/13 35/27/13
f 34/7/15 37/9/15 38/31/15
f 33/30/18 36/33/18 37/9/18
f 36/33/19 39/37/19 40/11/19
f 37/9/20 40/11/20 41/35/20
f 40/11/24 39/37/24 42/41/24
f 40/11/25 43/13/25 44/40/25
f 42/41/28 45/46/28 46/18/28
f 43/13/29 46/18/29 47/44/29
f 45/46/32 49/50/32 50/20/32
f 46/18/33 50/20/33 51/48/33
f 49/54/36 52/56/36 53/2/36
f 50/4/43 53/2/43 54/53/43
f 52/56/41 56/28/41 57/5/41
f 53/2/42 57/5/42 58/26/42
