# Blender 4.5.3 LTS
# www.blender.org
mtllib toxic2_head.mtl
o Cylinder.001
v 1.078663 -0.000000 0.749055
v 0.622150 -0.000000 0.749055
v 1.078663 -0.055999 0.725860
v 0.622150 -0.055999 0.725859
v 1.078663 -0.079194 0.669861
v 0.622150 -0.079194 0.669861
v 1.078663 -0.055999 0.613863
v 0.622150 -0.055999 0.613863
v 1.078663 -0.000000 0.590667
v 0.622150 -0.000000 0.590667
v 1.078663 0.055998 0.613863
v 0.622150 0.055998 0.613863
v 1.078663 0.079193 0.669861
v 0.622150 0.079193 0.669861
v 1.078663 0.055998 0.725860
v 0.622150 0.055998 0.725859
v 1.078663 -0.000000 0.767282
v 1.078663 -0.068888 0.738748
v 1.078663 -0.097422 0.669861
v 1.078663 -0.068888 0.600974
v 1.078663 -0.000000 0.572440
v 1.078663 0.068887 0.600974
v 1.078663 0.097421 0.669861
v 1.078663 0.068887 0.738748
v 1.137218 -0.000000 0.747225
v 1.137218 -0.054705 0.724565
v 1.137218 -0.077364 0.669861
v 1.137218 -0.054705 0.615157
v 1.137218 -0.000000 0.592497
v 1.137218 0.054704 0.615157
v 1.137218 0.077363 0.669861
v 1.137218 0.054704 0.724565
v 1.137218 -0.000000 0.767282
v 1.137218 -0.068888 0.738748
v 1.137218 -0.097422 0.669861
v 1.137218 -0.068888 0.600974
v 1.137218 -0.000000 0.572440
v 1.137218 0.068887 0.600974
v 1.137218 0.097421 0.669861
v 1.137218 0.068887 0.738748
v 1.107082 -0.000000 0.747225
v 1.107082 -0.054705 0.724565
v 1.107082 -0.077364 0.669861
v 1.107082 -0.054705 0.615157
v 1.107082 -0.000000 0.592497
v 1.107082 0.054704 0.615157
v 1.107082 0.077363 0.669861
v 1.107082 0.054704 0.724565
v 1.112039 -0.000000 0.747537
v 1.112039 0.055132 0.724700
v 1.112039 0.077968 0.669569
v 1.112039 0.055132 0.614437
v 1.112039 -0.000000 0.591601
v 1.112039 -0.055132 0.614437
v 1.112039 -0.077968 0.669569
v 1.112039 -0.055132 0.724700
v -0.890616 -0.359506 0.313650
v -0.737183 -0.423060 0.313650
v -0.583750 -0.359506 0.313650
v -0.890616 -0.314567 0.205156
v -0.737183 -0.359506 0.160217
v -0.583750 -0.314567 0.205156
v -0.890616 -0.206073 0.160217
v -0.737183 -0.206073 0.096663
v -0.583750 -0.206073 0.160217
v -0.890616 -0.097580 0.205156
v -0.737183 -0.052641 0.160217
v -0.583750 -0.097580 0.205156
v -0.520196 -0.206073 0.313650
v -0.890616 -0.052641 0.313650
v -0.737183 0.010913 0.313650
v -0.583750 -0.052641 0.313650
v -0.954170 -0.206073 0.313650
v -0.954170 -0.206073 0.313650
v -0.890616 -0.052641 0.313650
v -0.737183 0.010913 0.313650
v -0.583750 -0.052641 0.313650
v -0.520196 -0.206073 0.313650
v -0.583750 -0.359506 0.313650
v -0.737183 -0.423060 0.313650
v -0.890616 -0.359506 0.313650
v -0.890616 -0.052641 1.270017
v -0.954170 -0.206073 1.270017
v -0.737183 0.010913 1.270017
v -0.583750 -0.052641 1.270017
v -0.520196 -0.206073 1.270017
v -0.583750 -0.359506 1.270017
v -0.737183 -0.423060 1.270017
v -0.890616 -0.359506 1.270017
v -0.890616 -0.052641 1.270008
v -0.737183 0.010913 1.270008
v -0.583750 -0.052641 1.270008
v -0.890616 -0.097580 1.378502
v -0.737183 -0.052641 1.423441
v -0.583750 -0.097580 1.378502
v -0.890616 -0.206073 1.423441
v -0.737183 -0.206073 1.486995
v -0.583750 -0.206073 1.423441
v -0.890616 -0.314567 1.378502
v -0.737183 -0.359506 1.423441
v -0.583750 -0.314567 1.378502
v -0.520196 -0.206073 1.270008
v -0.890616 -0.359506 1.270008
v -0.737183 -0.423060 1.270008
v -0.583750 -0.359506 1.270008
v -0.954170 -0.206073 1.270008
v -0.890616 0.052645 0.313650
v -0.737183 -0.010909 0.313650
v -0.583750 0.052645 0.313650
v -0.890616 0.097585 0.205156
v -0.737183 0.052645 0.160217
v -0.583750 0.097585 0.205156
v -0.890616 0.206078 0.160217
v -0.737183 0.206078 0.096663
v -0.583750 0.206078 0.160217
v -0.890616 0.314572 0.205156
v -0.737183 0.359511 0.160217
v -0.583750 0.314572 0.205156
v -0.520196 0.206078 0.313650
v -0.890616 0.359511 0.313650
v -0.737183 0.423065 0.313650
v -0.583750 0.359511 0.313650
v -0.954170 0.206078 0.313650
v -0.954170 0.206078 0.313650
v -0.890616 0.359511 0.313650
v -0.737183 0.423065 0.313650
v -0.583750 0.359511 0.313650
v -0.520196 0.206078 0.313650
v -0.583750 0.052645 0.313650
v -0.737183 -0.010909 0.313650
v -0.890616 0.052645 0.313650
v -0.890616 0.359511 1.270017
v -0.954170 0.206078 1.270017
v -0.737183 0.423065 1.270017
v -0.583750 0.359511 1.270017
v -0.520196 0.206078 1.270017
v -0.583750 0.052645 1.270017
v -0.737183 -0.010909 1.270017
v -0.890616 0.052645 1.270017
v -0.890616 0.359511 1.270008
v -0.737183 0.423065 1.270008
v -0.583750 0.359511 1.270008
v -0.890616 0.314572 1.378502
v -0.737183 0.359511 1.423441
v -0.583750 0.314572 1.378502
v -0.890616 0.206078 1.423441
v -0.737183 0.206078 1.486995
v -0.583750 0.206078 1.423441
v -0.890616 0.097585 1.378502
v -0.737183 0.052645 1.423441
v -0.583750 0.097585 1.378502
v -0.520196 0.206078 1.270008
v -0.890616 0.052645 1.270008
v -0.737183 -0.010909 1.270008
v -0.583750 0.052645 1.270008
v -0.954170 0.206078 1.270008
v -0.706432 0.293510 0.772953
v -0.750588 0.295337 0.791259
v -0.794745 0.297164 0.772953
v -0.813035 0.297921 0.728759
v -0.794745 0.297164 0.684565
v -0.750588 0.295337 0.666259
v -0.706432 0.293510 0.684565
v -0.688142 0.292753 0.728759
v -0.706432 0.293510 0.772953
v -0.750588 0.295337 0.791259
v -0.794745 0.297164 0.772953
v -0.813035 0.297921 0.728759
v -0.794745 0.297164 0.684565
v -0.750588 0.295337 0.666259
v -0.706432 0.293510 0.684565
v -0.688142 0.292753 0.728759
v -0.696254 0.465918 0.717147
v -0.731470 0.490921 0.726894
v -0.770114 0.501209 0.703777
v -0.789549 0.490755 0.661339
v -0.778389 0.465684 0.624439
v -0.743173 0.440682 0.614693
v -0.704529 0.430394 0.637810
v -0.685095 0.440847 0.680247
v -0.512559 0.514782 0.634212
v -0.507735 0.560909 0.622495
v -0.514606 0.586607 0.582738
v -0.529148 0.576823 0.538230
v -0.542842 0.537288 0.515042
v -0.547666 0.491161 0.526758
v -0.540795 0.465463 0.566515
v -0.526253 0.475247 0.611024
v -0.324568 0.375125 0.561538
v -0.298864 0.411405 0.543894
v -0.293912 0.431527 0.500780
v -0.312612 0.423704 0.457452
v -0.344012 0.392519 0.439291
v -0.369716 0.356240 0.456935
v -0.374668 0.336118 0.500049
v -0.355967 0.343941 0.543377
v -0.187594 0.197110 0.524946
v -0.148892 0.215186 0.503414
v -0.137168 0.225824 0.458274
v -0.159289 0.222791 0.415969
v -0.202297 0.207866 0.401281
v -0.240999 0.189790 0.422814
v -0.252723 0.179152 0.467954
v -0.230602 0.182184 0.510259
v -0.706432 -0.293511 0.772953
v -0.750588 -0.295338 0.791259
v -0.794745 -0.297165 0.772953
v -0.813035 -0.297921 0.728759
v -0.794745 -0.297165 0.684565
v -0.750588 -0.295338 0.666259
v -0.706432 -0.293511 0.684565
v -0.688142 -0.292754 0.728759
v -0.706432 -0.293511 0.772953
v -0.750588 -0.295338 0.791259
v -0.794745 -0.297165 0.772953
v -0.813035 -0.297921 0.728759
v -0.794745 -0.297165 0.684565
v -0.750588 -0.295338 0.666259
v -0.706432 -0.293511 0.684565
v -0.688142 -0.292754 0.728759
v -0.696254 -0.465919 0.717147
v -0.731470 -0.490921 0.726894
v -0.770114 -0.501209 0.703777
v -0.789548 -0.490756 0.661339
v -0.778389 -0.465685 0.624439
v -0.743173 -0.440682 0.614693
v -0.704529 -0.430394 0.637810
v -0.685094 -0.440848 0.680247
v -0.512559 -0.514783 0.634212
v -0.507734 -0.560910 0.622495
v -0.514606 -0.586608 0.582738
v -0.529148 -0.576823 0.538230
v -0.542841 -0.537288 0.515042
v -0.547666 -0.491161 0.526758
v -0.540794 -0.465463 0.566515
v -0.526253 -0.475248 0.611024
v -0.324568 -0.375126 0.561538
v -0.298864 -0.411405 0.543894
v -0.293911 -0.431527 0.500780
v -0.312612 -0.423704 0.457452
v -0.344011 -0.392519 0.439291
v -0.369716 -0.356240 0.456935
v -0.374668 -0.336118 0.500049
v -0.355967 -0.343941 0.543377
v -0.187593 -0.197111 0.524946
v -0.148892 -0.215186 0.503414
v -0.137167 -0.225824 0.458274
v -0.159289 -0.222792 0.415969
v -0.202297 -0.207866 0.401281
v -0.240999 -0.189790 0.422814
v -0.252723 -0.179153 0.467954
v -0.230602 -0.182185 0.510259
v -0.035458 -0.053081 0.110163
v -0.207574 0.026738 0.444419
v 0.011656 -0.053081 0.110163
v 0.246332 0.026738 0.444419
v -0.035458 -0.148358 0.075484
v -0.207574 -0.200304 0.548328
v 0.011656 -0.148358 0.075484
v 0.246332 -0.200304 0.548328
v -0.132554 -0.024417 0.231906
v -0.132554 -0.121702 0.353650
v 0.109661 -0.121702 0.353650
v 0.109661 -0.024417 0.231906
v 0.109661 -0.277833 0.424533
v 0.109661 -0.119694 0.197228
v -0.132554 -0.277833 0.424533
v -0.132554 -0.119694 0.197228
v -0.035458 0.067975 0.110163
v -0.207574 -0.011843 0.444419
v 0.011656 0.067975 0.110163
v 0.246332 -0.011843 0.444419
v -0.035458 0.163253 0.075484
v -0.207574 0.215199 0.548328
v 0.011656 0.163253 0.075484
v 0.246332 0.215199 0.548328
v -0.132554 0.039311 0.231906
v -0.132554 0.136596 0.353650
v 0.109661 0.136596 0.353650
v 0.109661 0.039311 0.231906
v 0.109661 0.292727 0.424533
v 0.109661 0.134589 0.197228
v -0.132554 0.292727 0.424533
v -0.132554 0.134589 0.197228
v 0.473800 -0.085951 1.020697
v 0.471502 0.068633 1.023455
v 0.454063 0.101735 1.009708
v 0.428350 0.097612 1.011451
v 0.373951 0.138484 0.994514
v 0.288455 0.144340 0.991997
v 0.226310 0.088859 1.015001
v 0.226116 -0.088663 1.019520
v 0.288956 -0.148403 0.994595
v 0.373238 -0.141469 0.997574
v 0.427668 -0.106326 1.012218
v 0.454774 -0.114584 1.008734
v 0.433764 -0.033385 1.034411
v 0.393937 -0.006833 1.034413
v 0.432105 0.022207 1.034427
v 0.331459 0.251579 0.947452
v 0.331932 -0.247637 0.953151
v 0.149851 0.165340 0.983175
v 0.172476 -0.179509 0.981506
v 0.508426 -0.178399 0.981999
v 0.511869 0.187359 0.974048
v 0.348278 -0.094408 1.017172
v 0.321570 -0.075959 1.024864
v 0.321116 -0.033985 1.034401
v 0.348401 -0.013156 1.034423
v 0.376763 -0.034057 1.034444
v 0.377238 -0.075930 1.024922
v 0.347914 0.007594 1.034424
v 0.321415 0.028562 1.034404
v 0.321185 0.067656 1.023853
v 0.348605 0.086175 1.016179
v 0.372799 0.070220 1.022819
v 0.372799 0.029714 1.034430
v 0.580907 -0.003772 1.034383
v 0.110014 -0.006162 1.034355
v 0.471806 0.044790 1.034411
v 0.226261 0.042908 1.034372
v 0.430965 0.044477 1.034436
v 0.563603 0.045493 1.034383
v 0.321315 0.043637 1.034404
v 0.372799 0.044031 1.034431
v 0.120994 0.042102 1.034355
v 0.226150 -0.055078 1.034372
v 0.432103 -0.052755 1.034422
v 0.127600 -0.056189 1.034355
v 0.321357 -0.054004 1.034401
v 0.377007 -0.053377 1.034443
v 0.561255 -0.052268 1.034383
v 0.473328 -0.052290 1.034411
v 0.226262 0.043140 1.034372
v -0.526962 0.379063 0.266204
v 0.093494 0.320410 0.312893
v -0.526962 -0.388510 0.266204
v 0.093494 -0.329858 0.312893
v -0.526962 0.041781 1.033777
v -0.526962 0.379063 0.696495
v -0.526962 0.280275 0.934990
v 0.379436 0.320410 0.689119
v 0.617697 0.026778 0.989392
v 0.544769 0.231733 0.904144
v -0.526962 -0.388510 0.696495
v -0.526962 -0.051228 1.033777
v -0.526962 -0.289723 0.934990
v 0.617697 -0.036226 0.989392
v 0.379436 -0.329858 0.689119
v 0.544769 -0.241180 0.904144
v 0.057993 -0.388510 0.266204
v 0.057993 0.379063 0.266204
v 0.656040 0.041781 1.033777
v 0.570700 0.280275 0.934990
v 0.385174 0.379063 0.696495
v 0.570700 -0.289723 0.934990
v 0.656040 -0.051228 1.033777
v 0.385174 -0.388510 0.696495
v 0.554921 -0.329858 0.689119
v 0.554921 0.320410 0.689119
v 0.720254 -0.241180 0.904144
v 0.720254 0.231733 0.904144
v 0.287242 -0.299676 0.336922
v 0.287242 0.290228 0.336922
v 0.773562 0.019058 0.966458
v 0.773562 -0.028506 0.966458
v 0.268978 -0.329858 0.312893
v 0.268978 0.320410 0.312893
v 0.793182 0.026778 0.989392
v 0.706990 0.206753 0.888204
v 0.551990 0.290228 0.685307
v 0.706990 -0.216200 0.888204
v 0.793182 -0.036226 0.989392
v 0.551990 -0.299676 0.685307
v 0.523230 -0.299676 0.685307
v 0.523230 0.290228 0.685307
v 0.678230 -0.216200 0.888204
v 0.678230 0.206753 0.888204
v 0.258481 -0.299676 0.336922
v 0.258481 0.290228 0.336922
v 0.744802 0.019058 0.966458
v 0.744802 -0.028506 0.966458
v -0.515792 -0.305895 0.135120
v -0.515792 -0.050051 1.035492
v -0.120410 -0.305895 0.135120
v -0.120410 -0.050051 1.035492
v -0.515792 -0.333561 0.135120
v -0.515792 -0.069937 1.054726
v -0.120410 -0.333561 0.135120
v -0.120410 -0.069937 1.054726
v -0.515792 -0.388359 0.268573
v -0.120410 -0.388359 0.268573
v -0.120410 -0.416025 0.268573
v -0.515792 -0.416025 0.268573
v -0.515792 -0.388359 0.697374
v -0.120410 -0.388359 0.697374
v -0.120410 -0.416025 0.697374
v -0.515792 -0.416025 0.697374
v -0.515792 -0.291572 0.934583
v -0.120410 -0.291572 0.934583
v -0.120410 -0.314479 0.950097
v -0.515792 -0.314479 0.950097
v -0.515792 -0.005700 1.031281
v -0.120410 -0.005700 1.031281
v -0.120410 -0.004968 1.058937
v -0.515792 -0.004968 1.058937
v -0.515792 0.293826 0.135120
v -0.515792 0.037981 1.035492
v -0.120410 0.293826 0.135120
v -0.120410 0.037981 1.035492
v -0.515792 0.321491 0.135120
v -0.515792 0.057867 1.054726
v -0.120410 0.321491 0.135120
v -0.120410 0.057867 1.054726
v -0.515792 0.376290 0.268573
v -0.120410 0.376290 0.268573
v -0.120410 0.403956 0.268573
v -0.515792 0.403956 0.268573
v -0.515792 0.376290 0.697374
v -0.120410 0.376290 0.697374
v -0.120410 0.403956 0.697374
v -0.515792 0.403956 0.697374
v -0.515792 0.279503 0.934583
v -0.120410 0.279503 0.934583
v -0.120410 0.302409 0.950097
v -0.515792 0.302409 0.950097
v -0.515792 -0.006370 1.031281
v -0.120410 -0.006370 1.031281
v -0.120410 -0.007102 1.058937
v -0.515792 -0.007102 1.058937
v -0.092844 0.293826 0.135120
v -0.092844 0.037981 1.035492
v -0.058885 0.293826 0.135120
v -0.058885 0.037981 1.035492
v -0.092844 0.321491 0.135120
v -0.092844 0.057867 1.054726
v -0.058885 0.321491 0.135120
v -0.058885 0.057867 1.054726
v -0.092844 0.376290 0.268573
v -0.058885 0.376290 0.268573
v -0.058885 0.403956 0.268573
v -0.092844 0.403956 0.268573
v -0.092844 0.376290 0.697374
v -0.058885 0.376290 0.697374
v -0.058885 0.403956 0.697374
v -0.092844 0.403956 0.697374
v -0.092844 0.279503 0.934583
v -0.058885 0.279503 0.934583
v -0.058885 0.302409 0.950097
v -0.092844 0.302409 0.950097
v -0.092844 -0.006370 1.031281
v -0.058885 -0.006370 1.031281
v -0.058885 -0.007102 1.058937
v -0.092844 -0.007102 1.058937
v -0.092844 -0.305895 0.135120
v -0.092844 -0.050051 1.035492
v -0.058885 -0.305895 0.135120
v -0.058885 -0.050051 1.035492
v -0.092844 -0.333561 0.135120
v -0.092844 -0.069937 1.054726
v -0.058885 -0.333561 0.135120
v -0.058885 -0.069937 1.054726
v -0.092844 -0.388359 0.268573
v -0.058885 -0.388359 0.268573
v -0.058885 -0.416025 0.268573
v -0.092844 -0.416025 0.268573
v -0.092844 -0.388359 0.697374
v -0.058885 -0.388359 0.697374
v -0.058885 -0.416025 0.697374
v -0.092844 -0.416025 0.697374
v -0.092844 -0.291572 0.934583
v -0.058885 -0.291572 0.934583
v -0.058885 -0.314479 0.950097
v -0.092844 -0.314479 0.950097
v -0.092844 -0.005700 1.031281
v -0.058885 -0.005700 1.031281
v -0.058885 -0.004968 1.058937
v -0.092844 -0.004968 1.058937
v -0.035098 -0.305895 0.135120
v -0.035098 -0.050051 1.035492
v -0.001138 -0.305895 0.135120
v -0.001138 -0.050051 1.035492
v -0.035098 -0.333561 0.135120
v -0.035098 -0.069937 1.054726
v -0.001138 -0.333561 0.135120
v -0.001138 -0.069937 1.054726
v -0.035098 -0.388359 0.268573
v -0.001138 -0.388359 0.268573
v -0.001138 -0.416025 0.268573
v -0.035098 -0.416025 0.268573
v -0.035098 -0.388359 0.697374
v -0.001138 -0.388359 0.697374
v -0.001138 -0.416025 0.697374
v -0.035098 -0.416025 0.697374
v -0.035098 -0.291572 0.934583
v -0.001138 -0.291572 0.934583
v -0.001138 -0.314479 0.950097
v -0.035098 -0.314479 0.950097
v -0.035098 -0.005700 1.031281
v -0.001138 -0.005700 1.031281
v -0.001138 -0.004968 1.058937
v -0.035098 -0.004968 1.058937
v -0.035098 0.293826 0.135120
v -0.035098 0.037981 1.035492
v -0.001138 0.293826 0.135120
v -0.001138 0.037981 1.035492
v -0.035098 0.321491 0.135120
v -0.035098 0.057867 1.054726
v -0.001138 0.321491 0.135120
v -0.001138 0.057867 1.054726
v -0.035098 0.376290 0.268573
v -0.001138 0.376290 0.268573
v -0.001138 0.403956 0.268573
v -0.035098 0.403956 0.268573
v -0.035098 0.376290 0.697374
v -0.001138 0.376290 0.697374
v -0.001138 0.403956 0.697374
v -0.035098 0.403956 0.697374
v -0.035098 0.279503 0.934583
v -0.001138 0.279503 0.934583
v -0.001138 0.302409 0.950097
v -0.035098 0.302409 0.950097
v -0.035098 -0.006370 1.031281
v -0.001138 -0.006370 1.031281
v -0.001138 -0.007102 1.058937
v -0.035098 -0.007102 1.058937
v 0.026063 -0.305895 0.135120
v 0.026063 -0.050051 1.035492
v 0.060023 -0.305895 0.135120
v 0.060023 -0.050051 1.035492
v 0.026063 -0.333561 0.135120
v 0.026063 -0.069937 1.054726
v 0.060023 -0.333561 0.135120
v 0.060023 -0.069937 1.054726
v 0.026063 -0.388359 0.268573
v 0.060023 -0.388359 0.268573
v 0.060023 -0.416025 0.268573
v 0.026063 -0.416025 0.268573
v 0.026063 -0.388359 0.697374
v 0.060023 -0.388359 0.697374
v 0.060023 -0.416025 0.697374
v 0.026063 -0.416025 0.697374
v 0.026063 -0.291572 0.934583
v 0.060023 -0.291572 0.934583
v 0.060023 -0.314479 0.950097
v 0.026063 -0.314479 0.950097
v 0.026063 -0.005700 1.031281
v 0.060023 -0.005700 1.031281
v 0.060023 -0.004968 1.058937
v 0.026063 -0.004968 1.058937
v 0.026063 0.293826 0.135120
v 0.026063 0.037981 1.035492
v 0.060023 0.293826 0.135120
v 0.060023 0.037981 1.035492
v 0.026063 0.321491 0.135120
v 0.026063 0.057867 1.054726
v 0.060023 0.321491 0.135120
v 0.060023 0.057867 1.054726
v 0.026063 0.376290 0.268573
v 0.060023 0.376290 0.268573
v 0.060023 0.403956 0.268573
v 0.026063 0.403956 0.268573
v 0.026063 0.376290 0.697374
v 0.060023 0.376290 0.697374
v 0.060023 0.403956 0.697374
v 0.026063 0.403956 0.697374
v 0.026063 0.279503 0.934583
v 0.060023 0.279503 0.934583
v 0.060023 0.302409 0.950097
v 0.026063 0.302409 0.950097
v 0.026063 -0.006370 1.031281
v 0.060023 -0.006370 1.031281
v 0.060023 -0.007102 1.058937
v 0.026063 -0.007102 1.058937
v 0.597084 -0.064379 0.779889
v 0.644503 -0.064379 0.732471
v 0.597084 -0.111797 0.732471
v 0.626918 -0.064379 0.762304
v 0.619834 -0.087129 0.755221
v 0.626918 -0.094213 0.732471
v 0.597084 -0.094213 0.762304
v 0.644503 -0.064379 0.603712
v 0.597084 -0.064379 0.556294
v 0.597084 -0.111797 0.603712
v 0.626918 -0.064379 0.573879
v 0.619834 -0.087129 0.580962
v 0.597084 -0.094213 0.573879
v 0.626918 -0.094213 0.603712
v 0.597084 0.064379 0.779889
v 0.597084 0.111797 0.732471
v 0.644503 0.064379 0.732471
v 0.597084 0.094212 0.762304
v 0.619834 0.087129 0.755221
v 0.626918 0.094212 0.732471
v 0.626918 0.064379 0.762304
v 0.597084 0.064379 0.556294
v 0.644503 0.064379 0.603712
v 0.597084 0.111797 0.603712
v 0.626918 0.064379 0.573879
v 0.619834 0.087129 0.580962
v 0.626918 0.094212 0.603712
v 0.597084 0.094212 0.573879
v 0.413683 -0.064379 0.779889
v 0.413683 -0.094213 0.762304
v 0.413683 -0.111797 0.732471
v 0.413683 -0.064379 0.556294
v 0.413683 -0.094213 0.573879
v 0.413683 -0.111797 0.603712
v 0.413683 0.064379 0.779889
v 0.413683 0.094212 0.762304
v 0.413683 0.111797 0.732471
v 0.413683 0.064379 0.556294
v 0.413683 0.094212 0.573879
v 0.413683 0.111797 0.603712
vn -0.0000 -0.3827 0.9239
vn -0.0000 -0.9239 0.3827
vn -0.0000 -0.9239 -0.3827
vn -0.0000 -0.3827 -0.9239
vn -0.0000 0.3827 -0.9239
vn -0.0000 0.9239 -0.3827
vn -1.0000 -0.0000 -0.0000
vn -0.0000 0.9239 0.3827
vn -0.0000 0.3827 0.9239
vn 1.0000 -0.0000 -0.0000
vn 0.9125 -0.3780 -0.1566
vn -0.3574 -0.8629 -0.3574
vn 0.3574 -0.8629 -0.3574
vn -0.9125 -0.3780 -0.1566
vn -0.9125 -0.1566 -0.3780
vn 0.9125 -0.1566 -0.3780
vn -0.3574 -0.3574 -0.8629
vn 0.3574 -0.3574 -0.8629
vn 0.3574 0.3574 -0.8629
vn -0.9125 0.1566 -0.3780
vn 0.9125 0.1566 -0.3780
vn -0.3574 0.3574 -0.8629
vn 0.3574 0.8629 -0.3574
vn -0.9125 0.3780 -0.1566
vn 0.9125 0.3780 -0.1566
vn -0.3574 0.8629 -0.3574
vn -0.0000 -0.0000 1.0000
vn -0.0000 -0.0000 -1.0000
vn 0.9239 -0.3827 -0.0000
vn 0.3827 0.9239 -0.0000
vn -0.9239 0.3827 -0.0000
vn -0.9239 -0.3827 -0.0000
vn 0.3827 -0.9239 -0.0000
vn 0.9239 0.3827 -0.0000
vn -0.3827 0.9239 -0.0000
vn -0.3827 -0.9239 -0.0000
vn 0.9125 0.3780 0.1566
vn -0.3574 0.8629 0.3574
vn 0.3574 0.8629 0.3574
vn -0.9125 0.3780 0.1566
vn -0.9125 0.1566 0.3780
vn 0.9125 0.1566 0.3780
vn -0.3574 0.3574 0.8629
vn 0.3574 0.3574 0.8629
vn 0.3574 -0.3574 0.8629
vn -0.9125 -0.1566 0.3780
vn 0.9125 -0.1566 0.3780
vn -0.3574 -0.3574 0.8629
vn 0.3574 -0.8629 0.3574
vn -0.9125 -0.3780 0.1566
vn 0.9125 -0.3780 0.1566
vn -0.3574 -0.8629 0.3574
vn 0.0413 0.9991 -0.0000
vn 0.9222 0.0687 0.3805
vn 0.4174 0.2470 0.8745
vn -0.4158 0.3366 0.8449
vn -0.9044 0.2347 0.3563
vn -0.9587 -0.0084 -0.2843
vn -0.3765 -0.2926 -0.8790
vn 0.3536 -0.3067 -0.8837
vn 0.9136 -0.1435 -0.3805
vn 0.4458 -0.6720 0.5914
vn 0.3727 0.1694 0.9124
vn -0.0600 0.8709 0.4878
vn -0.3508 0.9321 -0.0903
vn -0.4828 0.5614 -0.6721
vn -0.3603 -0.1941 -0.9124
vn -0.0527 -0.8428 -0.5357
vn 0.2617 -0.9570 0.1249
vn -0.0339 -0.4969 0.8672
vn 0.4538 0.1745 0.8739
vn 0.6221 0.7022 0.3464
vn 0.4532 0.8224 -0.3441
vn 0.0217 0.4867 -0.8733
vn -0.4405 -0.1206 -0.8896
vn -0.6581 -0.6504 -0.3792
vn -0.4876 -0.8057 0.3364
vn -0.1961 -0.3400 0.9198
vn 0.4290 0.1439 0.8918
vn 0.7829 0.5288 0.3279
vn 0.6846 0.6061 -0.4049
vn 0.1953 0.3393 -0.9202
vn -0.4186 -0.1398 -0.8973
vn -0.7755 -0.5333 -0.3380
vn -0.6826 -0.6111 0.4007
vn 0.0413 -0.9991 -0.0000
vn 0.9222 -0.0687 0.3805
vn 0.3786 -0.2647 0.8869
vn -0.3509 -0.3235 0.8788
vn -0.8966 -0.2354 0.3751
vn -0.9239 0.0210 -0.3820
vn -0.3765 0.2926 -0.8790
vn 0.3536 0.3067 -0.8837
vn 0.9136 0.1435 -0.3805
vn 0.4458 0.6720 0.5914
vn 0.3727 -0.1694 0.9124
vn -0.0600 -0.8709 0.4878
vn -0.3466 -0.9353 -0.0717
vn -0.4903 -0.6448 -0.5864
vn -0.3725 0.1689 -0.9125
vn 0.0296 0.8939 -0.4473
vn 0.2570 0.9591 0.1185
vn -0.0339 0.4969 0.8672
vn 0.4538 -0.1745 0.8739
vn 0.6221 -0.7022 0.3464
vn 0.4572 -0.8255 -0.3309
vn 0.0290 -0.4982 -0.8666
vn -0.4584 0.1735 -0.8717
vn -0.6491 0.6851 -0.3306
vn -0.4876 0.8057 0.3364
vn -0.1950 0.3395 0.9202
vn 0.4199 -0.1387 0.8969
vn 0.7805 -0.5273 0.3358
vn 0.6846 -0.6061 -0.4049
vn 0.1953 -0.3393 -0.9202
vn -0.4186 0.1398 -0.8973
vn -0.7755 0.5333 -0.3380
vn -0.6805 0.6113 0.4041
vn -0.0000 0.5217 -0.8531
vn 0.7272 -0.2838 -0.6251
vn -0.0000 -0.8475 0.5308
vn -0.8879 -0.1902 -0.4189
vn -0.0000 0.3420 -0.9397
vn -0.0000 0.4162 0.9093
vn -0.7329 0.2327 -0.6393
vn -0.0000 -0.9734 0.2292
vn -0.0000 -0.8209 -0.5711
vn 0.7297 0.2339 -0.6425
vn -0.0000 0.9734 -0.2292
vn -0.0000 0.7812 0.6243
vn -0.0000 -0.5217 -0.8531
vn 0.7261 0.2862 -0.6253
vn -0.0000 0.8475 0.5308
vn -0.8879 0.1902 -0.4189
vn -0.0000 -0.3420 -0.9397
vn -0.0000 -0.4162 0.9093
vn -0.7329 -0.2327 -0.6393
vn -0.0000 0.9734 0.2292
vn -0.0000 0.8209 -0.5711
vn 0.7297 -0.2339 -0.6425
vn -0.0000 -0.9734 -0.2292
vn -0.0000 -0.7812 0.6243
vn -0.0021 -0.3843 0.9232
vn -0.0001 -0.0003 1.0000
vn 0.0044 -0.4044 0.9146
vn -0.0002 -0.3858 0.9226
vn -0.0008 -0.3889 0.9213
vn 0.0013 0.3901 0.9208
vn -0.0000 -0.0002 1.0000
vn -0.0016 0.4022 0.9156
vn -0.0006 0.0002 1.0000
vn -0.0002 0.3837 0.9234
vn -0.0003 -0.0000 1.0000
vn 0.0164 0.3908 0.9203
vn -0.0008 -0.0000 1.0000
vn 0.0006 0.0005 1.0000
vn 0.0026 -0.4044 0.9146
vn 0.0038 -0.3849 0.9229
vn -0.0078 0.3889 0.9212
vn 0.0002 0.0001 1.0000
vn -0.0006 0.3837 0.9235
vn -0.0001 -0.0000 1.0000
vn 0.0012 -0.3864 0.9223
vn -0.0007 -0.3857 0.9226
vn -0.0006 0.3836 0.9235
vn -0.0009 0.3839 0.9234
vn -0.0000 1.0000 -0.0000
vn -0.0000 0.9245 0.3813
vn -0.0000 -1.0000 -0.0000
vn -0.0000 -0.9245 0.3813
vn 0.7960 -0.0000 -0.6053
vn 0.7571 -0.0023 -0.6533
vn 0.7841 -0.0248 -0.6202
vn 0.7620 -0.0044 -0.6476
vn 0.7926 0.0009 -0.6098
vn 0.7962 -0.0018 -0.6051
vn 0.7567 -0.0000 -0.6537
vn -0.0000 0.9248 -0.3805
vn -0.0000 -0.3848 -0.9230
vn -0.0000 -0.3840 0.9233
vn -0.0000 0.3840 0.9233
vn 0.7962 -0.0000 -0.6051
vn 0.7601 -0.0013 -0.6498
vn 0.7875 -0.0251 -0.6159
vn 0.7652 -0.0045 -0.6438
vn 0.7946 0.0005 -0.6072
vn 0.7962 -0.0009 -0.6050
vn 0.7599 -0.0000 -0.6501
vn 0.7962 -0.0000 -0.6050
vn 0.7947 -0.0000 -0.6071
vn 0.7617 -0.0000 -0.6480
vn -0.0000 -0.9248 -0.3805
vn -0.0000 0.3848 -0.9230
vn -0.0000 0.3855 -0.9227
vn -0.0000 -0.3934 0.9194
vn -0.0000 -0.0945 -0.9955
vn -0.0000 -0.8507 -0.5257
vn -0.0000 0.8507 0.5257
vn -0.0000 -0.9279 0.3728
vn -0.0000 0.9259 -0.3778
vn -0.0000 0.9996 -0.0265
vn -0.0000 -0.0647 0.9979
vn -0.0000 -0.3855 -0.9227
vn -0.0000 0.3934 0.9194
vn -0.0000 0.0945 -0.9955
vn -0.0000 0.8507 -0.5257
vn -0.0000 -0.8507 0.5257
vn -0.0000 0.9279 0.3728
vn -0.0000 -0.9259 -0.3778
vn -0.0000 -0.9996 -0.0265
vn -0.0000 0.0647 0.9979
vn 0.4671 -0.3922 0.7925
vn 0.7925 -0.4671 0.3922
vn 0.3922 -0.7925 0.4671
vn 0.7925 -0.3922 -0.4671
vn 0.3922 -0.4671 -0.7925
vn 0.4671 -0.7925 -0.3922
vn 0.3922 0.4671 0.7925
vn 0.4671 0.7925 0.3922
vn 0.7925 0.3922 0.4671
vn 0.4671 0.3922 -0.7925
vn 0.7925 0.4671 -0.3922
vn 0.3922 0.7925 -0.4671
vn -0.0000 -0.5078 0.8615
vn -0.0000 -0.8615 0.5078
vn 0.8615 -0.5078 -0.0000
vn 0.5078 -0.8615 -0.0000
vn -0.0000 0.5078 -0.8615
vn -0.0000 0.8615 -0.5078
vn 0.8615 0.5078 -0.0000
vn 0.5078 0.8615 -0.0000
vn 0.5078 -0.0000 0.8615
vn 0.8615 -0.0000 0.5078
vn 0.5078 -0.0000 -0.8615
vn 0.8615 -0.0000 -0.5078
vn -0.0000 0.8615 0.5078
vn -0.0000 0.5078 0.8615
vn -0.0000 -0.8615 -0.5078
vn -0.0000 -0.5078 -0.8615
vn 0.9662 0.0620 0.2501
vn 0.3786 0.2647 0.8869
vn -0.3509 0.3235 0.8788
vn -0.8966 0.2354 0.3751
vn -0.9239 -0.0210 -0.3820
vn -0.4282 -0.2665 -0.8635
vn 0.4213 -0.3223 -0.8477
vn 0.9127 -0.1434 -0.3827
vn 0.4296 -0.5629 0.7061
vn 0.3603 0.1941 0.9124
vn -0.0087 0.8391 0.5439
vn -0.3466 0.9353 -0.0717
vn -0.4903 0.6448 -0.5864
vn -0.3725 -0.1689 -0.9125
vn 0.0296 -0.8939 -0.4473
vn 0.2570 -0.9591 0.1185
vn -0.0255 -0.4838 0.8748
vn 0.4366 0.1240 0.8911
vn 0.6285 0.6746 0.3871
vn 0.4572 0.8255 -0.3309
vn 0.0290 0.4982 -0.8666
vn -0.4584 -0.1735 -0.8717
vn -0.6491 -0.6851 -0.3306
vn -0.4827 -0.8014 0.3531
vn -0.1950 -0.3395 0.9202
vn 0.4199 0.1387 0.8969
vn 0.7805 0.5273 0.3358
vn 0.6862 0.6060 -0.4023
vn 0.1963 0.3397 -0.9198
vn -0.4284 -0.1452 -0.8919
vn -0.7786 -0.5348 -0.3283
vn -0.6805 -0.6113 0.4041
vn 0.9662 -0.0620 0.2501
vn 0.4174 -0.2470 0.8745
vn -0.4158 -0.3366 0.8449
vn -0.9044 -0.2347 0.3563
vn -0.9587 0.0084 -0.2843
vn -0.4282 0.2665 -0.8635
vn 0.4213 0.3223 -0.8477
vn 0.9127 0.1434 -0.3826
vn 0.4296 0.5629 0.7061
vn 0.3603 -0.1941 0.9124
vn -0.0087 -0.8391 0.5439
vn -0.3508 -0.9321 -0.0903
vn -0.4828 -0.5614 -0.6721
vn -0.3603 0.1941 -0.9124
vn -0.0527 0.8428 -0.5357
vn 0.2617 0.9570 0.1249
vn -0.0255 0.4838 0.8748
vn 0.4366 -0.1240 0.8911
vn 0.6285 -0.6746 0.3871
vn 0.4532 -0.8224 -0.3441
vn 0.0217 -0.4867 -0.8733
vn -0.4405 0.1206 -0.8896
vn -0.6581 0.6505 -0.3792
vn -0.4827 0.8014 0.3531
vn -0.1961 0.3400 0.9198
vn 0.4290 -0.1439 0.8918
vn 0.7829 -0.5288 0.3279
vn 0.6862 -0.6060 -0.4023
vn 0.1963 -0.3397 -0.9198
vn -0.4284 0.1452 -0.8919
vn -0.7786 0.5348 -0.3283
vn -0.6826 0.6111 0.4007
vn 0.7261 -0.2862 -0.6253
vn -0.8873 -0.1919 -0.4194
vn 0.7272 0.2838 -0.6251
vn -0.8873 0.1919 -0.4194
vn 0.0045 -0.3773 0.9261
vn 0.0021 -0.3830 0.9237
vn 0.0098 -0.3909 0.9204
vn 0.0047 -0.3832 0.9236
vn -0.0025 -0.3835 0.9236
vn -0.0024 -0.3889 0.9213
vn -0.0011 -0.3832 0.9237
vn 0.0038 -0.3984 0.9172
vn -0.0008 -0.3857 0.9226
vn -0.0005 0.3834 0.9236
vn -0.0024 0.4021 0.9156
vn -0.0001 -0.0004 1.0000
vn -0.0002 -0.0000 1.0000
vn -0.0000 -0.0001 1.0000
vn 0.0003 -0.0010 1.0000
vn -0.0036 0.4054 0.9142
vn -0.0005 0.3835 0.9235
vn -0.0002 -0.0001 1.0000
vn -0.0005 -0.0000 1.0000
vn -0.0005 0.3835 0.9236
vn -0.0032 0.4054 0.9142
vn -0.0008 0.3832 0.9237
vn -0.0011 0.3816 0.9243
vn -0.0078 0.3967 0.9179
vn -0.0007 -0.0001 1.0000
vn -0.0014 0.3970 0.9178
vn -0.0027 0.4175 0.9087
vn 0.0006 -0.0004 1.0000
vn 0.0003 0.0005 1.0000
vn 0.0005 -0.0003 1.0000
vn 0.0002 0.0002 1.0000
vn 0.0004 -0.0000 1.0000
vn 0.0006 0.0018 1.0000
vn -0.0004 -0.3854 0.9227
vn 0.0042 -0.3984 0.9172
vn -0.0004 -0.3853 0.9228
vn 0.0004 -0.3773 0.9261
vn 0.0007 -0.3859 0.9225
vn -0.0029 0.4175 0.9087
vn 0.0010 0.3839 0.9234
vn -0.0153 0.3766 0.9262
vn 0.0011 0.3839 0.9234
vn 0.0003 -0.0000 1.0000
vn 0.0003 -0.0001 1.0000
vn -0.0040 0.3901 0.9208
vn -0.7998 -0.0000 0.6003
vn 0.0006 -0.3860 0.9225
vn 0.0010 -0.3860 0.9225
vn -0.0009 -0.3857 0.9226
vn -0.0007 -0.3856 0.9227
vn -0.0006 0.3838 0.9234
vn 0.0008 0.3844 0.9232
vn 0.7620 0.0044 -0.6476
vn 0.7926 -0.0009 -0.6098
vn 0.7571 0.0023 -0.6533
vn 0.7841 0.0248 -0.6202
vn 0.7962 0.0018 -0.6051
vn 0.7652 0.0045 -0.6438
vn 0.7946 -0.0005 -0.6072
vn 0.7601 0.0013 -0.6498
vn 0.7875 0.0251 -0.6159
vn 0.7962 0.0009 -0.6050
vn 0.3922 -0.4671 0.7925
vn 0.7925 -0.3922 0.4671
vn 0.4671 -0.7925 0.3922
vn 0.7925 -0.4671 -0.3922
vn 0.4671 -0.3922 -0.7925
vn 0.3922 -0.7925 -0.4671
vn 0.4671 0.3922 0.7925
vn 0.3922 0.7925 0.4671
vn 0.7925 0.4671 0.3922
vn 0.3922 0.4671 -0.7925
vn 0.7925 0.3922 -0.4671
vn 0.4671 0.7925 -0.3922
vt 1.000000 1.000000
vt 0.875000 0.500000
vt 1.000000 0.500000
vt 0.875000 1.000000
vt 0.750000 0.500000
vt 0.750000 1.000000
vt 0.625000 0.500000
vt 0.625000 1.000000
vt 0.500000 0.500000
vt 0.500000 1.000000
vt 0.375000 0.500000
vt 0.375000 1.000000
vt 0.250000 0.500000
vt 0.010000 0.250000
vt 0.250000 0.010000
vt 0.490000 0.250000
vt 0.250000 1.000000
vt 0.125000 0.500000
vt 0.125000 1.000000
vt 0.000000 0.500000
vt 0.884766 0.115234
vt 0.940587 0.250000
vt 0.750000 0.440587
vt 0.919706 0.419706
vt 0.884766 0.384766
vt 0.990000 0.250000
vt 0.919706 0.080294
vt 0.750000 0.010000
vt 0.750000 0.059413
vt 0.580294 0.080294
vt 0.615234 0.115234
vt 0.510000 0.250000
vt 0.559413 0.250000
vt 0.580294 0.419706
vt 0.615234 0.384766
vt 0.750000 0.490000
vt 0.000000 0.000000
vt 0.437500 0.000000
vt 0.500000 0.250000
vt 0.375000 0.250000
vt 0.500000 0.750000
vt 0.437500 1.000000
vt 0.375000 0.750000
vt 0.312500 1.000000
vt 0.250000 0.750000
vt 0.312500 0.000000
vt 0.250000 0.250000
vt 0.125000 0.250000
vt 0.187500 1.000000
vt 0.125000 0.750000
vt 0.187500 0.000000
vt 0.000000 0.250000
vt 0.062500 1.000000
vt 0.000000 0.750000
vt 0.062500 0.000000
vt 1.000000 0.250000
vt 0.571429 0.000000
vt 0.857143 0.000000
vt 0.714286 0.000000
vt 0.428571 0.000000
vt 1.000000 0.000000
vt 0.285714 0.000000
vt 0.142857 0.000000
vt 0.000000 0.875000
vt 0.166667 1.000000
vt 0.000000 1.000000
vt 0.000000 0.125000
vt 0.166667 0.000000
vt 0.166667 0.125000
vt 0.166667 0.250000
vt 0.000000 0.375000
vt 0.166667 0.375000
vt 0.166667 0.500000
vt 0.166667 0.625000
vt 0.000000 0.625000
vt 0.166667 0.750000
vt 0.000000 0.750000
vt 0.166667 0.875000
vt 0.333333 0.875000
vt 0.333333 1.000000
vt 0.333333 0.000000
vt 0.500000 0.125000
vt 0.333333 0.125000
vt 0.333333 0.250000
vt 0.333333 0.375000
vt 0.500000 0.375000
vt 0.333333 0.500000
vt 0.333333 0.625000
vt 0.500000 0.625000
vt 0.333333 0.750000
vt 0.500000 0.750000
vt 0.500000 0.875000
vt 0.666667 1.000000
vt 0.500000 0.000000
vt 0.666667 0.125000
vt 0.666667 0.250000
vt 0.666667 0.375000
vt 0.666667 0.500000
vt 0.666667 0.625000
vt 0.666667 0.750000
vt 0.666667 0.875000
vt 0.833333 0.875000
vt 0.833333 1.000000
vt 0.833333 0.000000
vt 0.833333 0.125000
vt 0.833333 0.250000
vt 0.833333 0.375000
vt 0.833333 0.500000
vt 0.833333 0.625000
vt 0.833333 0.750000
vt 0.666667 0.000000
vt 0.625000 0.000000
vt 0.541667 0.250000
vt 0.541667 0.000000
vt 0.541667 0.500000
vt 0.625000 0.750000
vt 0.541667 0.750000
vt 0.541667 1.000000
vt 0.125000 0.750000
vt 0.458333 0.750000
vt 0.375000 0.750000
vt 0.458333 1.000000
vt 0.458333 0.500000
vt 0.458333 0.250000
vt 0.458333 0.000000
vt 0.375000 0.000000
vt 0.625000 0.250000
vt 0.588932 0.637916
vt 0.566562 0.644484
vt 0.562362 0.637470
vt 0.595913 0.624003
vt 0.610263 0.634296
vt 0.593158 0.635684
vt 0.659277 0.664744
vt 0.660968 0.657777
vt 0.612821 0.585642
vt 0.668847 0.625310
vt 0.666449 0.635190
vt 0.504109 0.502565
vt 0.584306 0.573033
vt 0.579388 0.557730
vt 0.535848 0.530453
vt 0.553527 0.536139
vt 0.350404 0.346644
vt 0.583041 0.603133
vt 0.645535 0.604696
vt 0.666436 0.635243
vt 0.592005 0.617666
vt 0.564107 0.605261
vt 0.572027 0.599791
vt 0.562721 0.630851
vt 0.563876 0.609521
vt 0.634122 0.675566
vt 0.607814 0.598666
vt 0.765147 0.750000
vt 0.875000 0.750000
vt 0.515147 0.250000
vt 0.515147 0.000000
vt 0.662383 0.822471
vt 0.606702 0.481702
vt 0.662383 0.427529
vt 0.606702 0.768298
vt 0.515147 0.500000
vt 0.592825 0.967825
vt 0.590497 0.291931
vt 0.512724 0.269103
vt 0.515147 0.750000
vt 0.594143 0.462430
vt 0.512724 0.480897
vt 0.630391 0.401781
vt 0.621493 0.371066
vt 0.390207 0.480897
vt 0.390207 0.269103
vt 0.625000 0.359853
vt 0.601671 0.273329
vt 0.511477 0.471066
vt 0.587755 0.452738
vt 0.618689 0.394042
vt 0.615104 0.373832
vt 0.584724 0.301290
vt 0.398032 0.471066
vt 0.398032 0.278934
vt 0.511477 0.278934
vt 0.597917 0.250000
vt 0.597917 0.000000
vt 0.597917 0.500000
vt 0.597917 0.750000
vt 0.597917 1.000000
vt 0.412252 1.000000
vt 0.412252 0.500000
vt 0.412252 0.250000
vt 0.412252 0.000000
vt 0.531946 0.750000
vt 0.412252 0.750000
vt 0.531946 0.500000
vt 0.531946 0.250000
vt 0.531946 0.000000
vt 0.531946 1.000000
vt 0.178018 0.696982
vt 0.152581 0.750000
vt 0.178018 0.750000
vt 0.428018 0.946982
vt 0.402581 1.000000
vt 0.428018 1.000000
vt 0.428018 0.053018
vt 0.375000 0.027581
vt 0.375000 0.053018
vt 0.571982 0.946982
vt 0.625000 0.972419
vt 0.625000 0.946982
vt 0.821982 0.696982
vt 0.875000 0.722419
vt 0.875000 0.696982
vt 0.571982 0.053018
vt 0.597419 0.000000
vt 0.571982 0.000000
vt 0.321982 0.696982
vt 0.384194 0.750000
vt 0.375000 0.696982
vt 0.428018 0.696982
vt 0.428018 0.750000
vt 0.428018 0.803018
vt 0.348491 0.776509
vt 0.678018 0.696982
vt 0.625000 0.740806
vt 0.651509 0.776509
vt 0.571982 0.803018
vt 0.571982 0.750000
vt 0.571982 0.696982
vt 0.625000 0.696982
vt 0.125000 0.626295
vt 0.178018 0.626295
vt 0.428018 0.123705
vt 0.375000 0.123705
vt 0.428018 0.000000
vt 0.625000 0.626295
vt 0.678018 0.626295
vt 0.571982 0.626295
vt 0.375000 0.946982
vt 0.321982 0.626295
vt 0.821982 0.626295
vt 0.428018 0.626295
vt 0.375000 0.626295
vt 0.625000 0.123705
vt 0.625000 0.053018
vt 0.571982 0.123705
vt 0.875000 0.626295
vt 0.419706 0.419706
vt 0.250000 0.490000
vt 0.080294 0.419706
vt 0.080294 0.080294
vt 0.419706 0.080294
vt 1.000000 0.750000
vt 0.562500 1.000000
vt 0.937500 0.000000
vt 0.577647 0.643876
vt 0.610434 0.586461
vt 0.765147 0.500000
vt 0.625000 0.890147
vt 0.515147 1.000000
vt 0.125000 0.696982
vt 0.571982 1.000000
vt 0.821982 0.750000
s 0
usemtl Material.009
f 2/1/1 3/2/1 1/3/1
f 4/4/2 5/5/2 3/2/2
f 6/6/3 7/7/3 5/5/3
f 8/8/4 9/9/4 7/7/4
f 10/10/5 11/11/5 9/9/5
f 12/12/6 13/13/6 11/11/6
f 14/14/7 10/15/7 6/16/7
f 14/17/8 15/18/8 13/13/8
f 16/19/9 1/20/9 15/18/9
f 15/18/7 17/20/7 24/18/7
f 17/20/9 40/18/9 24/18/9
f 3/2/7 17/3/7 1/3/7
f 7/7/7 19/5/7 5/5/7
f 13/13/7 22/11/7 11/11/7
f 7/7/7 21/9/7 20/7/7
f 13/13/7 24/18/7 23/13/7
f 5/5/7 18/2/7 3/2/7
f 11/11/7 21/9/7 9/9/7
f 28/21/8 43/22/8 27/22/8
f 23/13/6 38/11/6 22/11/6
f 21/9/4 36/7/4 20/7/4
f 19/5/2 34/2/2 18/2/2
f 24/18/8 39/13/8 23/13/8
f 22/11/5 37/9/5 21/9/5
f 20/7/3 35/5/3 19/5/3
f 18/2/1 33/3/1 17/3/1
f 25/23/10 34/24/10 26/25/10
f 27/22/10 34/24/10 35/26/10
f 28/21/10 35/26/10 36/27/10
f 28/21/10 37/28/10 29/29/10
f 29/29/10 38/30/10 30/31/10
f 30/31/10 39/32/10 31/33/10
f 31/33/10 40/34/10 32/35/10
f 32/35/10 33/36/10 25/23/10
f 26/25/5 41/23/5 25/23/5
f 25/23/4 48/35/4 32/35/4
f 31/33/2 46/31/2 30/31/2
f 29/29/9 44/21/9 28/21/9
f 27/22/6 42/25/6 26/25/6
f 32/35/3 47/33/3 31/33/3
f 30/31/1 45/29/1 29/29/1
f 134/37/30 127/37/30 126/37/30
f 129/37/33 138/37/33 130/37/33
f 132/37/35 126/37/35 125/37/35
f 138/37/36 131/37/36 130/37/36
f 2/1/1 4/4/1 3/2/1
f 4/4/2 6/6/2 5/5/2
f 6/6/3 8/8/3 7/7/3
f 8/8/4 10/10/4 9/9/4
f 10/10/5 12/12/5 11/11/5
f 12/12/6 14/17/6 13/13/6
f 6/16/7 4/248/7 2/249/7
f 2/249/7 16/250/7 14/14/7
f 14/14/7 12/251/7 10/15/7
f 10/15/7 8/252/7 6/16/7
f 6/16/7 2/249/7 14/14/7
f 14/17/8 16/19/8 15/18/8
f 16/19/9 2/66/9 1/20/9
f 15/18/7 1/20/7 17/20/7
f 17/20/9 33/20/9 40/18/9
f 3/2/7 18/2/7 17/3/7
f 7/7/7 20/7/7 19/5/7
f 13/13/7 23/13/7 22/11/7
f 7/7/7 9/9/7 21/9/7
f 13/13/7 15/18/7 24/18/7
f 5/5/7 19/5/7 18/2/7
f 11/11/7 22/11/7 21/9/7
f 28/21/8 44/21/8 43/22/8
f 23/13/6 39/13/6 38/11/6
f 21/9/4 37/9/4 36/7/4
f 19/5/2 35/5/2 34/2/2
f 24/18/8 40/18/8 39/13/8
f 22/11/5 38/11/5 37/9/5
f 20/7/3 36/7/3 35/5/3
f 18/2/1 34/2/1 33/3/1
f 25/23/10 33/36/10 34/24/10
f 27/22/10 26/25/10 34/24/10
f 28/21/10 27/22/10 35/26/10
f 28/21/10 36/27/10 37/28/10
f 29/29/10 37/28/10 38/30/10
f 30/31/10 38/30/10 39/32/10
f 31/33/10 39/32/10 40/34/10
f 32/35/10 40/34/10 33/36/10
f 26/25/5 42/25/5 41/23/5
f 25/23/4 41/23/4 48/35/4
f 31/33/2 47/33/2 46/31/2
f 29/29/9 45/29/9 44/21/9
f 27/22/6 43/22/6 42/25/6
f 32/35/3 48/35/3 47/33/3
f 30/31/1 46/31/1 45/29/1
f 134/37/30 135/37/30 127/37/30
f 129/37/33 137/37/33 138/37/33
f 132/37/35 134/37/35 126/37/35
f 138/37/36 139/37/36 131/37/36
usemtl Material.002
f 53/37/7 55/37/7 49/37/7
f 328/128/143 296/129/143 285/130/143
f 311/37/146 293/37/146 295/37/146
f 314/136/148 291/137/148 334/138/148
f 317/139/149 309/37/149 299/131/149
f 316/140/152 288/145/152 290/146/152
f 308/37/153 313/143/153 321/147/153
f 322/148/154 286/149/154 287/150/154
f 297/133/27 333/151/27 320/152/27
f 310/37/156 328/37/156 297/37/156
f 307/37/157 327/135/157 292/134/157
f 49/37/7 50/37/7 51/37/7
f 51/37/7 52/37/7 53/37/7
f 53/37/7 54/37/7 55/37/7
f 55/37/7 56/37/7 49/37/7
f 49/37/7 51/37/7 53/37/7
f 285/130/308 333/151/308 328/128/308
f 328/128/309 295/256/309 296/129/309
f 295/37/311 328/37/311 331/37/311
f 311/37/312 306/37/312 293/37/312
f 295/37/313 331/37/313 311/37/313
f 293/37/314 294/37/314 295/37/314
f 334/138/153 321/147/153 324/141/153
f 314/136/317 315/257/317 291/137/317
f 334/138/318 324/141/318 314/136/318
f 299/131/319 322/148/319 325/142/319
f 317/139/320 312/144/320 309/37/320
f 299/131/321 325/142/321 317/139/321
f 309/37/322 298/132/322 299/131/322
f 290/146/327 291/137/327 315/257/327
f 316/140/328 325/142/328 322/148/328
f 290/146/329 315/257/329 316/140/329
f 288/145/330 289/154/330 290/146/330
f 316/140/331 322/148/331 288/145/331
f 321/147/153 327/135/153 330/37/153
f 308/37/332 309/37/332 312/144/332
f 321/147/153 330/37/153 308/37/153
f 313/143/153 324/141/153 321/147/153
f 308/37/155 312/144/155 313/143/155
f 287/150/333 288/145/333 322/148/333
f 322/148/334 320/152/334 286/149/334
f 320/152/335 322/148/335 299/131/335
f 297/133/336 328/128/336 333/151/336
f 320/152/337 299/131/337 297/133/337
f 297/37/338 298/37/338 309/37/338
f 310/37/339 331/37/339 328/37/339
f 297/37/340 309/37/340 310/37/340
f 292/134/341 293/153/341 306/37/341
f 307/37/342 330/37/342 327/135/342
f 292/134/343 306/37/343 307/37/343
usemtl Material.004
f 69/38/11 59/39/11 62/40/11
f 57/41/12 61/11/12 58/9/12
f 59/39/13 61/11/13 62/40/13
f 57/41/14 73/42/14 60/43/14
f 60/43/15 73/44/15 63/45/15
f 69/46/16 62/40/16 65/47/16
f 60/43/17 64/13/17 61/11/17
f 61/11/18 65/47/18 62/40/18
f 64/13/19 68/48/19 65/47/19
f 63/45/20 73/49/20 66/50/20
f 69/51/21 65/47/21 68/48/21
f 63/45/22 67/18/22 64/13/22
f 67/18/23 72/52/23 68/48/23
f 66/50/24 73/53/24 70/54/24
f 69/55/25 68/48/25 72/52/25
f 66/50/26 71/20/26 67/18/26
f 57/41/27 59/39/27 72/56/27
f 78/37/28 80/37/28 74/37/28
f 88/37/27 86/37/27 84/37/27
f 78/37/29 87/37/29 79/37/29
f 83/37/31 75/37/31 74/37/31
f 89/37/32 74/37/32 81/37/32
f 85/37/34 78/37/34 77/37/34
f 102/38/37 92/39/37 95/40/37
f 90/41/38 94/11/38 91/9/38
f 92/39/39 94/11/39 95/40/39
f 90/41/40 106/42/40 93/43/40
f 93/43/41 106/44/41 96/45/41
f 102/46/42 95/40/42 98/47/42
f 94/11/43 96/45/43 97/13/43
f 94/11/44 98/47/44 95/40/44
f 98/47/45 100/18/45 101/48/45
f 96/45/46 106/49/46 99/50/46
f 102/51/47 98/47/47 101/48/47
f 96/45/48 100/18/48 97/13/48
f 100/18/49 105/52/49 101/48/49
f 99/50/50 106/53/50 103/54/50
f 102/55/51 101/48/51 105/52/51
f 100/18/52 103/54/52 104/20/52
f 90/41/28 92/39/28 105/56/28
f 254/112/119 263/113/119 262/114/119
f 263/113/120 260/7/120 265/115/120
f 265/115/121 258/116/121 267/117/121
f 258/116/122 262/118/122 267/117/122
f 259/11/123 253/119/123 255/18/123
f 256/2/124 258/116/124 260/7/124
f 268/120/125 253/12/125 257/121/125
f 268/120/7 262/118/7 261/122/7
f 259/11/126 268/120/126 257/121/126
f 265/115/127 268/120/127 266/123/127
f 255/40/128 266/123/128 259/11/128
f 263/113/10 266/123/10 264/124/10
f 261/125/129 255/40/129 253/126/129
f 262/114/130 264/124/130 261/125/130
f 279/113/131 270/112/131 278/114/131
f 279/113/132 276/7/132 272/127/132
f 281/115/133 274/116/133 276/7/133
f 278/118/134 274/116/134 283/117/134
f 269/119/135 275/11/135 271/18/135
f 274/116/136 272/2/136 276/7/136
f 269/12/137 284/120/137 273/121/137
f 284/120/7 278/118/7 283/117/7
f 275/11/138 284/120/138 282/123/138
f 284/120/139 281/115/139 282/123/139
f 271/40/140 282/123/140 280/124/140
f 282/123/10 279/113/10 280/124/10
f 271/40/141 277/125/141 269/126/141
f 280/124/142 278/114/142 277/125/142
f 575/199/212 579/200/212 578/201/212
f 576/202/213 579/203/213 580/204/213
f 577/205/214 579/206/214 581/207/214
f 582/208/215 586/209/215 585/210/215
f 583/211/216 586/212/216 587/213/216
f 584/214/217 586/215/217 588/216/217
f 589/217/218 593/218/218 592/219/218
f 590/220/219 593/218/219 594/221/219
f 591/222/220 593/218/220 595/223/220
f 596/224/221 600/225/221 599/226/221
f 597/227/222 600/225/222 601/228/222
f 598/229/223 600/225/223 602/230/223
f 604/231/224 575/199/224 603/232/224
f 605/233/225 581/207/225 604/234/225
f 580/204/226 582/208/226 576/202/226
f 577/205/227 588/216/227 580/235/227
f 613/236/228 596/224/228 612/237/228
f 614/238/229 602/230/229 613/236/229
f 601/228/230 591/222/230 597/227/230
f 601/228/231 590/220/231 594/221/231
f 578/201/232 589/217/232 575/199/232
f 576/202/233 595/223/233 578/239/233
f 599/226/234 583/211/234 596/224/234
f 597/227/235 585/210/235 599/226/235
f 575/199/27 609/240/27 603/232/27
f 576/202/10 597/227/10 591/222/10
f 596/224/28 606/241/28 612/237/28
f 590/220/167 614/238/167 611/242/167
f 592/219/236 611/242/236 610/243/236
f 592/219/237 609/240/237 589/217/237
f 584/214/238 607/244/238 587/245/238
f 587/213/239 606/241/239 583/211/239
f 577/205/169 608/246/169 584/214/169
f 607/247/7 603/232/7 614/238/7
f 57/41/12 60/43/12 61/11/12
f 59/39/13 58/9/13 61/11/13
f 60/43/17 63/45/17 64/13/17
f 61/11/18 64/13/18 65/47/18
f 64/13/19 67/18/19 68/48/19
f 63/45/22 66/50/22 67/18/22
f 67/18/23 71/20/23 72/52/23
f 66/50/26 70/54/26 71/20/26
f 72/56/27 71/3/27 70/253/27
f 70/253/27 73/254/27 57/41/27
f 57/41/27 58/9/27 59/39/27
f 59/39/27 69/255/27 72/56/27
f 72/56/27 70/253/27 57/41/27
f 74/37/28 75/37/28 76/37/28
f 76/37/28 77/37/28 78/37/28
f 78/37/28 79/37/28 80/37/28
f 80/37/28 81/37/28 74/37/28
f 74/37/28 76/37/28 78/37/28
f 84/37/27 82/37/27 83/37/27
f 83/37/27 89/37/27 88/37/27
f 88/37/27 87/37/27 86/37/27
f 86/37/27 85/37/27 84/37/27
f 84/37/27 83/37/27 88/37/27
f 78/37/29 86/37/29 87/37/29
f 83/37/31 82/37/31 75/37/31
f 89/37/32 83/37/32 74/37/32
f 85/37/34 86/37/34 78/37/34
f 90/41/38 93/43/38 94/11/38
f 92/39/39 91/9/39 94/11/39
f 94/11/43 93/43/43 96/45/43
f 94/11/44 97/13/44 98/47/44
f 98/47/45 97/13/45 100/18/45
f 96/45/48 99/50/48 100/18/48
f 100/18/49 104/20/49 105/52/49
f 100/18/52 99/50/52 103/54/52
f 105/56/28 104/3/28 103/253/28
f 103/253/28 106/254/28 90/41/28
f 90/41/28 91/9/28 92/39/28
f 92/39/28 102/255/28 105/56/28
f 105/56/28 103/253/28 90/41/28
f 254/112/119 256/127/119 263/113/119
f 263/113/304 256/127/304 260/7/304
f 265/115/121 260/7/121 258/116/121
f 258/116/305 254/8/305 262/118/305
f 259/11/123 257/121/123 253/119/123
f 256/2/124 254/156/124 258/116/124
f 268/120/125 261/122/125 253/12/125
f 268/120/7 267/117/7 262/118/7
f 259/11/126 266/123/126 268/120/126
f 265/115/127 267/117/127 268/120/127
f 255/40/128 264/124/128 266/123/128
f 263/113/10 265/115/10 266/123/10
f 261/125/129 264/124/129 255/40/129
f 262/114/130 263/113/130 264/124/130
f 279/113/131 272/127/131 270/112/131
f 279/113/306 281/115/306 276/7/306
f 281/115/133 283/117/133 274/116/133
f 278/118/307 270/8/307 274/116/307
f 269/119/135 273/121/135 275/11/135
f 274/116/136 270/156/136 272/2/136
f 269/12/137 277/122/137 284/120/137
f 284/120/7 277/122/7 278/118/7
f 275/11/138 273/121/138 284/120/138
f 284/120/139 283/117/139 281/115/139
f 271/40/140 275/11/140 282/123/140
f 282/123/10 281/115/10 279/113/10
f 271/40/141 280/124/141 277/125/141
f 280/124/142 279/113/142 278/114/142
f 575/199/370 581/261/370 579/200/370
f 576/202/371 578/239/371 579/203/371
f 577/205/372 580/235/372 579/206/372
f 582/208/373 588/262/373 586/209/373
f 583/211/374 585/263/374 586/212/374
f 584/214/375 587/245/375 586/215/375
f 589/217/376 595/223/376 593/218/376
f 590/220/377 592/219/377 593/218/377
f 591/222/378 594/221/378 593/218/378
f 596/224/379 602/230/379 600/225/379
f 597/227/380 599/226/380 600/225/380
f 598/229/381 601/228/381 600/225/381
f 604/231/224 581/261/224 575/199/224
f 605/233/225 577/205/225 581/207/225
f 580/204/226 588/262/226 582/208/226
f 577/205/227 584/214/227 588/216/227
f 613/236/228 602/230/228 596/224/228
f 614/238/229 598/229/229 602/230/229
f 601/228/230 594/221/230 591/222/230
f 601/228/231 598/229/231 590/220/231
f 578/201/232 595/223/232 589/217/232
f 576/202/233 591/222/233 595/223/233
f 599/226/234 585/263/234 583/211/234
f 597/227/235 582/208/235 585/210/235
f 575/199/27 589/217/27 609/240/27
f 576/202/10 582/208/10 597/227/10
f 596/224/28 583/211/28 606/241/28
f 590/220/167 598/229/167 614/238/167
f 592/219/236 590/220/236 611/242/236
f 592/219/237 610/243/237 609/240/237
f 584/214/238 608/246/238 607/244/238
f 587/213/239 607/247/239 606/241/239
f 577/205/169 605/233/169 608/246/169
f 614/238/7 613/236/7 612/237/7
f 612/237/7 606/241/7 607/247/7
f 607/247/7 608/246/7 605/233/7
f 605/233/7 604/234/7 603/232/7
f 603/232/7 609/240/7 610/243/7
f 610/243/7 611/242/7 614/238/7
f 614/238/7 612/237/7 607/247/7
f 607/247/7 605/233/7 603/232/7
f 603/232/7 610/243/7 614/238/7
usemtl Material.006
f 84/37/30 77/37/30 76/37/30
f 79/37/33 88/37/33 80/37/33
f 82/37/35 76/37/35 75/37/35
f 88/37/36 81/37/36 80/37/36
f 161/57/53 163/58/53 162/59/53
f 160/60/53 163/58/53 161/57/53
f 160/60/53 164/61/53 163/58/53
f 159/62/53 164/61/53 160/60/53
f 159/62/53 157/37/53 164/61/53
f 158/63/53 157/37/53 159/62/53
f 172/64/54 173/65/54 165/66/54
f 166/67/55 173/68/55 174/69/55
f 167/52/56 174/69/56 175/70/56
f 168/71/57 175/70/57 176/72/57
f 169/20/58 176/72/58 177/73/58
f 169/20/59 178/74/59 170/75/59
f 170/75/60 179/76/60 171/77/60
f 171/77/61 180/78/61 172/64/61
f 180/79/62 181/10/62 173/80/62
f 173/81/63 182/82/63 174/83/63
f 174/83/64 183/39/64 175/84/64
f 176/85/65 183/39/65 184/86/65
f 177/87/66 184/86/66 185/9/66
f 178/88/67 185/9/67 186/89/67
f 179/90/68 186/89/68 187/91/68
f 180/79/69 187/91/69 188/92/69
f 188/92/70 189/93/70 181/10/70
f 181/94/71 190/95/71 182/82/71
f 182/82/72 191/96/72 183/39/72
f 184/86/73 191/96/73 192/97/73
f 185/9/74 192/97/74 193/98/74
f 186/89/75 193/98/75 194/99/75
f 187/91/76 194/99/76 195/100/76
f 187/91/77 196/101/77 188/92/77
f 189/93/78 204/102/78 197/103/78
f 190/95/79 197/104/79 198/105/79
f 191/96/80 198/105/80 199/106/80
f 191/96/81 200/107/81 192/97/81
f 192/97/82 201/108/82 193/98/82
f 193/98/83 202/109/83 194/99/83
f 194/99/84 203/110/84 195/100/84
f 196/101/85 203/110/85 204/102/85
f 84/37/30 85/37/30 77/37/30
f 79/37/33 87/37/33 88/37/33
f 82/37/35 84/37/35 76/37/35
f 88/37/36 89/37/36 81/37/36
f 172/64/240 180/78/240 173/65/240
f 166/67/241 165/37/241 173/68/241
f 167/52/242 166/67/242 174/69/242
f 168/71/243 167/52/243 175/70/243
f 169/20/244 168/71/244 176/72/244
f 169/20/245 177/73/245 178/74/245
f 170/75/246 178/74/246 179/76/246
f 171/77/247 179/76/247 180/78/247
f 180/79/248 188/92/248 181/10/248
f 173/81/249 181/94/249 182/82/249
f 174/83/250 182/82/250 183/39/250
f 176/85/251 175/84/251 183/39/251
f 177/87/252 176/85/252 184/86/252
f 178/88/253 177/87/253 185/9/253
f 179/90/254 178/88/254 186/89/254
f 180/79/255 179/90/255 187/91/255
f 188/92/256 196/101/256 189/93/256
f 181/94/257 189/111/257 190/95/257
f 182/82/258 190/95/258 191/96/258
f 184/86/259 183/39/259 191/96/259
f 185/9/260 184/86/260 192/97/260
f 186/89/261 185/9/261 193/98/261
f 187/91/262 186/89/262 194/99/262
f 187/91/263 195/100/263 196/101/263
f 189/93/264 196/101/264 204/102/264
f 190/95/265 189/111/265 197/104/265
f 191/96/266 190/95/266 198/105/266
f 191/96/267 199/106/267 200/107/267
f 192/97/268 200/107/268 201/108/268
f 193/98/269 201/108/269 202/109/269
f 194/99/270 202/109/270 203/110/270
f 196/101/271 195/100/271 203/110/271
usemtl Material.007
f 119/38/11 109/39/11 112/40/11
f 107/41/12 111/11/12 108/9/12
f 108/9/13 112/40/13 109/39/13
f 107/41/14 123/42/14 110/43/14
f 110/43/15 123/44/15 113/45/15
f 119/46/16 112/40/16 115/47/16
f 110/43/17 114/13/17 111/11/17
f 111/11/18 115/47/18 112/40/18
f 114/13/19 118/48/19 115/47/19
f 113/45/20 123/49/20 116/50/20
f 119/51/21 115/47/21 118/48/21
f 113/45/22 117/18/22 114/13/22
f 117/18/23 122/52/23 118/48/23
f 116/50/24 123/53/24 120/54/24
f 119/55/25 118/48/25 122/52/25
f 117/18/26 120/54/26 121/20/26
f 107/41/27 109/39/27 122/56/27
f 128/37/28 130/37/28 124/37/28
f 138/37/27 136/37/27 134/37/27
f 136/37/29 129/37/29 128/37/29
f 133/37/31 125/37/31 124/37/31
f 139/37/32 124/37/32 131/37/32
f 135/37/34 128/37/34 127/37/34
f 152/38/37 142/39/37 145/40/37
f 140/41/38 144/11/38 141/9/38
f 141/9/39 145/40/39 142/39/39
f 140/41/40 156/42/40 143/43/40
f 143/43/41 156/44/41 146/45/41
f 152/46/42 145/40/42 148/47/42
f 143/43/43 147/13/43 144/11/43
f 144/11/44 148/47/44 145/40/44
f 148/47/45 150/18/45 151/48/45
f 146/45/46 156/49/46 149/50/46
f 152/51/47 148/47/47 151/48/47
f 146/45/48 150/18/48 147/13/48
f 150/18/49 155/52/49 151/48/49
f 149/50/50 156/53/50 153/54/50
f 152/55/51 151/48/51 155/52/51
f 150/18/52 153/54/52 154/20/52
f 140/41/28 142/39/28 155/56/28
f 107/41/12 110/43/12 111/11/12
f 108/9/13 111/11/13 112/40/13
f 110/43/17 113/45/17 114/13/17
f 111/11/18 114/13/18 115/47/18
f 114/13/19 117/18/19 118/48/19
f 113/45/22 116/50/22 117/18/22
f 117/18/23 121/20/23 122/52/23
f 117/18/26 116/50/26 120/54/26
f 122/56/27 121/3/27 120/253/27
f 120/253/27 123/254/27 107/41/27
f 107/41/27 108/9/27 109/39/27
f 109/39/27 119/255/27 122/56/27
f 122/56/27 120/253/27 107/41/27
f 124/37/28 125/37/28 126/37/28
f 126/37/28 127/37/28 128/37/28
f 128/37/28 129/37/28 130/37/28
f 130/37/28 131/37/28 124/37/28
f 124/37/28 126/37/28 128/37/28
f 134/37/27 132/37/27 133/37/27
f 133/37/27 139/37/27 138/37/27
f 138/37/27 137/37/27 136/37/27
f 136/37/27 135/37/27 134/37/27
f 134/37/27 133/37/27 138/37/27
f 136/37/29 137/37/29 129/37/29
f 133/37/31 132/37/31 125/37/31
f 139/37/32 133/37/32 124/37/32
f 135/37/34 136/37/34 128/37/34
f 140/41/38 143/43/38 144/11/38
f 141/9/39 144/11/39 145/40/39
f 143/43/43 146/45/43 147/13/43
f 144/11/44 147/13/44 148/47/44
f 148/47/45 147/13/45 150/18/45
f 146/45/48 149/50/48 150/18/48
f 150/18/49 154/20/49 155/52/49
f 150/18/52 149/50/52 153/54/52
f 155/56/28 154/3/28 153/253/28
f 153/253/28 156/254/28 140/41/28
f 140/41/28 141/9/28 142/39/28
f 142/39/28 152/255/28 155/56/28
f 155/56/28 153/253/28 140/41/28
usemtl Material.005
f 209/57/86 210/59/86 211/58/86
f 208/60/86 209/57/86 211/58/86
f 208/60/86 211/58/86 212/61/86
f 207/62/86 208/60/86 212/61/86
f 207/62/86 212/61/86 205/37/86
f 206/63/86 207/62/86 205/37/86
f 221/65/87 220/64/87 213/66/87
f 214/67/88 221/68/88 213/37/88
f 215/52/89 222/69/89 214/67/89
f 216/71/90 223/70/90 215/52/90
f 217/20/91 224/72/91 216/71/91
f 226/74/92 217/20/92 218/75/92
f 227/76/93 218/75/93 219/77/93
f 228/78/94 219/77/94 220/64/94
f 229/10/95 228/79/95 221/80/95
f 230/82/96 221/81/96 222/83/96
f 231/39/97 222/83/97 223/84/97
f 224/85/98 231/39/98 223/84/98
f 225/87/99 232/86/99 224/85/99
f 226/88/100 233/9/100 225/87/100
f 227/90/101 234/89/101 226/88/101
f 228/79/102 235/91/102 227/90/102
f 237/93/103 236/92/103 229/10/103
f 238/95/104 229/94/104 230/82/104
f 239/96/105 230/82/105 231/39/105
f 232/86/106 239/96/106 231/39/106
f 233/9/107 240/97/107 232/86/107
f 234/89/108 241/98/108 233/9/108
f 235/91/109 242/99/109 234/89/109
f 244/101/110 235/91/110 236/92/110
f 237/93/111 252/102/111 244/101/111
f 238/95/112 245/104/112 237/111/112
f 239/96/113 246/105/113 238/95/113
f 248/107/114 239/96/114 240/97/114
f 249/108/115 240/97/115 241/98/115
f 250/109/116 241/98/116 242/99/116
f 251/110/117 242/99/117 243/100/117
f 244/101/118 251/110/118 243/100/118
f 221/65/272 228/78/272 220/64/272
f 214/67/273 222/69/273 221/68/273
f 215/52/274 223/70/274 222/69/274
f 216/71/275 224/72/275 223/70/275
f 217/20/276 225/73/276 224/72/276
f 226/74/277 225/73/277 217/20/277
f 227/76/278 226/74/278 218/75/278
f 228/78/279 227/76/279 219/77/279
f 229/10/280 236/92/280 228/79/280
f 230/82/281 229/94/281 221/81/281
f 231/39/282 230/82/282 222/83/282
f 224/85/283 232/86/283 231/39/283
f 225/87/284 233/9/284 232/86/284
f 226/88/285 234/89/285 233/9/285
f 227/90/286 235/91/286 234/89/286
f 228/79/287 236/92/287 235/91/287
f 237/93/288 244/101/288 236/92/288
f 238/95/289 237/111/289 229/94/289
f 239/96/290 238/95/290 230/82/290
f 232/86/291 240/97/291 239/96/291
f 233/9/292 241/98/292 240/97/292
f 234/89/293 242/99/293 241/98/293
f 235/91/294 243/100/294 242/99/294
f 244/101/295 243/100/295 235/91/295
f 237/93/296 245/103/296 252/102/296
f 238/95/297 246/105/297 245/104/297
f 239/96/298 247/106/298 246/105/298
f 248/107/299 247/106/299 239/96/299
f 249/108/300 248/107/300 240/97/300
f 250/109/301 249/108/301 241/98/301
f 251/110/302 250/109/302 242/99/302
f 244/101/303 252/102/303 251/110/303
usemtl Material.010
f 299/131/144 298/132/144 297/133/144
f 307/37/147 311/37/147 331/37/147
f 316/140/150 314/136/150 324/141/150
f 325/142/151 313/143/151 312/144/151
f 330/37/155 310/37/155 309/37/155
f 331/37/315 330/37/315 307/37/315
f 307/37/316 306/37/316 311/37/316
f 324/141/323 325/142/323 316/140/323
f 316/140/324 315/257/324 314/136/324
f 312/144/325 317/139/325 325/142/325
f 325/142/326 324/141/326 313/143/326
f 309/37/155 308/37/155 330/37/155
f 330/37/155 331/37/155 310/37/155
usemtl Material.008
f 351/11/28 335/119/28 352/18/28
f 339/155/9 354/2/9 341/156/9
f 341/112/8 355/157/8 340/158/8
f 346/159/1 356/160/1 357/161/1
f 347/162/2 358/163/2 356/160/2
f 346/159/7 341/164/7 335/12/7
f 340/158/167 352/40/167 335/126/167
f 357/161/27 339/155/27 346/159/27
f 344/165/168 360/166/168 342/166/168
f 351/11/169 345/167/169 337/121/169
f 350/168/170 359/169/170 361/168/170
f 348/170/27 369/171/27 343/171/27
f 338/172/171 352/40/171 336/173/171
f 344/165/172 353/174/172 343/171/172
f 344/165/173 355/157/173 354/175/173
f 350/168/174 357/161/174 356/160/174
f 350/168/175 358/163/175 349/169/175
f 336/173/176 355/157/176 342/166/176
f 348/170/177 353/174/177 357/161/177
f 338/172/171 358/163/171 351/11/171
f 374/176/178 377/177/178 372/177/178
f 366/178/28 381/179/28 365/179/28
f 370/180/179 381/179/179 378/180/179
f 336/173/28 367/172/28 338/172/28
f 349/169/169 367/172/169 359/169/169
f 342/166/167 368/173/167 336/173/167
f 348/170/180 361/168/180 373/170/180
f 343/171/181 362/165/181 344/165/181
f 363/181/182 368/173/182 364/182/182
f 370/180/183 369/171/183 365/179/183
f 370/180/184 360/166/184 362/165/184
f 372/177/185 373/170/185 361/168/185
f 372/177/186 359/169/186 374/176/186
f 364/182/187 360/166/187 371/183/187
f 365/179/188 373/170/188 366/178/188
f 363/181/182 359/169/182 367/172/182
f 376/183/189 379/181/189 380/182/189
f 376/183/190 377/177/190 375/176/190
f 378/180/191 382/178/191 377/177/191
f 371/183/192 378/180/192 376/183/192
f 364/182/27 379/181/27 363/181/27
f 363/181/167 375/176/167 374/176/167
f 364/182/169 376/183/169 380/182/169
f 372/177/193 382/178/193 366/178/193
f 351/11/28 337/121/28 335/119/28
f 339/155/9 353/258/9 354/2/9
f 341/112/8 354/175/8 355/157/8
f 346/159/1 347/162/1 356/160/1
f 347/162/2 345/167/2 358/163/2
f 335/12/7 337/121/7 345/167/7
f 345/167/7 347/162/7 346/159/7
f 346/159/7 339/259/7 341/164/7
f 341/164/7 340/260/7 335/12/7
f 335/12/7 345/167/7 346/159/7
f 340/158/167 355/157/167 352/40/167
f 357/161/27 353/258/27 339/155/27
f 344/165/168 362/165/168 360/166/168
f 351/11/169 358/163/169 345/167/169
f 350/168/170 349/169/170 359/169/170
f 348/170/27 373/170/27 369/171/27
f 338/172/171 351/11/171 352/40/171
f 344/165/360 354/175/360 353/174/360
f 344/165/361 342/166/361 355/157/361
f 350/168/362 348/170/362 357/161/362
f 350/168/363 356/160/363 358/163/363
f 336/173/171 352/40/171 355/157/171
f 348/170/177 343/171/177 353/174/177
f 338/172/364 349/169/364 358/163/364
f 374/176/178 375/176/178 377/177/178
f 366/178/28 382/178/28 381/179/28
f 370/180/179 365/179/179 381/179/179
f 336/173/28 368/173/28 367/172/28
f 349/169/169 338/172/169 367/172/169
f 342/166/167 360/166/167 368/173/167
f 348/170/180 350/168/180 361/168/180
f 343/171/181 369/171/181 362/165/181
f 363/181/182 367/172/182 368/173/182
f 370/180/365 362/165/365 369/171/365
f 370/180/366 371/183/366 360/166/366
f 372/177/367 366/178/367 373/170/367
f 372/177/368 361/168/368 359/169/368
f 364/182/182 368/173/182 360/166/182
f 365/179/188 369/171/188 373/170/188
f 363/181/369 374/176/369 359/169/369
f 376/183/189 375/176/189 379/181/189
f 376/183/190 378/180/190 377/177/190
f 378/180/191 381/179/191 382/178/191
f 371/183/192 370/180/192 378/180/192
f 364/182/27 380/182/27 379/181/27
f 363/181/167 379/181/167 375/176/167
f 364/182/169 371/183/169 376/183/169
f 372/177/193 377/177/193 382/178/193
usemtl Material.013
f 329/37/145 292/134/145 327/135/145
f 285/130/158 304/37/158 332/37/158
f 323/37/159 305/37/159 287/150/159
f 333/151/160 318/37/160 323/37/160
f 326/37/161 291/137/161 302/37/161
f 319/37/162 327/135/162 334/138/162
f 296/129/163 294/37/163 301/37/163
f 303/37/164 293/153/164 292/134/164
f 290/146/165 302/37/165 291/137/165
f 289/154/166 300/37/166 290/146/166
f 329/37/310 303/37/310 292/134/310
f 332/37/344 333/151/344 285/130/344
f 285/130/345 296/129/345 304/37/345
f 286/149/346 320/152/346 323/37/346
f 305/37/347 289/154/347 288/145/347
f 287/150/348 286/149/348 323/37/348
f 305/37/349 288/145/349 287/150/349
f 323/37/350 320/152/350 333/151/350
f 333/151/351 332/37/351 318/37/351
f 326/37/352 334/138/352 291/137/352
f 334/138/320 326/37/320 319/37/320
f 319/37/325 329/37/325 327/135/325
f 327/135/353 321/147/353 334/138/353
f 301/37/354 304/37/354 296/129/354
f 296/129/355 295/37/355 294/37/355
f 294/37/356 293/153/356 301/37/356
f 303/37/357 301/37/357 293/153/357
f 290/146/358 300/37/358 302/37/358
f 289/154/359 305/37/359 300/37/359
usemtl Material.012
f 384/112/194 400/184/194 399/185/194
f 400/184/10 390/7/10 401/186/10
f 390/7/195 402/187/195 401/186/195
f 388/116/7 399/188/7 402/187/7
f 389/11/28 383/119/28 385/18/28
f 384/112/196 404/127/196 386/127/196
f 387/121/7 391/189/7 383/12/7
f 393/190/197 387/121/197 389/11/197
f 392/191/10 389/11/10 385/40/10
f 391/192/198 385/40/198 383/126/198
f 398/193/7 391/189/7 394/194/7
f 397/195/169 394/194/169 393/190/169
f 396/196/10 393/190/10 392/191/10
f 395/197/167 392/191/167 391/192/167
f 402/187/7 395/198/7 398/193/7
f 401/186/199 398/193/199 397/195/199
f 396/196/10 401/186/10 397/195/10
f 399/185/200 396/196/200 395/197/200
f 404/2/201 406/116/201 405/7/201
f 384/8/7 406/116/7 403/8/7
f 386/127/10 405/7/10 390/7/10
f 390/7/202 406/116/202 388/116/202
f 424/184/203 408/112/203 423/185/203
f 424/184/10 414/7/10 410/127/10
f 426/187/204 414/7/204 425/186/204
f 423/188/7 412/116/7 426/187/7
f 407/119/28 413/11/28 409/18/28
f 428/127/205 408/112/205 410/127/205
f 411/121/7 415/189/7 418/194/7
f 411/121/206 417/190/206 413/11/206
f 413/11/10 416/191/10 409/40/10
f 407/126/207 416/191/207 415/192/207
f 415/189/7 422/193/7 418/194/7
f 418/194/167 421/195/167 417/190/167
f 417/190/10 420/196/10 416/191/10
f 416/191/169 419/197/169 415/192/169
f 419/198/7 426/187/7 422/193/7
f 422/193/208 425/186/208 421/195/208
f 420/196/10 425/186/10 424/184/10
f 420/196/209 423/185/209 419/197/209
f 430/116/210 428/2/210 429/7/210
f 408/8/7 430/116/7 412/116/7
f 429/7/10 410/127/10 414/7/10
f 430/116/211 414/7/211 412/116/211
f 448/184/203 432/112/203 447/185/203
f 448/184/10 438/7/10 434/127/10
f 450/187/204 438/7/204 449/186/204
f 447/188/7 436/116/7 450/187/7
f 431/119/28 437/11/28 433/18/28
f 452/127/205 432/112/205 434/127/205
f 435/121/7 439/189/7 442/194/7
f 435/121/206 441/190/206 437/11/206
f 437/11/10 440/191/10 433/40/10
f 431/126/207 440/191/207 439/192/207
f 439/189/7 446/193/7 442/194/7
f 441/190/167 446/193/167 445/195/167
f 441/190/10 444/196/10 440/191/10
f 439/192/169 444/196/169 443/197/169
f 443/198/7 450/187/7 446/193/7
f 446/193/208 449/186/208 445/195/208
f 444/196/10 449/186/10 448/184/10
f 444/196/209 447/185/209 443/197/209
f 454/116/210 452/2/210 453/7/210
f 432/8/7 454/116/7 436/116/7
f 453/7/10 434/127/10 438/7/10
f 454/116/211 438/7/211 436/116/211
f 456/112/194 472/184/194 471/185/194
f 472/184/10 462/7/10 473/186/10
f 462/7/195 474/187/195 473/186/195
f 460/116/7 471/188/7 474/187/7
f 461/11/28 455/119/28 457/18/28
f 456/112/196 476/127/196 458/127/196
f 459/121/7 463/189/7 455/12/7
f 465/190/197 459/121/197 461/11/197
f 464/191/10 461/11/10 457/40/10
f 455/126/198 464/191/198 457/40/198
f 470/193/7 463/189/7 466/194/7
f 465/190/169 470/193/169 466/194/169
f 468/196/10 465/190/10 464/191/10
f 463/192/167 468/196/167 464/191/167
f 474/187/7 467/198/7 470/193/7
f 473/186/199 470/193/199 469/195/199
f 468/196/10 473/186/10 469/195/10
f 471/185/200 468/196/200 467/197/200
f 476/2/201 478/116/201 477/7/201
f 456/8/7 478/116/7 475/8/7
f 458/127/10 477/7/10 462/7/10
f 462/7/202 478/116/202 460/116/202
f 480/112/194 496/184/194 495/185/194
f 496/184/10 486/7/10 497/186/10
f 486/7/195 498/187/195 497/186/195
f 484/116/7 495/188/7 498/187/7
f 485/11/28 479/119/28 481/18/28
f 480/112/196 500/127/196 482/127/196
f 483/121/7 487/189/7 479/12/7
f 489/190/197 483/121/197 485/11/197
f 488/191/10 485/11/10 481/40/10
f 479/126/198 488/191/198 481/40/198
f 494/193/7 487/189/7 490/194/7
f 489/190/169 494/193/169 490/194/169
f 492/196/10 489/190/10 488/191/10
f 491/197/167 488/191/167 487/192/167
f 498/187/7 491/198/7 494/193/7
f 497/186/199 494/193/199 493/195/199
f 492/196/10 497/186/10 493/195/10
f 495/185/200 492/196/200 491/197/200
f 500/2/201 502/116/201 501/7/201
f 480/8/7 502/116/7 499/8/7
f 482/127/10 501/7/10 486/7/10
f 486/7/202 502/116/202 484/116/202
f 520/184/203 504/112/203 519/185/203
f 520/184/10 510/7/10 506/127/10
f 522/187/204 510/7/204 521/186/204
f 519/188/7 508/116/7 522/187/7
f 503/119/28 509/11/28 505/18/28
f 524/127/205 504/112/205 506/127/205
f 507/121/7 511/189/7 514/194/7
f 507/121/206 513/190/206 509/11/206
f 509/11/10 512/191/10 505/40/10
f 503/126/207 512/191/207 511/192/207
f 511/189/7 518/193/7 514/194/7
f 513/190/167 518/193/167 517/195/167
f 513/190/10 516/196/10 512/191/10
f 511/192/169 516/196/169 515/197/169
f 515/198/7 522/187/7 518/193/7
f 518/193/208 521/186/208 517/195/208
f 516/196/10 521/186/10 520/184/10
f 516/196/209 519/185/209 515/197/209
f 526/116/210 524/2/210 525/7/210
f 504/8/7 526/116/7 508/116/7
f 525/7/10 506/127/10 510/7/10
f 526/116/211 510/7/211 508/116/211
f 528/112/194 544/184/194 543/185/194
f 544/184/10 534/7/10 545/186/10
f 534/7/195 546/187/195 545/186/195
f 532/116/7 543/188/7 546/187/7
f 533/11/28 527/119/28 529/18/28
f 528/112/196 548/127/196 530/127/196
f 531/121/7 535/189/7 527/12/7
f 537/190/197 531/121/197 533/11/197
f 536/191/10 533/11/10 529/40/10
f 527/126/198 536/191/198 529/40/198
f 542/193/7 535/189/7 538/194/7
f 541/195/169 538/194/169 537/190/169
f 540/196/10 537/190/10 536/191/10
f 535/192/167 540/196/167 536/191/167
f 546/187/7 539/198/7 542/193/7
f 545/186/199 542/193/199 541/195/199
f 540/196/10 545/186/10 541/195/10
f 543/185/200 540/196/200 539/197/200
f 548/2/201 550/116/201 549/7/201
f 528/8/7 550/116/7 547/8/7
f 530/127/10 549/7/10 534/7/10
f 534/7/202 550/116/202 532/116/202
f 568/184/203 552/112/203 567/185/203
f 568/184/10 558/7/10 554/127/10
f 570/187/204 558/7/204 569/186/204
f 567/188/7 556/116/7 570/187/7
f 551/119/28 557/11/28 553/18/28
f 572/127/205 552/112/205 554/127/205
f 555/121/7 559/189/7 562/194/7
f 555/121/206 561/190/206 557/11/206
f 557/11/10 560/191/10 553/40/10
f 551/126/207 560/191/207 559/192/207
f 559/189/7 566/193/7 562/194/7
f 562/194/167 565/195/167 561/190/167
f 561/190/10 564/196/10 560/191/10
f 559/192/169 564/196/169 563/197/169
f 563/198/7 570/187/7 566/193/7
f 565/195/208 570/187/208 569/186/208
f 564/196/10 569/186/10 568/184/10
f 564/196/209 567/185/209 563/197/209
f 574/116/210 572/2/210 573/7/210
f 552/8/7 574/116/7 556/116/7
f 573/7/10 554/127/10 558/7/10
f 574/116/211 558/7/211 556/116/211
f 384/112/194 386/127/194 400/184/194
f 400/184/10 386/127/10 390/7/10
f 390/7/195 388/116/195 402/187/195
f 388/116/7 384/8/7 399/188/7
f 389/11/28 387/121/28 383/119/28
f 384/112/196 403/112/196 404/127/196
f 387/121/7 394/194/7 391/189/7
f 393/190/197 394/194/197 387/121/197
f 392/191/10 393/190/10 389/11/10
f 391/192/198 392/191/198 385/40/198
f 398/193/7 395/198/7 391/189/7
f 397/195/169 398/193/169 394/194/169
f 396/196/10 397/195/10 393/190/10
f 395/197/167 396/196/167 392/191/167
f 402/187/7 399/188/7 395/198/7
f 401/186/199 402/187/199 398/193/199
f 396/196/10 400/184/10 401/186/10
f 399/185/200 400/184/200 396/196/200
f 404/2/201 403/156/201 406/116/201
f 384/8/7 388/116/7 406/116/7
f 386/127/10 404/127/10 405/7/10
f 390/7/202 405/7/202 406/116/202
f 424/184/203 410/127/203 408/112/203
f 424/184/10 425/186/10 414/7/10
f 426/187/204 412/116/204 414/7/204
f 423/188/7 408/8/7 412/116/7
f 407/119/28 411/121/28 413/11/28
f 428/127/205 427/112/205 408/112/205
f 411/121/7 407/12/7 415/189/7
f 411/121/206 418/194/206 417/190/206
f 413/11/10 417/190/10 416/191/10
f 407/126/207 409/40/207 416/191/207
f 415/189/7 419/198/7 422/193/7
f 418/194/167 422/193/167 421/195/167
f 417/190/10 421/195/10 420/196/10
f 416/191/169 420/196/169 419/197/169
f 419/198/7 423/188/7 426/187/7
f 422/193/208 426/187/208 425/186/208
f 420/196/10 421/195/10 425/186/10
f 420/196/209 424/184/209 423/185/209
f 430/116/210 427/156/210 428/2/210
f 408/8/7 427/8/7 430/116/7
f 429/7/10 428/127/10 410/127/10
f 430/116/211 429/7/211 414/7/211
f 448/184/203 434/127/203 432/112/203
f 448/184/10 449/186/10 438/7/10
f 450/187/204 436/116/204 438/7/204
f 447/188/7 432/8/7 436/116/7
f 431/119/28 435/121/28 437/11/28
f 452/127/205 451/112/205 432/112/205
f 435/121/7 431/12/7 439/189/7
f 435/121/206 442/194/206 441/190/206
f 437/11/10 441/190/10 440/191/10
f 431/126/207 433/40/207 440/191/207
f 439/189/7 443/198/7 446/193/7
f 441/190/167 442/194/167 446/193/167
f 441/190/10 445/195/10 444/196/10
f 439/192/169 440/191/169 444/196/169
f 443/198/7 447/188/7 450/187/7
f 446/193/208 450/187/208 449/186/208
f 444/196/10 445/195/10 449/186/10
f 444/196/209 448/184/209 447/185/209
f 454/116/210 451/156/210 452/2/210
f 432/8/7 451/8/7 454/116/7
f 453/7/10 452/127/10 434/127/10
f 454/116/211 453/7/211 438/7/211
f 456/112/194 458/127/194 472/184/194
f 472/184/10 458/127/10 462/7/10
f 462/7/195 460/116/195 474/187/195
f 460/116/7 456/8/7 471/188/7
f 461/11/28 459/121/28 455/119/28
f 456/112/196 475/112/196 476/127/196
f 459/121/7 466/194/7 463/189/7
f 465/190/197 466/194/197 459/121/197
f 464/191/10 465/190/10 461/11/10
f 455/126/198 463/192/198 464/191/198
f 470/193/7 467/198/7 463/189/7
f 465/190/169 469/195/169 470/193/169
f 468/196/10 469/195/10 465/190/10
f 463/192/167 467/197/167 468/196/167
f 474/187/7 471/188/7 467/198/7
f 473/186/199 474/187/199 470/193/199
f 468/196/10 472/184/10 473/186/10
f 471/185/200 472/184/200 468/196/200
f 476/2/201 475/156/201 478/116/201
f 456/8/7 460/116/7 478/116/7
f 458/127/10 476/127/10 477/7/10
f 462/7/202 477/7/202 478/116/202
f 480/112/194 482/127/194 496/184/194
f 496/184/10 482/127/10 486/7/10
f 486/7/195 484/116/195 498/187/195
f 484/116/7 480/8/7 495/188/7
f 485/11/28 483/121/28 479/119/28
f 480/112/196 499/112/196 500/127/196
f 483/121/7 490/194/7 487/189/7
f 489/190/197 490/194/197 483/121/197
f 488/191/10 489/190/10 485/11/10
f 479/126/198 487/192/198 488/191/198
f 494/193/7 491/198/7 487/189/7
f 489/190/169 493/195/169 494/193/169
f 492/196/10 493/195/10 489/190/10
f 491/197/167 492/196/167 488/191/167
f 498/187/7 495/188/7 491/198/7
f 497/186/199 498/187/199 494/193/199
f 492/196/10 496/184/10 497/186/10
f 495/185/200 496/184/200 492/196/200
f 500/2/201 499/156/201 502/116/201
f 480/8/7 484/116/7 502/116/7
f 482/127/10 500/127/10 501/7/10
f 486/7/202 501/7/202 502/116/202
f 520/184/203 506/127/203 504/112/203
f 520/184/10 521/186/10 510/7/10
f 522/187/204 508/116/204 510/7/204
f 519/188/7 504/8/7 508/116/7
f 503/119/28 507/121/28 509/11/28
f 524/127/205 523/112/205 504/112/205
f 507/121/7 503/12/7 511/189/7
f 507/121/206 514/194/206 513/190/206
f 509/11/10 513/190/10 512/191/10
f 503/126/207 505/40/207 512/191/207
f 511/189/7 515/198/7 518/193/7
f 513/190/167 514/194/167 518/193/167
f 513/190/10 517/195/10 516/196/10
f 511/192/169 512/191/169 516/196/169
f 515/198/7 519/188/7 522/187/7
f 518/193/208 522/187/208 521/186/208
f 516/196/10 517/195/10 521/186/10
f 516/196/209 520/184/209 519/185/209
f 526/116/210 523/156/210 524/2/210
f 504/8/7 523/8/7 526/116/7
f 525/7/10 524/127/10 506/127/10
f 526/116/211 525/7/211 510/7/211
f 528/112/194 530/127/194 544/184/194
f 544/184/10 530/127/10 534/7/10
f 534/7/195 532/116/195 546/187/195
f 532/116/7 528/8/7 543/188/7
f 533/11/28 531/121/28 527/119/28
f 528/112/196 547/112/196 548/127/196
f 531/121/7 538/194/7 535/189/7
f 537/190/197 538/194/197 531/121/197
f 536/191/10 537/190/10 533/11/10
f 527/126/198 535/192/198 536/191/198
f 542/193/7 539/198/7 535/189/7
f 541/195/169 542/193/169 538/194/169
f 540/196/10 541/195/10 537/190/10
f 535/192/167 539/197/167 540/196/167
f 546/187/7 543/188/7 539/198/7
f 545/186/199 546/187/199 542/193/199
f 540/196/10 544/184/10 545/186/10
f 543/185/200 544/184/200 540/196/200
f 548/2/201 547/156/201 550/116/201
f 528/8/7 532/116/7 550/116/7
f 530/127/10 548/127/10 549/7/10
f 534/7/202 549/7/202 550/116/202
f 568/184/203 554/127/203 552/112/203
f 568/184/10 569/186/10 558/7/10
f 570/187/204 556/116/204 558/7/204
f 567/188/7 552/8/7 556/116/7
f 551/119/28 555/121/28 557/11/28
f 572/127/205 571/112/205 552/112/205
f 555/121/7 551/12/7 559/189/7
f 555/121/206 562/194/206 561/190/206
f 557/11/10 561/190/10 560/191/10
f 551/126/207 553/40/207 560/191/207
f 559/189/7 563/198/7 566/193/7
f 562/194/167 566/193/167 565/195/167
f 561/190/10 565/195/10 564/196/10
f 559/192/169 560/191/169 564/196/169
f 563/198/7 567/188/7 570/187/7
f 565/195/208 566/193/208 570/187/208
f 564/196/10 565/195/10 569/186/10
f 564/196/209 568/184/209 567/185/209
f 574/116/210 571/156/210 572/2/210
f 552/8/7 571/8/7 574/116/7
f 573/7/10 572/127/10 554/127/10
f 574/116/211 573/7/211 558/7/211
