# Blender 4.5.3 LTS
# www.blender.org
mtllib toxic.mtl
o Cylinder.002
v 0.056800 -0.112415 0.523604
v 0.056800 -0.112415 0.117516
v -0.035511 -0.111609 0.523604
v -0.035511 -0.111609 0.117516
v -0.100215 -0.045765 0.523604
v -0.100215 -0.045765 0.117516
v -0.099409 0.046546 0.523604
v -0.099409 0.046546 0.117516
v -0.033566 0.111250 0.523604
v -0.033566 0.111250 0.117516
v 0.058745 0.110444 0.523604
v 0.058745 0.110444 0.117516
v 0.123449 0.044601 0.523604
v 0.123449 0.044601 0.117516
v 0.122644 -0.047710 0.523604
v 0.122644 -0.047710 0.117516
v -0.149509 0.398219 -0.012041
v -0.384312 0.167480 -0.012041
v -0.387184 -0.161708 -0.012041
v -0.156445 -0.396511 -0.012041
v 0.172743 -0.399383 -0.012041
v 0.407546 -0.168644 -0.012041
v 0.410419 0.160544 -0.012041
v 0.179679 0.395347 -0.012041
v -0.149509 0.398219 0.121920
v -0.384312 0.167480 0.121920
v -0.387184 -0.161708 0.121920
v -0.156445 -0.396511 0.121920
v 0.172743 -0.399383 0.121920
v 0.407546 -0.168644 0.121920
v 0.410419 0.160544 0.121920
v 0.179679 0.395347 0.121920
v 0.049858 0.089507 0.650009
v 0.065698 0.126824 0.552139
v 0.049858 0.089507 0.454270
v 0.102360 0.036080 0.650009
v 0.139948 0.051267 0.552139
v 0.102360 0.036080 0.454270
v 0.101707 -0.038823 0.650009
v 0.139023 -0.054663 0.552139
v 0.101707 -0.038823 0.454270
v 0.048280 -0.091326 0.650009
v 0.063466 -0.128913 0.552139
v 0.048280 -0.091326 0.454270
v -0.026624 -0.090672 0.650009
v -0.042463 -0.127988 0.552139
v -0.026624 -0.090672 0.454270
v 0.011617 -0.000582 0.413731
v -0.079126 -0.037245 0.650009
v -0.116713 -0.052431 0.552139
v -0.079126 -0.037245 0.454270
v -0.078472 0.037658 0.650009
v -0.115789 0.053498 0.552139
v -0.078472 0.037658 0.454270
v 0.011617 -0.000582 0.690548
v -0.025045 0.090161 0.650009
v -0.040232 0.127748 0.552139
v -0.025045 0.090161 0.454270
vn -0.0087 -1.0000 -0.0000
vn -0.7133 -0.7009 -0.0000
vn -1.0000 0.0087 -0.0000
vn -0.7009 0.7133 -0.0000
vn 0.0087 1.0000 -0.0000
vn 0.7133 0.7009 -0.0000
vn -0.0000 -0.0000 -1.0000
vn 1.0000 -0.0087 -0.0000
vn 0.7009 -0.7133 -0.0000
vn -0.0000 -0.0000 1.0000
vn 0.0036 0.4091 -0.9125
vn 0.0082 0.9339 0.3574
vn 0.0082 0.9339 -0.3574
vn 0.0036 0.4091 0.9125
vn 0.6661 0.6546 -0.3574
vn 0.2918 0.2867 0.9125
vn 0.2918 0.2867 -0.9125
vn 0.6661 0.6546 0.3574
vn 0.9339 -0.0082 0.3574
vn 0.9339 -0.0082 -0.3574
vn 0.4091 -0.0036 0.9125
vn 0.4091 -0.0036 -0.9125
vn 0.2867 -0.2918 -0.9125
vn 0.6546 -0.6661 0.3574
vn 0.6546 -0.6661 -0.3574
vn 0.2867 -0.2918 0.9125
vn -0.0036 -0.4091 -0.9125
vn -0.0082 -0.9339 0.3574
vn -0.0082 -0.9339 -0.3574
vn -0.0036 -0.4091 0.9125
vn -0.2918 -0.2867 -0.9125
vn -0.6661 -0.6546 0.3574
vn -0.6661 -0.6546 -0.3574
vn -0.2918 -0.2867 0.9125
vn -0.4091 0.0036 -0.9125
vn -0.9339 0.0082 0.3574
vn -0.9339 0.0082 -0.3574
vn -0.4091 0.0036 0.9125
vn -0.2867 0.2918 0.9125
vn -0.2867 0.2918 -0.9125
vn -0.6546 0.6661 0.3574
vn -0.6546 0.6661 -0.3574
vt 1.000000 0.500000
vt 1.000000 1.000000
vt 0.875000 1.000000
vt 0.875000 0.500000
vt 0.750000 1.000000
vt 0.750000 0.500000
vt 0.625000 1.000000
vt 0.625000 0.500000
vt 0.500000 1.000000
vt 0.500000 0.500000
vt 0.375000 1.000000
vt 0.375000 0.500000
vt 0.250000 1.000000
vt 0.250000 0.500000
vt 0.419706 0.419706
vt 0.250000 0.490000
vt 0.080294 0.419706
vt 0.010000 0.250000
vt 0.080294 0.080294
vt 0.250000 0.010000
vt 0.419706 0.080294
vt 0.490000 0.250000
vt 0.125000 1.000000
vt 0.125000 0.500000
vt 0.000000 1.000000
vt 0.000000 0.500000
vt 0.750000 0.490000
vt 0.919706 0.419706
vt 0.990000 0.250000
vt 0.919706 0.080294
vt 0.750000 0.010000
vt 0.580294 0.080294
vt 0.510000 0.250000
vt 0.580294 0.419706
vt 0.000000 0.000000
vt 0.687500 0.000000
vt 0.625000 0.250000
vt 0.750000 0.250000
vt 0.625000 0.750000
vt 0.750000 0.750000
vt 0.687500 1.000000
vt 0.500000 0.250000
vt 0.500000 0.750000
vt 0.562500 1.000000
vt 0.562500 0.000000
vt 0.375000 0.750000
vt 0.375000 0.250000
vt 0.437500 1.000000
vt 0.437500 0.000000
vt 0.312500 0.000000
vt 0.250000 0.250000
vt 0.250000 0.750000
vt 0.312500 1.000000
vt 0.187500 0.000000
vt 0.125000 0.250000
vt 0.125000 0.750000
vt 0.187500 1.000000
vt 0.062500 0.000000
vt 0.000000 0.250000
vt 0.000000 0.750000
vt 0.062500 1.000000
vt 0.937500 0.000000
vt 0.875000 0.250000
vt 1.000000 0.250000
vt 0.875000 0.750000
vt 1.000000 0.750000
vt 0.937500 1.000000
vt 0.812500 1.000000
vt 0.812500 0.000000
s 0
usemtl Material
f 1/1/1 3/4/1 4/3/1 2/2/1
f 3/4/2 5/6/2 6/5/2 4/3/2
f 5/6/3 7/8/3 8/7/3 6/5/3
f 7/8/4 9/10/4 10/9/4 8/7/4
f 9/10/5 11/12/5 12/11/5 10/9/5
f 11/12/6 13/14/6 14/13/6 12/11/6
f 4/15/7 6/22/7 8/21/7 10/20/7 12/19/7 14/18/7 16/17/7 2/16/7
f 13/14/8 15/24/8 16/23/8 14/13/8
f 15/24/9 1/26/9 2/25/9 16/23/9
f 1/27/10 15/34/10 13/33/10 11/32/10 9/31/10 7/30/10 5/29/10 3/28/10
f 18/35/7 17/35/7 24/35/7 23/35/7 22/35/7 21/35/7 20/35/7 19/35/7
f 26/35/10 27/35/10 28/35/10 29/35/10 30/35/10 31/35/10 32/35/10 25/35/10
f 23/35/6 24/35/6 32/35/6 31/35/6
f 21/35/9 22/35/9 30/35/9 29/35/9
f 19/35/2 20/35/2 28/35/2 27/35/2
f 17/35/4 18/35/4 26/35/4 25/35/4
f 24/35/5 17/35/5 25/35/5 32/35/5
f 22/35/8 23/35/8 31/35/8 30/35/8
f 20/35/1 21/35/1 29/35/1 28/35/1
f 18/35/3 19/35/3 27/35/3 26/35/3
f 48/36/11 58/38/11 35/37/11
f 57/6/12 56/40/12 33/39/12 34/8/12
f 58/38/13 57/6/13 34/8/13 35/37/13
f 56/40/14 55/41/14 33/39/14
f 35/37/15 34/8/15 37/10/15 38/42/15
f 33/39/16 55/44/16 36/43/16
f 48/45/17 35/37/17 38/42/17
f 34/8/18 33/39/18 36/43/18 37/10/18
f 37/10/19 36/43/19 39/46/19 40/12/19
f 38/42/20 37/10/20 40/12/20 41/47/20
f 36/43/21 55/48/21 39/46/21
f 48/49/22 38/42/22 41/47/22
f 48/50/23 41/47/23 44/51/23
f 40/12/24 39/46/24 42/52/24 43/14/24
f 41/47/25 40/12/25 43/14/25 44/51/25
f 39/46/26 55/53/26 42/52/26
f 48/54/27 44/51/27 47/55/27
f 43/14/28 42/52/28 45/56/28 46/24/28
f 44/51/29 43/14/29 46/24/29 47/55/29
f 42/52/30 55/57/30 45/56/30
f 48/58/31 47/55/31 51/59/31
f 46/24/32 45/56/32 49/60/32 50/26/32
f 47/55/33 46/24/33 50/26/33 51/59/33
f 45/56/34 55/61/34 49/60/34
f 48/62/35 51/64/35 54/63/35
f 50/1/36 49/66/36 52/65/36 53/4/36
f 51/64/37 50/1/37 53/4/37 54/63/37
f 49/66/38 55/67/38 52/65/38
f 52/65/39 55/68/39 56/40/39
f 48/69/40 54/63/40 58/38/40
f 53/4/41 52/65/41 56/40/41 57/6/41
f 54/63/42 53/4/42 57/6/42 58/38/42
