# Blender 4.5.3 LTS
# www.blender.org
mtllib toxicMOV.mtl
o Cube.012
v 0.434891 -0.018990 0.076938
v 0.467524 -0.018990 0.044305
v 0.434891 -0.051623 0.044305
v 0.455422 -0.018990 0.064836
v 0.450547 -0.034646 0.059962
v 0.455422 -0.039521 0.044305
v 0.434891 -0.039521 0.064836
v 0.467524 -0.018990 -0.044305
v 0.434891 -0.018990 -0.076938
v 0.434891 -0.051623 -0.044305
v 0.455422 -0.018990 -0.064836
v 0.450547 -0.034646 -0.059962
v 0.434891 -0.039521 -0.064836
v 0.455422 -0.039521 -0.044305
v 0.434891 0.069621 0.076938
v 0.434891 0.102254 0.044305
v 0.467524 0.069621 0.044305
v 0.434891 0.090152 0.064836
v 0.450547 0.085277 0.059962
v 0.455422 0.090152 0.044305
v 0.455422 0.069621 0.064836
v 0.434891 0.069621 -0.076938
v 0.467524 0.069621 -0.044305
v 0.434891 0.102254 -0.044305
v 0.455422 0.069621 -0.064836
v 0.450547 0.085277 -0.059962
v 0.455422 0.090152 -0.044305
v 0.434891 0.090152 -0.064836
v 0.308675 -0.018990 0.076938
v 0.308675 -0.039521 0.064836
v 0.308675 -0.051623 0.044305
v 0.308675 -0.018990 -0.076938
v 0.308675 -0.039521 -0.064836
v 0.308675 -0.051623 -0.044305
v 0.308675 0.069621 0.076938
v 0.308675 0.090152 0.064836
v 0.308675 0.102254 0.044305
v 0.308675 0.069621 -0.076938
v 0.308675 0.090152 -0.064836
v 0.308675 0.102254 -0.044305
v -0.338671 0.286185 -0.276575
v 0.088323 0.245820 -0.244444
v -0.338671 -0.242055 -0.276575
v 0.088323 -0.201690 -0.244444
v -0.338671 0.054069 0.251664
v -0.338671 0.286185 0.019548
v -0.338671 0.218199 0.183679
v 0.285107 0.245820 0.014472
v 0.449076 0.043745 0.221118
v 0.398888 0.184793 0.162451
v -0.338671 -0.242055 0.019548
v -0.338671 -0.009939 0.251664
v -0.338671 -0.174070 0.183679
v 0.449076 0.000385 0.221118
v 0.285107 -0.201690 0.014472
v 0.398888 -0.140663 0.162451
v 0.063891 -0.242055 -0.276575
v 0.063891 0.286185 -0.276575
v 0.475463 0.054069 0.251664
v 0.416733 0.218199 0.183679
v 0.289055 0.286185 0.019548
v 0.416733 -0.174070 0.183679
v 0.475463 -0.009939 0.251664
v 0.289055 -0.242055 0.019548
v 0.405874 -0.201690 0.014472
v 0.405874 0.245820 0.014472
v 0.519655 -0.140663 0.162451
v 0.519655 0.184793 0.162451
v 0.221659 -0.180919 -0.227908
v 0.221659 0.225049 -0.227908
v 0.556342 0.038432 0.205335
v 0.556342 0.005698 0.205335
v 0.209090 -0.201690 -0.244444
v 0.209090 0.245820 -0.244444
v 0.569844 0.043745 0.221118
v 0.510527 0.167602 0.151481
v 0.403857 0.225049 0.011849
v 0.510527 -0.123472 0.151481
v 0.569844 0.000385 0.221118
v 0.403857 -0.180919 0.011849
v 0.384065 -0.180919 0.011849
v 0.384065 0.225049 0.011849
v 0.490735 -0.123472 0.151481
v 0.490735 0.167602 0.151481
v 0.201866 -0.180919 -0.227908
v 0.201866 0.225049 -0.227908
v 0.536549 0.038432 0.205335
v 0.536549 0.005698 0.205335
v -0.330984 -0.185200 -0.366788
v -0.330984 -0.009129 0.252842
v -0.058884 -0.185200 -0.366788
v -0.058884 -0.009129 0.252842
v -0.330984 -0.204239 -0.366788
v -0.330984 -0.022814 0.266079
v -0.058884 -0.204239 -0.366788
v -0.058884 -0.022814 0.266079
v -0.330984 -0.241951 -0.274946
v -0.058884 -0.241951 -0.274946
v -0.058884 -0.260990 -0.274946
v -0.330984 -0.260990 -0.274946
v -0.330984 -0.241951 0.020152
v -0.058884 -0.241951 0.020152
v -0.058884 -0.260990 0.020152
v -0.330984 -0.260990 0.020152
v -0.330984 -0.175343 0.183398
v -0.058884 -0.175343 0.183398
v -0.058884 -0.191107 0.194074
v -0.330984 -0.191107 0.194074
v -0.330984 0.021393 0.249944
v -0.058884 0.021393 0.249944
v -0.058884 0.021897 0.268977
v -0.330984 0.021897 0.268977
v -0.588936 -0.222094 -0.243925
v -0.483344 -0.265832 -0.243925
v -0.377752 -0.222094 -0.243925
v -0.588936 -0.191167 -0.318589
v -0.483344 -0.222094 -0.349516
v -0.377752 -0.191167 -0.318589
v -0.588936 -0.116503 -0.349516
v -0.483344 -0.116503 -0.393254
v -0.377752 -0.116503 -0.349516
v -0.588936 -0.041838 -0.318589
v -0.483344 -0.010911 -0.349516
v -0.377752 -0.041838 -0.318589
v -0.334015 -0.116503 -0.243925
v -0.588936 -0.010911 -0.243925
v -0.483344 0.032826 -0.243925
v -0.377752 -0.010911 -0.243925
v -0.632673 -0.116503 -0.243925
v -0.632673 -0.116503 -0.243925
v -0.588936 -0.010911 -0.243925
v -0.483344 0.032826 -0.243925
v -0.377752 -0.010911 -0.243925
v -0.334015 -0.116503 -0.243925
v -0.377752 -0.222094 -0.243925
v -0.483344 -0.265832 -0.243925
v -0.588936 -0.222094 -0.243925
v -0.588936 -0.010911 0.414241
v -0.632673 -0.116503 0.414241
v -0.483344 0.032826 0.414241
v -0.377752 -0.010911 0.414241
v -0.334015 -0.116503 0.414241
v -0.377752 -0.222094 0.414241
v -0.483344 -0.265832 0.414241
v -0.588936 -0.222094 0.414241
v -0.588936 -0.010911 0.414235
v -0.483344 0.032826 0.414235
v -0.377752 -0.010911 0.414235
v -0.588936 -0.041838 0.488900
v -0.483344 -0.010911 0.519827
v -0.377752 -0.041838 0.488900
v -0.588936 -0.116503 0.519827
v -0.483344 -0.116503 0.563564
v -0.377752 -0.116503 0.519827
v -0.588936 -0.191167 0.488900
v -0.483344 -0.222094 0.519827
v -0.377752 -0.191167 0.488900
v -0.334015 -0.116503 0.414235
v -0.588936 -0.222094 0.414235
v -0.483344 -0.265832 0.414235
v -0.377752 -0.222094 0.414235
v -0.632673 -0.116503 0.414235
v -0.588936 0.061546 -0.243925
v -0.483344 0.017809 -0.243925
v -0.377752 0.061546 -0.243925
v -0.588936 0.092473 -0.318589
v -0.483344 0.061546 -0.349516
v -0.377752 0.092473 -0.318589
v -0.588936 0.167138 -0.349516
v -0.483344 0.167138 -0.393254
v -0.377752 0.167138 -0.349516
v -0.588936 0.241802 -0.318589
v -0.483344 0.272729 -0.349516
v -0.377752 0.241802 -0.318589
v -0.334015 0.167138 -0.243925
v -0.588936 0.272729 -0.243925
v -0.483344 0.316467 -0.243925
v -0.377752 0.272729 -0.243925
v -0.632673 0.167138 -0.243925
v -0.632673 0.167138 -0.243925
v -0.588936 0.272729 -0.243925
v -0.483344 0.316467 -0.243925
v -0.377752 0.272729 -0.243925
v -0.334015 0.167138 -0.243925
v -0.377752 0.061546 -0.243925
v -0.483344 0.017809 -0.243925
v -0.588936 0.061546 -0.243925
v -0.588936 0.272729 0.414241
v -0.632673 0.167138 0.414241
v -0.483344 0.316467 0.414241
v -0.377752 0.272729 0.414241
v -0.334015 0.167138 0.414241
v -0.377752 0.061546 0.414241
v -0.483344 0.017809 0.414241
v -0.588936 0.061546 0.414241
v -0.588936 0.272729 0.414235
v -0.483344 0.316467 0.414235
v -0.377752 0.272729 0.414235
v -0.588936 0.241802 0.488900
v -0.483344 0.272729 0.519827
v -0.377752 0.241802 0.488900
v -0.588936 0.167138 0.519827
v -0.483344 0.167138 0.563564
v -0.377752 0.167138 0.519827
v -0.588936 0.092473 0.488900
v -0.483344 0.061546 0.519827
v -0.377752 0.092473 0.488900
v -0.334015 0.167138 0.414235
v -0.588936 0.061546 0.414235
v -0.483344 0.017809 0.414235
v -0.377752 0.061546 0.414235
v -0.632673 0.167138 0.414235
v -0.462181 0.227308 0.072165
v -0.492569 0.228565 0.084763
v -0.522958 0.229822 0.072165
v -0.535545 0.230343 0.041751
v -0.522958 0.229822 0.011337
v -0.492569 0.228565 -0.001261
v -0.462181 0.227308 0.011337
v -0.449594 0.226787 0.041751
v -0.462181 0.227308 0.072165
v -0.492569 0.228565 0.084763
v -0.522958 0.229822 0.072165
v -0.535545 0.230343 0.041751
v -0.522958 0.229822 0.011337
v -0.492569 0.228565 -0.001261
v -0.462181 0.227308 0.011337
v -0.449594 0.226787 0.041751
v -0.455177 0.345958 0.033760
v -0.479412 0.363165 0.040467
v -0.506007 0.370245 0.024559
v -0.519382 0.363051 -0.004647
v -0.511702 0.345797 -0.030041
v -0.487466 0.328590 -0.036749
v -0.460872 0.321510 -0.020840
v -0.447497 0.328704 0.008366
v -0.328759 0.379586 -0.023316
v -0.325439 0.411330 -0.031379
v -0.330168 0.429015 -0.058740
v -0.340175 0.422282 -0.089370
v -0.349599 0.395074 -0.105328
v -0.352919 0.363330 -0.097265
v -0.348190 0.345644 -0.069905
v -0.338183 0.352378 -0.039274
v -0.199385 0.283475 -0.073330
v -0.181695 0.308442 -0.085472
v -0.178287 0.322290 -0.115143
v -0.191157 0.316906 -0.144961
v -0.212766 0.295445 -0.157459
v -0.230455 0.270478 -0.145317
v -0.233863 0.256630 -0.115646
v -0.220994 0.262014 -0.085828
v -0.105120 0.160966 -0.098512
v -0.078485 0.173405 -0.113330
v -0.070417 0.180726 -0.144395
v -0.085641 0.178639 -0.173509
v -0.115239 0.168368 -0.183617
v -0.141873 0.155928 -0.168799
v -0.149942 0.148607 -0.137734
v -0.134718 0.150694 -0.108620
v -0.462181 -0.176676 0.072165
v -0.492569 -0.177934 0.084763
v -0.522958 -0.179191 0.072165
v -0.535545 -0.179712 0.041751
v -0.522958 -0.179191 0.011337
v -0.492569 -0.177934 -0.001261
v -0.462181 -0.176676 0.011337
v -0.449594 -0.176156 0.041751
v -0.462181 -0.176676 0.072165
v -0.492569 -0.177934 0.084763
v -0.522958 -0.179191 0.072165
v -0.535545 -0.179712 0.041751
v -0.522958 -0.179191 0.011337
v -0.492569 -0.177934 -0.001261
v -0.462181 -0.176676 0.011337
v -0.449594 -0.176156 0.041751
v -0.455177 -0.295327 0.033760
v -0.479412 -0.312533 0.040467
v -0.506007 -0.319613 0.024559
v -0.519381 -0.312419 -0.004647
v -0.511702 -0.295166 -0.030041
v -0.487466 -0.277959 -0.036749
v -0.460872 -0.270879 -0.020840
v -0.447497 -0.278073 0.008366
v -0.328759 -0.328954 -0.023316
v -0.325439 -0.360699 -0.031379
v -0.330167 -0.378384 -0.058740
v -0.340175 -0.371650 -0.089370
v -0.349599 -0.344443 -0.105328
v -0.352919 -0.312698 -0.097265
v -0.348190 -0.295013 -0.069905
v -0.338183 -0.301747 -0.039274
v -0.199385 -0.232843 -0.073330
v -0.181695 -0.257811 -0.085472
v -0.178287 -0.271658 -0.115143
v -0.191157 -0.266275 -0.144961
v -0.212766 -0.244814 -0.157459
v -0.230455 -0.219846 -0.145317
v -0.233863 -0.205999 -0.115646
v -0.220994 -0.211382 -0.085828
v -0.105120 -0.110334 -0.098512
v -0.078485 -0.122774 -0.113330
v -0.070417 -0.130095 -0.144395
v -0.085640 -0.128008 -0.173509
v -0.115239 -0.117736 -0.183617
v -0.141873 -0.105297 -0.168799
v -0.149941 -0.097976 -0.137734
v -0.134718 -0.100063 -0.108620
v 0.766310 0.025316 0.055718
v 0.452141 0.025316 0.055718
v 0.766310 -0.013222 0.039756
v 0.452141 -0.013222 0.039756
v 0.766310 -0.029185 0.001218
v 0.452141 -0.029185 0.001218
v 0.766310 -0.013222 -0.037320
v 0.452141 -0.013222 -0.037320
v 0.766310 0.025316 -0.053283
v 0.452141 0.025316 -0.053283
v 0.766310 0.063853 -0.037320
v 0.452141 0.063853 -0.037320
v 0.766310 0.079816 0.001218
v 0.452141 0.079816 0.001218
v 0.766310 0.063853 0.039756
v 0.452141 0.063853 0.039756
v 0.766310 0.025316 0.068263
v 0.766310 -0.022092 0.048626
v 0.766310 -0.041729 0.001218
v 0.766310 -0.022092 -0.046190
v 0.766310 0.025316 -0.065827
v 0.766310 0.072723 -0.046190
v 0.766310 0.092360 0.001218
v 0.766310 0.072723 0.048626
v 0.806607 0.025316 0.054459
v 0.806607 -0.012332 0.038865
v 0.806607 -0.027926 0.001218
v 0.806607 -0.012332 -0.036429
v 0.806607 0.025316 -0.052023
v 0.806607 0.062963 -0.036429
v 0.806607 0.078557 0.001218
v 0.806607 0.062963 0.038865
v 0.806607 0.025316 0.068263
v 0.806607 -0.022092 0.048626
v 0.806607 -0.041729 0.001218
v 0.806607 -0.022092 -0.046190
v 0.806607 0.025316 -0.065827
v 0.806607 0.072723 -0.046190
v 0.806607 0.092360 0.001218
v 0.806607 0.072723 0.048626
v 0.785868 0.025316 0.054459
v 0.785868 -0.012332 0.038865
v 0.785868 -0.027926 0.001218
v 0.785868 -0.012332 -0.036429
v 0.785868 0.025316 -0.052023
v 0.785868 0.062963 -0.036429
v 0.785868 0.078557 0.001218
v 0.785868 0.062963 0.038865
v 0.789279 0.025316 0.054674
v 0.789279 0.063257 0.038958
v 0.789279 0.078972 0.001017
v 0.789279 0.063257 -0.036924
v 0.789279 0.025316 -0.052640
v 0.789279 -0.012626 -0.036924
v 0.789279 -0.028341 0.001017
v 0.789279 -0.012626 0.038958
v -0.000421 -0.011214 -0.383963
v -0.118870 0.043716 -0.153930
v 0.032002 -0.011214 -0.383963
v 0.193505 0.043716 -0.153930
v -0.000421 -0.076784 -0.407829
v -0.118870 -0.112533 -0.082421
v 0.032002 -0.076784 -0.407829
v 0.193505 -0.112533 -0.082421
v -0.067242 0.008512 -0.300180
v -0.067242 -0.058439 -0.216397
v 0.099449 -0.058439 -0.216397
v 0.099449 0.008512 -0.300180
v 0.099449 -0.165887 -0.167616
v 0.099449 -0.057057 -0.324045
v -0.067242 -0.165887 -0.167616
v -0.067242 -0.057057 -0.324045
v -0.000421 0.072096 -0.383963
v -0.118870 0.017165 -0.153930
v 0.032002 0.072096 -0.383963
v 0.193505 0.017165 -0.153930
v -0.000421 0.137665 -0.407829
v -0.118870 0.173414 -0.082421
v 0.032002 0.137665 -0.407829
v 0.193505 0.173414 -0.082421
v -0.067242 0.052369 -0.300180
v -0.067242 0.119320 -0.216397
v 0.099449 0.119320 -0.216397
v 0.099449 0.052369 -0.300180
v 0.099449 0.226769 -0.167616
v 0.099449 0.117939 -0.324045
v -0.067242 0.226769 -0.167616
v -0.067242 0.117939 -0.324045
v 0.350047 -0.033835 0.242661
v 0.348466 0.072548 0.244559
v 0.336464 0.095329 0.235098
v 0.318769 0.092492 0.236298
v 0.281332 0.120620 0.224642
v 0.222494 0.124650 0.222910
v 0.179726 0.086468 0.238741
v 0.179593 -0.035702 0.241851
v 0.222839 -0.076814 0.224698
v 0.280841 -0.072042 0.226747
v 0.318300 -0.047857 0.236826
v 0.336954 -0.053540 0.234428
v 0.322495 0.002341 0.252099
v 0.295086 0.020613 0.252100
v 0.321353 0.040599 0.252110
v 0.252089 0.198451 0.192254
v 0.252415 -0.145107 0.196176
v 0.127108 0.139102 0.216839
v 0.142678 -0.098221 0.215690
v 0.373877 -0.097458 0.216029
v 0.376246 0.154255 0.210557
v 0.263664 -0.039655 0.240235
v 0.245283 -0.026959 0.245528
v 0.244971 0.001927 0.252092
v 0.263749 0.016262 0.252107
v 0.283267 0.001878 0.252121
v 0.283594 -0.026939 0.245568
v 0.263413 0.030542 0.252108
v 0.245177 0.044972 0.252094
v 0.245018 0.071876 0.244833
v 0.263889 0.084621 0.239552
v 0.280539 0.073641 0.244121
v 0.280539 0.045765 0.252112
v 0.423758 0.022720 0.252079
v 0.099692 0.021075 0.252060
v 0.348675 0.056140 0.252099
v 0.179693 0.054845 0.252072
v 0.320568 0.055924 0.252116
v 0.411849 0.056624 0.252079
v 0.245108 0.055346 0.252094
v 0.280539 0.055618 0.252113
v 0.107248 0.054290 0.252060
v 0.179616 -0.012589 0.252072
v 0.321352 -0.010990 0.252106
v 0.111794 -0.013354 0.252060
v 0.245137 -0.011850 0.252092
v 0.283435 -0.011418 0.252121
v 0.410233 -0.010655 0.252079
v 0.349722 -0.010670 0.252099
v 0.179693 0.055005 0.252072
v -0.330984 0.227525 -0.366788
v -0.330984 0.051454 0.252842
v -0.058884 0.227525 -0.366788
v -0.058884 0.051454 0.252842
v -0.330984 0.246564 -0.366788
v -0.330984 0.065140 0.266079
v -0.058884 0.246564 -0.366788
v -0.058884 0.065140 0.266079
v -0.330984 0.284276 -0.274946
v -0.058884 0.284276 -0.274946
v -0.058884 0.303315 -0.274946
v -0.330984 0.303315 -0.274946
v -0.330984 0.284276 0.020152
v -0.058884 0.284276 0.020152
v -0.058884 0.303315 0.020152
v -0.330984 0.303315 0.020152
v -0.330984 0.217668 0.183398
v -0.058884 0.217668 0.183398
v -0.058884 0.233432 0.194074
v -0.330984 0.233432 0.194074
v -0.330984 0.020932 0.249944
v -0.058884 0.020932 0.249944
v -0.058884 0.020428 0.268977
v -0.330984 0.020428 0.268977
v -0.039914 0.227525 -0.366788
v -0.039914 0.051454 0.252842
v -0.016543 0.227525 -0.366788
v -0.016543 0.051454 0.252842
v -0.039914 0.246564 -0.366788
v -0.039914 0.065140 0.266079
v -0.016543 0.246564 -0.366788
v -0.016543 0.065140 0.266079
v -0.039914 0.284276 -0.274946
v -0.016543 0.284276 -0.274946
v -0.016543 0.303315 -0.274946
v -0.039914 0.303315 -0.274946
v -0.039914 0.284276 0.020152
v -0.016543 0.284276 0.020152
v -0.016543 0.303315 0.020152
v -0.039914 0.303315 0.020152
v -0.039914 0.217668 0.183398
v -0.016543 0.217668 0.183398
v -0.016543 0.233432 0.194074
v -0.039914 0.233432 0.194074
v -0.039914 0.020932 0.249944
v -0.016543 0.020932 0.249944
v -0.016543 0.020428 0.268977
v -0.039914 0.020428 0.268977
v -0.039914 -0.185200 -0.366788
v -0.039914 -0.009129 0.252842
v -0.016543 -0.185200 -0.366788
v -0.016543 -0.009129 0.252842
v -0.039914 -0.204239 -0.366788
v -0.039914 -0.022814 0.266079
v -0.016543 -0.204239 -0.366788
v -0.016543 -0.022814 0.266079
v -0.039914 -0.241951 -0.274946
v -0.016543 -0.241951 -0.274946
v -0.016543 -0.260990 -0.274946
v -0.039914 -0.260990 -0.274946
v -0.039914 -0.241951 0.020152
v -0.016543 -0.241951 0.020152
v -0.016543 -0.260990 0.020152
v -0.039914 -0.260990 0.020152
v -0.039914 -0.175343 0.183398
v -0.016543 -0.175343 0.183398
v -0.016543 -0.191107 0.194074
v -0.039914 -0.191107 0.194074
v -0.039914 0.021393 0.249944
v -0.016543 0.021393 0.249944
v -0.016543 0.021897 0.268977
v -0.039914 0.021897 0.268977
v -0.000173 -0.185200 -0.366788
v -0.000173 -0.009129 0.252842
v 0.023198 -0.185200 -0.366788
v 0.023198 -0.009129 0.252842
v -0.000173 -0.204239 -0.366788
v -0.000173 -0.022814 0.266079
v 0.023198 -0.204239 -0.366788
v 0.023198 -0.022814 0.266079
v -0.000173 -0.241951 -0.274946
v 0.023198 -0.241951 -0.274946
v 0.023198 -0.260990 -0.274946
v -0.000173 -0.260990 -0.274946
v -0.000173 -0.241951 0.020152
v 0.023198 -0.241951 0.020152
v 0.023198 -0.260990 0.020152
v -0.000173 -0.260990 0.020152
v -0.000173 -0.175343 0.183398
v 0.023198 -0.175343 0.183398
v 0.023198 -0.191107 0.194074
v -0.000173 -0.191107 0.194074
v -0.000173 0.021393 0.249944
v 0.023198 0.021393 0.249944
v 0.023198 0.021897 0.268977
v -0.000173 0.021897 0.268977
v -0.000173 0.227525 -0.366788
v -0.000173 0.051454 0.252842
v 0.023198 0.227525 -0.366788
v 0.023198 0.051454 0.252842
v -0.000173 0.246564 -0.366788
v -0.000173 0.065140 0.266079
v 0.023198 0.246564 -0.366788
v 0.023198 0.065140 0.266079
v -0.000173 0.284276 -0.274946
v 0.023198 0.284276 -0.274946
v 0.023198 0.303315 -0.274946
v -0.000173 0.303315 -0.274946
v -0.000173 0.284276 0.020152
v 0.023198 0.284276 0.020152
v 0.023198 0.303315 0.020152
v -0.000173 0.303315 0.020152
v -0.000173 0.217668 0.183398
v 0.023198 0.217668 0.183398
v 0.023198 0.233432 0.194074
v -0.000173 0.233432 0.194074
v -0.000173 0.020932 0.249944
v 0.023198 0.020932 0.249944
v 0.023198 0.020428 0.268977
v -0.000173 0.020428 0.268977
v 0.041918 -0.185200 -0.366788
v 0.041918 -0.009129 0.252842
v 0.065288 -0.185200 -0.366788
v 0.065288 -0.009129 0.252842
v 0.041918 -0.204239 -0.366788
v 0.041918 -0.022814 0.266079
v 0.065288 -0.204239 -0.366788
v 0.065288 -0.022814 0.266079
v 0.041918 -0.241951 -0.274946
v 0.065288 -0.241951 -0.274946
v 0.065288 -0.260990 -0.274946
v 0.041918 -0.260990 -0.274946
v 0.041918 -0.241951 0.020152
v 0.065288 -0.241951 0.020152
v 0.065288 -0.260990 0.020152
v 0.041918 -0.260990 0.020152
v 0.041918 -0.175343 0.183398
v 0.065288 -0.175343 0.183398
v 0.065288 -0.191107 0.194074
v 0.041918 -0.191107 0.194074
v 0.041918 0.021393 0.249944
v 0.065288 0.021393 0.249944
v 0.065288 0.021897 0.268977
v 0.041918 0.021897 0.268977
v 0.041918 0.227525 -0.366788
v 0.041918 0.051454 0.252842
v 0.065288 0.227525 -0.366788
v 0.065288 0.051454 0.252842
v 0.041918 0.246564 -0.366788
v 0.041918 0.065140 0.266079
v 0.065288 0.246564 -0.366788
v 0.065288 0.065140 0.266079
v 0.041918 0.284276 -0.274946
v 0.065288 0.284276 -0.274946
v 0.065288 0.303315 -0.274946
v 0.041918 0.303315 -0.274946
v 0.041918 0.284276 0.020152
v 0.065288 0.284276 0.020152
v 0.065288 0.303315 0.020152
v 0.041918 0.303315 0.020152
v 0.041918 0.217668 0.183398
v 0.065288 0.217668 0.183398
v 0.065288 0.233432 0.194074
v 0.041918 0.233432 0.194074
v 0.041918 0.020932 0.249944
v 0.065288 0.020932 0.249944
v 0.065288 0.020428 0.268977
v 0.041918 0.020428 0.268977
vn 0.4302 -0.4302 0.7936
vn 0.7936 -0.4302 0.4302
vn 0.4302 -0.7936 0.4302
vn 0.7936 -0.4302 -0.4302
vn 0.4302 -0.4302 -0.7936
vn 0.4302 -0.7936 -0.4302
vn 0.4302 0.4302 0.7936
vn 0.4302 0.7936 0.4302
vn 0.7936 0.4302 0.4302
vn 0.4302 0.4302 -0.7936
vn 0.7936 0.4302 -0.4302
vn 0.4302 0.7936 -0.4302
vn -0.0000 -0.5078 0.8615
vn -0.0000 -0.8615 0.5078
vn 0.8615 -0.5078 -0.0000
vn 0.5078 -0.8615 -0.0000
vn -0.0000 0.5078 -0.8615
vn -0.0000 0.8615 -0.5078
vn 0.8615 0.5078 -0.0000
vn 0.5078 0.8615 -0.0000
vn 0.5078 -0.0000 0.8615
vn 0.8615 -0.0000 0.5078
vn 0.5078 -0.0000 -0.8615
vn 0.8615 -0.0000 -0.5078
vn -0.0000 -0.0000 1.0000
vn 1.0000 -0.0000 -0.0000
vn -0.0000 -0.0000 -1.0000
vn -0.0000 1.0000 -0.0000
vn -0.0000 0.8615 0.5078
vn -0.0000 0.5078 0.8615
vn -0.0000 -0.8615 -0.5078
vn -0.0000 -0.5078 -0.8615
vn -0.0000 -1.0000 -0.0000
vn -1.0000 -0.0000 -0.0000
vn -0.0000 0.3827 0.9239
vn -0.0000 0.9239 0.3827
vn -0.0000 -0.3827 0.9239
vn -0.0000 -0.9239 0.3827
vn -0.0000 0.9245 0.3813
vn -0.0000 -0.9245 0.3813
vn 0.7960 -0.0000 -0.6053
vn 0.7598 0.0013 -0.6502
vn 0.7882 -0.0135 -0.6153
vn 0.7598 -0.0013 -0.6502
vn 0.7882 0.0135 -0.6153
vn 0.7961 -0.0008 -0.6052
vn 0.7567 -0.0000 -0.6537
vn 0.7961 0.0008 -0.6052
vn -0.0000 0.9248 -0.3805
vn -0.0000 -0.3848 -0.9230
vn -0.0000 -0.3840 0.9233
vn -0.0000 0.3840 0.9233
vn 0.7962 -0.0000 -0.6051
vn 0.7628 0.0017 -0.6467
vn 0.7910 -0.0132 -0.6117
vn 0.7628 -0.0017 -0.6467
vn 0.7910 0.0132 -0.6117
vn 0.7962 -0.0004 -0.6051
vn 0.7599 -0.0000 -0.6501
vn 0.7962 0.0004 -0.6051
vn 0.7962 -0.0000 -0.6050
vn 0.7947 -0.0000 -0.6071
vn 0.7617 -0.0000 -0.6480
vn -0.0000 -0.9248 -0.3805
vn -0.0000 0.3848 -0.9230
vn -0.0000 0.3855 -0.9227
vn -0.0000 -0.3934 0.9194
vn -0.0000 -0.0945 -0.9955
vn -0.0000 -0.8507 -0.5257
vn -0.0000 0.8507 0.5257
vn -0.0000 -0.9279 0.3728
vn -0.0000 0.9259 -0.3778
vn -0.0000 0.9996 -0.0265
vn -0.0000 -0.0647 0.9979
vn 0.9125 -0.3780 -0.1566
vn -0.3574 -0.8629 -0.3574
vn 0.3574 -0.8629 -0.3574
vn -0.9125 -0.3780 -0.1566
vn -0.9125 -0.1566 -0.3780
vn 0.9125 -0.1566 -0.3780
vn -0.3574 -0.3574 -0.8629
vn 0.3574 -0.3574 -0.8629
vn 0.3574 0.3574 -0.8629
vn -0.9125 0.1566 -0.3780
vn 0.9125 0.1566 -0.3780
vn -0.3574 0.3574 -0.8629
vn 0.3574 0.8629 -0.3574
vn -0.9125 0.3780 -0.1566
vn 0.9125 0.3780 -0.1566
vn -0.3574 0.8629 -0.3574
vn 0.9239 -0.3827 -0.0000
vn 0.3827 0.9239 -0.0000
vn -0.9239 0.3827 -0.0000
vn -0.9239 -0.3827 -0.0000
vn 0.3827 -0.9239 -0.0000
vn 0.9239 0.3827 -0.0000
vn -0.3827 0.9239 -0.0000
vn -0.3827 -0.9239 -0.0000
vn 0.9125 0.3780 0.1566
vn -0.3574 0.8629 0.3574
vn 0.3574 0.8629 0.3574
vn -0.9125 0.3780 0.1566
vn -0.9125 0.1566 0.3780
vn 0.9125 0.1566 0.3780
vn -0.3574 0.3574 0.8629
vn 0.3574 0.3574 0.8629
vn 0.3574 -0.3574 0.8629
vn -0.9125 -0.1566 0.3780
vn 0.9125 -0.1566 0.3780
vn -0.3574 -0.3574 0.8629
vn 0.3574 -0.8629 0.3574
vn -0.9125 -0.3780 0.1566
vn 0.9125 -0.3780 0.1566
vn -0.3574 -0.8629 0.3574
vn 0.0413 0.9991 -0.0000
vn 0.9444 0.0658 0.3220
vn 0.3979 0.2560 0.8810
vn -0.3832 0.3302 0.8626
vn -0.9005 0.2351 0.3658
vn -0.9414 -0.0152 -0.3370
vn -0.4026 -0.2797 -0.8716
vn 0.3875 -0.3147 -0.8665
vn 0.9131 -0.1434 -0.3816
vn 0.4393 -0.6210 0.6491
vn 0.3665 0.1819 0.9125
vn -0.0351 0.8562 0.5155
vn -0.3487 0.9337 -0.0811
vn -0.4875 0.6048 -0.6297
vn -0.3663 -0.1818 -0.9126
vn -0.0103 -0.8710 -0.4911
vn 0.2593 -0.9581 0.1217
vn -0.0297 -0.4903 0.8710
vn 0.4454 0.1495 0.8828
vn 0.6254 0.6889 0.3664
vn 0.4552 0.8240 -0.3374
vn 0.0254 0.4925 -0.8700
vn -0.4497 -0.1473 -0.8810
vn -0.6538 -0.6685 -0.3545
vn -0.4852 -0.8036 0.3447
vn -0.1956 -0.3398 0.9200
vn 0.4246 0.1414 0.8943
vn 0.7817 0.5281 0.3318
vn 0.6854 0.6060 -0.4036
vn 0.1958 0.3395 -0.9200
vn -0.4237 -0.1426 -0.8945
vn -0.7771 -0.5341 -0.3330
vn -0.6816 -0.6112 0.4024
vn 0.0413 -0.9991 -0.0000
vn 0.9444 -0.0658 0.3220
vn 0.3979 -0.2560 0.8810
vn -0.3832 -0.3302 0.8626
vn -0.9005 -0.2351 0.3658
vn -0.9414 0.0152 -0.3370
vn -0.4026 0.2797 -0.8716
vn 0.3875 0.3147 -0.8665
vn 0.9131 0.1434 -0.3816
vn 0.4393 0.6210 0.6491
vn 0.3665 -0.1819 0.9125
vn -0.0351 -0.8562 0.5155
vn -0.3487 -0.9337 -0.0811
vn -0.4875 -0.6048 -0.6297
vn -0.3663 0.1818 -0.9126
vn -0.0103 0.8710 -0.4911
vn 0.2593 0.9581 0.1217
vn -0.0297 0.4903 0.8710
vn 0.4454 -0.1495 0.8828
vn 0.6254 -0.6889 0.3664
vn 0.4552 -0.8240 -0.3374
vn 0.0254 -0.4925 -0.8700
vn -0.4497 0.1473 -0.8810
vn -0.6538 0.6685 -0.3545
vn -0.4852 0.8036 0.3447
vn -0.1956 0.3398 0.9200
vn 0.4246 -0.1414 0.8943
vn 0.7817 -0.5281 0.3318
vn 0.6854 -0.6060 -0.4036
vn 0.1958 -0.3395 -0.9200
vn -0.4237 0.1426 -0.8945
vn -0.7771 0.5341 -0.3330
vn -0.6816 0.6112 0.4024
vn -0.0000 -0.9239 -0.3827
vn -0.0000 -0.3827 -0.9239
vn -0.0000 0.3827 -0.9239
vn -0.0000 0.9239 -0.3827
vn -0.0000 0.5217 -0.8531
vn 0.7265 -0.2852 -0.6252
vn -0.0000 -0.8475 0.5308
vn -0.8875 -0.1912 -0.4192
vn -0.0000 0.3420 -0.9397
vn -0.0000 0.4162 0.9093
vn -0.7329 0.2327 -0.6393
vn -0.0000 -0.9734 0.2292
vn -0.0000 -0.8209 -0.5711
vn 0.7297 0.2339 -0.6425
vn -0.0000 0.9734 -0.2292
vn -0.0000 0.7812 0.6243
vn -0.0000 -0.5217 -0.8531
vn 0.7265 0.2852 -0.6252
vn -0.0000 0.8475 0.5308
vn -0.8875 0.1912 -0.4192
vn -0.0000 -0.3420 -0.9397
vn -0.0000 -0.4162 0.9093
vn -0.7329 -0.2327 -0.6393
vn -0.0000 0.9734 0.2292
vn -0.0000 0.8209 -0.5711
vn 0.7297 -0.2339 -0.6425
vn -0.0000 -0.9734 -0.2292
vn -0.0000 -0.7812 0.6243
vn 0.0012 -0.3818 0.9242
vn -0.0002 -0.0003 1.0000
vn 0.0085 -0.3941 0.9190
vn 0.0004 -0.3849 0.9229
vn 0.0008 -0.3913 0.9203
vn -0.0001 0.3907 0.9205
vn -0.0000 -0.0003 1.0000
vn -0.0021 0.3987 0.9171
vn -0.0005 0.0001 1.0000
vn -0.0017 0.3867 0.9222
vn -0.0004 -0.0000 1.0000
vn 0.0059 0.3993 0.9168
vn -0.0008 -0.0000 1.0000
vn 0.0003 -0.0001 1.0000
vn 0.0004 0.0006 1.0000
vn 0.0010 -0.3916 0.9201
vn 0.0026 -0.3836 0.9235
vn -0.0049 0.3882 0.9216
vn 0.0003 -0.0000 1.0000
vn -0.0016 0.3856 0.9227
vn -0.0002 -0.0000 1.0000
vn 0.0004 -0.3860 0.9225
vn -0.0007 -0.3856 0.9226
vn -0.0006 0.3837 0.9234
vn 0.0002 0.3843 0.9232
vn -0.0000 -0.3855 -0.9227
vn -0.0000 0.3934 0.9194
vn -0.0000 0.0945 -0.9955
vn -0.0000 0.8507 -0.5257
vn -0.0000 -0.8507 0.5257
vn -0.0000 0.9279 0.3728
vn -0.0000 -0.9259 -0.3778
vn -0.0000 -0.9996 -0.0265
vn -0.0000 0.0647 0.9979
vt 0.178018 0.696982
vt 0.178018 0.750000
vt 0.152581 0.750000
vt 0.125000 0.696982
vt 0.428018 0.946982
vt 0.428018 1.000000
vt 0.402581 1.000000
vt 0.375000 0.946982
vt 0.428018 0.053018
vt 0.375000 0.053018
vt 0.375000 0.027581
vt 0.428018 0.000000
vt 0.571982 0.946982
vt 0.625000 0.946982
vt 0.625000 0.972419
vt 0.571982 1.000000
vt 0.821982 0.696982
vt 0.875000 0.696982
vt 0.875000 0.722419
vt 0.821982 0.750000
vt 0.571982 0.053018
vt 0.571982 0.000000
vt 0.597419 0.000000
vt 0.625000 0.053018
vt 0.321982 0.696982
vt 0.375000 0.696982
vt 0.384194 0.750000
vt 0.348491 0.776509
vt 0.428018 0.696982
vt 0.428018 0.750000
vt 0.428018 0.803018
vt 0.678018 0.696982
vt 0.651509 0.776509
vt 0.625000 0.740806
vt 0.625000 0.696982
vt 0.571982 0.803018
vt 0.571982 0.750000
vt 0.571982 0.696982
vt 0.178018 0.626295
vt 0.125000 0.626295
vt 0.375000 0.123705
vt 0.428018 0.123705
vt 0.678018 0.626295
vt 0.625000 0.626295
vt 0.571982 0.626295
vt 0.321982 0.626295
vt 0.821982 0.626295
vt 0.428018 0.626295
vt 0.375000 0.626295
vt 0.625000 0.123705
vt 0.571982 0.123705
vt 0.875000 0.626295
vt 0.125000 0.500000
vt 0.125000 0.750000
vt 0.375000 0.750000
vt 0.375000 0.500000
vt 0.765147 0.750000
vt 0.875000 0.750000
vt 0.875000 0.500000
vt 0.765147 0.500000
vt 0.625000 0.000000
vt 0.515147 0.000000
vt 0.515147 0.250000
vt 0.601671 0.273329
vt 0.662383 0.427529
vt 0.606702 0.481702
vt 0.606702 0.768298
vt 0.662383 0.822471
vt 0.515147 0.500000
vt 0.515147 0.750000
vt 0.375000 1.000000
vt 0.515147 1.000000
vt 0.592825 0.967825
vt 0.625000 0.890147
vt 0.375000 0.000000
vt 0.375000 0.250000
vt 0.512724 0.269103
vt 0.590497 0.291931
vt 0.594143 0.462430
vt 0.512724 0.480897
vt 0.621493 0.371066
vt 0.630391 0.401781
vt 0.390207 0.269103
vt 0.390207 0.480897
vt 0.625000 0.359853
vt 0.587755 0.452738
vt 0.511477 0.471066
vt 0.615104 0.373832
vt 0.618689 0.394042
vt 0.584724 0.301290
vt 0.398032 0.278934
vt 0.398032 0.471066
vt 0.511477 0.278934
vt 0.597917 0.000000
vt 0.597917 0.250000
vt 0.625000 0.250000
vt 0.597917 0.500000
vt 0.625000 0.500000
vt 0.597917 0.750000
vt 0.625000 0.750000
vt 0.597917 1.000000
vt 0.625000 1.000000
vt 0.412252 1.000000
vt 0.412252 0.750000
vt 0.412252 0.500000
vt 0.412252 0.250000
vt 0.412252 0.000000
vt 0.531946 1.000000
vt 0.531946 0.750000
vt 0.531946 0.500000
vt 0.531946 0.250000
vt 0.531946 0.000000
vt 0.437500 0.000000
vt 0.500000 0.250000
vt 0.500000 0.500000
vt 0.375000 0.750000
vt 0.500000 0.750000
vt 0.437500 1.000000
vt 0.250000 0.750000
vt 0.312500 1.000000
vt 0.312500 0.000000
vt 0.250000 0.250000
vt 0.250000 0.500000
vt 0.125000 0.250000
vt 0.125000 0.750000
vt 0.187500 1.000000
vt 0.187500 0.000000
vt 0.000000 0.250000
vt 0.000000 0.500000
vt 0.000000 0.750000
vt 0.062500 1.000000
vt 0.062500 0.000000
vt 1.000000 0.500000
vt 1.000000 0.250000
vt 0.937500 0.000000
vt 0.562500 1.000000
vt 1.000000 0.750000
vt 0.000000 0.000000
vt 0.571429 0.000000
vt 0.714286 0.000000
vt 0.857143 0.000000
vt 0.428571 0.000000
vt 1.000000 0.000000
vt 0.285714 0.000000
vt 0.142857 0.000000
vt 0.000000 1.000000
vt 0.166667 1.000000
vt 0.166667 0.875000
vt 0.000000 0.875000
vt 0.000000 0.125000
vt 0.166667 0.125000
vt 0.166667 0.000000
vt 0.166667 0.250000
vt 0.000000 0.375000
vt 0.166667 0.375000
vt 0.166667 0.500000
vt 0.000000 0.625000
vt 0.166667 0.625000
vt 0.000000 0.750000
vt 0.166667 0.750000
vt 0.333333 1.000000
vt 0.500000 1.000000
vt 0.500000 0.875000
vt 0.333333 0.875000
vt 0.333333 0.125000
vt 0.500000 0.125000
vt 0.500000 0.000000
vt 0.333333 0.000000
vt 0.333333 0.250000
vt 0.333333 0.375000
vt 0.500000 0.375000
vt 0.333333 0.500000
vt 0.333333 0.625000
vt 0.500000 0.625000
vt 0.333333 0.750000
vt 0.500000 0.750000
vt 0.666667 1.000000
vt 0.666667 0.875000
vt 0.666667 0.125000
vt 0.666667 0.000000
vt 0.666667 0.250000
vt 0.666667 0.375000
vt 0.666667 0.500000
vt 0.666667 0.625000
vt 0.666667 0.750000
vt 0.833333 1.000000
vt 0.833333 0.875000
vt 0.833333 0.125000
vt 0.833333 0.000000
vt 0.833333 0.250000
vt 0.833333 0.375000
vt 0.833333 0.500000
vt 0.833333 0.625000
vt 0.833333 0.750000
vt 0.875000 1.000000
vt 1.000000 1.000000
vt 0.750000 0.500000
vt 0.750000 1.000000
vt 0.250000 1.000000
vt 0.419706 0.419706
vt 0.490000 0.250000
vt 0.419706 0.080294
vt 0.250000 0.010000
vt 0.080294 0.080294
vt 0.010000 0.250000
vt 0.080294 0.419706
vt 0.250000 0.490000
vt 0.125000 1.000000
vt 0.940587 0.250000
vt 0.884766 0.115234
vt 0.884766 0.384766
vt 0.919706 0.419706
vt 0.750000 0.490000
vt 0.750000 0.440587
vt 0.990000 0.250000
vt 0.919706 0.080294
vt 0.750000 0.059413
vt 0.750000 0.010000
vt 0.615234 0.115234
vt 0.580294 0.080294
vt 0.559413 0.250000
vt 0.510000 0.250000
vt 0.615234 0.384766
vt 0.580294 0.419706
vt 0.541667 0.000000
vt 0.541667 0.250000
vt 0.541667 0.500000
vt 0.541667 0.750000
vt 0.541667 1.000000
vt 0.458333 1.000000
vt 0.458333 0.750000
vt 0.458333 0.500000
vt 0.458333 0.250000
vt 0.458333 0.000000
vt 0.562721 0.630851
vt 0.562362 0.637470
vt 0.566562 0.644484
vt 0.577647 0.643876
vt 0.588932 0.637916
vt 0.595913 0.624003
vt 0.593158 0.635684
vt 0.610263 0.634296
vt 0.660968 0.657777
vt 0.659277 0.664744
vt 0.666436 0.635243
vt 0.666449 0.635190
vt 0.668847 0.625310
vt 0.610434 0.586461
vt 0.612821 0.585642
vt 0.579388 0.557730
vt 0.592005 0.617666
vt 0.350404 0.346644
vt 0.504109 0.502565
vt 0.535848 0.530453
vt 0.584306 0.573033
vt 0.553527 0.536139
vt 0.645535 0.604696
vt 0.607814 0.598666
vt 0.583041 0.603133
vt 0.572027 0.599791
vt 0.564107 0.605261
vt 0.563876 0.609521
vt 0.634122 0.675566
s 0
usemtl Material.004
f 1/1/1 7/4/1 5/3/1 4/2/1
f 2/5/2 4/8/2 5/7/2 6/6/2
f 3/9/3 6/12/3 5/11/3 7/10/3
f 8/13/4 14/16/4 12/15/4 11/14/4
f 9/17/5 11/20/5 12/19/5 13/18/5
f 10/21/6 13/24/6 12/23/6 14/22/6
f 15/25/7 21/28/7 19/27/7 18/26/7
f 16/29/8 18/26/8 19/27/8 20/30/8
f 17/31/9 20/30/9 19/27/9 21/28/9
f 22/32/10 28/35/10 26/34/10 25/33/10
f 23/36/11 25/33/11 26/34/11 27/37/11
f 24/38/12 27/37/12 26/34/12 28/35/12
f 29/39/13 30/40/13 7/4/13 1/1/13
f 30/41/14 31/42/14 3/9/14 7/10/14
f 2/5/15 6/6/15 14/16/15 8/13/15
f 6/12/16 3/9/16 10/21/16 14/22/16
f 38/43/17 39/44/17 28/35/17 22/32/17
f 39/44/18 40/45/18 24/38/18 28/35/18
f 23/36/19 27/37/19 20/30/19 17/31/19
f 27/37/20 24/38/20 16/29/20 20/30/20
f 1/1/21 4/2/21 21/28/21 15/25/21
f 4/8/22 2/5/22 17/31/22 21/28/22
f 22/32/23 25/33/23 11/20/23 9/17/23
f 25/33/24 23/36/24 8/13/24 11/14/24
f 29/39/25 1/1/25 15/25/25 35/46/25
f 17/31/26 2/5/26 8/13/26 23/36/26
f 38/43/27 22/32/27 9/17/27 32/47/27
f 37/48/28 16/29/28 24/38/28 40/45/28
f 18/26/29 16/29/29 37/48/29 36/49/29
f 15/25/30 18/26/30 36/49/30 35/46/30
f 13/24/31 10/21/31 34/51/31 33/50/31
f 9/17/32 13/18/32 33/52/32 32/47/32
f 3/9/33 31/42/33 34/51/33 10/21/33
f 39/44/34 38/43/34 32/47/34 33/52/34 34/51/34 31/42/34 30/41/34 29/39/34 35/46/34 36/49/34 37/48/34 40/45/34
f 125/113/75 115/114/75 118/76/75
f 114/115/76 113/117/76 116/116/76 117/56/76
f 115/114/77 114/115/77 117/56/77 118/76/77
f 113/117/78 129/118/78 116/116/78
f 116/116/79 129/120/79 119/119/79
f 125/121/80 118/76/80 121/122/80
f 117/56/81 116/116/81 119/119/81 120/123/81
f 118/76/82 117/56/82 120/123/82 121/122/82
f 121/122/83 120/123/83 123/53/83 124/124/83
f 119/119/84 129/126/84 122/125/84
f 125/127/85 121/122/85 124/124/85
f 120/123/86 119/119/86 122/125/86 123/53/86
f 124/124/87 123/53/87 127/129/87 128/128/87
f 122/125/88 129/131/88 126/130/88
f 125/132/89 124/124/89 128/128/89
f 123/53/90 122/125/90 126/130/90 127/129/90
f 127/133/25 126/137/25 129/136/25 113/117/25 114/115/25 115/114/25 125/135/25 128/134/25
f 131/138/27 132/138/27 133/138/27 134/138/27 135/138/27 136/138/27 137/138/27 130/138/27
f 138/138/25 139/138/25 145/138/25 144/138/25 143/138/25 142/138/25 141/138/25 140/138/25
f 134/138/91 142/138/91 143/138/91 135/138/91
f 130/138/93 139/138/93 138/138/93 131/138/93
f 137/138/94 145/138/94 139/138/94 130/138/94
f 133/138/96 141/138/96 142/138/96 134/138/96
f 158/113/99 148/114/99 151/76/99
f 147/115/100 146/117/100 149/116/100 150/56/100
f 148/114/101 147/115/101 150/56/101 151/76/101
f 146/117/102 162/118/102 149/116/102
f 149/116/103 162/120/103 152/119/103
f 158/121/104 151/76/104 154/122/104
f 150/56/105 149/116/105 152/119/105 153/123/105
f 151/76/106 150/56/106 153/123/106 154/122/106
f 154/122/107 153/123/107 156/53/107 157/124/107
f 152/119/108 162/126/108 155/125/108
f 158/127/109 154/122/109 157/124/109
f 153/123/110 152/119/110 155/125/110 156/53/110
f 157/124/111 156/53/111 160/129/111 161/128/111
f 155/125/112 162/131/112 159/130/112
f 158/132/113 157/124/113 161/128/113
f 156/53/114 155/125/114 159/130/114 160/129/114
f 160/133/27 159/137/27 162/136/27 146/117/27 147/115/27 148/114/27 158/135/27 161/134/27
f 374/225/185 366/61/185 368/96/185 375/226/185
f 375/226/186 368/96/186 372/98/186 377/227/186
f 377/227/187 372/98/187 370/100/187 379/228/187
f 379/228/188 370/100/188 366/102/188 374/229/188
f 367/53/189 371/56/189 369/55/189 365/54/189
f 372/98/190 368/59/190 366/58/190 370/100/190
f 369/55/191 380/231/191 373/230/191 365/71/191
f 380/231/34 379/228/34 374/229/34 373/230/34
f 371/56/192 378/232/192 380/231/192 369/55/192
f 378/232/193 377/227/193 379/228/193 380/231/193
f 367/76/194 376/233/194 378/232/194 371/56/194
f 376/233/26 375/226/26 377/227/26 378/232/26
f 365/75/195 373/234/195 376/233/195 367/76/195
f 373/234/196 374/225/196 375/226/196 376/233/196
f 390/225/197 391/226/197 384/96/197 382/61/197
f 391/226/198 393/227/198 388/98/198 384/96/198
f 393/227/199 395/228/199 386/100/199 388/98/199
f 395/228/200 390/229/200 382/102/200 386/100/200
f 383/53/201 381/54/201 385/55/201 387/56/201
f 388/98/202 386/100/202 382/58/202 384/59/202
f 385/55/203 381/71/203 389/230/203 396/231/203
f 396/231/34 389/230/34 390/229/34 395/228/34
f 387/56/204 385/55/204 396/231/204 394/232/204
f 394/232/205 396/231/205 395/228/205 393/227/205
f 383/76/206 387/56/206 394/232/206 392/233/206
f 392/233/26 394/232/26 393/227/26 391/226/26
f 381/75/207 383/76/207 392/233/207 389/234/207
f 389/234/208 392/233/208 391/226/208 390/225/208
usemtl Material.008
f 58/53/27 57/56/27 43/55/27 41/54/27
f 45/57/35 59/60/35 60/59/35 47/58/35
f 47/61/36 60/64/36 61/63/36 46/62/36
f 63/65/37 52/68/37 53/67/37 62/66/37
f 62/66/38 53/67/38 51/70/38 64/69/38
f 43/55/34 51/70/34 53/67/34 52/68/34 45/74/34 47/73/34 46/72/34 41/71/34
f 41/75/28 46/62/28 61/63/28 58/76/28
f 63/65/25 59/60/25 45/57/25 52/68/25
f 48/77/39 50/78/39 68/78/39 66/77/39
f 57/56/33 64/69/33 51/70/33 43/55/33
f 56/79/40 55/80/40 65/80/40 67/79/40
f 49/81/25 54/82/25 79/82/25 75/81/25
f 42/83/41 44/84/41 57/56/41 58/76/41
f 49/81/42 50/78/42 60/64/42 59/85/42
f 50/78/43 48/77/43 61/63/43 60/64/43
f 56/79/44 54/82/44 63/65/44 62/66/44
f 55/80/45 56/79/45 62/66/45 64/69/45
f 48/77/46 42/83/46 58/76/46 61/63/46
f 54/82/47 49/81/47 59/85/47 63/65/47
f 44/84/48 55/80/48 64/69/48 57/56/48
f 78/86/49 80/87/49 81/87/49 83/86/49
f 71/88/27 72/89/27 88/89/27 87/88/27
f 76/90/50 71/88/50 87/88/50 84/90/50
f 44/84/27 42/83/27 74/83/27 73/84/27
f 55/80/33 44/84/33 73/84/33 65/80/33
f 42/83/28 48/77/28 66/77/28 74/83/28
f 54/82/51 56/79/51 67/79/51 79/82/51
f 50/78/52 49/81/52 75/81/52 68/78/52
f 70/91/53 69/92/53 73/84/53 74/83/53
f 71/88/54 76/90/54 68/78/54 75/81/54
f 76/90/55 77/93/55 66/77/55 68/78/55
f 78/86/56 72/89/56 79/82/56 67/79/56
f 80/87/57 78/86/57 67/79/57 65/80/57
f 77/93/58 70/91/58 74/83/58 66/77/58
f 72/89/59 71/88/59 75/81/59 79/82/59
f 69/92/60 80/87/60 65/80/60 73/84/60
f 86/91/61 82/93/61 81/87/61 85/92/61
f 81/87/62 82/93/62 84/90/62 83/86/62
f 83/86/63 84/90/63 87/88/63 88/89/63
f 77/93/64 76/90/64 84/90/64 82/93/64
f 69/92/25 70/91/25 86/91/25 85/92/25
f 80/87/28 69/92/28 85/92/28 81/87/28
f 70/91/33 77/93/33 82/93/33 86/91/33
f 72/89/65 78/86/65 83/86/65 88/89/65
usemtl Material.012
f 105/94/66 90/61/66 92/96/66 106/95/66
f 106/95/26 92/96/26 96/98/26 107/97/26
f 107/97/67 96/98/67 94/100/67 108/99/67
f 108/99/34 94/100/34 90/102/34 105/101/34
f 91/53/27 95/56/27 93/55/27 89/54/27
f 92/96/68 90/61/68 109/61/68 110/96/68
f 93/55/34 100/104/34 97/103/34 89/71/34
f 95/56/69 99/105/69 100/104/69 93/55/69
f 91/76/26 98/106/26 99/105/26 95/56/26
f 89/75/70 97/107/70 98/106/70 91/76/70
f 100/104/34 104/109/34 101/108/34 97/103/34
f 99/105/33 103/110/33 104/109/33 100/104/33
f 98/106/26 102/111/26 103/110/26 99/105/26
f 97/107/28 101/112/28 102/111/28 98/106/28
f 104/109/34 108/99/34 105/101/34 101/108/34
f 103/110/71 107/97/71 108/99/71 104/109/71
f 102/111/26 106/95/26 107/97/26 103/110/26
f 101/112/72 105/94/72 106/95/72 102/111/72
f 111/98/73 110/59/73 109/58/73 112/100/73
f 90/102/34 94/100/34 112/100/34 109/102/34
f 96/98/26 92/96/26 110/96/26 111/98/26
f 94/100/74 96/98/74 111/98/74 112/100/74
f 463/94/234 464/95/234 450/96/234 448/61/234
f 464/95/26 465/97/26 454/98/26 450/96/26
f 465/97/235 466/99/235 452/100/235 454/98/235
f 466/99/34 463/101/34 448/102/34 452/100/34
f 449/53/27 447/54/27 451/55/27 453/56/27
f 450/96/236 468/96/236 467/61/236 448/61/236
f 451/55/34 447/71/34 455/103/34 458/104/34
f 453/56/237 451/55/237 458/104/237 457/105/237
f 449/76/26 453/56/26 457/105/26 456/106/26
f 447/75/238 449/76/238 456/106/238 455/107/238
f 458/104/34 455/103/34 459/108/34 462/109/34
f 457/105/28 458/104/28 462/109/28 461/110/28
f 456/106/26 457/105/26 461/110/26 460/111/26
f 455/107/33 456/106/33 460/111/33 459/112/33
f 462/109/34 459/108/34 463/101/34 466/99/34
f 461/110/239 462/109/239 466/99/239 465/97/239
f 460/111/26 461/110/26 465/97/26 464/95/26
f 459/112/240 460/111/240 464/95/240 463/94/240
f 469/98/241 470/100/241 467/58/241 468/59/241
f 448/102/34 467/102/34 470/100/34 452/100/34
f 454/98/26 469/98/26 468/96/26 450/96/26
f 452/100/242 470/100/242 469/98/242 454/98/242
f 487/94/234 488/95/234 474/96/234 472/61/234
f 488/95/26 489/97/26 478/98/26 474/96/26
f 489/97/235 490/99/235 476/100/235 478/98/235
f 490/99/34 487/101/34 472/102/34 476/100/34
f 473/53/27 471/54/27 475/55/27 477/56/27
f 474/96/236 492/96/236 491/61/236 472/61/236
f 475/55/34 471/71/34 479/103/34 482/104/34
f 477/56/237 475/55/237 482/104/237 481/105/237
f 473/76/26 477/56/26 481/105/26 480/106/26
f 471/75/238 473/76/238 480/106/238 479/107/238
f 482/104/34 479/103/34 483/108/34 486/109/34
f 481/105/28 482/104/28 486/109/28 485/110/28
f 480/106/26 481/105/26 485/110/26 484/111/26
f 479/107/33 480/106/33 484/111/33 483/112/33
f 486/109/34 483/108/34 487/101/34 490/99/34
f 485/110/239 486/109/239 490/99/239 489/97/239
f 484/111/26 485/110/26 489/97/26 488/95/26
f 483/112/240 484/111/240 488/95/240 487/94/240
f 493/98/241 494/100/241 491/58/241 492/59/241
f 472/102/34 491/102/34 494/100/34 476/100/34
f 478/98/26 493/98/26 492/96/26 474/96/26
f 476/100/242 494/100/242 493/98/242 478/98/242
f 511/94/66 496/61/66 498/96/66 512/95/66
f 512/95/26 498/96/26 502/98/26 513/97/26
f 513/97/67 502/98/67 500/100/67 514/99/67
f 514/99/34 500/100/34 496/102/34 511/101/34
f 497/53/27 501/56/27 499/55/27 495/54/27
f 498/96/68 496/61/68 515/61/68 516/96/68
f 499/55/34 506/104/34 503/103/34 495/71/34
f 501/56/69 505/105/69 506/104/69 499/55/69
f 497/76/26 504/106/26 505/105/26 501/56/26
f 495/75/70 503/107/70 504/106/70 497/76/70
f 506/104/34 510/109/34 507/108/34 503/103/34
f 505/105/33 509/110/33 510/109/33 506/104/33
f 504/106/26 508/111/26 509/110/26 505/105/26
f 503/107/28 507/112/28 508/111/28 504/106/28
f 510/109/34 514/99/34 511/101/34 507/108/34
f 509/110/71 513/97/71 514/99/71 510/109/71
f 508/111/26 512/95/26 513/97/26 509/110/26
f 507/112/72 511/94/72 512/95/72 508/111/72
f 517/98/73 516/59/73 515/58/73 518/100/73
f 496/102/34 500/100/34 518/100/34 515/102/34
f 502/98/26 498/96/26 516/96/26 517/98/26
f 500/100/74 502/98/74 517/98/74 518/100/74
f 535/94/66 520/61/66 522/96/66 536/95/66
f 536/95/26 522/96/26 526/98/26 537/97/26
f 537/97/67 526/98/67 524/100/67 538/99/67
f 538/99/34 524/100/34 520/102/34 535/101/34
f 521/53/27 525/56/27 523/55/27 519/54/27
f 522/96/68 520/61/68 539/61/68 540/96/68
f 523/55/34 530/104/34 527/103/34 519/71/34
f 525/56/69 529/105/69 530/104/69 523/55/69
f 521/76/26 528/106/26 529/105/26 525/56/26
f 519/75/70 527/107/70 528/106/70 521/76/70
f 530/104/34 534/109/34 531/108/34 527/103/34
f 529/105/33 533/110/33 534/109/33 530/104/33
f 528/106/26 532/111/26 533/110/26 529/105/26
f 527/107/28 531/112/28 532/111/28 528/106/28
f 534/109/34 538/99/34 535/101/34 531/108/34
f 533/110/71 537/97/71 538/99/71 534/109/71
f 532/111/26 536/95/26 537/97/26 533/110/26
f 531/112/72 535/94/72 536/95/72 532/111/72
f 541/98/73 540/59/73 539/58/73 542/100/73
f 520/102/34 524/100/34 542/100/34 539/102/34
f 526/98/26 522/96/26 540/96/26 541/98/26
f 524/100/74 526/98/74 541/98/74 542/100/74
f 559/94/234 560/95/234 546/96/234 544/61/234
f 560/95/26 561/97/26 550/98/26 546/96/26
f 561/97/235 562/99/235 548/100/235 550/98/235
f 562/99/34 559/101/34 544/102/34 548/100/34
f 545/53/27 543/54/27 547/55/27 549/56/27
f 546/96/236 564/96/236 563/61/236 544/61/236
f 547/55/34 543/71/34 551/103/34 554/104/34
f 549/56/237 547/55/237 554/104/237 553/105/237
f 545/76/26 549/56/26 553/105/26 552/106/26
f 543/75/238 545/76/238 552/106/238 551/107/238
f 554/104/34 551/103/34 555/108/34 558/109/34
f 553/105/28 554/104/28 558/109/28 557/110/28
f 552/106/26 553/105/26 557/110/26 556/111/26
f 551/107/33 552/106/33 556/111/33 555/112/33
f 558/109/34 555/108/34 559/101/34 562/99/34
f 557/110/239 558/109/239 562/99/239 561/97/239
f 556/111/26 557/110/26 561/97/26 560/95/26
f 555/112/240 556/111/240 560/95/240 559/94/240
f 565/98/241 566/100/241 563/58/241 564/59/241
f 544/102/34 563/102/34 566/100/34 548/100/34
f 550/98/26 565/98/26 564/96/26 546/96/26
f 548/100/242 566/100/242 565/98/242 550/98/242
f 583/94/66 568/61/66 570/96/66 584/95/66
f 584/95/26 570/96/26 574/98/26 585/97/26
f 585/97/67 574/98/67 572/100/67 586/99/67
f 586/99/34 572/100/34 568/102/34 583/101/34
f 569/53/27 573/56/27 571/55/27 567/54/27
f 570/96/68 568/61/68 587/61/68 588/96/68
f 571/55/34 578/104/34 575/103/34 567/71/34
f 573/56/69 577/105/69 578/104/69 571/55/69
f 569/76/26 576/106/26 577/105/26 573/56/26
f 567/75/70 575/107/70 576/106/70 569/76/70
f 578/104/34 582/109/34 579/108/34 575/103/34
f 577/105/33 581/110/33 582/109/33 578/104/33
f 576/106/26 580/111/26 581/110/26 577/105/26
f 575/107/28 579/112/28 580/111/28 576/106/28
f 582/109/34 586/99/34 583/101/34 579/108/34
f 581/110/71 585/97/71 586/99/71 582/109/71
f 580/111/26 584/95/26 585/97/26 581/110/26
f 579/112/72 583/94/72 584/95/72 580/111/72
f 589/98/73 588/59/73 587/58/73 590/100/73
f 568/102/34 572/100/34 590/100/34 587/102/34
f 574/98/26 570/96/26 588/96/26 589/98/26
f 572/100/74 574/98/74 589/98/74 590/100/74
f 607/94/234 608/95/234 594/96/234 592/61/234
f 608/95/26 609/97/26 598/98/26 594/96/26
f 609/97/235 610/99/235 596/100/235 598/98/235
f 610/99/34 607/101/34 592/102/34 596/100/34
f 593/53/27 591/54/27 595/55/27 597/56/27
f 594/96/236 612/96/236 611/61/236 592/61/236
f 595/55/34 591/71/34 599/103/34 602/104/34
f 597/56/237 595/55/237 602/104/237 601/105/237
f 593/76/26 597/56/26 601/105/26 600/106/26
f 591/75/238 593/76/238 600/106/238 599/107/238
f 602/104/34 599/103/34 603/108/34 606/109/34
f 601/105/28 602/104/28 606/109/28 605/110/28
f 600/106/26 601/105/26 605/110/26 604/111/26
f 599/107/33 600/106/33 604/111/33 603/112/33
f 606/109/34 603/108/34 607/101/34 610/99/34
f 605/110/239 606/109/239 610/99/239 609/97/239
f 604/111/26 605/110/26 609/97/26 608/95/26
f 603/112/240 604/111/240 608/95/240 607/94/240
f 613/98/241 614/100/241 611/58/241 612/59/241
f 592/102/34 611/102/34 614/100/34 596/100/34
f 598/98/26 613/98/26 612/96/26 594/96/26
f 596/100/242 614/100/242 613/98/242 598/98/242
usemtl Material.006
f 132/138/92 140/138/92 141/138/92 133/138/92
f 135/138/95 143/138/95 144/138/95 136/138/95
f 131/138/97 138/138/97 140/138/97 132/138/97
f 136/138/98 144/138/98 145/138/98 137/138/98
f 217/139/115 219/141/115 218/140/115
f 216/142/115 219/141/115 217/139/115
f 216/142/115 220/143/115 219/141/115
f 215/144/115 220/143/115 216/142/115
f 215/144/115 213/138/115 220/143/115
f 214/145/115 213/138/115 215/144/115
f 221/146/116 228/149/116 236/148/116 229/147/116
f 222/150/117 221/138/117 229/152/117 230/151/117
f 223/128/118 222/150/118 230/151/118 231/153/118
f 224/154/119 223/128/119 231/153/119 232/155/119
f 225/129/120 224/154/120 232/155/120 233/156/120
f 226/157/121 225/129/121 233/156/121 234/158/121
f 227/159/122 226/157/122 234/158/122 235/160/122
f 228/149/123 227/159/123 235/160/123 236/148/123
f 229/161/124 236/164/124 244/163/124 237/162/124
f 230/165/125 229/168/125 237/167/125 238/166/125
f 231/169/126 230/165/126 238/166/126 239/114/126
f 232/170/127 231/169/127 239/114/127 240/171/127
f 233/172/128 232/170/128 240/171/128 241/115/128
f 234/173/129 233/172/129 241/115/129 242/174/129
f 235/175/130 234/173/130 242/174/130 243/176/130
f 236/164/131 235/175/131 243/176/131 244/163/131
f 237/162/132 244/163/132 252/178/132 245/177/132
f 238/166/133 237/167/133 245/180/133 246/179/133
f 239/114/134 238/166/134 246/179/134 247/181/134
f 240/171/135 239/114/135 247/181/135 248/182/135
f 241/115/136 240/171/136 248/182/136 249/183/136
f 242/174/137 241/115/137 249/183/137 250/184/137
f 243/176/138 242/174/138 250/184/138 251/185/138
f 244/163/139 243/176/139 251/185/139 252/178/139
f 245/177/140 252/178/140 260/187/140 253/186/140
f 246/179/141 245/180/141 253/189/141 254/188/141
f 247/181/142 246/179/142 254/188/142 255/190/142
f 248/182/143 247/181/143 255/190/143 256/191/143
f 249/183/144 248/182/144 256/191/144 257/192/144
f 250/184/145 249/183/145 257/192/145 258/193/145
f 251/185/146 250/184/146 258/193/146 259/194/146
f 252/178/147 251/185/147 259/194/147 260/187/147
usemtl Material.007
f 175/113/75 165/114/75 168/76/75
f 164/115/76 163/117/76 166/116/76 167/56/76
f 165/114/77 164/115/77 167/56/77 168/76/77
f 163/117/78 179/118/78 166/116/78
f 166/116/79 179/120/79 169/119/79
f 175/121/80 168/76/80 171/122/80
f 167/56/81 166/116/81 169/119/81 170/123/81
f 168/76/82 167/56/82 170/123/82 171/122/82
f 171/122/83 170/123/83 173/53/83 174/124/83
f 169/119/84 179/126/84 172/125/84
f 175/127/85 171/122/85 174/124/85
f 170/123/86 169/119/86 172/125/86 173/53/86
f 174/124/87 173/53/87 177/129/87 178/128/87
f 172/125/88 179/131/88 176/130/88
f 175/132/89 174/124/89 178/128/89
f 173/53/90 172/125/90 176/130/90 177/129/90
f 177/133/25 176/137/25 179/136/25 163/117/25 164/115/25 165/114/25 175/135/25 178/134/25
f 181/138/27 182/138/27 183/138/27 184/138/27 185/138/27 186/138/27 187/138/27 180/138/27
f 188/138/25 189/138/25 195/138/25 194/138/25 193/138/25 192/138/25 191/138/25 190/138/25
f 184/138/91 192/138/91 193/138/91 185/138/91
f 180/138/93 189/138/93 188/138/93 181/138/93
f 187/138/94 195/138/94 189/138/94 180/138/94
f 183/138/96 191/138/96 192/138/96 184/138/96
f 208/113/99 198/114/99 201/76/99
f 197/115/100 196/117/100 199/116/100 200/56/100
f 198/114/101 197/115/101 200/56/101 201/76/101
f 196/117/102 212/118/102 199/116/102
f 199/116/103 212/120/103 202/119/103
f 208/121/104 201/76/104 204/122/104
f 200/56/105 199/116/105 202/119/105 203/123/105
f 201/76/106 200/56/106 203/123/106 204/122/106
f 204/122/107 203/123/107 206/53/107 207/124/107
f 202/119/108 212/126/108 205/125/108
f 208/127/109 204/122/109 207/124/109
f 203/123/110 202/119/110 205/125/110 206/53/110
f 207/124/111 206/53/111 210/129/111 211/128/111
f 205/125/112 212/131/112 209/130/112
f 208/132/113 207/124/113 211/128/113
f 206/53/114 205/125/114 209/130/114 210/129/114
f 210/133/27 209/137/27 212/136/27 196/117/27 197/115/27 198/114/27 208/135/27 211/134/27
usemtl Material.009
f 182/138/92 190/138/92 191/138/92 183/138/92
f 185/138/95 193/138/95 194/138/95 186/138/95
f 181/138/97 188/138/97 190/138/97 182/138/97
f 186/138/98 194/138/98 195/138/98 187/138/98
f 309/133/37 310/196/37 312/195/37 311/59/37
f 311/59/38 312/195/38 314/198/38 313/197/38
f 313/197/181 314/198/181 316/102/181 315/98/181
f 315/98/182 316/102/182 318/162/182 317/115/182
f 317/115/183 318/162/183 320/71/183 319/56/183
f 319/56/184 320/71/184 322/199/184 321/123/184
f 312/200/34 310/207/34 324/206/34 322/205/34 320/204/34 318/203/34 316/202/34 314/201/34
f 321/123/36 322/199/36 324/208/36 323/53/36
f 323/53/35 324/208/35 310/146/35 309/129/35
f 323/53/34 309/129/34 325/129/34 332/53/34
f 332/53/35 325/129/35 341/129/35 348/53/35
f 309/133/34 311/59/34 326/59/34 325/133/34
f 313/197/34 315/98/34 328/98/34 327/197/34
f 319/56/34 321/123/34 331/123/34 330/56/34
f 315/98/34 317/115/34 329/115/34 328/98/34
f 321/123/34 323/53/34 332/53/34 331/123/34
f 311/59/34 313/197/34 327/197/34 326/59/34
f 317/115/34 319/56/34 330/56/34 329/115/34
f 335/209/36 336/210/36 352/210/36 351/209/36
f 330/56/184 331/123/184 347/123/184 346/56/184
f 328/98/182 329/115/182 345/115/182 344/98/182
f 326/59/38 327/197/38 343/197/38 342/59/38
f 331/123/36 332/53/36 348/53/36 347/123/36
f 329/115/183 330/56/183 346/56/183 345/115/183
f 327/197/181 328/98/181 344/98/181 343/197/181
f 325/133/37 326/59/37 342/59/37 341/133/37
f 334/211/26 333/214/26 341/213/26 342/212/26
f 335/209/26 334/211/26 342/212/26 343/215/26
f 336/210/26 335/209/26 343/215/26 344/216/26
f 337/217/26 336/210/26 344/216/26 345/218/26
f 338/219/26 337/217/26 345/218/26 346/220/26
f 339/221/26 338/219/26 346/220/26 347/222/26
f 340/223/26 339/221/26 347/222/26 348/224/26
f 333/214/26 340/223/26 348/224/26 341/213/26
f 333/214/183 334/211/183 350/211/183 349/214/183
f 340/223/182 333/214/182 349/214/182 356/223/182
f 338/219/38 339/221/38 355/221/38 354/219/38
f 336/210/35 337/217/35 353/217/35 352/210/35
f 334/211/184 335/209/184 351/209/184 350/211/184
f 339/221/181 340/223/181 356/223/181 355/221/181
f 337/217/37 338/219/37 354/219/37 353/217/37
usemtl Material.005
f 265/139/148 266/140/148 267/141/148
f 264/142/148 265/139/148 267/141/148
f 264/142/148 267/141/148 268/143/148
f 263/144/148 264/142/148 268/143/148
f 263/144/148 268/143/148 261/138/148
f 262/145/148 263/144/148 261/138/148
f 269/146/149 277/147/149 284/148/149 276/149/149
f 270/150/150 278/151/150 277/152/150 269/138/150
f 271/128/151 279/153/151 278/151/151 270/150/151
f 272/154/152 280/155/152 279/153/152 271/128/152
f 273/129/153 281/156/153 280/155/153 272/154/153
f 274/157/154 282/158/154 281/156/154 273/129/154
f 275/159/155 283/160/155 282/158/155 274/157/155
f 276/149/156 284/148/156 283/160/156 275/159/156
f 277/161/157 285/162/157 292/163/157 284/164/157
f 278/165/158 286/166/158 285/167/158 277/168/158
f 279/169/159 287/114/159 286/166/159 278/165/159
f 280/170/160 288/171/160 287/114/160 279/169/160
f 281/172/161 289/115/161 288/171/161 280/170/161
f 282/173/162 290/174/162 289/115/162 281/172/162
f 283/175/163 291/176/163 290/174/163 282/173/163
f 284/164/164 292/163/164 291/176/164 283/175/164
f 285/162/165 293/177/165 300/178/165 292/163/165
f 286/166/166 294/179/166 293/180/166 285/167/166
f 287/114/167 295/181/167 294/179/167 286/166/167
f 288/171/168 296/182/168 295/181/168 287/114/168
f 289/115/169 297/183/169 296/182/169 288/171/169
f 290/174/170 298/184/170 297/183/170 289/115/170
f 291/176/171 299/185/171 298/184/171 290/174/171
f 292/163/172 300/178/172 299/185/172 291/176/172
f 293/177/173 301/186/173 308/187/173 300/178/173
f 294/179/174 302/188/174 301/189/174 293/180/174
f 295/181/175 303/190/175 302/188/175 294/179/175
f 296/182/176 304/191/176 303/190/176 295/181/176
f 297/183/177 305/192/177 304/191/177 296/182/177
f 298/184/178 306/193/178 305/192/178 297/183/178
f 299/185/179 307/194/179 306/193/179 298/184/179
f 300/178/180 308/187/180 307/194/180 299/185/180
usemtl Material.002
f 358/138/26 357/138/26 364/138/26 363/138/26 362/138/26 361/138/26 360/138/26 359/138/26
f 445/235/209 440/239/209 407/238/209 408/237/209 397/236/209
f 440/138/212 443/138/212 423/138/212 418/138/212 405/138/212 406/138/212 407/138/212
f 433/245/214 436/250/214 426/249/214 427/248/214 403/247/214 446/246/214
f 434/251/215 437/254/215 429/253/215 424/252/215 421/138/215 410/242/215 411/240/215
f 403/247/218 427/248/218 428/255/218 437/254/218 434/251/218 400/259/218 401/258/218 402/257/218
f 439/243/219 442/138/219 420/138/219 421/138/219 424/252/219 425/256/219 436/250/219 433/245/219
f 400/259/220 434/251/220 432/262/220 398/261/220 399/260/220
f 434/251/222 411/240/222 409/241/222 440/239/222 445/235/222 432/262/222
f 410/138/223 421/138/223 422/138/223 443/138/223 440/138/223 409/138/223
f 405/263/224 418/138/224 419/138/224 442/138/224 439/243/224 404/244/224
usemtl Material.010
f 411/240/210 410/242/210 409/241/210
f 442/138/213 419/138/213 418/138/213 423/138/213 443/138/213
f 437/254/216 428/255/216 427/248/216 426/249/216 436/250/216
f 429/253/217 437/254/217 436/250/217 425/256/217 424/252/217
f 420/138/221 442/138/221 443/138/221 422/138/221 421/138/221
usemtl Material.013
f 439/243/211 441/138/211 415/138/211 404/244/211
f 445/235/225 397/236/225 408/237/225 416/138/225 444/138/225
f 398/261/226 432/262/226 435/138/226 417/138/226 401/258/226 400/259/226 399/260/226
f 432/262/227 445/235/227 444/138/227 430/138/227 435/138/227
f 414/138/228 438/138/228 446/246/228 403/247/228
f 438/138/229 431/138/229 441/138/229 439/243/229 433/245/229 446/246/229
f 416/138/230 408/237/230 407/138/230 406/138/230 405/263/230 413/138/230
f 404/244/231 415/138/231 413/138/231 405/263/231
f 403/247/232 402/257/232 412/138/232 414/138/232
f 401/258/233 417/138/233 412/138/233 402/257/233
