# Blender 4.5.3 LTS
# www.blender.org
mtllib turret3_base.mtl
o Cylinder.003
v -0.468160 -0.360301 0.231778
v -0.286871 -0.181766 1.244297
v -0.438162 -0.433641 0.239339
v -0.256873 -0.255107 1.251858
v -0.365740 -0.465857 0.232052
v -0.184451 -0.287322 1.244572
v -0.293318 -0.438076 0.214187
v -0.112030 -0.259542 1.226706
v -0.263320 -0.366573 0.196208
v -0.082031 -0.188038 1.208728
v -0.293318 -0.293232 0.188647
v -0.112030 -0.114698 1.201167
v -0.365740 -0.261017 0.195934
v -0.184451 -0.082482 1.208453
v -0.438162 -0.288797 0.213799
v -0.256873 -0.110263 1.226318
v -0.300000 0.300000 1.300000
v -0.300000 -0.300000 1.300000
v 0.300000 0.300000 1.300000
v 0.300000 -0.300000 1.300000
v 0.300000 0.300000 1.176438
v -0.300000 0.300000 1.176438
v -0.300000 -0.300000 1.176438
v 0.300000 -0.300000 1.176438
v 0.462051 -0.360301 0.231778
v 0.280762 -0.181766 1.244298
v 0.432053 -0.433641 0.239339
v 0.250764 -0.255107 1.251858
v 0.359631 -0.465857 0.232052
v 0.178342 -0.287322 1.244572
v 0.287209 -0.438076 0.214187
v 0.105921 -0.259542 1.226706
v 0.257211 -0.366573 0.196208
v 0.075922 -0.188038 1.208728
v 0.287209 -0.293232 0.188647
v 0.105921 -0.114698 1.201167
v 0.359631 -0.261017 0.195934
v 0.178342 -0.082482 1.208453
v 0.432053 -0.288797 0.213799
v 0.250764 -0.110263 1.226318
v 0.354499 -0.219527 0.201386
v 0.385772 -0.188254 0.245613
v 0.323226 -0.188254 0.245613
v 0.385772 -0.188254 0.336373
v 0.354499 -0.219527 0.380600
v 0.323226 -0.188254 0.336373
v 0.231616 -0.342410 0.201386
v 0.200343 -0.311137 0.245613
v 0.200343 -0.373683 0.245613
v 0.231616 -0.342410 0.380600
v 0.200343 -0.373683 0.336373
v 0.200343 -0.311137 0.336373
v 0.477382 -0.342410 0.201386
v 0.508655 -0.373683 0.245613
v 0.508655 -0.311137 0.245613
v 0.477382 -0.342410 0.380600
v 0.508655 -0.311137 0.336373
v 0.508655 -0.373683 0.336373
v 0.354499 -0.465293 0.201386
v 0.323226 -0.496566 0.245613
v 0.385772 -0.496566 0.245613
v 0.354499 -0.465293 0.380600
v 0.385772 -0.496566 0.336373
v 0.323226 -0.496566 0.336373
v 0.462051 0.361263 0.231778
v 0.280762 0.182728 1.244298
v 0.432053 0.434603 0.239339
v 0.250764 0.256068 1.251858
v 0.359631 0.466819 0.232053
v 0.178342 0.288284 1.244572
v 0.287209 0.439038 0.214187
v 0.105921 0.260503 1.226706
v 0.257211 0.367534 0.196208
v 0.075922 0.189000 1.208727
v 0.287209 0.294194 0.188647
v 0.105921 0.115659 1.201167
v 0.359631 0.261978 0.195934
v 0.178342 0.083444 1.208453
v 0.432053 0.289759 0.213799
v 0.250764 0.111224 1.226318
v 0.477382 0.343372 0.201386
v 0.508655 0.312099 0.245613
v 0.508655 0.374645 0.245613
v 0.508655 0.312099 0.336373
v 0.477382 0.343372 0.380600
v 0.508655 0.374645 0.336373
v 0.354499 0.466254 0.201386
v 0.385772 0.497527 0.245613
v 0.323226 0.497528 0.245613
v 0.354499 0.466254 0.380600
v 0.323226 0.497527 0.336373
v 0.385772 0.497527 0.336373
v 0.354499 0.220489 0.201386
v 0.323226 0.189216 0.245613
v 0.385772 0.189216 0.245613
v 0.354499 0.220489 0.380600
v 0.385772 0.189216 0.336373
v 0.323226 0.189216 0.336373
v 0.231616 0.343372 0.201386
v 0.200343 0.374645 0.245613
v 0.200343 0.312099 0.245613
v 0.231616 0.343372 0.380600
v 0.200343 0.312099 0.336373
v 0.200343 0.374645 0.336373
v -0.468160 0.361263 0.231778
v -0.286871 0.182728 1.244298
v -0.438162 0.434603 0.239339
v -0.256873 0.256068 1.251858
v -0.365740 0.466819 0.232052
v -0.184451 0.288284 1.244572
v -0.293318 0.439038 0.214187
v -0.112029 0.260503 1.226706
v -0.263320 0.367534 0.196208
v -0.082031 0.189000 1.208728
v -0.293318 0.294194 0.188647
v -0.112029 0.115659 1.201167
v -0.365740 0.261978 0.195934
v -0.184451 0.083444 1.208453
v -0.438162 0.289759 0.213799
v -0.256873 0.111224 1.226318
v -0.360608 0.466255 0.201386
v -0.329335 0.497527 0.245613
v -0.391881 0.497527 0.245613
v -0.329335 0.497527 0.336373
v -0.360608 0.466254 0.380600
v -0.391881 0.497528 0.336373
v -0.483491 0.343372 0.201386
v -0.514764 0.374645 0.245613
v -0.514764 0.312099 0.245613
v -0.483491 0.343372 0.380600
v -0.514764 0.312099 0.336373
v -0.514764 0.374645 0.336373
v -0.237725 0.343372 0.201386
v -0.206452 0.312099 0.245613
v -0.206452 0.374645 0.245613
v -0.237725 0.343372 0.380600
v -0.206452 0.374645 0.336373
v -0.206452 0.312099 0.336373
v -0.360608 0.220489 0.201386
v -0.391881 0.189216 0.245613
v -0.329335 0.189216 0.245613
v -0.360608 0.220489 0.380600
v -0.329335 0.189216 0.336373
v -0.391881 0.189216 0.336373
v -0.237725 -0.342410 0.201386
v -0.206452 -0.373683 0.245613
v -0.206452 -0.311137 0.245613
v -0.206452 -0.373683 0.336373
v -0.237725 -0.342410 0.380600
v -0.206452 -0.311137 0.336373
v -0.360608 -0.219527 0.201386
v -0.329335 -0.188254 0.245613
v -0.391881 -0.188254 0.245613
v -0.360608 -0.219527 0.380600
v -0.391881 -0.188254 0.336373
v -0.329335 -0.188254 0.336373
v -0.360608 -0.465293 0.201386
v -0.391881 -0.496566 0.245613
v -0.329335 -0.496566 0.245613
v -0.360608 -0.465293 0.380600
v -0.329335 -0.496566 0.336373
v -0.391881 -0.496566 0.336373
v -0.483491 -0.342410 0.201386
v -0.514764 -0.311137 0.245613
v -0.514764 -0.373683 0.245613
v -0.483491 -0.342410 0.380600
v -0.514764 -0.373683 0.336373
v -0.514764 -0.311137 0.336373
v 0.127878 -0.127878 1.480846
v 0.180846 -0.180846 1.300000
v -0.000000 -0.180846 1.480846
v -0.000000 -0.255755 1.300000
v -0.127878 -0.127878 1.480846
v -0.180846 -0.180846 1.300000
v -0.180846 0.000000 1.480846
v -0.255755 -0.000000 1.300000
v -0.127878 0.127878 1.480846
v -0.180846 0.180846 1.300000
v 0.000000 0.180846 1.480846
v 0.000000 0.255755 1.300000
v 0.127878 0.127878 1.480846
v 0.180846 0.180846 1.300000
v 0.000000 -0.000000 1.555755
v 0.180846 -0.000000 1.480846
v 0.255755 -0.000000 1.300000
v 0.927184 0.374607 0.000000
v 0.390731 0.920505 0.000000
v -0.374607 0.927184 -0.000000
v -0.920505 0.390731 0.000000
v -0.927184 -0.374607 -0.000000
v -0.390731 -0.920505 0.000000
v 0.374607 -0.927184 0.000000
v 0.920505 -0.390731 0.000000
v 0.927184 0.374607 0.311450
v 0.390731 0.920505 0.311450
v -0.374607 0.927184 0.311450
v -0.920505 0.390731 0.311450
v -0.927184 -0.374607 0.311450
v -0.390731 -0.920505 0.311450
v 0.374607 -0.927184 0.311450
v 0.920505 -0.390731 0.311450
vn -0.9098 -0.3490 0.2244
vn -0.3769 -0.8983 0.2259
vn 0.3769 -0.9214 0.0950
vn 0.9098 -0.4047 -0.0915
vn 0.9098 0.3490 -0.2244
vn 0.3769 0.8983 -0.2259
vn 0.1736 0.1710 0.9698
vn -0.3769 0.9214 -0.0950
vn -0.9098 0.4047 0.0915
vn -0.1736 -0.1710 -0.9698
vn -0.0000 -0.0000 1.0000
vn -0.0000 -0.0000 -1.0000
vn 1.0000 -0.0000 -0.0000
vn -1.0000 -0.0000 -0.0000
vn -0.0000 -1.0000 -0.0000
vn -0.0000 1.0000 -0.0000
vn 0.9098 -0.3490 0.2244
vn 0.3769 -0.8983 0.2259
vn -0.3769 -0.9214 0.0950
vn -0.9098 -0.4047 -0.0915
vn -0.9098 0.3490 -0.2244
vn -0.3769 0.8983 -0.2259
vn -0.1736 0.1710 0.9698
vn 0.3769 0.9214 -0.0950
vn 0.9098 0.4047 0.0915
vn 0.1736 -0.1710 -0.9698
vn -0.0000 0.8165 -0.5774
vn -0.0000 0.8165 0.5774
vn -0.8165 -0.0000 -0.5774
vn -0.8165 -0.0000 0.5774
vn 0.8165 -0.0000 -0.5774
vn 0.8165 -0.0000 0.5774
vn -0.0000 -0.8165 -0.5774
vn -0.0000 -0.8165 0.5774
vn -0.5000 0.5000 -0.7071
vn -0.5000 0.5000 0.7071
vn -0.5000 -0.5000 -0.7071
vn -0.5000 -0.5000 0.7071
vn 0.5000 -0.5000 -0.7071
vn 0.5000 -0.5000 0.7071
vn 0.5000 0.5000 -0.7071
vn 0.5000 0.5000 0.7071
vn -0.7071 0.7071 -0.0000
vn 0.7071 0.7071 -0.0000
vn -0.7071 -0.7071 -0.0000
vn 0.7071 -0.7071 -0.0000
vn 0.9098 0.3490 0.2244
vn 0.3769 0.8983 0.2259
vn -0.3769 0.9214 0.0950
vn -0.9098 0.4047 -0.0915
vn -0.9098 -0.3490 -0.2244
vn -0.3769 -0.8983 -0.2259
vn -0.1736 -0.1710 0.9698
vn 0.3769 -0.9214 -0.0950
vn 0.9098 -0.4047 0.0915
vn 0.1736 0.1710 -0.9698
vn 0.8165 -0.0000 -0.5773
vn -0.9098 0.3490 0.2244
vn -0.3769 0.8983 0.2259
vn 0.3769 0.9214 0.0950
vn 0.9098 0.4047 -0.0915
vn 0.9098 -0.3490 -0.2244
vn 0.3769 -0.8983 -0.2259
vn 0.1736 -0.1710 0.9698
vn -0.3769 -0.9214 -0.0950
vn -0.9098 -0.4047 0.0915
vn -0.1736 0.1710 -0.9698
vn -0.0000 0.8165 -0.5773
vn 0.8165 -0.0000 0.5773
vn 0.8629 -0.3574 0.3574
vn 0.3780 -0.1566 0.9125
vn 0.3574 -0.8629 0.3574
vn 0.1566 -0.3780 0.9125
vn -0.3574 -0.8629 0.3574
vn -0.1566 -0.3780 0.9125
vn -0.8629 -0.3574 0.3574
vn -0.3780 -0.1566 0.9125
vn -0.8629 0.3574 0.3574
vn -0.3780 0.1566 0.9125
vn -0.1566 0.3780 0.9125
vn -0.3574 0.8629 0.3574
vn 0.1566 0.3780 0.9125
vn 0.3574 0.8629 0.3574
vn 0.3780 0.1566 0.9125
vn 0.8629 0.3574 0.3574
vn 0.7009 -0.7133 -0.0000
vn -0.7133 -0.7009 -0.0000
vn -0.7009 0.7133 -0.0000
vn 0.7133 0.7009 -0.0000
vn 1.0000 -0.0087 -0.0000
vn -0.0087 -1.0000 -0.0000
vn -1.0000 0.0087 -0.0000
vn 0.0087 1.0000 -0.0000
vn 0.1737 0.1710 0.9698
vn -0.1737 0.1710 0.9698
vn 0.1737 -0.1710 0.9698
vt 1.000000 0.500000
vt 0.875000 1.000000
vt 1.000000 1.000000
vt 0.750000 0.500000
vt 0.875000 0.500000
vt 0.625000 0.500000
vt 0.750000 1.000000
vt 0.500000 0.500000
vt 0.625000 1.000000
vt 0.375000 0.500000
vt 0.500000 1.000000
vt 0.250000 1.000000
vt 0.375000 1.000000
vt 0.250000 0.010000
vt 0.010000 0.250000
vt 0.250000 0.490000
vt 0.250000 0.500000
vt 0.125000 1.000000
vt 0.125000 0.500000
vt 0.000000 1.000000
vt 0.580294 0.080294
vt 0.919706 0.080294
vt 0.919706 0.419706
vt 1.000000 0.000000
vt 0.000000 0.000000
vt 0.490000 0.250000
vt 0.000000 0.500000
vt 0.580294 0.419706
vt 0.167163 0.707837
vt 0.125000 0.707837
vt 0.167163 0.750000
vt 0.582837 0.000000
vt 0.582837 0.042163
vt 0.625000 0.042163
vt 0.167163 0.542163
vt 0.167163 0.500000
vt 0.125000 0.542163
vt 0.625000 0.246952
vt 0.582837 0.207837
vt 0.582837 0.290831
vt 0.332837 0.707837
vt 0.397410 0.782286
vt 0.415831 0.707837
vt 0.657287 0.727590
vt 0.582837 0.709169
vt 0.582837 0.792163
vt 0.332837 0.542163
vt 0.415831 0.542163
vt 0.397410 0.467713
vt 0.657287 0.522410
vt 0.582837 0.457837
vt 0.582837 0.540831
vt 0.417163 0.000000
vt 0.417163 0.207837
vt 0.417163 0.292163
vt 0.582837 0.957837
vt 0.625000 0.957837
vt 0.417163 0.042163
vt 0.832837 0.542163
vt 0.832837 0.707837
vt 0.417163 0.957837
vt 0.750000 0.750000
vt 0.687500 1.000000
vt 0.625000 0.750000
vt 0.562500 1.000000
vt 0.500000 0.750000
vt 0.437500 1.000000
vt 0.375000 0.750000
vt 0.312500 1.000000
vt 0.250000 0.750000
vt 0.187500 1.000000
vt 0.125000 0.750000
vt 0.062500 1.000000
vt 0.000000 0.750000
vt 1.000000 0.750000
vt 0.937500 1.000000
vt 0.875000 0.750000
vt 0.812500 1.000000
vt 0.419706 0.419706
vt 0.419706 0.080294
vt 0.080294 0.080294
vt 0.080294 0.419706
vt 0.750000 0.490000
vt 0.510000 0.250000
vt 0.750000 0.010000
vt 0.990000 0.250000
s 0
usemtl Material.004
f 1/1/1 4/2/1 2/3/1
f 5/4/2 4/2/2 3/5/2
f 7/6/3 6/7/3 5/4/3
f 9/8/4 8/9/4 7/6/4
f 11/10/5 10/11/5 9/8/5
f 11/10/6 14/12/6 12/13/6
f 10/14/7 14/15/7 2/16/7
f 13/17/8 16/18/8 14/12/8
f 15/19/9 2/20/9 16/18/9
f 11/21/10 7/22/10 3/23/10
f 25/1/17 28/2/17 27/5/17
f 28/2/18 29/4/18 27/5/18
f 30/7/19 31/6/19 29/4/19
f 32/9/20 33/8/20 31/6/20
f 34/11/21 35/10/21 33/8/21
f 35/10/22 38/12/22 37/17/22
f 38/15/23 34/14/23 30/26/23
f 37/17/24 40/18/24 39/19/24
f 39/19/25 26/20/25 25/27/25
f 31/22/26 35/21/26 39/28/26
f 41/29/27 43/30/27 42/31/27
f 44/32/28 46/33/28 45/34/28
f 47/35/29 49/36/29 48/37/29
f 50/38/30 52/39/30 51/40/30
f 53/41/31 55/42/31 54/43/31
f 56/44/32 58/45/32 57/46/32
f 59/47/33 61/48/33 60/49/33
f 62/50/34 64/51/34 63/52/34
f 47/35/35 43/30/35 41/29/35
f 42/53/16 46/33/16 44/32/16
f 46/33/36 50/38/36 45/34/36
f 51/40/14 48/54/14 49/55/14
f 60/49/37 47/35/37 59/47/37
f 50/38/38 64/51/38 62/50/38
f 63/52/15 60/49/15 61/48/15
f 53/41/39 61/48/39 59/47/39
f 63/52/40 56/44/40 62/50/40
f 58/45/13 55/42/13 57/46/13
f 41/29/41 55/42/41 53/41/41
f 56/44/42 44/56/42 45/57/42
f 41/29/12 59/47/12 47/35/12
f 48/54/43 46/33/43 43/58/43
f 55/42/44 44/56/44 57/46/44
f 56/44/11 50/59/11 62/50/11
f 60/49/45 51/40/45 49/55/45
f 54/43/46 63/52/46 61/48/46
f 65/1/47 68/2/47 66/3/47
f 69/4/48 68/2/48 67/5/48
f 71/6/49 70/7/49 69/4/49
f 73/8/50 72/9/50 71/6/50
f 75/10/51 74/11/51 73/8/51
f 75/10/52 78/12/52 76/13/52
f 74/14/53 78/15/53 66/16/53
f 77/17/54 80/18/54 78/12/54
f 79/19/55 66/20/55 80/18/55
f 75/21/56 71/22/56 67/23/56
f 81/29/57 83/30/57 82/31/57
f 84/32/32 86/33/32 85/34/32
f 87/35/27 89/36/27 88/37/27
f 90/38/28 92/39/28 91/40/28
f 93/41/33 95/42/33 94/43/33
f 96/44/34 98/45/34 97/46/34
f 99/47/29 101/48/29 100/49/29
f 102/50/30 104/51/30 103/52/30
f 87/35/41 83/30/41 81/29/41
f 83/58/13 84/32/13 82/53/13
f 85/34/42 92/39/42 90/38/42
f 92/39/16 89/55/16 91/40/16
f 100/49/35 87/35/35 99/47/35
f 91/40/36 102/50/36 90/38/36
f 104/51/14 101/48/14 103/52/14
f 94/43/37 99/47/37 93/41/37
f 103/52/38 96/44/38 102/50/38
f 97/46/15 94/43/15 95/42/15
f 82/31/39 93/41/39 81/29/39
f 96/44/40 84/56/40 85/57/40
f 81/29/12 99/47/12 87/35/12
f 83/58/44 92/39/44 86/33/44
f 95/42/46 84/56/46 97/46/46
f 102/50/11 85/60/11 90/59/11
f 100/49/43 91/40/43 89/55/43
f 94/43/45 103/52/45 101/48/45
f 105/1/58 108/2/58 107/5/58
f 108/2/59 109/4/59 107/5/59
f 110/7/60 111/6/60 109/4/60
f 112/9/61 113/8/61 111/6/61
f 114/11/62 115/10/62 113/8/62
f 115/10/63 118/12/63 117/17/63
f 118/15/64 114/14/64 110/26/64
f 117/17/65 120/18/65 119/19/65
f 119/19/66 106/20/66 105/27/66
f 111/22/67 115/21/67 119/28/67
f 121/29/68 123/30/68 122/31/68
f 124/32/28 126/33/28 125/34/28
f 127/35/29 129/36/29 128/37/29
f 130/38/30 132/39/30 131/40/30
f 133/41/31 135/42/31 134/43/31
f 136/44/69 138/45/69 137/46/69
f 139/47/33 141/48/33 140/49/33
f 142/50/34 144/51/34 143/52/34
f 127/35/35 123/30/35 121/29/35
f 123/58/16 124/32/16 122/53/16
f 125/34/36 132/39/36 130/38/36
f 132/39/14 129/55/14 131/40/14
f 140/49/37 127/35/37 139/47/37
f 131/40/38 142/50/38 130/38/38
f 144/51/15 141/48/15 143/52/15
f 133/41/39 141/48/39 139/47/39
f 143/52/40 136/44/40 142/50/40
f 138/45/13 135/42/13 137/46/13
f 122/31/41 133/41/41 121/29/41
f 137/46/42 125/57/42 136/44/42
f 127/35/12 133/41/12 139/47/12
f 123/58/43 132/39/43 126/33/43
f 122/61/44 137/46/44 135/42/44
f 136/44/11 130/59/11 142/50/11
f 140/49/45 131/40/45 129/55/45
f 134/43/46 143/52/46 141/48/46
f 145/29/31 147/30/31 146/31/31
f 148/32/32 150/33/32 149/34/32
f 151/35/27 153/36/27 152/37/27
f 154/38/28 156/39/28 155/40/28
f 157/41/33 159/42/33 158/43/33
f 160/44/34 162/45/34 161/46/34
f 163/47/29 165/48/29 164/49/29
f 166/50/30 168/51/30 167/52/30
f 151/35/41 147/30/41 145/29/41
f 147/58/13 148/32/13 146/53/13
f 150/33/42 154/38/42 149/34/42
f 156/39/16 153/55/16 155/40/16
f 164/49/35 151/35/35 163/47/35
f 155/40/36 166/50/36 154/38/36
f 168/51/14 165/48/14 167/52/14
f 158/43/37 163/47/37 157/41/37
f 166/50/38 162/45/38 160/44/38
f 162/45/15 159/42/15 161/46/15
f 145/29/39 159/42/39 157/41/39
f 160/44/40 148/56/40 149/57/40
f 145/29/12 163/47/12 151/35/12
f 152/54/44 150/33/44 147/58/44
f 146/61/46 161/46/46 159/42/46
f 166/50/11 149/60/11 154/59/11
f 164/49/43 155/40/43 153/55/43
f 158/43/45 167/52/45 165/48/45
f 1/1/1 3/5/1 4/2/1
f 5/4/2 6/7/2 4/2/2
f 7/6/3 8/9/3 6/7/3
f 9/8/4 10/11/4 8/9/4
f 11/10/5 12/13/5 10/11/5
f 11/10/6 13/17/6 14/12/6
f 2/16/7 4/79/7 6/26/7
f 6/26/94 8/80/94 10/14/94
f 10/14/7 12/81/7 14/15/7
f 14/15/7 16/82/7 2/16/7
f 2/16/7 6/26/7 10/14/7
f 13/17/8 15/19/8 16/18/8
f 15/19/9 1/27/9 2/20/9
f 3/23/10 1/83/10 15/28/10
f 15/28/10 13/84/10 11/21/10
f 11/21/10 9/85/10 7/22/10
f 7/22/10 5/86/10 3/23/10
f 3/23/10 15/28/10 11/21/10
f 25/1/17 26/3/17 28/2/17
f 28/2/18 30/7/18 29/4/18
f 30/7/19 32/9/19 31/6/19
f 32/9/20 34/11/20 33/8/20
f 34/11/21 36/13/21 35/10/21
f 35/10/22 36/13/22 38/12/22
f 30/26/95 28/79/95 26/16/95
f 26/16/23 40/82/23 38/15/23
f 38/15/23 36/81/23 34/14/23
f 34/14/23 32/80/23 30/26/23
f 30/26/23 26/16/23 38/15/23
f 37/17/24 38/12/24 40/18/24
f 39/19/25 40/18/25 26/20/25
f 39/28/26 25/83/26 27/23/26
f 27/23/26 29/86/26 31/22/26
f 31/22/26 33/85/26 35/21/26
f 35/21/26 37/84/26 39/28/26
f 39/28/26 27/23/26 31/22/26
f 47/35/35 48/37/35 43/30/35
f 42/53/16 43/58/16 46/33/16
f 46/33/36 52/39/36 50/38/36
f 51/40/14 52/39/14 48/54/14
f 60/49/37 49/36/37 47/35/37
f 50/38/38 51/40/38 64/51/38
f 63/52/15 64/51/15 60/49/15
f 53/41/39 54/43/39 61/48/39
f 63/52/40 58/45/40 56/44/40
f 58/45/13 54/43/13 55/42/13
f 41/29/41 42/31/41 55/42/41
f 56/44/42 57/46/42 44/56/42
f 41/29/12 53/41/12 59/47/12
f 48/54/43 52/39/43 46/33/43
f 55/42/44 42/61/44 44/56/44
f 56/44/11 45/60/11 50/59/11
f 60/49/45 64/51/45 51/40/45
f 54/43/46 58/45/46 63/52/46
f 65/1/47 67/5/47 68/2/47
f 69/4/48 70/7/48 68/2/48
f 71/6/49 72/9/49 70/7/49
f 73/8/50 74/11/50 72/9/50
f 75/10/51 76/13/51 74/11/51
f 75/10/52 77/17/52 78/12/52
f 66/16/53 68/79/53 70/26/53
f 70/26/53 72/80/53 74/14/53
f 74/14/53 76/81/53 78/15/53
f 78/15/53 80/82/53 66/16/53
f 66/16/53 70/26/53 74/14/53
f 77/17/54 79/19/54 80/18/54
f 79/19/55 65/27/55 66/20/55
f 67/23/56 65/83/56 79/28/56
f 79/28/56 77/84/56 75/21/56
f 75/21/56 73/85/56 71/22/56
f 71/22/56 69/86/56 67/23/56
f 67/23/56 79/28/56 75/21/56
f 87/35/41 88/37/41 83/30/41
f 83/58/13 86/33/13 84/32/13
f 85/34/42 86/33/42 92/39/42
f 92/39/16 88/54/16 89/55/16
f 100/49/35 89/36/35 87/35/35
f 91/40/36 104/51/36 102/50/36
f 104/51/14 100/49/14 101/48/14
f 94/43/37 101/48/37 99/47/37
f 103/52/38 98/45/38 96/44/38
f 97/46/15 98/45/15 94/43/15
f 82/31/39 95/42/39 93/41/39
f 96/44/40 97/46/40 84/56/40
f 81/29/12 93/41/12 99/47/12
f 83/58/44 88/54/44 92/39/44
f 95/42/46 82/61/46 84/56/46
f 102/50/11 96/44/11 85/60/11
f 100/49/43 104/51/43 91/40/43
f 94/43/45 98/45/45 103/52/45
f 105/1/58 106/3/58 108/2/58
f 108/2/59 110/7/59 109/4/59
f 110/7/60 112/9/60 111/6/60
f 112/9/61 114/11/61 113/8/61
f 114/11/62 116/13/62 115/10/62
f 115/10/63 116/13/63 118/12/63
f 110/26/64 108/79/64 106/16/64
f 106/16/64 120/82/64 118/15/64
f 118/15/64 116/81/64 114/14/64
f 114/14/96 112/80/96 110/26/96
f 110/26/64 106/16/64 118/15/64
f 117/17/65 118/12/65 120/18/65
f 119/19/66 120/18/66 106/20/66
f 119/28/67 105/83/67 107/23/67
f 107/23/67 109/86/67 111/22/67
f 111/22/67 113/85/67 115/21/67
f 115/21/67 117/84/67 119/28/67
f 119/28/67 107/23/67 111/22/67
f 127/35/35 128/37/35 123/30/35
f 123/58/16 126/33/16 124/32/16
f 125/34/36 126/33/36 132/39/36
f 132/39/14 128/54/14 129/55/14
f 140/49/37 129/36/37 127/35/37
f 131/40/38 144/51/38 142/50/38
f 144/51/15 140/49/15 141/48/15
f 133/41/39 134/43/39 141/48/39
f 143/52/40 138/45/40 136/44/40
f 138/45/13 134/43/13 135/42/13
f 122/31/41 135/42/41 133/41/41
f 137/46/42 124/56/42 125/57/42
f 127/35/12 121/29/12 133/41/12
f 123/58/43 128/54/43 132/39/43
f 122/61/44 124/56/44 137/46/44
f 136/44/11 125/60/11 130/59/11
f 140/49/45 144/51/45 131/40/45
f 134/43/46 138/45/46 143/52/46
f 151/35/41 152/37/41 147/30/41
f 147/58/13 150/33/13 148/32/13
f 150/33/42 156/39/42 154/38/42
f 156/39/16 152/54/16 153/55/16
f 164/49/35 153/36/35 151/35/35
f 155/40/36 168/51/36 166/50/36
f 168/51/14 164/49/14 165/48/14
f 158/43/37 165/48/37 163/47/37
f 166/50/38 167/52/38 162/45/38
f 162/45/15 158/43/15 159/42/15
f 145/29/39 146/31/39 159/42/39
f 160/44/40 161/46/40 148/56/40
f 145/29/12 157/41/12 163/47/12
f 152/54/44 156/39/44 150/33/44
f 146/61/46 148/56/46 161/46/46
f 166/50/11 160/44/11 149/60/11
f 164/49/43 168/51/43 155/40/43
f 158/43/45 162/45/45 167/52/45
usemtl Material
f 18/24/11 19/20/11 17/25/11
f 22/25/12 24/3/12 23/24/12
f 24/3/13 19/20/13 20/3/13
f 22/25/14 18/24/14 17/25/14
f 23/24/15 20/3/15 18/24/15
f 19/20/16 22/25/16 17/25/16
f 184/62/70 170/6/70 185/4/70
f 184/62/71 183/63/71 169/64/71
f 169/64/72 172/8/72 170/6/72
f 169/64/73 183/65/73 171/66/73
f 171/66/74 174/10/74 172/8/74
f 171/66/75 183/67/75 173/68/75
f 173/68/76 176/17/76 174/10/76
f 173/68/77 183/69/77 175/70/77
f 175/70/78 178/19/78 176/17/78
f 175/70/79 183/71/79 177/72/79
f 177/72/80 183/73/80 179/74/80
f 177/72/81 180/27/81 178/19/81
f 179/75/82 183/76/82 181/77/82
f 180/1/83 181/77/83 182/5/83
f 181/77/84 183/78/84 184/62/84
f 181/77/85 185/4/85 182/5/85
f 18/24/11 20/3/11 19/20/11
f 22/25/12 21/20/12 24/3/12
f 24/3/13 21/20/13 19/20/13
f 22/25/14 23/24/14 18/24/14
f 23/24/15 24/3/15 20/3/15
f 19/20/16 21/20/16 22/25/16
f 184/62/70 169/64/70 170/6/70
f 169/64/72 171/66/72 172/8/72
f 171/66/74 173/68/74 174/10/74
f 173/68/76 175/70/76 176/17/76
f 175/70/78 177/72/78 178/19/78
f 177/72/81 179/74/81 180/27/81
f 180/1/83 179/75/83 181/77/83
f 181/77/85 184/62/85 185/4/85
usemtl Material.007
f 192/25/12 190/25/12 188/25/12
f 198/25/11 200/25/11 194/25/11
f 193/25/86 200/25/86 192/25/86
f 191/25/87 198/25/87 190/25/87
f 189/25/88 196/25/88 188/25/88
f 187/25/89 194/25/89 186/25/89
f 186/25/90 201/25/90 193/25/90
f 192/25/91 199/25/91 191/25/91
f 190/25/92 197/25/92 189/25/92
f 188/25/93 195/25/93 187/25/93
f 188/25/12 187/25/12 186/25/12
f 186/25/12 193/25/12 192/25/12
f 192/25/12 191/25/12 190/25/12
f 190/25/12 189/25/12 188/25/12
f 188/25/12 186/25/12 192/25/12
f 194/25/11 195/25/11 196/25/11
f 196/25/11 197/25/11 198/25/11
f 198/25/11 199/25/11 200/25/11
f 200/25/11 201/25/11 194/25/11
f 194/25/11 196/25/11 198/25/11
f 193/25/86 201/25/86 200/25/86
f 191/25/87 199/25/87 198/25/87
f 189/25/88 197/25/88 196/25/88
f 187/25/89 195/25/89 194/25/89
f 186/25/90 194/25/90 201/25/90
f 192/25/91 200/25/91 199/25/91
f 190/25/92 198/25/92 197/25/92
f 188/25/93 196/25/93 195/25/93
