# Blender 4.5.3 LTS
# www.blender.org
mtllib turret3_barrel.mtl
o Circle.011
v -0.000000 0.000000 0.056392
v -0.000000 0.039875 0.039875
v 0.000000 0.056392 0.000000
v 0.000000 0.039875 -0.039875
v 0.000000 0.000000 -0.056392
v 0.000000 -0.039875 -0.039875
v 0.000000 -0.056392 0.000000
v -0.000000 -0.039875 0.039875
v 0.055936 0.039875 0.039875
v 0.055936 0.000000 0.056392
v 0.055936 0.056392 0.000000
v 0.055936 0.039875 -0.039875
v 0.055936 0.000000 -0.056392
v 0.055936 -0.039875 -0.039875
v 0.055936 -0.056392 0.000000
v 0.055936 -0.039875 0.039875
v 0.180133 0.039875 0.039875
v 0.180133 0.000000 0.056392
v 0.180133 0.056392 0.000000
v 0.180133 0.039875 -0.039875
v 0.180133 0.000000 -0.056392
v 0.180133 -0.039875 -0.039875
v 0.180133 -0.056392 0.000000
v 0.180133 -0.039875 0.039875
v 0.180133 0.019705 0.019705
v 0.180133 -0.000000 0.027867
v 0.180133 0.027867 0.000000
v 0.180133 0.019705 -0.019705
v 0.180133 -0.000000 -0.027867
v 0.180133 -0.019705 -0.019705
v 0.180133 -0.027867 0.000000
v 0.180133 -0.019705 0.019705
v -0.000507 0.019705 0.019705
v -0.000507 -0.000000 0.027867
v -0.000507 0.027867 -0.000000
v -0.000507 0.019705 -0.019705
v -0.000507 -0.000000 -0.027867
v -0.000507 -0.019705 -0.019705
v -0.000507 -0.027867 -0.000000
v -0.000507 -0.019705 0.019705
vn -1.0000 -0.0000 -0.0000
vn -0.0000 -0.9239 0.3827
vn -0.0000 0.3827 -0.9239
vn -0.0000 0.9239 0.3827
vn -0.0000 -0.3827 -0.9239
vn -0.0000 0.9239 -0.3827
vn -0.0000 0.3827 0.9239
vn -0.0000 -0.3827 0.9239
vn -0.0000 -0.9239 -0.3827
vn 1.0000 -0.0000 -0.0000
vt 0.000000 0.000000
s 0
usemtl Material.006
f 5/1/1 7/1/1 1/1/1
f 23/1/2 16/1/2 15/1/2
f 12/1/3 5/1/3 4/1/3
f 9/1/4 3/1/4 2/1/4
f 15/1/2 8/1/2 7/1/2
f 13/1/5 6/1/5 5/1/5
f 11/1/6 4/1/6 3/1/6
f 10/1/7 2/1/7 1/1/7
f 16/1/8 1/1/8 8/1/8
f 14/1/9 7/1/9 6/1/9
f 19/1/10 28/1/10 20/1/10
f 21/1/5 14/1/5 13/1/5
f 19/1/6 12/1/6 11/1/6
f 18/1/7 9/1/7 10/1/7
f 24/1/8 10/1/8 16/1/8
f 22/1/9 15/1/9 14/1/9
f 20/1/3 13/1/3 12/1/3
f 17/1/4 11/1/4 9/1/4
f 35/1/2 28/1/2 27/1/2
f 18/1/10 25/1/10 17/1/10
f 32/1/10 18/1/10 24/1/10
f 30/1/10 23/1/10 22/1/10
f 28/1/10 21/1/10 20/1/10
f 25/1/10 19/1/10 17/1/10
f 23/1/10 32/1/10 24/1/10
f 29/1/10 22/1/10 21/1/10
f 39/1/10 37/1/10 35/1/10
f 26/1/5 33/1/5 25/1/5
f 40/1/3 26/1/3 32/1/3
f 30/1/4 39/1/4 31/1/4
f 36/1/8 29/1/8 28/1/8
f 33/1/9 27/1/9 25/1/9
f 39/1/6 32/1/6 31/1/6
f 37/1/7 30/1/7 29/1/7
f 1/1/1 2/1/1 3/1/1
f 3/1/1 4/1/1 5/1/1
f 5/1/1 6/1/1 7/1/1
f 7/1/1 8/1/1 1/1/1
f 1/1/1 3/1/1 5/1/1
f 23/1/2 24/1/2 16/1/2
f 12/1/3 13/1/3 5/1/3
f 9/1/4 11/1/4 3/1/4
f 15/1/2 16/1/2 8/1/2
f 13/1/5 14/1/5 6/1/5
f 11/1/6 12/1/6 4/1/6
f 10/1/7 9/1/7 2/1/7
f 16/1/8 10/1/8 1/1/8
f 14/1/9 15/1/9 7/1/9
f 19/1/10 27/1/10 28/1/10
f 21/1/5 22/1/5 14/1/5
f 19/1/6 20/1/6 12/1/6
f 18/1/7 17/1/7 9/1/7
f 24/1/8 18/1/8 10/1/8
f 22/1/9 23/1/9 15/1/9
f 20/1/3 21/1/3 13/1/3
f 17/1/4 19/1/4 11/1/4
f 35/1/2 36/1/2 28/1/2
f 18/1/10 26/1/10 25/1/10
f 32/1/10 26/1/10 18/1/10
f 30/1/10 31/1/10 23/1/10
f 28/1/10 29/1/10 21/1/10
f 25/1/10 27/1/10 19/1/10
f 23/1/10 31/1/10 32/1/10
f 29/1/10 30/1/10 22/1/10
f 35/1/10 33/1/10 34/1/10
f 34/1/10 40/1/10 39/1/10
f 39/1/10 38/1/10 37/1/10
f 37/1/10 36/1/10 35/1/10
f 35/1/10 34/1/10 39/1/10
f 26/1/5 34/1/5 33/1/5
f 40/1/3 34/1/3 26/1/3
f 30/1/4 38/1/4 39/1/4
f 36/1/8 37/1/8 29/1/8
f 33/1/9 35/1/9 27/1/9
f 39/1/6 40/1/6 32/1/6
f 37/1/7 38/1/7 30/1/7
