# Blender 4.5.3 LTS
# www.blender.org
mtllib turret3_head.mtl
o Circle.009
v 1.055883 0.000000 0.715300
v 1.055883 0.240416 0.615717
v 1.055883 0.340000 0.375300
v 1.055883 0.240416 0.134884
v 1.055883 0.000000 0.035300
v 1.055883 -0.240416 0.134884
v 1.055883 -0.340000 0.375300
v 1.055883 -0.240416 0.615717
v 1.184789 0.240416 0.615717
v 1.184789 0.000000 0.715300
v 1.184789 0.340000 0.375300
v 1.184789 0.240416 0.134884
v 1.184789 0.000000 0.035300
v 1.184789 -0.240416 0.134884
v 1.184789 -0.340000 0.375300
v 1.184789 -0.240416 0.615717
v 1.180897 0.000000 0.398235
v 1.180897 0.077873 0.365979
v 1.180897 0.110129 0.288106
v 1.180897 0.077873 0.210234
v 1.180897 0.000000 0.177978
v 1.180897 -0.077873 0.210234
v 1.180897 -0.110129 0.288106
v 1.180897 -0.077873 0.365979
v 1.290135 0.077873 0.365979
v 1.290135 0.000000 0.398235
v 1.290135 0.110129 0.288106
v 1.290135 0.077873 0.210234
v 1.290135 0.000000 0.177978
v 1.290135 -0.077873 0.210234
v 1.290135 -0.110129 0.288106
v 1.290135 -0.077873 0.365979
v -0.482177 0.096713 0.391963
v -0.619155 0.236103 0.391963
v -0.814577 0.237808 0.391963
v -0.953967 0.100830 0.391963
v -0.955673 -0.094591 0.391963
v -0.818694 -0.233981 0.391963
v -0.623273 -0.235687 0.391963
v -0.483882 -0.098709 0.391963
v -0.482177 0.096713 0.471489
v -0.619155 0.236103 0.471489
v -0.814577 0.237808 0.471489
v -0.953967 0.100830 0.471489
v -0.955673 -0.094591 0.471489
v -0.818694 -0.233981 0.471489
v -0.623273 -0.235687 0.471489
v -0.483882 -0.098709 0.471489
v -0.399646 0.000000 0.690666
v -0.399646 0.222996 0.598299
v -0.399646 0.315364 0.375303
v -0.399646 0.222996 0.152307
v -0.399646 0.000000 0.059939
v -0.399646 -0.222996 0.152307
v -0.399646 -0.315364 0.375303
v -0.399646 -0.222996 0.598299
v 1.060667 0.222996 0.598299
v 1.060667 0.000000 0.690667
v 1.060667 0.315364 0.375303
v 1.060667 0.222996 0.152307
v 1.060667 0.000000 0.059939
v 1.060667 -0.222996 0.152307
v 1.060667 -0.315364 0.375303
v 1.060667 -0.222996 0.598299
v -0.399646 0.296581 0.671883
v -0.399646 0.000000 0.794731
v -0.399646 0.419429 0.375303
v -0.399646 0.296581 0.078722
v -0.399646 0.000000 -0.044126
v -0.399646 -0.296581 0.078722
v -0.399646 -0.419429 0.375303
v -0.399646 -0.296581 0.671883
v -0.469752 0.296581 0.671883
v -0.469752 0.000000 0.794731
v -0.469752 0.419429 0.375303
v -0.469752 0.296581 0.078722
v -0.469752 0.000000 -0.044126
v -0.469752 -0.296581 0.078722
v -0.469752 -0.419429 0.375303
v -0.469752 -0.296581 0.671883
v 0.443206 0.852500 -0.167856
v 0.443206 0.852500 0.403629
v 0.638206 0.852500 -0.167856
v 0.638206 0.852500 0.403629
v 0.443206 -0.852500 -0.167856
v 0.443206 -0.852500 0.403629
v 0.638206 -0.852500 -0.167856
v 0.638206 -0.852500 0.403629
v 0.443206 -0.177097 0.399538
v -0.096743 -0.177097 1.527172
v 0.638206 -0.177097 0.399538
v 0.098257 -0.177097 1.527172
v 0.443206 -0.852500 0.399538
v -0.096743 -0.852500 1.527172
v 0.638206 -0.852500 0.399538
v 0.098257 -0.852500 1.527172
v 0.443206 -0.177097 0.796983
v 0.212246 -0.177097 1.172861
v 0.407246 -0.177097 1.172861
v 0.638206 -0.177097 0.796983
v 0.407246 -0.852500 1.172861
v 0.638206 -0.852500 0.796983
v 0.212246 -0.852500 1.172861
v 0.443206 -0.852500 0.796983
v 0.443206 0.852170 0.399538
v -0.096743 0.852170 1.527172
v 0.638206 0.852170 0.399538
v 0.098257 0.852170 1.527172
v 0.443206 0.176767 0.399538
v -0.096743 0.176767 1.527172
v 0.638206 0.176767 0.399538
v 0.098257 0.176767 1.527172
v 0.443206 0.852170 0.796983
v 0.212246 0.852170 1.172861
v 0.407246 0.852170 1.172861
v 0.638206 0.852170 0.796983
v 0.407246 0.176767 1.172861
v 0.638206 0.176767 0.796983
v 0.212246 0.176767 1.172861
v 0.443206 0.176767 0.796983
v 0.925903 0.170175 0.620178
v -0.277468 0.170175 0.620178
v -0.320657 0.143588 0.631190
v -0.320657 0.086002 0.655043
v -0.277468 0.054330 0.668162
v 0.920324 0.054330 0.668162
v 0.975031 0.080243 0.657429
v 0.980789 0.140709 0.632383
v 0.821367 0.143960 0.585330
v -0.172407 0.143960 0.585330
v -0.208074 0.122004 0.594425
v -0.208074 0.074448 0.614123
v -0.172407 0.048292 0.624957
v 0.816760 0.048292 0.624958
v 0.861938 0.069693 0.616093
v 0.866694 0.119626 0.595410
v -0.399646 -0.000288 0.689720
v 1.060667 -0.000288 0.689720
v 0.925903 -0.053430 0.668122
v -0.277468 -0.053430 0.668122
v -0.320657 -0.080017 0.657110
v -0.320657 -0.137603 0.633257
v -0.277468 -0.169275 0.620138
v 0.920324 -0.169275 0.620138
v 0.975031 -0.143362 0.630872
v 0.980789 -0.082896 0.655917
v 0.821367 -0.047326 0.624945
v -0.172407 -0.047326 0.624945
v -0.208074 -0.069282 0.615851
v -0.208074 -0.116838 0.596152
v -0.172407 -0.142994 0.585318
v 0.816760 -0.142994 0.585318
v 0.861938 -0.121594 0.594182
v 0.866694 -0.071660 0.614866
v -0.399646 -0.222207 0.596526
v 1.060667 -0.222207 0.596526
v 0.925903 -0.243581 0.543443
v -0.277468 -0.243581 0.543443
v -0.320657 -0.254593 0.516856
v -0.320657 -0.278446 0.459270
v -0.277468 -0.291565 0.427598
v 0.920324 -0.291565 0.427598
v 0.975031 -0.280832 0.453511
v 0.980789 -0.255786 0.513977
v 0.821367 -0.208733 0.517228
v -0.172407 -0.208733 0.517228
v -0.208074 -0.217828 0.495272
v -0.208074 -0.237526 0.447716
v -0.172407 -0.248360 0.421560
v 0.816760 -0.248360 0.421560
v 0.861938 -0.239496 0.442961
v 0.866694 -0.218813 0.492894
v -0.399646 -0.313123 0.372980
v 1.060667 -0.313123 0.372980
v 0.925903 -0.291525 0.319838
v -0.277468 -0.291525 0.319838
v -0.320657 -0.280513 0.293251
v -0.320657 -0.256660 0.235665
v -0.277468 -0.243541 0.203993
v 0.920324 -0.243541 0.203993
v 0.975031 -0.254274 0.229906
v 0.980789 -0.279320 0.290372
v 0.821367 -0.248348 0.325942
v -0.172407 -0.248348 0.325942
v -0.208074 -0.239253 0.303986
v -0.208074 -0.219555 0.256430
v -0.172407 -0.208721 0.230274
v 0.816760 -0.208721 0.230274
v 0.861938 -0.217585 0.251674
v 0.866694 -0.238269 0.301608
v -0.399646 -0.220955 0.150411
v 1.060667 -0.220955 0.150411
v 0.925903 -0.168898 0.128389
v -0.277468 -0.168898 0.128389
v -0.320657 -0.142311 0.117376
v -0.320657 -0.084725 0.093523
v -0.277468 -0.053053 0.080404
v 0.920324 -0.053053 0.080404
v 0.975031 -0.078966 0.091138
v 0.980790 -0.139432 0.116183
v 0.821367 -0.142683 0.163236
v -0.172407 -0.142683 0.163236
v -0.208074 -0.120727 0.154141
v -0.208074 -0.073171 0.134443
v -0.172407 -0.047015 0.123609
v 0.816760 -0.047015 0.123609
v 0.861938 -0.068415 0.132473
v 0.866694 -0.118349 0.153156
v -0.399646 0.001565 0.058846
v 1.060667 0.001565 0.058846
v 0.925903 0.054707 0.080444
v -0.277468 0.054707 0.080444
v -0.320657 0.081294 0.091457
v -0.320657 0.138880 0.115310
v -0.277468 0.170553 0.128429
v 0.920324 0.170553 0.128429
v 0.975031 0.144639 0.117695
v 0.980790 0.084174 0.092649
v 0.821367 0.048603 0.123621
v -0.172407 0.048603 0.123621
v -0.208074 0.070559 0.132716
v -0.208074 0.118115 0.152414
v -0.172407 0.144271 0.163248
v 0.816760 0.144271 0.163248
v 0.861938 0.122871 0.154384
v 0.866694 0.072937 0.133701
v -0.399646 0.223485 0.152040
v 1.060667 0.223485 0.152040
v 0.925903 0.244858 0.205123
v -0.277468 0.244858 0.205123
v -0.320657 0.255870 0.231710
v -0.320657 0.279723 0.289296
v -0.277468 0.292843 0.320969
v 0.920324 0.292843 0.320969
v 0.975031 0.282109 0.295055
v 0.980789 0.257063 0.234589
v 0.821367 0.210011 0.231338
v -0.172407 0.210011 0.231338
v -0.208074 0.219105 0.253294
v -0.208074 0.238803 0.300850
v -0.172407 0.249638 0.327006
v 0.816760 0.249638 0.327006
v 0.861938 0.240773 0.305606
v 0.866694 0.220090 0.255672
v -0.399646 0.314400 0.375586
v 1.060667 0.314400 0.375586
v 0.925903 0.292803 0.428728
v -0.277467 0.292802 0.428728
v -0.320657 0.281790 0.455315
v -0.320657 0.257937 0.512901
v -0.277468 0.244818 0.544574
v 0.920324 0.244818 0.544574
v 0.975031 0.255552 0.518660
v 0.980789 0.280597 0.458195
v 0.821367 0.249625 0.422624
v -0.172407 0.249625 0.422624
v -0.208074 0.240531 0.444580
v -0.208074 0.220832 0.492136
v -0.172407 0.209998 0.518292
v 0.816760 0.209998 0.518292
v 0.861938 0.218862 0.496892
v 0.866694 0.239546 0.446958
v -0.399646 0.222232 0.598155
v 1.060667 0.222232 0.598155
v -1.275602 0.255341 0.136613
v -1.275602 0.255341 0.647294
v -0.463755 0.255341 0.136613
v -0.463755 0.255341 0.647294
v -1.275602 -0.255341 0.136613
v -1.275602 -0.255341 0.647294
v -0.463755 -0.255341 0.136613
v -0.463755 -0.255341 0.647294
v -1.275491 -0.225212 0.136988
v -1.275491 -0.225212 0.591770
v -0.820709 -0.225212 0.136988
v -1.275491 -0.319994 0.136988
v -1.275491 -0.319994 0.591770
v -0.820709 -0.319994 0.136988
v -1.103443 -0.225212 0.591770
v -0.820709 -0.225212 0.309036
v -0.903520 -0.225212 0.508959
v -0.820709 -0.319994 0.309036
v -1.103443 -0.319994 0.591770
v -0.903520 -0.319994 0.508959
v -0.890484 -0.225212 0.137265
v -0.465766 -0.225212 0.137265
v -0.465766 -0.225212 0.290893
v -0.890484 -0.319994 0.137265
v -0.465766 -0.319994 0.137265
v -0.465766 -0.319994 0.290893
v -0.890484 -0.225212 0.465871
v -0.715506 -0.225212 0.290893
v -0.839234 -0.225212 0.342143
v -0.715506 -0.319994 0.290893
v -0.890484 -0.319994 0.465871
v -0.839234 -0.319994 0.342143
v -1.275491 0.319994 0.136988
v -1.275491 0.319994 0.591770
v -0.820709 0.319994 0.136988
v -1.275491 0.225212 0.136988
v -1.275491 0.225212 0.591770
v -0.820709 0.225212 0.136988
v -1.103443 0.319994 0.591770
v -0.820709 0.319994 0.309036
v -0.903520 0.319994 0.508959
v -0.820709 0.225212 0.309036
v -1.103443 0.225212 0.591770
v -0.903520 0.225212 0.508959
v -0.890484 0.319994 0.137265
v -0.468505 0.319994 0.137265
v -0.468505 0.319994 0.290893
v -0.890484 0.225212 0.137265
v -0.468505 0.225212 0.137265
v -0.468505 0.225212 0.290893
v -0.890484 0.319994 0.465871
v -0.715506 0.319994 0.290893
v -0.839234 0.319994 0.342143
v -0.715506 0.225212 0.290893
v -0.890484 0.225212 0.465871
v -0.839234 0.225212 0.342143
v 1.290771 0.000000 0.378334
v 1.290771 0.063801 0.351907
v 1.290771 0.090228 0.288106
v 1.290771 0.063801 0.224306
v 1.290771 0.000000 0.197879
v 1.290771 -0.063801 0.224306
v 1.290771 -0.090228 0.288106
v 1.290771 -0.063801 0.351907
v 1.380269 0.063801 0.351907
v 1.380269 0.000000 0.378334
v 1.380269 0.090228 0.288106
v 1.380269 0.063801 0.224306
v 1.380269 0.000000 0.197879
v 1.380269 -0.063801 0.224306
v 1.380269 -0.090228 0.288106
v 1.380269 -0.063801 0.351907
v 1.578985 0.063801 0.351907
v 1.578985 0.000000 0.378334
v 1.578985 0.090228 0.288106
v 1.578985 0.063801 0.224306
v 1.578985 0.000000 0.197879
v 1.578985 -0.063801 0.224306
v 1.578985 -0.090228 0.288106
v 1.578985 -0.063801 0.351907
v 1.578985 0.031528 0.319635
v 1.578985 -0.000000 0.332694
v 1.578985 0.044588 0.288106
v 1.578985 0.031528 0.256578
v 1.578985 -0.000000 0.243518
v 1.578985 -0.031528 0.256578
v 1.578985 -0.044588 0.288106
v 1.578985 -0.031528 0.319635
v 1.289960 0.031528 0.319635
v 1.289960 -0.000000 0.332694
v 1.289960 0.044588 0.288106
v 1.289960 0.031528 0.256578
v 1.289960 -0.000000 0.243518
v 1.289960 -0.031528 0.256578
v 1.289960 -0.044588 0.288106
v 1.289960 -0.031528 0.319635
vn -1.0000 -0.0000 -0.0000
vn 1.0000 -0.0000 -0.0000
vn -0.0000 0.9239 0.3827
vn -0.0000 -0.9239 0.3827
vn -0.0000 -0.3827 -0.9239
vn -0.0000 0.9239 -0.3827
vn -0.0000 0.3827 0.9239
vn -0.0000 -0.3827 0.9239
vn -0.0000 -0.9239 -0.3827
vn -0.0000 0.3827 -0.9239
vn -0.0000 -0.0000 -1.0000
vn -0.0000 -0.0000 1.0000
vn 0.7009 -0.7133 -0.0000
vn -0.7133 -0.7009 -0.0000
vn -0.7009 0.7133 -0.0000
vn 0.7133 0.7009 -0.0000
vn 1.0000 -0.0087 -0.0000
vn -0.0087 -1.0000 -0.0000
vn -1.0000 0.0087 -0.0000
vn 0.0087 1.0000 -0.0000
vn -0.0000 1.0000 -0.0000
vn -0.0000 -1.0000 -0.0000
vn 0.7537 -0.0000 0.6573
vn -0.7537 -0.0000 -0.6573
vn -0.8520 -0.0000 -0.5235
vn 0.8520 -0.0000 0.5235
vn 0.0079 0.3805 0.9247
vn -0.0079 0.3805 0.9247
vn -0.0000 -0.7991 0.6012
vn -0.2830 -0.1338 0.9497
vn -0.2716 0.7969 0.5397
vn 0.3084 0.6913 0.6534
vn 0.2947 -0.0844 0.9519
vn -0.3482 0.3868 0.8539
vn -0.0000 0.9904 -0.1384
vn 0.3512 0.3583 0.8650
vn 0.0102 -0.3872 0.9220
vn -0.0102 -0.3872 0.9220
vn -0.0000 -0.9902 -0.1400
vn -0.2830 -0.7662 0.5769
vn -0.2716 0.1819 0.9451
vn 0.3084 0.0267 0.9509
vn 0.2947 -0.7327 0.6134
vn -0.3482 -0.3302 0.8773
vn -0.0000 0.7982 0.6024
vn 0.3512 -0.3583 0.8650
vn 0.0001 -0.9263 0.3767
vn 0.0002 -0.9263 0.3767
vn -0.0000 -0.6012 -0.7991
vn -0.2830 -0.9497 -0.1338
vn -0.2716 -0.5397 0.7969
vn 0.3084 -0.6534 0.6913
vn 0.2947 -0.9519 -0.0844
vn -0.3482 -0.8539 0.3869
vn -0.0000 0.1384 0.9904
vn 0.3512 -0.8650 0.3583
vn 0.0047 -0.9239 -0.3826
vn -0.0048 -0.9239 -0.3826
vn -0.0000 0.1400 -0.9902
vn -0.2830 -0.5769 -0.7662
vn -0.2716 -0.9451 0.1819
vn 0.3084 -0.9509 0.0267
vn 0.2947 -0.6134 -0.7327
vn -0.3482 -0.8773 -0.3302
vn -0.0000 -0.6024 0.7982
vn 0.3512 -0.8650 -0.3583
vn 0.0079 -0.3805 -0.9247
vn -0.0079 -0.3805 -0.9247
vn -0.0000 0.7991 -0.6012
vn -0.2830 0.1338 -0.9497
vn -0.2716 -0.7969 -0.5397
vn 0.3084 -0.6913 -0.6534
vn 0.2947 0.0844 -0.9519
vn -0.3482 -0.3868 -0.8539
vn -0.0000 -0.9904 0.1384
vn 0.3512 -0.3583 -0.8650
vn 0.0102 0.3872 -0.9220
vn -0.0102 0.3872 -0.9220
vn -0.0000 0.9902 0.1400
vn -0.2830 0.7662 -0.5769
vn -0.2716 -0.1819 -0.9451
vn 0.3084 -0.0267 -0.9509
vn 0.2947 0.7327 -0.6134
vn -0.3482 0.3302 -0.8773
vn -0.0000 -0.7982 -0.6024
vn 0.3512 0.3583 -0.8650
vn 0.0001 0.9263 -0.3767
vn 0.0002 0.9263 -0.3767
vn -0.0000 0.6012 0.7991
vn -0.2830 0.9497 0.1338
vn -0.2716 0.5397 -0.7969
vn 0.3084 0.6534 -0.6913
vn 0.2947 0.9519 0.0844
vn -0.3482 0.8539 -0.3868
vn -0.0000 -0.1384 -0.9904
vn 0.3512 0.8650 -0.3583
vn 0.0047 0.9239 0.3826
vn -0.0048 0.9239 0.3826
vn -0.0000 -0.1400 0.9902
vn -0.2830 0.5769 0.7662
vn -0.2716 0.9451 -0.1819
vn 0.3084 0.9509 -0.0268
vn 0.2947 0.6134 0.7327
vn -0.3482 0.8773 0.3302
vn -0.0000 0.6024 -0.7982
vn 0.3512 0.8650 0.3583
vn 0.3827 -0.0000 0.9239
vn 0.9239 -0.0000 0.3827
vn -0.0000 0.3671 0.9302
vn -0.0000 0.3896 0.9210
vn 0.0039 0.3757 0.9267
vn 0.0018 0.3856 0.9227
vn 0.0106 0.3818 0.9242
vn -0.0050 0.3768 0.9263
vn -0.0021 0.3855 0.9227
vn -0.0125 0.3827 0.9238
vn -0.0000 -0.4074 0.9133
vn -0.0000 -0.3765 0.9264
vn 0.0061 -0.3937 0.9192
vn 0.0016 -0.3801 0.9250
vn 0.0167 -0.3840 0.9232
vn -0.0080 -0.3919 0.9200
vn -0.0018 -0.3801 0.9249
vn -0.0197 -0.3826 0.9237
vn -0.0000 -0.9302 0.3671
vn -0.0000 -0.9276 0.3735
vn 0.0039 -0.9267 0.3757
vn -0.0024 -0.9255 0.3788
vn 0.0106 -0.9242 0.3818
vn -0.0050 -0.9263 0.3768
vn 0.0027 -0.9254 0.3789
vn -0.0125 -0.9238 0.3827
vn -0.3482 -0.8539 0.3868
vn -0.0000 -0.9215 -0.3884
vn -0.0000 -0.9264 -0.3765
vn 0.0014 -0.9228 -0.3852
vn 0.0016 -0.9250 -0.3801
vn 0.0039 -0.9237 -0.3830
vn -0.0018 -0.9230 -0.3848
vn -0.0018 -0.9249 -0.3801
vn -0.0046 -0.9239 -0.3827
vn -0.0000 -0.3671 -0.9302
vn -0.0000 -0.3896 -0.9210
vn 0.0039 -0.3757 -0.9267
vn 0.0018 -0.3856 -0.9227
vn 0.0106 -0.3818 -0.9242
vn -0.0050 -0.3768 -0.9263
vn -0.0021 -0.3855 -0.9227
vn -0.0125 -0.3827 -0.9238
vn -0.0000 0.4074 -0.9133
vn -0.0000 0.3765 -0.9264
vn 0.0061 0.3937 -0.9192
vn 0.0016 0.3801 -0.9250
vn 0.0167 0.3840 -0.9232
vn -0.0080 0.3919 -0.9200
vn -0.0018 0.3801 -0.9249
vn -0.0197 0.3826 -0.9237
vn -0.0000 0.9302 -0.3671
vn -0.0000 0.9276 -0.3735
vn 0.0039 0.9267 -0.3757
vn -0.0024 0.9255 -0.3788
vn 0.0106 0.9242 -0.3818
vn -0.0050 0.9263 -0.3768
vn 0.0027 0.9254 -0.3789
vn -0.0125 0.9238 -0.3827
vn -0.0000 0.9215 0.3884
vn -0.0000 0.9264 0.3765
vn 0.0014 0.9228 0.3852
vn 0.0016 0.9250 0.3801
vn 0.0039 0.9237 0.3830
vn -0.0019 0.9230 0.3848
vn -0.0018 0.9249 0.3801
vn -0.0046 0.9239 0.3827
vn 0.3084 0.9509 -0.0267
vt 0.000000 0.000000
vt 0.625000 0.000000
vt 0.375000 0.250000
vt 0.375000 0.000000
vt 0.625000 0.250000
vt 0.375000 0.500000
vt 0.625000 0.750000
vt 0.375000 0.750000
vt 0.375000 1.000000
vt 0.125000 0.750000
vt 0.125000 0.500000
vt 0.875000 0.500000
vt 0.625000 0.500000
vt 0.546448 0.000000
vt 0.546448 0.250000
vt 0.546448 0.500000
vt 0.546448 0.750000
vt 0.546448 1.000000
vt 0.463115 0.750000
vt 0.463115 1.000000
vt 0.463115 0.500000
vt 0.463115 0.250000
vt 0.463115 0.000000
vt 0.625000 0.655423
vt 0.875000 0.655423
vt 0.603042 0.521958
vt 0.469577 0.250000
vt 0.595374 0.220374
vt 0.469577 0.500000
vt 0.875000 0.653812
vt 0.600443 0.737655
vt 0.625000 0.653813
vt 0.625000 1.000000
vt 0.433651 0.750000
vt 0.625000 0.096187
vt 0.875000 0.750000
vt 0.625000 0.094577
vt 0.433651 1.000000
vt 0.433651 0.000000
vt 0.568955 0.028173
s 0
usemtl Material.006
f 5/1/1 7/1/1 1/1/1
f 15/1/2 13/1/2 11/1/2
f 9/1/3 3/1/3 2/1/3
f 15/1/4 8/1/4 7/1/4
f 13/1/5 6/1/5 5/1/5
f 11/1/6 4/1/6 3/1/6
f 10/1/7 2/1/7 1/1/7
f 16/1/8 1/1/8 8/1/8
f 14/1/9 7/1/9 6/1/9
f 12/1/10 5/1/10 4/1/10
f 21/1/1 23/1/1 17/1/1
f 31/1/2 29/1/2 27/1/2
f 28/1/10 21/1/10 20/1/10
f 25/1/3 19/1/3 18/1/3
f 31/1/4 24/1/4 23/1/4
f 29/1/5 22/1/5 21/1/5
f 27/1/6 20/1/6 19/1/6
f 26/1/7 18/1/7 17/1/7
f 32/1/8 17/1/8 24/1/8
f 30/1/9 23/1/9 22/1/9
f 266/2/21 267/3/21 265/4/21
f 268/5/2 271/6/2 267/3/2
f 272/13/22 269/8/22 271/6/22
f 270/7/1 265/9/1 269/8/1
f 271/6/11 265/10/11 267/11/11
f 268/12/12 270/7/12 272/13/12
f 325/1/1 327/1/1 321/1/1
f 343/1/4 336/1/4 335/1/4
f 332/1/10 325/1/10 324/1/10
f 329/1/3 323/1/3 322/1/3
f 335/1/4 328/1/4 327/1/4
f 333/1/5 326/1/5 325/1/5
f 331/1/6 324/1/6 323/1/6
f 330/1/7 322/1/7 321/1/7
f 336/1/8 321/1/8 328/1/8
f 334/1/9 327/1/9 326/1/9
f 347/1/2 340/1/2 339/1/2
f 341/1/5 334/1/5 333/1/5
f 339/1/6 332/1/6 331/1/6
f 338/1/7 329/1/7 330/1/7
f 344/1/8 330/1/8 336/1/8
f 342/1/9 335/1/9 334/1/9
f 340/1/10 333/1/10 332/1/10
f 337/1/3 331/1/3 329/1/3
f 355/1/4 348/1/4 347/1/4
f 346/1/2 337/1/2 338/1/2
f 344/1/2 346/1/2 338/1/2
f 350/1/2 343/1/2 342/1/2
f 348/1/2 341/1/2 340/1/2
f 345/1/2 339/1/2 337/1/2
f 343/1/2 352/1/2 344/1/2
f 349/1/2 342/1/2 341/1/2
f 359/1/2 357/1/2 355/1/2
f 354/1/5 345/1/5 346/1/5
f 360/1/10 346/1/10 352/1/10
f 358/1/3 351/1/3 350/1/3
f 348/1/8 357/1/8 349/1/8
f 345/1/9 355/1/9 347/1/9
f 359/1/6 352/1/6 351/1/6
f 357/1/7 350/1/7 349/1/7
f 1/1/1 2/1/1 3/1/1
f 3/1/1 4/1/1 5/1/1
f 5/1/1 6/1/1 7/1/1
f 7/1/1 8/1/1 1/1/1
f 1/1/1 3/1/1 5/1/1
f 11/1/2 9/1/2 10/1/2
f 10/1/2 16/1/2 15/1/2
f 15/1/2 14/1/2 13/1/2
f 13/1/2 12/1/2 11/1/2
f 11/1/2 10/1/2 15/1/2
f 9/1/3 11/1/3 3/1/3
f 15/1/4 16/1/4 8/1/4
f 13/1/5 14/1/5 6/1/5
f 11/1/6 12/1/6 4/1/6
f 10/1/7 9/1/7 2/1/7
f 16/1/8 10/1/8 1/1/8
f 14/1/9 15/1/9 7/1/9
f 12/1/10 13/1/10 5/1/10
f 17/1/1 18/1/1 19/1/1
f 19/1/1 20/1/1 21/1/1
f 21/1/1 22/1/1 23/1/1
f 23/1/1 24/1/1 17/1/1
f 17/1/1 19/1/1 21/1/1
f 27/1/2 25/1/2 26/1/2
f 26/1/2 32/1/2 31/1/2
f 31/1/2 30/1/2 29/1/2
f 29/1/2 28/1/2 27/1/2
f 27/1/2 26/1/2 31/1/2
f 28/1/10 29/1/10 21/1/10
f 25/1/3 27/1/3 19/1/3
f 31/1/4 32/1/4 24/1/4
f 29/1/5 30/1/5 22/1/5
f 27/1/6 28/1/6 20/1/6
f 26/1/7 25/1/7 18/1/7
f 32/1/8 26/1/8 17/1/8
f 30/1/9 31/1/9 23/1/9
f 266/2/21 268/5/21 267/3/21
f 268/5/2 272/13/2 271/6/2
f 272/13/22 270/7/22 269/8/22
f 270/7/1 266/33/1 265/9/1
f 271/6/11 269/8/11 265/10/11
f 268/12/12 266/36/12 270/7/12
f 321/1/1 322/1/1 323/1/1
f 323/1/1 324/1/1 325/1/1
f 325/1/1 326/1/1 327/1/1
f 327/1/1 328/1/1 321/1/1
f 321/1/1 323/1/1 325/1/1
f 343/1/4 344/1/4 336/1/4
f 332/1/10 333/1/10 325/1/10
f 329/1/3 331/1/3 323/1/3
f 335/1/4 336/1/4 328/1/4
f 333/1/5 334/1/5 326/1/5
f 331/1/6 332/1/6 324/1/6
f 330/1/7 329/1/7 322/1/7
f 336/1/8 330/1/8 321/1/8
f 334/1/9 335/1/9 327/1/9
f 347/1/2 348/1/2 340/1/2
f 341/1/5 342/1/5 334/1/5
f 339/1/6 340/1/6 332/1/6
f 338/1/7 337/1/7 329/1/7
f 344/1/8 338/1/8 330/1/8
f 342/1/9 343/1/9 335/1/9
f 340/1/10 341/1/10 333/1/10
f 337/1/3 339/1/3 331/1/3
f 355/1/4 356/1/4 348/1/4
f 346/1/2 345/1/2 337/1/2
f 344/1/2 352/1/2 346/1/2
f 350/1/2 351/1/2 343/1/2
f 348/1/2 349/1/2 341/1/2
f 345/1/2 347/1/2 339/1/2
f 343/1/2 351/1/2 352/1/2
f 349/1/2 350/1/2 342/1/2
f 355/1/2 353/1/2 354/1/2
f 354/1/2 360/1/2 359/1/2
f 359/1/2 358/1/2 357/1/2
f 357/1/2 356/1/2 355/1/2
f 355/1/2 354/1/2 359/1/2
f 354/1/5 353/1/5 345/1/5
f 360/1/10 354/1/10 346/1/10
f 358/1/3 359/1/3 351/1/3
f 348/1/8 356/1/8 357/1/8
f 345/1/9 353/1/9 355/1/9
f 359/1/6 360/1/6 352/1/6
f 357/1/7 358/1/7 350/1/7
usemtl Material
f 39/1/11 37/1/11 35/1/11
f 45/1/12 47/1/12 41/1/12
f 40/1/13 47/1/13 39/1/13
f 38/1/14 45/1/14 37/1/14
f 36/1/15 43/1/15 35/1/15
f 34/1/16 41/1/16 33/1/16
f 33/1/17 48/1/17 40/1/17
f 39/1/18 46/1/18 38/1/18
f 37/1/19 44/1/19 36/1/19
f 35/1/20 42/1/20 34/1/20
f 35/1/11 34/1/11 33/1/11
f 33/1/11 40/1/11 39/1/11
f 39/1/11 38/1/11 37/1/11
f 37/1/11 36/1/11 35/1/11
f 35/1/11 33/1/11 39/1/11
f 41/1/12 42/1/12 43/1/12
f 43/1/12 44/1/12 45/1/12
f 45/1/12 46/1/12 47/1/12
f 47/1/12 48/1/12 41/1/12
f 41/1/12 43/1/12 45/1/12
f 40/1/13 48/1/13 47/1/13
f 38/1/14 46/1/14 45/1/14
f 36/1/15 44/1/15 43/1/15
f 34/1/16 42/1/16 41/1/16
f 33/1/17 41/1/17 48/1/17
f 39/1/18 47/1/18 46/1/18
f 37/1/19 45/1/19 44/1/19
f 35/1/20 43/1/20 42/1/20
usemtl Material.005
f 61/1/1 63/1/1 58/1/1
f 58/1/1 57/1/1 59/1/1
f 59/1/1 60/1/1 61/1/1
f 61/1/1 62/1/1 63/1/1
f 63/1/1 64/1/1 58/1/1
f 58/1/1 59/1/1 61/1/1
usemtl Material.003
f 66/1/2 56/1/2 49/1/2
f 74/1/8 72/1/8 66/1/8
f 55/1/2 70/1/2 54/1/2
f 69/1/2 52/1/2 53/1/2
f 67/1/2 50/1/2 51/1/2
f 56/1/2 71/1/2 55/1/2
f 54/1/2 69/1/2 53/1/2
f 68/1/2 51/1/2 52/1/2
f 65/1/2 49/1/2 50/1/2
f 77/1/1 79/1/1 74/1/1
f 79/1/9 70/1/9 71/1/9
f 77/1/10 68/1/10 69/1/10
f 75/1/3 65/1/3 67/1/3
f 80/1/4 71/1/4 72/1/4
f 78/1/5 69/1/5 70/1/5
f 76/1/6 67/1/6 68/1/6
f 73/1/7 66/1/7 65/1/7
f 66/1/2 72/1/2 56/1/2
f 74/1/8 80/1/8 72/1/8
f 55/1/2 71/1/2 70/1/2
f 69/1/2 68/1/2 52/1/2
f 67/1/2 65/1/2 50/1/2
f 56/1/2 72/1/2 71/1/2
f 54/1/2 70/1/2 69/1/2
f 68/1/2 67/1/2 51/1/2
f 65/1/2 66/1/2 49/1/2
f 74/1/1 73/1/1 75/1/1
f 75/1/1 76/1/1 77/1/1
f 77/1/1 78/1/1 79/1/1
f 79/1/1 80/1/1 74/1/1
f 74/1/1 75/1/1 77/1/1
f 79/1/9 78/1/9 70/1/9
f 77/1/10 76/1/10 68/1/10
f 75/1/3 73/1/3 65/1/3
f 80/1/4 79/1/4 71/1/4
f 78/1/5 77/1/5 69/1/5
f 76/1/6 75/1/6 67/1/6
f 73/1/7 74/1/7 66/1/7
usemtl Material.002
f 82/2/21 83/3/21 81/4/21
f 84/5/2 87/6/2 83/3/2
f 87/6/22 86/7/22 85/8/22
f 86/7/1 81/9/1 85/8/1
f 87/6/11 81/10/11 83/11/11
f 84/12/12 86/7/12 88/13/12
f 98/14/21 92/5/21 99/15/21
f 92/5/23 101/16/23 99/15/23
f 96/13/22 103/17/22 101/16/22
f 94/7/24 98/18/24 103/17/24
f 95/6/11 89/10/11 91/11/11
f 92/12/12 94/7/12 96/13/12
f 104/19/1 89/9/1 93/8/1
f 103/17/25 97/20/25 104/19/25
f 102/21/22 93/8/22 95/6/22
f 101/16/22 104/19/22 102/21/22
f 100/22/2 95/6/2 91/3/2
f 99/15/26 102/21/26 100/22/26
f 89/4/21 100/22/21 91/3/21
f 97/23/21 99/15/21 100/22/21
f 114/14/21 108/5/21 115/15/21
f 108/5/23 117/16/23 115/15/23
f 112/13/22 119/17/22 117/16/22
f 110/7/24 114/18/24 119/17/24
f 111/6/11 105/10/11 107/11/11
f 108/12/12 110/7/12 112/13/12
f 120/19/1 105/9/1 109/8/1
f 119/17/25 113/20/25 120/19/25
f 118/21/22 109/8/22 111/6/22
f 117/16/22 120/19/22 118/21/22
f 116/22/2 111/6/2 107/3/2
f 115/15/26 118/21/26 116/22/26
f 105/4/21 116/22/21 107/3/21
f 113/23/21 115/15/21 116/22/21
f 277/7/1 273/9/1 276/8/1
f 278/6/11 273/10/11 275/11/11
f 283/24/107 281/12/107 279/25/107
f 284/26/108 280/27/108 281/28/108
f 279/25/12 277/7/12 283/24/12
f 274/2/21 281/28/21 275/3/21
f 280/27/2 278/6/2 275/3/2
f 282/29/22 283/24/22 276/8/22
f 287/5/2 289/6/2 286/3/2
f 289/6/11 285/10/11 286/11/11
f 292/30/107 296/31/107 294/32/107
f 293/33/108 295/34/108 296/31/108
f 295/34/1 285/9/1 288/8/1
f 285/4/21 292/35/21 286/3/21
f 287/12/12 294/32/12 290/13/12
f 294/32/22 296/31/22 288/8/22
f 82/2/21 84/5/21 83/3/21
f 84/5/2 88/13/2 87/6/2
f 87/6/22 88/13/22 86/7/22
f 86/7/1 82/33/1 81/9/1
f 87/6/11 85/8/11 81/10/11
f 84/12/12 82/36/12 86/7/12
f 98/14/21 90/2/21 92/5/21
f 92/5/23 96/13/23 101/16/23
f 96/13/22 94/7/22 103/17/22
f 94/7/24 90/33/24 98/18/24
f 95/6/11 93/8/11 89/10/11
f 92/12/12 90/36/12 94/7/12
f 104/19/1 97/20/1 89/9/1
f 103/17/25 98/18/25 97/20/25
f 102/21/22 104/19/22 93/8/22
f 101/16/22 103/17/22 104/19/22
f 100/22/2 102/21/2 95/6/2
f 99/15/26 101/16/26 102/21/26
f 89/4/21 97/23/21 100/22/21
f 97/23/21 98/14/21 99/15/21
f 114/14/21 106/2/21 108/5/21
f 108/5/23 112/13/23 117/16/23
f 112/13/22 110/7/22 119/17/22
f 110/7/24 106/33/24 114/18/24
f 111/6/11 109/8/11 105/10/11
f 108/12/12 106/36/12 110/7/12
f 120/19/1 113/20/1 105/9/1
f 119/17/25 114/18/25 113/20/25
f 118/21/22 120/19/22 109/8/22
f 117/16/22 119/17/22 120/19/22
f 116/22/2 118/21/2 111/6/2
f 115/15/26 117/16/26 118/21/26
f 105/4/21 113/23/21 116/22/21
f 113/23/21 114/14/21 115/15/21
f 277/7/1 274/33/1 273/9/1
f 278/6/11 276/8/11 273/10/11
f 283/24/107 284/26/107 281/12/107
f 284/26/108 282/29/108 280/27/108
f 279/25/12 274/36/12 277/7/12
f 275/3/21 273/4/21 274/2/21
f 274/2/21 279/37/21 281/28/21
f 281/28/21 280/27/21 275/3/21
f 280/27/2 282/29/2 278/6/2
f 276/8/22 278/6/22 282/29/22
f 282/29/22 284/26/22 283/24/22
f 283/24/22 277/7/22 276/8/22
f 287/5/2 290/13/2 289/6/2
f 289/6/11 288/8/11 285/10/11
f 292/30/107 293/36/107 296/31/107
f 293/33/108 291/38/108 295/34/108
f 295/34/1 291/38/1 285/9/1
f 285/4/21 291/39/21 293/40/21
f 292/35/21 287/5/21 286/3/21
f 285/4/21 293/40/21 292/35/21
f 287/12/12 292/30/12 294/32/12
f 288/8/22 289/6/22 290/13/22
f 288/8/22 290/13/22 294/32/22
f 296/31/22 295/34/22 288/8/22
usemtl Material.016
f 138/1/27 264/1/27 128/1/27
f 135/1/7 129/1/7 131/1/7
f 263/1/28 137/1/28 123/1/28
f 130/1/29 121/1/29 122/1/29
f 121/1/30 136/1/30 128/1/30
f 135/1/31 126/1/31 127/1/31
f 125/1/32 132/1/32 124/1/32
f 131/1/33 122/1/33 123/1/33
f 136/1/34 127/1/34 128/1/34
f 126/1/35 133/1/35 125/1/35
f 124/1/36 131/1/36 123/1/36
f 156/1/37 138/1/37 146/1/37
f 153/1/8 147/1/8 149/1/8
f 137/1/38 155/1/38 141/1/38
f 148/1/39 139/1/39 140/1/39
f 139/1/40 154/1/40 146/1/40
f 153/1/41 144/1/41 145/1/41
f 143/1/42 150/1/42 142/1/42
f 149/1/43 140/1/43 141/1/43
f 154/1/44 145/1/44 146/1/44
f 144/1/45 151/1/45 143/1/45
f 142/1/46 149/1/46 141/1/46
f 174/1/47 156/1/47 164/1/47
f 171/1/4 165/1/4 167/1/4
f 155/1/48 173/1/48 159/1/48
f 166/1/49 157/1/49 158/1/49
f 157/1/50 172/1/50 164/1/50
f 171/1/51 162/1/51 163/1/51
f 161/1/52 168/1/52 160/1/52
f 167/1/53 158/1/53 159/1/53
f 172/1/54 163/1/54 164/1/54
f 162/1/55 169/1/55 161/1/55
f 160/1/56 167/1/56 159/1/56
f 192/1/57 174/1/57 182/1/57
f 189/1/9 183/1/9 185/1/9
f 173/1/58 191/1/58 177/1/58
f 184/1/59 175/1/59 176/1/59
f 175/1/60 190/1/60 182/1/60
f 189/1/61 180/1/61 181/1/61
f 179/1/62 186/1/62 178/1/62
f 185/1/63 176/1/63 177/1/63
f 190/1/64 181/1/64 182/1/64
f 180/1/65 187/1/65 179/1/65
f 178/1/66 185/1/66 177/1/66
f 210/1/67 192/1/67 200/1/67
f 207/1/5 201/1/5 203/1/5
f 191/1/68 209/1/68 195/1/68
f 202/1/69 193/1/69 194/1/69
f 193/1/70 208/1/70 200/1/70
f 207/1/71 198/1/71 199/1/71
f 197/1/72 204/1/72 196/1/72
f 203/1/73 194/1/73 195/1/73
f 208/1/74 199/1/74 200/1/74
f 198/1/75 205/1/75 197/1/75
f 196/1/76 203/1/76 195/1/76
f 228/1/77 210/1/77 218/1/77
f 225/1/10 219/1/10 221/1/10
f 209/1/78 227/1/78 213/1/78
f 220/1/79 211/1/79 212/1/79
f 211/1/80 226/1/80 218/1/80
f 225/1/81 216/1/81 217/1/81
f 215/1/82 222/1/82 214/1/82
f 221/1/83 212/1/83 213/1/83
f 226/1/84 217/1/84 218/1/84
f 216/1/85 223/1/85 215/1/85
f 214/1/86 221/1/86 213/1/86
f 246/1/87 228/1/87 236/1/87
f 243/1/6 237/1/6 239/1/6
f 227/1/88 245/1/88 231/1/88
f 238/1/89 229/1/89 230/1/89
f 229/1/90 244/1/90 236/1/90
f 243/1/91 234/1/91 235/1/91
f 233/1/92 240/1/92 232/1/92
f 239/1/93 230/1/93 231/1/93
f 244/1/94 235/1/94 236/1/94
f 234/1/95 241/1/95 233/1/95
f 232/1/96 239/1/96 231/1/96
f 264/1/97 246/1/97 254/1/97
f 261/1/3 255/1/3 257/1/3
f 245/1/98 263/1/98 249/1/98
f 256/1/99 247/1/99 248/1/99
f 247/1/100 262/1/100 254/1/100
f 261/1/101 252/1/101 253/1/101
f 251/1/102 258/1/102 250/1/102
f 257/1/103 248/1/103 249/1/103
f 262/1/104 253/1/104 254/1/104
f 252/1/105 259/1/105 251/1/105
f 250/1/106 257/1/106 249/1/106
f 125/1/109 137/1/109 138/1/109
f 264/1/110 263/1/110 122/1/110
f 264/1/110 122/1/110 121/1/110
f 126/1/109 125/1/109 138/1/109
f 127/1/111 126/1/111 138/1/111
f 264/1/112 121/1/112 128/1/112
f 128/1/113 127/1/113 138/1/113
f 131/1/7 132/1/7 133/1/7
f 133/1/7 134/1/7 135/1/7
f 135/1/7 136/1/7 129/1/7
f 129/1/7 130/1/7 131/1/7
f 131/1/7 133/1/7 135/1/7
f 137/1/114 125/1/114 124/1/114
f 123/1/115 122/1/115 263/1/115
f 137/1/116 124/1/116 123/1/116
f 130/1/29 129/1/29 121/1/29
f 121/1/30 129/1/30 136/1/30
f 135/1/31 134/1/31 126/1/31
f 125/1/32 133/1/32 132/1/32
f 131/1/33 130/1/33 122/1/33
f 136/1/34 135/1/34 127/1/34
f 126/1/35 134/1/35 133/1/35
f 124/1/36 132/1/36 131/1/36
f 143/1/117 155/1/117 156/1/117
f 138/1/118 137/1/118 140/1/118
f 138/1/118 140/1/118 139/1/118
f 144/1/117 143/1/117 156/1/117
f 145/1/119 144/1/119 156/1/119
f 138/1/120 139/1/120 146/1/120
f 146/1/121 145/1/121 156/1/121
f 149/1/8 150/1/8 151/1/8
f 151/1/8 152/1/8 153/1/8
f 153/1/8 154/1/8 147/1/8
f 147/1/8 148/1/8 149/1/8
f 149/1/8 151/1/8 153/1/8
f 155/1/122 143/1/122 142/1/122
f 141/1/123 140/1/123 137/1/123
f 155/1/124 142/1/124 141/1/124
f 148/1/39 147/1/39 139/1/39
f 139/1/40 147/1/40 154/1/40
f 153/1/41 152/1/41 144/1/41
f 143/1/42 151/1/42 150/1/42
f 149/1/43 148/1/43 140/1/43
f 154/1/44 153/1/44 145/1/44
f 144/1/45 152/1/45 151/1/45
f 142/1/46 150/1/46 149/1/46
f 161/1/125 173/1/125 174/1/125
f 156/1/126 155/1/126 158/1/126
f 156/1/126 158/1/126 157/1/126
f 162/1/125 161/1/125 174/1/125
f 163/1/127 162/1/127 174/1/127
f 156/1/128 157/1/128 164/1/128
f 164/1/129 163/1/129 174/1/129
f 167/1/4 168/1/4 169/1/4
f 169/1/4 170/1/4 171/1/4
f 171/1/4 172/1/4 165/1/4
f 165/1/4 166/1/4 167/1/4
f 167/1/4 169/1/4 171/1/4
f 173/1/130 161/1/130 160/1/130
f 159/1/131 158/1/131 155/1/131
f 173/1/132 160/1/132 159/1/132
f 166/1/49 165/1/49 157/1/49
f 157/1/50 165/1/50 172/1/50
f 171/1/51 170/1/51 162/1/51
f 161/1/52 169/1/52 168/1/52
f 167/1/53 166/1/53 158/1/53
f 172/1/133 171/1/133 163/1/133
f 162/1/55 170/1/55 169/1/55
f 160/1/56 168/1/56 167/1/56
f 179/1/134 191/1/134 192/1/134
f 174/1/135 173/1/135 176/1/135
f 174/1/135 176/1/135 175/1/135
f 180/1/134 179/1/134 192/1/134
f 181/1/136 180/1/136 192/1/136
f 174/1/137 175/1/137 182/1/137
f 182/1/138 181/1/138 192/1/138
f 185/1/9 186/1/9 187/1/9
f 187/1/9 188/1/9 189/1/9
f 189/1/9 190/1/9 183/1/9
f 183/1/9 184/1/9 185/1/9
f 185/1/9 187/1/9 189/1/9
f 191/1/139 179/1/139 178/1/139
f 177/1/140 176/1/140 173/1/140
f 191/1/141 178/1/141 177/1/141
f 184/1/59 183/1/59 175/1/59
f 175/1/60 183/1/60 190/1/60
f 189/1/61 188/1/61 180/1/61
f 179/1/62 187/1/62 186/1/62
f 185/1/63 184/1/63 176/1/63
f 190/1/64 189/1/64 181/1/64
f 180/1/65 188/1/65 187/1/65
f 178/1/66 186/1/66 185/1/66
f 197/1/142 209/1/142 210/1/142
f 192/1/143 191/1/143 194/1/143
f 192/1/143 194/1/143 193/1/143
f 198/1/142 197/1/142 210/1/142
f 199/1/144 198/1/144 210/1/144
f 192/1/145 193/1/145 200/1/145
f 200/1/146 199/1/146 210/1/146
f 203/1/5 204/1/5 205/1/5
f 205/1/5 206/1/5 207/1/5
f 207/1/5 208/1/5 201/1/5
f 201/1/5 202/1/5 203/1/5
f 203/1/5 205/1/5 207/1/5
f 209/1/147 197/1/147 196/1/147
f 195/1/148 194/1/148 191/1/148
f 209/1/149 196/1/149 195/1/149
f 202/1/69 201/1/69 193/1/69
f 193/1/70 201/1/70 208/1/70
f 207/1/71 206/1/71 198/1/71
f 197/1/72 205/1/72 204/1/72
f 203/1/73 202/1/73 194/1/73
f 208/1/74 207/1/74 199/1/74
f 198/1/75 206/1/75 205/1/75
f 196/1/76 204/1/76 203/1/76
f 215/1/150 227/1/150 228/1/150
f 210/1/151 209/1/151 212/1/151
f 210/1/151 212/1/151 211/1/151
f 216/1/150 215/1/150 228/1/150
f 217/1/152 216/1/152 228/1/152
f 210/1/153 211/1/153 218/1/153
f 218/1/154 217/1/154 228/1/154
f 221/1/10 222/1/10 223/1/10
f 223/1/10 224/1/10 225/1/10
f 225/1/10 226/1/10 219/1/10
f 219/1/10 220/1/10 221/1/10
f 221/1/10 223/1/10 225/1/10
f 227/1/155 215/1/155 214/1/155
f 213/1/156 212/1/156 209/1/156
f 227/1/157 214/1/157 213/1/157
f 220/1/79 219/1/79 211/1/79
f 211/1/80 219/1/80 226/1/80
f 225/1/81 224/1/81 216/1/81
f 215/1/82 223/1/82 222/1/82
f 221/1/83 220/1/83 212/1/83
f 226/1/84 225/1/84 217/1/84
f 216/1/85 224/1/85 223/1/85
f 214/1/86 222/1/86 221/1/86
f 233/1/158 245/1/158 246/1/158
f 228/1/159 227/1/159 230/1/159
f 228/1/159 230/1/159 229/1/159
f 234/1/158 233/1/158 246/1/158
f 235/1/160 234/1/160 246/1/160
f 228/1/161 229/1/161 236/1/161
f 236/1/162 235/1/162 246/1/162
f 239/1/6 240/1/6 241/1/6
f 241/1/6 242/1/6 243/1/6
f 243/1/6 244/1/6 237/1/6
f 237/1/6 238/1/6 239/1/6
f 239/1/6 241/1/6 243/1/6
f 245/1/163 233/1/163 232/1/163
f 231/1/164 230/1/164 227/1/164
f 245/1/165 232/1/165 231/1/165
f 238/1/89 237/1/89 229/1/89
f 229/1/90 237/1/90 244/1/90
f 243/1/91 242/1/91 234/1/91
f 233/1/92 241/1/92 240/1/92
f 239/1/93 238/1/93 230/1/93
f 244/1/94 243/1/94 235/1/94
f 234/1/95 242/1/95 241/1/95
f 232/1/96 240/1/96 239/1/96
f 251/1/166 263/1/166 264/1/166
f 246/1/167 245/1/167 248/1/167
f 246/1/167 248/1/167 247/1/167
f 252/1/166 251/1/166 264/1/166
f 253/1/168 252/1/168 264/1/168
f 246/1/169 247/1/169 254/1/169
f 254/1/170 253/1/170 264/1/170
f 257/1/3 258/1/3 259/1/3
f 259/1/3 260/1/3 261/1/3
f 261/1/3 262/1/3 255/1/3
f 255/1/3 256/1/3 257/1/3
f 257/1/3 259/1/3 261/1/3
f 263/1/171 251/1/171 250/1/171
f 249/1/172 248/1/172 245/1/172
f 263/1/173 250/1/173 249/1/173
f 256/1/99 255/1/99 247/1/99
f 247/1/100 255/1/100 262/1/100
f 261/1/101 260/1/101 252/1/101
f 251/1/174 259/1/174 258/1/174
f 257/1/103 256/1/103 248/1/103
f 262/1/104 261/1/104 253/1/104
f 252/1/105 260/1/105 259/1/105
f 250/1/106 258/1/106 257/1/106
usemtl Material.001
f 301/7/1 297/9/1 300/8/1
f 302/6/11 297/10/11 299/11/11
f 307/24/107 305/12/107 303/25/107
f 308/26/108 304/27/108 305/28/108
f 303/25/12 301/7/12 307/24/12
f 298/2/21 305/28/21 299/3/21
f 304/27/2 302/6/2 299/3/2
f 306/29/22 307/24/22 300/8/22
f 311/5/2 313/6/2 310/3/2
f 313/6/11 309/10/11 310/11/11
f 316/30/107 320/31/107 318/32/107
f 317/33/108 319/34/108 320/31/108
f 319/34/1 309/9/1 312/8/1
f 309/4/21 316/35/21 310/3/21
f 311/12/12 318/32/12 314/13/12
f 318/32/22 320/31/22 312/8/22
f 301/7/1 298/33/1 297/9/1
f 302/6/11 300/8/11 297/10/11
f 307/24/107 308/26/107 305/12/107
f 308/26/108 306/29/108 304/27/108
f 303/25/12 298/36/12 301/7/12
f 299/3/21 297/4/21 298/2/21
f 298/2/21 303/37/21 305/28/21
f 305/28/21 304/27/21 299/3/21
f 304/27/2 306/29/2 302/6/2
f 300/8/22 302/6/22 306/29/22
f 306/29/22 308/26/22 307/24/22
f 307/24/22 301/7/22 300/8/22
f 311/5/2 314/13/2 313/6/2
f 313/6/11 312/8/11 309/10/11
f 316/30/107 317/36/107 320/31/107
f 317/33/108 315/38/108 319/34/108
f 319/34/1 315/38/1 309/9/1
f 309/4/21 315/39/21 317/40/21
f 316/35/21 311/5/21 310/3/21
f 309/4/21 317/40/21 316/35/21
f 311/12/12 316/30/12 318/32/12
f 312/8/22 313/6/22 314/13/22
f 312/8/22 314/13/22 318/32/22
f 320/31/22 319/34/22 312/8/22
