# Blender 3.6.1
# www.blender.org
mtllib ejemplo.mtl
o hierba
v 4.000000 4.000000 1.080711
v -4.000000 4.000000 0.000000
v 3.862443 -4.272453 0.552487
v -4.000000 -4.000000 1.240682
v 3.984587 -0.030528 0.183387
v 0.000000 4.000000 0.121482
v -4.000000 0.000000 0.139464
v -0.015397 -4.030496 0.201306
v 0.000000 0.000000 0.000000
v 4.000000 2.000000 0.706997
v -2.000000 4.000000 0.000000
v -4.000000 -2.000000 0.811650
v 1.910011 -4.178238 0.361435
v 3.910011 -2.178238 0.361435
v 2.000000 4.000000 0.706997
v -4.000000 2.000000 0.000000
v -2.000000 -4.000000 0.811650
v -0.005053 -2.010008 0.065906
v 0.000000 2.000000 0.039730
v 1.994946 -0.010010 0.060029
v -2.000000 0.000000 0.045611
v -2.000000 2.000000 0.000000
v 2.000000 2.000000 0.444215
v 1.943459 -2.111989 0.227094
v -2.000000 -2.000000 0.509970
v 4.000000 3.000000 0.970544
v -3.000000 4.000000 0.000000
v -4.000000 -3.000000 1.114208
v 2.876466 -4.244679 0.496167
v 3.950296 -1.098447 0.200007
v 1.000000 4.000000 0.390500
v -4.000000 1.000000 0.000429
v -1.000019 -4.000037 0.448380
v -0.012254 -3.024271 0.160070
v 0.000000 1.000000 0.000374
v 2.987737 -0.024288 0.145813
v -1.000000 0.000000 0.000429
v 3.999975 0.999951 0.390599
v -1.000000 4.000000 0.000374
v -4.000000 -1.000000 0.448303
v 0.950296 -4.098447 0.200063
v 3.876466 -3.244680 0.496167
v 3.000000 4.000000 0.970544
v -4.000000 3.000000 0.000000
v -3.000000 -4.000000 1.114208
v -0.000048 -1.000094 0.000620
v 0.000000 3.000000 0.096560
v 0.999952 -0.000094 0.000565
v -3.000000 0.000000 0.110853
v -2.000000 1.000000 0.000000
v -2.000000 3.000000 0.000000
v -1.000000 2.000000 0.000000
v -3.000000 2.000000 0.000000
v 2.000000 1.000000 0.215506
v 2.000000 3.000000 0.633326
v 3.000000 2.000000 0.633326
v 1.000000 2.000000 0.215506
v 1.919388 -3.159665 0.323772
v 1.972570 -1.054330 0.110172
v 2.919388 -2.159665 0.323772
v 0.972570 -2.054330 0.110172
v -2.000000 -3.000000 0.727073
v -2.000000 -1.000000 0.247406
v -1.000000 -2.000000 0.247406
v -3.000000 -2.000000 0.727073
v -3.000000 -1.000000 0.391444
v -1.000000 -1.000000 0.085738
v -1.000000 -3.000000 0.391444
v 0.990494 -1.018828 0.038180
v 2.956600 -1.085961 0.174314
v 2.888723 -3.220402 0.446936
v 1.000000 3.000000 0.340972
v 3.000000 3.000000 0.874244
v 3.000000 1.000000 0.340972
v -3.000000 3.000000 0.000000
v -1.000000 3.000000 0.000000
v -1.000000 1.000000 0.000000
v -3.000000 1.000000 0.000000
v 1.000000 1.000000 0.074683
v 0.956600 -3.085961 0.174314
v -3.000000 -3.000000 1.003653
v 1.939565 -2.788893 1.700831
v 1.073540 -2.288893 1.700831
v 1.073540 -1.288893 1.700831
v 1.939565 -0.788893 1.700831
v 2.805591 -1.288893 1.700831
v 2.805591 -2.288893 1.700831
v 1.939565 -1.788893 2.855689
v 1.939565 -2.788893 2.441136
v 1.073540 -2.288893 2.441136
v 1.073540 -1.288893 2.441136
v 1.939565 -0.788893 2.441136
v 2.805591 -1.288893 2.441136
v 2.805591 -2.288893 2.441136
v 1.939565 -1.788893 3.595994
v 1.952691 -2.077664 0.120799
v 1.952691 -2.077664 2.014251
v 1.728080 -1.984627 0.120799
v 1.728080 -1.984627 2.014251
v 1.635043 -1.760016 0.120799
v 1.635043 -1.760016 2.014251
v 1.728080 -1.535404 0.120799
v 1.728080 -1.535404 2.014251
v 1.952691 -1.442367 0.120799
v 1.952691 -1.442367 2.014251
v 2.177303 -1.535404 0.120798
v 2.177303 -1.535404 2.014251
v 2.270340 -1.760016 0.120798
v 2.270340 -1.760016 2.014251
v 2.177303 -1.984627 0.120798
v 2.177303 -1.984627 2.014251
v 1.939565 -2.788893 1.091328
v 1.073540 -2.288893 1.091328
v 1.073540 -1.288893 1.091328
v 1.939565 -0.788893 1.091328
v 2.805591 -1.288893 1.091328
v 2.805591 -2.288893 1.091328
v 1.939565 -1.788893 2.246186
v -1.841005 0.876302 1.090265
v -2.398682 1.198277 1.090265
v -2.398682 1.842227 1.090265
v -1.841005 2.164202 1.090265
v -1.283328 1.842227 1.090265
v -1.283328 1.198277 1.090265
v -1.841005 1.520252 1.833935
v -1.841005 0.876302 1.566984
v -2.398682 1.198277 1.566984
v -2.398682 1.842227 1.566984
v -1.841005 2.164202 1.566984
v -1.283328 1.842227 1.566984
v -1.283328 1.198277 1.566984
v -1.841005 1.520252 2.310654
v -1.832553 1.334298 0.004192
v -1.832553 1.334298 1.292091
v -1.977191 1.394209 0.004192
v -1.977191 1.394209 1.292091
v -2.037102 1.538848 0.004192
v -2.037102 1.538848 1.292091
v -1.977191 1.683486 0.004192
v -1.977191 1.683486 1.292091
v -1.832553 1.743397 0.004192
v -1.832553 1.743397 1.292091
v -1.687914 1.683486 0.004192
v -1.687914 1.683486 1.292091
v -1.628003 1.538848 0.004192
v -1.628003 1.538848 1.292091
v -1.687914 1.394209 0.004192
v -1.687914 1.394209 1.292091
v -1.841005 0.876302 0.697775
v -2.398682 1.198277 0.697775
v -2.398682 1.842227 0.697775
v -1.841005 2.164202 0.697775
v -1.283328 1.842227 0.697775
v -1.283328 1.198277 0.697775
v -1.841005 1.520252 1.441446
vn 0.1169 0.1169 0.9862
vn -0.0045 0.0332 0.9994
vn -0.0374 -0.0372 0.9986
vn 0.0144 0.1240 0.9922
vn 0.0226 0.0230 0.9995
vn -0.0000 -0.0000 1.0000
vn -0.1051 -0.1680 0.9802
vn -0.2057 -0.2057 0.9567
vn -0.2048 -0.0888 0.9748
vn -0.1291 0.0435 0.9907
vn -0.0761 0.1260 0.9891
vn -0.0393 0.0674 0.9970
vn 0.3292 0.0666 0.9419
vn 0.2032 0.2032 0.9578
vn 0.0666 0.3292 0.9419
vn 0.1705 0.2824 0.9440
vn 0.1012 0.2333 0.9671
vn 0.0410 0.2825 0.9584
vn 0.1322 0.1109 0.9850
vn 0.0427 0.0429 0.9982
vn 0.1018 0.1414 0.9847
vn 0.2367 0.0471 0.9704
vn 0.2044 0.1142 0.9722
vn 0.2824 0.1705 0.9440
vn -0.0916 0.0916 0.9916
vn -0.0653 0.0434 0.9969
vn -0.0190 0.0190 0.9996
vn -0.0293 0.1439 0.9892
vn -0.0316 0.0221 0.9993
vn -0.0747 0.0391 0.9964
vn -0.0520 0.0520 0.9973
vn -0.0409 0.1215 0.9918
vn -0.1058 0.1058 0.9887
vn -0.2492 -0.1505 0.9567
vn -0.2907 -0.0588 0.9550
vn -0.2485 -0.0360 0.9680
vn -0.0821 -0.2437 0.9664
vn -0.1022 -0.1022 0.9895
vn -0.2437 -0.0821 0.9664
vn -0.0434 -0.1914 0.9805
vn -0.0589 -0.2907 0.9550
vn -0.1505 -0.2492 0.9567
vn -0.0680 -0.0283 0.9973
vn -0.1082 -0.0126 0.9941
vn -0.0002 -0.0002 1.0000
vn -0.0200 -0.0197 0.9996
vn 0.0325 0.0780 0.9964
vn 0.0002 0.0002 1.0000
vn -0.0998 -0.1127 0.9886
vn -0.1788 -0.1788 0.9675
vn -0.1236 -0.0890 0.9883
vn -0.1570 0.0320 0.9871
vn -0.1308 0.0790 0.9883
vn -0.0257 0.0774 0.9967
vn 0.2769 0.0933 0.9563
vn 0.2330 0.2330 0.9441
vn 0.0933 0.2769 0.9563
vn -0.3827 -0.9239 -0.0000
vn -0.9239 -0.3827 -0.0000
vn -0.9239 0.3827 -0.0000
vn -0.3827 0.9239 -0.0000
vn 0.3827 0.9239 -0.0000
vn 0.9239 0.3827 -0.0000
vn 0.9239 -0.3827 -0.0000
vn 0.3827 -0.9239 -0.0000
vn -0.4000 -0.6929 0.5999
vn -0.8000 -0.0000 0.5999
vn -0.4000 0.6929 0.5999
vn 0.4000 0.6929 0.5999
vn 0.8000 -0.0000 0.5999
vn 0.4000 -0.6929 0.5999
vn -0.0000 -0.0000 -1.0000
vt 0.875000 0.875000
vt 1.000000 0.875000
vt 1.000000 1.000000
vt 0.875000 1.000000
vt 0.375000 0.875000
vt 0.500000 0.875000
vt 0.500000 1.000000
vt 0.375000 1.000000
vt 0.375000 0.375000
vt 0.500000 0.375000
vt 0.500000 0.500000
vt 0.375000 0.500000
vt 0.875000 0.375000
vt 1.000000 0.375000
vt 1.000000 0.500000
vt 0.875000 0.500000
vt 0.625000 0.375000
vt 0.750000 0.375000
vt 0.750000 0.500000
vt 0.625000 0.500000
vt 0.625000 0.125000
vt 0.750000 0.125000
vt 0.750000 0.250000
vt 0.625000 0.250000
vt 0.875000 0.125000
vt 1.000000 0.125000
vt 1.000000 0.250000
vt 0.875000 0.250000
vt 0.125000 0.375000
vt 0.250000 0.375000
vt 0.250000 0.500000
vt 0.125000 0.500000
vt 0.125000 0.125000
vt 0.250000 0.125000
vt 0.250000 0.250000
vt 0.125000 0.250000
vt 0.375000 0.125000
vt 0.500000 0.125000
vt 0.500000 0.250000
vt 0.375000 0.250000
vt 0.125000 0.875000
vt 0.250000 0.875000
vt 0.250000 1.000000
vt 0.125000 1.000000
vt 0.125000 0.625000
vt 0.250000 0.625000
vt 0.250000 0.750000
vt 0.125000 0.750000
vt 0.375000 0.625000
vt 0.500000 0.625000
vt 0.500000 0.750000
vt 0.375000 0.750000
vt 0.625000 0.875000
vt 0.750000 0.875000
vt 0.750000 1.000000
vt 0.625000 1.000000
vt 0.625000 0.625000
vt 0.750000 0.625000
vt 0.750000 0.750000
vt 0.625000 0.750000
vt 0.875000 0.625000
vt 1.000000 0.625000
vt 1.000000 0.750000
vt 0.875000 0.750000
vt 0.000000 0.625000
vt 0.000000 0.750000
vt 0.000000 0.500000
vt 0.000000 0.875000
vt 0.000000 1.000000
vt 0.250000 0.000000
vt 0.375000 0.000000
vt 0.500000 0.000000
vt 0.000000 0.125000
vt 0.000000 0.250000
vt 0.000000 0.000000
vt 0.125000 0.000000
vt 0.000000 0.375000
vt 0.750000 0.000000
vt 0.875000 0.000000
vt 1.000000 0.000000
vt 0.625000 0.000000
vt 0.250000 0.490000
vt 0.457846 0.370000
vt 0.457846 0.130000
vt 0.250000 0.010000
vt 0.042154 0.130000
vt 0.042154 0.370000
vt 0.419706 0.419706
vt 0.080294 0.419706
vt 0.010000 0.250000
vt 0.080294 0.080294
vt 0.419706 0.080294
vt 0.490000 0.250000
vt 0.750000 0.490000
vt 0.919706 0.419706
vt 0.990000 0.250000
vt 0.919706 0.080294
vt 0.750000 0.010000
vt 0.580294 0.080294
vt 0.510000 0.250000
vt 0.580294 0.419706
s 0
usemtl verde
f 81/1/1 28/2/1 4/3/1 45/4/1
f 80/5/2 34/6/2 8/7/2 41/8/2
f 79/9/3 35/10/3 9/11/3 48/12/3
f 78/13/4 32/14/4 7/15/4 49/16/4
f 77/17/5 50/18/5 21/19/5 37/20/5
f 76/21/6 51/22/6 22/23/6 52/24/6
f 75/25/6 44/26/6 16/27/6 53/28/6
f 74/29/7 54/30/7 20/31/7 36/32/7
f 73/33/8 55/34/8 23/35/8 56/36/8
f 72/37/9 47/38/9 19/39/9 57/40/9
f 71/41/10 58/42/10 13/43/10 29/44/10
f 70/45/11 59/46/11 24/47/11 60/48/11
f 69/49/12 46/50/12 18/51/12 61/52/12
f 68/53/13 62/54/13 17/55/13 33/56/13
f 67/57/14 63/58/14 25/59/14 64/60/14
f 66/61/15 40/62/15 12/63/15 65/64/15
f 63/58/16 66/61/16 65/64/16 25/59/16
f 21/19/17 49/16/17 66/61/17 63/58/17
f 49/16/18 7/15/18 40/62/18 66/61/18
f 46/50/19 67/57/19 64/60/19 18/51/19
f 9/11/20 37/20/20 67/57/20 46/50/20
f 37/20/21 21/19/21 63/58/21 67/57/21
f 34/6/22 68/53/22 33/56/22 8/7/22
f 18/51/23 64/60/23 68/53/23 34/6/23
f 64/60/24 25/59/24 62/54/24 68/53/24
f 59/46/25 69/49/25 61/52/25 24/47/25
f 20/31/26 48/12/26 69/49/26 59/46/26
f 48/12/27 9/11/27 46/50/27 69/49/27
f 30/65/28 70/45/28 60/48/28 14/66/28
f 5/67/29 36/32/29 70/45/29 30/65/29
f 36/32/30 20/31/30 59/46/30 70/45/30
f 42/68/31 71/41/31 29/44/31 3/69/31
f 14/66/32 60/48/32 71/41/32 42/68/32
f 60/48/33 24/47/33 58/42/33 71/41/33
f 55/34/34 72/37/34 57/40/34 23/35/34
f 15/70/35 31/71/35 72/37/35 55/34/35
f 31/71/36 6/72/36 47/38/36 72/37/36
f 26/73/37 73/33/37 56/36/37 10/74/37
f 1/75/38 43/76/38 73/33/38 26/73/38
f 43/76/39 15/70/39 55/34/39 73/33/39
f 38/77/40 74/29/40 36/32/40 5/67/40
f 10/74/41 56/36/41 74/29/41 38/77/41
f 56/36/42 23/35/42 54/30/42 74/29/42
f 51/22/6 75/25/6 53/28/6 22/23/6
f 11/78/6 27/79/6 75/25/6 51/22/6
f 27/79/6 2/80/6 44/26/6 75/25/6
f 47/38/43 76/21/43 52/24/43 19/39/43
f 6/72/44 39/81/44 76/21/44 47/38/44
f 39/81/45 11/78/45 51/22/45 76/21/45
f 35/10/6 77/17/6 37/20/6 9/11/6
f 19/39/46 52/24/46 77/17/46 35/10/46
f 52/24/6 22/23/6 50/18/6 77/17/6
f 50/18/47 78/13/47 49/16/47 21/19/47
f 22/23/6 53/28/6 78/13/6 50/18/6
f 53/28/48 16/27/48 32/14/48 78/13/48
f 54/30/49 79/9/49 48/12/49 20/31/49
f 23/35/50 57/40/50 79/9/50 54/30/50
f 57/40/51 19/39/51 35/10/51 79/9/51
f 58/42/52 80/5/52 41/8/52 13/43/52
f 24/47/53 61/52/53 80/5/53 58/42/53
f 61/52/54 18/51/54 34/6/54 80/5/54
f 62/54/55 81/1/55 45/4/55 17/55/55
f 25/59/56 65/64/56 81/1/56 62/54/56
f 65/64/57 12/63/57 28/2/57 81/1/57
usemtl marron
f 96/15/58 97/3/58 99/4/58 98/16/58
f 98/16/59 99/4/59 101/55/59 100/19/59
f 100/19/60 101/55/60 103/56/60 102/20/60
f 102/20/61 103/56/61 105/7/61 104/11/61
f 104/11/62 105/7/62 107/8/62 106/12/62
f 106/12/63 107/8/63 109/43/63 108/31/63
f 108/31/64 109/43/64 111/44/64 110/32/64
f 110/32/65 111/44/65 97/69/65 96/67/65
f 133/15/58 134/3/58 136/4/58 135/16/58
f 135/16/59 136/4/59 138/55/59 137/19/59
f 137/19/60 138/55/60 140/56/60 139/20/60
f 139/20/61 140/56/61 142/7/61 141/11/61
f 141/11/62 142/7/62 144/8/62 143/12/62
f 143/12/63 144/8/63 146/43/63 145/31/63
f 145/31/64 146/43/64 148/44/64 147/32/64
f 147/32/65 148/44/65 134/69/65 133/67/65
usemtl hojas
f 82/82/66 88/35/66 83/83/66
f 83/83/67 88/35/67 84/84/67
f 84/84/68 88/35/68 85/85/68
f 85/85/69 88/35/69 86/86/69
f 86/86/70 88/35/70 87/87/70
f 87/87/71 88/35/71 82/82/71
f 89/82/66 95/35/66 90/83/66
f 90/83/67 95/35/67 91/84/67
f 91/84/68 95/35/68 92/85/68
f 92/85/69 95/35/69 93/86/69
f 93/86/70 95/35/70 94/87/70
f 94/87/71 95/35/71 89/82/71
f 99/88/6 97/82/6 111/89/6 109/90/6 107/91/6 105/85/6 103/92/6 101/93/6
f 96/94/72 98/95/72 100/96/72 102/97/72 104/98/72 106/99/72 108/100/72 110/101/72
f 112/82/66 118/35/66 113/83/66
f 113/83/67 118/35/67 114/84/67
f 114/84/68 118/35/68 115/85/68
f 115/85/69 118/35/69 116/86/69
f 116/86/70 118/35/70 117/87/70
f 117/87/71 118/35/71 112/82/71
f 119/82/66 125/35/66 120/83/66
f 120/83/67 125/35/67 121/84/67
f 121/84/68 125/35/68 122/85/68
f 122/85/69 125/35/69 123/86/69
f 123/86/70 125/35/70 124/87/70
f 124/87/71 125/35/71 119/82/71
f 126/82/66 132/35/66 127/83/66
f 127/83/67 132/35/67 128/84/67
f 128/84/68 132/35/68 129/85/68
f 129/85/69 132/35/69 130/86/69
f 130/86/70 132/35/70 131/87/70
f 131/87/71 132/35/71 126/82/71
f 136/88/6 134/82/6 148/89/6 146/90/6 144/91/6 142/85/6 140/92/6 138/93/6
f 133/94/72 135/95/72 137/96/72 139/97/72 141/98/72 143/99/72 145/100/72 147/101/72
f 149/82/66 155/35/66 150/83/66
f 150/83/67 155/35/67 151/84/67
f 151/84/68 155/35/68 152/85/68
f 152/85/69 155/35/69 153/86/69
f 153/86/70 155/35/70 154/87/70
f 154/87/71 155/35/71 149/82/71
o Cube
v -0.613118 -2.987064 2.177137
v -0.749970 -3.100351 1.655469
v -0.302943 -1.074705 1.680473
v -0.439796 -1.187992 1.158806
v -2.525477 -2.570113 2.588272
v -2.662330 -2.683400 2.066604
v -2.215303 -0.657754 2.091608
v -2.352155 -0.771041 1.569940
v -0.406335 -1.712158 1.846028
v -0.509726 -2.349612 2.011582
v -0.646578 -2.462898 1.489915
v -0.543187 -1.825445 1.324360
v -2.422086 -1.932660 2.422717
v -2.318695 -1.295207 2.257163
v -2.455547 -1.408494 1.735495
v -2.558939 -2.045947 1.901049
v -1.577850 -0.796738 1.954563
v -0.940397 -0.935722 1.817518
v -1.077249 -1.049009 1.295851
v -1.714702 -0.910025 1.432896
v -1.250571 -2.848081 2.314182
v -1.888024 -2.709097 2.451227
v -2.024877 -2.822384 1.929559
v -1.387423 -2.961368 1.792514
v -1.180640 -1.686462 1.461405
v -1.818094 -1.547478 1.598450
v -1.284032 -2.323915 1.626960
v -1.921485 -2.184931 1.764005
v -1.681241 -1.434191 2.120118
v -1.043788 -1.573175 1.983073
v -1.784633 -2.071644 2.285672
v -1.147180 -2.210628 2.148627
v -0.837542 -2.069114 0.202306
v -0.734151 -1.431661 0.036752
v -2.009058 -1.153694 0.310841
v -2.646511 -1.014710 0.447886
v -2.853294 -2.289616 0.778995
v -2.956685 -2.927069 0.944550
v -1.681779 -3.205036 0.670460
v -1.044325 -3.344020 0.533415
v -0.940934 -2.706567 0.367861
v -2.749902 -1.652163 0.613441
v -2.112449 -1.791147 0.476396
v -2.215840 -2.428600 0.641950
v -1.371604 -1.292677 0.173796
v -2.319232 -3.066052 0.807505
v -1.474996 -1.930130 0.339351
v -1.578387 -2.567583 0.504906
vn 0.9562 -0.2085 -0.2056
vn 0.1551 0.9562 -0.2483
vn -0.9562 0.2085 0.2056
vn -0.1551 -0.9562 0.2483
vn 0.2483 0.2056 0.9466
vn -0.2483 -0.2056 -0.9466
vt 0.375000 0.166667
vt 0.625000 0.166667
vt 0.625000 0.250000
vt 0.375000 0.250000
vt 0.375000 0.416667
vt 0.625000 0.416667
vt 0.625000 0.500000
vt 0.375000 0.500000
vt 0.375000 0.666667
vt 0.625000 0.666667
vt 0.625000 0.750000
vt 0.375000 0.750000
vt 0.375000 0.916667
vt 0.625000 0.916667
vt 0.625000 1.000000
vt 0.375000 1.000000
vt 0.291667 0.666667
vt 0.291667 0.750000
vt 0.625000 0.833333
vt 0.791667 0.583333
vt 0.875000 0.583333
vt 0.875000 0.666667
vt 0.791667 0.666667
vt 0.291667 0.500000
vt 0.375000 0.583333
vt 0.291667 0.583333
vt 0.625000 0.583333
vt 0.375000 0.000000
vt 0.625000 0.000000
vt 0.625000 0.083333
vt 0.375000 0.083333
vt 0.125000 0.583333
vt 0.208333 0.583333
vt 0.208333 0.666667
vt 0.125000 0.666667
vt 0.708333 0.583333
vt 0.125000 0.500000
vt 0.208333 0.500000
vt 0.708333 0.666667
vt 0.708333 0.500000
vt 0.791667 0.500000
vt 0.791667 0.750000
vt 0.708333 0.750000
vt 0.208333 0.750000
vt 0.125000 0.750000
vt 0.375000 0.833333
vt 0.625000 0.333333
vt 0.375000 0.333333
vt 0.875000 0.750000
vt 0.875000 0.500000
s 0
usemtl Material.001
f 164/102/73 167/103/73 159/104/73 158/105/73
f 172/106/74 175/107/74 163/108/74 162/109/74
f 168/110/75 171/111/75 161/112/75 160/113/75
f 176/114/76 179/115/76 157/116/76 156/117/76
f 186/118/77 168/110/77 160/113/77 177/119/77
f 163/108/74 175/107/74 190/107/74 191/108/74
f 178/120/76 161/112/76 193/112/76 201/120/76
f 180/121/78 167/122/78 166/123/78 182/124/78
f 172/125/77 162/109/77 169/126/77 184/127/77
f 184/127/77 169/126/77 168/110/77 186/118/77
f 162/109/75 163/108/75 170/128/75 169/126/75
f 169/126/75 170/128/75 171/111/75 168/110/75
f 156/129/73 157/130/73 166/131/73 165/132/73
f 165/132/73 166/131/73 167/103/73 164/102/73
f 164/133/77 185/134/77 187/135/77 165/136/77
f 180/121/76 185/134/76 184/127/76 181/137/76
f 158/138/77 173/139/77 185/134/77 164/133/77
f 173/139/77 172/125/77 184/127/77 185/134/77
f 170/128/78 181/137/78 183/140/78 171/111/78
f 187/135/75 185/134/75 180/121/75 182/124/75
f 157/116/76 179/115/76 194/115/76 195/116/76
f 175/141/78 174/142/78 180/121/78 181/137/78
f 170/128/75 163/108/75 191/108/75 197/128/75
f 183/140/78 182/124/78 179/143/78 178/144/78
f 165/136/77 187/135/77 176/145/77 156/146/77
f 187/135/77 186/118/77 177/119/77 176/145/77
f 160/113/76 161/112/76 178/120/76 177/147/76
f 177/147/76 178/120/76 179/115/76 176/114/76
f 158/105/74 159/104/74 174/148/74 173/149/74
f 173/149/74 174/148/74 175/107/74 172/106/74
f 203/124/78 196/123/78 195/150/78 194/143/78
f 200/142/78 189/151/78 188/122/78 202/121/78
f 191/108/78 190/141/78 198/137/78 197/128/78
f 192/111/78 199/140/78 201/144/78 193/112/78
f 181/137/76 170/128/76 197/128/76 198/137/76
f 175/141/73 181/137/73 198/137/73 190/141/73
f 171/111/74 183/140/74 199/140/74 192/111/74
f 167/122/76 180/121/76 202/121/76 188/122/76
f 180/121/75 174/142/75 200/142/75 202/121/75
f 166/131/73 157/130/73 195/130/73 196/131/73
f 183/140/73 178/144/73 201/144/73 199/140/73
f 174/148/74 159/104/74 189/104/74 200/148/74
f 161/112/75 171/111/75 192/111/75 193/112/75
f 182/124/74 166/123/74 196/123/74 203/124/74
f 179/143/75 182/124/75 203/124/75 194/143/75
f 159/104/73 167/103/73 188/103/73 189/104/73
f 182/124/74 183/140/74 186/118/74 187/135/74
f 186/118/73 183/140/73 181/137/73 184/127/73
o Cube.001
v -1.687286 2.979827 0.906476
v -0.651443 2.979827 2.617332
v 0.023571 2.979827 -0.129367
v 1.059414 2.979827 1.581489
v -1.687286 0.979827 0.906476
v -0.651443 0.979827 2.617332
v 0.023571 0.979827 -0.129367
v 1.059414 0.979827 1.581489
v 0.023571 1.133673 -0.129367
v 0.023571 1.287519 -0.129367
v 0.023571 1.441365 -0.129367
v 0.023571 1.595212 -0.129367
v 0.023571 1.749058 -0.129367
v 0.023571 1.902904 -0.129367
v 0.023571 2.056750 -0.129367
v 0.023571 2.210596 -0.129367
v 0.023571 2.364442 -0.129367
v 0.023571 2.518289 -0.129367
v 0.023571 2.672135 -0.129367
v 0.023571 2.825981 -0.129367
v 1.059414 2.825981 1.581489
v 1.059414 2.672135 1.581489
v 1.059414 2.518289 1.581489
v 1.059414 2.364442 1.581489
v 1.059414 2.210596 1.581489
v 1.059414 2.056750 1.581489
v 1.059414 1.902904 1.581489
v 1.059414 1.749058 1.581489
v 1.059414 1.595212 1.581489
v 1.059414 1.441365 1.581489
v 1.059414 1.287519 1.581489
v 1.059414 1.133673 1.581489
v -1.687286 2.825981 0.906476
v -1.687286 2.672135 0.906476
v -1.687286 2.518289 0.906476
v -1.687286 2.364442 0.906476
v -1.687286 2.210596 0.906476
v -1.687286 2.056750 0.906476
v -1.687286 1.902904 0.906476
v -1.687286 1.749058 0.906476
v -1.687286 1.595212 0.906476
v -1.687286 1.441365 0.906476
v -1.687286 1.287519 0.906476
v -1.687286 1.133673 0.906476
v -0.651443 1.133673 2.617332
v -0.651443 1.287519 2.617332
v -0.651443 1.441365 2.617332
v -0.651443 1.595212 2.617332
v -0.651443 1.749058 2.617332
v -0.651443 1.902904 2.617332
v -0.651443 2.056750 2.617332
v -0.651443 2.210596 2.617332
v -0.651443 2.364442 2.617332
v -0.651443 2.518289 2.617332
v -0.651443 2.672135 2.617332
v -0.651443 2.825981 2.617332
v 1.370985 2.825981 2.096099
v 1.370985 2.672135 2.096099
v 1.370985 2.518289 2.096099
v 1.370985 2.364442 2.096099
v 1.370985 2.056750 2.096099
v 1.370985 1.902904 2.096099
v 1.370985 1.749058 2.096099
v 1.370985 1.595212 2.096099
v 1.370985 1.287519 2.096099
v 1.370985 1.133673 2.096099
v -0.339871 1.133673 3.131942
v -0.339871 1.287519 3.131942
v -0.339871 1.595212 3.131942
v -0.339871 1.749058 3.131942
v -0.339871 1.902904 3.131942
v -0.339871 2.056750 3.131942
v -0.339871 2.364442 3.131942
v -0.339871 2.518289 3.131942
v -0.339871 2.672135 3.131942
v -0.339871 2.825981 3.131942
vn -0.0000 1.0000 -0.0000
vn 0.8554 -0.0000 -0.5179
vn -0.0000 -1.0000 -0.0000
vn -0.8554 -0.0000 0.5179
vn -0.5179 -0.0000 -0.8554
vn 0.5179 -0.0000 0.8554
vt 0.375000 0.000000
vt 0.625000 0.000000
vt 0.625000 0.250000
vt 0.375000 0.250000
vt 0.375000 0.480769
vt 0.625000 0.480769
vt 0.625000 0.500000
vt 0.375000 0.500000
vt 0.625000 0.750000
vt 0.375000 0.750000
vt 0.375000 0.980769
vt 0.625000 0.980769
vt 0.625000 1.000000
vt 0.375000 1.000000
vt 0.355769 0.500000
vt 0.355769 0.750000
vt 0.855769 0.500000
vt 0.875000 0.500000
vt 0.875000 0.750000
vt 0.855769 0.750000
vt 0.644231 0.500000
vt 0.644231 0.750000
vt 0.625000 0.461538
vt 0.663462 0.500000
vt 0.682692 0.500000
vt 0.682692 0.750000
vt 0.663462 0.750000
vt 0.701923 0.500000
vt 0.701923 0.750000
vt 0.625000 0.942308
vt 0.625000 0.923077
vt 0.721154 0.500000
vt 0.740385 0.500000
vt 0.740385 0.750000
vt 0.721154 0.750000
vt 0.625000 0.326923
vt 0.625000 0.307692
vt 0.759615 0.500000
vt 0.778846 0.500000
vt 0.778846 0.750000
vt 0.759615 0.750000
vt 0.798077 0.500000
vt 0.798077 0.750000
vt 0.817308 0.500000
vt 0.836538 0.500000
vt 0.836538 0.750000
vt 0.817308 0.750000
vt 0.625000 0.788462
vt 0.625000 0.769231
vt 0.125000 0.500000
vt 0.144231 0.500000
vt 0.144231 0.750000
vt 0.125000 0.750000
vt 0.163462 0.500000
vt 0.163462 0.750000
vt 0.182692 0.500000
vt 0.182692 0.750000
vt 0.201923 0.500000
vt 0.201923 0.750000
vt 0.221154 0.500000
vt 0.221154 0.750000
vt 0.240385 0.500000
vt 0.240385 0.750000
vt 0.259615 0.500000
vt 0.259615 0.750000
vt 0.278846 0.500000
vt 0.278846 0.750000
vt 0.298077 0.500000
vt 0.298077 0.750000
vt 0.317308 0.500000
vt 0.317308 0.750000
vt 0.336538 0.500000
vt 0.336538 0.750000
vt 0.375000 0.769231
vt 0.375000 0.788462
vt 0.625000 0.807692
vt 0.375000 0.807692
vt 0.625000 0.826923
vt 0.375000 0.826923
vt 0.625000 0.846154
vt 0.375000 0.846154
vt 0.625000 0.865385
vt 0.375000 0.865385
vt 0.625000 0.884615
vt 0.375000 0.884615
vt 0.625000 0.903846
vt 0.375000 0.903846
vt 0.375000 0.923077
vt 0.375000 0.942308
vt 0.625000 0.961538
vt 0.375000 0.961538
vt 0.625000 0.269231
vt 0.375000 0.269231
vt 0.625000 0.288462
vt 0.375000 0.288462
vt 0.375000 0.307692
vt 0.375000 0.326923
vt 0.625000 0.346154
vt 0.375000 0.346154
vt 0.625000 0.365385
vt 0.375000 0.365385
vt 0.625000 0.384615
vt 0.375000 0.384615
vt 0.625000 0.403846
vt 0.375000 0.403846
vt 0.625000 0.423077
vt 0.375000 0.423077
vt 0.625000 0.442308
vt 0.375000 0.442308
vt 0.375000 0.461538
s 0
usemtl Material.002
f 204/152/79 205/153/79 207/154/79 206/155/79
f 212/156/80 235/157/80 211/158/80 210/159/80
f 210/159/81 211/158/81 209/160/81 208/161/81
f 236/162/82 259/163/82 205/164/82 204/165/82
f 212/166/83 210/159/83 208/161/83 247/167/83
f 224/168/84 207/169/84 205/170/84 259/171/84
f 211/158/84 235/172/84 248/173/84 209/160/84
f 235/157/80 234/174/80 268/174/80 269/157/80
f 234/175/84 233/176/84 250/177/84 249/178/84
f 233/176/84 232/179/84 251/180/84 250/177/84
f 257/181/82 256/182/82 276/182/82 277/181/82
f 231/183/84 230/184/84 253/185/84 252/186/84
f 227/187/80 226/188/80 262/188/80 263/187/80
f 229/189/84 228/190/84 255/191/84 254/192/84
f 228/190/84 227/193/84 256/194/84 255/191/84
f 231/183/79 252/186/79 273/186/79 266/183/79
f 226/195/84 225/196/84 258/197/84 257/198/84
f 249/199/82 248/200/82 270/200/82 271/199/82
f 206/201/83 223/202/83 236/203/83 204/204/83
f 223/202/83 222/205/83 237/206/83 236/203/83
f 222/205/83 221/207/83 238/208/83 237/206/83
f 221/207/83 220/209/83 239/210/83 238/208/83
f 220/209/83 219/211/83 240/212/83 239/210/83
f 219/211/83 218/213/83 241/214/83 240/212/83
f 218/213/83 217/215/83 242/216/83 241/214/83
f 217/215/83 216/217/83 243/218/83 242/216/83
f 216/217/83 215/219/83 244/220/83 243/218/83
f 215/219/83 214/221/83 245/222/83 244/220/83
f 214/221/83 213/223/83 246/224/83 245/222/83
f 213/223/83 212/166/83 247/167/83 246/224/83
f 208/161/82 209/160/82 248/200/82 247/225/82
f 247/225/82 248/200/82 249/199/82 246/226/82
f 246/226/82 249/199/82 250/227/82 245/228/82
f 245/228/82 250/227/82 251/229/82 244/230/82
f 244/230/82 251/229/82 252/231/82 243/232/82
f 243/232/82 252/231/82 253/233/82 242/234/82
f 242/234/82 253/233/82 254/235/82 241/236/82
f 241/236/82 254/235/82 255/237/82 240/238/82
f 240/238/82 255/237/82 256/182/82 239/239/82
f 239/239/82 256/182/82 257/181/82 238/240/82
f 238/240/82 257/181/82 258/241/82 237/242/82
f 237/242/82 258/241/82 259/163/82 236/162/82
f 206/155/80 207/154/80 224/243/80 223/244/80
f 223/244/80 224/243/80 225/245/80 222/246/80
f 222/246/80 225/245/80 226/188/80 221/247/80
f 221/247/80 226/188/80 227/187/80 220/248/80
f 220/248/80 227/187/80 228/249/80 219/250/80
f 219/250/80 228/249/80 229/251/80 218/252/80
f 218/252/80 229/251/80 230/253/80 217/254/80
f 217/254/80 230/253/80 231/255/80 216/256/80
f 216/256/80 231/255/80 232/257/80 215/258/80
f 215/258/80 232/257/80 233/259/80 214/260/80
f 214/260/80 233/259/80 234/174/80 213/261/80
f 213/261/80 234/174/80 235/157/80 212/156/80
f 269/172/84 268/175/84 271/178/84 270/173/84
f 267/179/84 266/183/84 273/186/84 272/180/84
f 265/184/84 264/189/84 275/192/84 274/185/84
f 263/193/84 262/195/84 277/198/84 276/194/84
f 261/196/84 260/168/84 279/171/84 278/197/84
f 253/185/81 230/184/81 265/184/81 274/185/81
f 229/189/79 254/192/79 275/192/79 264/189/79
f 259/163/82 258/241/82 278/241/82 279/163/82
f 252/231/82 251/229/82 272/229/82 273/231/82
f 230/253/80 229/251/80 264/251/80 265/253/80
f 248/173/81 235/172/81 269/172/81 270/173/81
f 256/194/81 227/193/81 263/193/81 276/194/81
f 234/175/79 249/178/79 271/178/79 268/175/79
f 254/235/82 253/233/82 274/233/82 275/235/82
f 226/195/79 257/198/79 277/198/79 262/195/79
f 232/257/80 231/255/80 266/255/80 267/257/80
f 225/245/80 224/243/80 260/243/80 261/245/80
f 258/197/81 225/196/81 261/196/81 278/197/81
f 251/180/81 232/179/81 267/179/81 272/180/81
f 224/168/79 259/171/79 279/171/79 260/168/79
