# Blender 4.5.3 LTS
# www.blender.org
mtllib sniper.mtl
o Circle.001
v -0.011925 11.467094 -0.350314
v -0.112683 11.425359 -0.350314
v -0.154419 11.324600 -0.350314
v -0.112683 11.223842 -0.350314
v -0.011925 11.182106 -0.350314
v 0.088834 11.223842 -0.350314
v 0.130570 11.324600 -0.350314
v 0.088834 11.425359 -0.350314
v -0.011925 11.467094 -0.670536
v -0.112683 11.425359 -0.670536
v -0.154419 11.324600 -0.670536
v -0.112683 11.223842 -0.670536
v -0.011925 11.182106 -0.670536
v 0.088834 11.223842 -0.670536
v 0.130570 11.324600 -0.670536
v 0.088834 11.425359 -0.670536
vn -0.0000 -0.0000 -1.0000
vn -0.0000 -0.0000 1.0000
vn -0.9239 0.3827 -0.0000
vn 0.3827 0.9239 -0.0000
vn 0.9239 -0.3827 -0.0000
vn -0.9239 -0.3827 -0.0000
vn -0.3827 0.9239 -0.0000
vn 0.9239 0.3827 -0.0000
vn 0.3827 -0.9239 -0.0000
vn -0.3827 -0.9239 -0.0000
vt 0.000000 0.000000
s 0
f 2/1/1 1/1/1 8/1/1 7/1/1 6/1/1 5/1/1 4/1/1 3/1/1
f 10/1/2 11/1/2 12/1/2 13/1/2 14/1/2 15/1/2 16/1/2 9/1/2
f 6/1/3 7/1/3 15/1/3 14/1/3
f 4/1/4 5/1/4 13/1/4 12/1/4
f 2/1/5 3/1/5 11/1/5 10/1/5
f 7/1/6 8/1/6 16/1/6 15/1/6
f 5/1/7 6/1/7 14/1/7 13/1/7
f 3/1/8 4/1/8 12/1/8 11/1/8
f 1/1/9 2/1/9 10/1/9 9/1/9
f 8/1/10 1/1/10 9/1/10 16/1/10
o Cube.002
v 0.346316 2.747844 -0.013844
v 0.346316 2.747844 1.796092
v 0.346316 4.143819 0.746697
v 0.346316 4.143819 1.796092
v 0.910675 2.747844 -0.013844
v 0.910675 2.747844 1.796092
v 0.910675 3.698395 0.746697
v 0.910675 3.698395 1.796092
v 0.346316 3.295456 -0.013844
v 0.346316 3.295456 1.796092
v 0.910675 3.295456 -0.013844
v 0.910675 3.295456 1.796092
v 0.699613 4.143819 0.746697
v 0.699613 4.143819 1.796092
v 0.699613 2.747844 -0.013844
v 0.699613 2.747844 1.796092
v 0.699613 3.295456 1.796092
v 0.699613 3.295456 -0.013844
v -0.374606 0.000000 -0.927184
v -0.920505 0.000000 -0.390731
v -0.927184 0.000000 0.374607
v -0.390731 0.000000 0.920505
v 0.374607 0.000000 0.927184
v 0.920505 0.000000 0.390731
v 0.927184 0.000000 -0.374607
v 0.390731 0.000000 -0.920505
v -0.374606 0.311450 -0.927184
v -0.920505 0.311450 -0.390731
v -0.927184 0.311450 0.374607
v -0.390731 0.311450 0.920505
v 0.374607 0.311450 0.927184
v 0.920505 0.311450 0.390731
v 0.927184 0.311450 -0.374607
v 0.390731 0.311450 -0.920505
v 0.000141 0.466475 -0.139260
v -0.160294 0.419485 -0.092269
v -0.226748 0.306040 0.021175
v -0.160294 0.192595 0.134620
v 0.000141 0.145605 0.181610
v 0.160577 0.192595 0.134620
v 0.227031 0.306040 0.021175
v 0.160577 0.419485 -0.092269
v -0.160294 1.876111 1.364357
v 0.000141 1.923102 1.317367
v -0.226748 1.762666 1.477802
v -0.160294 1.649222 1.591247
v 0.000141 1.602232 1.638237
v 0.160576 1.649222 1.591247
v 0.227031 1.762666 1.477802
v 0.160576 1.876111 1.364357
v 0.160577 1.212722 0.700968
v 0.000141 1.259712 0.653977
v -0.160294 1.212722 0.700968
v -0.226748 1.099277 0.814412
v -0.160294 0.985832 0.927857
v 0.000141 0.938842 0.974848
v 0.227031 1.099277 0.814412
v 0.160577 0.985832 0.927857
v 0.251590 0.661642 -0.230273
v 0.355743 0.306040 -0.334427
v 0.251590 -0.049562 -0.230273
v 0.355743 0.661642 0.021175
v 0.503039 0.306040 0.021175
v 0.355743 -0.049562 0.021175
v 0.251590 0.661642 0.272624
v 0.355743 0.306040 0.376777
v 0.251590 -0.049562 0.272624
v 0.000141 0.661642 0.376777
v 0.000141 0.306040 0.524072
v 0.000141 -0.049562 0.376777
v -0.251307 0.661642 0.272624
v -0.355460 0.306040 0.376777
v -0.251307 -0.049562 0.272624
v 0.000141 -0.196857 0.021175
v -0.355460 0.661642 0.021175
v -0.502756 0.306040 0.021175
v -0.355460 -0.049562 0.021175
v -0.251307 0.661642 -0.230273
v -0.355460 0.306040 -0.334427
v -0.251307 -0.049562 -0.230273
v 0.000141 0.808937 0.021175
v 0.000141 0.661642 -0.334427
v 0.000141 0.306040 -0.481722
v 0.000141 -0.049562 -0.334427
v 0.263811 3.663306 0.283632
v 0.372893 2.989317 0.026650
v 0.625373 3.663306 0.651562
v 0.884220 2.989317 0.546981
v 0.620872 3.663306 1.167390
v 0.877854 2.989317 1.276472
v 0.252943 3.663306 1.528953
v 0.357524 2.989317 1.787800
v -0.262886 3.663306 1.524451
v -0.371968 2.989317 1.781433
v -0.624449 3.663306 1.156522
v -0.883295 2.989317 1.261103
v -0.619947 3.663306 0.640694
v -0.876929 2.989317 0.531611
v 0.000462 3.942481 0.904042
v -0.252018 3.663306 0.279131
v -0.356599 2.989317 0.020284
v 0.381721 2.989317 0.542595
v -0.433389 2.989317 0.535482
v 0.069697 3.546341 0.644604
v -0.071752 3.545107 0.644604
v -0.170898 3.444215 0.644604
v -0.169664 3.197607 0.644604
v -0.068772 3.098460 0.644604
v 0.072677 3.099694 0.644604
v 0.171823 3.200587 0.644604
v 0.170589 3.447195 0.644604
v 0.069697 3.546341 -2.538159
v -0.071752 3.545107 -2.538159
v -0.170898 3.444215 -2.538159
v -0.169664 3.197607 -2.538159
v -0.068772 3.098460 -2.538159
v 0.072677 3.099694 -2.538159
v 0.171823 3.200587 -2.538159
v 0.170589 3.447195 -2.538159
v -0.086320 3.590033 -2.538159
v 0.083663 3.591516 -2.538159
v -0.205467 3.468788 -2.538159
v -0.203984 3.172432 -2.538159
v -0.082738 3.053285 -2.538159
v 0.087245 3.054769 -2.538159
v 0.206392 3.176013 -2.538159
v 0.204908 3.472369 -2.538159
v -0.086320 3.590033 -2.572789
v 0.083663 3.591516 -2.572789
v -0.205467 3.468788 -2.572789
v -0.203984 3.172432 -2.572789
v -0.082738 3.053285 -2.572789
v 0.087245 3.054769 -2.572789
v 0.206392 3.176013 -2.572789
v 0.204908 3.472369 -2.572789
v -0.077401 3.562529 -2.572789
v 0.075113 3.563860 -2.572789
v -0.184304 3.453744 -2.572789
v -0.182973 3.187844 -2.572789
v -0.074188 3.080942 -2.572789
v 0.078326 3.082273 -2.572789
v 0.185229 3.191057 -2.572789
v 0.183898 3.456957 -2.572789
v -0.077401 3.562529 -2.587561
v 0.075113 3.563860 -2.587561
v -0.184304 3.453744 -2.587561
v -0.182973 3.187844 -2.587561
v -0.074188 3.080942 -2.587561
v 0.078326 3.082273 -2.587561
v 0.185229 3.191057 -2.587561
v 0.183898 3.456957 -2.587561
v -0.086315 3.590019 -2.587561
v 0.083659 3.591503 -2.587561
v -0.205456 3.468781 -2.587561
v -0.203973 3.172440 -2.587561
v -0.082734 3.053299 -2.587561
v 0.087240 3.054782 -2.587561
v 0.206381 3.176021 -2.587561
v 0.204898 3.472362 -2.587561
v -0.086315 3.590019 -2.622191
v 0.083659 3.591503 -2.622191
v -0.205456 3.468781 -2.622191
v -0.203973 3.172440 -2.622191
v -0.082734 3.053299 -2.622191
v 0.087240 3.054782 -2.622191
v 0.206381 3.176021 -2.622191
v 0.204898 3.472362 -2.622191
v -0.077397 3.562516 -2.622191
v 0.075109 3.563847 -2.622191
v -0.184294 3.453737 -2.622191
v -0.182963 3.187851 -2.622191
v -0.074184 3.080954 -2.622191
v 0.078322 3.082285 -2.622191
v 0.185219 3.191064 -2.622191
v 0.183888 3.456950 -2.622191
v -0.077397 3.562516 -2.636962
v 0.075109 3.563847 -2.636962
v -0.184294 3.453737 -2.636962
v -0.182963 3.187851 -2.636962
v -0.074184 3.080954 -2.636962
v 0.078322 3.082285 -2.636962
v 0.185219 3.191064 -2.636962
v 0.183888 3.456950 -2.636962
v -0.086318 3.590029 -2.636962
v 0.083662 3.591513 -2.636962
v -0.205464 3.468786 -2.636962
v -0.203981 3.172434 -2.636962
v -0.082737 3.053289 -2.636962
v 0.087243 3.054772 -2.636962
v 0.206389 3.176015 -2.636962
v 0.204905 3.472367 -2.636962
v -0.086318 3.590029 -2.671593
v 0.083662 3.591513 -2.671593
v -0.205464 3.468786 -2.671593
v -0.203981 3.172434 -2.671593
v -0.082737 3.053289 -2.671593
v 0.087243 3.054772 -2.671593
v 0.206389 3.176015 -2.671593
v 0.204905 3.472367 -2.671593
v -0.031388 3.420628 -2.671592
v 0.030999 3.421172 -2.671592
v -0.075118 3.376128 -2.671592
v -0.074574 3.267359 -2.671592
v -0.030074 3.223630 -2.671592
v 0.032313 3.224174 -2.671592
v 0.076043 3.268674 -2.671592
v 0.075498 3.377443 -2.671592
v -0.031388 3.420627 -2.077510
v 0.031000 3.421172 -2.077510
v -0.075117 3.376128 -2.077510
v -0.074573 3.267359 -2.077510
v -0.030073 3.223629 -2.077510
v 0.032314 3.224174 -2.077510
v 0.076044 3.268673 -2.077510
v 0.075499 3.377442 -2.077510
v -0.183427 3.028228 0.703165
v -0.183427 3.069265 0.744203
v -0.224465 3.069265 0.703165
v -0.183427 3.577364 0.744203
v -0.183427 3.618402 0.703165
v -0.224465 3.577364 0.703165
v -0.183427 3.028228 -0.847914
v -0.224465 3.069265 -0.847914
v -0.183427 3.069265 -0.888951
v -0.183427 3.618402 -0.847914
v -0.183427 3.577364 -0.888951
v -0.224465 3.577364 -0.847914
v 0.184352 3.028228 0.703165
v 0.225390 3.069265 0.703165
v 0.184352 3.069265 0.744203
v 0.184352 3.618402 0.703165
v 0.184352 3.577364 0.744203
v 0.225390 3.577364 0.703165
v 0.184352 3.028228 -0.847914
v 0.184352 3.069265 -0.888951
v 0.225390 3.069265 -0.847914
v 0.184352 3.618402 -0.847914
v 0.225390 3.577364 -0.847914
v 0.184352 3.577364 -0.888951
v 0.000141 1.576909 1.508940
v -0.160294 1.623899 1.555930
v -0.226748 1.737344 1.669375
v -0.160294 1.850789 1.782820
v 0.000141 1.897779 1.829810
v 0.160577 1.850789 1.782820
v 0.227031 1.737344 1.669375
v 0.160577 1.623899 1.555930
v -0.160294 2.778019 0.401811
v 0.000141 2.731029 0.354820
v -0.226748 2.891464 0.515255
v -0.160294 3.004909 0.628700
v 0.000141 3.051899 0.675690
v 0.160576 3.004909 0.628700
v 0.227031 2.891464 0.515255
v 0.160576 2.778019 0.401811
v 0.160577 2.252400 0.927429
v 0.000141 2.205410 0.880439
v -0.160294 2.252400 0.927429
v -0.226748 2.365845 1.040874
v -0.160294 2.479290 1.154319
v 0.000141 2.526280 1.201310
v 0.227031 2.365845 1.040874
v 0.160577 2.479290 1.154319
v 0.202627 2.140627 1.247575
v 0.286500 1.854268 1.163703
v 0.202627 1.567910 1.247575
v 0.286500 2.140627 1.450061
v 0.405113 1.854268 1.450061
v 0.286500 1.567910 1.450061
v 0.202627 2.140627 1.652547
v 0.286500 1.854268 1.736419
v 0.202627 1.567910 1.652547
v 0.000141 2.140627 1.736419
v 0.000141 1.854268 1.855033
v 0.000141 1.567910 1.736419
v -0.202344 2.140627 1.652547
v -0.286217 1.854268 1.736419
v -0.202344 1.567910 1.652547
v 0.000141 1.449297 1.450061
v -0.286217 2.140627 1.450061
v -0.404830 1.854268 1.450061
v -0.286217 1.567910 1.450061
v -0.202344 2.140627 1.247575
v -0.286217 1.854268 1.163703
v -0.202344 1.567910 1.247575
v 0.000141 2.259240 1.450061
v 0.000141 2.140627 1.163703
v 0.000141 1.854268 1.045089
v 0.000141 1.567910 1.163703
v -0.915330 2.667959 1.796295
v -0.915330 2.990307 1.796295
v -0.915330 2.667959 -0.012332
v -0.915330 2.990308 -0.012332
v 0.914539 2.667959 1.796295
v 0.914539 2.990307 1.796295
v 0.914539 2.667959 -0.012332
v 0.914539 2.990308 -0.012332
v -0.358574 2.983672 1.794379
v -0.358574 4.144791 1.794379
v -0.358574 2.983672 0.745725
v -0.358574 4.144791 0.745725
v 0.348673 2.983672 1.794379
v 0.348673 4.144791 1.794379
v 0.348673 2.983672 0.745725
v 0.348673 4.144791 0.745725
v -0.351359 2.747845 -0.013844
v -0.351359 2.747845 1.796092
v -0.351359 4.143819 0.746697
v -0.351359 4.143819 1.796092
v -0.915717 2.747845 -0.013844
v -0.915717 2.747845 1.796092
v -0.915717 3.698395 0.746697
v -0.915717 3.698395 1.796092
v -0.351359 3.295457 -0.013844
v -0.351359 3.295457 1.796092
v -0.915717 3.295457 -0.013844
v -0.915717 3.295457 1.796092
v -0.704656 4.143819 0.746697
v -0.704656 4.143819 1.796092
v -0.704656 2.747845 -0.013844
v -0.704656 2.747845 1.796092
v -0.704656 3.295457 1.796092
v -0.704656 3.295457 -0.013844
v -0.358574 3.730339 1.486744
v -0.358574 4.144433 1.486744
v -0.358574 3.730339 0.372585
v -0.358574 4.144433 0.747838
v 0.348673 3.730339 1.486744
v 0.348673 4.144433 1.486744
v 0.348673 3.730339 0.372585
v 0.348673 4.144433 0.747838
vn -1.0000 -0.0000 -0.0000
vn 0.9037 0.4282 -0.0000
vn 1.0000 -0.0000 -0.0000
vn -0.0000 -1.0000 -0.0000
vn -0.0000 -0.0000 -1.0000
vn -0.0000 -0.0000 1.0000
vn 0.6317 0.5987 -0.4925
vn -0.0000 0.6675 -0.7446
vn -0.0000 1.0000 -0.0000
vn 0.7133 -0.0000 -0.7009
vn 0.7009 -0.0000 0.7133
vn -0.7133 -0.0000 0.7009
vn -0.7009 -0.0000 -0.7133
vn 0.0087 -0.0000 -1.0000
vn 1.0000 -0.0000 0.0087
vn -0.0087 -0.0000 1.0000
vn -1.0000 -0.0000 -0.0087
vn -0.0000 -0.7071 -0.7071
vn -0.9239 0.2706 -0.2706
vn -0.3827 -0.6533 0.6533
vn 0.3827 0.6533 -0.6533
vn -0.3827 0.6533 -0.6533
vn -0.0000 0.7071 0.7071
vn -0.9239 -0.2706 0.2706
vn 0.9239 0.2706 -0.2706
vn 0.3827 -0.6533 0.6533
vn 0.9239 -0.2706 0.2706
vn 0.3574 0.3574 -0.8629
vn 0.3574 -0.3574 -0.8629
vn 0.1566 0.9125 -0.3780
vn 0.1566 -0.9125 -0.3780
vn 0.8629 -0.3574 -0.3574
vn 0.3780 0.9125 -0.1566
vn 0.3780 -0.9125 -0.1566
vn 0.8629 0.3574 -0.3574
vn 0.8629 -0.3574 0.3574
vn 0.3780 0.9125 0.1566
vn 0.3780 -0.9125 0.1566
vn 0.8629 0.3574 0.3574
vn 0.3574 0.3574 0.8629
vn 0.3574 -0.3574 0.8629
vn 0.1566 0.9125 0.3780
vn 0.1566 -0.9125 0.3780
vn -0.1566 -0.9125 0.3780
vn -0.3574 0.3574 0.8629
vn -0.3574 -0.3574 0.8629
vn -0.1566 0.9125 0.3780
vn -0.3780 -0.9125 0.1566
vn -0.8629 0.3574 0.3574
vn -0.8629 -0.3574 0.3574
vn -0.3780 0.9125 0.1566
vn -0.3780 -0.9125 -0.1566
vn -0.8629 0.3574 -0.3574
vn -0.8629 -0.3574 -0.3574
vn -0.3780 0.9125 -0.1566
vn -0.1566 -0.9125 -0.3780
vn -0.3574 0.3574 -0.8629
vn -0.3574 -0.3574 -0.8629
vn -0.1566 0.9125 -0.3780
vn 0.0036 0.9125 -0.4091
vn 0.6661 0.3574 -0.6546
vn 0.9339 0.3574 0.0082
vn 0.2867 0.9125 0.2918
vn 0.6546 0.3574 0.6661
vn -0.0036 0.9125 0.4091
vn -0.0082 0.3574 0.9339
vn -0.2918 0.9125 0.2867
vn -0.6661 0.3574 0.6546
vn -0.9339 0.3574 -0.0082
vn -0.6546 0.3574 -0.6661
vn 0.0082 0.3574 -0.9339
vn -0.2867 0.9125 -0.2918
vn -0.4091 0.9125 -0.0036
vn 0.2918 0.9125 -0.2867
vn 0.4091 0.9125 0.0036
vn -0.7009 -0.7133 -0.0000
vn -0.7133 0.7009 -0.0000
vn 0.7009 0.7133 -0.0000
vn 0.7133 -0.7009 -0.0000
vn -1.0000 -0.0050 -0.0000
vn -0.0087 1.0000 -0.0000
vn 1.0000 0.0050 -0.0000
vn 0.0087 -1.0000 -0.0000
vn -0.7132 0.7009 -0.0000
vn 0.7132 -0.7009 -0.0000
vn -0.5774 -0.5773 0.5774
vn -0.5774 0.5773 0.5774
vn -0.5774 -0.5774 -0.5774
vn -0.5774 0.5774 -0.5774
vn 0.5773 -0.5774 0.5773
vn 0.5774 0.5774 0.5773
vn 0.5774 -0.5774 -0.5773
vn 0.5773 0.5774 -0.5774
vn -0.7071 -0.7071 -0.0000
vn -0.7071 -0.0000 0.7071
vn -0.7071 0.7071 -0.0000
vn -0.7071 -0.0000 -0.7071
vn -0.0000 0.7071 -0.7071
vn 0.7071 -0.0000 -0.7071
vn 0.7071 -0.7071 -0.0000
vn 0.7071 0.7071 -0.0000
vn 0.7071 -0.0000 0.7071
vn -0.0000 -0.7071 0.7071
vn -0.9239 -0.2706 -0.2706
vn -0.3827 0.6533 0.6533
vn 0.3827 -0.6533 -0.6533
vn -0.3827 -0.6533 -0.6533
vn -0.9239 0.2706 0.2706
vn 0.9239 -0.2706 -0.2706
vn 0.3827 0.6533 0.6533
vn 0.9239 0.2706 0.2706
vn 0.9037 -0.4282 -0.0000
vn 0.6317 -0.5987 0.4925
vn -0.0000 -0.6675 0.7446
vn -0.0000 0.6715 -0.7410
vt 0.375000 0.098070
vt 0.625000 0.098070
vt 0.625000 0.250000
vt 0.375000 0.250000
vt 0.375000 0.406504
vt 0.625000 0.406504
vt 0.625000 0.500000
vt 0.375000 0.500000
vt 0.375000 0.651930
vt 0.625000 0.651930
vt 0.625000 0.750000
vt 0.375000 0.750000
vt 0.375000 0.843496
vt 0.625000 0.843496
vt 0.625000 1.000000
vt 0.375000 1.000000
vt 0.281504 0.651930
vt 0.281504 0.750000
vt 0.718496 0.651930
vt 0.875000 0.651930
vt 0.875000 0.750000
vt 0.718496 0.750000
vt 0.718496 0.500000
vt 0.875000 0.500000
vt 0.281504 0.500000
vt 0.375000 0.000000
vt 0.625000 0.000000
vt 0.125000 0.500000
vt 0.125000 0.651930
vt 0.125000 0.750000
vt 0.000000 0.000000
vt 0.750000 0.500000
vt 0.750000 0.750000
vt 0.750000 0.250000
vt 0.687500 1.000000
vt 0.687500 0.000000
vt 0.500000 0.500000
vt 0.500000 0.250000
vt 0.562500 1.000000
vt 0.500000 0.750000
vt 0.562500 0.000000
vt 0.437500 1.000000
vt 0.437500 0.000000
vt 0.250000 0.750000
vt 0.250000 0.500000
vt 0.250000 0.250000
vt 0.312500 1.000000
vt 0.312500 0.000000
vt 0.187500 0.000000
vt 0.125000 0.250000
vt 0.187500 1.000000
vt 0.062500 0.000000
vt 0.000000 0.250000
vt 0.000000 0.750000
vt 0.000000 0.500000
vt 0.062500 1.000000
vt 0.937500 0.000000
vt 1.000000 0.250000
vt 0.875000 0.250000
vt 1.000000 0.500000
vt 1.000000 0.750000
vt 0.937500 1.000000
vt 0.812500 0.000000
vt 0.812500 1.000000
vt 0.750000 0.750000
vt 0.625000 0.750000
vt 0.500000 0.750000
vt 0.375000 0.750000
vt 0.250000 0.750000
vt 0.125000 0.750000
vt 0.000000 0.750000
vt 1.000000 0.750000
vt 0.875000 0.750000
vt 0.147806 0.743470
vt 0.147806 0.750000
vt 0.125000 0.743470
vt 0.602194 0.000000
vt 0.625000 0.006530
vt 0.602194 0.006530
vt 0.147806 0.506530
vt 0.125000 0.506530
vt 0.147806 0.500000
vt 0.625000 0.243470
vt 0.602194 0.272596
vt 0.602194 0.243470
vt 0.352194 0.743470
vt 0.397755 0.743470
vt 0.392009 0.769907
vt 0.647755 0.743470
vt 0.607620 0.769907
vt 0.602194 0.743470
vt 0.352194 0.506530
vt 0.392009 0.480093
vt 0.397755 0.506530
vt 0.647755 0.506530
vt 0.602194 0.506530
vt 0.607620 0.480093
vt 0.397806 0.000000
vt 0.397806 0.006530
vt 0.397806 0.272806
vt 0.397806 0.243470
vt 0.852194 0.506530
vt 0.852194 0.500000
vt 0.852194 0.743470
vt 0.852194 0.750000
vt 0.602194 0.977194
vt 0.397806 0.977194
s 0
usemtl Material.010
f 25/2/11 26/3/11 20/4/11 19/5/11
f 29/6/12 30/7/12 24/8/12 23/9/12
f 27/10/13 28/11/13 22/12/13 21/13/13
f 31/14/14 32/15/14 18/16/14 17/17/14
f 34/18/15 27/10/15 21/13/15 31/19/15
f 33/20/16 26/21/16 18/22/16 32/23/16
f 30/24/16 20/25/16 26/21/16 33/20/16
f 29/26/17 23/9/17 27/10/17 34/18/17
f 23/9/13 24/8/13 28/11/13 27/10/13
f 17/27/11 18/28/11 26/3/11 25/2/11
f 19/29/18 29/26/18 34/18/18 25/30/18
f 24/8/16 30/24/16 33/20/16 28/11/16
f 28/11/16 33/20/16 32/23/16 22/12/16
f 25/30/15 34/18/15 31/19/15 17/31/15
f 21/13/14 22/12/14 32/15/14 31/14/14
f 19/5/19 20/4/19 30/7/19 29/6/19
f 306/27/11 307/28/11 309/4/11 308/5/11
f 308/5/15 309/4/15 313/8/15 312/9/15
f 312/9/13 313/8/13 311/12/13 310/13/13
f 310/13/16 311/12/16 307/16/16 306/17/16
f 308/29/14 312/9/14 310/13/14 306/31/14
f 313/8/19 309/25/19 307/22/19 311/12/19
f 314/27/11 315/28/11 317/4/11 316/5/11
f 316/5/15 317/4/15 321/8/15 320/9/15
f 320/9/13 321/8/13 319/12/13 318/13/13
f 318/13/16 319/12/16 315/16/16 314/17/16
f 316/29/14 320/9/14 318/13/14 314/31/14
f 321/8/19 317/25/19 315/22/19 319/12/19
f 330/2/11 331/3/11 325/4/11 324/5/11
f 334/6/122 335/7/122 329/8/122 328/9/122
f 332/10/13 333/11/13 327/12/13 326/13/13
f 336/14/19 337/15/19 323/16/19 322/17/19
f 339/18/16 332/10/16 326/13/16 336/19/16
f 338/20/15 331/21/15 323/22/15 337/23/15
f 335/24/15 325/25/15 331/21/15 338/20/15
f 334/26/123 328/9/123 332/10/123 339/18/123
f 328/9/13 329/8/13 333/11/13 332/10/13
f 322/27/11 323/28/11 331/3/11 330/2/11
f 324/29/124 334/26/124 339/18/124 330/30/124
f 329/8/15 335/24/15 338/20/15 333/11/15
f 333/11/15 338/20/15 337/23/15 327/12/15
f 330/30/16 339/18/16 336/19/16 322/31/16
f 326/13/19 327/12/19 337/15/19 336/14/19
f 324/5/14 325/4/14 335/7/14 334/6/14
f 340/27/11 341/28/11 343/4/11 342/5/11
f 342/5/125 343/4/125 347/8/125 346/9/125
f 346/9/13 347/8/13 345/12/13 344/13/13
f 344/13/16 345/12/16 341/16/16 340/17/16
f 342/29/14 346/9/14 344/13/14 340/31/14
f 347/8/19 343/25/19 341/22/19 345/12/19
usemtl Material
f 36/32/14 35/32/14 42/32/14 41/32/14 40/32/14 39/32/14 38/32/14 37/32/14
f 44/32/19 45/32/19 46/32/19 47/32/19 48/32/19 49/32/19 50/32/19 43/32/19
f 41/32/20 42/32/20 50/32/20 49/32/20
f 39/32/21 40/32/21 48/32/21 47/32/21
f 37/32/22 38/32/22 46/32/22 45/32/22
f 35/32/23 36/32/23 44/32/23 43/32/23
f 42/32/24 35/32/24 43/32/24 50/32/24
f 40/32/25 41/32/25 49/32/25 48/32/25
f 38/32/26 39/32/26 47/32/26 46/32/26
f 36/32/27 37/32/27 45/32/27 44/32/27
f 52/32/28 51/32/28 58/32/28 57/32/28 56/32/28 55/32/28 54/32/28 53/32/28
f 69/32/29 70/32/29 61/32/29 59/32/29
f 71/32/30 72/32/30 63/32/30 62/32/30
f 67/32/31 68/32/31 60/32/31 66/32/31
f 68/32/32 69/32/32 59/32/32 60/32/32
f 59/32/33 61/32/33 62/32/33 63/32/33 64/32/33 65/32/33 66/32/33 60/32/33
f 70/32/34 71/32/34 62/32/34 61/32/34
f 73/32/35 67/32/35 66/32/35 65/32/35
f 72/32/36 74/32/36 64/32/36 63/32/36
f 74/32/37 73/32/37 65/32/37 64/32/37
f 56/32/37 57/32/37 73/32/37 74/32/37
f 55/32/36 56/32/36 74/32/36 72/32/36
f 57/32/35 58/32/35 67/32/35 73/32/35
f 53/32/34 54/32/34 71/32/34 70/32/34
f 51/32/32 52/32/32 69/32/32 68/32/32
f 58/32/31 51/32/31 68/32/31 67/32/31
f 54/32/30 55/32/30 72/32/30 71/32/30
f 52/32/29 53/32/29 70/32/29 69/32/29
usemtl Material.001
f 99/33/38 98/34/38 75/12/38 76/8/38
f 100/35/39 99/33/39 76/8/39 77/4/39
f 98/34/40 97/36/40 75/12/40
f 90/37/41 100/35/41 77/4/41
f 77/4/42 76/8/42 79/38/42 80/39/42
f 75/12/43 97/40/43 78/41/43
f 90/42/44 77/4/44 80/39/44
f 76/8/45 75/12/45 78/41/45 79/38/45
f 80/39/46 79/38/46 82/9/46 83/5/46
f 78/41/47 97/43/47 81/13/47
f 90/44/48 80/39/48 83/5/48
f 79/38/49 78/41/49 81/13/49 82/9/49
f 82/9/50 81/13/50 84/45/50 85/46/50
f 83/5/51 82/9/51 85/46/51 86/47/51
f 81/13/52 97/48/52 84/45/52
f 90/49/53 83/5/53 86/47/53
f 90/50/54 86/47/54 89/51/54
f 85/46/55 84/45/55 87/31/55 88/29/55
f 86/47/56 85/46/56 88/29/56 89/51/56
f 84/45/57 97/52/57 87/31/57
f 90/53/58 89/51/58 93/54/58
f 88/29/59 87/31/59 91/55/59 92/56/59
f 89/51/60 88/29/60 92/56/60 93/54/60
f 87/31/61 97/57/61 91/55/61
f 90/58/62 93/59/62 96/60/62
f 92/61/63 91/62/63 94/22/63 95/25/63
f 93/59/64 92/61/64 95/25/64 96/60/64
f 91/62/65 97/63/65 94/22/65
f 90/64/66 96/60/66 100/35/66
f 95/25/67 94/22/67 98/34/67 99/33/67
f 96/60/68 95/25/68 99/33/68 100/35/68
f 94/22/69 97/65/69 98/34/69
f 304/33/38 303/34/38 280/12/38 281/8/38
f 305/35/39 304/33/39 281/8/39 282/4/39
f 303/34/40 302/36/40 280/12/40
f 295/37/41 305/35/41 282/4/41
f 282/4/42 281/8/42 284/38/42 285/39/42
f 280/12/43 302/40/43 283/41/43
f 295/42/44 282/4/44 285/39/44
f 281/8/45 280/12/45 283/41/45 284/38/45
f 285/39/46 284/38/46 287/9/46 288/5/46
f 283/41/47 302/43/47 286/13/47
f 295/44/48 285/39/48 288/5/48
f 284/38/49 283/41/49 286/13/49 287/9/49
f 287/9/50 286/13/50 289/45/50 290/46/50
f 288/5/51 287/9/51 290/46/51 291/47/51
f 286/13/52 302/48/52 289/45/52
f 295/49/53 288/5/53 291/47/53
f 295/50/54 291/47/54 294/51/54
f 290/46/55 289/45/55 292/31/55 293/29/55
f 291/47/56 290/46/56 293/29/56 294/51/56
f 289/45/57 302/52/57 292/31/57
f 295/53/58 294/51/58 298/54/58
f 293/29/59 292/31/59 296/55/59 297/56/59
f 294/51/60 293/29/60 297/56/60 298/54/60
f 292/31/61 302/57/61 296/55/61
f 295/58/62 298/59/62 301/60/62
f 297/61/63 296/62/63 299/22/63 300/25/63
f 298/59/64 297/61/64 300/25/64 301/60/64
f 296/62/65 302/63/65 299/22/65
f 295/64/66 301/60/66 305/35/66
f 300/25/67 299/22/67 303/34/67 304/33/67
f 301/60/68 300/25/68 304/33/68 305/35/68
f 299/22/69 302/65/69 303/34/69
usemtl Material.009
f 116/66/70 115/36/70 101/67/70
f 102/8/71 101/67/71 103/68/71 104/38/71
f 104/38/72 103/68/72 105/69/72 106/9/72
f 105/69/73 115/48/73 107/70/73
f 106/9/74 105/69/74 107/70/74 108/46/74
f 107/70/75 115/52/75 109/71/75
f 108/46/76 107/70/76 109/71/76 110/29/76
f 109/71/77 115/57/77 111/72/77
f 110/29/78 109/71/78 111/72/78 112/56/78
f 112/61/79 111/73/79 113/74/79 114/25/79
f 114/25/80 113/74/80 116/66/80 117/33/80
f 102/8/14 104/38/14 106/9/14 108/46/14 110/29/14 112/61/14 114/25/14 117/33/14
f 116/32/81 101/32/81 102/32/81 117/32/81
f 115/36/82 116/66/82 113/74/82
f 111/72/83 115/57/83 113/74/83
f 101/67/84 115/36/84 103/68/84
f 105/69/85 103/68/85 115/48/85
usemtl Material.007
f 121/32/15 120/32/15 127/32/15 126/32/15 125/32/15 124/32/15 123/32/15 122/32/15
f 127/32/86 120/32/86 128/32/86 135/32/86
f 125/32/87 126/32/87 134/32/87 133/32/87
f 123/32/88 124/32/88 132/32/88 131/32/88
f 121/32/89 122/32/89 130/32/89 129/32/89
f 126/32/90 127/32/90 135/32/90 134/32/90
f 124/32/91 125/32/91 133/32/91 132/32/91
f 122/32/92 123/32/92 131/32/92 130/32/92
f 120/32/93 121/32/93 129/32/93 128/32/93
f 134/32/15 135/32/15 143/32/15 142/32/15
f 142/32/90 143/32/90 151/32/90 150/32/90
f 132/32/15 133/32/15 141/32/15 140/32/15
f 130/32/15 131/32/15 139/32/15 138/32/15
f 128/32/15 129/32/15 136/32/15 137/32/15
f 135/32/15 128/32/15 137/32/15 143/32/15
f 133/32/15 134/32/15 142/32/15 141/32/15
f 131/32/15 132/32/15 140/32/15 139/32/15
f 129/32/15 130/32/15 138/32/15 136/32/15
f 149/32/16 150/32/16 158/32/16 157/32/16
f 140/32/91 141/32/91 149/32/91 148/32/91
f 138/32/92 139/32/92 147/32/92 146/32/92
f 137/32/93 136/32/93 144/32/93 145/32/93
f 143/32/86 137/32/86 145/32/86 151/32/86
f 141/32/94 142/32/94 150/32/94 149/32/94
f 139/32/88 140/32/88 148/32/88 147/32/88
f 136/32/95 138/32/95 146/32/95 144/32/95
f 147/32/16 148/32/16 156/32/16 155/32/16
f 144/32/16 146/32/16 154/32/16 152/32/16
f 150/32/16 151/32/16 159/32/16 158/32/16
f 148/32/16 149/32/16 157/32/16 156/32/16
f 146/32/16 147/32/16 155/32/16 154/32/16
f 145/32/16 144/32/16 152/32/16 153/32/16
f 151/32/16 145/32/16 153/32/16 159/32/16
f 166/32/15 167/32/15 175/32/15 174/32/15
f 173/32/87 174/32/87 182/32/87 181/32/87
f 164/32/15 165/32/15 173/32/15 172/32/15
f 162/32/15 163/32/15 171/32/15 170/32/15
f 161/32/15 160/32/15 168/32/15 169/32/15
f 167/32/15 161/32/15 169/32/15 175/32/15
f 165/32/15 166/32/15 174/32/15 173/32/15
f 163/32/15 164/32/15 172/32/15 171/32/15
f 160/32/15 162/32/15 170/32/15 168/32/15
f 177/32/16 176/32/16 184/32/16 185/32/16
f 171/32/88 172/32/88 180/32/88 179/32/88
f 168/32/95 170/32/95 178/32/95 176/32/95
f 174/32/90 175/32/90 183/32/90 182/32/90
f 172/32/91 173/32/91 181/32/91 180/32/91
f 170/32/92 171/32/92 179/32/92 178/32/92
f 169/32/93 168/32/93 176/32/93 177/32/93
f 175/32/86 169/32/86 177/32/86 183/32/86
f 183/32/16 177/32/16 185/32/16 191/32/16
f 181/32/16 182/32/16 190/32/16 189/32/16
f 179/32/16 180/32/16 188/32/16 187/32/16
f 176/32/16 178/32/16 186/32/16 184/32/16
f 182/32/16 183/32/16 191/32/16 190/32/16
f 180/32/16 181/32/16 189/32/16 188/32/16
f 178/32/16 179/32/16 187/32/16 186/32/16
f 194/32/15 195/32/15 203/32/15 202/32/15
f 207/32/86 201/32/86 209/32/86 215/32/86
f 193/32/15 192/32/15 200/32/15 201/32/15
f 199/32/15 193/32/15 201/32/15 207/32/15
f 197/32/15 198/32/15 206/32/15 205/32/15
f 195/32/15 196/32/15 204/32/15 203/32/15
f 192/32/15 194/32/15 202/32/15 200/32/15
f 198/32/15 199/32/15 207/32/15 206/32/15
f 196/32/15 197/32/15 205/32/15 204/32/15
f 210/32/16 211/32/16 219/32/16 218/32/16
f 205/32/94 206/32/94 214/32/94 213/32/94
f 203/32/88 204/32/88 212/32/88 211/32/88
f 200/32/95 202/32/95 210/32/95 208/32/95
f 206/32/90 207/32/90 215/32/90 214/32/90
f 204/32/91 205/32/91 213/32/91 212/32/91
f 202/32/92 203/32/92 211/32/92 210/32/92
f 201/32/93 200/32/93 208/32/93 209/32/93
f 222/32/92 223/32/92 231/32/92 230/32/92
f 209/32/16 208/32/16 216/32/16 217/32/16
f 215/32/16 209/32/16 217/32/16 223/32/16
f 213/32/16 214/32/16 222/32/16 221/32/16
f 211/32/16 212/32/16 220/32/16 219/32/16
f 208/32/16 210/32/16 218/32/16 216/32/16
f 214/32/16 215/32/16 223/32/16 222/32/16
f 212/32/16 213/32/16 221/32/16 220/32/16
f 220/32/93 221/32/93 229/32/93 228/32/93
f 218/32/90 219/32/90 227/32/90 226/32/90
f 217/32/91 216/32/91 224/32/91 225/32/91
f 223/32/88 217/32/88 225/32/88 231/32/88
f 221/32/89 222/32/89 230/32/89 229/32/89
f 219/32/86 220/32/86 228/32/86 227/32/86
f 216/32/87 218/32/87 226/32/87 224/32/87
usemtl Material.004
f 158/32/90 159/32/90 167/32/90 166/32/90
f 156/32/91 157/32/91 165/32/91 164/32/91
f 154/32/92 155/32/92 163/32/92 162/32/92
f 153/32/93 152/32/93 160/32/93 161/32/93
f 159/32/86 153/32/86 161/32/86 167/32/86
f 157/32/87 158/32/87 166/32/87 165/32/87
f 155/32/88 156/32/88 164/32/88 163/32/88
f 152/32/89 154/32/89 162/32/89 160/32/89
f 191/32/86 185/32/86 193/32/86 199/32/86
f 189/32/94 190/32/94 198/32/94 197/32/94
f 187/32/88 188/32/88 196/32/88 195/32/88
f 184/32/95 186/32/95 194/32/95 192/32/95
f 190/32/90 191/32/90 199/32/90 198/32/90
f 188/32/91 189/32/91 197/32/91 196/32/91
f 186/32/92 187/32/92 195/32/92 194/32/92
f 185/32/93 184/32/93 192/32/93 193/32/93
usemtl Material.006
f 224/32/16 226/32/16 227/32/16 228/32/16 229/32/16 230/32/16 231/32/16 225/32/16
usemtl Material.008
f 232/75/96 233/76/96 234/77/96
f 235/78/97 236/79/97 237/80/97
f 238/81/98 239/82/98 240/83/98
f 241/84/99 242/85/99 243/86/99
f 244/87/100 245/88/100 246/89/100
f 247/90/101 248/91/101 249/92/101
f 250/93/102 251/94/102 252/95/102
f 253/96/103 254/97/103 255/98/103
f 238/81/104 232/75/104 234/77/104 239/82/104
f 233/99/105 235/78/105 237/80/105 234/100/105
f 236/79/106 241/84/106 243/86/106 237/80/106
f 242/85/107 240/101/107 239/102/107 243/86/107
f 250/93/28 238/81/28 240/83/28 251/94/28
f 241/103/108 253/96/108 255/98/108 242/104/108
f 254/97/109 252/95/109 251/94/109 255/98/109
f 244/87/110 250/93/110 252/95/110 245/88/110
f 253/96/111 247/90/111 249/92/111 254/97/111
f 248/91/112 246/89/112 245/88/112 249/92/112
f 232/75/113 244/87/113 246/89/113 233/76/113
f 247/90/33 236/105/33 235/106/33 248/91/33
f 238/81/14 250/93/14 244/87/14 232/75/14
f 234/100/11 237/80/11 243/86/11 239/102/11
f 246/89/16 248/91/16 235/107/16 233/108/16
f 253/96/19 241/103/19 236/105/19 247/90/19
f 240/101/15 242/85/15 255/98/15 251/94/15
f 252/95/13 254/97/13 249/92/13 245/88/13
usemtl Material.005
f 257/32/113 256/32/113 263/32/113 262/32/113 261/32/113 260/32/113 259/32/113 258/32/113
f 274/32/114 275/32/114 266/32/114 264/32/114
f 276/32/115 277/32/115 268/32/115 267/32/115
f 272/32/116 273/32/116 265/32/116 271/32/116
f 273/32/117 274/32/117 264/32/117 265/32/117
f 264/32/108 266/32/108 267/32/108 268/32/108 269/32/108 270/32/108 271/32/108 265/32/108
f 275/32/118 276/32/118 267/32/118 266/32/118
f 278/32/119 272/32/119 271/32/119 270/32/119
f 277/32/120 279/32/120 269/32/120 268/32/120
f 279/32/121 278/32/121 270/32/121 269/32/121
f 261/32/121 262/32/121 278/32/121 279/32/121
f 260/32/120 261/32/120 279/32/120 277/32/120
f 262/32/119 263/32/119 272/32/119 278/32/119
f 258/32/118 259/32/118 276/32/118 275/32/118
f 256/32/117 257/32/117 274/32/117 273/32/117
f 263/32/116 256/32/116 273/32/116 272/32/116
f 259/32/115 260/32/115 277/32/115 276/32/115
f 257/32/114 258/32/114 275/32/114 274/32/114
l 119 114
l 104 118
l 118 119
l 102 118
l 117 119
