# Blender 4.5.3 LTS
# www.blender.org
mtllib tesla2.mtl
o Sphere
v 0.347469 5.162246 -0.347469
v 0.491396 4.670850 -0.491396
v 0.347469 4.179455 -0.347469
v 0.491396 5.162246 0.000000
v 0.694938 4.670850 0.000000
v 0.491396 4.179455 0.000000
v 0.347469 5.162246 0.347469
v 0.491396 4.670850 0.491396
v 0.347469 4.179455 0.347469
v 0.000000 5.162246 0.491396
v 0.000000 4.670850 0.694938
v 0.000000 4.179455 0.491396
v -0.347469 5.162246 0.347469
v -0.491396 4.670850 0.491396
v -0.347469 4.179455 0.347469
v 0.000000 3.975912 0.000000
v -0.491396 5.162246 0.000000
v -0.694938 4.670850 0.000000
v -0.491396 4.179455 0.000000
v -0.347469 5.162246 -0.347469
v -0.491396 4.670850 -0.491396
v -0.347469 4.179455 -0.347469
v 0.000000 5.365788 0.000000
v 0.000000 5.162246 -0.491396
v 0.000000 4.670850 -0.694938
v 0.000000 4.179455 -0.491396
v -0.265225 0.014763 -0.642335
v -0.641742 0.014763 -0.266657
v -0.642336 0.014763 0.265226
v -0.266657 0.014763 0.641743
v 0.265225 0.014763 0.642336
v 0.641742 0.014763 0.266657
v 0.642336 0.014763 -0.265225
v 0.266657 0.014763 -0.641742
v -0.169329 1.146438 -0.410089
v -0.409711 1.146438 -0.170243
v -0.410089 1.146438 0.169329
v -0.170243 1.146438 0.409711
v 0.169329 1.146438 0.410090
v 0.409711 1.146438 0.170243
v 0.410089 1.146438 -0.169329
v 0.170243 1.146438 -0.409710
v -0.265225 2.027862 -0.642335
v -0.641742 2.027862 -0.266657
v -0.642336 2.027862 0.265226
v -0.266657 2.027862 0.641743
v 0.265225 2.027862 0.642336
v 0.641742 2.027862 0.266657
v 0.642336 2.027862 -0.265225
v 0.266657 2.027862 -0.641742
v 0.184832 1.624366 -0.444820
v 0.445231 1.624366 -0.183839
v 0.444820 1.624366 0.184832
v 0.183839 1.624366 0.445231
v -0.184832 1.624366 0.444820
v -0.445231 1.624366 0.183840
v -0.444820 1.624366 -0.184832
v -0.183839 1.624366 -0.445231
v 0.401665 1.262896 -0.165850
v 0.165850 1.262896 0.401665
v -0.401665 1.262896 0.165851
v -0.165850 1.262896 -0.401664
v 0.166746 1.262896 -0.401294
v 0.401294 1.262896 0.166746
v -0.166746 1.262896 0.401294
v -0.401294 1.262896 -0.166746
v 0.206340 1.807140 -0.496582
v 0.496583 1.807140 0.206341
v -0.206340 1.807140 0.496583
v -0.496583 1.807140 -0.206340
v 0.497042 1.807140 -0.205232
v 0.205232 1.807140 0.497042
v -0.497042 1.807140 0.205233
v -0.205232 1.807140 -0.497041
v 0.569429 1.076251 -0.235122
v 0.541632 1.148855 -0.223644
v 0.474524 1.178928 -0.195935
v 0.407416 1.148855 -0.168225
v 0.379620 1.076251 -0.156748
v 0.407416 1.003647 -0.168225
v 0.474524 0.973574 -0.195935
v 0.541632 1.003647 -0.223644
v 0.236391 1.076251 -0.568903
v 0.224852 1.148855 -0.541132
v 0.196993 1.178928 -0.474086
v 0.169134 1.148855 -0.407040
v 0.157594 1.076251 -0.379269
v 0.169134 1.003647 -0.407040
v 0.196993 0.973574 -0.474086
v 0.224852 1.003647 -0.541132
v -0.235122 1.076251 -0.569429
v -0.223644 1.148855 -0.541632
v -0.195935 1.178928 -0.474524
v -0.168225 1.148855 -0.407416
v -0.156748 1.076251 -0.379619
v -0.168225 1.003647 -0.407416
v -0.195935 0.973574 -0.474524
v -0.223644 1.003647 -0.541632
v -0.568904 1.076251 -0.236391
v -0.541132 1.148855 -0.224851
v -0.474086 1.178928 -0.196992
v -0.407040 1.148855 -0.169133
v -0.379269 1.076251 -0.157594
v -0.407040 1.003647 -0.169133
v -0.474086 0.973574 -0.196992
v -0.541132 1.003647 -0.224851
v -0.569429 1.076251 0.235122
v -0.541632 1.148855 0.223644
v -0.474524 1.178928 0.195935
v -0.407416 1.148855 0.168226
v -0.379620 1.076251 0.156748
v -0.407416 1.003647 0.168226
v -0.474524 0.973574 0.195935
v -0.541632 1.003647 0.223644
v -0.236391 1.076251 0.568904
v -0.224852 1.148855 0.541132
v -0.196993 1.178928 0.474086
v -0.169134 1.148855 0.407041
v -0.157594 1.076251 0.379269
v -0.169134 1.003647 0.407041
v -0.196993 0.973574 0.474086
v -0.224852 1.003647 0.541132
v 0.235122 1.076251 0.569430
v 0.223644 1.148855 0.541632
v 0.195935 1.178928 0.474525
v 0.168225 1.148855 0.407417
v 0.156748 1.076251 0.379620
v 0.168225 1.003647 0.407417
v 0.195935 0.973574 0.474525
v 0.223644 1.003647 0.541632
v 0.568903 1.076251 0.236392
v 0.541132 1.148855 0.224852
v 0.474086 1.178928 0.196993
v 0.407040 1.148855 0.169134
v 0.379269 1.076251 0.157595
v 0.407040 1.003647 0.169134
v 0.474086 0.973574 0.196993
v 0.541132 1.003647 0.224852
v 0.758648 2.118659 -0.313251
v 0.707371 2.252592 -0.292079
v 0.583576 2.308069 -0.240963
v 0.459781 2.252592 -0.189847
v 0.408503 2.118659 -0.168674
v 0.459781 1.984726 -0.189847
v 0.583576 1.929249 -0.240963
v 0.707371 1.984726 -0.292079
v 0.314943 2.118659 -0.757948
v 0.293656 2.252592 -0.706717
v 0.242264 2.308069 -0.583036
v 0.190872 2.252592 -0.459356
v 0.169585 2.118659 -0.408125
v 0.190872 1.984726 -0.459356
v 0.242264 1.929249 -0.583036
v 0.293656 1.984726 -0.706717
v -0.313252 2.118659 -0.758648
v -0.292079 2.252592 -0.707370
v -0.240963 2.308069 -0.583575
v -0.189847 2.252592 -0.459780
v -0.168674 2.118659 -0.408503
v -0.189847 1.984726 -0.459780
v -0.240963 1.929249 -0.583575
v -0.292079 1.984726 -0.707370
v -0.757948 2.118659 -0.314942
v -0.706718 2.252592 -0.293655
v -0.583037 2.308069 -0.242263
v -0.459356 2.252592 -0.190871
v -0.408126 2.118659 -0.169584
v -0.459356 1.984726 -0.190871
v -0.583037 1.929249 -0.242263
v -0.706718 1.984726 -0.293655
v -0.758648 2.118659 0.313252
v -0.707371 2.252592 0.292079
v -0.583576 2.308069 0.240963
v -0.459781 2.252592 0.189847
v -0.408503 2.118659 0.168674
v -0.459781 1.984726 0.189847
v -0.583576 1.929249 0.240963
v -0.707371 1.984726 0.292079
v -0.314943 2.118659 0.757948
v -0.293656 2.252592 0.706718
v -0.242264 2.308069 0.583037
v -0.190872 2.252592 0.459356
v -0.169585 2.118659 0.408126
v -0.190872 1.984726 0.459356
v -0.242264 1.929249 0.583037
v -0.293656 1.984726 0.706718
v 0.313252 2.118659 0.758648
v 0.292079 2.252592 0.707371
v 0.240963 2.308069 0.583576
v 0.189847 2.252592 0.459781
v 0.168674 2.118659 0.408503
v 0.189847 1.984726 0.459781
v 0.240963 1.929249 0.583576
v 0.292079 1.984726 0.707371
v 0.757948 2.118659 0.314944
v 0.706717 2.252592 0.293656
v 0.583037 2.308069 0.242264
v 0.459356 2.252592 0.190872
v 0.408126 2.118659 0.169585
v 0.459356 1.984726 0.190872
v 0.583037 1.929249 0.242264
v 0.706717 1.984726 0.293656
v -0.133747 1.979671 -0.331034
v -0.328650 1.979671 -0.139503
v -0.331034 1.979671 0.133747
v -0.139504 1.979671 0.328650
v 0.133747 1.979671 0.331035
v 0.328650 1.979671 0.139504
v 0.331034 1.979671 -0.133746
v 0.139504 1.979671 -0.328649
v -0.158782 4.116670 -0.067399
v -0.064617 4.116670 -0.159934
v -0.159934 4.116670 0.064618
v -0.067399 4.116670 0.158782
v 0.064617 4.116670 0.159934
v 0.158782 4.116670 0.067399
v 0.159934 4.116670 -0.064617
v 0.067399 4.116670 -0.158782
v -0.000000 3.994992 0.000000
v 0.799179 2.813597 0.000000
v 0.768648 2.887306 0.000000
v 0.694938 2.917838 0.000000
v 0.621229 2.887306 0.000000
v 0.590698 2.813597 0.000000
v 0.621229 2.739888 0.000000
v 0.694938 2.709356 0.000000
v 0.768648 2.739888 0.000000
v 0.565105 2.813597 -0.565105
v 0.543516 2.887306 -0.543516
v 0.491396 2.917838 -0.491395
v 0.439275 2.887306 -0.439275
v 0.417686 2.813597 -0.417686
v 0.439275 2.739888 -0.439275
v 0.491396 2.709356 -0.491395
v 0.543516 2.739888 -0.543516
v 0.000000 2.813597 -0.799179
v 0.000000 2.887306 -0.768648
v 0.000000 2.917838 -0.694938
v 0.000000 2.887306 -0.621229
v 0.000000 2.813597 -0.590697
v 0.000000 2.739888 -0.621229
v 0.000000 2.709356 -0.694938
v 0.000000 2.739888 -0.768648
v -0.565105 2.813597 -0.565105
v -0.543516 2.887306 -0.543516
v -0.491396 2.917838 -0.491395
v -0.439275 2.887306 -0.439275
v -0.417686 2.813597 -0.417686
v -0.439275 2.739888 -0.439275
v -0.491396 2.709356 -0.491395
v -0.543516 2.739888 -0.543516
v -0.799179 2.813597 0.000000
v -0.768648 2.887306 0.000000
v -0.694938 2.917838 0.000000
v -0.621229 2.887306 0.000000
v -0.590698 2.813597 0.000000
v -0.621229 2.739888 0.000000
v -0.694938 2.709356 0.000000
v -0.768648 2.739888 0.000000
v -0.565105 2.813597 0.565105
v -0.543516 2.887306 0.543516
v -0.491396 2.917838 0.491396
v -0.439275 2.887306 0.439275
v -0.417686 2.813597 0.417686
v -0.439275 2.739888 0.439275
v -0.491396 2.709356 0.491396
v -0.543516 2.739888 0.543516
v 0.000000 2.813597 0.799179
v 0.000000 2.887306 0.768648
v 0.000000 2.917838 0.694939
v 0.000000 2.887306 0.621229
v 0.000000 2.813597 0.590698
v 0.000000 2.739888 0.621229
v 0.000000 2.709356 0.694939
v 0.000000 2.739888 0.768648
v 0.565105 2.813597 0.565106
v 0.543516 2.887306 0.543517
v 0.491395 2.917838 0.491396
v 0.439275 2.887306 0.439276
v 0.417686 2.813597 0.417687
v 0.439275 2.739888 0.439276
v 0.491395 2.709356 0.491396
v 0.543516 2.739888 0.543517
v 0.625006 3.300054 -0.252518
v 0.602359 3.359022 -0.243369
v 0.547685 3.383447 -0.221279
v 0.493012 3.359022 -0.199189
v 0.470365 3.300054 -0.190040
v 0.493012 3.241087 -0.199189
v 0.547685 3.216662 -0.221279
v 0.602359 3.241087 -0.243369
v 0.263388 3.300054 -0.620503
v 0.253844 3.359022 -0.598020
v 0.230804 3.383447 -0.543740
v 0.207764 3.359022 -0.489460
v 0.198220 3.300054 -0.466977
v 0.207764 3.241087 -0.489460
v 0.230804 3.216662 -0.543740
v 0.253844 3.241087 -0.598020
v -0.252519 3.300054 -0.625005
v -0.243369 3.359022 -0.602359
v -0.221279 3.383447 -0.547685
v -0.199190 3.359022 -0.493011
v -0.190040 3.300054 -0.470365
v -0.199190 3.241087 -0.493011
v -0.221279 3.216662 -0.547685
v -0.243369 3.241087 -0.602359
v -0.620503 3.300054 -0.263388
v -0.598020 3.359022 -0.253844
v -0.543740 3.383447 -0.230804
v -0.489460 3.359022 -0.207763
v -0.466977 3.300054 -0.198220
v -0.489460 3.241087 -0.207763
v -0.543740 3.216662 -0.230804
v -0.598020 3.241087 -0.253844
v -0.625006 3.300054 0.252519
v -0.602359 3.359022 0.243369
v -0.547685 3.383447 0.221279
v -0.493012 3.359022 0.199190
v -0.470365 3.300054 0.190040
v -0.493012 3.241087 0.199190
v -0.547685 3.216662 0.221279
v -0.602359 3.241087 0.243369
v -0.263388 3.300054 0.620504
v -0.253845 3.359022 0.598020
v -0.230804 3.383447 0.543740
v -0.207764 3.359022 0.489460
v -0.198220 3.300054 0.466977
v -0.207764 3.241087 0.489460
v -0.230804 3.216662 0.543740
v -0.253845 3.241087 0.598020
v 0.252519 3.300054 0.625006
v 0.243369 3.359022 0.602359
v 0.221279 3.383447 0.547686
v 0.199190 3.359022 0.493012
v 0.190040 3.300054 0.470365
v 0.199190 3.241087 0.493012
v 0.221279 3.216662 0.547686
v 0.243369 3.241087 0.602359
v 0.620503 3.300054 0.263389
v 0.598020 3.359022 0.253845
v 0.543740 3.383447 0.230805
v 0.489460 3.359022 0.207764
v 0.466977 3.300054 0.198220
v 0.489460 3.241087 0.207764
v 0.543740 3.216662 0.230805
v 0.598020 3.241087 0.253845
v 0.555951 3.786511 0.000000
v 0.535596 3.835650 0.000000
v 0.486457 3.856005 0.000000
v 0.437317 3.835650 0.000000
v 0.416963 3.786511 0.000000
v 0.437317 3.737371 0.000000
v 0.486457 3.717017 0.000000
v 0.535596 3.737371 0.000000
v 0.393117 3.786511 -0.393116
v 0.378724 3.835650 -0.378724
v 0.343977 3.856005 -0.343977
v 0.309230 3.835650 -0.309230
v 0.294837 3.786511 -0.294837
v 0.309230 3.737371 -0.309230
v 0.343977 3.717017 -0.343977
v 0.378724 3.737371 -0.378724
v 0.000000 3.786511 -0.555950
v 0.000000 3.835650 -0.535596
v 0.000000 3.856005 -0.486457
v 0.000000 3.835650 -0.437317
v 0.000000 3.786511 -0.416963
v 0.000000 3.737371 -0.437317
v 0.000000 3.717017 -0.486457
v 0.000000 3.737371 -0.535596
v -0.393117 3.786511 -0.393116
v -0.378724 3.835650 -0.378724
v -0.343977 3.856005 -0.343977
v -0.309230 3.835650 -0.309230
v -0.294837 3.786511 -0.294837
v -0.309230 3.737371 -0.309230
v -0.343977 3.717017 -0.343977
v -0.378724 3.737371 -0.378724
v -0.555951 3.786511 0.000000
v -0.535596 3.835650 0.000000
v -0.486457 3.856005 0.000000
v -0.437317 3.835650 0.000000
v -0.416963 3.786511 0.000000
v -0.437317 3.737371 0.000000
v -0.486457 3.717017 0.000000
v -0.535596 3.737371 0.000000
v -0.393117 3.786511 0.393117
v -0.378724 3.835650 0.378724
v -0.343977 3.856005 0.343977
v -0.309230 3.835650 0.309230
v -0.294837 3.786511 0.294838
v -0.309230 3.737371 0.309230
v -0.343977 3.717017 0.343977
v -0.378724 3.737371 0.378724
v 0.000000 3.786511 0.555951
v 0.000000 3.835650 0.535597
v 0.000000 3.856005 0.486457
v 0.000000 3.835650 0.437318
v 0.000000 3.786511 0.416963
v 0.000000 3.737371 0.437318
v 0.000000 3.717017 0.486457
v 0.000000 3.737371 0.535597
v 0.393116 3.786511 0.393117
v 0.378724 3.835650 0.378724
v 0.343977 3.856005 0.343977
v 0.309230 3.835650 0.309231
v 0.294837 3.786511 0.294838
v 0.309230 3.737371 0.309231
v 0.343977 3.717017 0.343977
v 0.378724 3.737371 0.378724
v 1.389877 -0.193718 -0.152501
v 1.292146 -0.239291 -0.107834
v 1.251664 -0.258168 0.000000
v 1.292146 -0.239291 0.107834
v 1.389877 -0.193718 0.152501
v 1.487608 -0.148146 0.107834
v 1.528090 -0.129269 0.000000
v 1.487608 -0.148146 -0.107834
v 0.371687 1.734637 -0.107834
v 0.469418 1.780210 -0.152501
v 0.331206 1.715760 0.000000
v 0.371687 1.734637 0.107834
v 0.469418 1.780210 0.152501
v 0.567149 1.825782 0.107834
v 0.607631 1.844659 0.000000
v 0.567149 1.825782 -0.107834
v 0.279616 1.932085 -0.107834
v 0.377347 1.977658 -0.152501
v 0.239134 1.913208 0.000000
v 0.279616 1.932085 0.107834
v 0.377347 1.977658 0.152501
v 0.475078 2.023231 0.107834
v 0.515559 2.042107 0.000000
v 0.475078 2.023231 -0.107834
v -1.389877 -0.193718 -0.152501
v -1.487608 -0.148146 -0.107834
v -1.528090 -0.129269 0.000000
v -1.487608 -0.148146 0.107834
v -1.389877 -0.193718 0.152501
v -1.292146 -0.239291 0.107834
v -1.251664 -0.258168 0.000000
v -1.292146 -0.239291 -0.107834
v -0.567150 1.825783 -0.107834
v -0.469419 1.780210 -0.152501
v -0.607631 1.844660 0.000000
v -0.567150 1.825783 0.107834
v -0.469419 1.780210 0.152501
v -0.371688 1.734637 0.107834
v -0.331206 1.715760 0.000000
v -0.371688 1.734637 -0.107834
v -0.475078 2.023231 -0.107834
v -0.377347 1.977658 -0.152501
v -0.515560 2.042108 0.000000
v -0.475078 2.023231 0.107834
v -0.377347 1.977658 0.152501
v -0.279616 1.932085 0.107834
v -0.239135 1.913208 0.000000
v -0.279616 1.932085 -0.107834
v 0.000000 -0.129269 -1.528090
v -0.107834 -0.148146 -1.487608
v -0.152501 -0.193718 -1.389877
v -0.107834 -0.239291 -1.292146
v 0.000000 -0.258168 -1.251664
v 0.107834 -0.239291 -1.292146
v 0.152501 -0.193718 -1.389877
v 0.107834 -0.148146 -1.487608
v -0.107834 1.825783 -0.567150
v 0.000000 1.844660 -0.607631
v -0.152501 1.780210 -0.469419
v -0.107834 1.734637 -0.371688
v 0.000000 1.715760 -0.331206
v 0.107834 1.734637 -0.371688
v 0.152501 1.780210 -0.469419
v 0.107834 1.825783 -0.567150
v -0.107834 2.023231 -0.475078
v -0.000000 2.042108 -0.515560
v -0.152501 1.977658 -0.377347
v -0.107834 1.932085 -0.279616
v -0.000000 1.913208 -0.239134
v 0.107834 1.932085 -0.279616
v 0.152501 1.977658 -0.377347
v 0.107834 2.023231 -0.475078
v 0.000000 -0.258168 1.251664
v -0.107834 -0.239291 1.292146
v -0.152501 -0.193718 1.389877
v -0.107834 -0.148146 1.487608
v 0.000000 -0.129269 1.528089
v 0.107834 -0.148146 1.487608
v 0.152501 -0.193718 1.389877
v 0.107834 -0.239291 1.292146
v -0.107834 1.734637 0.371687
v 0.000000 1.715760 0.331206
v -0.152501 1.780210 0.469418
v -0.107834 1.825782 0.567149
v 0.000000 1.844659 0.607631
v 0.107834 1.825782 0.567149
v 0.152501 1.780210 0.469418
v 0.107834 1.734637 0.371687
v -0.107834 1.932085 0.279616
v -0.000000 1.913208 0.239134
v -0.152501 1.977658 0.377347
v -0.107834 2.023231 0.475078
v -0.000000 2.042107 0.515559
v 0.107834 2.023231 0.475078
v 0.152501 1.977658 0.377347
v 0.107834 1.932085 0.279616
vn 0.1566 0.9125 -0.3780
vn 0.1566 -0.9125 -0.3780
vn 0.3574 0.3574 -0.8629
vn 0.3574 -0.3574 -0.8629
vn 0.3780 -0.9125 -0.1566
vn 0.8629 0.3574 -0.3574
vn 0.8629 -0.3574 -0.3574
vn 0.3780 0.9125 -0.1566
vn 0.3780 -0.9125 0.1566
vn 0.8629 0.3574 0.3574
vn 0.8629 -0.3574 0.3574
vn 0.3780 0.9125 0.1566
vn 0.1566 0.9125 0.3780
vn 0.1566 -0.9125 0.3780
vn 0.3574 0.3574 0.8629
vn 0.3574 -0.3574 0.8629
vn -0.3574 -0.3574 0.8629
vn -0.1566 0.9125 0.3780
vn -0.1566 -0.9125 0.3780
vn -0.3574 0.3574 0.8629
vn -0.8629 -0.3574 0.3574
vn -0.3780 0.9125 0.1566
vn -0.3780 -0.9125 0.1566
vn -0.8629 0.3574 0.3574
vn -0.8629 -0.3574 -0.3574
vn -0.3780 0.9125 -0.1566
vn -0.3780 -0.9125 -0.1566
vn -0.8629 0.3574 -0.3574
vn -0.3574 -0.3574 -0.8629
vn -0.1566 0.9125 -0.3780
vn -0.1566 -0.9125 -0.3780
vn -0.3574 0.3574 -0.8629
vn -0.0000 -1.0000 -0.0000
vn 0.5914 -0.5497 -0.5901
vn -0.0011 0.2009 0.9796
vn -0.9796 0.2009 -0.0011
vn 0.6935 0.2009 -0.6919
vn 0.6919 0.2009 0.6935
vn -0.6935 0.2009 0.6919
vn -0.6919 0.2009 -0.6935
vn 0.0011 0.2009 -0.9796
vn 0.9796 0.2009 0.0011
vn -0.0000 1.0000 -0.0000
vn 0.5901 -0.5497 0.5914
vn -0.5914 -0.5497 0.5901
vn -0.5901 -0.5497 -0.5914
vn 0.0009 -0.5497 -0.8354
vn 0.8354 -0.5497 0.0009
vn -0.0009 -0.5497 0.8354
vn -0.8354 -0.5497 -0.0009
vn -0.9928 -0.1196 -0.0011
vn -0.0011 -0.1196 0.9928
vn 0.9928 -0.1196 0.0011
vn 0.0011 -0.1196 -0.9928
vn -0.7012 -0.1196 -0.7028
vn -0.7028 -0.1196 0.7012
vn 0.7012 -0.1196 0.7028
vn 0.7028 -0.1196 -0.7012
vn 0.7061 0.0721 -0.7045
vn 0.7045 0.0721 0.7061
vn -0.7061 0.0721 0.7045
vn -0.7045 0.0721 -0.7061
vn 0.0011 0.0721 -0.9974
vn 0.9974 0.0721 0.0011
vn -0.0011 0.0721 0.9974
vn -0.9974 0.0721 -0.0011
vn -0.9621 -0.2726 -0.0011
vn -0.0011 -0.2726 0.9621
vn 0.9621 -0.2726 0.0011
vn 0.0011 -0.2726 -0.9621
vn -0.6796 -0.2726 -0.6811
vn -0.6811 -0.2726 0.6796
vn 0.6796 -0.2726 0.6811
vn 0.6811 -0.2726 -0.6796
vn 0.6611 0.3574 -0.6597
vn 0.2896 0.9125 -0.2890
vn -0.2896 0.9125 0.2890
vn -0.6611 0.3574 0.6597
vn -0.6611 -0.3574 0.6597
vn -0.2896 -0.9125 0.2890
vn 0.2896 -0.9125 -0.2890
vn 0.6611 -0.3574 -0.6597
vn 0.0010 0.3574 -0.9339
vn 0.0005 0.9125 -0.4091
vn -0.0005 0.9125 0.4091
vn -0.0010 0.3574 0.9339
vn -0.0010 -0.3574 0.9339
vn -0.0005 -0.9125 0.4091
vn 0.0005 -0.9125 -0.4091
vn 0.0010 -0.3574 -0.9339
vn -0.6597 0.3574 -0.6611
vn -0.2890 0.9125 -0.2896
vn 0.2890 0.9125 0.2896
vn 0.6597 0.3574 0.6611
vn 0.6597 -0.3574 0.6611
vn 0.2890 -0.9125 0.2896
vn -0.2890 -0.9125 -0.2896
vn -0.6597 -0.3574 -0.6611
vn -0.9339 0.3574 -0.0010
vn -0.4091 0.9125 -0.0005
vn 0.4091 0.9125 0.0005
vn 0.9339 0.3574 0.0010
vn 0.9339 -0.3574 0.0010
vn 0.4091 -0.9125 0.0005
vn -0.4091 -0.9125 -0.0005
vn -0.9339 -0.3574 -0.0010
vn -0.9968 0.0795 -0.0087
vn 0.7110 0.0795 -0.6987
vn 0.6987 0.0795 0.7110
vn -0.7110 0.0795 0.6987
vn -0.6987 0.0795 -0.7110
vn 0.0087 0.0795 -0.9968
vn 0.9968 0.0795 0.0087
vn -0.0087 0.0795 0.9968
vn 0.6661 0.3574 -0.6546
vn 0.2918 0.9125 -0.2867
vn -0.2918 0.9125 0.2867
vn -0.6661 0.3574 0.6546
vn -0.6661 -0.3574 0.6546
vn -0.2918 -0.9125 0.2867
vn 0.2918 -0.9125 -0.2867
vn 0.6661 -0.3574 -0.6546
vn 0.0082 0.3574 -0.9339
vn 0.0036 0.9125 -0.4091
vn -0.0036 0.9125 0.4091
vn -0.0082 0.3574 0.9339
vn -0.0082 -0.3574 0.9339
vn -0.0036 -0.9125 0.4091
vn 0.0036 -0.9125 -0.4091
vn 0.0082 -0.3574 -0.9339
vn -0.6546 0.3574 -0.6661
vn -0.2867 0.9125 -0.2918
vn 0.2867 0.9125 0.2918
vn 0.6546 0.3574 0.6661
vn 0.6546 -0.3574 0.6661
vn 0.2867 -0.9125 0.2918
vn -0.2867 -0.9125 -0.2918
vn -0.6546 -0.3574 -0.6661
vn -0.9339 0.3574 -0.0082
vn -0.4091 0.9125 -0.0036
vn 0.4091 0.9125 0.0036
vn 0.9339 0.3574 0.0082
vn 0.9339 -0.3574 0.0082
vn 0.4091 -0.9125 0.0036
vn -0.4091 -0.9125 -0.0036
vn -0.9339 -0.3574 -0.0082
vn 0.4226 -0.9063 -0.0000
vn 0.8373 0.3904 -0.3827
vn -0.3468 -0.1617 -0.9239
vn 0.3468 0.1617 -0.9239
vn 0.8373 0.3904 0.3827
vn -0.3468 -0.1617 0.9239
vn -0.8373 -0.3904 -0.3827
vn 0.3468 0.1617 0.9239
vn -0.8373 -0.3904 0.3827
vn -0.4226 0.9063 -0.0000
vn -0.4226 -0.9063 -0.0000
vn 0.8373 -0.3904 -0.3827
vn -0.3468 0.1617 -0.9239
vn 0.3468 -0.1617 -0.9239
vn 0.8373 -0.3904 0.3827
vn -0.3468 0.1617 0.9239
vn -0.8373 0.3904 -0.3827
vn 0.3468 -0.1617 0.9239
vn -0.8373 0.3904 0.3827
vn 0.4226 0.9063 -0.0000
vn -0.0000 -0.9063 -0.4226
vn 0.9239 0.1617 -0.3468
vn -0.3827 0.3904 -0.8373
vn 0.3827 0.3904 -0.8373
vn 0.9239 -0.1617 0.3468
vn -0.3827 -0.3904 0.8373
vn -0.9239 0.1617 -0.3468
vn 0.3827 -0.3904 0.8373
vn -0.9239 -0.1617 0.3468
vn -0.0000 0.9063 0.4226
vn -0.0000 -0.9063 0.4226
vn 0.9239 -0.1617 -0.3468
vn -0.3827 -0.3904 -0.8373
vn 0.3827 -0.3904 -0.8373
vn 0.9239 0.1617 0.3468
vn -0.3827 0.3904 0.8373
vn -0.9239 -0.1617 -0.3468
vn 0.3827 0.3904 0.8373
vn -0.9239 0.1617 0.3468
vn -0.0000 0.9063 -0.4226
vt 0.750000 0.750000
vt 0.687500 1.000000
vt 0.625000 0.750000
vt 0.687500 0.000000
vt 0.750000 0.250000
vt 0.625000 0.250000
vt 0.750000 0.500000
vt 0.625000 0.500000
vt 0.562500 0.000000
vt 0.500000 0.250000
vt 0.500000 0.750000
vt 0.500000 0.500000
vt 0.562500 1.000000
vt 0.437500 0.000000
vt 0.375000 0.250000
vt 0.375000 0.750000
vt 0.375000 0.500000
vt 0.437500 1.000000
vt 0.312500 1.000000
vt 0.250000 0.750000
vt 0.312500 0.000000
vt 0.250000 0.250000
vt 0.250000 0.500000
vt 0.125000 0.500000
vt 0.125000 0.250000
vt 0.187500 1.000000
vt 0.125000 0.750000
vt 0.187500 0.000000
vt 0.000000 0.500000
vt 0.000000 0.250000
vt 0.062500 1.000000
vt 0.000000 0.750000
vt 0.062500 0.000000
vt 1.000000 0.250000
vt 1.000000 0.500000
vt 0.875000 0.500000
vt 0.875000 0.250000
vt 1.000000 0.750000
vt 0.937500 1.000000
vt 0.875000 0.750000
vt 0.937500 0.000000
vt 0.812500 1.000000
vt 0.812500 0.000000
vt 0.000000 0.000000
vt 0.625000 0.625000
vt 0.500000 0.625000
vt 0.625000 0.750000
vt 0.500000 0.750000
vt 0.625000 0.875000
vt 0.500000 0.875000
vt 0.625000 1.000000
vt 0.500000 1.000000
vt 0.500000 0.000000
vt 0.625000 0.000000
vt 0.625000 0.125000
vt 0.500000 0.125000
vt 0.625000 0.375000
vt 0.500000 0.375000
vt 0.750000 0.625000
vt 0.750000 0.750000
vt 0.750000 0.875000
vt 0.750000 1.000000
vt 0.750000 0.000000
vt 0.750000 0.125000
vt 0.750000 0.375000
vt 0.875000 0.625000
vt 0.875000 0.750000
vt 0.875000 0.875000
vt 0.875000 1.000000
vt 0.875000 0.000000
vt 0.875000 0.125000
vt 0.875000 0.375000
vt 1.000000 0.625000
vt 1.000000 0.750000
vt 1.000000 0.875000
vt 1.000000 1.000000
vt 1.000000 0.000000
vt 1.000000 0.125000
vt 1.000000 0.375000
vt 0.125000 0.625000
vt 0.000000 0.625000
vt 0.125000 0.750000
vt 0.000000 0.750000
vt 0.125000 0.875000
vt 0.000000 0.875000
vt 0.125000 1.000000
vt 0.000000 1.000000
vt 0.125000 0.000000
vt 0.125000 0.125000
vt 0.000000 0.125000
vt 0.125000 0.375000
vt 0.000000 0.375000
vt 0.250000 0.625000
vt 0.250000 0.750000
vt 0.250000 0.875000
vt 0.250000 1.000000
vt 0.250000 0.000000
vt 0.250000 0.125000
vt 0.250000 0.375000
vt 0.375000 0.625000
vt 0.375000 0.750000
vt 0.375000 0.875000
vt 0.375000 1.000000
vt 0.375000 0.000000
vt 0.375000 0.125000
vt 0.375000 0.375000
s 0
usemtl Material.005
f 24/1/1 23/2/1 1/3/1
f 16/4/2 26/5/2 3/6/2
f 25/7/3 24/1/3 1/3/3 2/8/3
f 26/5/4 25/7/4 2/8/4 3/6/4
f 16/9/5 3/6/5 6/10/5
f 2/8/6 1/3/6 4/11/6 5/12/6
f 3/6/7 2/8/7 5/12/7 6/10/7
f 1/3/8 23/13/8 4/11/8
f 16/14/9 6/10/9 9/15/9
f 5/12/10 4/11/10 7/16/10 8/17/10
f 6/10/11 5/12/11 8/17/11 9/15/11
f 4/11/12 23/18/12 7/16/12
f 7/16/13 23/19/13 10/20/13
f 16/21/14 9/15/14 12/22/14
f 8/17/15 7/16/15 10/20/15 11/23/15
f 9/15/16 8/17/16 11/23/16 12/22/16
f 12/22/17 11/23/17 14/24/17 15/25/17
f 10/20/18 23/26/18 13/27/18
f 16/28/19 12/22/19 15/25/19
f 11/23/20 10/20/20 13/27/20 14/24/20
f 15/25/21 14/24/21 18/29/21 19/30/21
f 13/27/22 23/31/22 17/32/22
f 16/33/23 15/25/23 19/30/23
f 14/24/24 13/27/24 17/32/24 18/29/24
f 19/34/25 18/35/25 21/36/25 22/37/25
f 17/38/26 23/39/26 20/40/26
f 16/41/27 19/34/27 22/37/27
f 18/35/28 17/38/28 20/40/28 21/36/28
f 22/37/29 21/36/29 25/7/29 26/5/29
f 20/40/30 23/42/30 24/1/30
f 16/43/31 22/37/31 26/5/31
f 21/36/32 20/40/32 24/1/32 25/7/32
usemtl Material.003
f 28/44/33 27/44/33 34/44/33 33/44/33 32/44/33 31/44/33 30/44/33 29/44/33
f 71/44/34 67/44/34 50/44/34 49/44/34
f 30/44/35 31/44/35 39/44/35 38/44/35
f 28/44/36 29/44/36 37/44/36 36/44/36
f 33/44/37 34/44/37 42/44/37 41/44/37
f 31/44/38 32/44/38 40/44/38 39/44/38
f 29/44/39 30/44/39 38/44/39 37/44/39
f 27/44/40 28/44/40 36/44/40 35/44/40
f 34/44/41 27/44/41 35/44/41 42/44/41
f 32/44/42 33/44/42 41/44/42 40/44/42
f 44/44/43 45/44/43 46/44/43 47/44/43 48/44/43 49/44/43 50/44/43 43/44/43
f 72/44/44 68/44/44 48/44/44 47/44/44
f 73/44/45 69/44/45 46/44/45 45/44/45
f 74/44/46 70/44/46 44/44/46 43/44/46
f 67/44/47 74/44/47 43/44/47 50/44/47
f 68/44/48 71/44/48 49/44/48 48/44/48
f 69/44/49 72/44/49 47/44/49 46/44/49
f 70/44/50 73/44/50 45/44/50 44/44/50
f 66/44/51 61/44/51 56/44/51 57/44/51
f 65/44/52 60/44/52 54/44/52 55/44/52
f 64/44/53 59/44/53 52/44/53 53/44/53
f 63/44/54 62/44/54 58/44/54 51/44/54
f 62/44/55 66/44/55 57/44/55 58/44/55
f 61/44/56 65/44/56 55/44/56 56/44/56
f 60/44/57 64/44/57 53/44/57 54/44/57
f 59/44/58 63/44/58 51/44/58 52/44/58
f 41/44/59 42/44/59 63/44/59 59/44/59
f 39/44/60 40/44/60 64/44/60 60/44/60
f 37/44/61 38/44/61 65/44/61 61/44/61
f 35/44/62 36/44/62 66/44/62 62/44/62
f 42/44/63 35/44/63 62/44/63 63/44/63
f 40/44/64 41/44/64 59/44/64 64/44/64
f 38/44/65 39/44/65 60/44/65 65/44/65
f 36/44/66 37/44/66 61/44/66 66/44/66
f 57/44/67 56/44/67 73/44/67 70/44/67
f 55/44/68 54/44/68 72/44/68 69/44/68
f 53/44/69 52/44/69 71/44/69 68/44/69
f 51/44/70 58/44/70 74/44/70 67/44/70
f 58/44/71 57/44/71 70/44/71 74/44/71
f 56/44/72 55/44/72 69/44/72 73/44/72
f 54/44/73 53/44/73 68/44/73 72/44/73
f 52/44/74 51/44/74 67/44/74 71/44/74
usemtl Material.002
f 75/12/75 83/8/75 84/45/75 76/46/75
f 76/46/76 84/45/76 85/47/76 77/48/76
f 77/48/77 85/47/77 86/49/77 78/50/77
f 78/50/78 86/49/78 87/51/78 79/52/78
f 79/53/79 87/54/79 88/55/79 80/56/79
f 80/56/80 88/55/80 89/6/80 81/10/80
f 81/10/81 89/6/81 90/57/81 82/58/81
f 82/58/82 90/57/82 83/8/82 75/12/82
f 83/8/83 91/7/83 92/59/83 84/45/83
f 84/45/84 92/59/84 93/60/84 85/47/84
f 85/47/85 93/60/85 94/61/85 86/49/85
f 86/49/86 94/61/86 95/62/86 87/51/86
f 87/54/87 95/63/87 96/64/87 88/55/87
f 88/55/88 96/64/88 97/5/88 89/6/88
f 89/6/89 97/5/89 98/65/89 90/57/89
f 90/57/90 98/65/90 91/7/90 83/8/90
f 91/7/91 99/36/91 100/66/91 92/59/91
f 92/59/92 100/66/92 101/67/92 93/60/92
f 93/60/93 101/67/93 102/68/93 94/61/93
f 94/61/94 102/68/94 103/69/94 95/62/94
f 95/63/95 103/70/95 104/71/95 96/64/95
f 96/64/96 104/71/96 105/37/96 97/5/96
f 97/5/97 105/37/97 106/72/97 98/65/97
f 98/65/98 106/72/98 99/36/98 91/7/98
f 99/36/99 107/35/99 108/73/99 100/66/99
f 100/66/100 108/73/100 109/74/100 101/67/100
f 101/67/101 109/74/101 110/75/101 102/68/101
f 102/68/102 110/75/102 111/76/102 103/69/102
f 103/70/103 111/77/103 112/78/103 104/71/103
f 104/71/104 112/78/104 113/34/104 105/37/104
f 105/37/105 113/34/105 114/79/105 106/72/105
f 106/72/106 114/79/106 107/35/106 99/36/106
f 107/29/78 115/24/78 116/80/78 108/81/78
f 108/81/77 116/80/77 117/82/77 109/83/77
f 109/83/76 117/82/76 118/84/76 110/85/76
f 110/85/75 118/84/75 119/86/75 111/87/75
f 111/44/82 119/88/82 120/89/82 112/90/82
f 112/90/81 120/89/81 121/25/81 113/30/81
f 113/30/80 121/25/80 122/91/80 114/92/80
f 114/92/79 122/91/79 115/24/79 107/29/79
f 115/24/86 123/23/86 124/93/86 116/80/86
f 116/80/85 124/93/85 125/94/85 117/82/85
f 117/82/84 125/94/84 126/95/84 118/84/84
f 118/84/83 126/95/83 127/96/83 119/86/83
f 119/88/90 127/97/90 128/98/90 120/89/90
f 120/89/89 128/98/89 129/22/89 121/25/89
f 121/25/88 129/22/88 130/99/88 122/91/88
f 122/91/87 130/99/87 123/23/87 115/24/87
f 123/23/94 131/17/94 132/100/94 124/93/94
f 124/93/93 132/100/93 133/101/93 125/94/93
f 125/94/92 133/101/92 134/102/92 126/95/92
f 126/95/91 134/102/91 135/103/91 127/96/91
f 127/97/98 135/104/98 136/105/98 128/98/98
f 128/98/97 136/105/97 137/15/97 129/22/97
f 129/22/96 137/15/96 138/106/96 130/99/96
f 130/99/95 138/106/95 131/17/95 123/23/95
f 131/17/102 75/12/102 76/46/102 132/100/102
f 132/100/101 76/46/101 77/48/101 133/101/101
f 133/101/100 77/48/100 78/50/100 134/102/100
f 134/102/99 78/50/99 79/52/99 135/103/99
f 135/104/106 79/53/106 80/56/106 136/105/106
f 136/105/105 80/56/105 81/10/105 137/15/105
f 137/15/104 81/10/104 82/58/104 138/106/104
f 138/106/103 82/58/103 75/12/103 131/17/103
f 139/12/75 147/8/75 148/45/75 140/46/75
f 140/46/76 148/45/76 149/47/76 141/48/76
f 141/48/77 149/47/77 150/49/77 142/50/77
f 142/50/78 150/49/78 151/51/78 143/52/78
f 143/53/79 151/54/79 152/55/79 144/56/79
f 144/56/80 152/55/80 153/6/80 145/10/80
f 145/10/81 153/6/81 154/57/81 146/58/81
f 146/58/82 154/57/82 147/8/82 139/12/82
f 147/8/83 155/7/83 156/59/83 148/45/83
f 148/45/84 156/59/84 157/60/84 149/47/84
f 149/47/85 157/60/85 158/61/85 150/49/85
f 150/49/86 158/61/86 159/62/86 151/51/86
f 151/54/87 159/63/87 160/64/87 152/55/87
f 152/55/88 160/64/88 161/5/88 153/6/88
f 153/6/89 161/5/89 162/65/89 154/57/89
f 154/57/90 162/65/90 155/7/90 147/8/90
f 155/7/91 163/36/91 164/66/91 156/59/91
f 156/59/92 164/66/92 165/67/92 157/60/92
f 157/60/93 165/67/93 166/68/93 158/61/93
f 158/61/94 166/68/94 167/69/94 159/62/94
f 159/63/95 167/70/95 168/71/95 160/64/95
f 160/64/96 168/71/96 169/37/96 161/5/96
f 161/5/97 169/37/97 170/72/97 162/65/97
f 162/65/98 170/72/98 163/36/98 155/7/98
f 163/36/99 171/35/99 172/73/99 164/66/99
f 164/66/100 172/73/100 173/74/100 165/67/100
f 165/67/101 173/74/101 174/75/101 166/68/101
f 166/68/102 174/75/102 175/76/102 167/69/102
f 167/70/103 175/77/103 176/78/103 168/71/103
f 168/71/104 176/78/104 177/34/104 169/37/104
f 169/37/105 177/34/105 178/79/105 170/72/105
f 170/72/106 178/79/106 171/35/106 163/36/106
f 171/29/78 179/24/78 180/80/78 172/81/78
f 172/81/77 180/80/77 181/82/77 173/83/77
f 173/83/76 181/82/76 182/84/76 174/85/76
f 174/85/75 182/84/75 183/86/75 175/87/75
f 175/44/82 183/88/82 184/89/82 176/90/82
f 176/90/81 184/89/81 185/25/81 177/30/81
f 177/30/80 185/25/80 186/91/80 178/92/80
f 178/92/79 186/91/79 179/24/79 171/29/79
f 179/24/86 187/23/86 188/93/86 180/80/86
f 180/80/85 188/93/85 189/94/85 181/82/85
f 181/82/84 189/94/84 190/95/84 182/84/84
f 182/84/83 190/95/83 191/96/83 183/86/83
f 183/88/90 191/97/90 192/98/90 184/89/90
f 184/89/89 192/98/89 193/22/89 185/25/89
f 185/25/88 193/22/88 194/99/88 186/91/88
f 186/91/87 194/99/87 187/23/87 179/24/87
f 187/23/94 195/17/94 196/100/94 188/93/94
f 188/93/93 196/100/93 197/101/93 189/94/93
f 189/94/92 197/101/92 198/102/92 190/95/92
f 190/95/91 198/102/91 199/103/91 191/96/91
f 191/97/98 199/104/98 200/105/98 192/98/98
f 192/98/97 200/105/97 201/15/97 193/22/97
f 193/22/96 201/15/96 202/106/96 194/99/96
f 194/99/95 202/106/95 195/17/95 187/23/95
f 195/17/102 139/12/102 140/46/102 196/100/102
f 196/100/101 140/46/101 141/48/101 197/101/101
f 197/101/100 141/48/100 142/50/100 198/102/100
f 198/102/99 142/50/99 143/52/99 199/103/99
f 199/104/106 143/53/106 144/56/106 200/105/106
f 200/105/105 144/56/105 145/10/105 201/15/105
f 201/15/104 145/10/104 146/58/104 202/106/104
f 202/106/103 146/58/103 139/12/103 195/17/103
usemtl Material.001
f 204/44/33 203/44/33 210/44/33 209/44/33 208/44/33 207/44/33 206/44/33 205/44/33
f 211/44/43 213/44/43 214/44/43 215/44/43 216/44/43 217/44/43 218/44/43 212/44/43
f 204/44/107 205/44/107 213/44/107 211/44/107
f 209/44/108 210/44/108 218/44/108 217/44/108
f 207/44/109 208/44/109 216/44/109 215/44/109
f 205/44/110 206/44/110 214/44/110 213/44/110
f 203/44/111 204/44/111 211/44/111 212/44/111
f 210/44/112 203/44/112 212/44/112 218/44/112
f 208/44/113 209/44/113 217/44/113 216/44/113
f 206/44/114 207/44/114 215/44/114 214/44/114
f 413/44/147 412/44/147 419/44/147 418/44/147 417/44/147 416/44/147 415/44/147 414/44/147
f 426/44/148 427/44/148 435/44/148 434/44/148
f 412/44/149 413/44/149 420/44/149 421/44/149
f 419/44/150 412/44/150 421/44/150 427/44/150
f 417/44/151 418/44/151 426/44/151 425/44/151
f 415/44/152 416/44/152 424/44/152 423/44/152
f 413/44/153 414/44/153 422/44/153 420/44/153
f 418/44/148 419/44/148 427/44/148 426/44/148
f 416/44/154 417/44/154 425/44/154 424/44/154
f 414/44/155 415/44/155 423/44/155 422/44/155
f 428/44/156 430/44/156 431/44/156 432/44/156 433/44/156 434/44/156 435/44/156 429/44/156
f 424/44/154 425/44/154 433/44/154 432/44/154
f 422/44/155 423/44/155 431/44/155 430/44/155
f 421/44/149 420/44/149 428/44/149 429/44/149
f 427/44/150 421/44/150 429/44/150 435/44/150
f 425/44/151 426/44/151 434/44/151 433/44/151
f 423/44/152 424/44/152 432/44/152 431/44/152
f 420/44/153 422/44/153 430/44/153 428/44/153
f 437/44/157 436/44/157 443/44/157 442/44/157 441/44/157 440/44/157 439/44/157 438/44/157
f 450/44/158 451/44/158 459/44/158 458/44/158
f 436/44/159 437/44/159 444/44/159 445/44/159
f 443/44/160 436/44/160 445/44/160 451/44/160
f 441/44/161 442/44/161 450/44/161 449/44/161
f 439/44/162 440/44/162 448/44/162 447/44/162
f 437/44/163 438/44/163 446/44/163 444/44/163
f 442/44/158 443/44/158 451/44/158 450/44/158
f 440/44/164 441/44/164 449/44/164 448/44/164
f 438/44/165 439/44/165 447/44/165 446/44/165
f 452/44/166 454/44/166 455/44/166 456/44/166 457/44/166 458/44/166 459/44/166 453/44/166
f 448/44/164 449/44/164 457/44/164 456/44/164
f 446/44/165 447/44/165 455/44/165 454/44/165
f 445/44/159 444/44/159 452/44/159 453/44/159
f 451/44/160 445/44/160 453/44/160 459/44/160
f 449/44/161 450/44/161 458/44/161 457/44/161
f 447/44/162 448/44/162 456/44/162 455/44/162
f 444/44/163 446/44/163 454/44/163 452/44/163
f 461/44/167 460/44/167 467/44/167 466/44/167 465/44/167 464/44/167 463/44/167 462/44/167
f 474/44/168 475/44/168 483/44/168 482/44/168
f 460/44/169 461/44/169 468/44/169 469/44/169
f 467/44/170 460/44/170 469/44/170 475/44/170
f 465/44/171 466/44/171 474/44/171 473/44/171
f 463/44/172 464/44/172 472/44/172 471/44/172
f 461/44/173 462/44/173 470/44/173 468/44/173
f 466/44/168 467/44/168 475/44/168 474/44/168
f 464/44/174 465/44/174 473/44/174 472/44/174
f 462/44/175 463/44/175 471/44/175 470/44/175
f 476/44/176 478/44/176 479/44/176 480/44/176 481/44/176 482/44/176 483/44/176 477/44/176
f 472/44/174 473/44/174 481/44/174 480/44/174
f 470/44/175 471/44/175 479/44/175 478/44/175
f 469/44/169 468/44/169 476/44/169 477/44/169
f 475/44/170 469/44/170 477/44/170 483/44/170
f 473/44/171 474/44/171 482/44/171 481/44/171
f 471/44/172 472/44/172 480/44/172 479/44/172
f 468/44/173 470/44/173 478/44/173 476/44/173
f 485/44/177 484/44/177 491/44/177 490/44/177 489/44/177 488/44/177 487/44/177 486/44/177
f 498/44/178 499/44/178 507/44/178 506/44/178
f 484/44/179 485/44/179 492/44/179 493/44/179
f 491/44/180 484/44/180 493/44/180 499/44/180
f 489/44/181 490/44/181 498/44/181 497/44/181
f 487/44/182 488/44/182 496/44/182 495/44/182
f 485/44/183 486/44/183 494/44/183 492/44/183
f 490/44/178 491/44/178 499/44/178 498/44/178
f 488/44/184 489/44/184 497/44/184 496/44/184
f 486/44/185 487/44/185 495/44/185 494/44/185
f 500/44/186 502/44/186 503/44/186 504/44/186 505/44/186 506/44/186 507/44/186 501/44/186
f 496/44/184 497/44/184 505/44/184 504/44/184
f 494/44/185 495/44/185 503/44/185 502/44/185
f 493/44/179 492/44/179 500/44/179 501/44/179
f 499/44/180 493/44/180 501/44/180 507/44/180
f 497/44/181 498/44/181 506/44/181 505/44/181
f 495/44/182 496/44/182 504/44/182 503/44/182
f 492/44/183 494/44/183 502/44/183 500/44/183
usemtl Material
f 220/12/6 228/8/6 229/45/6 221/46/6
f 221/46/8 229/45/8 230/47/8 222/48/8
f 222/48/22 230/47/22 231/49/22 223/50/22
f 223/50/24 231/49/24 232/51/24 224/52/24
f 224/53/21 232/54/21 233/55/21 225/56/21
f 225/56/23 233/55/23 234/6/23 226/10/23
f 226/10/5 234/6/5 235/57/5 227/58/5
f 227/58/7 235/57/7 228/8/7 220/12/7
f 228/8/3 236/7/3 237/59/3 229/45/3
f 229/45/1 237/59/1 238/60/1 230/47/1
f 230/47/18 238/60/18 239/61/18 231/49/18
f 231/49/20 239/61/20 240/62/20 232/51/20
f 232/54/17 240/63/17 241/64/17 233/55/17
f 233/55/19 241/64/19 242/5/19 234/6/19
f 234/6/2 242/5/2 243/65/2 235/57/2
f 235/57/4 243/65/4 236/7/4 228/8/4
f 236/7/32 244/36/32 245/66/32 237/59/32
f 237/59/30 245/66/30 246/67/30 238/60/30
f 238/60/13 246/67/13 247/68/13 239/61/13
f 239/61/15 247/68/15 248/69/15 240/62/15
f 240/63/16 248/70/16 249/71/16 241/64/16
f 241/64/14 249/71/14 250/37/14 242/5/14
f 242/5/31 250/37/31 251/72/31 243/65/31
f 243/65/29 251/72/29 244/36/29 236/7/29
f 244/36/28 252/35/28 253/73/28 245/66/28
f 245/66/26 253/73/26 254/74/26 246/67/26
f 246/67/12 254/74/12 255/75/12 247/68/12
f 247/68/10 255/75/10 256/76/10 248/69/10
f 248/70/11 256/77/11 257/78/11 249/71/11
f 249/71/9 257/78/9 258/34/9 250/37/9
f 250/37/27 258/34/27 259/79/27 251/72/27
f 251/72/25 259/79/25 252/35/25 244/36/25
f 252/29/24 260/24/24 261/80/24 253/81/24
f 253/81/22 261/80/22 262/82/22 254/83/22
f 254/83/8 262/82/8 263/84/8 255/85/8
f 255/85/6 263/84/6 264/86/6 256/87/6
f 256/44/7 264/88/7 265/89/7 257/90/7
f 257/90/5 265/89/5 266/25/5 258/30/5
f 258/30/23 266/25/23 267/91/23 259/92/23
f 259/92/21 267/91/21 260/24/21 252/29/21
f 260/24/20 268/23/20 269/93/20 261/80/20
f 261/80/18 269/93/18 270/94/18 262/82/18
f 262/82/1 270/94/1 271/95/1 263/84/1
f 263/84/3 271/95/3 272/96/3 264/86/3
f 264/88/4 272/97/4 273/98/4 265/89/4
f 265/89/2 273/98/2 274/22/2 266/25/2
f 266/25/19 274/22/19 275/99/19 267/91/19
f 267/91/17 275/99/17 268/23/17 260/24/17
f 268/23/15 276/17/15 277/100/15 269/93/15
f 269/93/13 277/100/13 278/101/13 270/94/13
f 270/94/30 278/101/30 279/102/30 271/95/30
f 271/95/32 279/102/32 280/103/32 272/96/32
f 272/97/29 280/104/29 281/105/29 273/98/29
f 273/98/31 281/105/31 282/15/31 274/22/31
f 274/22/14 282/15/14 283/106/14 275/99/14
f 275/99/16 283/106/16 276/17/16 268/23/16
f 276/17/10 220/12/10 221/46/10 277/100/10
f 277/100/12 221/46/12 222/48/12 278/101/12
f 278/101/26 222/48/26 223/50/26 279/102/26
f 279/102/28 223/50/28 224/52/28 280/103/28
f 280/104/25 224/53/25 225/56/25 281/105/25
f 281/105/27 225/56/27 226/10/27 282/15/27
f 282/15/9 226/10/9 227/58/9 283/106/9
f 283/106/11 227/58/11 220/12/11 276/17/11
f 284/12/115 292/8/115 293/45/115 285/46/115
f 285/46/116 293/45/116 294/47/116 286/48/116
f 286/48/117 294/47/117 295/49/117 287/50/117
f 287/50/118 295/49/118 296/51/118 288/52/118
f 288/53/119 296/54/119 297/55/119 289/56/119
f 289/56/120 297/55/120 298/6/120 290/10/120
f 290/10/121 298/6/121 299/57/121 291/58/121
f 291/58/122 299/57/122 292/8/122 284/12/122
f 292/8/123 300/7/123 301/59/123 293/45/123
f 293/45/124 301/59/124 302/60/124 294/47/124
f 294/47/125 302/60/125 303/61/125 295/49/125
f 295/49/126 303/61/126 304/62/126 296/51/126
f 296/54/127 304/63/127 305/64/127 297/55/127
f 297/55/128 305/64/128 306/5/128 298/6/128
f 298/6/129 306/5/129 307/65/129 299/57/129
f 299/57/130 307/65/130 300/7/130 292/8/130
f 300/7/131 308/36/131 309/66/131 301/59/131
f 301/59/132 309/66/132 310/67/132 302/60/132
f 302/60/133 310/67/133 311/68/133 303/61/133
f 303/61/134 311/68/134 312/69/134 304/62/134
f 304/63/135 312/70/135 313/71/135 305/64/135
f 305/64/136 313/71/136 314/37/136 306/5/136
f 306/5/137 314/37/137 315/72/137 307/65/137
f 307/65/138 315/72/138 308/36/138 300/7/138
f 308/36/139 316/35/139 317/73/139 309/66/139
f 309/66/140 317/73/140 318/74/140 310/67/140
f 310/67/141 318/74/141 319/75/141 311/68/141
f 311/68/142 319/75/142 320/76/142 312/69/142
f 312/70/143 320/77/143 321/78/143 313/71/143
f 313/71/144 321/78/144 322/34/144 314/37/144
f 314/37/145 322/34/145 323/79/145 315/72/145
f 315/72/146 323/79/146 316/35/146 308/36/146
f 316/29/118 324/24/118 325/80/118 317/81/118
f 317/81/117 325/80/117 326/82/117 318/83/117
f 318/83/116 326/82/116 327/84/116 319/85/116
f 319/85/115 327/84/115 328/86/115 320/87/115
f 320/44/122 328/88/122 329/89/122 321/90/122
f 321/90/121 329/89/121 330/25/121 322/30/121
f 322/30/120 330/25/120 331/91/120 323/92/120
f 323/92/119 331/91/119 324/24/119 316/29/119
f 324/24/126 332/23/126 333/93/126 325/80/126
f 325/80/125 333/93/125 334/94/125 326/82/125
f 326/82/124 334/94/124 335/95/124 327/84/124
f 327/84/123 335/95/123 336/96/123 328/86/123
f 328/88/130 336/97/130 337/98/130 329/89/130
f 329/89/129 337/98/129 338/22/129 330/25/129
f 330/25/128 338/22/128 339/99/128 331/91/128
f 331/91/127 339/99/127 332/23/127 324/24/127
f 332/23/134 340/17/134 341/100/134 333/93/134
f 333/93/133 341/100/133 342/101/133 334/94/133
f 334/94/132 342/101/132 343/102/132 335/95/132
f 335/95/131 343/102/131 344/103/131 336/96/131
f 336/97/138 344/104/138 345/105/138 337/98/138
f 337/98/137 345/105/137 346/15/137 338/22/137
f 338/22/136 346/15/136 347/106/136 339/99/136
f 339/99/135 347/106/135 340/17/135 332/23/135
f 340/17/142 284/12/142 285/46/142 341/100/142
f 341/100/141 285/46/141 286/48/141 342/101/141
f 342/101/140 286/48/140 287/50/140 343/102/140
f 343/102/139 287/50/139 288/52/139 344/103/139
f 344/104/146 288/53/146 289/56/146 345/105/146
f 345/105/145 289/56/145 290/10/145 346/15/145
f 346/15/144 290/10/144 291/58/144 347/106/144
f 347/106/143 291/58/143 284/12/143 340/17/143
f 348/12/6 356/8/6 357/45/6 349/46/6
f 349/46/8 357/45/8 358/47/8 350/48/8
f 350/48/22 358/47/22 359/49/22 351/50/22
f 351/50/24 359/49/24 360/51/24 352/52/24
f 352/53/21 360/54/21 361/55/21 353/56/21
f 353/56/23 361/55/23 362/6/23 354/10/23
f 354/10/5 362/6/5 363/57/5 355/58/5
f 355/58/7 363/57/7 356/8/7 348/12/7
f 356/8/3 364/7/3 365/59/3 357/45/3
f 357/45/1 365/59/1 366/60/1 358/47/1
f 358/47/18 366/60/18 367/61/18 359/49/18
f 359/49/20 367/61/20 368/62/20 360/51/20
f 360/54/17 368/63/17 369/64/17 361/55/17
f 361/55/19 369/64/19 370/5/19 362/6/19
f 362/6/2 370/5/2 371/65/2 363/57/2
f 363/57/4 371/65/4 364/7/4 356/8/4
f 364/7/32 372/36/32 373/66/32 365/59/32
f 365/59/30 373/66/30 374/67/30 366/60/30
f 366/60/13 374/67/13 375/68/13 367/61/13
f 367/61/15 375/68/15 376/69/15 368/62/15
f 368/63/16 376/70/16 377/71/16 369/64/16
f 369/64/14 377/71/14 378/37/14 370/5/14
f 370/5/31 378/37/31 379/72/31 371/65/31
f 371/65/29 379/72/29 372/36/29 364/7/29
f 372/36/28 380/35/28 381/73/28 373/66/28
f 373/66/26 381/73/26 382/74/26 374/67/26
f 374/67/12 382/74/12 383/75/12 375/68/12
f 375/68/10 383/75/10 384/76/10 376/69/10
f 376/70/11 384/77/11 385/78/11 377/71/11
f 377/71/9 385/78/9 386/34/9 378/37/9
f 378/37/27 386/34/27 387/79/27 379/72/27
f 379/72/25 387/79/25 380/35/25 372/36/25
f 380/29/24 388/24/24 389/80/24 381/81/24
f 381/81/22 389/80/22 390/82/22 382/83/22
f 382/83/8 390/82/8 391/84/8 383/85/8
f 383/85/6 391/84/6 392/86/6 384/87/6
f 384/44/7 392/88/7 393/89/7 385/90/7
f 385/90/5 393/89/5 394/25/5 386/30/5
f 386/30/23 394/25/23 395/91/23 387/92/23
f 387/92/21 395/91/21 388/24/21 380/29/21
f 388/24/20 396/23/20 397/93/20 389/80/20
f 389/80/18 397/93/18 398/94/18 390/82/18
f 390/82/1 398/94/1 399/95/1 391/84/1
f 391/84/3 399/95/3 400/96/3 392/86/3
f 392/88/4 400/97/4 401/98/4 393/89/4
f 393/89/2 401/98/2 402/22/2 394/25/2
f 394/25/19 402/22/19 403/99/19 395/91/19
f 395/91/17 403/99/17 396/23/17 388/24/17
f 396/23/15 404/17/15 405/100/15 397/93/15
f 397/93/13 405/100/13 406/101/13 398/94/13
f 398/94/30 406/101/30 407/102/30 399/95/30
f 399/95/32 407/102/32 408/103/32 400/96/32
f 400/97/29 408/104/29 409/105/29 401/98/29
f 401/98/31 409/105/31 410/15/31 402/22/31
f 402/22/14 410/15/14 411/106/14 403/99/14
f 403/99/16 411/106/16 404/17/16 396/23/16
f 404/17/10 348/12/10 349/46/10 405/100/10
f 405/100/12 349/46/12 350/48/12 406/101/12
f 406/101/26 350/48/26 351/50/26 407/102/26
f 407/102/28 351/50/28 352/52/28 408/103/28
f 408/104/25 352/53/25 353/56/25 409/105/25
f 409/105/27 353/56/27 354/10/27 410/15/27
f 410/15/9 354/10/9 355/58/9 411/106/9
f 411/106/11 355/58/11 348/12/11 404/17/11
