# Blender 4.5.3 LTS
# www.blender.org
mtllib turret3_head.mtl
o Cube.004
v -0.858641 0.171876 0.098710
v -0.858641 0.171876 0.442462
v -0.312165 0.171876 0.098710
v -0.312165 0.171876 0.442462
v -0.858641 -0.171877 0.098710
v -0.858641 -0.171877 0.442462
v -0.312165 -0.171877 0.098710
v -0.312165 -0.171877 0.442462
v -0.858567 -0.151596 0.098962
v -0.858567 -0.151596 0.405088
v -0.552440 -0.151596 0.098962
v -0.858567 -0.215397 0.098962
v -0.858567 -0.215397 0.405088
v -0.552440 -0.215397 0.098962
v -0.742756 -0.151596 0.405088
v -0.552440 -0.151596 0.214772
v -0.608183 -0.151596 0.349346
v -0.552440 -0.215397 0.214772
v -0.742756 -0.215397 0.405088
v -0.608183 -0.215397 0.349346
v -0.599408 -0.151596 0.099149
v -0.313519 -0.151596 0.099149
v -0.313519 -0.151596 0.202560
v -0.599408 -0.215397 0.099149
v -0.313519 -0.215397 0.099149
v -0.313519 -0.215397 0.202560
v -0.599408 -0.151596 0.320342
v -0.481626 -0.151596 0.202560
v -0.564910 -0.151596 0.237057
v -0.481626 -0.215397 0.202560
v -0.599408 -0.215397 0.320342
v -0.564910 -0.215397 0.237057
v -0.324566 0.065100 0.270592
v -0.416770 0.158927 0.270592
v -0.548313 0.160075 0.270592
v -0.642140 0.067871 0.270592
v -0.643288 -0.063672 0.270592
v -0.551085 -0.157499 0.270592
v -0.419541 -0.158647 0.270592
v -0.325714 -0.066444 0.270592
v -0.324566 0.065100 0.324123
v -0.416770 0.158927 0.324123
v -0.548313 0.160075 0.324123
v -0.642140 0.067871 0.324123
v -0.643288 -0.063672 0.324123
v -0.551085 -0.157499 0.324123
v -0.419541 -0.158647 0.324123
v -0.325714 -0.066444 0.324123
v -0.269012 -0.000000 0.471658
v -0.269012 0.150104 0.409482
v -0.269012 0.212279 0.259378
v -0.269012 0.150104 0.109274
v -0.269012 -0.000000 0.047098
v -0.269012 -0.150105 0.109274
v -0.269012 -0.212280 0.259378
v -0.269012 -0.150105 0.409482
v 0.713962 0.150104 0.409482
v 0.713962 -0.000000 0.471658
v 0.713962 0.212279 0.259378
v 0.713962 0.150104 0.109274
v 0.713962 -0.000000 0.047098
v 0.713962 -0.150105 0.109274
v 0.713962 -0.212280 0.259378
v 0.713962 -0.150105 0.409482
v -0.269012 0.199636 0.459014
v -0.269012 -0.000000 0.541706
v -0.269012 0.282328 0.259378
v -0.269012 0.199636 0.059742
v -0.269012 -0.000000 -0.022950
v -0.269012 -0.199637 0.059742
v -0.269012 -0.282329 0.259378
v -0.269012 -0.199637 0.459014
v -0.316203 0.199636 0.459014
v -0.316203 -0.000000 0.541706
v -0.316203 0.282328 0.259378
v -0.316203 0.199636 0.059742
v -0.316203 -0.000000 -0.022950
v -0.316203 -0.199637 0.059742
v -0.316203 -0.282329 0.259378
v -0.316203 -0.199637 0.459014
v 0.710742 -0.000000 0.488239
v 0.710742 0.161830 0.421207
v 0.710742 0.228862 0.259376
v 0.710742 0.161830 0.097546
v 0.710742 -0.000000 0.030513
v 0.710742 -0.161831 0.097546
v 0.710742 -0.228863 0.259376
v 0.710742 -0.161831 0.421207
v 0.797512 0.161830 0.421207
v 0.797512 -0.000000 0.488239
v 0.797512 0.228862 0.259376
v 0.797512 0.161830 0.097546
v 0.797512 -0.000000 0.030513
v 0.797512 -0.161831 0.097546
v 0.797512 -0.228863 0.259376
v 0.797512 -0.161831 0.421207
v 0.794892 -0.000000 0.274814
v 0.794892 0.052418 0.253102
v 0.794892 0.074130 0.200684
v 0.794892 0.052418 0.148266
v 0.794892 -0.000000 0.126553
v 0.794892 -0.052419 0.148266
v 0.794892 -0.074131 0.200684
v 0.794892 -0.052419 0.253102
v 0.868423 0.052418 0.253102
v 0.868423 -0.000000 0.274814
v 0.868423 0.074130 0.200684
v 0.868423 0.052418 0.148266
v 0.868423 -0.000000 0.126553
v 0.868423 -0.052419 0.148266
v 0.868423 -0.074131 0.200684
v 0.868423 -0.052419 0.253102
v 0.298334 0.573840 -0.106237
v 0.298334 0.573840 0.278445
v 0.429593 0.573840 -0.106237
v 0.429593 0.573840 0.278445
v 0.298334 -0.573840 -0.106237
v 0.298334 -0.573840 0.278445
v 0.429593 -0.573840 -0.106237
v 0.429593 -0.573840 0.278445
v 0.298334 -0.119209 0.275692
v -0.065120 -0.119209 1.034731
v 0.429593 -0.119209 0.275692
v 0.066139 -0.119209 1.034731
v 0.298334 -0.573840 0.275692
v -0.065120 -0.573840 1.034731
v 0.429593 -0.573840 0.275692
v 0.066139 -0.573840 1.034731
v 0.298334 -0.119209 0.543222
v 0.142868 -0.119209 0.796235
v 0.274128 -0.119209 0.796235
v 0.429593 -0.119209 0.543222
v 0.274128 -0.573840 0.796235
v 0.429593 -0.573840 0.543222
v 0.142868 -0.573840 0.796235
v 0.298334 -0.573840 0.543222
v 0.298334 0.573617 0.275692
v -0.065120 0.573617 1.034731
v 0.429593 0.573617 0.275692
v 0.066139 0.573617 1.034731
v 0.298334 0.118986 0.275692
v -0.065120 0.118986 1.034731
v 0.429593 0.118986 0.275692
v 0.066139 0.118986 1.034731
v 0.298334 0.573617 0.543222
v 0.142868 0.573617 0.796235
v 0.274128 0.573617 0.796235
v 0.429593 0.573617 0.543222
v 0.274128 0.118986 0.796235
v 0.429593 0.118986 0.543222
v 0.142868 0.118986 0.796235
v 0.298334 0.118986 0.543222
v 0.623249 0.114549 0.424210
v -0.186771 0.114549 0.424210
v -0.215843 0.096652 0.431623
v -0.215843 0.057890 0.447679
v -0.186771 0.036570 0.456509
v 0.619494 0.036570 0.456510
v 0.656319 0.054014 0.449284
v 0.660195 0.094714 0.432425
v 0.552884 0.096903 0.400753
v -0.116052 0.096903 0.400753
v -0.140060 0.082124 0.406875
v -0.140060 0.050113 0.420134
v -0.116052 0.032506 0.427427
v 0.549782 0.032506 0.427427
v 0.580193 0.046911 0.421460
v 0.583394 0.080523 0.407538
v -0.269012 -0.000194 0.471020
v 0.713962 -0.000194 0.471020
v 0.623249 -0.035966 0.456483
v -0.186771 -0.035966 0.456483
v -0.215843 -0.053862 0.449070
v -0.215843 -0.092625 0.433014
v -0.186771 -0.113944 0.424183
v 0.619494 -0.113944 0.424183
v 0.656319 -0.096501 0.431408
v 0.660195 -0.055800 0.448267
v 0.552884 -0.031857 0.427419
v -0.116052 -0.031857 0.427419
v -0.140060 -0.046636 0.421297
v -0.140060 -0.078647 0.408038
v -0.116052 -0.096253 0.400745
v 0.549782 -0.096253 0.400745
v 0.580193 -0.081848 0.406712
v 0.583394 -0.048237 0.420634
v -0.269012 -0.149574 0.408289
v 0.713962 -0.149574 0.408289
v 0.623249 -0.163961 0.372558
v -0.186771 -0.163961 0.372558
v -0.215843 -0.171374 0.354661
v -0.215843 -0.187430 0.315899
v -0.186771 -0.196261 0.294579
v 0.619494 -0.196261 0.294579
v 0.656319 -0.189035 0.312022
v 0.660195 -0.172177 0.352723
v 0.552884 -0.140504 0.354912
v -0.116052 -0.140504 0.354912
v -0.140060 -0.146626 0.340133
v -0.140060 -0.159886 0.308121
v -0.116052 -0.167178 0.290515
v 0.549782 -0.167178 0.290515
v 0.580193 -0.161212 0.304920
v 0.583394 -0.147289 0.338532
v -0.269012 -0.210772 0.257815
v 0.713962 -0.210772 0.257815
v 0.623249 -0.196234 0.222043
v -0.186771 -0.196234 0.222043
v -0.215843 -0.188821 0.204147
v -0.215843 -0.172765 0.165384
v -0.186771 -0.163934 0.144065
v 0.619494 -0.163934 0.144065
v 0.656319 -0.171159 0.161508
v 0.660195 -0.188018 0.202209
v 0.552884 -0.167170 0.226152
v -0.116052 -0.167170 0.226152
v -0.140060 -0.161048 0.211373
v -0.140060 -0.147789 0.179362
v -0.116052 -0.140496 0.161755
v 0.549782 -0.140496 0.161755
v 0.580193 -0.146463 0.176160
v 0.583394 -0.160385 0.209772
v -0.269012 -0.148731 0.107998
v 0.713962 -0.148731 0.107998
v 0.623249 -0.113690 0.093174
v -0.186771 -0.113690 0.093174
v -0.215843 -0.095794 0.085761
v -0.215843 -0.057031 0.069705
v -0.186771 -0.035711 0.060874
v 0.619494 -0.035711 0.060874
v 0.656319 -0.053155 0.068099
v 0.660195 -0.093855 0.084958
v 0.552884 -0.096044 0.116630
v -0.116052 -0.096044 0.116630
v -0.140060 -0.081265 0.110508
v -0.140060 -0.049254 0.097249
v -0.116052 -0.031648 0.089956
v 0.549782 -0.031648 0.089956
v 0.580193 -0.046053 0.095923
v 0.583394 -0.079664 0.109845
v -0.269012 0.001053 0.046363
v 0.713962 0.001053 0.046363
v 0.623249 0.036824 0.060901
v -0.186771 0.036824 0.060901
v -0.215843 0.054721 0.068314
v -0.215843 0.093483 0.084370
v -0.186771 0.114803 0.093201
v 0.619494 0.114803 0.093201
v 0.656319 0.097360 0.085975
v 0.660195 0.056659 0.069117
v 0.552884 0.032716 0.089965
v -0.116052 0.032716 0.089965
v -0.140060 0.047495 0.096086
v -0.140060 0.079506 0.109346
v -0.116052 0.097112 0.116639
v 0.549782 0.097112 0.116639
v 0.580193 0.082707 0.110672
v 0.583394 0.049096 0.096749
v -0.269012 0.150433 0.109094
v 0.713962 0.150433 0.109094
v 0.623249 0.164820 0.144826
v -0.186771 0.164820 0.144826
v -0.215843 0.172233 0.162722
v -0.215843 0.188289 0.201485
v -0.186771 0.197120 0.222804
v 0.619494 0.197120 0.222804
v 0.656319 0.189894 0.205361
v 0.660195 0.173036 0.164660
v 0.552884 0.141363 0.162471
v -0.116052 0.141363 0.162471
v -0.140060 0.147485 0.177251
v -0.140060 0.160744 0.209262
v -0.116052 0.168037 0.226868
v 0.549782 0.168037 0.226868
v 0.580193 0.162070 0.212463
v 0.583394 0.148148 0.178851
v -0.269012 0.211630 0.259569
v 0.713962 0.211631 0.259569
v 0.623249 0.197093 0.295340
v -0.186771 0.197093 0.295340
v -0.215843 0.189680 0.313237
v -0.215843 0.173624 0.351999
v -0.186771 0.164793 0.373319
v 0.619494 0.164793 0.373319
v 0.656319 0.172018 0.355875
v 0.660195 0.188877 0.315175
v 0.552884 0.168029 0.291231
v -0.116052 0.168029 0.291231
v -0.140060 0.161907 0.306011
v -0.140060 0.148648 0.338022
v -0.116052 0.141355 0.355628
v 0.549782 0.141355 0.355628
v 0.580193 0.147322 0.341223
v 0.583394 0.161244 0.307611
v -0.269012 0.149590 0.409386
v 0.713962 0.149590 0.409386
v -0.858567 0.215396 0.098962
v -0.858567 0.215396 0.405088
v -0.552440 0.215396 0.098962
v -0.858567 0.151595 0.098962
v -0.858567 0.151595 0.405088
v -0.552440 0.151595 0.098962
v -0.742756 0.215396 0.405088
v -0.552440 0.215396 0.214772
v -0.608183 0.215396 0.349346
v -0.552440 0.151595 0.214772
v -0.742756 0.151595 0.405088
v -0.608183 0.151595 0.349346
v -0.599408 0.215396 0.099149
v -0.315363 0.215396 0.099149
v -0.315363 0.215396 0.202560
v -0.599408 0.151595 0.099149
v -0.315363 0.151595 0.099149
v -0.315363 0.151595 0.202560
v -0.599408 0.215396 0.320342
v -0.481626 0.215396 0.202560
v -0.564910 0.215396 0.237057
v -0.481626 0.151595 0.202560
v -0.599408 0.151595 0.320342
v -0.564910 0.151595 0.237057
vn -0.0000 1.0000 -0.0000
vn 1.0000 -0.0000 -0.0000
vn -0.0000 -1.0000 -0.0000
vn -1.0000 -0.0000 -0.0000
vn -0.0000 -0.0000 -1.0000
vn -0.0000 -0.0000 1.0000
vn 0.3827 -0.0000 0.9239
vn 0.9239 -0.0000 0.3827
vn 0.7009 -0.7133 -0.0000
vn -0.7133 -0.7009 -0.0000
vn -0.7009 0.7133 -0.0000
vn 0.7133 0.7009 -0.0000
vn 1.0000 -0.0087 -0.0000
vn -0.0087 -1.0000 -0.0000
vn -1.0000 0.0087 -0.0000
vn 0.0087 1.0000 -0.0000
vn -0.0000 -0.3827 0.9239
vn -0.0000 -0.9239 -0.3827
vn -0.0000 0.3827 -0.9239
vn -0.0000 0.9239 0.3827
vn -0.0000 -0.9239 0.3827
vn -0.0000 -0.3827 -0.9239
vn -0.0000 0.9239 -0.3827
vn -0.0000 0.3827 0.9239
vn 0.7537 -0.0000 0.6573
vn -0.7537 -0.0000 -0.6573
vn -0.8520 -0.0000 -0.5235
vn 0.8520 -0.0000 0.5235
vn 0.0079 0.3805 0.9247
vn -0.0079 0.3805 0.9247
vn -0.0000 -0.7991 0.6012
vn -0.2830 -0.1338 0.9497
vn -0.2716 0.7969 0.5397
vn 0.3084 0.6913 0.6534
vn 0.2947 -0.0844 0.9519
vn -0.3482 0.3868 0.8539
vn -0.0000 0.9904 -0.1384
vn 0.3512 0.3583 0.8650
vn 0.0102 -0.3872 0.9220
vn -0.0102 -0.3872 0.9220
vn -0.0000 -0.9902 -0.1400
vn -0.2830 -0.7662 0.5769
vn -0.2716 0.1819 0.9451
vn 0.3084 0.0267 0.9509
vn 0.2947 -0.7327 0.6134
vn -0.3482 -0.3302 0.8773
vn -0.0000 0.7982 0.6024
vn 0.3512 -0.3583 0.8650
vn 0.0001 -0.9263 0.3767
vn 0.0002 -0.9263 0.3767
vn -0.0000 -0.6012 -0.7991
vn -0.2830 -0.9497 -0.1338
vn -0.2716 -0.5397 0.7969
vn 0.3084 -0.6534 0.6913
vn 0.2947 -0.9519 -0.0844
vn -0.3482 -0.8539 0.3868
vn -0.0000 0.1384 0.9904
vn 0.3512 -0.8650 0.3583
vn 0.0047 -0.9239 -0.3826
vn -0.0048 -0.9239 -0.3826
vn -0.0000 0.1400 -0.9902
vn -0.2830 -0.5769 -0.7662
vn -0.2716 -0.9451 0.1819
vn 0.3084 -0.9509 0.0267
vn 0.2947 -0.6134 -0.7327
vn -0.3482 -0.8773 -0.3302
vn -0.0000 -0.6024 0.7982
vn 0.3512 -0.8650 -0.3583
vn 0.0079 -0.3805 -0.9247
vn -0.0079 -0.3805 -0.9247
vn -0.0000 0.7991 -0.6012
vn -0.2830 0.1338 -0.9497
vn -0.2716 -0.7969 -0.5397
vn 0.3084 -0.6913 -0.6534
vn 0.2947 0.0844 -0.9519
vn -0.3482 -0.3868 -0.8539
vn -0.0000 -0.9904 0.1384
vn 0.3512 -0.3583 -0.8650
vn 0.0102 0.3872 -0.9220
vn -0.0102 0.3872 -0.9220
vn -0.0000 0.9902 0.1400
vn -0.2830 0.7662 -0.5769
vn -0.2716 -0.1819 -0.9451
vn 0.3084 -0.0268 -0.9509
vn 0.2947 0.7327 -0.6134
vn -0.3482 0.3302 -0.8773
vn -0.0000 -0.7982 -0.6024
vn 0.3512 0.3583 -0.8650
vn 0.0001 0.9263 -0.3767
vn 0.0002 0.9263 -0.3767
vn -0.0000 0.6012 0.7991
vn -0.2830 0.9497 0.1338
vn -0.2716 0.5397 -0.7969
vn 0.3084 0.6534 -0.6913
vn 0.2947 0.9519 0.0844
vn -0.3482 0.8539 -0.3868
vn -0.0000 -0.1384 -0.9904
vn 0.3512 0.8650 -0.3583
vn 0.0047 0.9239 0.3826
vn -0.0048 0.9239 0.3826
vn -0.0000 -0.1400 0.9902
vn -0.2830 0.5769 0.7662
vn -0.2716 0.9451 -0.1819
vn 0.3084 0.9509 -0.0267
vn 0.2947 0.6134 0.7327
vn -0.3482 0.8773 0.3302
vn -0.0000 0.6024 -0.7982
vn 0.3512 0.8650 0.3583
vn -0.0000 0.3671 0.9302
vn -0.0000 0.3896 0.9210
vn 0.0039 0.3757 0.9267
vn 0.0018 0.3856 0.9227
vn 0.0106 0.3818 0.9242
vn -0.0050 0.3768 0.9263
vn -0.0021 0.3855 0.9227
vn -0.0125 0.3827 0.9238
vn -0.0000 -0.4074 0.9133
vn -0.0000 -0.3765 0.9264
vn 0.0061 -0.3937 0.9192
vn 0.0016 -0.3801 0.9250
vn 0.0167 -0.3840 0.9232
vn -0.0080 -0.3919 0.9200
vn -0.0018 -0.3801 0.9249
vn -0.0197 -0.3826 0.9237
vn -0.0000 -0.9302 0.3671
vn -0.0000 -0.9276 0.3735
vn 0.0039 -0.9267 0.3757
vn -0.0024 -0.9255 0.3788
vn 0.0106 -0.9242 0.3818
vn -0.0050 -0.9263 0.3768
vn 0.0027 -0.9254 0.3789
vn -0.0125 -0.9238 0.3827
vn -0.0000 -0.9215 -0.3884
vn -0.0000 -0.9264 -0.3765
vn 0.0014 -0.9228 -0.3852
vn 0.0016 -0.9250 -0.3801
vn 0.0039 -0.9237 -0.3830
vn -0.0018 -0.9230 -0.3848
vn -0.0018 -0.9249 -0.3801
vn -0.0046 -0.9239 -0.3827
vn -0.0000 -0.3671 -0.9302
vn -0.0000 -0.3896 -0.9210
vn 0.0039 -0.3757 -0.9267
vn 0.0018 -0.3856 -0.9227
vn 0.0106 -0.3818 -0.9242
vn -0.0050 -0.3768 -0.9263
vn -0.0021 -0.3855 -0.9227
vn -0.0125 -0.3827 -0.9238
vn -0.0000 0.4074 -0.9133
vn -0.0000 0.3765 -0.9264
vn 0.0061 0.3937 -0.9192
vn 0.0016 0.3801 -0.9250
vn 0.0167 0.3840 -0.9232
vn -0.0080 0.3919 -0.9200
vn -0.0018 0.3801 -0.9249
vn -0.0197 0.3826 -0.9237
vn 0.3084 -0.0267 -0.9509
vn -0.0000 0.9302 -0.3671
vn -0.0000 0.9276 -0.3735
vn 0.0039 0.9267 -0.3757
vn -0.0024 0.9255 -0.3788
vn 0.0106 0.9242 -0.3818
vn -0.0050 0.9263 -0.3768
vn 0.0027 0.9254 -0.3789
vn -0.0125 0.9238 -0.3827
vn -0.0000 0.9215 0.3884
vn -0.0000 0.9264 0.3765
vn 0.0014 0.9228 0.3852
vn 0.0016 0.9250 0.3801
vn 0.0039 0.9237 0.3830
vn -0.0019 0.9230 0.3848
vn -0.0018 0.9249 0.3801
vn -0.0046 0.9239 0.3827
vn 0.2947 0.6134 0.7328
vt 0.625000 0.000000
vt 0.375000 0.250000
vt 0.375000 0.000000
vt 0.625000 0.250000
vt 0.375000 0.500000
vt 0.625000 0.500000
vt 0.375000 0.750000
vt 0.625000 0.750000
vt 0.375000 1.000000
vt 0.125000 0.750000
vt 0.125000 0.500000
vt 0.875000 0.500000
vt 0.625000 0.655423
vt 0.875000 0.655423
vt 0.603042 0.521958
vt 0.469577 0.250000
vt 0.595374 0.220374
vt 0.469577 0.500000
vt 0.875000 0.653812
vt 0.600443 0.737655
vt 0.625000 0.653813
vt 0.625000 1.000000
vt 0.433651 0.750000
vt 0.625000 0.096187
vt 0.000000 0.000000
vt 0.546448 0.000000
vt 0.546448 0.250000
vt 0.546448 0.500000
vt 0.546448 0.750000
vt 0.546448 1.000000
vt 0.463115 0.750000
vt 0.463115 1.000000
vt 0.463115 0.500000
vt 0.463115 0.250000
vt 0.463115 0.000000
vt 0.875000 0.750000
vt 0.625000 0.094577
vt 0.433651 1.000000
vt 0.433651 0.000000
vt 0.568955 0.028173
s 0
usemtl Material.006
f 2/1/1 3/2/1 1/3/1
f 4/4/2 7/5/2 3/2/2
f 8/6/3 5/7/3 7/5/3
f 6/8/4 1/9/4 5/7/4
f 7/5/5 1/10/5 3/11/5
f 4/12/6 6/8/6 8/6/6
f 85/25/4 87/25/4 81/25/4
f 95/25/2 93/25/2 91/25/2
f 89/25/20 83/25/20 82/25/20
f 95/25/21 88/25/21 87/25/21
f 93/25/22 86/25/22 85/25/22
f 91/25/23 84/25/23 83/25/23
f 90/25/24 82/25/24 81/25/24
f 96/25/17 81/25/17 88/25/17
f 94/25/18 87/25/18 86/25/18
f 92/25/19 85/25/19 84/25/19
f 101/25/4 103/25/4 97/25/4
f 111/25/2 109/25/2 107/25/2
f 108/25/19 101/25/19 100/25/19
f 98/25/20 107/25/20 99/25/20
f 111/25/21 104/25/21 103/25/21
f 109/25/22 102/25/22 101/25/22
f 107/25/23 100/25/23 99/25/23
f 106/25/24 98/25/24 97/25/24
f 104/25/17 106/25/17 97/25/17
f 110/25/18 103/25/18 102/25/18
f 2/1/1 4/4/1 3/2/1
f 4/4/2 8/6/2 7/5/2
f 8/6/3 6/8/3 5/7/3
f 6/8/4 2/22/4 1/9/4
f 7/5/5 5/7/5 1/10/5
f 4/12/6 2/36/6 6/8/6
f 81/25/4 82/25/4 83/25/4
f 83/25/4 84/25/4 85/25/4
f 85/25/4 86/25/4 87/25/4
f 87/25/4 88/25/4 81/25/4
f 81/25/4 83/25/4 85/25/4
f 91/25/2 89/25/2 90/25/2
f 90/25/2 96/25/2 95/25/2
f 95/25/2 94/25/2 93/25/2
f 93/25/2 92/25/2 91/25/2
f 91/25/2 90/25/2 95/25/2
f 89/25/20 91/25/20 83/25/20
f 95/25/21 96/25/21 88/25/21
f 93/25/22 94/25/22 86/25/22
f 91/25/23 92/25/23 84/25/23
f 90/25/24 89/25/24 82/25/24
f 96/25/17 90/25/17 81/25/17
f 94/25/18 95/25/18 87/25/18
f 92/25/19 93/25/19 85/25/19
f 97/25/4 98/25/4 99/25/4
f 99/25/4 100/25/4 101/25/4
f 101/25/4 102/25/4 103/25/4
f 103/25/4 104/25/4 97/25/4
f 97/25/4 99/25/4 101/25/4
f 107/25/2 105/25/2 106/25/2
f 106/25/2 112/25/2 111/25/2
f 111/25/2 110/25/2 109/25/2
f 109/25/2 108/25/2 107/25/2
f 107/25/2 106/25/2 111/25/2
f 108/25/19 109/25/19 101/25/19
f 98/25/20 105/25/20 107/25/20
f 111/25/21 112/25/21 104/25/21
f 109/25/22 110/25/22 102/25/22
f 107/25/23 108/25/23 100/25/23
f 106/25/24 105/25/24 98/25/24
f 104/25/17 112/25/17 106/25/17
f 110/25/18 111/25/18 103/25/18
usemtl Material.002
f 13/8/4 9/9/4 12/7/4
f 14/5/5 9/10/5 11/11/5
f 19/13/7 17/12/7 15/14/7
f 20/15/8 16/16/8 17/17/8
f 15/14/6 13/8/6 19/13/6
f 10/1/1 17/17/1 11/2/1
f 16/16/2 14/5/2 11/2/2
f 18/18/3 19/13/3 12/7/3
f 23/4/2 25/5/2 22/2/2
f 25/5/5 21/10/5 22/11/5
f 28/19/7 32/20/7 30/21/7
f 29/22/8 31/23/8 32/20/8
f 31/23/4 21/9/4 24/7/4
f 21/3/1 28/24/1 22/2/1
f 23/12/6 30/21/6 26/6/6
f 30/21/3 32/20/3 24/7/3
f 114/1/1 115/2/1 113/3/1
f 116/4/2 119/5/2 115/2/2
f 120/6/3 117/7/3 119/5/3
f 118/8/4 113/9/4 117/7/4
f 119/5/5 113/10/5 115/11/5
f 116/12/6 118/8/6 120/6/6
f 130/26/1 124/4/1 131/27/1
f 124/4/25 133/28/25 131/27/25
f 128/6/3 135/29/3 133/28/3
f 126/8/26 130/30/26 135/29/26
f 127/5/5 121/10/5 123/11/5
f 124/12/6 126/8/6 128/6/6
f 136/31/4 121/9/4 125/7/4
f 135/29/27 129/32/27 136/31/27
f 134/33/3 125/7/3 127/5/3
f 133/28/3 136/31/3 134/33/3
f 132/34/2 127/5/2 123/2/2
f 131/27/28 134/33/28 132/34/28
f 129/35/1 123/2/1 121/3/1
f 129/35/1 131/27/1 132/34/1
f 146/26/1 140/4/1 147/27/1
f 140/4/25 149/28/25 147/27/25
f 144/6/3 151/29/3 149/28/3
f 142/8/26 146/30/26 151/29/26
f 143/5/5 137/10/5 139/11/5
f 140/12/6 142/8/6 144/6/6
f 152/31/4 137/9/4 141/7/4
f 151/29/27 145/32/27 152/31/27
f 150/33/3 141/7/3 143/5/3
f 149/28/3 152/31/3 150/33/3
f 148/34/2 143/5/2 139/2/2
f 147/27/28 150/33/28 148/34/28
f 145/35/1 139/2/1 137/3/1
f 145/35/1 147/27/1 148/34/1
f 13/8/4 10/22/4 9/9/4
f 14/5/5 12/7/5 9/10/5
f 19/13/7 20/15/7 17/12/7
f 20/15/8 18/18/8 16/16/8
f 15/14/6 10/36/6 13/8/6
f 11/2/1 9/3/1 10/1/1
f 10/1/1 15/37/1 17/17/1
f 17/17/1 16/16/1 11/2/1
f 16/16/2 18/18/2 14/5/2
f 12/7/3 14/5/3 18/18/3
f 18/18/3 20/15/3 19/13/3
f 19/13/3 13/8/3 12/7/3
f 23/4/2 26/6/2 25/5/2
f 25/5/5 24/7/5 21/10/5
f 28/19/7 29/36/7 32/20/7
f 29/22/8 27/38/8 31/23/8
f 31/23/4 27/38/4 21/9/4
f 21/3/1 27/39/1 29/40/1
f 28/24/1 23/4/1 22/2/1
f 21/3/1 29/40/1 28/24/1
f 23/12/6 28/19/6 30/21/6
f 24/7/3 25/5/3 26/6/3
f 24/7/3 26/6/3 30/21/3
f 32/20/3 31/23/3 24/7/3
f 114/1/1 116/4/1 115/2/1
f 116/4/2 120/6/2 119/5/2
f 120/6/3 118/8/3 117/7/3
f 118/8/4 114/22/4 113/9/4
f 119/5/5 117/7/5 113/10/5
f 116/12/6 114/36/6 118/8/6
f 130/26/1 122/1/1 124/4/1
f 124/4/25 128/6/25 133/28/25
f 128/6/3 126/8/3 135/29/3
f 126/8/26 122/22/26 130/30/26
f 127/5/5 125/7/5 121/10/5
f 124/12/6 122/36/6 126/8/6
f 136/31/4 129/32/4 121/9/4
f 135/29/27 130/30/27 129/32/27
f 134/33/3 136/31/3 125/7/3
f 133/28/3 135/29/3 136/31/3
f 132/34/2 134/33/2 127/5/2
f 131/27/28 133/28/28 134/33/28
f 129/35/1 132/34/1 123/2/1
f 129/35/1 130/26/1 131/27/1
f 146/26/1 138/1/1 140/4/1
f 140/4/25 144/6/25 149/28/25
f 144/6/3 142/8/3 151/29/3
f 142/8/26 138/22/26 146/30/26
f 143/5/5 141/7/5 137/10/5
f 140/12/6 138/36/6 142/8/6
f 152/31/4 145/32/4 137/9/4
f 151/29/27 146/30/27 145/32/27
f 150/33/3 152/31/3 141/7/3
f 149/28/3 151/29/3 152/31/3
f 148/34/2 150/33/2 143/5/2
f 147/27/28 149/28/28 150/33/28
f 145/35/1 148/34/1 139/2/1
f 145/35/1 146/26/1 147/27/1
usemtl Material
f 39/25/5 37/25/5 35/25/5
f 45/25/6 47/25/6 41/25/6
f 40/25/9 47/25/9 39/25/9
f 38/25/10 45/25/10 37/25/10
f 36/25/11 43/25/11 35/25/11
f 34/25/12 41/25/12 33/25/12
f 33/25/13 48/25/13 40/25/13
f 39/25/14 46/25/14 38/25/14
f 37/25/15 44/25/15 36/25/15
f 35/25/16 42/25/16 34/25/16
f 35/25/5 34/25/5 33/25/5
f 33/25/5 40/25/5 39/25/5
f 39/25/5 38/25/5 37/25/5
f 37/25/5 36/25/5 35/25/5
f 35/25/5 33/25/5 39/25/5
f 41/25/6 42/25/6 43/25/6
f 43/25/6 44/25/6 45/25/6
f 45/25/6 46/25/6 47/25/6
f 47/25/6 48/25/6 41/25/6
f 41/25/6 43/25/6 45/25/6
f 40/25/9 48/25/9 47/25/9
f 38/25/10 46/25/10 45/25/10
f 36/25/11 44/25/11 43/25/11
f 34/25/12 42/25/12 41/25/12
f 33/25/13 41/25/13 48/25/13
f 39/25/14 47/25/14 46/25/14
f 37/25/15 45/25/15 44/25/15
f 35/25/16 43/25/16 42/25/16
usemtl Material.005
f 61/25/4 63/25/4 58/25/4
f 58/25/4 57/25/4 59/25/4
f 59/25/4 60/25/4 61/25/4
f 61/25/4 62/25/4 63/25/4
f 63/25/4 64/25/4 58/25/4
f 58/25/4 59/25/4 61/25/4
usemtl Material.003
f 66/25/2 56/25/2 49/25/2
f 74/25/17 72/25/17 66/25/17
f 55/25/2 70/25/2 54/25/2
f 69/25/2 52/25/2 53/25/2
f 67/25/2 50/25/2 51/25/2
f 56/25/2 71/25/2 55/25/2
f 54/25/2 69/25/2 53/25/2
f 68/25/2 51/25/2 52/25/2
f 65/25/2 49/25/2 50/25/2
f 77/25/4 79/25/4 74/25/4
f 79/25/18 70/25/18 71/25/18
f 77/25/19 68/25/19 69/25/19
f 75/25/20 65/25/20 67/25/20
f 80/25/21 71/25/21 72/25/21
f 78/25/22 69/25/22 70/25/22
f 76/25/23 67/25/23 68/25/23
f 73/25/24 66/25/24 65/25/24
f 66/25/2 72/25/2 56/25/2
f 74/25/17 80/25/17 72/25/17
f 55/25/2 71/25/2 70/25/2
f 69/25/2 68/25/2 52/25/2
f 67/25/2 65/25/2 50/25/2
f 56/25/2 72/25/2 71/25/2
f 54/25/2 70/25/2 69/25/2
f 68/25/2 67/25/2 51/25/2
f 65/25/2 66/25/2 49/25/2
f 74/25/4 73/25/4 75/25/4
f 75/25/4 76/25/4 77/25/4
f 77/25/4 78/25/4 79/25/4
f 79/25/4 80/25/4 74/25/4
f 74/25/4 75/25/4 77/25/4
f 79/25/18 78/25/18 70/25/18
f 77/25/19 76/25/19 68/25/19
f 75/25/20 73/25/20 65/25/20
f 80/25/21 79/25/21 71/25/21
f 78/25/22 77/25/22 69/25/22
f 76/25/23 75/25/23 67/25/23
f 73/25/24 74/25/24 66/25/24
usemtl Material.016
f 170/25/29 296/25/29 160/25/29
f 167/25/24 161/25/24 163/25/24
f 295/25/30 169/25/30 155/25/30
f 162/25/31 153/25/31 154/25/31
f 153/25/32 168/25/32 160/25/32
f 167/25/33 158/25/33 159/25/33
f 157/25/34 164/25/34 156/25/34
f 163/25/35 154/25/35 155/25/35
f 168/25/36 159/25/36 160/25/36
f 158/25/37 165/25/37 157/25/37
f 156/25/38 163/25/38 155/25/38
f 188/25/39 170/25/39 178/25/39
f 185/25/17 179/25/17 181/25/17
f 169/25/40 187/25/40 173/25/40
f 180/25/41 171/25/41 172/25/41
f 171/25/42 186/25/42 178/25/42
f 185/25/43 176/25/43 177/25/43
f 175/25/44 182/25/44 174/25/44
f 181/25/45 172/25/45 173/25/45
f 186/25/46 177/25/46 178/25/46
f 176/25/47 183/25/47 175/25/47
f 174/25/48 181/25/48 173/25/48
f 206/25/49 188/25/49 196/25/49
f 203/25/21 197/25/21 199/25/21
f 187/25/50 205/25/50 191/25/50
f 198/25/51 189/25/51 190/25/51
f 189/25/52 204/25/52 196/25/52
f 203/25/53 194/25/53 195/25/53
f 193/25/54 200/25/54 192/25/54
f 199/25/55 190/25/55 191/25/55
f 204/25/56 195/25/56 196/25/56
f 194/25/57 201/25/57 193/25/57
f 192/25/58 199/25/58 191/25/58
f 224/25/59 206/25/59 214/25/59
f 221/25/18 215/25/18 217/25/18
f 205/25/60 223/25/60 209/25/60
f 216/25/61 207/25/61 208/25/61
f 207/25/62 222/25/62 214/25/62
f 221/25/63 212/25/63 213/25/63
f 211/25/64 218/25/64 210/25/64
f 217/25/65 208/25/65 209/25/65
f 222/25/66 213/25/66 214/25/66
f 212/25/67 219/25/67 211/25/67
f 210/25/68 217/25/68 209/25/68
f 242/25/69 224/25/69 232/25/69
f 239/25/22 233/25/22 235/25/22
f 223/25/70 241/25/70 227/25/70
f 234/25/71 225/25/71 226/25/71
f 225/25/72 240/25/72 232/25/72
f 239/25/73 230/25/73 231/25/73
f 229/25/74 236/25/74 228/25/74
f 235/25/75 226/25/75 227/25/75
f 240/25/76 231/25/76 232/25/76
f 230/25/77 237/25/77 229/25/77
f 228/25/78 235/25/78 227/25/78
f 260/25/79 242/25/79 250/25/79
f 257/25/19 251/25/19 253/25/19
f 241/25/80 259/25/80 245/25/80
f 252/25/81 243/25/81 244/25/81
f 243/25/82 258/25/82 250/25/82
f 257/25/83 248/25/83 249/25/83
f 247/25/84 254/25/84 246/25/84
f 253/25/85 244/25/85 245/25/85
f 258/25/86 249/25/86 250/25/86
f 248/25/87 255/25/87 247/25/87
f 246/25/88 253/25/88 245/25/88
f 278/25/89 260/25/89 268/25/89
f 275/25/23 269/25/23 271/25/23
f 259/25/90 277/25/90 263/25/90
f 270/25/91 261/25/91 262/25/91
f 261/25/92 276/25/92 268/25/92
f 275/25/93 266/25/93 267/25/93
f 265/25/94 272/25/94 264/25/94
f 271/25/95 262/25/95 263/25/95
f 276/25/96 267/25/96 268/25/96
f 266/25/97 273/25/97 265/25/97
f 264/25/98 271/25/98 263/25/98
f 296/25/99 278/25/99 286/25/99
f 293/25/20 287/25/20 289/25/20
f 277/25/100 295/25/100 281/25/100
f 288/25/101 279/25/101 280/25/101
f 279/25/102 294/25/102 286/25/102
f 293/25/103 284/25/103 285/25/103
f 283/25/104 290/25/104 282/25/104
f 289/25/105 280/25/105 281/25/105
f 294/25/106 285/25/106 286/25/106
f 284/25/107 291/25/107 283/25/107
f 282/25/108 289/25/108 281/25/108
f 157/25/109 169/25/109 170/25/109
f 296/25/110 295/25/110 154/25/110
f 296/25/110 154/25/110 153/25/110
f 158/25/109 157/25/109 170/25/109
f 159/25/111 158/25/111 170/25/111
f 296/25/112 153/25/112 160/25/112
f 160/25/113 159/25/113 170/25/113
f 163/25/24 164/25/24 165/25/24
f 165/25/24 166/25/24 167/25/24
f 167/25/24 168/25/24 161/25/24
f 161/25/24 162/25/24 163/25/24
f 163/25/24 165/25/24 167/25/24
f 169/25/114 157/25/114 156/25/114
f 155/25/115 154/25/115 295/25/115
f 169/25/116 156/25/116 155/25/116
f 162/25/31 161/25/31 153/25/31
f 153/25/32 161/25/32 168/25/32
f 167/25/33 166/25/33 158/25/33
f 157/25/34 165/25/34 164/25/34
f 163/25/35 162/25/35 154/25/35
f 168/25/36 167/25/36 159/25/36
f 158/25/37 166/25/37 165/25/37
f 156/25/38 164/25/38 163/25/38
f 175/25/117 187/25/117 188/25/117
f 170/25/118 169/25/118 172/25/118
f 170/25/118 172/25/118 171/25/118
f 176/25/117 175/25/117 188/25/117
f 177/25/119 176/25/119 188/25/119
f 170/25/120 171/25/120 178/25/120
f 178/25/121 177/25/121 188/25/121
f 181/25/17 182/25/17 183/25/17
f 183/25/17 184/25/17 185/25/17
f 185/25/17 186/25/17 179/25/17
f 179/25/17 180/25/17 181/25/17
f 181/25/17 183/25/17 185/25/17
f 187/25/122 175/25/122 174/25/122
f 173/25/123 172/25/123 169/25/123
f 187/25/124 174/25/124 173/25/124
f 180/25/41 179/25/41 171/25/41
f 171/25/42 179/25/42 186/25/42
f 185/25/43 184/25/43 176/25/43
f 175/25/44 183/25/44 182/25/44
f 181/25/45 180/25/45 172/25/45
f 186/25/46 185/25/46 177/25/46
f 176/25/47 184/25/47 183/25/47
f 174/25/48 182/25/48 181/25/48
f 193/25/125 205/25/125 206/25/125
f 188/25/126 187/25/126 190/25/126
f 188/25/126 190/25/126 189/25/126
f 194/25/125 193/25/125 206/25/125
f 195/25/127 194/25/127 206/25/127
f 188/25/128 189/25/128 196/25/128
f 196/25/129 195/25/129 206/25/129
f 199/25/21 200/25/21 201/25/21
f 201/25/21 202/25/21 203/25/21
f 203/25/21 204/25/21 197/25/21
f 197/25/21 198/25/21 199/25/21
f 199/25/21 201/25/21 203/25/21
f 205/25/130 193/25/130 192/25/130
f 191/25/131 190/25/131 187/25/131
f 205/25/132 192/25/132 191/25/132
f 198/25/51 197/25/51 189/25/51
f 189/25/52 197/25/52 204/25/52
f 203/25/53 202/25/53 194/25/53
f 193/25/54 201/25/54 200/25/54
f 199/25/55 198/25/55 190/25/55
f 204/25/56 203/25/56 195/25/56
f 194/25/57 202/25/57 201/25/57
f 192/25/58 200/25/58 199/25/58
f 211/25/133 223/25/133 224/25/133
f 206/25/134 205/25/134 208/25/134
f 206/25/134 208/25/134 207/25/134
f 212/25/133 211/25/133 224/25/133
f 213/25/135 212/25/135 224/25/135
f 206/25/136 207/25/136 214/25/136
f 214/25/137 213/25/137 224/25/137
f 217/25/18 218/25/18 219/25/18
f 219/25/18 220/25/18 221/25/18
f 221/25/18 222/25/18 215/25/18
f 215/25/18 216/25/18 217/25/18
f 217/25/18 219/25/18 221/25/18
f 223/25/138 211/25/138 210/25/138
f 209/25/139 208/25/139 205/25/139
f 223/25/140 210/25/140 209/25/140
f 216/25/61 215/25/61 207/25/61
f 207/25/62 215/25/62 222/25/62
f 221/25/63 220/25/63 212/25/63
f 211/25/64 219/25/64 218/25/64
f 217/25/65 216/25/65 208/25/65
f 222/25/66 221/25/66 213/25/66
f 212/25/67 220/25/67 219/25/67
f 210/25/68 218/25/68 217/25/68
f 229/25/141 241/25/141 242/25/141
f 224/25/142 223/25/142 226/25/142
f 224/25/142 226/25/142 225/25/142
f 230/25/141 229/25/141 242/25/141
f 231/25/143 230/25/143 242/25/143
f 224/25/144 225/25/144 232/25/144
f 232/25/145 231/25/145 242/25/145
f 235/25/22 236/25/22 237/25/22
f 237/25/22 238/25/22 239/25/22
f 239/25/22 240/25/22 233/25/22
f 233/25/22 234/25/22 235/25/22
f 235/25/22 237/25/22 239/25/22
f 241/25/146 229/25/146 228/25/146
f 227/25/147 226/25/147 223/25/147
f 241/25/148 228/25/148 227/25/148
f 234/25/71 233/25/71 225/25/71
f 225/25/72 233/25/72 240/25/72
f 239/25/73 238/25/73 230/25/73
f 229/25/74 237/25/74 236/25/74
f 235/25/75 234/25/75 226/25/75
f 240/25/76 239/25/76 231/25/76
f 230/25/77 238/25/77 237/25/77
f 228/25/78 236/25/78 235/25/78
f 247/25/149 259/25/149 260/25/149
f 242/25/150 241/25/150 244/25/150
f 242/25/150 244/25/150 243/25/150
f 248/25/149 247/25/149 260/25/149
f 249/25/151 248/25/151 260/25/151
f 242/25/152 243/25/152 250/25/152
f 250/25/153 249/25/153 260/25/153
f 253/25/19 254/25/19 255/25/19
f 255/25/19 256/25/19 257/25/19
f 257/25/19 258/25/19 251/25/19
f 251/25/19 252/25/19 253/25/19
f 253/25/19 255/25/19 257/25/19
f 259/25/154 247/25/154 246/25/154
f 245/25/155 244/25/155 241/25/155
f 259/25/156 246/25/156 245/25/156
f 252/25/81 251/25/81 243/25/81
f 243/25/82 251/25/82 258/25/82
f 257/25/83 256/25/83 248/25/83
f 247/25/157 255/25/157 254/25/157
f 253/25/85 252/25/85 244/25/85
f 258/25/86 257/25/86 249/25/86
f 248/25/87 256/25/87 255/25/87
f 246/25/88 254/25/88 253/25/88
f 265/25/158 277/25/158 278/25/158
f 260/25/159 259/25/159 262/25/159
f 260/25/159 262/25/159 261/25/159
f 266/25/158 265/25/158 278/25/158
f 267/25/160 266/25/160 278/25/160
f 260/25/161 261/25/161 268/25/161
f 268/25/162 267/25/162 278/25/162
f 271/25/23 272/25/23 273/25/23
f 273/25/23 274/25/23 275/25/23
f 275/25/23 276/25/23 269/25/23
f 269/25/23 270/25/23 271/25/23
f 271/25/23 273/25/23 275/25/23
f 277/25/163 265/25/163 264/25/163
f 263/25/164 262/25/164 259/25/164
f 277/25/165 264/25/165 263/25/165
f 270/25/91 269/25/91 261/25/91
f 261/25/92 269/25/92 276/25/92
f 275/25/93 274/25/93 266/25/93
f 265/25/94 273/25/94 272/25/94
f 271/25/95 270/25/95 262/25/95
f 276/25/96 275/25/96 267/25/96
f 266/25/97 274/25/97 273/25/97
f 264/25/98 272/25/98 271/25/98
f 283/25/166 295/25/166 296/25/166
f 278/25/167 277/25/167 280/25/167
f 278/25/167 280/25/167 279/25/167
f 284/25/166 283/25/166 296/25/166
f 285/25/168 284/25/168 296/25/168
f 278/25/169 279/25/169 286/25/169
f 286/25/170 285/25/170 296/25/170
f 289/25/20 290/25/20 291/25/20
f 291/25/20 292/25/20 293/25/20
f 293/25/20 294/25/20 287/25/20
f 287/25/20 288/25/20 289/25/20
f 289/25/20 291/25/20 293/25/20
f 295/25/171 283/25/171 282/25/171
f 281/25/172 280/25/172 277/25/172
f 295/25/173 282/25/173 281/25/173
f 288/25/101 287/25/101 279/25/101
f 279/25/102 287/25/102 294/25/102
f 293/25/103 292/25/103 284/25/103
f 283/25/104 291/25/104 290/25/104
f 289/25/174 288/25/174 280/25/174
f 294/25/106 293/25/106 285/25/106
f 284/25/107 292/25/107 291/25/107
f 282/25/108 290/25/108 289/25/108
usemtl Material.001
f 301/8/4 297/9/4 300/7/4
f 302/5/5 297/10/5 299/11/5
f 307/13/7 305/12/7 303/14/7
f 308/15/8 304/16/8 305/17/8
f 303/14/6 301/8/6 307/13/6
f 298/1/1 305/17/1 299/2/1
f 304/16/2 302/5/2 299/2/2
f 306/18/3 307/13/3 300/7/3
f 311/4/2 313/5/2 310/2/2
f 313/5/5 309/10/5 310/11/5
f 316/19/7 320/20/7 318/21/7
f 317/22/8 319/23/8 320/20/8
f 319/23/4 309/9/4 312/7/4
f 309/3/1 316/24/1 310/2/1
f 311/12/6 318/21/6 314/6/6
f 318/21/3 320/20/3 312/7/3
f 301/8/4 298/22/4 297/9/4
f 302/5/5 300/7/5 297/10/5
f 307/13/7 308/15/7 305/12/7
f 308/15/8 306/18/8 304/16/8
f 303/14/6 298/36/6 301/8/6
f 299/2/1 297/3/1 298/1/1
f 298/1/1 303/37/1 305/17/1
f 305/17/1 304/16/1 299/2/1
f 304/16/2 306/18/2 302/5/2
f 300/7/3 302/5/3 306/18/3
f 306/18/3 308/15/3 307/13/3
f 307/13/3 301/8/3 300/7/3
f 311/4/2 314/6/2 313/5/2
f 313/5/5 312/7/5 309/10/5
f 316/19/7 317/36/7 320/20/7
f 317/22/8 315/38/8 319/23/8
f 319/23/4 315/38/4 309/9/4
f 309/3/1 315/39/1 317/40/1
f 316/24/1 311/4/1 310/2/1
f 309/3/1 317/40/1 316/24/1
f 311/12/6 316/19/6 318/21/6
f 312/7/3 313/5/3 314/6/3
f 312/7/3 314/6/3 318/21/3
f 320/20/3 319/23/3 312/7/3
