# Blender 4.5.3 LTS
# www.blender.org
mtllib turret3_base.mtl
o Cylinder
v 0.322271 -0.227830 0.154169
v 0.200240 -0.107654 0.835723
v 0.302078 -0.277197 0.159258
v 0.180048 -0.157021 0.840812
v 0.253329 -0.298883 0.154354
v 0.131299 -0.178707 0.835907
v 0.204580 -0.280183 0.142328
v 0.082550 -0.160007 0.823882
v 0.184387 -0.232052 0.130226
v 0.062357 -0.111876 0.811779
v 0.204580 -0.182685 0.125136
v 0.082550 -0.062508 0.806690
v 0.253329 -0.160999 0.130041
v 0.131299 -0.040823 0.811595
v 0.302078 -0.179699 0.142067
v 0.180048 -0.059523 0.823620
v 0.635364 0.266855 -0.001847
v 0.274263 0.634314 -0.001847
v -0.240906 0.638810 -0.001847
v -0.608364 0.277709 -0.001847
v -0.612860 -0.237460 -0.001847
v -0.251760 -0.604918 -0.001847
v 0.263409 -0.609414 -0.001847
v 0.630868 -0.248314 -0.001847
v 0.635364 0.266855 0.207798
v 0.274263 0.634314 0.207798
v -0.240906 0.638810 0.207798
v -0.608364 0.277709 0.207798
v -0.612860 -0.237460 0.207798
v -0.251760 -0.604918 0.207798
v 0.263409 -0.609414 0.207798
v 0.630868 -0.248314 0.207798
v -0.190686 0.216636 0.873217
v -0.190686 -0.187240 0.873217
v 0.213190 0.216636 0.873217
v 0.213190 -0.187240 0.873217
v 0.213190 0.216636 0.790044
v -0.190686 0.216636 0.790044
v -0.190686 -0.187240 0.790044
v 0.213190 -0.187240 0.790044
v 0.249875 -0.133072 0.133711
v 0.270925 -0.112021 0.163481
v 0.228824 -0.112021 0.163481
v 0.270925 -0.112021 0.224575
v 0.249875 -0.133072 0.254345
v 0.228824 -0.112021 0.224575
v 0.167159 -0.215787 0.133711
v 0.146108 -0.194737 0.163481
v 0.146108 -0.236838 0.163481
v 0.167159 -0.215787 0.254345
v 0.146108 -0.236838 0.224575
v 0.146108 -0.194737 0.224575
v 0.332590 -0.215787 0.133711
v 0.353641 -0.236838 0.163481
v 0.353641 -0.194737 0.163481
v 0.332590 -0.215787 0.254345
v 0.353641 -0.194737 0.224575
v 0.353641 -0.236838 0.224575
v 0.249875 -0.298503 0.133711
v 0.228824 -0.319554 0.163481
v 0.270925 -0.319554 0.163481
v 0.249875 -0.298503 0.254345
v 0.270925 -0.319554 0.224575
v 0.228824 -0.319554 0.224575
v 0.322271 0.257873 0.154169
v 0.200240 0.137697 0.835723
v 0.302078 0.307240 0.159258
v 0.180048 0.187064 0.840812
v 0.253329 0.328925 0.154354
v 0.131299 0.208749 0.835907
v 0.204580 0.310226 0.142328
v 0.082550 0.190049 0.823882
v 0.184387 0.262095 0.130226
v 0.062357 0.141918 0.811779
v 0.204580 0.212727 0.125136
v 0.082550 0.092551 0.806690
v 0.253329 0.191042 0.130041
v 0.131299 0.070866 0.811595
v 0.302078 0.209742 0.142067
v 0.180048 0.089566 0.823620
v 0.332590 0.245830 0.133711
v 0.353641 0.224779 0.163481
v 0.353641 0.266881 0.163481
v 0.353641 0.224779 0.224575
v 0.332590 0.245830 0.254345
v 0.353641 0.266881 0.224575
v 0.249875 0.328546 0.133711
v 0.270925 0.349596 0.163481
v 0.228824 0.349596 0.163481
v 0.249875 0.328546 0.254345
v 0.228824 0.349596 0.224575
v 0.270925 0.349596 0.224575
v 0.249875 0.163114 0.133711
v 0.228824 0.142064 0.163481
v 0.270925 0.142064 0.163481
v 0.249875 0.163114 0.254345
v 0.270925 0.142064 0.224575
v 0.228824 0.142064 0.224575
v 0.167159 0.245830 0.133711
v 0.146108 0.266881 0.163481
v 0.146108 0.224779 0.163481
v 0.167159 0.245830 0.254345
v 0.146108 0.224779 0.224575
v 0.146108 0.266881 0.224575
v -0.303879 0.257873 0.154169
v -0.181849 0.137697 0.835723
v -0.283687 0.307240 0.159259
v -0.161656 0.187064 0.840812
v -0.234938 0.328925 0.154354
v -0.112907 0.208749 0.835907
v -0.186188 0.310226 0.142328
v -0.064158 0.190049 0.823882
v -0.165996 0.262095 0.130226
v -0.043966 0.141918 0.811779
v -0.186188 0.212727 0.125137
v -0.064158 0.092551 0.806690
v -0.234938 0.191042 0.130041
v -0.112907 0.070866 0.811595
v -0.283687 0.209742 0.142067
v -0.161656 0.089566 0.823620
v -0.303879 -0.227830 0.154169
v -0.181849 -0.107654 0.835723
v -0.283687 -0.277198 0.159258
v -0.161656 -0.157021 0.840812
v -0.234938 -0.298883 0.154354
v -0.112907 -0.178707 0.835907
v -0.186188 -0.280183 0.142328
v -0.064158 -0.160007 0.823882
v -0.165996 -0.232052 0.130226
v -0.043966 -0.111876 0.811779
v -0.186188 -0.182685 0.125137
v -0.064158 -0.062509 0.806690
v -0.234938 -0.160999 0.130041
v -0.112907 -0.040823 0.811595
v -0.283687 -0.179699 0.142067
v -0.161656 -0.059523 0.823620
v -0.231483 0.328546 0.133711
v -0.210432 0.349596 0.163481
v -0.252534 0.349596 0.163481
v -0.210432 0.349596 0.224575
v -0.231483 0.328546 0.254345
v -0.252534 0.349596 0.224575
v -0.314199 0.245830 0.133711
v -0.335249 0.266881 0.163481
v -0.335249 0.224779 0.163482
v -0.314199 0.245830 0.254345
v -0.335249 0.224779 0.224575
v -0.335249 0.266881 0.224575
v -0.148767 0.245830 0.133711
v -0.127717 0.224779 0.163482
v -0.127717 0.266881 0.163481
v -0.148767 0.245830 0.254345
v -0.127717 0.266881 0.224575
v -0.127717 0.224779 0.224575
v -0.231483 0.163114 0.133711
v -0.252534 0.142064 0.163481
v -0.210432 0.142064 0.163481
v -0.231483 0.163114 0.254345
v -0.210432 0.142064 0.224575
v -0.252534 0.142064 0.224575
v -0.148767 -0.215787 0.133711
v -0.127717 -0.236838 0.163481
v -0.127717 -0.194737 0.163482
v -0.127717 -0.236838 0.224575
v -0.148767 -0.215787 0.254345
v -0.127717 -0.194737 0.224575
v -0.231483 -0.133072 0.133711
v -0.210432 -0.112021 0.163482
v -0.252534 -0.112021 0.163481
v -0.231483 -0.133072 0.254345
v -0.252534 -0.112021 0.224575
v -0.210432 -0.112021 0.224575
v -0.231483 -0.298503 0.133711
v -0.252534 -0.319554 0.163481
v -0.210432 -0.319554 0.163482
v -0.231483 -0.298503 0.254345
v -0.210432 -0.319554 0.224575
v -0.252534 -0.319554 0.224575
v -0.314199 -0.215787 0.133711
v -0.335249 -0.194737 0.163482
v -0.335249 -0.236838 0.163482
v -0.314199 -0.215787 0.254345
v -0.335249 -0.236838 0.224575
v -0.335249 -0.194737 0.224575
v 0.097330 -0.071380 0.994950
v 0.132984 -0.107035 0.873217
v 0.011252 -0.107035 0.994950
v 0.011252 -0.157458 0.873217
v -0.074826 -0.071380 0.994950
v -0.110481 -0.107035 0.873217
v -0.110481 0.014698 0.994950
v -0.160904 0.014698 0.873217
v -0.074826 0.100775 0.994950
v -0.110481 0.136430 0.873217
v 0.011252 0.136430 0.994950
v 0.011252 0.186853 0.873217
v 0.097330 0.100775 0.994950
v 0.132984 0.136430 0.873217
v 0.011252 0.014698 1.045373
v 0.132984 0.014698 0.994950
v 0.183407 0.014698 0.873217
vn 0.9098 -0.3490 0.2244
vn 0.3769 -0.8983 0.2259
vn -0.3769 -0.9214 0.0950
vn -0.9098 -0.4047 -0.0915
vn -0.9098 0.3490 -0.2244
vn -0.3769 0.8983 -0.2259
vn -0.1736 0.1710 0.9698
vn 0.3769 0.9214 -0.0950
vn 0.9098 0.4047 0.0915
vn 0.1736 -0.1710 -0.9698
vn -0.0000 -0.0000 -1.0000
vn -0.0000 -0.0000 1.0000
vn 0.7009 -0.7133 -0.0000
vn -0.7133 -0.7009 -0.0000
vn -0.7009 0.7133 -0.0000
vn 0.7133 0.7009 -0.0000
vn 1.0000 -0.0087 -0.0000
vn -0.0087 -1.0000 -0.0000
vn -1.0000 0.0087 -0.0000
vn 0.0087 1.0000 -0.0000
vn 1.0000 -0.0000 -0.0000
vn -1.0000 -0.0000 -0.0000
vn -0.0000 -1.0000 -0.0000
vn -0.0000 1.0000 -0.0000
vn -0.0000 0.8165 -0.5774
vn -0.0000 0.8165 0.5774
vn -0.8165 -0.0000 -0.5774
vn -0.8165 -0.0000 0.5774
vn 0.8165 -0.0000 -0.5774
vn 0.8165 -0.0000 0.5773
vn -0.0000 -0.8165 -0.5774
vn -0.0000 -0.8165 0.5773
vn -0.5000 0.5000 -0.7071
vn -0.5000 0.5000 0.7071
vn -0.5000 -0.5000 -0.7071
vn -0.5000 -0.5000 0.7071
vn 0.5000 -0.5000 -0.7071
vn 0.5000 -0.5000 0.7071
vn 0.5000 0.5000 -0.7071
vn 0.5000 0.5000 0.7071
vn -0.7071 0.7071 -0.0000
vn 0.7071 0.7071 -0.0000
vn -0.7071 -0.7071 -0.0000
vn 0.7071 -0.7071 -0.0000
vn 0.9098 0.3490 0.2244
vn 0.3769 0.8983 0.2259
vn -0.3769 0.9214 0.0950
vn -0.9098 0.4047 -0.0915
vn -0.9098 -0.3490 -0.2244
vn -0.3769 -0.8983 -0.2259
vn -0.1736 -0.1710 0.9698
vn 0.3769 -0.9214 -0.0950
vn 0.9098 -0.4047 0.0915
vn 0.1736 0.1710 -0.9698
vn 0.8165 -0.0000 0.5774
vn -0.0000 0.8165 -0.5773
vn -0.8165 -0.0000 0.5773
vn -0.9098 0.3490 0.2244
vn -0.3769 0.8983 0.2259
vn 0.3769 0.9214 0.0950
vn 0.9098 0.4047 -0.0915
vn 0.9098 -0.3490 -0.2244
vn 0.3769 -0.8983 -0.2259
vn 0.1736 -0.1710 0.9698
vn -0.3769 -0.9214 -0.0950
vn -0.9098 -0.4047 0.0915
vn -0.1736 0.1710 -0.9698
vn -0.9098 -0.3490 0.2244
vn -0.3769 -0.8983 0.2259
vn 0.3769 -0.9214 0.0950
vn 0.9098 -0.4047 -0.0915
vn 0.9098 0.3490 -0.2244
vn 0.3769 0.8983 -0.2259
vn 0.1736 0.1710 0.9698
vn -0.3769 0.9214 -0.0950
vn -0.9098 0.4047 0.0915
vn -0.1736 -0.1710 -0.9698
vn -0.0000 0.8165 0.5773
vn -0.0000 -0.8165 -0.5773
vn -0.0000 -0.8165 0.5774
vn -0.8165 -0.0000 -0.5773
vn 0.8629 -0.3574 0.3574
vn 0.3780 -0.1566 0.9125
vn 0.3574 -0.8629 0.3574
vn 0.1566 -0.3780 0.9125
vn -0.3574 -0.8629 0.3574
vn -0.1566 -0.3780 0.9125
vn -0.8629 -0.3574 0.3574
vn -0.3780 -0.1566 0.9125
vn -0.8629 0.3574 0.3574
vn -0.3780 0.1566 0.9125
vn -0.1566 0.3780 0.9125
vn -0.3574 0.8629 0.3574
vn 0.1566 0.3780 0.9125
vn 0.3574 0.8629 0.3574
vn 0.3780 0.1566 0.9125
vn 0.8629 0.3574 0.3574
vn -0.1737 0.1710 0.9698
vt 1.000000 0.500000
vt 0.875000 1.000000
vt 0.875000 0.500000
vt 0.750000 0.500000
vt 0.750000 1.000000
vt 0.625000 0.500000
vt 0.625000 1.000000
vt 0.500000 0.500000
vt 0.500000 1.000000
vt 0.375000 0.500000
vt 0.250000 1.000000
vt 0.250000 0.500000
vt 0.010000 0.250000
vt 0.250000 0.010000
vt 0.490000 0.250000
vt 0.125000 1.000000
vt 0.125000 0.500000
vt 0.000000 1.000000
vt 0.000000 0.500000
vt 0.919706 0.080294
vt 0.580294 0.080294
vt 0.580294 0.419706
vt 0.000000 0.000000
vt 1.000000 1.000000
vt 1.000000 0.000000
vt 0.167163 0.707837
vt 0.125000 0.707837
vt 0.167163 0.750000
vt 0.582837 0.000000
vt 0.582837 0.042163
vt 0.625000 0.042163
vt 0.167163 0.542163
vt 0.167163 0.500000
vt 0.125000 0.542163
vt 0.625000 0.246952
vt 0.582837 0.207837
vt 0.582837 0.290831
vt 0.332837 0.707837
vt 0.397410 0.782286
vt 0.415831 0.707837
vt 0.657287 0.727590
vt 0.582837 0.709169
vt 0.582837 0.792163
vt 0.332837 0.542163
vt 0.415831 0.542163
vt 0.397410 0.467713
vt 0.657287 0.522410
vt 0.582837 0.457837
vt 0.582837 0.540831
vt 0.417163 0.042163
vt 0.417163 0.000000
vt 0.417163 0.207837
vt 0.417163 0.292163
vt 0.625000 0.957837
vt 0.417163 0.957837
vt 0.832837 0.542163
vt 0.375000 1.000000
vt 0.250000 0.490000
vt 0.919706 0.419706
vt 0.582837 0.957837
vt 0.832837 0.707837
vt 0.625000 0.750000
vt 0.750000 0.750000
vt 0.687500 1.000000
vt 0.500000 0.750000
vt 0.562500 1.000000
vt 0.375000 0.750000
vt 0.437500 1.000000
vt 0.312500 1.000000
vt 0.250000 0.750000
vt 0.187500 1.000000
vt 0.125000 0.750000
vt 0.062500 1.000000
vt 0.000000 0.750000
vt 1.000000 0.750000
vt 0.937500 1.000000
vt 0.875000 0.750000
vt 0.812500 1.000000
vt 0.419706 0.419706
vt 0.080294 0.419706
vt 0.080294 0.080294
vt 0.419706 0.080294
vt 0.750000 0.490000
vt 0.990000 0.250000
vt 0.750000 0.010000
vt 0.510000 0.250000
s 0
usemtl Material.004
f 1/1/1 4/2/1 3/3/1
f 4/2/2 5/4/2 3/3/2
f 6/5/3 7/6/3 5/4/3
f 8/7/4 9/8/4 7/6/4
f 10/9/5 11/10/5 9/8/5
f 11/10/6 14/11/6 13/12/6
f 14/13/7 10/14/7 6/15/7
f 13/12/8 16/16/8 15/17/8
f 15/17/9 2/18/9 1/19/9
f 7/20/10 11/21/10 15/22/10
f 41/26/25 43/27/25 42/28/25
f 44/29/26 46/30/26 45/31/26
f 47/32/27 49/33/27 48/34/27
f 50/35/28 52/36/28 51/37/28
f 53/38/29 55/39/29 54/40/29
f 56/41/30 58/42/30 57/43/30
f 59/44/31 61/45/31 60/46/31
f 62/47/32 64/48/32 63/49/32
f 48/34/33 41/26/33 47/32/33
f 43/50/24 44/29/24 42/51/24
f 46/30/34 50/35/34 45/31/34
f 51/37/22 48/52/22 49/53/22
f 59/44/35 49/33/35 47/32/35
f 51/37/36 62/47/36 50/35/36
f 64/48/23 61/45/23 63/49/23
f 54/40/37 59/44/37 53/38/37
f 63/49/38 56/41/38 62/47/38
f 57/43/21 54/40/21 55/39/21
f 42/28/39 53/38/39 41/26/39
f 57/43/40 45/54/40 56/41/40
f 41/26/11 59/44/11 47/32/11
f 48/52/41 46/30/41 43/50/41
f 42/55/42 57/43/42 55/39/42
f 56/41/12 50/56/12 62/47/12
f 60/46/43 51/37/43 49/53/43
f 54/40/44 63/49/44 61/45/44
f 65/1/45 68/2/45 66/24/45
f 69/4/46 68/2/46 67/3/46
f 71/6/47 70/5/47 69/4/47
f 73/8/48 72/7/48 71/6/48
f 75/10/49 74/9/49 73/8/49
f 75/10/50 78/11/50 76/57/50
f 74/14/51 78/13/51 66/58/51
f 77/12/52 80/16/52 78/11/52
f 79/17/53 66/18/53 80/16/53
f 75/21/54 71/20/54 67/59/54
f 81/26/29 83/27/29 82/28/29
f 84/29/55 86/30/55 85/31/55
f 87/32/56 89/33/56 88/34/56
f 90/35/26 92/36/26 91/37/26
f 93/38/31 95/39/31 94/40/31
f 96/41/32 98/42/32 97/43/32
f 99/44/27 101/45/27 100/46/27
f 102/47/57 104/48/57 103/49/57
f 87/32/39 83/27/39 81/26/39
f 82/51/21 86/30/21 84/29/21
f 86/30/40 90/35/40 85/31/40
f 92/36/24 89/53/24 91/37/24
f 100/46/33 87/32/33 99/44/33
f 90/35/34 104/48/34 102/47/34
f 104/48/22 101/45/22 103/49/22
f 93/38/35 101/45/35 99/44/35
f 103/49/36 96/41/36 102/47/36
f 97/43/23 94/40/23 95/39/23
f 82/28/37 93/38/37 81/26/37
f 96/41/38 84/60/38 85/54/38
f 81/26/11 99/44/11 87/32/11
f 88/52/42 86/30/42 83/50/42
f 95/39/44 84/60/44 97/43/44
f 96/41/12 90/56/12 102/47/12
f 89/53/41 104/48/41 91/37/41
f 101/45/43 98/42/43 103/49/43
f 105/1/58 108/2/58 107/3/58
f 108/2/59 109/4/59 107/3/59
f 110/5/60 111/6/60 109/4/60
f 112/7/61 113/8/61 111/6/61
f 114/9/62 115/10/62 113/8/62
f 115/10/63 118/11/63 117/12/63
f 118/13/64 114/14/64 110/15/64
f 117/12/65 120/16/65 119/17/65
f 119/17/66 106/18/66 105/19/66
f 111/20/67 115/21/67 119/22/67
f 121/1/68 124/2/68 122/24/68
f 125/4/69 124/2/69 123/3/69
f 127/6/70 126/5/70 125/4/70
f 129/8/71 128/7/71 127/6/71
f 131/10/72 130/9/72 129/8/72
f 131/10/73 134/11/73 132/57/73
f 130/14/74 134/13/74 122/58/74
f 133/12/75 136/16/75 134/11/75
f 135/17/76 122/18/76 136/16/76
f 131/21/77 127/20/77 123/59/77
f 137/26/25 139/27/25 138/28/25
f 140/29/78 142/30/78 141/31/78
f 143/32/27 145/33/27 144/34/27
f 146/35/28 148/36/28 147/37/28
f 149/38/29 151/39/29 150/40/29
f 152/41/55 154/42/55 153/43/55
f 155/44/31 157/45/31 156/46/31
f 158/47/32 160/48/32 159/49/32
f 144/34/33 137/26/33 143/32/33
f 139/50/24 140/29/24 138/51/24
f 142/30/34 146/35/34 141/31/34
f 148/36/22 145/53/22 147/37/22
f 155/44/35 145/33/35 143/32/35
f 147/37/36 158/47/36 146/35/36
f 159/49/23 156/46/23 157/45/23
f 149/38/37 157/45/37 155/44/37
f 159/49/38 152/41/38 158/47/38
f 153/43/21 150/40/21 151/39/21
f 138/28/39 149/38/39 137/26/39
f 152/41/40 140/60/40 141/54/40
f 143/32/11 149/38/11 155/44/11
f 144/52/41 142/30/41 139/50/41
f 138/55/42 153/43/42 151/39/42
f 152/41/12 146/56/12 158/47/12
f 156/46/43 147/37/43 145/53/43
f 150/40/44 159/49/44 157/45/44
f 161/26/29 163/27/29 162/28/29
f 164/29/55 166/30/55 165/31/55
f 167/32/25 169/33/25 168/34/25
f 170/35/26 172/36/26 171/37/26
f 173/38/79 175/39/79 174/40/79
f 176/41/80 178/42/80 177/43/80
f 179/44/81 181/45/81 180/46/81
f 182/47/28 184/48/28 183/49/28
f 168/34/39 161/26/39 167/32/39
f 162/51/21 166/30/21 164/29/21
f 165/31/40 172/36/40 170/35/40
f 171/37/24 168/52/24 169/53/24
f 180/46/33 167/32/33 179/44/33
f 171/37/34 182/47/34 170/35/34
f 184/48/22 181/45/22 183/49/22
f 173/38/35 181/45/35 179/44/35
f 183/49/36 176/41/36 182/47/36
f 177/43/23 174/40/23 175/39/23
f 161/26/37 175/39/37 173/38/37
f 177/43/38 165/54/38 176/41/38
f 167/32/11 173/38/11 179/44/11
f 168/52/42 166/30/42 163/50/42
f 175/39/44 164/60/44 177/43/44
f 182/47/12 165/61/12 170/56/12
f 180/46/41 171/37/41 169/53/41
f 181/45/43 178/42/43 183/49/43
f 1/1/1 2/24/1 4/2/1
f 4/2/2 6/5/2 5/4/2
f 6/5/3 8/7/3 7/6/3
f 8/7/4 10/9/4 9/8/4
f 10/9/5 12/57/5 11/10/5
f 11/10/6 12/57/6 14/11/6
f 6/15/98 4/79/98 2/58/98
f 2/58/7 16/80/7 14/13/7
f 14/13/7 12/81/7 10/14/7
f 10/14/7 8/82/7 6/15/7
f 6/15/7 2/58/7 14/13/7
f 13/12/8 14/11/8 16/16/8
f 15/17/9 16/16/9 2/18/9
f 15/22/10 1/83/10 3/59/10
f 3/59/10 5/84/10 7/20/10
f 7/20/10 9/85/10 11/21/10
f 11/21/10 13/86/10 15/22/10
f 15/22/10 3/59/10 7/20/10
f 48/34/33 43/27/33 41/26/33
f 43/50/24 46/30/24 44/29/24
f 46/30/34 52/36/34 50/35/34
f 51/37/22 52/36/22 48/52/22
f 59/44/35 60/46/35 49/33/35
f 51/37/36 64/48/36 62/47/36
f 64/48/23 60/46/23 61/45/23
f 54/40/37 61/45/37 59/44/37
f 63/49/38 58/42/38 56/41/38
f 57/43/21 58/42/21 54/40/21
f 42/28/39 55/39/39 53/38/39
f 57/43/40 44/60/40 45/54/40
f 41/26/11 53/38/11 59/44/11
f 48/52/41 52/36/41 46/30/41
f 42/55/42 44/60/42 57/43/42
f 56/41/12 45/61/12 50/56/12
f 60/46/43 64/48/43 51/37/43
f 54/40/44 58/42/44 63/49/44
f 65/1/45 67/3/45 68/2/45
f 69/4/46 70/5/46 68/2/46
f 71/6/47 72/7/47 70/5/47
f 73/8/48 74/9/48 72/7/48
f 75/10/49 76/57/49 74/9/49
f 75/10/50 77/12/50 78/11/50
f 66/58/51 68/79/51 70/15/51
f 70/15/51 72/82/51 74/14/51
f 74/14/51 76/81/51 78/13/51
f 78/13/51 80/80/51 66/58/51
f 66/58/51 70/15/51 74/14/51
f 77/12/52 79/17/52 80/16/52
f 79/17/53 65/19/53 66/18/53
f 67/59/54 65/83/54 79/22/54
f 79/22/54 77/86/54 75/21/54
f 75/21/54 73/85/54 71/20/54
f 71/20/54 69/84/54 67/59/54
f 67/59/54 79/22/54 75/21/54
f 87/32/39 88/34/39 83/27/39
f 82/51/21 83/50/21 86/30/21
f 86/30/40 92/36/40 90/35/40
f 92/36/24 88/52/24 89/53/24
f 100/46/33 89/33/33 87/32/33
f 90/35/34 91/37/34 104/48/34
f 104/48/22 100/46/22 101/45/22
f 93/38/35 94/40/35 101/45/35
f 103/49/36 98/42/36 96/41/36
f 97/43/23 98/42/23 94/40/23
f 82/28/37 95/39/37 93/38/37
f 96/41/38 97/43/38 84/60/38
f 81/26/11 93/38/11 99/44/11
f 88/52/42 92/36/42 86/30/42
f 95/39/44 82/55/44 84/60/44
f 96/41/12 85/61/12 90/56/12
f 89/53/41 100/46/41 104/48/41
f 101/45/43 94/40/43 98/42/43
f 105/1/58 106/24/58 108/2/58
f 108/2/59 110/5/59 109/4/59
f 110/5/60 112/7/60 111/6/60
f 112/7/61 114/9/61 113/8/61
f 114/9/62 116/57/62 115/10/62
f 115/10/63 116/57/63 118/11/63
f 110/15/64 108/79/64 106/58/64
f 106/58/64 120/80/64 118/13/64
f 118/13/64 116/81/64 114/14/64
f 114/14/64 112/82/64 110/15/64
f 110/15/64 106/58/64 118/13/64
f 117/12/65 118/11/65 120/16/65
f 119/17/66 120/16/66 106/18/66
f 119/22/67 105/83/67 107/59/67
f 107/59/67 109/84/67 111/20/67
f 111/20/67 113/85/67 115/21/67
f 115/21/67 117/86/67 119/22/67
f 119/22/67 107/59/67 111/20/67
f 121/1/68 123/3/68 124/2/68
f 125/4/69 126/5/69 124/2/69
f 127/6/70 128/7/70 126/5/70
f 129/8/71 130/9/71 128/7/71
f 131/10/72 132/57/72 130/9/72
f 131/10/73 133/12/73 134/11/73
f 122/58/74 124/79/74 126/15/74
f 126/15/74 128/82/74 130/14/74
f 130/14/74 132/81/74 134/13/74
f 134/13/74 136/80/74 122/58/74
f 122/58/74 126/15/74 130/14/74
f 133/12/75 135/17/75 136/16/75
f 135/17/76 121/19/76 122/18/76
f 123/59/77 121/83/77 135/22/77
f 135/22/77 133/86/77 131/21/77
f 131/21/77 129/85/77 127/20/77
f 127/20/77 125/84/77 123/59/77
f 123/59/77 135/22/77 131/21/77
f 144/34/33 139/27/33 137/26/33
f 139/50/24 142/30/24 140/29/24
f 142/30/34 148/36/34 146/35/34
f 148/36/22 144/52/22 145/53/22
f 155/44/35 156/46/35 145/33/35
f 147/37/36 160/48/36 158/47/36
f 159/49/23 160/48/23 156/46/23
f 149/38/37 150/40/37 157/45/37
f 159/49/38 154/42/38 152/41/38
f 153/43/21 154/42/21 150/40/21
f 138/28/39 151/39/39 149/38/39
f 152/41/40 153/43/40 140/60/40
f 143/32/11 137/26/11 149/38/11
f 144/52/41 148/36/41 142/30/41
f 138/55/42 140/60/42 153/43/42
f 152/41/12 141/61/12 146/56/12
f 156/46/43 160/48/43 147/37/43
f 150/40/44 154/42/44 159/49/44
f 168/34/39 163/27/39 161/26/39
f 162/51/21 163/50/21 166/30/21
f 165/31/40 166/30/40 172/36/40
f 171/37/24 172/36/24 168/52/24
f 180/46/33 169/33/33 167/32/33
f 171/37/34 184/48/34 182/47/34
f 184/48/22 180/46/22 181/45/22
f 173/38/35 174/40/35 181/45/35
f 183/49/36 178/42/36 176/41/36
f 177/43/23 178/42/23 174/40/23
f 161/26/37 162/28/37 175/39/37
f 177/43/38 164/60/38 165/54/38
f 167/32/11 161/26/11 173/38/11
f 168/52/42 172/36/42 166/30/42
f 175/39/44 162/55/44 164/60/44
f 182/47/12 176/41/12 165/61/12
f 180/46/41 184/48/41 171/37/41
f 181/45/43 174/40/43 178/42/43
usemtl Material.007
f 23/23/11 21/23/11 19/23/11
f 29/23/12 31/23/12 25/23/12
f 23/23/13 32/23/13 31/23/13
f 22/23/14 29/23/14 21/23/14
f 20/23/15 27/23/15 19/23/15
f 18/23/16 25/23/16 17/23/16
f 17/23/17 32/23/17 24/23/17
f 23/23/18 30/23/18 22/23/18
f 21/23/19 28/23/19 20/23/19
f 19/23/20 26/23/20 18/23/20
f 19/23/11 18/23/11 17/23/11
f 17/23/11 24/23/11 23/23/11
f 23/23/11 22/23/11 21/23/11
f 21/23/11 20/23/11 19/23/11
f 19/23/11 17/23/11 23/23/11
f 25/23/12 26/23/12 27/23/12
f 27/23/12 28/23/12 29/23/12
f 29/23/12 30/23/12 31/23/12
f 31/23/12 32/23/12 25/23/12
f 25/23/12 27/23/12 29/23/12
f 23/23/13 24/23/13 32/23/13
f 22/23/14 30/23/14 29/23/14
f 20/23/15 28/23/15 27/23/15
f 18/23/16 26/23/16 25/23/16
f 17/23/17 25/23/17 32/23/17
f 23/23/18 31/23/18 30/23/18
f 21/23/19 29/23/19 28/23/19
f 19/23/20 27/23/20 26/23/20
usemtl Material
f 33/23/12 36/24/12 35/18/12
f 38/23/11 40/24/11 39/25/11
f 36/24/21 37/18/21 35/18/21
f 33/23/22 39/25/22 34/25/22
f 39/25/23 36/24/23 34/25/23
f 37/18/24 33/23/24 35/18/24
f 201/4/82 185/62/82 186/6/82
f 200/63/83 199/64/83 185/62/83
f 186/6/84 187/65/84 188/8/84
f 185/62/85 199/66/85 187/65/85
f 188/8/86 189/67/86 190/10/86
f 187/65/87 199/68/87 189/67/87
f 189/67/88 192/12/88 190/10/88
f 189/67/89 199/69/89 191/70/89
f 191/70/90 194/17/90 192/12/90
f 191/70/91 199/71/91 193/72/91
f 193/72/92 199/73/92 195/74/92
f 194/17/93 195/74/93 196/19/93
f 195/75/94 199/76/94 197/77/94
f 195/75/95 198/3/95 196/1/95
f 197/77/96 199/78/96 200/63/96
f 198/3/97 200/63/97 201/4/97
f 33/23/12 34/25/12 36/24/12
f 38/23/11 37/18/11 40/24/11
f 36/24/21 40/24/21 37/18/21
f 33/23/22 38/23/22 39/25/22
f 39/25/23 40/24/23 36/24/23
f 37/18/24 38/23/24 33/23/24
f 201/4/82 200/63/82 185/62/82
f 186/6/84 185/62/84 187/65/84
f 188/8/86 187/65/86 189/67/86
f 189/67/88 191/70/88 192/12/88
f 191/70/90 193/72/90 194/17/90
f 194/17/93 193/72/93 195/74/93
f 195/75/95 197/77/95 198/3/95
f 198/3/97 197/77/97 200/63/97
