# Blender 4.5.3 LTS
# www.blender.org
mtllib turret3.mtl
o Cube.002
v -0.466254 0.201386 0.360608
v -0.497527 0.245613 0.329335
v -0.497527 0.245613 0.391881
v -0.497527 0.336373 0.329335
v -0.466254 0.380600 0.360608
v -0.497527 0.336373 0.391881
v -0.343372 0.201386 0.483491
v -0.374645 0.245613 0.514764
v -0.312099 0.245613 0.514764
v -0.343372 0.380600 0.483491
v -0.312099 0.336373 0.514764
v -0.374645 0.336373 0.514764
v -0.343372 0.201386 0.237725
v -0.312099 0.245613 0.206452
v -0.374645 0.245613 0.206452
v -0.343372 0.380600 0.237725
v -0.374645 0.336373 0.206452
v -0.312099 0.336373 0.206452
v -0.220489 0.201386 0.360608
v -0.189216 0.245613 0.391881
v -0.189216 0.245613 0.329335
v -0.220489 0.380600 0.360608
v -0.189216 0.336373 0.329335
v -0.189216 0.336373 0.391881
v -0.096713 1.688284 0.482177
v -0.236103 1.688284 0.619155
v -0.237808 1.688284 0.814577
v -0.100830 1.688284 0.953967
v 0.094591 1.688284 0.955672
v 0.233981 1.688284 0.818694
v 0.235687 1.688284 0.623272
v 0.098709 1.688284 0.483882
v -0.096713 1.767810 0.482177
v -0.236103 1.767810 0.619155
v -0.237808 1.767810 0.814577
v -0.100830 1.767810 0.953967
v 0.094591 1.767810 0.955672
v 0.233981 1.767810 0.818694
v 0.235687 1.767810 0.623272
v 0.098709 1.767810 0.483882
v 0.000000 1.986987 0.399646
v -0.222996 1.894619 0.399646
v -0.315364 1.671623 0.399646
v -0.222996 1.448628 0.399646
v 0.000000 1.356260 0.399646
v 0.222996 1.448628 0.399646
v 0.315364 1.671623 0.399646
v 0.222996 1.894619 0.399646
v -0.222996 1.894619 -1.060666
v 0.000000 1.986987 -1.060667
v -0.315364 1.671624 -1.060666
v -0.222996 1.448628 -1.060666
v 0.000000 1.356260 -1.060667
v 0.222996 1.448628 -1.060666
v 0.315364 1.671624 -1.060666
v 0.222996 1.894619 -1.060666
v -0.296581 1.968204 0.399646
v 0.000000 2.091052 0.399646
v -0.419428 1.671623 0.399646
v -0.296581 1.375043 0.399646
v 0.000000 1.252195 0.399646
v 0.296581 1.375043 0.399646
v 0.419428 1.671623 0.399646
v 0.296581 1.968204 0.399646
v -0.296581 1.968204 0.469752
v 0.000000 2.091052 0.469752
v -0.419428 1.671623 0.469752
v -0.296581 1.375043 0.469752
v 0.000000 1.252195 0.469752
v 0.296581 1.375043 0.469752
v 0.419428 1.671623 0.469752
v 0.296581 1.968204 0.469752
v 0.000000 2.011621 -1.055883
v -0.240416 1.912037 -1.055883
v -0.340000 1.671621 -1.055883
v -0.240416 1.431205 -1.055883
v 0.000000 1.331621 -1.055883
v 0.240416 1.431205 -1.055883
v 0.340000 1.671621 -1.055883
v 0.240416 1.912037 -1.055883
v -0.240416 1.912037 -1.184788
v 0.000000 2.011621 -1.184789
v -0.340000 1.671621 -1.184789
v -0.240416 1.431205 -1.184788
v 0.000000 1.331621 -1.184789
v 0.240416 1.431205 -1.184788
v 0.340000 1.671621 -1.184788
v 0.240416 1.912037 -1.184788
v 0.000000 1.694556 -1.180896
v -0.077873 1.662300 -1.180896
v -0.110128 1.584427 -1.180896
v -0.077873 1.506554 -1.180896
v 0.000000 1.474299 -1.180896
v 0.077873 1.506554 -1.180896
v 0.110129 1.584427 -1.180896
v 0.077873 1.662300 -1.180896
v -0.077872 1.662300 -1.290135
v 0.000000 1.694556 -1.290135
v -0.110128 1.584427 -1.290135
v -0.077872 1.506555 -1.290135
v 0.000000 1.474299 -1.290135
v 0.077873 1.506555 -1.290135
v 0.110129 1.584427 -1.290135
v 0.077873 1.662300 -1.290135
v 0.000000 1.674655 -1.290771
v -0.063800 1.648228 -1.290771
v -0.090228 1.584427 -1.290771
v -0.063800 1.520627 -1.290771
v 0.000000 1.494200 -1.290771
v 0.063801 1.520627 -1.290771
v 0.090228 1.584427 -1.290771
v 0.063800 1.648228 -1.290771
v -0.063800 1.648228 -1.380269
v 0.000000 1.674655 -1.380269
v -0.090228 1.584427 -1.380269
v -0.063800 1.520627 -1.380269
v 0.000000 1.494200 -1.380269
v 0.063801 1.520627 -1.380269
v 0.090228 1.584427 -1.380269
v 0.063801 1.648228 -1.380269
v -0.063800 1.648228 -1.578984
v 0.000000 1.674655 -1.578984
v -0.090227 1.584427 -1.578984
v -0.063800 1.520627 -1.578984
v 0.000000 1.494200 -1.578984
v 0.063801 1.520627 -1.578984
v 0.090228 1.584427 -1.578984
v 0.063801 1.648228 -1.578984
v -0.031528 1.615956 -1.578984
v 0.000000 1.629015 -1.578984
v -0.044588 1.584427 -1.578984
v -0.031528 1.552899 -1.578984
v 0.000000 1.539839 -1.578984
v 0.031529 1.552899 -1.578984
v 0.044588 1.584427 -1.578984
v 0.031529 1.615956 -1.578984
v -0.031528 1.615955 -1.289960
v 0.000000 1.629015 -1.289960
v -0.044588 1.584427 -1.289960
v -0.031528 1.552899 -1.289960
v 0.000000 1.539839 -1.289960
v 0.031529 1.552899 -1.289960
v 0.044588 1.584427 -1.289960
v 0.031529 1.615955 -1.289960
v -0.300000 1.300000 0.300000
v 0.300000 1.300000 0.300000
v -0.300000 1.300000 -0.300000
v 0.300000 1.300000 -0.300000
v -0.300000 1.176438 -0.300000
v -0.300000 1.176438 0.300000
v 0.300000 1.176438 0.300000
v 0.300000 1.176438 -0.300000
v 0.360301 0.231778 -0.462051
v 0.181766 1.244298 -0.280762
v 0.433641 0.239339 -0.432053
v 0.255107 1.251858 -0.250764
v 0.465857 0.232052 -0.359631
v 0.287322 1.244572 -0.178342
v 0.438076 0.214187 -0.287209
v 0.259542 1.226707 -0.105920
v 0.366573 0.196208 -0.257211
v 0.188038 1.208727 -0.075922
v 0.293232 0.188647 -0.287209
v 0.114698 1.201167 -0.105921
v 0.261017 0.195934 -0.359631
v 0.082482 1.208453 -0.178342
v 0.288797 0.213799 -0.432053
v 0.110263 1.226318 -0.250764
v 0.219527 0.201386 -0.354499
v 0.188254 0.245613 -0.385772
v 0.188254 0.245613 -0.323226
v 0.188254 0.336373 -0.385772
v 0.219527 0.380600 -0.354499
v 0.188254 0.336373 -0.323226
v 0.342410 0.201386 -0.231616
v 0.311137 0.245613 -0.200343
v 0.373683 0.245613 -0.200343
v 0.342410 0.380600 -0.231616
v 0.373683 0.336373 -0.200343
v 0.311137 0.336373 -0.200343
v 0.342410 0.201386 -0.477382
v 0.373683 0.245613 -0.508655
v 0.311137 0.245613 -0.508655
v 0.342410 0.380600 -0.477382
v 0.311137 0.336373 -0.508655
v 0.373683 0.336373 -0.508655
v 0.465293 0.201386 -0.354499
v 0.496566 0.245613 -0.323226
v 0.496566 0.245613 -0.385772
v 0.465293 0.380600 -0.354499
v 0.496566 0.336373 -0.385772
v 0.496566 0.336373 -0.323226
v -0.361262 0.231778 -0.462051
v -0.182728 1.244298 -0.280762
v -0.434603 0.239339 -0.432053
v -0.256068 1.251858 -0.250764
v -0.466818 0.232052 -0.359631
v -0.288284 1.244572 -0.178342
v -0.439038 0.214187 -0.287209
v -0.260503 1.226707 -0.105921
v -0.367534 0.196208 -0.257211
v -0.189000 1.208727 -0.075922
v -0.294194 0.188647 -0.287209
v -0.115659 1.201167 -0.105920
v -0.261978 0.195934 -0.359631
v -0.083444 1.208453 -0.178342
v -0.289759 0.213799 -0.432053
v -0.111224 1.226318 -0.250764
v -0.343372 0.201386 -0.477382
v -0.312099 0.245613 -0.508655
v -0.374644 0.245613 -0.508655
v -0.312099 0.336373 -0.508655
v -0.343372 0.380600 -0.477382
v -0.374644 0.336373 -0.508655
v -0.466254 0.201386 -0.354499
v -0.497527 0.245613 -0.385772
v -0.497527 0.245613 -0.323226
v -0.466254 0.380600 -0.354499
v -0.497527 0.336373 -0.323226
v -0.497527 0.336373 -0.385772
v -0.220489 0.201386 -0.354499
v -0.189216 0.245613 -0.323226
v -0.189216 0.245613 -0.385772
v -0.220489 0.380600 -0.354499
v -0.189216 0.336373 -0.385772
v -0.189216 0.336373 -0.323226
v -0.343371 0.201386 -0.231616
v -0.374645 0.245613 -0.200343
v -0.312098 0.245613 -0.200343
v -0.343371 0.380600 -0.231616
v -0.312098 0.336373 -0.200343
v -0.374645 0.336373 -0.200343
v -0.361262 0.231778 0.468160
v -0.182728 1.244298 0.286871
v -0.434603 0.239339 0.438162
v -0.256068 1.251858 0.256873
v -0.466818 0.232052 0.365740
v -0.288284 1.244572 0.184451
v -0.439038 0.214187 0.293318
v -0.260503 1.226707 0.112029
v -0.367534 0.196208 0.263320
v -0.189000 1.208727 0.082031
v -0.294194 0.188647 0.293318
v -0.115659 1.201167 0.112029
v -0.261978 0.195934 0.365740
v -0.083444 1.208453 0.184451
v -0.289759 0.213799 0.438162
v -0.111224 1.226318 0.256873
v 0.360301 0.231778 0.468160
v 0.181766 1.244298 0.286871
v 0.433641 0.239339 0.438162
v 0.255107 1.251858 0.256873
v 0.465857 0.232052 0.365740
v 0.287322 1.244572 0.184451
v 0.438076 0.214187 0.293318
v 0.259542 1.226707 0.112030
v 0.366573 0.196208 0.263320
v 0.188038 1.208727 0.082031
v 0.293232 0.188647 0.293318
v 0.114698 1.201167 0.112030
v 0.261017 0.195934 0.365740
v 0.082482 1.208453 0.184451
v 0.288797 0.213799 0.438162
v 0.110263 1.226318 0.256873
v 0.342410 0.201386 0.237725
v 0.373683 0.245613 0.206452
v 0.311137 0.245613 0.206452
v 0.373683 0.336373 0.206452
v 0.342410 0.380600 0.237725
v 0.311137 0.336373 0.206452
v 0.219527 0.201386 0.360608
v 0.188254 0.245613 0.329335
v 0.188254 0.245613 0.391881
v 0.219527 0.380600 0.360608
v 0.188254 0.336373 0.391881
v 0.188254 0.336373 0.329335
v 0.465293 0.201386 0.360608
v 0.496566 0.245613 0.391881
v 0.496566 0.245613 0.329335
v 0.465293 0.380600 0.360608
v 0.496566 0.336373 0.329335
v 0.496566 0.336373 0.391881
v 0.342410 0.201386 0.483491
v 0.311137 0.245613 0.514764
v 0.373683 0.245613 0.514764
v 0.342410 0.380600 0.483491
v 0.373683 0.336373 0.514764
v 0.311137 0.336373 0.514764
v -0.852500 1.128465 -0.443206
v -0.852500 1.699950 -0.443206
v -0.852500 1.128465 -0.638206
v -0.852500 1.699950 -0.638206
v 0.852500 1.128465 -0.443206
v 0.852500 1.699950 -0.443206
v 0.852500 1.128465 -0.638206
v 0.852500 1.699950 -0.638206
v 0.177097 1.695859 -0.443206
v 0.177097 2.823493 0.096742
v 0.177097 1.695859 -0.638206
v 0.177097 2.823493 -0.098257
v 0.852500 1.695859 -0.443206
v 0.852500 2.823493 0.096743
v 0.852500 1.695859 -0.638206
v 0.852500 2.823493 -0.098257
v 0.177097 2.093304 -0.443206
v 0.177097 2.469181 -0.212246
v 0.177098 2.469181 -0.407246
v 0.177097 2.093304 -0.638206
v 0.852500 2.469181 -0.407246
v 0.852500 2.093304 -0.638206
v 0.852500 2.469181 -0.212246
v 0.852500 2.093304 -0.443206
v -0.852170 1.695859 -0.443206
v -0.852170 2.823493 0.096743
v -0.852170 1.695859 -0.638206
v -0.852170 2.823493 -0.098257
v -0.176767 1.695859 -0.443206
v -0.176767 2.823493 0.096743
v -0.176767 1.695859 -0.638206
v -0.176767 2.823493 -0.098257
v -0.852170 2.093304 -0.443206
v -0.852170 2.469181 -0.212246
v -0.852170 2.469181 -0.407246
v -0.852170 2.093304 -0.638206
v -0.176767 2.469181 -0.407246
v -0.176767 2.093304 -0.638206
v -0.176767 2.469181 -0.212246
v -0.176767 2.093304 -0.443206
v 0.127878 1.480846 -0.127878
v 0.180846 1.300000 -0.180846
v 0.127878 1.119154 -0.127878
v 0.180846 1.480846 0.000000
v 0.255755 1.300000 0.000000
v 0.180846 1.119154 0.000000
v 0.127878 1.480846 0.127878
v 0.180846 1.300000 0.180846
v 0.127878 1.119154 0.127878
v 0.000000 1.480846 0.180846
v 0.000000 1.300000 0.255755
v 0.000000 1.119154 0.180846
v -0.127878 1.480846 0.127878
v -0.180846 1.300000 0.180846
v -0.127878 1.119154 0.127878
v 0.000000 1.044245 0.000000
v -0.180846 1.480846 0.000000
v -0.255755 1.300000 -0.000000
v -0.180846 1.119154 0.000000
v -0.127878 1.480846 -0.127878
v -0.180846 1.300000 -0.180846
v -0.127878 1.119154 -0.127878
v 0.000000 1.555755 0.000000
v 0.000000 1.480846 -0.180846
v -0.000000 1.300000 -0.255755
v 0.000000 1.119154 -0.180846
v -0.170175 1.916499 -0.925902
v -0.170175 1.916499 0.277468
v -0.143588 1.927511 0.320657
v -0.086002 1.951364 0.320657
v -0.054330 1.964483 0.277468
v -0.054330 1.964483 -0.920324
v -0.080243 1.953749 -0.975031
v -0.140709 1.928704 -0.980789
v -0.143960 1.881651 -0.821367
v -0.143960 1.881651 0.172407
v -0.122004 1.890746 0.208074
v -0.074448 1.910444 0.208074
v -0.048292 1.921278 0.172407
v -0.048292 1.921278 -0.816760
v -0.069693 1.912414 -0.861938
v -0.119626 1.891731 -0.866694
v 0.000288 1.986041 0.399646
v 0.000288 1.986041 -1.060666
v 0.053430 1.964443 -0.925903
v 0.053430 1.964443 0.277468
v 0.080017 1.953431 0.320657
v 0.137603 1.929578 0.320657
v 0.169275 1.916458 0.277468
v 0.169276 1.916458 -0.920324
v 0.143362 1.927192 -0.975031
v 0.082896 1.952238 -0.980789
v 0.047326 1.921266 -0.821367
v 0.047326 1.921266 0.172407
v 0.069282 1.912171 0.208074
v 0.116838 1.892473 0.208074
v 0.142994 1.881639 0.172407
v 0.142994 1.881639 -0.816760
v 0.121594 1.890503 -0.861938
v 0.071660 1.911186 -0.866694
v 0.222207 1.892847 0.399646
v 0.222207 1.892847 -1.060666
v 0.243581 1.839764 -0.925903
v 0.243581 1.839764 0.277468
v 0.254593 1.813177 0.320657
v 0.278446 1.755591 0.320657
v 0.291565 1.723919 0.277468
v 0.291565 1.723919 -0.920324
v 0.280832 1.749832 -0.975031
v 0.255786 1.810298 -0.980789
v 0.208734 1.813549 -0.821367
v 0.208733 1.813549 0.172407
v 0.217828 1.791593 0.208074
v 0.237526 1.744037 0.208074
v 0.248360 1.717881 0.172407
v 0.248360 1.717881 -0.816760
v 0.239496 1.739281 -0.861938
v 0.218813 1.789215 -0.866694
v 0.313123 1.669301 0.399646
v 0.313123 1.669301 -1.060666
v 0.291525 1.616159 -0.925902
v 0.291525 1.616159 0.277467
v 0.280513 1.589572 0.320657
v 0.256660 1.531986 0.320657
v 0.243541 1.500314 0.277468
v 0.243540 1.500314 -0.920324
v 0.254275 1.526227 -0.975031
v 0.279320 1.586693 -0.980789
v 0.248348 1.622263 -0.821367
v 0.248348 1.622263 0.172407
v 0.239253 1.600307 0.208074
v 0.219555 1.552751 0.208074
v 0.208721 1.526595 0.172407
v 0.208721 1.526595 -0.816760
v 0.217585 1.547995 -0.861938
v 0.238269 1.597929 -0.866694
v 0.220955 1.446732 0.399646
v 0.220955 1.446732 -1.060666
v 0.168898 1.424709 -0.925902
v 0.168898 1.424709 0.277468
v 0.142311 1.413697 0.320657
v 0.084725 1.389844 0.320657
v 0.053053 1.376725 0.277468
v 0.053053 1.376725 -0.920324
v 0.078966 1.387459 -0.975031
v 0.139432 1.412504 -0.980789
v 0.142683 1.459557 -0.821367
v 0.142683 1.459557 0.172407
v 0.120727 1.450462 0.208074
v 0.073171 1.430764 0.208074
v 0.047015 1.419930 0.172407
v 0.047015 1.419930 -0.816760
v 0.068415 1.428794 -0.861938
v 0.118349 1.449477 -0.866694
v -0.001565 1.355167 0.399646
v -0.001565 1.355167 -1.060666
v -0.054707 1.376765 -0.925903
v -0.054707 1.376765 0.277467
v -0.081294 1.387778 0.320657
v -0.138880 1.411630 0.320657
v -0.170553 1.424749 0.277468
v -0.170553 1.424749 -0.920324
v -0.144639 1.414016 -0.975031
v -0.084173 1.388970 -0.980789
v -0.048603 1.419942 -0.821367
v -0.048603 1.419942 0.172407
v -0.070559 1.429037 0.208074
v -0.118115 1.448735 0.208074
v -0.144271 1.459569 0.172407
v -0.144271 1.459569 -0.816760
v -0.122871 1.450705 -0.861938
v -0.072937 1.430022 -0.866694
v -0.223484 1.448361 0.399646
v -0.223485 1.448361 -1.060666
v -0.244858 1.501444 -0.925902
v -0.244858 1.501444 0.277467
v -0.255870 1.528031 0.320657
v -0.279723 1.585617 0.320657
v -0.292842 1.617290 0.277468
v -0.292842 1.617290 -0.920324
v -0.282109 1.591376 -0.975031
v -0.257063 1.530910 -0.980789
v -0.210011 1.527659 -0.821367
v -0.210010 1.527659 0.172407
v -0.219105 1.549615 0.208074
v -0.238803 1.597171 0.208074
v -0.249637 1.623327 0.172407
v -0.249638 1.623327 -0.816760
v -0.240773 1.601927 -0.861938
v -0.220090 1.551993 -0.866694
v -0.314400 1.671907 0.399646
v -0.314400 1.671907 -1.060666
v -0.292803 1.725049 -0.925903
v -0.292802 1.725049 0.277467
v -0.281790 1.751636 0.320657
v -0.257937 1.809222 0.320657
v -0.244818 1.840894 0.277467
v -0.244818 1.840895 -0.920324
v -0.255552 1.814981 -0.975031
v -0.280597 1.754516 -0.980789
v -0.249625 1.718945 -0.821367
v -0.249625 1.718945 0.172407
v -0.240531 1.740901 0.208074
v -0.220832 1.788457 0.208074
v -0.209998 1.814613 0.172407
v -0.209998 1.814613 -0.816760
v -0.218862 1.793213 -0.861938
v -0.239546 1.743279 -0.866694
v -0.222232 1.894476 0.399646
v -0.222232 1.894476 -1.060666
v -0.255341 1.432934 1.275602
v -0.255341 1.943615 1.275602
v -0.255341 1.432934 0.463754
v -0.255341 1.943615 0.463754
v 0.255341 1.432934 1.275602
v 0.255341 1.943615 1.275602
v 0.255341 1.432934 0.463754
v 0.255341 1.943615 0.463754
v 0.225212 1.433308 1.275491
v 0.225212 1.888091 1.275491
v 0.225212 1.433308 0.820709
v 0.319994 1.433308 1.275491
v 0.319994 1.888091 1.275491
v 0.319994 1.433308 0.820709
v 0.225212 1.888091 1.103443
v 0.225212 1.605357 0.820709
v 0.225212 1.805280 0.903520
v 0.319994 1.605357 0.820709
v 0.319994 1.888091 1.103443
v 0.319994 1.805280 0.903520
v 0.225212 1.433586 0.890483
v 0.225212 1.433586 0.465766
v 0.225212 1.587214 0.465766
v 0.319994 1.433586 0.890483
v 0.319994 1.433586 0.465766
v 0.319994 1.587214 0.465766
v 0.225212 1.762192 0.890483
v 0.225212 1.587214 0.715506
v 0.225212 1.638464 0.839234
v 0.319994 1.587214 0.715506
v 0.319994 1.762192 0.890483
v 0.319994 1.638464 0.839234
v -0.319994 1.433308 1.275491
v -0.319994 1.888091 1.275491
v -0.319994 1.433308 0.820709
v -0.225212 1.433308 1.275491
v -0.225212 1.888091 1.275491
v -0.225212 1.433308 0.820709
v -0.319994 1.888091 1.103443
v -0.319994 1.605357 0.820709
v -0.319994 1.805280 0.903520
v -0.225212 1.605357 0.820709
v -0.225212 1.888091 1.103443
v -0.225212 1.805280 0.903520
v -0.319994 1.433586 0.890483
v -0.319994 1.433586 0.468505
v -0.319994 1.587214 0.468505
v -0.225212 1.433586 0.890483
v -0.225212 1.433586 0.468505
v -0.225212 1.587214 0.468505
v -0.319994 1.762192 0.890483
v -0.319994 1.587214 0.715506
v -0.319994 1.638464 0.839234
v -0.225212 1.587214 0.715506
v -0.225212 1.762192 0.890483
v -0.225212 1.638464 0.839234
v -0.374606 0.000000 -0.927184
v -0.920505 0.000000 -0.390731
v -0.927184 0.000000 0.374606
v -0.390731 0.000000 0.920505
v 0.374607 0.000000 0.927184
v 0.920505 0.000000 0.390731
v 0.927184 0.000000 -0.374606
v 0.390731 0.000000 -0.920505
v -0.374606 0.311450 -0.927184
v -0.920505 0.311450 -0.390731
v -0.927184 0.311450 0.374606
v -0.390731 0.311450 0.920505
v 0.374607 0.311450 0.927184
v 0.920505 0.311450 0.390731
v 0.927184 0.311450 -0.374606
v 0.390731 0.311450 -0.920505
vn -0.8165 -0.5774 -0.0000
vn -0.8165 0.5774 -0.0000
vn -0.0000 -0.5774 0.8165
vn -0.0000 0.5774 0.8165
vn -0.0000 -0.5774 -0.8165
vn -0.0000 0.5774 -0.8165
vn 0.8165 -0.5774 -0.0000
vn 0.8165 0.5774 -0.0000
vn -0.5000 -0.7071 0.5000
vn -1.0000 -0.0000 -0.0000
vn -0.5000 0.7071 0.5000
vn -0.0000 -0.0000 1.0000
vn 0.5000 -0.7071 0.5000
vn 0.5000 0.7071 0.5000
vn 1.0000 -0.0000 -0.0000
vn 0.5000 -0.7071 -0.5000
vn 0.5000 0.7071 -0.5000
vn -0.0000 -0.0000 -1.0000
vn -0.5000 -0.7071 -0.5000
vn -0.5000 0.7071 -0.5000
vn -0.0000 -1.0000 -0.0000
vn -0.7071 -0.0000 0.7071
vn -0.7071 -0.0000 -0.7071
vn -0.0000 1.0000 -0.0000
vn 0.7071 -0.0000 0.7071
vn 0.7071 -0.0000 -0.7071
vn -0.7133 -0.0000 0.7009
vn -0.7009 -0.0000 -0.7133
vn 0.7133 -0.0000 -0.7009
vn 0.7009 -0.0000 0.7133
vn -0.0087 -0.0000 1.0000
vn -1.0000 -0.0000 -0.0087
vn 0.0087 -0.0000 -1.0000
vn 1.0000 -0.0000 0.0087
vn 0.3827 0.9239 -0.0000
vn 0.9239 -0.3827 -0.0000
vn -0.3827 -0.9239 -0.0000
vn -0.9239 0.3827 -0.0000
vn 0.9239 0.3827 -0.0000
vn 0.3827 -0.9239 -0.0000
vn -0.9239 -0.3827 -0.0000
vn -0.3827 0.9239 -0.0000
vn -0.3490 -0.2244 0.9098
vn -0.8983 -0.2259 0.3769
vn -0.9214 -0.0950 -0.3769
vn -0.4047 0.0915 -0.9098
vn 0.3490 0.2244 -0.9098
vn 0.8983 0.2259 -0.3769
vn 0.1710 -0.9698 -0.1736
vn 0.9214 0.0950 0.3769
vn 0.4047 -0.0915 0.9098
vn -0.1710 0.9698 0.1736
vn -0.3490 0.2244 -0.9098
vn -0.8983 0.2259 -0.3769
vn -0.9214 0.0950 0.3769
vn -0.4047 -0.0915 0.9098
vn 0.3490 -0.2244 0.9098
vn 0.8983 -0.2259 0.3769
vn 0.1710 0.9698 0.1736
vn 0.9214 -0.0950 -0.3769
vn 0.4047 0.0915 -0.9098
vn -0.1710 -0.9698 -0.1736
vn -0.8165 0.5773 -0.0000
vn 0.3490 -0.2244 -0.9098
vn 0.8983 -0.2259 -0.3769
vn 0.9214 -0.0950 0.3769
vn 0.4047 0.0915 0.9098
vn -0.3490 0.2244 0.9098
vn -0.8983 0.2259 0.3769
vn -0.1710 -0.9698 0.1736
vn -0.9214 0.0950 -0.3769
vn -0.4047 -0.0915 -0.9098
vn 0.1710 0.9698 -0.1736
vn 0.3490 0.2244 0.9098
vn 0.8983 0.2259 0.3769
vn 0.9214 0.0950 -0.3769
vn 0.4047 -0.0915 -0.9098
vn -0.3490 -0.2244 -0.9098
vn -0.8983 -0.2259 -0.3769
vn -0.1710 0.9698 -0.1736
vn -0.9214 -0.0950 0.3769
vn -0.4047 0.0915 0.9098
vn 0.1710 -0.9698 0.1736
vn -0.0000 -0.5773 -0.8165
vn -0.0000 0.5773 -0.8165
vn -0.8165 -0.5773 -0.0000
vn -0.0000 -0.6573 0.7537
vn -0.0000 0.6573 -0.7537
vn -0.0000 0.5235 -0.8520
vn -0.0000 -0.5235 0.8520
vn -0.1566 0.9125 0.3780
vn -0.3574 -0.3574 0.8629
vn -0.3574 0.3574 0.8629
vn -0.1566 -0.9125 0.3780
vn -0.3780 0.9125 0.1566
vn -0.8629 -0.3574 0.3574
vn -0.8629 0.3574 0.3574
vn -0.3780 -0.9125 0.1566
vn -0.3780 0.9125 -0.1566
vn -0.8629 -0.3574 -0.3574
vn -0.8629 0.3574 -0.3574
vn -0.3780 -0.9125 -0.1566
vn -0.1566 0.9125 -0.3780
vn -0.3574 -0.3574 -0.8629
vn -0.3574 0.3574 -0.8629
vn -0.1566 -0.9125 -0.3780
vn 0.1566 0.9125 -0.3780
vn 0.3574 -0.3574 -0.8629
vn 0.3574 0.3574 -0.8629
vn 0.1566 -0.9125 -0.3780
vn 0.3780 -0.9125 -0.1566
vn 0.3780 0.9125 -0.1566
vn 0.8629 -0.3574 -0.3574
vn 0.8629 0.3574 -0.3574
vn 0.8629 0.3574 0.3574
vn 0.3780 -0.9125 0.1566
vn 0.3780 0.9125 0.1566
vn 0.8629 -0.3574 0.3574
vn 0.3574 0.3574 0.8629
vn 0.1566 -0.9125 0.3780
vn 0.1566 0.9125 0.3780
vn 0.3574 -0.3574 0.8629
vn -0.3785 0.9256 -0.0007
vn -0.3809 0.9246 0.0070
vn 0.7991 0.6012 -0.0000
vn 0.1338 0.9497 0.2830
vn -0.7969 0.5397 0.2716
vn -0.6913 0.6534 -0.3084
vn 0.0844 0.9519 -0.2947
vn -0.3868 0.8539 0.3482
vn -0.9904 -0.1384 -0.0000
vn -0.3583 0.8650 -0.3512
vn 0.3914 0.9202 -0.0010
vn 0.3863 0.9223 0.0097
vn 0.9902 -0.1400 -0.0000
vn 0.7662 0.5769 0.2830
vn -0.1819 0.9451 0.2716
vn -0.0267 0.9509 -0.3085
vn 0.7327 0.6134 -0.2947
vn 0.3302 0.8773 0.3482
vn -0.7982 0.6024 -0.0000
vn 0.3583 0.8650 -0.3512
vn 0.9286 0.3711 -0.0002
vn 0.9258 0.3779 0.0021
vn 0.6012 -0.7991 -0.0000
vn 0.9497 -0.1338 0.2830
vn 0.5397 0.7969 0.2716
vn 0.6534 0.6913 -0.3084
vn 0.9519 -0.0844 -0.2947
vn 0.8539 0.3868 0.3482
vn -0.1384 0.9904 -0.0000
vn 0.8650 0.3583 -0.3512
vn 0.9239 -0.3825 -0.0004
vn 0.9239 -0.3826 0.0037
vn -0.1400 -0.9902 -0.0000
vn 0.5769 -0.7662 0.2830
vn 0.9451 0.1819 0.2716
vn 0.9509 0.0267 -0.3084
vn 0.6134 -0.7327 -0.2947
vn 0.8773 -0.3302 0.3482
vn 0.6024 0.7982 -0.0000
vn 0.8650 -0.3583 -0.3512
vn 0.3785 -0.9256 -0.0007
vn 0.3809 -0.9246 0.0070
vn -0.7991 -0.6012 -0.0000
vn -0.1338 -0.9497 0.2830
vn 0.7969 -0.5397 0.2716
vn 0.6913 -0.6534 -0.3084
vn -0.0844 -0.9519 -0.2947
vn 0.3868 -0.8539 0.3482
vn 0.9904 0.1384 -0.0000
vn 0.3583 -0.8650 -0.3512
vn -0.3914 -0.9202 -0.0010
vn -0.3863 -0.9223 0.0097
vn -0.9902 0.1400 -0.0000
vn -0.7662 -0.5769 0.2830
vn 0.1819 -0.9451 0.2716
vn 0.0267 -0.9509 -0.3084
vn -0.7327 -0.6134 -0.2947
vn -0.3302 -0.8773 0.3482
vn 0.7982 -0.6024 -0.0000
vn -0.3583 -0.8650 -0.3512
vn -0.9286 -0.3711 -0.0002
vn -0.9258 -0.3779 0.0021
vn -0.6012 0.7991 -0.0000
vn -0.9497 0.1338 0.2830
vn -0.5397 -0.7969 0.2716
vn -0.6534 -0.6913 -0.3084
vn -0.9519 0.0844 -0.2947
vn -0.8539 -0.3868 0.3482
vn 0.1384 -0.9904 -0.0000
vn -0.8650 -0.3583 -0.3512
vn -0.9239 0.3825 -0.0004
vn -0.9239 0.3826 0.0037
vn 0.1400 0.9902 -0.0000
vn -0.5769 0.7662 0.2830
vn -0.9451 -0.1819 0.2716
vn -0.9509 -0.0267 -0.3084
vn -0.6134 0.7327 -0.2947
vn -0.8773 0.3302 0.3482
vn -0.6024 -0.7982 -0.0000
vn -0.8650 0.3583 -0.3512
vn -0.0000 -0.9239 0.3827
vn -0.0000 -0.3827 0.9239
vt 0.167163 0.707837
vt 0.167163 0.750000
vt 0.125000 0.707837
vt 0.582837 0.000000
vt 0.625000 0.042163
vt 0.582837 0.042163
vt 0.167163 0.542163
vt 0.125000 0.542163
vt 0.167163 0.500000
vt 0.625000 0.246952
vt 0.582837 0.290831
vt 0.582837 0.207837
vt 0.332837 0.707837
vt 0.415831 0.707837
vt 0.397410 0.782286
vt 0.657287 0.727590
vt 0.582837 0.792163
vt 0.582837 0.709169
vt 0.332837 0.542163
vt 0.397410 0.467713
vt 0.415831 0.542163
vt 0.657287 0.522410
vt 0.582837 0.540831
vt 0.582837 0.457837
vt 0.417163 0.000000
vt 0.417163 0.042163
vt 0.417163 0.292163
vt 0.417163 0.207837
vt 0.625000 0.957837
vt 0.582837 0.957837
vt 0.417163 0.957837
vt 0.832837 0.542163
vt 0.832837 0.707837
vt 0.000000 0.000000
vt 0.000000 1.000000
vt 1.000000 1.000000
vt 1.000000 0.000000
vt 1.000000 0.500000
vt 0.875000 1.000000
vt 0.875000 0.500000
vt 0.750000 1.000000
vt 0.750000 0.500000
vt 0.625000 1.000000
vt 0.625000 0.500000
vt 0.500000 1.000000
vt 0.500000 0.500000
vt 0.375000 1.000000
vt 0.375000 0.500000
vt 0.250000 1.000000
vt 0.250000 0.500000
vt 0.419706 0.419706
vt 0.250000 0.490000
vt 0.080294 0.419706
vt 0.010000 0.250000
vt 0.080294 0.080294
vt 0.250000 0.010000
vt 0.419706 0.080294
vt 0.490000 0.250000
vt 0.125000 1.000000
vt 0.125000 0.500000
vt 0.000000 0.500000
vt 0.750000 0.490000
vt 0.919706 0.419706
vt 0.990000 0.250000
vt 0.919706 0.080294
vt 0.750000 0.010000
vt 0.580294 0.080294
vt 0.510000 0.250000
vt 0.580294 0.419706
vt 0.375000 0.000000
vt 0.625000 0.000000
vt 0.625000 0.250000
vt 0.375000 0.250000
vt 0.625000 0.750000
vt 0.375000 0.750000
vt 0.125000 0.750000
vt 0.875000 0.750000
vt 0.546448 0.000000
vt 0.546448 0.250000
vt 0.546448 0.500000
vt 0.546448 0.750000
vt 0.546448 1.000000
vt 0.463115 0.750000
vt 0.463115 1.000000
vt 0.463115 0.500000
vt 0.463115 0.250000
vt 0.463115 0.000000
vt 0.687500 0.000000
vt 0.750000 0.250000
vt 0.750000 0.750000
vt 0.687500 1.000000
vt 0.562500 0.000000
vt 0.500000 0.250000
vt 0.500000 0.750000
vt 0.562500 1.000000
vt 0.437500 0.000000
vt 0.437500 1.000000
vt 0.312500 0.000000
vt 0.250000 0.250000
vt 0.250000 0.750000
vt 0.312500 1.000000
vt 0.187500 0.000000
vt 0.125000 0.250000
vt 0.187500 1.000000
vt 0.062500 1.000000
vt 0.000000 0.750000
vt 0.062500 0.000000
vt 0.000000 0.250000
vt 1.000000 0.250000
vt 0.875000 0.250000
vt 1.000000 0.750000
vt 0.937500 1.000000
vt 0.937500 0.000000
vt 0.812500 1.000000
vt 0.812500 0.000000
vt 0.875000 0.655423
vt 0.625000 0.655423
vt 0.603042 0.521958
vt 0.595374 0.220374
vt 0.469577 0.500000
vt 0.469577 0.250000
vt 0.625000 0.094577
vt 0.625000 0.653813
vt 0.875000 0.653812
vt 0.600443 0.737655
vt 0.433651 1.000000
vt 0.433651 0.750000
vt 0.433651 0.000000
vt 0.568955 0.028173
vt 0.625000 0.096187
s 0
usemtl Material.004
f 1/1/1 3/3/1 2/2/1
f 4/4/2 6/6/2 5/5/2
f 7/7/3 9/9/3 8/8/3
f 10/10/4 12/12/4 11/11/4
f 13/13/5 15/15/5 14/14/5
f 16/16/6 18/18/6 17/17/6
f 19/19/7 21/21/7 20/20/7
f 22/22/8 24/24/8 23/23/8
f 7/7/9 8/8/9 3/3/9 1/1/9
f 2/25/10 3/26/10 6/6/10 4/4/10
f 5/5/11 6/6/11 12/12/11 10/10/11
f 11/11/12 12/12/12 8/28/12 9/27/12
f 19/19/13 20/20/13 9/9/13 7/7/13
f 10/10/14 11/11/14 24/24/14 22/22/14
f 23/23/15 24/24/15 20/20/15 21/21/15
f 13/13/16 14/14/16 21/21/16 19/19/16
f 22/22/17 23/23/17 18/18/17 16/16/17
f 17/17/18 18/18/18 14/14/18 15/15/18
f 1/1/19 2/2/19 15/15/19 13/13/19
f 16/16/20 17/17/20 4/30/20 5/29/20
f 7/7/21 1/1/21 13/13/21 19/19/21
f 3/26/22 8/28/22 12/12/22 6/6/22
f 15/15/23 2/31/23 4/30/23 17/17/23
f 22/22/24 16/16/24 5/33/24 10/32/24
f 9/27/25 20/20/25 24/24/25 11/11/25
f 21/21/26 14/14/26 18/18/26 23/23/26
f 153/38/43 155/40/43 156/39/43 154/36/43
f 155/40/44 157/42/44 158/41/44 156/39/44
f 157/42/45 159/44/45 160/43/45 158/41/45
f 159/44/46 161/46/46 162/45/46 160/43/46
f 161/46/47 163/48/47 164/47/47 162/45/47
f 163/48/48 165/50/48 166/49/48 164/47/48
f 156/51/49 158/58/49 160/57/49 162/56/49 164/55/49 166/54/49 168/53/49 154/52/49
f 165/50/50 167/60/50 168/59/50 166/49/50
f 167/60/51 153/61/51 154/35/51 168/59/51
f 153/62/52 167/69/52 165/68/52 163/67/52 161/66/52 159/65/52 157/64/52 155/63/52
f 169/1/1 171/3/1 170/2/1
f 172/4/2 174/6/2 173/5/2
f 175/7/3 177/9/3 176/8/3
f 178/10/4 180/12/4 179/11/4
f 181/13/5 183/15/5 182/14/5
f 184/16/6 186/18/6 185/17/6
f 187/19/7 189/21/7 188/20/7
f 190/22/8 192/24/8 191/23/8
f 175/7/9 176/8/9 171/3/9 169/1/9
f 170/25/10 171/26/10 174/6/10 172/4/10
f 173/5/11 174/6/11 180/12/11 178/10/11
f 179/11/12 180/12/12 176/28/12 177/27/12
f 187/19/13 188/20/13 177/9/13 175/7/13
f 178/10/14 179/11/14 192/24/14 190/22/14
f 191/23/15 192/24/15 188/20/15 189/21/15
f 181/13/16 182/14/16 189/21/16 187/19/16
f 190/22/17 191/23/17 186/18/17 184/16/17
f 185/17/18 186/18/18 182/14/18 183/15/18
f 169/1/19 170/2/19 183/15/19 181/13/19
f 184/16/20 185/17/20 172/30/20 173/29/20
f 175/7/21 169/1/21 181/13/21 187/19/21
f 171/26/22 176/28/22 180/12/22 174/6/22
f 183/15/23 170/31/23 172/30/23 185/17/23
f 190/22/24 184/16/24 173/33/24 178/32/24
f 177/27/25 188/20/25 192/24/25 179/11/25
f 189/21/26 182/14/26 186/18/26 191/23/26
f 193/38/53 195/40/53 196/39/53 194/36/53
f 195/40/54 197/42/54 198/41/54 196/39/54
f 197/42/55 199/44/55 200/43/55 198/41/55
f 199/44/56 201/46/56 202/45/56 200/43/56
f 201/46/57 203/48/57 204/47/57 202/45/57
f 203/48/58 205/50/58 206/49/58 204/47/58
f 196/51/59 198/58/59 200/57/59 202/56/59 204/55/59 206/54/59 208/53/59 194/52/59
f 205/50/60 207/60/60 208/59/60 206/49/60
f 207/60/61 193/61/61 194/35/61 208/59/61
f 193/62/62 207/69/62 205/68/62 203/67/62 201/66/62 199/65/62 197/64/62 195/63/62
f 209/1/5 211/3/5 210/2/5
f 212/4/6 214/6/6 213/5/6
f 215/7/1 217/9/1 216/8/1
f 218/10/63 220/12/63 219/11/63
f 221/13/7 223/15/7 222/14/7
f 224/16/8 226/18/8 225/17/8
f 227/19/3 229/21/3 228/20/3
f 230/22/4 232/24/4 231/23/4
f 215/7/19 216/8/19 211/3/19 209/1/19
f 210/25/18 211/26/18 214/6/18 212/4/18
f 213/5/20 214/6/20 220/12/20 218/10/20
f 219/11/10 220/12/10 216/28/10 217/27/10
f 227/19/9 228/20/9 217/9/9 215/7/9
f 218/10/11 219/11/11 232/24/11 230/22/11
f 231/23/12 232/24/12 228/20/12 229/21/12
f 221/13/13 222/14/13 229/21/13 227/19/13
f 230/22/14 231/23/14 226/18/14 224/16/14
f 225/17/15 226/18/15 222/14/15 223/15/15
f 209/1/16 210/2/16 223/15/16 221/13/16
f 224/16/17 225/17/17 212/30/17 213/29/17
f 215/7/21 209/1/21 221/13/21 227/19/21
f 211/26/23 216/28/23 220/12/23 214/6/23
f 223/15/26 210/31/26 212/30/26 225/17/26
f 230/22/24 224/16/24 213/33/24 218/32/24
f 217/27/22 228/20/22 232/24/22 219/11/22
f 229/21/25 222/14/25 226/18/25 231/23/25
f 233/38/64 235/40/64 236/39/64 234/36/64
f 235/40/65 237/42/65 238/41/65 236/39/65
f 237/42/66 239/44/66 240/43/66 238/41/66
f 239/44/67 241/46/67 242/45/67 240/43/67
f 241/46/68 243/48/68 244/47/68 242/45/68
f 243/48/69 245/50/69 246/49/69 244/47/69
f 236/51/70 238/58/70 240/57/70 242/56/70 244/55/70 246/54/70 248/53/70 234/52/70
f 245/50/71 247/60/71 248/59/71 246/49/71
f 247/60/72 233/61/72 234/35/72 248/59/72
f 233/62/73 247/69/73 245/68/73 243/67/73 241/66/73 239/65/73 237/64/73 235/63/73
f 249/38/74 251/40/74 252/39/74 250/36/74
f 251/40/75 253/42/75 254/41/75 252/39/75
f 253/42/76 255/44/76 256/43/76 254/41/76
f 255/44/77 257/46/77 258/45/77 256/43/77
f 257/46/78 259/48/78 260/47/78 258/45/78
f 259/48/79 261/50/79 262/49/79 260/47/79
f 252/51/80 254/58/80 256/57/80 258/56/80 260/55/80 262/54/80 264/53/80 250/52/80
f 261/50/81 263/60/81 264/59/81 262/49/81
f 263/60/82 249/61/82 250/35/82 264/59/82
f 249/62/83 263/69/83 261/68/83 259/67/83 257/66/83 255/65/83 253/64/83 251/63/83
f 265/1/84 267/3/84 266/2/84
f 268/4/85 270/6/85 269/5/85
f 271/7/86 273/9/86 272/8/86
f 274/10/63 276/12/63 275/11/63
f 277/13/7 279/15/7 278/14/7
f 280/16/8 282/18/8 281/17/8
f 283/19/3 285/21/3 284/20/3
f 286/22/4 288/24/4 287/23/4
f 271/7/19 272/8/19 267/3/19 265/1/19
f 266/25/18 267/26/18 270/6/18 268/4/18
f 269/5/20 270/6/20 276/12/20 274/10/20
f 275/11/10 276/12/10 272/28/10 273/27/10
f 283/19/9 284/20/9 273/9/9 271/7/9
f 274/10/11 275/11/11 288/24/11 286/22/11
f 287/23/12 288/24/12 284/20/12 285/21/12
f 277/13/13 278/14/13 285/21/13 283/19/13
f 286/22/14 287/23/14 282/18/14 280/16/14
f 281/17/15 282/18/15 278/14/15 279/15/15
f 265/1/16 266/2/16 279/15/16 277/13/16
f 280/16/17 281/17/17 268/30/17 269/29/17
f 271/7/21 265/1/21 277/13/21 283/19/21
f 267/26/23 272/28/23 276/12/23 270/6/23
f 279/15/26 266/31/26 268/30/26 281/17/26
f 286/22/24 280/16/24 269/33/24 274/32/24
f 273/27/22 284/20/22 288/24/22 275/11/22
f 285/21/25 278/14/25 282/18/25 287/23/25
usemtl Material
f 26/34/24 27/34/24 28/34/24 29/34/24 30/34/24 31/34/24 32/34/24 25/34/24
f 34/34/21 33/34/21 40/34/21 39/34/21 38/34/21 37/34/21 36/34/21 35/34/21
f 31/34/27 39/34/27 40/34/27 32/34/27
f 29/34/28 37/34/28 38/34/28 30/34/28
f 27/34/29 35/34/29 36/34/29 28/34/29
f 25/34/30 33/34/30 34/34/30 26/34/30
f 32/34/31 40/34/31 33/34/31 25/34/31
f 30/34/32 38/34/32 39/34/32 31/34/32
f 28/34/33 36/34/33 37/34/33 29/34/33
f 26/34/34 34/34/34 35/34/34 27/34/34
f 145/34/24 146/37/24 148/36/24 147/35/24
f 150/34/21 149/35/21 152/36/21 151/37/21
f 148/36/18 152/36/18 149/35/18 147/35/18
f 145/34/12 150/34/12 151/37/12 146/37/12
f 146/37/15 151/37/15 152/36/15 148/36/15
f 147/35/10 149/35/10 150/34/10 145/34/10
usemtl Material.005
f 49/34/18 50/34/18 56/34/18 55/34/18 54/34/18 53/34/18 52/34/18 51/34/18
usemtl Material.003
f 41/34/18 58/34/18 64/34/18 48/34/18
f 58/34/35 66/34/35 72/34/35 64/34/35
f 47/34/18 63/34/18 62/34/18 46/34/18
f 45/34/18 61/34/18 60/34/18 44/34/18
f 43/34/18 59/34/18 57/34/18 42/34/18
f 48/34/18 64/34/18 63/34/18 47/34/18
f 46/34/18 62/34/18 61/34/18 45/34/18
f 44/34/18 60/34/18 59/34/18 43/34/18
f 42/34/18 57/34/18 58/34/18 41/34/18
f 65/34/12 67/34/12 68/34/12 69/34/12 70/34/12 71/34/12 72/34/12 66/34/12
f 63/34/36 71/34/36 70/34/36 62/34/36
f 61/34/37 69/34/37 68/34/37 60/34/37
f 59/34/38 67/34/38 65/34/38 57/34/38
f 64/34/39 72/34/39 71/34/39 63/34/39
f 62/34/40 70/34/40 69/34/40 61/34/40
f 60/34/41 68/34/41 67/34/41 59/34/41
f 57/34/42 65/34/42 66/34/42 58/34/42
usemtl Material.006
f 74/34/12 75/34/12 76/34/12 77/34/12 78/34/12 79/34/12 80/34/12 73/34/12
f 81/34/18 82/34/18 88/34/18 87/34/18 86/34/18 85/34/18 84/34/18 83/34/18
f 74/34/38 81/34/38 83/34/38 75/34/38
f 79/34/39 87/34/39 88/34/39 80/34/39
f 77/34/40 85/34/40 86/34/40 78/34/40
f 75/34/41 83/34/41 84/34/41 76/34/41
f 73/34/42 82/34/42 81/34/42 74/34/42
f 80/34/35 88/34/35 82/34/35 73/34/35
f 78/34/36 86/34/36 87/34/36 79/34/36
f 76/34/37 84/34/37 85/34/37 77/34/37
f 90/34/12 91/34/12 92/34/12 93/34/12 94/34/12 95/34/12 96/34/12 89/34/12
f 97/34/18 98/34/18 104/34/18 103/34/18 102/34/18 101/34/18 100/34/18 99/34/18
f 92/34/37 100/34/37 101/34/37 93/34/37
f 90/34/38 97/34/38 99/34/38 91/34/38
f 95/34/39 103/34/39 104/34/39 96/34/39
f 93/34/40 101/34/40 102/34/40 94/34/40
f 91/34/41 99/34/41 100/34/41 92/34/41
f 89/34/42 98/34/42 97/34/42 90/34/42
f 96/34/35 104/34/35 98/34/35 89/34/35
f 94/34/36 102/34/36 103/34/36 95/34/36
f 106/34/12 107/34/12 108/34/12 109/34/12 110/34/12 111/34/12 112/34/12 105/34/12
f 119/34/39 127/34/39 128/34/39 120/34/39
f 108/34/37 116/34/37 117/34/37 109/34/37
f 106/34/38 113/34/38 115/34/38 107/34/38
f 111/34/39 119/34/39 120/34/39 112/34/39
f 109/34/40 117/34/40 118/34/40 110/34/40
f 107/34/41 115/34/41 116/34/41 108/34/41
f 105/34/42 114/34/42 113/34/42 106/34/42
f 112/34/35 120/34/35 114/34/35 105/34/35
f 110/34/36 118/34/36 119/34/36 111/34/36
f 123/34/18 131/34/18 132/34/18 124/34/18
f 117/34/40 125/34/40 126/34/40 118/34/40
f 115/34/41 123/34/41 124/34/41 116/34/41
f 114/34/42 122/34/42 121/34/42 113/34/42
f 120/34/35 128/34/35 122/34/35 114/34/35
f 118/34/36 126/34/36 127/34/36 119/34/36
f 116/34/37 124/34/37 125/34/37 117/34/37
f 113/34/38 121/34/38 123/34/38 115/34/38
f 131/34/39 139/34/39 140/34/39 132/34/39
f 122/34/18 130/34/18 129/34/18 121/34/18
f 128/34/18 136/34/18 130/34/18 122/34/18
f 126/34/18 134/34/18 135/34/18 127/34/18
f 124/34/18 132/34/18 133/34/18 125/34/18
f 121/34/18 129/34/18 131/34/18 123/34/18
f 127/34/18 135/34/18 136/34/18 128/34/18
f 125/34/18 133/34/18 134/34/18 126/34/18
f 137/34/18 138/34/18 144/34/18 143/34/18 142/34/18 141/34/18 140/34/18 139/34/18
f 130/34/40 138/34/40 137/34/40 129/34/40
f 136/34/37 144/34/37 138/34/37 130/34/37
f 134/34/38 142/34/38 143/34/38 135/34/38
f 132/34/35 140/34/35 141/34/35 133/34/35
f 129/34/36 137/34/36 139/34/36 131/34/36
f 135/34/41 143/34/41 144/34/41 136/34/41
f 133/34/42 141/34/42 142/34/42 134/34/42
f 499/70/15 501/73/15 502/72/15 500/71/15
f 501/73/12 505/48/12 506/44/12 502/72/12
f 505/48/10 503/75/10 504/74/10 506/44/10
f 503/75/18 499/47/18 500/43/18 504/74/18
f 501/60/24 499/76/24 503/75/24 505/48/24
f 506/44/21 504/74/21 500/77/21 502/40/21
usemtl Material.002
f 289/70/15 291/73/15 292/72/15 290/71/15
f 291/73/12 295/48/12 296/44/12 292/72/12
f 295/48/10 293/75/10 294/74/10 296/44/10
f 293/75/18 289/47/18 290/43/18 294/74/18
f 291/60/24 289/76/24 293/75/24 295/48/24
f 296/44/21 294/74/21 290/77/21 292/40/21
f 306/78/15 307/79/15 300/72/15 298/71/15
f 307/79/87 309/80/87 304/44/87 300/72/87
f 309/80/10 311/81/10 302/74/10 304/44/10
f 311/81/88 306/82/88 298/43/88 302/74/88
f 299/60/24 297/76/24 301/75/24 303/48/24
f 304/44/21 302/74/21 298/77/21 300/40/21
f 301/75/18 297/47/18 305/84/18 312/83/18
f 312/83/89 305/84/89 306/82/89 311/81/89
f 303/48/10 301/75/10 312/83/10 310/85/10
f 310/85/10 312/83/10 311/81/10 309/80/10
f 299/73/12 303/48/12 310/85/12 308/86/12
f 308/86/90 310/85/90 309/80/90 307/79/90
f 297/70/15 299/73/15 308/86/15 305/87/15
f 305/87/15 308/86/15 307/79/15 306/78/15
f 322/78/15 323/79/15 316/72/15 314/71/15
f 323/79/87 325/80/87 320/44/87 316/72/87
f 325/80/10 327/81/10 318/74/10 320/44/10
f 327/81/88 322/82/88 314/43/88 318/74/88
f 315/60/24 313/76/24 317/75/24 319/48/24
f 320/44/21 318/74/21 314/77/21 316/40/21
f 317/75/18 313/47/18 321/84/18 328/83/18
f 328/83/89 321/84/89 322/82/89 327/81/89
f 319/48/10 317/75/10 328/83/10 326/85/10
f 326/85/10 328/83/10 327/81/10 325/80/10
f 315/73/12 319/48/12 326/85/12 324/86/12
f 324/86/90 326/85/90 325/80/90 323/79/90
f 313/70/15 315/73/15 324/86/15 321/87/15
f 321/87/15 324/86/15 323/79/15 322/78/15
f 510/75/18 507/47/18 508/43/18 511/74/18
f 509/60/24 507/76/24 510/75/24 512/48/24
f 513/116/203 515/40/203 518/118/203 517/117/203
f 515/119/204 514/121/204 516/120/204 518/118/204
f 517/117/21 511/74/21 508/77/21 513/116/21
f 507/70/15 509/73/15 514/121/15 515/119/15 513/122/15 508/71/15
f 509/73/12 512/48/12 516/120/12 514/121/12
f 512/48/10 510/75/10 511/74/10 517/117/10 518/118/10 516/120/10
f 520/73/12 523/48/12 524/44/12 521/72/12
f 520/60/24 519/76/24 522/75/24 523/48/24
f 528/123/203 530/125/203 527/77/203 526/124/203
f 530/125/204 529/127/204 525/126/204 527/43/204
f 522/75/18 519/47/18 525/126/18 529/127/18
f 519/70/15 520/73/15 521/72/15 526/130/15 527/129/15 525/128/15
f 524/44/21 528/123/21 526/124/21 521/40/21
f 523/48/10 522/75/10 529/127/10 530/125/10 528/123/10 524/44/10
usemtl 
f 344/88/91 331/72/91 354/89/91
f 353/42/92 330/44/92 329/74/92 352/90/92
f 354/89/93 331/72/93 330/44/93 353/42/93
f 352/90/94 329/74/94 351/91/94
f 344/92/95 334/93/95 331/72/95
f 330/44/96 333/46/96 332/94/96 329/74/96
f 331/72/97 334/93/97 333/46/97 330/44/97
f 329/74/98 332/94/98 351/95/98
f 344/96/99 337/73/99 334/93/99
f 333/46/100 336/48/100 335/75/100 332/94/100
f 334/93/101 337/73/101 336/48/101 333/46/101
f 332/94/102 335/75/102 351/97/102
f 344/98/103 340/99/103 337/73/103
f 336/48/104 339/50/104 338/100/104 335/75/104
f 337/73/105 340/99/105 339/50/105 336/48/105
f 335/75/106 338/100/106 351/101/106
f 344/102/107 343/103/107 340/99/107
f 339/50/108 342/60/108 341/76/108 338/100/108
f 340/99/109 343/103/109 342/60/109 339/50/109
f 338/100/110 341/76/110 351/104/110
f 341/76/111 345/106/111 351/105/111
f 344/107/112 347/108/112 343/103/112
f 342/60/113 346/61/113 345/106/113 341/76/113
f 343/103/114 347/108/114 346/61/114 342/60/114
f 347/109/115 350/110/115 349/40/115 346/38/115
f 345/111/116 348/77/116 351/112/116
f 344/113/117 350/110/117 347/109/117
f 346/38/118 349/40/118 348/77/118 345/111/118
f 350/110/119 354/89/119 353/42/119 349/40/119
f 348/77/120 352/90/120 351/114/120
f 344/115/121 354/89/121 350/110/121
f 349/40/122 353/42/122 352/90/122 348/77/122
usemtl Material.016
f 371/34/123 372/34/123 498/34/123 497/34/123 356/34/123 355/34/123 362/34/123 361/34/123 360/34/123 359/34/123
f 366/34/42 367/34/42 368/34/42 369/34/42 370/34/42 363/34/42 364/34/42 365/34/42
f 497/34/124 371/34/124 359/34/124 358/34/124 357/34/124 356/34/124
f 356/34/125 364/34/125 363/34/125 355/34/125
f 355/34/126 363/34/126 370/34/126 362/34/126
f 361/34/127 369/34/127 368/34/127 360/34/127
f 359/34/128 367/34/128 366/34/128 358/34/128
f 357/34/129 365/34/129 364/34/129 356/34/129
f 362/34/130 370/34/130 369/34/130 361/34/130
f 360/34/131 368/34/131 367/34/131 359/34/131
f 358/34/132 366/34/132 365/34/132 357/34/132
f 389/34/133 390/34/133 372/34/133 371/34/133 374/34/133 373/34/133 380/34/133 379/34/133 378/34/133 377/34/133
f 384/34/35 385/34/35 386/34/35 387/34/35 388/34/35 381/34/35 382/34/35 383/34/35
f 371/34/134 389/34/134 377/34/134 376/34/134 375/34/134 374/34/134
f 374/34/135 382/34/135 381/34/135 373/34/135
f 373/34/136 381/34/136 388/34/136 380/34/136
f 379/34/137 387/34/137 386/34/137 378/34/137
f 377/34/138 385/34/138 384/34/138 376/34/138
f 375/34/139 383/34/139 382/34/139 374/34/139
f 380/34/140 388/34/140 387/34/140 379/34/140
f 378/34/141 386/34/141 385/34/141 377/34/141
f 376/34/142 384/34/142 383/34/142 375/34/142
f 407/34/143 408/34/143 390/34/143 389/34/143 392/34/143 391/34/143 398/34/143 397/34/143 396/34/143 395/34/143
f 402/34/39 403/34/39 404/34/39 405/34/39 406/34/39 399/34/39 400/34/39 401/34/39
f 389/34/144 407/34/144 395/34/144 394/34/144 393/34/144 392/34/144
f 392/34/145 400/34/145 399/34/145 391/34/145
f 391/34/146 399/34/146 406/34/146 398/34/146
f 397/34/147 405/34/147 404/34/147 396/34/147
f 395/34/148 403/34/148 402/34/148 394/34/148
f 393/34/149 401/34/149 400/34/149 392/34/149
f 398/34/150 406/34/150 405/34/150 397/34/150
f 396/34/151 404/34/151 403/34/151 395/34/151
f 394/34/152 402/34/152 401/34/152 393/34/152
f 425/34/153 426/34/153 408/34/153 407/34/153 410/34/153 409/34/153 416/34/153 415/34/153 414/34/153 413/34/153
f 420/34/36 421/34/36 422/34/36 423/34/36 424/34/36 417/34/36 418/34/36 419/34/36
f 407/34/154 425/34/154 413/34/154 412/34/154 411/34/154 410/34/154
f 410/34/155 418/34/155 417/34/155 409/34/155
f 409/34/156 417/34/156 424/34/156 416/34/156
f 415/34/157 423/34/157 422/34/157 414/34/157
f 413/34/158 421/34/158 420/34/158 412/34/158
f 411/34/159 419/34/159 418/34/159 410/34/159
f 416/34/160 424/34/160 423/34/160 415/34/160
f 414/34/161 422/34/161 421/34/161 413/34/161
f 412/34/162 420/34/162 419/34/162 411/34/162
f 443/34/163 444/34/163 426/34/163 425/34/163 428/34/163 427/34/163 434/34/163 433/34/163 432/34/163 431/34/163
f 438/34/40 439/34/40 440/34/40 441/34/40 442/34/40 435/34/40 436/34/40 437/34/40
f 425/34/164 443/34/164 431/34/164 430/34/164 429/34/164 428/34/164
f 428/34/165 436/34/165 435/34/165 427/34/165
f 427/34/166 435/34/166 442/34/166 434/34/166
f 433/34/167 441/34/167 440/34/167 432/34/167
f 431/34/168 439/34/168 438/34/168 430/34/168
f 429/34/169 437/34/169 436/34/169 428/34/169
f 434/34/170 442/34/170 441/34/170 433/34/170
f 432/34/171 440/34/171 439/34/171 431/34/171
f 430/34/172 438/34/172 437/34/172 429/34/172
f 461/34/173 462/34/173 444/34/173 443/34/173 446/34/173 445/34/173 452/34/173 451/34/173 450/34/173 449/34/173
f 456/34/37 457/34/37 458/34/37 459/34/37 460/34/37 453/34/37 454/34/37 455/34/37
f 443/34/174 461/34/174 449/34/174 448/34/174 447/34/174 446/34/174
f 446/34/175 454/34/175 453/34/175 445/34/175
f 445/34/176 453/34/176 460/34/176 452/34/176
f 451/34/177 459/34/177 458/34/177 450/34/177
f 449/34/178 457/34/178 456/34/178 448/34/178
f 447/34/179 455/34/179 454/34/179 446/34/179
f 452/34/180 460/34/180 459/34/180 451/34/180
f 450/34/181 458/34/181 457/34/181 449/34/181
f 448/34/182 456/34/182 455/34/182 447/34/182
f 479/34/183 480/34/183 462/34/183 461/34/183 464/34/183 463/34/183 470/34/183 469/34/183 468/34/183 467/34/183
f 474/34/41 475/34/41 476/34/41 477/34/41 478/34/41 471/34/41 472/34/41 473/34/41
f 461/34/184 479/34/184 467/34/184 466/34/184 465/34/184 464/34/184
f 464/34/185 472/34/185 471/34/185 463/34/185
f 463/34/186 471/34/186 478/34/186 470/34/186
f 469/34/187 477/34/187 476/34/187 468/34/187
f 467/34/188 475/34/188 474/34/188 466/34/188
f 465/34/189 473/34/189 472/34/189 464/34/189
f 470/34/190 478/34/190 477/34/190 469/34/190
f 468/34/191 476/34/191 475/34/191 467/34/191
f 466/34/192 474/34/192 473/34/192 465/34/192
f 497/34/193 498/34/193 480/34/193 479/34/193 482/34/193 481/34/193 488/34/193 487/34/193 486/34/193 485/34/193
f 492/34/38 493/34/38 494/34/38 495/34/38 496/34/38 489/34/38 490/34/38 491/34/38
f 479/34/194 497/34/194 485/34/194 484/34/194 483/34/194 482/34/194
f 482/34/195 490/34/195 489/34/195 481/34/195
f 481/34/196 489/34/196 496/34/196 488/34/196
f 487/34/197 495/34/197 494/34/197 486/34/197
f 485/34/198 493/34/198 492/34/198 484/34/198
f 483/34/199 491/34/199 490/34/199 482/34/199
f 488/34/200 496/34/200 495/34/200 487/34/200
f 486/34/201 494/34/201 493/34/201 485/34/201
f 484/34/202 492/34/202 491/34/202 483/34/202
usemtl Material.001
f 534/75/18 531/47/18 532/43/18 535/74/18
f 533/60/24 531/76/24 534/75/24 536/48/24
f 537/116/203 539/40/203 542/118/203 541/117/203
f 539/119/204 538/121/204 540/120/204 542/118/204
f 541/117/21 535/74/21 532/77/21 537/116/21
f 531/70/15 533/73/15 538/121/15 539/119/15 537/122/15 532/71/15
f 533/73/12 536/48/12 540/120/12 538/121/12
f 536/48/10 534/75/10 535/74/10 541/117/10 542/118/10 540/120/10
f 544/73/12 547/48/12 548/44/12 545/72/12
f 544/60/24 543/76/24 546/75/24 547/48/24
f 552/123/203 554/125/203 551/77/203 550/124/203
f 554/125/204 553/127/204 549/126/204 551/43/204
f 546/75/18 543/47/18 549/126/18 553/127/18
f 543/70/15 544/73/15 545/72/15 550/130/15 551/129/15 549/128/15
f 548/44/21 552/123/21 550/124/21 545/40/21
f 547/48/10 546/75/10 553/127/10 554/125/10 552/123/10 548/44/10
usemtl Material.007
f 556/34/24 557/34/24 558/34/24 559/34/24 560/34/24 561/34/24 562/34/24 555/34/24
f 564/34/21 563/34/21 570/34/21 569/34/21 568/34/21 567/34/21 566/34/21 565/34/21
f 561/34/27 569/34/27 570/34/27 562/34/27
f 559/34/28 567/34/28 568/34/28 560/34/28
f 557/34/29 565/34/29 566/34/29 558/34/29
f 555/34/30 563/34/30 564/34/30 556/34/30
f 562/34/31 570/34/31 563/34/31 555/34/31
f 560/34/32 568/34/32 569/34/32 561/34/32
f 558/34/33 566/34/33 567/34/33 559/34/33
f 556/34/34 564/34/34 565/34/34 557/34/34
