# Blender 4.5.3 LTS
# www.blender.org
mtllib AcceleradorM1.mtl
o Torus.027
v -0.000204 0.000091 0.562153
v 0.056030 0.000091 0.547086
v 0.056030 0.000091 0.352286
v -0.000204 0.000091 0.337219
v -0.056438 0.000091 0.352286
v -0.056438 0.000091 0.547086
v -0.000204 0.173862 0.534631
v 0.056030 0.169206 0.520300
v 0.056030 0.109010 0.335035
v -0.000204 0.104354 0.320705
v -0.056438 0.109010 0.335035
v -0.056438 0.169206 0.520300
v -0.000204 0.330624 0.454757
v 0.056030 0.321768 0.442566
v 0.056030 0.207267 0.284971
v -0.000204 0.198411 0.272781
v -0.056438 0.207267 0.284971
v -0.056438 0.321768 0.442566
v -0.000204 0.455031 0.330350
v 0.056030 0.442841 0.321493
v 0.056030 0.285245 0.206993
v -0.000204 0.273055 0.198136
v -0.056438 0.285245 0.206993
v -0.056438 0.442841 0.321493
v -0.000204 0.534905 0.173588
v 0.056030 0.520575 0.168932
v 0.056030 0.335310 0.108736
v -0.000204 0.320979 0.104079
v -0.056438 0.335310 0.108736
v -0.056438 0.520575 0.168932
v -0.000204 0.562428 -0.000184
v 0.056030 0.547360 -0.000184
v 0.056030 0.352561 -0.000184
v -0.000204 0.337493 -0.000184
v -0.056438 0.352561 -0.000184
v -0.056438 0.547360 -0.000184
v -0.000204 0.534905 -0.173955
v 0.056030 0.520575 -0.169299
v 0.056030 0.335310 -0.109103
v -0.000204 0.320979 -0.104447
v -0.056438 0.335310 -0.109103
v -0.056438 0.520575 -0.169299
v -0.000204 0.455031 -0.330717
v 0.056030 0.442841 -0.321861
v 0.056030 0.285245 -0.207360
v -0.000204 0.273055 -0.198504
v -0.056438 0.285245 -0.207360
v -0.056438 0.442841 -0.321861
v -0.000204 0.330624 -0.455124
v 0.056030 0.321768 -0.442934
v 0.056030 0.207267 -0.285338
v -0.000204 0.198411 -0.273148
v -0.056438 0.207267 -0.285338
v -0.056438 0.321768 -0.442934
v -0.000204 0.173863 -0.534998
v 0.056030 0.169206 -0.520668
v 0.056030 0.109010 -0.335403
v -0.000204 0.104354 -0.321072
v -0.056438 0.109010 -0.335403
v -0.056438 0.169206 -0.520668
v -0.000204 0.000091 -0.562521
v 0.056030 0.000091 -0.547453
v 0.056030 0.000091 -0.352654
v -0.000204 0.000091 -0.337586
v -0.056438 0.000091 -0.352654
v -0.056438 0.000091 -0.547453
v -0.000204 -0.173681 -0.534998
v 0.056030 -0.169024 -0.520668
v 0.056030 -0.108828 -0.335403
v -0.000204 -0.104172 -0.321072
v -0.056438 -0.108828 -0.335403
v -0.056438 -0.169024 -0.520668
v -0.000204 -0.330442 -0.455124
v 0.056030 -0.321586 -0.442934
v 0.056030 -0.207086 -0.285338
v -0.000204 -0.198229 -0.273148
v -0.056438 -0.207086 -0.285338
v -0.056438 -0.321586 -0.442934
v -0.000204 -0.454849 -0.330717
v 0.056030 -0.442659 -0.321861
v 0.056030 -0.285063 -0.207360
v -0.000204 -0.272873 -0.198504
v -0.056438 -0.285063 -0.207360
v -0.056438 -0.442659 -0.321861
v -0.000204 -0.534723 -0.173955
v 0.056030 -0.520393 -0.169299
v 0.056030 -0.335128 -0.109103
v -0.000204 -0.320798 -0.104447
v -0.056438 -0.335128 -0.109103
v -0.056438 -0.520393 -0.169299
v -0.000204 -0.562246 -0.000184
v 0.056030 -0.547178 -0.000184
v 0.056030 -0.352379 -0.000184
v -0.000204 -0.337311 -0.000184
v -0.056438 -0.352379 -0.000184
v -0.056438 -0.547178 -0.000184
v -0.000204 -0.534723 0.173588
v 0.056030 -0.520393 0.168932
v 0.056030 -0.335128 0.108736
v -0.000204 -0.320798 0.104079
v -0.056438 -0.335128 0.108736
v -0.056438 -0.520393 0.168932
v -0.000204 -0.454850 0.330349
v 0.056030 -0.442659 0.321493
v 0.056030 -0.285063 0.206993
v -0.000204 -0.272873 0.198136
v -0.056438 -0.285063 0.206993
v -0.056438 -0.442659 0.321493
v -0.000204 -0.330443 0.454756
v 0.056030 -0.321586 0.442566
v 0.056030 -0.207086 0.284971
v -0.000204 -0.198229 0.272780
v -0.056438 -0.207086 0.284971
v -0.056438 -0.321586 0.442566
v -0.000204 -0.173681 0.534631
v 0.056030 -0.169025 0.520300
v 0.056030 -0.108828 0.335035
v -0.000204 -0.104172 0.320705
v -0.056438 -0.108828 0.335035
v -0.056438 -0.169025 0.520300
v -0.000204 0.000091 0.557655
v 0.054865 0.000091 0.542740
v 0.057194 0.000091 0.347941
v -0.000204 0.000091 0.332720
v -0.057602 0.000091 0.347941
v -0.055273 0.000091 0.542740
v -0.000204 0.172472 0.530352
v 0.054865 0.167863 0.516168
v 0.057194 0.107667 0.330903
v -0.000204 0.102964 0.316426
v -0.057602 0.107667 0.330903
v -0.055273 0.167863 0.516168
v -0.000204 0.327980 0.451117
v 0.054865 0.319213 0.439051
v 0.057194 0.204713 0.281455
v -0.000204 0.195767 0.269141
v -0.057602 0.204713 0.281455
v -0.055273 0.319213 0.439051
v -0.000204 0.451392 0.327705
v 0.054865 0.439326 0.318939
v 0.057194 0.281730 0.204439
v -0.000204 0.269415 0.195492
v -0.057602 0.281730 0.204439
v -0.055273 0.439326 0.318939
v -0.000204 0.530627 0.172198
v 0.054865 0.516442 0.167589
v 0.057194 0.331177 0.107393
v -0.000204 0.316701 0.102689
v -0.057602 0.331177 0.107393
v -0.055273 0.516442 0.167589
v -0.000204 0.557929 -0.000184
v 0.054865 0.543015 -0.000184
v 0.057194 0.348215 -0.000184
v -0.000204 0.332994 -0.000184
v -0.057602 0.348215 -0.000184
v -0.055273 0.543015 -0.000184
v -0.000204 0.530627 -0.172565
v 0.054865 0.516442 -0.167956
v 0.057194 0.331177 -0.107760
v -0.000204 0.316701 -0.103056
v -0.057602 0.331177 -0.107760
v -0.055273 0.516442 -0.167956
v -0.000204 0.451392 -0.328073
v 0.054865 0.439325 -0.319306
v 0.057194 0.281730 -0.204806
v -0.000204 0.269415 -0.195859
v -0.057602 0.281730 -0.204806
v -0.055273 0.439325 -0.319306
v -0.000204 0.327980 -0.451484
v 0.054865 0.319213 -0.439418
v 0.057194 0.204713 -0.281822
v -0.000204 0.195767 -0.269508
v -0.057602 0.204713 -0.281822
v -0.055273 0.319213 -0.439418
v -0.000204 0.172472 -0.530719
v 0.054865 0.167864 -0.516535
v 0.057194 0.107667 -0.331270
v -0.000204 0.102964 -0.316794
v -0.057602 0.107667 -0.331270
v -0.055273 0.167864 -0.516535
v -0.000204 0.000091 -0.558022
v 0.054865 0.000091 -0.543108
v 0.057194 0.000091 -0.348308
v -0.000204 0.000091 -0.333087
v -0.057602 0.000091 -0.348308
v -0.055273 0.000091 -0.543108
v -0.000204 -0.172290 -0.530720
v 0.054865 -0.167682 -0.516535
v 0.057194 -0.107485 -0.331270
v -0.000204 -0.102782 -0.316794
v -0.057602 -0.107485 -0.331270
v -0.055273 -0.167682 -0.516535
v -0.000204 -0.327798 -0.451484
v 0.054865 -0.319032 -0.439418
v 0.057194 -0.204532 -0.281822
v -0.000204 -0.195585 -0.269508
v -0.057602 -0.204532 -0.281822
v -0.055273 -0.319032 -0.439418
v -0.000204 -0.451210 -0.328073
v 0.054865 -0.439144 -0.319306
v 0.057194 -0.281548 -0.204806
v -0.000204 -0.269234 -0.195859
v -0.057602 -0.281548 -0.204806
v -0.055273 -0.439144 -0.319306
v -0.000204 -0.530445 -0.172565
v 0.054865 -0.516260 -0.167956
v 0.057194 -0.330995 -0.107760
v -0.000204 -0.316519 -0.103057
v -0.057602 -0.330995 -0.107760
v -0.055273 -0.516260 -0.167956
v -0.000204 -0.557747 -0.000184
v 0.054865 -0.542833 -0.000184
v 0.057194 -0.348034 -0.000184
v -0.000204 -0.332813 -0.000184
v -0.057602 -0.348034 -0.000184
v -0.055273 -0.542833 -0.000184
v -0.000204 -0.530445 0.172198
v 0.054865 -0.516260 0.167589
v 0.057194 -0.330995 0.107393
v -0.000204 -0.316519 0.102689
v -0.057602 -0.330995 0.107393
v -0.055273 -0.516260 0.167589
v -0.000204 -0.451210 0.327705
v 0.054865 -0.439144 0.318939
v 0.057194 -0.281548 0.204439
v -0.000204 -0.269234 0.195492
v -0.057602 -0.281548 0.204439
v -0.055273 -0.439144 0.318939
v -0.000204 -0.327799 0.451117
v 0.054865 -0.319032 0.439051
v 0.057194 -0.204532 0.281455
v -0.000204 -0.195585 0.269141
v -0.057602 -0.204532 0.281455
v -0.055273 -0.319032 0.439051
v -0.000204 -0.172291 0.530352
v 0.054865 -0.167682 0.516168
v 0.057194 -0.107486 0.330902
v -0.000204 -0.102782 0.316426
v -0.057602 -0.107486 0.330902
v -0.055273 -0.167682 0.516168
v -0.055273 -0.319134 0.438949
v -0.055273 -0.167558 0.516188
v -0.055273 0.516426 0.167621
v -0.055273 -0.439000 -0.319449
v 0.056030 0.207036 -0.285456
v 0.056030 -0.000835 -0.352507
v 0.056030 -0.335003 -0.109347
v -0.056438 -0.000421 -0.352573
v -0.000204 0.000091 0.562153
v 0.056030 0.000091 0.547086
v 0.056030 0.000091 0.352286
v -0.000204 0.000091 0.337219
v -0.056438 0.000091 0.352286
v -0.056438 0.000091 0.547086
v -0.000204 0.173862 0.534631
v 0.056030 0.169206 0.520300
v 0.056030 0.109010 0.335035
v -0.000204 0.104354 0.320705
v -0.056438 0.109010 0.335035
v -0.056438 0.169206 0.520300
v -0.000204 0.330624 0.454757
v 0.056030 0.321768 0.442566
v 0.056030 0.207267 0.284971
v -0.000204 0.198411 0.272781
v -0.056438 0.207267 0.284971
v -0.056438 0.321768 0.442566
v -0.000204 0.455031 0.330350
v 0.056030 0.442841 0.321493
v 0.056030 0.285245 0.206993
v -0.000204 0.273055 0.198136
v -0.056438 0.285245 0.206993
v -0.056438 0.442841 0.321493
v -0.000204 0.534905 0.173588
v 0.056030 0.520575 0.168932
v 0.056030 0.335310 0.108736
v -0.000204 0.320979 0.104079
v -0.056438 0.335310 0.108736
v -0.056438 0.520575 0.168932
v -0.000204 0.562428 -0.000184
v 0.056030 0.547360 -0.000184
v 0.056030 0.352561 -0.000184
v -0.000204 0.337493 -0.000184
v -0.056438 0.352561 -0.000184
v -0.056438 0.547360 -0.000184
v -0.000204 0.534905 -0.173955
v 0.056030 0.520575 -0.169299
v 0.056030 0.335310 -0.109103
v -0.000204 0.320979 -0.104447
v -0.056438 0.335310 -0.109103
v -0.056438 0.520575 -0.169299
v -0.000204 0.455031 -0.330717
v 0.056030 0.442841 -0.321861
v 0.056030 0.285245 -0.207360
v -0.000204 0.273055 -0.198504
v -0.056438 0.285245 -0.207360
v -0.056438 0.442841 -0.321861
v -0.000204 0.330624 -0.455124
v 0.056030 0.321768 -0.442934
v 0.056030 0.207267 -0.285338
v -0.000204 0.198411 -0.273148
v -0.056438 0.207267 -0.285338
v -0.056438 0.321768 -0.442934
v -0.000204 0.173863 -0.534998
v 0.056030 0.169206 -0.520668
v 0.056030 0.109010 -0.335403
v -0.000204 0.104354 -0.321072
v -0.056438 0.109010 -0.335403
v -0.056438 0.169206 -0.520668
v -0.000204 0.000091 -0.562521
v 0.056030 0.000091 -0.547453
v 0.056030 0.000091 -0.352654
v -0.000204 0.000091 -0.337586
v -0.056438 0.000091 -0.352654
v -0.056438 0.000091 -0.547453
v -0.000204 -0.173681 -0.534998
v 0.056030 -0.169024 -0.520668
v 0.056030 -0.108828 -0.335403
v -0.000204 -0.104172 -0.321072
v -0.056438 -0.108828 -0.335403
v -0.056438 -0.169024 -0.520668
v -0.000204 -0.330442 -0.455124
v 0.056030 -0.321586 -0.442934
v 0.056030 -0.207086 -0.285338
v -0.000204 -0.198229 -0.273148
v -0.056438 -0.207086 -0.285338
v -0.056438 -0.321586 -0.442934
v -0.000204 -0.454849 -0.330717
v 0.056030 -0.442659 -0.321861
v 0.056030 -0.285063 -0.207360
v -0.000204 -0.272873 -0.198504
v -0.056438 -0.285063 -0.207360
v -0.056438 -0.442659 -0.321861
v -0.000204 -0.534723 -0.173955
v 0.056030 -0.520393 -0.169299
v 0.056030 -0.335128 -0.109103
v -0.000204 -0.320798 -0.104447
v -0.056438 -0.335128 -0.109103
v -0.056438 -0.520393 -0.169299
v -0.000204 -0.562246 -0.000184
v 0.056030 -0.547178 -0.000184
v 0.056030 -0.352379 -0.000184
v -0.000204 -0.337311 -0.000184
v -0.056438 -0.352379 -0.000184
v -0.056438 -0.547178 -0.000184
v -0.000204 -0.534723 0.173588
v 0.056030 -0.520393 0.168932
v 0.056030 -0.335128 0.108736
v -0.000204 -0.320798 0.104079
v -0.056438 -0.335128 0.108736
v -0.056438 -0.520393 0.168932
v -0.000204 -0.454850 0.330349
v 0.056030 -0.442659 0.321493
v 0.056030 -0.285063 0.206993
v -0.000204 -0.272873 0.198136
v -0.056438 -0.285063 0.206993
v -0.056438 -0.442659 0.321493
v -0.000204 -0.330443 0.454756
v 0.056030 -0.321586 0.442566
v 0.056030 -0.207086 0.284971
v -0.000204 -0.198229 0.272780
v -0.056438 -0.207086 0.284971
v -0.056438 -0.321586 0.442566
v -0.000204 -0.173681 0.534631
v 0.056030 -0.169025 0.520300
v 0.056030 -0.108828 0.335035
v -0.000204 -0.104172 0.320705
v -0.056438 -0.108828 0.335035
v -0.056438 -0.169025 0.520300
v -0.000204 0.000091 0.557655
v 0.054865 0.000091 0.542740
v 0.057194 0.000091 0.347941
v -0.000204 0.000091 0.332720
v -0.057602 0.000091 0.347941
v -0.055273 0.000091 0.542740
v -0.000204 0.172472 0.530352
v 0.054865 0.167863 0.516168
v 0.057194 0.107667 0.330903
v -0.000204 0.102964 0.316426
v -0.057602 0.107667 0.330903
v -0.055273 0.167863 0.516168
v -0.000204 0.327980 0.451117
v 0.054865 0.319213 0.439051
v 0.057194 0.204713 0.281455
v -0.000204 0.195767 0.269141
v -0.057602 0.204713 0.281455
v -0.055273 0.319213 0.439051
v -0.000204 0.451392 0.327705
v 0.054865 0.439326 0.318939
v 0.057194 0.281730 0.204439
v -0.000204 0.269415 0.195492
v -0.057602 0.281730 0.204439
v -0.055273 0.439326 0.318939
v -0.000204 0.530627 0.172198
v 0.054865 0.516442 0.167589
v 0.057194 0.331177 0.107393
v -0.000204 0.316701 0.102689
v -0.057602 0.331177 0.107393
v -0.055273 0.516442 0.167589
v -0.000204 0.557929 -0.000184
v 0.054865 0.543015 -0.000184
v 0.057194 0.348215 -0.000184
v -0.000204 0.332994 -0.000184
v -0.057602 0.348215 -0.000184
v -0.055273 0.543015 -0.000184
v -0.000204 0.530627 -0.172565
v 0.054865 0.516442 -0.167956
v 0.057194 0.331177 -0.107760
v -0.000204 0.316701 -0.103056
v -0.057602 0.331177 -0.107760
v -0.055273 0.516442 -0.167956
v -0.000204 0.451392 -0.328073
v 0.054865 0.439325 -0.319306
v 0.057194 0.281730 -0.204806
v -0.000204 0.269415 -0.195859
v -0.057602 0.281730 -0.204806
v -0.055273 0.439325 -0.319306
v -0.000204 0.327980 -0.451484
v 0.054865 0.319213 -0.439418
v 0.057194 0.204713 -0.281822
v -0.000204 0.195767 -0.269508
v -0.057602 0.204713 -0.281822
v -0.055273 0.319213 -0.439418
v -0.000204 0.172472 -0.530719
v 0.054865 0.167864 -0.516535
v 0.057194 0.107667 -0.331270
v -0.000204 0.102964 -0.316794
v -0.057602 0.107667 -0.331270
v -0.055273 0.167864 -0.516535
v -0.000204 0.000091 -0.558022
v 0.054865 0.000091 -0.543108
v 0.057194 0.000091 -0.348308
v -0.000204 0.000091 -0.333087
v -0.057602 0.000091 -0.348308
v -0.055273 0.000091 -0.543108
v -0.000204 -0.172290 -0.530720
v 0.054865 -0.167682 -0.516535
v 0.057194 -0.107485 -0.331270
v -0.000204 -0.102782 -0.316794
v -0.057602 -0.107485 -0.331270
v -0.055273 -0.167682 -0.516535
v -0.000204 -0.327798 -0.451484
v 0.054865 -0.319032 -0.439418
v 0.057194 -0.204532 -0.281822
v -0.000204 -0.195585 -0.269508
v -0.057602 -0.204532 -0.281822
v -0.055273 -0.319032 -0.439418
v -0.000204 -0.451210 -0.328073
v 0.054865 -0.439144 -0.319306
v 0.057194 -0.281548 -0.204806
v -0.000204 -0.269234 -0.195859
v -0.057602 -0.281548 -0.204806
v -0.055273 -0.439144 -0.319306
v -0.000204 -0.530445 -0.172565
v 0.054865 -0.516260 -0.167956
v 0.057194 -0.330995 -0.107760
v -0.000204 -0.316519 -0.103057
v -0.057602 -0.330995 -0.107760
v -0.055273 -0.516260 -0.167956
v -0.000204 -0.557747 -0.000184
v 0.054865 -0.542833 -0.000184
v 0.057194 -0.348034 -0.000184
v -0.000204 -0.332813 -0.000184
v -0.057602 -0.348034 -0.000184
v -0.055273 -0.542833 -0.000184
v -0.000204 -0.530445 0.172198
v 0.054865 -0.516260 0.167589
v 0.057194 -0.330995 0.107393
v -0.000204 -0.316519 0.102689
v -0.057602 -0.330995 0.107393
v -0.055273 -0.516260 0.167589
v -0.000204 -0.451210 0.327705
v 0.054865 -0.439144 0.318939
v 0.057194 -0.281548 0.204439
v -0.000204 -0.269234 0.195492
v -0.057602 -0.281548 0.204439
v -0.055273 -0.439144 0.318939
v -0.000204 -0.327799 0.451117
v 0.054865 -0.319032 0.439051
v 0.057194 -0.204532 0.281455
v -0.000204 -0.195585 0.269141
v -0.057602 -0.204532 0.281455
v -0.055273 -0.319032 0.439051
v -0.000204 -0.172291 0.530352
v 0.054865 -0.167682 0.516168
v 0.057194 -0.107486 0.330902
v -0.000204 -0.102782 0.316426
v -0.057602 -0.107486 0.330902
v -0.055273 -0.167682 0.516168
v -0.055273 -0.319134 0.438949
v -0.055273 -0.167558 0.516188
v -0.055273 0.516426 0.167621
v -0.055273 -0.439000 -0.319449
v 0.056030 0.207036 -0.285456
v 0.056030 -0.000835 -0.352507
v 0.056030 -0.335003 -0.109347
v -0.056438 -0.000421 -0.352573
vn 0.2558 0.4389 0.8614
vn -0.2558 0.4389 0.8614
vn 0.2558 0.8614 0.4389
vn -0.2558 0.8614 0.4389
vn 0.2558 0.9548 -0.1512
vn -0.2558 0.9548 -0.1512
vn 0.2558 0.6836 -0.6836
vn -0.2558 0.6836 -0.6836
vn 0.2558 0.1512 -0.9548
vn -0.2558 0.1512 -0.9548
vn 0.2558 -0.4389 -0.8614
vn -0.2558 -0.4389 -0.8614
vn 0.2558 -0.8614 -0.4389
vn -0.2558 -0.8614 -0.4389
vn 0.2558 -0.9548 0.1512
vn -0.2558 -0.9548 0.1512
vn 0.2558 -0.6836 0.6836
vn -0.2558 -0.6836 0.6836
vn 0.2558 -0.1512 0.9548
vn -0.2558 -0.1512 0.9548
vn -0.2584 -0.4386 -0.8607
vn 0.2584 -0.4386 -0.8607
vn -0.2584 -0.8607 -0.4386
vn 0.2584 -0.8607 -0.4386
vn -0.2584 -0.9541 0.1511
vn 0.2584 -0.9541 0.1511
vn -0.2584 -0.6831 0.6831
vn 0.2584 -0.6831 0.6831
vn -0.2584 -0.1511 0.9541
vn 0.2584 -0.1511 0.9541
vn -0.2584 0.4386 0.8607
vn 0.2584 0.4386 0.8607
vn -0.2584 0.8607 0.4386
vn 0.2584 0.8607 0.4386
vn -0.2584 0.9541 -0.1511
vn 0.2584 0.9541 -0.1511
vn -0.2584 0.6831 -0.6831
vn 0.2584 0.6831 -0.6831
vn -0.2584 0.1511 -0.9541
vn 0.2584 0.1511 -0.9541
vn 0.9651 -0.1189 -0.2334
vn -0.9627 0.0812 0.2581
vn -0.9627 0.0815 0.2581
vn -0.9651 -0.0413 0.2587
vn -0.9651 0.0413 0.2587
vn 0.9627 0.0025 0.2706
vn 0.9627 0.0022 0.2707
vn 0.9651 0.1192 0.2333
vn 0.9651 0.0407 0.2588
vn 0.9627 0.1611 0.2174
vn 0.9627 0.1609 0.2176
vn 0.9651 0.2336 0.1187
vn 0.9651 0.1850 0.1855
vn 0.9627 -0.2581 -0.0812
vn 0.9627 -0.2581 -0.0815
vn 0.9651 -0.2587 0.0413
vn 0.9651 -0.2587 -0.0413
vn 0.9651 0.1186 -0.2337
vn 0.9627 0.0858 -0.2567
vn 0.9627 0.0860 -0.2566
vn 0.9651 0.1853 -0.1848
vn 0.9651 -0.0413 -0.2587
vn 0.9627 -0.0815 -0.2581
vn 0.9627 -0.0812 -0.2581
vn 0.9651 0.0414 -0.2584
vn -0.9659 0.0800 0.2461
vn -0.9659 0.1521 0.2093
vn 0.9627 -0.1570 0.2203
vn 0.9627 -0.1573 0.2202
vn 0.9651 -0.0407 0.2588
vn 0.9651 -0.1192 0.2333
vn 0.9627 -0.1611 -0.2174
vn 0.9627 -0.1609 -0.2177
vn 0.9651 -0.2336 -0.1187
vn 0.9651 -0.1850 -0.1855
vn 0.9651 0.2330 -0.1192
vn 0.9628 0.2200 -0.1572
vn 0.9628 0.2201 -0.1569
vn 0.9651 0.2589 -0.0406
vn 0.2558 0.1512 0.9548
vn -0.2558 0.1512 0.9548
vn 0.2558 0.6836 0.6836
vn -0.2558 0.6836 0.6836
vn 0.2558 0.9548 0.1512
vn -0.2558 0.9548 0.1512
vn 0.2558 0.8614 -0.4389
vn -0.2558 0.8614 -0.4389
vn 0.2558 0.4389 -0.8614
vn -0.2558 0.4389 -0.8614
vn 0.2558 -0.1512 -0.9548
vn -0.2558 -0.1512 -0.9548
vn 0.2558 -0.6836 -0.6836
vn -0.2558 -0.6836 -0.6836
vn 0.2558 -0.9548 -0.1512
vn -0.2558 -0.9548 -0.1512
vn 0.2558 -0.8614 0.4389
vn -0.2558 -0.8614 0.4389
vn 0.2558 -0.4389 0.8614
vn -0.2558 -0.4389 0.8614
vn -0.2584 -0.1511 -0.9541
vn 0.2534 -0.1513 -0.9555
vn -0.2534 -0.1513 -0.9555
vn 0.2584 -0.1511 -0.9541
vn 0.2534 -0.4392 -0.8619
vn -0.2534 -0.4392 -0.8619
vn -0.2584 -0.6831 -0.6831
vn 0.2534 -0.6840 -0.6840
vn -0.2534 -0.6840 -0.6840
vn 0.2584 -0.6831 -0.6831
vn 0.2534 -0.8619 -0.4392
vn -0.2534 -0.8619 -0.4392
vn -0.2584 -0.9541 -0.1511
vn 0.2534 -0.9555 -0.1513
vn -0.2534 -0.9555 -0.1513
vn 0.2584 -0.9541 -0.1511
vn 0.2534 -0.9555 0.1513
vn -0.2534 -0.9555 0.1513
vn -0.2584 -0.8607 0.4386
vn 0.2534 -0.8619 0.4392
vn -0.2534 -0.8619 0.4392
vn 0.2584 -0.8607 0.4386
vn 0.2534 -0.6840 0.6840
vn -0.2534 -0.6840 0.6840
vn -0.2584 -0.4386 0.8607
vn 0.2534 -0.4392 0.8619
vn -0.2534 -0.4392 0.8619
vn 0.2584 -0.4386 0.8607
vn 0.2534 -0.1513 0.9555
vn -0.2534 -0.1513 0.9555
vn -0.2584 0.1511 0.9541
vn 0.2534 0.1513 0.9555
vn -0.2534 0.1513 0.9555
vn 0.2584 0.1511 0.9541
vn 0.2534 0.4392 0.8619
vn -0.2534 0.4392 0.8619
vn -0.2584 0.6831 0.6831
vn 0.2534 0.6840 0.6840
vn -0.2534 0.6840 0.6840
vn 0.2584 0.6831 0.6831
vn 0.2534 0.8619 0.4392
vn -0.2534 0.8619 0.4392
vn -0.2584 0.9541 0.1511
vn 0.2534 0.9555 0.1513
vn -0.2534 0.9555 0.1513
vn 0.2584 0.9541 0.1511
vn 0.2534 0.9555 -0.1513
vn -0.2534 0.9555 -0.1513
vn -0.2584 0.8607 -0.4386
vn 0.2534 0.8619 -0.4392
vn -0.2534 0.8619 -0.4392
vn 0.2584 0.8607 -0.4386
vn 0.2534 0.6840 -0.6840
vn -0.2534 0.6840 -0.6840
vn -0.2584 0.4386 -0.8607
vn 0.2534 0.4392 -0.8619
vn -0.2534 0.4392 -0.8619
vn 0.2584 0.4386 -0.8607
vn 0.2534 0.1513 -0.9555
vn -0.2534 0.1513 -0.9555
vn 0.9651 0.0410 0.2586
vn 0.9651 -0.2588 -0.0399
vn 0.9627 -0.2706 -0.0016
vn 0.9627 -0.2707 -0.0013
vn 0.9659 -0.2460 -0.0801
vn 0.9654 -0.2338 -0.1155
vn 0.9651 0.2332 0.1188
vn 0.9651 -0.0413 0.2584
vn 0.9627 -0.0015 0.2707
vn 0.9626 -0.0012 0.2708
vn 0.9652 -0.1185 0.2333
vn 0.9653 -0.0359 -0.2586
vn 0.9627 -0.0822 -0.2578
vn 0.9627 -0.0825 -0.2578
vn 0.9557 -0.0221 -0.2935
vn 0.9651 0.2332 -0.1188
vn -0.9627 0.2707 0.0012
vn -0.9627 0.2706 0.0015
vn -0.9651 0.2333 0.1185
vn -0.9652 0.2584 0.0413
vn 0.9652 0.1202 -0.2323
vn 0.9627 0.0851 -0.2569
vn 0.9627 0.0848 -0.2571
vn 0.9558 0.1580 -0.2481
vn 0.9651 -0.2333 0.1185
vn 0.9627 -0.2199 0.1579
vn 0.9626 -0.2197 0.1582
vn 0.9651 -0.2584 0.0413
vn 0.9627 -0.2565 0.0860
vn 0.9627 -0.2567 0.0858
vn 0.9651 -0.1850 0.1855
vn 0.9651 -0.2336 0.1186
vn 0.9651 0.2587 0.0410
vn 0.9651 0.1848 0.1853
vn 0.9627 0.2181 0.1603
vn 0.9627 0.2183 0.1601
vn 0.9651 0.1191 0.2330
vn 0.9651 -0.1851 0.1851
vn 0.9651 -0.1848 -0.1853
vn 0.9627 -0.2181 -0.1603
vn 0.9626 -0.2183 -0.1601
vn 0.9652 -0.1191 -0.2330
vn -0.9659 -0.1522 -0.2095
vn -0.9660 -0.2092 -0.1523
vn -0.9659 -0.2095 -0.1522
vn 0.9652 0.2585 -0.0406
vn 0.9627 0.2578 -0.0822
vn 0.9627 0.2578 -0.0825
vn 0.9652 0.2585 0.0406
vn 0.9627 0.2706 -0.0025
vn 0.9627 0.2707 -0.0022
vn -0.9659 0.2463 -0.0800
vn -0.9659 0.2590 -0.0000
vn -0.9659 0.2095 -0.1522
vn -0.9659 0.1515 -0.2101
vn -0.9659 0.1563 -0.2063
vn -0.9659 0.0808 -0.2460
vn -0.9659 0.0756 -0.2477
vn -0.9651 0.1189 -0.2334
vn -0.9651 0.1193 -0.2331
vn -0.9659 -0.0000 -0.2590
vn -0.9659 -0.0800 -0.2463
vn -0.9659 -0.2464 -0.0798
vn -0.9659 -0.2449 -0.0843
vn -0.9659 -0.2590 -0.0000
vn -0.9651 -0.2587 -0.0413
vn -0.9659 -0.2463 0.0800
vn -0.9659 -0.2095 0.1522
vn -0.9659 -0.1522 0.2095
vn -0.9651 -0.1189 0.2334
vn -0.9627 -0.0815 0.2581
vn -0.9627 -0.0812 0.2581
vn -0.9659 0.1522 0.2095
vn -0.9651 0.1189 0.2334
vn -0.9659 0.2102 0.1512
vn -0.9659 0.2062 0.1565
vn -0.9659 0.2463 0.0800
vn -0.9651 0.2331 0.1192
vn 0.9627 0.2567 0.0858
vn 0.9627 0.2565 0.0860
vn 0.9627 0.1573 0.2203
vn 0.9627 0.1570 0.2204
vn 0.9627 -0.0022 0.2707
vn 0.9627 -0.0025 0.2706
vn 0.9627 -0.1609 0.2176
vn 0.9627 -0.1610 0.2174
vn 0.9627 -0.2581 0.0815
vn 0.9627 -0.2581 0.0812
vn 0.9627 -0.2567 -0.0858
vn 0.9627 -0.2565 -0.0860
vn 0.9628 0.0813 -0.2578
vn 0.9628 0.0816 -0.2578
vn 0.9628 0.2172 -0.1609
vn 0.9628 0.2174 -0.1607
vn 0.9627 -0.1582 0.2197
vn 0.9627 -0.1578 0.2198
vn 0.9627 0.0848 0.2571
vn 0.9627 0.0851 0.2569
vn 0.9627 0.2578 0.0825
vn 0.9627 0.2578 0.0822
vn 0.9627 0.2177 -0.1606
vn 0.9627 0.2183 -0.1602
vn 0.9627 0.2180 -0.1604
vn 0.9627 0.0815 -0.2579
vn 0.9627 0.0822 -0.2578
vn 0.9627 0.0818 -0.2578
vn 0.9627 -0.0848 -0.2571
vn 0.9627 -0.0851 -0.2569
vn 0.9627 -0.2197 -0.1582
vn 0.9627 -0.2199 -0.1579
vn 0.9627 -0.2707 0.0012
vn 0.9627 -0.2706 0.0015
vn -0.9659 -0.0800 0.2461
vn -0.9659 -0.1521 0.2093
vn -0.9659 -0.2093 0.1521
vn -0.9659 -0.2461 0.0800
vn -0.9659 -0.2587 -0.0000
vn -0.9659 -0.2461 -0.0800
vn -0.9659 -0.2093 -0.1521
vn -0.9659 -0.1521 -0.2093
vn -0.9660 -0.0799 -0.2461
vn -0.9660 -0.0800 -0.2461
vn -0.9659 0.0026 -0.2587
vn -0.9660 0.0008 -0.2587
vn -0.9660 0.0799 -0.2461
vn -0.9651 0.0407 -0.2585
vn -0.9659 0.1521 -0.2093
vn -0.9659 0.2093 -0.1521
vn -0.9659 0.2461 -0.0800
vn -0.9651 0.2585 -0.0409
vn -0.9627 0.2199 0.1579
vn -0.9626 0.2198 0.1582
vn -0.9651 0.1851 0.1851
vn -0.9659 -0.0000 0.2588
vn 0.9744 -0.0233 -0.2238
vn 0.9650 -0.0428 -0.2587
vn 0.9650 0.0428 -0.2587
vn 0.9541 -0.0588 -0.2936
vn -0.9744 -0.0470 -0.2200
vn -0.9650 -0.0393 -0.2593
vn -0.9650 -0.1206 -0.2329
vn -0.9541 -0.0348 -0.2974
vn -0.9744 -0.1673 -0.1503
vn -0.9650 -0.1842 -0.1867
vn -0.9650 -0.2344 -0.1175
vn -0.9541 -0.2029 -0.2201
vn -0.9744 0.2238 0.0232
vn -0.9650 0.2587 0.0428
vn -0.9650 0.2587 -0.0428
vn -0.9541 0.2936 0.0588
vn -0.9650 -0.1175 0.2345
vn -0.9649 -0.1868 0.1845
vn -0.9744 -0.1127 0.1947
vn -0.9541 -0.1250 0.2721
vn -0.9650 0.0428 0.2587
vn -0.9649 -0.0428 0.2591
vn -0.9744 0.0232 0.2237
vn -0.9541 0.0588 0.2936
vn 0.9659 -0.0800 -0.2461
vn 0.9659 -0.1521 -0.2093
vn -0.9744 0.0912 -0.2056
vn -0.9650 0.1206 -0.2329
vn -0.9650 0.0393 -0.2593
vn -0.9541 0.1466 -0.2610
vn -0.9744 0.1674 0.1503
vn -0.9650 0.1842 0.1867
vn -0.9650 0.2344 0.1175
vn -0.9541 0.2029 0.2201
vn -0.9649 -0.2332 0.1208
vn -0.9650 -0.2593 0.0392
vn -0.9744 -0.2054 0.0915
vn -0.9541 -0.2613 0.1464
vn 0.2559 0.6836 -0.6836
vn -0.2559 0.6836 -0.6836
vn -0.9651 -0.0410 -0.2586
vn -0.9651 0.2584 0.0413
vn -0.9682 0.2243 0.1107
vn -0.9659 0.2467 0.0781
vn -0.9747 0.2184 0.0473
vn -0.9540 0.2978 0.0348
vn -0.9651 -0.2332 -0.1188
vn -0.9652 0.0426 -0.2580
vn -0.9652 0.1172 -0.2338
vn -0.9747 0.0472 -0.2185
vn -0.9540 0.0347 -0.2978
vn -0.9654 0.0344 0.2586
vn -0.9757 0.0103 0.2191
vn -0.9747 0.0226 0.2223
vn -0.9540 0.0590 0.2939
vn -0.9651 -0.2332 0.1188
vn 0.9747 -0.2184 -0.0472
vn 0.9652 -0.2580 -0.0426
vn 0.9652 -0.2337 -0.1172
vn 0.9540 -0.2978 -0.0347
vn -0.9652 -0.1213 0.2315
vn -0.9757 -0.1238 0.1810
vn -0.9747 -0.1124 0.1932
vn -0.9540 -0.1250 0.2725
vn -0.9652 0.2338 -0.1172
vn -0.9652 0.2580 -0.0426
vn -0.9747 0.2045 -0.0902
vn -0.9540 0.2613 -0.1470
vn -0.9744 0.1946 -0.1127
vn -0.9650 0.2344 -0.1175
vn -0.9650 0.1842 -0.1866
vn -0.9541 0.2720 -0.1250
vn -0.9651 -0.2587 -0.0410
vn -0.9652 -0.1837 -0.1861
vn -0.9652 -0.1202 -0.2322
vn -0.9747 -0.1490 -0.1666
vn -0.9540 -0.2206 -0.2031
vn -0.9651 0.1851 -0.1851
vn -0.9652 0.1837 0.1861
vn -0.9652 0.1202 0.2322
vn -0.9747 0.1490 0.1666
vn -0.9540 0.2206 0.2031
vn 0.9659 0.1522 0.2095
vn 0.9659 0.2095 0.1522
vn 0.9658 0.2096 0.1525
vn -0.9652 -0.2585 0.0392
vn -0.9652 -0.2585 -0.0392
vn -0.9747 -0.2223 0.0226
vn -0.9540 -0.2939 0.0590
vn -0.9541 -0.2974 0.0348
vn -0.9744 -0.2200 0.0470
vn 0.9659 -0.2463 0.0800
vn 0.9659 -0.2590 -0.0000
vn 0.9659 -0.2095 0.1522
vn 0.9659 -0.1515 0.2101
vn 0.9659 -0.1565 0.2065
vn 0.9659 -0.0808 0.2460
vn 0.9651 -0.1194 0.2332
vn 0.9651 -0.1189 0.2334
vn 0.9659 -0.0756 0.2477
vn 0.9659 -0.0000 0.2590
vn 0.9659 0.0800 0.2463
vn 0.9659 0.2448 0.0843
vn 0.9659 0.2464 0.0798
vn 0.9651 0.2586 0.0413
vn 0.9659 0.2590 -0.0000
vn 0.9659 0.2463 -0.0800
vn 0.9659 0.2095 -0.1522
vn 0.9659 0.1522 -0.2095
vn 0.9651 0.1189 -0.2334
vn 0.9744 0.0233 -0.2237
vn 0.9541 0.0588 -0.2936
vn 0.9659 -0.1522 -0.2095
vn 0.9659 -0.2102 -0.1512
vn 0.9659 -0.2063 -0.1566
vn 0.9659 -0.2463 -0.0800
vn 0.9651 -0.2332 -0.1193
vn -0.9744 -0.1947 -0.1127
vn -0.9541 -0.2720 -0.1250
vn -0.9744 -0.0913 -0.2056
vn -0.9541 -0.1466 -0.2610
vn -0.9744 0.0470 -0.2200
vn -0.9541 0.0348 -0.2974
vn -0.9744 0.1673 -0.1503
vn -0.9542 0.2029 -0.2201
vn -0.9744 0.2237 -0.0232
vn -0.9541 0.2936 -0.0588
vn -0.9744 0.1947 0.1127
vn -0.9541 0.2720 0.1250
vn -0.9541 -0.0585 0.2937
vn -0.9744 -0.0235 0.2236
vn -0.9541 -0.2199 0.2032
vn -0.9744 -0.1505 0.1671
vn -0.9540 0.1470 -0.2613
vn -0.9747 0.0902 -0.2045
vn -0.9540 -0.1250 -0.2725
vn -0.9747 -0.1124 -0.1932
vn -0.9540 -0.2939 -0.0590
vn -0.9747 -0.2223 -0.0226
vn -0.9540 -0.2205 0.2032
vn -0.9747 -0.1489 0.1667
vn -0.9629 -0.2161 0.1618
vn -0.9540 -0.0587 0.2939
vn -0.9747 -0.0223 0.2223
vn -0.9629 -0.0794 0.2579
vn -0.9540 0.1250 0.2725
vn -0.9747 0.1124 0.1932
vn -0.9540 0.2613 0.1470
vn -0.9747 0.2045 0.0902
vn -0.9540 0.2978 -0.0347
vn -0.9747 0.2185 -0.0472
vn 0.9659 0.0800 -0.2461
vn 0.9659 0.1521 -0.2093
vn 0.9659 0.2093 -0.1521
vn 0.9659 0.2461 -0.0800
vn 0.9659 0.2587 -0.0000
vn 0.9659 0.2461 0.0800
vn 0.9659 0.2093 0.1521
vn 0.9659 0.1521 0.2093
vn 0.9660 0.0800 0.2461
vn 0.9660 0.0799 0.2461
vn 0.9660 -0.0008 0.2587
vn 0.9659 -0.0026 0.2587
vn 0.9651 -0.0407 0.2585
vn 0.9660 -0.0799 0.2461
vn 0.9659 -0.1521 0.2093
vn 0.9659 -0.2093 0.1521
vn 0.9659 -0.2461 0.0800
vn 0.9651 -0.2585 0.0409
vn 0.9747 -0.2045 -0.0902
vn 0.9540 -0.2613 -0.1470
vn 0.9651 -0.1851 -0.1851
vn 0.9659 -0.0000 -0.2588
vt 0.600000 0.500000
vt 0.600000 0.583333
vt 0.650000 0.583333
vt 0.650000 0.500000
vt 0.600000 0.416667
vt 0.650000 0.416667
vt 0.700000 0.500000
vt 0.700000 0.583333
vt 0.750000 0.583333
vt 0.750000 0.500000
vt 0.700000 0.416667
vt 0.750000 0.416667
vt 0.800000 0.500000
vt 0.800000 0.583333
vt 0.850000 0.583333
vt 0.850000 0.500000
vt 0.800000 0.416667
vt 0.850000 0.416667
vt 0.900000 0.500000
vt 0.900000 0.583333
vt 0.950000 0.583333
vt 0.950000 0.500000
vt 0.900000 0.416667
vt 0.950000 0.416667
vt 0.000000 0.500000
vt 0.000000 0.583333
vt 0.050000 0.583333
vt 0.050000 0.500000
vt 0.000000 0.416667
vt 0.050000 0.416667
vt 0.100000 0.500000
vt 0.100000 0.583333
vt 0.150000 0.583333
vt 0.150000 0.500000
vt 0.100000 0.416667
vt 0.150000 0.416667
vt 0.200000 0.500000
vt 0.200000 0.583333
vt 0.250000 0.583333
vt 0.250000 0.500000
vt 0.200000 0.416667
vt 0.250000 0.416667
vt 0.300000 0.500000
vt 0.300000 0.583333
vt 0.350000 0.583333
vt 0.350000 0.500000
vt 0.300000 0.416667
vt 0.350000 0.416667
vt 0.400000 0.500000
vt 0.400000 0.583333
vt 0.450000 0.583333
vt 0.450000 0.500000
vt 0.400000 0.416667
vt 0.450000 0.416667
vt 0.500000 0.500000
vt 0.500000 0.583333
vt 0.550000 0.583333
vt 0.550000 0.500000
vt 0.500000 0.416667
vt 0.550000 0.416667
vt 0.749990 0.416667
vt 0.449957 0.416667
vt 0.500037 0.416667
vt 0.600000 0.083333
vt 0.650000 0.083333
vt 1.000000 0.583333
vt 0.550000 0.916667
vt 0.600000 0.916667
vt 0.600000 1.000000
vt 0.550000 1.000000
vt 0.550000 0.000000
vt 0.600000 0.000000
vt 0.550000 0.083333
vt 0.650000 0.916667
vt 0.650000 1.000000
vt 0.650000 0.000000
vt 0.700000 0.916667
vt 0.700000 1.000000
vt 0.700000 0.000000
vt 0.700000 0.083333
vt 0.750000 0.916667
vt 0.750000 1.000000
vt 0.750000 0.000000
vt 0.750000 0.083333
vt 0.800000 0.916667
vt 0.800000 1.000000
vt 0.800000 0.000000
vt 0.800000 0.083333
vt 0.850000 0.916667
vt 0.850000 1.000000
vt 0.850000 0.000000
vt 0.850000 0.083333
vt 0.900000 0.916667
vt 0.900000 1.000000
vt 0.900000 0.000000
vt 0.900000 0.083333
vt 0.950000 0.916667
vt 0.950000 1.000000
vt 0.950000 0.000000
vt 0.950000 0.083333
vt 1.000000 0.500000
vt 0.950118 0.916667
vt 1.000000 0.916667
vt 1.000000 1.000000
vt 1.000000 0.000000
vt 1.000000 0.083333
vt 1.000000 0.416667
vt 0.000000 0.916667
vt 0.050000 0.916667
vt 0.050000 1.000000
vt 0.000000 1.000000
vt 0.000000 0.000000
vt 0.050000 0.000000
vt 0.050000 0.083333
vt 0.000000 0.083333
vt 0.050425 0.916667
vt 0.100000 0.916667
vt 0.100000 1.000000
vt 0.100000 0.000000
vt 0.100000 0.083333
vt 0.050235 0.083333
vt 0.150000 0.916667
vt 0.150000 1.000000
vt 0.150000 0.000000
vt 0.150000 0.083333
vt 0.200000 0.916667
vt 0.200000 1.000000
vt 0.200000 0.000000
vt 0.200000 0.083333
vt 0.249876 0.916667
vt 0.250000 0.916667
vt 0.250000 1.000000
vt 0.250000 0.000000
vt 0.250000 0.083333
vt 0.300000 0.916667
vt 0.300000 1.000000
vt 0.300000 0.000000
vt 0.300000 0.083333
vt 0.350000 0.916667
vt 0.350000 1.000000
vt 0.350000 0.000000
vt 0.350000 0.083333
vt 0.400000 0.916667
vt 0.400000 1.000000
vt 0.400000 0.000000
vt 0.400000 0.083333
vt 0.450000 0.916667
vt 0.450000 1.000000
vt 0.450000 0.000000
vt 0.450000 0.083333
vt 0.500000 0.916667
vt 0.500000 1.000000
vt 0.500000 0.000000
vt 0.500000 0.083333
vt 0.199940 0.416667
s 1
usemtl Naranja.003
f 7/1/1 8/2/1 14/3/1 13/4/1
f 12/5/2 7/1/2 13/4/2 18/6/2
f 19/7/3 20/8/3 26/9/3 25/10/3
f 24/11/4 19/7/4 25/10/4 30/12/4
f 31/13/5 32/14/5 38/15/5 37/16/5
f 36/17/6 31/13/6 37/16/6 42/18/6
f 43/19/7 44/20/7 50/21/7 49/22/7
f 48/23/8 43/19/8 49/22/8 54/24/8
f 55/25/9 56/26/9 62/27/9 61/28/9
f 60/29/10 55/25/10 61/28/10 66/30/10
f 67/31/11 68/32/11 74/33/11 73/34/11
f 72/35/12 67/31/12 73/34/12 78/36/12
f 79/37/13 80/38/13 86/39/13 85/40/13
f 84/41/14 79/37/14 85/40/14 90/42/14
f 91/43/15 92/44/15 98/45/15 97/46/15
f 96/47/16 91/43/16 97/46/16 102/48/16
f 103/49/17 104/50/17 110/51/17 109/52/17
f 108/53/18 103/49/18 109/52/18 114/54/18
f 115/55/19 116/56/19 2/57/19 1/58/19
f 120/59/20 115/55/20 1/58/20 6/60/20
f 255/1/12 261/4/12 262/3/12 256/2/12
f 260/5/11 266/6/11 261/4/11 255/1/11
f 267/7/14 273/10/14 274/9/14 268/8/14
f 272/11/13 278/12/13 273/10/13 267/7/13
f 279/13/16 285/16/16 286/15/16 280/14/16
f 284/17/15 290/18/15 285/16/15 279/13/15
f 291/19/18 297/22/18 298/21/18 292/20/18
f 296/23/17 302/24/17 297/22/17 291/19/17
f 303/25/20 309/28/20 310/27/20 304/26/20
f 308/29/19 314/30/19 309/28/19 303/25/19
f 315/31/2 321/34/2 322/33/2 316/32/2
f 320/35/1 326/36/1 321/34/1 315/31/1
f 327/37/4 333/40/4 334/39/4 328/38/4
f 332/41/3 338/42/3 333/40/3 327/37/3
f 339/43/6 345/46/6 346/45/6 340/44/6
f 344/47/5 350/48/5 345/46/5 339/43/5
f 351/49/8 357/52/8 358/51/8 352/50/8
f 356/53/7 362/54/7 357/52/7 351/49/7
f 363/55/10 249/58/10 250/57/10 364/56/10
f 368/59/9 254/60/9 249/58/9 363/55/9
usemtl Naranja.002
f 127/1/21 133/4/21 134/3/21 128/2/21
f 132/5/22 138/6/22 133/4/22 127/1/22
f 139/7/23 145/10/23 146/9/23 140/8/23
f 144/11/24 243/61/24 150/12/24 145/10/24 139/7/24
f 151/13/25 157/16/25 158/15/25 152/14/25
f 156/17/26 162/18/26 157/16/26 151/13/26
f 163/19/27 169/22/27 170/21/27 164/20/27
f 168/23/28 174/24/28 169/22/28 163/19/28
f 175/25/29 181/28/29 182/27/29 176/26/29
f 180/29/30 186/30/30 181/28/30 175/25/30
f 187/31/31 193/34/31 194/33/31 188/32/31
f 192/35/32 198/36/32 193/34/32 187/31/32
f 199/37/33 205/40/33 206/39/33 200/38/33
f 204/41/34 210/42/34 205/40/34 199/37/34
f 211/43/35 217/46/35 218/45/35 212/44/35
f 216/47/36 222/48/36 217/46/36 211/43/36
f 223/49/37 229/52/37 230/51/37 224/50/37
f 228/53/38 241/62/38 234/54/38 229/52/38 223/49/38
f 235/55/39 121/58/39 122/57/39 236/56/39
f 240/59/40 242/63/40 126/60/40 121/58/40 235/55/40
f 8/2/41 128/2/41 134/3/41 14/3/41
f 72/35/42 192/35/43 186/30/44 66/30/45
f 62/27/46 182/27/47 188/32/48 68/32/49
f 74/33/50 194/33/51 200/38/52 80/38/53
f 26/9/54 146/9/55 152/14/56 32/14/57
f 230/51/58 236/56/59 116/56/60 110/51/61
f 122/57/62 128/2/63 8/2/64 2/57/65
f 131/64/66 11/64/66 17/65/67 137/65/67
f 50/21/68 170/21/69 176/26/70 56/66/71
f 14/3/72 134/3/73 140/8/74 20/8/75
f 218/45/76 224/50/77 104/50/78 98/45/79
f 1/58/80 2/57/80 8/2/80 7/1/80
f 3/67/81 9/68/81 10/69/81 4/70/81
f 4/71/80 10/72/80 11/64/80 5/73/80
f 6/60/81 1/58/81 7/1/81 12/5/81
f 9/68/2 15/74/2 16/75/2 10/69/2
f 10/72/1 16/76/1 17/65/1 11/64/1
f 13/4/82 14/3/82 20/8/82 19/7/82
f 15/74/83 21/77/83 22/78/83 16/75/83
f 16/76/82 22/79/82 23/80/82 17/65/82
f 18/6/83 13/4/83 19/7/83 24/11/83
f 21/77/4 27/81/4 28/82/4 22/78/4
f 22/79/3 28/83/3 29/84/3 23/80/3
f 25/10/84 26/9/84 32/14/84 31/13/84
f 27/81/85 33/85/85 34/86/85 28/82/85
f 28/83/84 34/87/84 35/88/84 29/84/84
f 30/12/85 25/10/85 31/13/85 36/17/85
f 33/85/6 39/89/6 40/90/6 34/86/6
f 34/87/5 40/91/5 41/92/5 35/88/5
f 37/16/86 38/15/86 44/20/86 43/19/86
f 39/89/87 45/93/87 46/94/87 40/90/87
f 40/91/86 46/95/86 47/96/86 41/92/86
f 42/18/87 37/16/87 43/19/87 48/23/87
f 45/93/8 51/97/8 52/98/8 46/94/8
f 46/95/7 52/99/7 53/100/7 47/96/7
f 49/22/88 50/21/88 56/66/88 55/101/88
f 51/97/89 245/102/89 57/103/89 58/104/89 52/98/89
f 52/99/88 58/105/88 59/106/88 53/100/88
f 54/24/89 49/22/89 55/101/89 60/107/89
f 57/108/10 63/109/10 64/110/10 58/111/10
f 58/112/9 64/113/9 65/114/9 59/115/9
f 61/28/90 62/27/90 68/32/90 67/31/90
f 63/109/91 246/116/91 69/117/91 70/118/91 64/110/91
f 64/113/90 70/119/90 71/120/90 248/121/90 65/114/90
f 66/30/91 61/28/91 67/31/91 72/35/91
f 69/117/12 75/122/12 76/123/12 70/118/12
f 70/119/11 76/124/11 77/125/11 71/120/11
f 73/34/92 74/33/92 80/38/92 79/37/92
f 75/122/93 81/126/93 82/127/93 76/123/93
f 76/124/92 82/128/92 83/129/92 77/125/92
f 78/36/93 73/34/93 79/37/93 84/41/93
f 81/126/14 247/130/14 87/131/14 88/132/14 82/127/14
f 82/128/13 88/133/13 89/134/13 83/129/13
f 85/40/94 86/39/94 92/44/94 91/43/94
f 87/131/95 93/135/95 94/136/95 88/132/95
f 88/133/94 94/137/94 95/138/94 89/134/94
f 90/42/95 85/40/95 91/43/95 96/47/95
f 93/135/16 99/139/16 100/140/16 94/136/16
f 94/137/15 100/141/15 101/142/15 95/138/15
f 97/46/96 98/45/96 104/50/96 103/49/96
f 99/139/97 105/143/97 106/144/97 100/140/97
f 100/141/96 106/145/96 107/146/96 101/142/96
f 102/48/97 97/46/97 103/49/97 108/53/97
f 105/143/18 111/147/18 112/148/18 106/144/18
f 106/145/17 112/149/17 113/150/17 107/146/17
f 109/52/98 110/51/98 116/56/98 115/55/98
f 111/147/99 117/151/99 118/152/99 112/148/99
f 112/149/98 118/153/98 119/154/98 113/150/98
f 114/54/99 109/52/99 115/55/99 120/59/99
f 117/151/20 3/67/20 4/70/20 118/152/20
f 118/153/19 4/71/19 5/73/19 119/154/19
f 121/58/100 127/1/100 128/2/100 122/57/100
f 123/67/101 124/70/101 130/69/101 129/68/101
f 124/71/102 125/73/102 131/64/102 130/72/102
f 126/60/103 132/5/103 127/1/103 121/58/103
f 129/68/104 130/69/104 136/75/104 135/74/104
f 130/72/105 131/64/105 137/65/105 136/76/105
f 133/4/106 139/7/106 140/8/106 134/3/106
f 135/74/107 136/75/107 142/78/107 141/77/107
f 136/76/108 137/65/108 143/80/108 142/79/108
f 138/6/109 144/11/109 139/7/109 133/4/109
f 141/77/110 142/78/110 148/82/110 147/81/110
f 142/79/111 143/80/111 149/84/111 148/83/111
f 145/10/112 151/13/112 152/14/112 146/9/112
f 147/81/113 148/82/113 154/86/113 153/85/113
f 148/83/114 149/84/114 155/88/114 154/87/114
f 150/12/115 156/17/115 151/13/115 145/10/115
f 153/85/116 154/86/116 160/90/116 159/89/116
f 154/87/117 155/88/117 161/92/117 160/91/117
f 157/16/118 163/19/118 164/20/118 158/15/118
f 159/89/119 160/90/119 166/94/119 165/93/119
f 160/91/120 161/92/120 167/96/120 166/95/120
f 162/18/121 168/23/121 163/19/121 157/16/121
f 165/93/122 166/94/122 172/98/122 171/97/122
f 166/95/123 167/96/123 173/100/123 172/99/123
f 169/22/124 175/101/124 176/66/124 170/21/124
f 171/97/125 172/98/125 178/104/125 177/103/125
f 172/99/126 173/100/126 179/106/126 178/105/126
f 174/24/127 180/107/127 175/101/127 169/22/127
f 177/108/128 178/111/128 184/110/128 183/109/128
f 178/112/129 179/115/129 185/114/129 184/113/129
f 181/28/130 187/31/130 188/32/130 182/27/130
f 183/109/131 184/110/131 190/118/131 189/117/131
f 184/113/132 185/114/132 191/120/132 190/119/132
f 186/30/133 192/35/133 187/31/133 181/28/133
f 189/117/134 190/118/134 196/123/134 195/122/134
f 190/119/135 191/120/135 197/125/135 196/124/135
f 193/34/136 199/37/136 200/38/136 194/33/136
f 195/122/137 196/123/137 202/127/137 201/126/137
f 196/124/138 197/125/138 203/129/138 202/128/138
f 198/36/139 244/155/139 204/41/139 199/37/139 193/34/139
f 201/126/140 202/127/140 208/132/140 207/131/140
f 202/128/141 203/129/141 209/134/141 208/133/141
f 205/40/142 211/43/142 212/44/142 206/39/142
f 207/131/143 208/132/143 214/136/143 213/135/143
f 208/133/144 209/134/144 215/138/144 214/137/144
f 210/42/145 216/47/145 211/43/145 205/40/145
f 213/135/146 214/136/146 220/140/146 219/139/146
f 214/137/147 215/138/147 221/142/147 220/141/147
f 217/46/148 223/49/148 224/50/148 218/45/148
f 219/139/149 220/140/149 226/144/149 225/143/149
f 220/141/150 221/142/150 227/146/150 226/145/150
f 222/48/151 228/53/151 223/49/151 217/46/151
f 225/143/152 226/144/152 232/148/152 231/147/152
f 226/145/153 227/146/153 233/150/153 232/149/153
f 229/52/154 235/55/154 236/56/154 230/51/154
f 231/147/155 232/148/155 238/152/155 237/151/155
f 232/149/156 233/150/156 239/154/156 238/153/156
f 234/54/157 240/59/157 235/55/157 229/52/157
f 237/151/158 238/152/158 124/70/158 123/67/158
f 238/153/159 239/154/159 125/73/159 124/71/159
f 3/67/160 123/67/160 129/68/160 9/68/160
f 207/131/161 213/135/162 93/135/163 87/131/164 247/130/165
f 21/77/166 141/77/166 147/81/166 27/81/166
f 237/151/167 123/67/168 3/67/169 117/151/170
f 183/109/171 189/117/172 69/117/173 246/116/174
f 39/89/175 159/89/175 165/93/175 45/93/175
f 35/88/176 155/88/177 149/84/178 29/84/179
f 171/97/180 177/103/181 57/103/182 245/102/183
f 219/139/184 225/143/185 105/143/186 99/139/187
f 38/15/188 158/15/189 164/20/190 44/20/191
f 86/39/192 206/39/192 212/44/192 92/44/192
f 135/74/193 141/77/194 21/77/195 15/74/196
f 105/143/197 225/143/197 231/147/197 111/147/197
f 195/122/198 201/126/199 81/126/200 75/122/201
f 138/6/202 18/6/202 24/11/203 144/11/204
f 153/85/205 159/89/206 39/89/207 33/85/208
f 98/45/79 92/44/209 212/44/210 218/45/76
f 102/48/211 222/48/211 216/47/212 96/47/212
f 108/53/213 228/53/213 222/48/211 102/48/211
f 114/54/214 241/62/215 228/53/213 108/53/213
f 120/59/216 242/63/217 240/59/218 234/54/219 241/62/215 114/54/214
f 6/60/220 126/60/220 242/63/217 120/59/216
f 12/5/221 132/5/221 126/60/220 6/60/220
f 18/6/202 138/6/202 132/5/221 12/5/221
f 144/11/204 24/11/203 30/12/222 243/61/223
f 243/61/223 30/12/222 36/17/224 156/17/224 150/12/225
f 156/17/224 36/17/224 42/18/226 162/18/226
f 162/18/226 42/18/226 48/23/227 168/23/227
f 168/23/227 48/23/227 54/24/228 174/24/228
f 174/24/228 54/24/228 60/107/229 180/107/229
f 66/30/45 186/30/44 180/29/230 60/29/231
f 78/36/232 198/36/232 192/35/233 72/35/233
f 84/41/234 244/155/235 198/36/232 78/36/232
f 90/42/236 210/42/236 204/41/237 244/155/235 84/41/234
f 96/47/212 216/47/212 210/42/236 90/42/236
f 80/38/53 200/38/52 206/39/238 86/39/239
f 68/32/49 188/32/48 194/33/240 74/33/241
f 56/66/71 176/26/70 182/27/242 62/27/243
f 44/20/191 164/20/190 170/21/244 50/21/245
f 32/14/57 152/14/56 158/15/246 38/15/247
f 20/8/75 140/8/74 146/9/248 26/9/249
f 2/57/65 116/56/250 236/56/251 122/57/62
f 110/51/61 104/50/252 224/50/253 230/51/58
f 117/151/170 111/147/254 231/147/255 237/151/167
f 15/74/196 9/68/256 129/68/257 135/74/193
f 33/85/208 27/81/258 147/81/259 153/85/205
f 245/102/183 51/97/260 45/93/261 165/93/262 171/97/180
f 246/116/174 63/109/263 57/108/264 177/108/265 183/109/171
f 75/122/201 69/117/266 189/117/267 195/122/198
f 247/130/165 81/126/268 201/126/269 207/131/161
f 99/139/187 93/135/270 213/135/271 219/139/184
f 119/154/272 239/154/272 233/150/273 113/150/273
f 113/150/273 233/150/273 227/146/274 107/146/274
f 107/146/274 227/146/274 221/142/275 101/142/275
f 101/142/275 221/142/275 215/138/276 95/138/276
f 95/138/276 215/138/276 209/134/277 89/134/277
f 89/134/277 209/134/277 203/129/278 83/129/278
f 83/129/278 203/129/278 197/125/279 77/125/279
f 77/125/279 197/125/279 191/120/280 71/120/281
f 71/120/281 191/120/280 185/114/282 248/121/283
f 248/121/283 185/114/282 179/106/284 59/115/284 65/114/285
f 59/115/284 179/106/284 173/100/286 53/100/286
f 53/100/286 173/100/286 167/96/287 47/96/287
f 47/96/287 167/96/287 161/92/288 41/92/288
f 41/92/288 161/92/288 155/88/289 35/88/289
f 29/84/179 149/84/178 143/80/290 23/80/291
f 137/65/67 17/65/67 23/80/292 143/80/292
f 11/64/66 131/64/66 125/73/293 5/73/293
f 5/73/293 125/73/293 239/154/272 119/154/272
f 375/1/32 376/2/32 382/3/32 381/4/32
f 380/5/31 375/1/31 381/4/31 386/6/31
f 387/7/34 388/8/34 394/9/34 393/10/34
f 392/11/33 387/7/33 393/10/33 398/12/33 491/61/33
f 399/13/36 400/14/36 406/15/36 405/16/36
f 404/17/35 399/13/35 405/16/35 410/18/35
f 411/19/38 412/20/38 418/21/38 417/22/38
f 416/23/37 411/19/37 417/22/37 422/24/37
f 423/25/40 424/26/40 430/27/40 429/28/40
f 428/29/39 423/25/39 429/28/39 434/30/39
f 435/31/22 436/32/22 442/33/22 441/34/22
f 440/35/21 435/31/21 441/34/21 446/36/21
f 447/37/24 448/38/24 454/39/24 453/40/24
f 452/41/23 447/37/23 453/40/23 458/42/23
f 459/43/26 460/44/26 466/45/26 465/46/26
f 464/47/25 459/43/25 465/46/25 470/48/25
f 471/49/28 472/50/28 478/51/28 477/52/28
f 476/53/27 471/49/27 477/52/27 482/54/27 489/62/27
f 483/55/30 484/56/30 370/57/30 369/58/30
f 488/59/29 483/55/29 369/58/29 374/60/29 490/63/29
f 256/2/233 262/3/233 382/3/233 376/2/233
f 320/35/294 314/30/295 434/30/296 440/35/297
f 310/27/298 316/32/299 436/32/300 430/27/301
f 322/33/302 328/38/303 448/38/304 442/33/305
f 274/9/306 280/14/307 400/14/308 394/9/309
f 478/51/310 358/51/311 364/56/312 484/56/313
f 370/57/314 250/57/315 256/2/316 376/2/317
f 379/64/318 385/65/319 265/65/319 259/64/318
f 298/21/320 304/66/321 424/26/322 418/21/323
f 262/3/324 268/8/325 388/8/326 382/3/327
f 466/45/328 346/45/329 352/50/330 472/50/331
f 249/58/91 255/1/91 256/2/91 250/57/91
f 251/67/90 252/70/90 258/69/90 257/68/90
f 252/71/91 253/73/91 259/64/91 258/72/91
f 254/60/90 260/5/90 255/1/90 249/58/90
f 257/68/11 258/69/11 264/75/11 263/74/11
f 258/72/12 259/64/12 265/65/12 264/76/12
f 261/4/93 267/7/93 268/8/93 262/3/93
f 263/74/92 264/75/92 270/78/92 269/77/92
f 264/76/93 265/65/93 271/80/93 270/79/93
f 266/6/92 272/11/92 267/7/92 261/4/92
f 269/77/13 270/78/13 276/82/13 275/81/13
f 270/79/14 271/80/14 277/84/14 276/83/14
f 273/10/95 279/13/95 280/14/95 274/9/95
f 275/81/94 276/82/94 282/86/94 281/85/94
f 276/83/95 277/84/95 283/88/95 282/87/95
f 278/12/94 284/17/94 279/13/94 273/10/94
f 281/85/15 282/86/15 288/90/15 287/89/15
f 282/87/16 283/88/16 289/92/16 288/91/16
f 285/16/97 291/19/97 292/20/97 286/15/97
f 287/89/96 288/90/96 294/94/96 293/93/96
f 288/91/97 289/92/97 295/96/97 294/95/97
f 290/18/96 296/23/96 291/19/96 285/16/96
f 293/93/17 294/94/17 300/98/17 299/97/17
f 294/95/18 295/96/18 301/100/18 300/99/18
f 297/22/99 303/101/99 304/66/99 298/21/99
f 299/97/98 300/98/98 306/104/98 305/103/98 493/102/98
f 300/99/99 301/100/99 307/106/99 306/105/99
f 302/24/98 308/107/98 303/101/98 297/22/98
f 305/108/19 306/111/19 312/110/19 311/109/19
f 306/112/20 307/115/20 313/114/20 312/113/20
f 309/28/81 315/31/81 316/32/81 310/27/81
f 311/109/80 312/110/80 318/118/80 317/117/80 494/116/80
f 312/113/81 313/114/81 496/121/81 319/120/81 318/119/81
f 314/30/80 320/35/80 315/31/80 309/28/80
f 317/117/1 318/118/1 324/123/1 323/122/1
f 318/119/2 319/120/2 325/125/2 324/124/2
f 321/34/83 327/37/83 328/38/83 322/33/83
f 323/122/82 324/123/82 330/127/82 329/126/82
f 324/124/83 325/125/83 331/129/83 330/128/83
f 326/36/82 332/41/82 327/37/82 321/34/82
f 329/126/3 330/127/3 336/132/3 335/131/3 495/130/3
f 330/128/4 331/129/4 337/134/4 336/133/4
f 333/40/85 339/43/85 340/44/85 334/39/85
f 335/131/84 336/132/84 342/136/84 341/135/84
f 336/133/85 337/134/85 343/138/85 342/137/85
f 338/42/84 344/47/84 339/43/84 333/40/84
f 341/135/5 342/136/5 348/140/5 347/139/5
f 342/137/6 343/138/6 349/142/6 348/141/6
f 345/46/87 351/49/87 352/50/87 346/45/87
f 347/139/86 348/140/86 354/144/86 353/143/86
f 348/141/87 349/142/87 355/146/87 354/145/87
f 350/48/86 356/53/86 351/49/86 345/46/86
f 353/143/332 354/144/332 360/148/332 359/147/332
f 354/145/333 355/146/333 361/150/333 360/149/333
f 357/52/89 363/55/89 364/56/89 358/51/89
f 359/147/88 360/148/88 366/152/88 365/151/88
f 360/149/89 361/150/89 367/154/89 366/153/89
f 362/54/88 368/59/88 363/55/88 357/52/88
f 365/151/9 366/152/9 252/70/9 251/67/9
f 366/153/10 367/154/10 253/73/10 252/71/10
f 369/58/133 370/57/133 376/2/133 375/1/133
f 371/67/132 377/68/132 378/69/132 372/70/132
f 372/71/131 378/72/131 379/64/131 373/73/131
f 374/60/130 369/58/130 375/1/130 380/5/130
f 377/68/135 383/74/135 384/75/135 378/69/135
f 378/72/134 384/76/134 385/65/134 379/64/134
f 381/4/139 382/3/139 388/8/139 387/7/139
f 383/74/138 389/77/138 390/78/138 384/75/138
f 384/76/137 390/79/137 391/80/137 385/65/137
f 386/6/136 381/4/136 387/7/136 392/11/136
f 389/77/141 395/81/141 396/82/141 390/78/141
f 390/79/140 396/83/140 397/84/140 391/80/140
f 393/10/145 394/9/145 400/14/145 399/13/145
f 395/81/144 401/85/144 402/86/144 396/82/144
f 396/83/143 402/87/143 403/88/143 397/84/143
f 398/12/142 393/10/142 399/13/142 404/17/142
f 401/85/147 407/89/147 408/90/147 402/86/147
f 402/87/146 408/91/146 409/92/146 403/88/146
f 405/16/151 406/15/151 412/20/151 411/19/151
f 407/89/150 413/93/150 414/94/150 408/90/150
f 408/91/149 414/95/149 415/96/149 409/92/149
f 410/18/148 405/16/148 411/19/148 416/23/148
f 413/93/153 419/97/153 420/98/153 414/94/153
f 414/95/152 420/99/152 421/100/152 415/96/152
f 417/22/157 418/21/157 424/66/157 423/101/157
f 419/97/156 425/103/156 426/104/156 420/98/156
f 420/99/155 426/105/155 427/106/155 421/100/155
f 422/24/154 417/22/154 423/101/154 428/107/154
f 425/108/159 431/109/159 432/110/159 426/111/159
f 426/112/158 432/113/158 433/114/158 427/115/158
f 429/28/103 430/27/103 436/32/103 435/31/103
f 431/109/102 437/117/102 438/118/102 432/110/102
f 432/113/101 438/119/101 439/120/101 433/114/101
f 434/30/100 429/28/100 435/31/100 440/35/100
f 437/117/105 443/122/105 444/123/105 438/118/105
f 438/119/104 444/124/104 445/125/104 439/120/104
f 441/34/109 442/33/109 448/38/109 447/37/109
f 443/122/108 449/126/108 450/127/108 444/123/108
f 444/124/107 450/128/107 451/129/107 445/125/107
f 446/36/106 441/34/106 447/37/106 452/41/106 492/155/106
f 449/126/111 455/131/111 456/132/111 450/127/111
f 450/128/110 456/133/110 457/134/110 451/129/110
f 453/40/115 454/39/115 460/44/115 459/43/115
f 455/131/114 461/135/114 462/136/114 456/132/114
f 456/133/113 462/137/113 463/138/113 457/134/113
f 458/42/112 453/40/112 459/43/112 464/47/112
f 461/135/117 467/139/117 468/140/117 462/136/117
f 462/137/116 468/141/116 469/142/116 463/138/116
f 465/46/121 466/45/121 472/50/121 471/49/121
f 467/139/120 473/143/120 474/144/120 468/140/120
f 468/141/119 474/145/119 475/146/119 469/142/119
f 470/48/118 465/46/118 471/49/118 476/53/118
f 473/143/123 479/147/123 480/148/123 474/144/123
f 474/145/122 480/149/122 481/150/122 475/146/122
f 477/52/127 478/51/127 484/56/127 483/55/127
f 479/147/126 485/151/126 486/152/126 480/148/126
f 480/149/125 486/153/125 487/154/125 481/150/125
f 482/54/124 477/52/124 483/55/124 488/59/124
f 485/151/129 371/67/129 372/70/129 486/152/129
f 486/153/128 372/71/128 373/73/128 487/154/128
f 251/67/334 257/68/334 377/68/334 371/67/334
f 455/131/335 495/130/336 335/131/337 341/135/338 461/135/339
f 269/77/340 275/81/340 395/81/340 389/77/340
f 485/151/341 365/151/342 251/67/343 371/67/344
f 431/109/345 494/116/346 317/117/347 437/117/348
f 287/89/349 293/93/349 413/93/349 407/89/349
f 283/88/350 277/84/351 397/84/352 403/88/353
f 419/97/354 493/102/355 305/103/356 425/103/357
f 467/139/358 347/139/359 353/143/360 473/143/361
f 286/15/362 292/20/363 412/20/364 406/15/365
f 334/39/366 340/44/366 460/44/366 454/39/366
f 383/74/367 263/74/368 269/77/369 389/77/370
f 353/143/371 359/147/371 479/147/371 473/143/371
f 443/122/372 323/122/373 329/126/374 449/126/375
f 386/6/376 392/11/377 272/11/378 266/6/376
f 401/85/379 281/85/380 287/89/381 407/89/382
f 346/45/329 466/45/328 460/44/383 340/44/384
f 350/48/385 344/47/386 464/47/386 470/48/385
f 356/53/387 350/48/385 470/48/385 476/53/387
f 362/54/388 356/53/387 476/53/387 489/62/389
f 368/59/390 362/54/388 489/62/389 482/54/391 488/59/392 490/63/393
f 254/60/394 368/59/390 490/63/393 374/60/394
f 260/5/395 254/60/394 374/60/394 380/5/395
f 266/6/376 260/5/395 380/5/395 386/6/376
f 392/11/377 491/61/396 278/12/397 272/11/378
f 491/61/396 398/12/398 404/17/399 284/17/399 278/12/397
f 404/17/399 410/18/400 290/18/400 284/17/399
f 410/18/400 416/23/401 296/23/401 290/18/400
f 416/23/401 422/24/402 302/24/402 296/23/401
f 422/24/402 428/107/403 308/107/403 302/24/402
f 314/30/295 308/29/404 428/29/405 434/30/296
f 326/36/406 320/35/41 440/35/41 446/36/406
f 332/41/407 326/36/406 446/36/406 492/155/408
f 338/42/409 332/41/407 492/155/408 452/41/410 458/42/409
f 344/47/386 338/42/409 458/42/409 464/47/386
f 328/38/303 334/39/411 454/39/412 448/38/304
f 316/32/299 322/33/413 442/33/414 436/32/300
f 304/66/321 310/27/415 430/27/416 424/26/322
f 292/20/363 298/21/417 418/21/418 412/20/364
f 280/14/307 286/15/419 406/15/420 400/14/308
f 268/8/325 274/9/421 394/9/422 388/8/326
f 250/57/315 370/57/314 484/56/423 364/56/424
f 358/51/311 478/51/310 472/50/425 352/50/426
f 365/151/342 485/151/341 479/147/427 359/147/428
f 263/74/368 383/74/367 377/68/429 257/68/430
f 281/85/380 401/85/379 395/81/431 275/81/432
f 493/102/355 419/97/354 413/93/433 293/93/434 299/97/435
f 494/116/346 431/109/345 425/108/436 305/108/437 311/109/438
f 323/122/373 443/122/372 437/117/439 317/117/440
f 495/130/336 455/131/335 449/126/441 329/126/442
f 347/139/359 467/139/358 461/135/443 341/135/444
f 367/154/445 361/150/446 481/150/446 487/154/445
f 361/150/446 355/146/447 475/146/447 481/150/446
f 355/146/447 349/142/448 469/142/448 475/146/447
f 349/142/448 343/138/449 463/138/449 469/142/448
f 343/138/449 337/134/450 457/134/450 463/138/449
f 337/134/450 331/129/451 451/129/451 457/134/450
f 331/129/451 325/125/452 445/125/452 451/129/451
f 325/125/452 319/120/453 439/120/454 445/125/452
f 319/120/453 496/121/455 433/114/456 439/120/454
f 496/121/455 313/114/457 307/115/458 427/106/458 433/114/456
f 307/115/458 301/100/459 421/100/459 427/106/458
f 301/100/459 295/96/460 415/96/460 421/100/459
f 295/96/460 289/92/461 409/92/461 415/96/460
f 289/92/461 283/88/462 403/88/462 409/92/461
f 277/84/351 271/80/463 391/80/464 397/84/352
f 385/65/319 391/80/465 271/80/465 265/65/319
f 259/64/318 253/73/466 373/73/466 379/64/318
f 253/73/466 367/154/445 487/154/445 373/73/466
