# Blender 4.5.3 LTS
# www.blender.org
mtllib Accelerador.mtl
o Cube.076
v -0.360266 -0.063428 -0.130812
v -0.360266 -0.063428 0.136255
v -0.041039 -0.063428 -0.130812
v -0.041039 -0.063428 0.136255
v -0.360266 0.057601 -0.130812
v -0.262124 0.111328 -0.048706
v -0.360266 0.057601 0.136255
v -0.262124 0.111328 0.054149
v -0.139181 0.111328 -0.048706
v -0.041039 0.057601 -0.130812
v -0.041039 0.057601 0.136255
v -0.139181 0.111328 0.054149
v -0.045338 0.352818 -0.358464
v -0.045338 0.352818 0.376069
v 0.048931 0.352818 -0.358464
v 0.048931 0.352818 0.376069
v -0.045338 -0.360281 -0.358464
v -0.045338 -0.360281 0.376069
v 0.048931 -0.360281 -0.358464
v 0.048931 -0.360281 0.376069
v 0.055866 -0.000128 0.547649
v 0.097138 -0.000128 0.506376
v 0.112244 -0.000128 0.449998
v 0.097138 -0.000128 0.393619
v 0.055866 -0.000128 0.352346
v -0.056892 -0.000128 0.352346
v -0.098164 -0.000128 0.393619
v -0.113271 -0.000128 0.449998
v -0.098164 -0.000128 0.506376
v -0.056892 -0.000128 0.547649
v 0.055866 0.169424 0.520794
v 0.097138 0.156670 0.481542
v 0.112244 0.139248 0.427922
v 0.097138 0.121826 0.374303
v 0.055866 0.109072 0.335051
v -0.056892 0.109072 0.335051
v -0.098164 0.121826 0.374303
v -0.113271 0.139248 0.427922
v -0.098164 0.156670 0.481542
v -0.056892 0.169424 0.520794
v 0.055866 0.322379 0.442860
v 0.097138 0.298120 0.409470
v 0.112244 0.264981 0.363858
v 0.097138 0.231842 0.318247
v 0.055866 0.207583 0.284857
v -0.056892 0.207583 0.284857
v -0.098164 0.231842 0.318247
v -0.113271 0.264981 0.363858
v -0.098164 0.298120 0.409470
v -0.056892 0.322379 0.442860
v 0.055866 0.443765 0.321474
v 0.097138 0.410375 0.297215
v 0.112244 0.364763 0.264076
v 0.097138 0.319152 0.230937
v 0.055866 0.285762 0.206678
v -0.056892 0.285762 0.206678
v -0.098164 0.319152 0.230937
v -0.113271 0.364763 0.264076
v -0.098164 0.410375 0.297215
v -0.056892 0.443765 0.321474
v 0.055866 0.521699 0.168519
v 0.097138 0.482447 0.155765
v 0.112244 0.428827 0.138343
v 0.097138 0.375208 0.120921
v 0.055866 0.335956 0.108167
v -0.056892 0.335956 0.108167
v -0.098164 0.375208 0.120921
v -0.113271 0.428827 0.138343
v -0.098164 0.482447 0.155765
v -0.056892 0.521699 0.168519
v 0.055866 0.548554 -0.001033
v 0.097138 0.507281 -0.001033
v 0.112244 0.450903 -0.001033
v 0.097138 0.394524 -0.001033
v 0.055866 0.353251 -0.001033
v -0.056892 0.353251 -0.001033
v -0.098164 0.394524 -0.001033
v -0.113271 0.450903 -0.001033
v -0.098164 0.507281 -0.001033
v -0.056892 0.548554 -0.001033
v 0.055866 0.521699 -0.170585
v 0.097138 0.482447 -0.157831
v 0.112244 0.428827 -0.140409
v 0.097138 0.375208 -0.122987
v 0.055866 0.335956 -0.110234
v -0.056892 0.335956 -0.110234
v -0.098164 0.375208 -0.122987
v -0.113271 0.428827 -0.140409
v -0.098164 0.482447 -0.157831
v -0.056892 0.521699 -0.170585
v 0.055866 0.443765 -0.323540
v 0.097138 0.410375 -0.299281
v 0.112244 0.364763 -0.266143
v 0.097138 0.319152 -0.233004
v 0.055866 0.285762 -0.208745
v -0.056892 0.285762 -0.208745
v -0.098164 0.319152 -0.233004
v -0.113271 0.364763 -0.266143
v -0.098164 0.410375 -0.299281
v -0.056892 0.443765 -0.323540
v 0.055866 0.322379 -0.444926
v 0.097138 0.298120 -0.411536
v 0.112244 0.264981 -0.365925
v 0.097138 0.231842 -0.320313
v 0.055866 0.207583 -0.286924
v -0.056892 0.207583 -0.286924
v -0.098164 0.231842 -0.320313
v -0.113271 0.264981 -0.365925
v -0.098164 0.298120 -0.411536
v -0.056892 0.322379 -0.444926
v 0.055866 0.169424 -0.522861
v 0.097138 0.156670 -0.483608
v 0.112244 0.139248 -0.429989
v 0.097138 0.121826 -0.376369
v 0.055866 0.109072 -0.337117
v -0.056892 0.109072 -0.337117
v -0.098164 0.121826 -0.376369
v -0.113271 0.139248 -0.429989
v -0.098164 0.156670 -0.483608
v -0.056892 0.169424 -0.522861
v 0.055866 -0.000128 -0.549715
v 0.097138 -0.000128 -0.508443
v 0.112244 -0.000128 -0.452064
v 0.097138 -0.000128 -0.395685
v 0.055866 -0.000128 -0.354413
v -0.056892 -0.000128 -0.354413
v -0.098164 -0.000128 -0.395685
v -0.113271 -0.000128 -0.452064
v -0.098164 -0.000128 -0.508443
v -0.056892 -0.000128 -0.549715
v 0.055865 -0.169680 -0.522861
v 0.097138 -0.156926 -0.483609
v 0.112244 -0.139504 -0.429989
v 0.097138 -0.122082 -0.376370
v 0.055866 -0.109328 -0.337117
v -0.056892 -0.109328 -0.337117
v -0.098164 -0.122082 -0.376370
v -0.113271 -0.139504 -0.429989
v -0.098164 -0.156926 -0.483609
v -0.056892 -0.169680 -0.522861
v 0.055865 -0.322635 -0.444926
v 0.097138 -0.298376 -0.411536
v 0.112244 -0.265237 -0.365925
v 0.097138 -0.232099 -0.320313
v 0.055865 -0.207839 -0.286924
v -0.056892 -0.207839 -0.286924
v -0.098164 -0.232099 -0.320313
v -0.113271 -0.265237 -0.365925
v -0.098164 -0.298376 -0.411536
v -0.056892 -0.322635 -0.444926
v 0.055865 -0.444021 -0.323540
v 0.097138 -0.410631 -0.299281
v 0.112244 -0.365020 -0.266143
v 0.097138 -0.319408 -0.233004
v 0.055865 -0.286018 -0.208745
v -0.056892 -0.286018 -0.208745
v -0.098164 -0.319408 -0.233004
v -0.113271 -0.365020 -0.266143
v -0.098164 -0.410631 -0.299281
v -0.056892 -0.444021 -0.323540
v 0.055865 -0.521956 -0.170585
v 0.097138 -0.482703 -0.157831
v 0.112244 -0.429084 -0.140409
v 0.097138 -0.375464 -0.122987
v 0.055865 -0.336212 -0.110234
v -0.056892 -0.336212 -0.110234
v -0.098164 -0.375464 -0.122987
v -0.113271 -0.429084 -0.140409
v -0.098164 -0.482703 -0.157831
v -0.056892 -0.521956 -0.170585
v 0.055865 -0.548810 -0.001033
v 0.097138 -0.507538 -0.001033
v 0.112244 -0.451159 -0.001033
v 0.097138 -0.394780 -0.001033
v 0.055865 -0.353508 -0.001033
v -0.056892 -0.353508 -0.001033
v -0.098164 -0.394780 -0.001033
v -0.113271 -0.451159 -0.001033
v -0.098164 -0.507538 -0.001033
v -0.056892 -0.548810 -0.001033
v 0.055865 -0.521956 0.168519
v 0.097138 -0.482703 0.155765
v 0.112244 -0.429084 0.138343
v 0.097138 -0.375464 0.120921
v 0.055865 -0.336212 0.108167
v -0.056892 -0.336212 0.108167
v -0.098164 -0.375464 0.120921
v -0.113271 -0.429084 0.138343
v -0.098164 -0.482703 0.155765
v -0.056892 -0.521956 0.168519
v 0.055865 -0.444021 0.321474
v 0.097138 -0.410631 0.297214
v 0.112244 -0.365020 0.264076
v 0.097138 -0.319408 0.230937
v 0.055865 -0.286019 0.206678
v -0.056892 -0.286019 0.206678
v -0.098164 -0.319408 0.230937
v -0.113271 -0.365020 0.264076
v -0.098164 -0.410631 0.297214
v -0.056892 -0.444021 0.321474
v 0.055865 -0.322636 0.442859
v 0.097138 -0.298376 0.409470
v 0.112244 -0.265238 0.363858
v 0.097138 -0.232099 0.318247
v 0.055865 -0.207840 0.284857
v -0.056892 -0.207840 0.284857
v -0.098164 -0.232099 0.318247
v -0.113271 -0.265238 0.363858
v -0.098164 -0.298376 0.409470
v -0.056892 -0.322636 0.442859
v 0.055865 -0.169680 0.520794
v 0.097138 -0.156927 0.481542
v 0.112244 -0.139505 0.427922
v 0.097138 -0.122083 0.374303
v 0.055866 -0.109329 0.335051
v -0.056892 -0.109329 0.335051
v -0.098164 -0.122083 0.374303
v -0.113271 -0.139505 0.427922
v -0.098164 -0.156927 0.481542
v -0.056892 -0.169680 0.520794
v -0.166202 -0.004212 -0.254196
v -0.044582 -0.004212 -0.253518
v -0.166260 -0.029098 -0.243888
v -0.044639 -0.029098 -0.243210
v -0.166398 -0.039406 -0.219003
v -0.044778 -0.039406 -0.218325
v -0.166537 -0.029098 -0.194117
v -0.044916 -0.029098 -0.193439
v -0.166594 -0.004212 -0.183809
v -0.044974 -0.004212 -0.183131
v -0.166537 0.020674 -0.194117
v -0.044916 0.020674 -0.193439
v -0.166398 0.030982 -0.219003
v -0.044778 0.030982 -0.218325
v -0.166260 0.020674 -0.243888
v -0.044639 0.020674 -0.243210
v -0.193020 -0.004212 -0.249049
v -0.189150 -0.029098 -0.239494
v -0.179807 -0.039406 -0.216429
v -0.170464 -0.029098 -0.193363
v -0.166594 -0.004212 -0.183809
v -0.170464 0.020674 -0.193363
v -0.179807 0.030982 -0.216429
v -0.189150 0.020674 -0.239494
v -0.215861 -0.004212 -0.234081
v -0.208646 -0.029098 -0.226719
v -0.191228 -0.039406 -0.208945
v -0.173809 -0.029098 -0.191172
v -0.166594 -0.004212 -0.183809
v -0.173809 0.020674 -0.191172
v -0.191228 0.030982 -0.208945
v -0.208646 0.020674 -0.226719
v -0.231287 -0.004212 -0.211547
v -0.221813 -0.029098 -0.207485
v -0.198941 -0.039406 -0.197678
v -0.176068 -0.029098 -0.187871
v -0.166594 -0.004212 -0.183809
v -0.176068 0.020674 -0.187871
v -0.198941 0.030982 -0.197678
v -0.221813 0.020674 -0.207485
v -0.236975 -0.004212 -0.184838
v -0.226668 -0.029098 -0.184688
v -0.201785 -0.039406 -0.184324
v -0.176901 -0.029098 -0.183960
v -0.166594 -0.004212 -0.183809
v -0.176901 0.020674 -0.183960
v -0.201785 0.030982 -0.184324
v -0.226668 0.020674 -0.184688
v -0.237769 -0.004212 -0.130498
v -0.227462 -0.029098 -0.130347
v -0.202579 -0.039406 -0.129983
v -0.177696 -0.029098 -0.129619
v -0.167389 -0.004212 -0.129469
v -0.177696 0.020674 -0.129619
v -0.202579 0.030982 -0.129983
v -0.227462 0.020674 -0.130347
v 0.006605 -0.063427 -0.130812
v 0.006605 -0.063427 0.136255
v 0.325832 -0.063427 -0.130812
v 0.325832 -0.063427 0.136255
v 0.006605 0.057602 -0.130812
v 0.104747 0.111329 -0.048706
v 0.006605 0.057602 0.136255
v 0.104747 0.111329 0.054149
v 0.227690 0.111329 -0.048706
v 0.325832 0.057602 -0.130812
v 0.325832 0.057602 0.136255
v 0.227690 0.111329 0.054149
v 0.134569 0.066468 0.002772
v 0.141344 0.066468 0.028059
v 0.159856 0.066468 0.046571
v 0.185144 0.066468 0.053347
v 0.210431 0.066468 0.046571
v 0.228943 0.066468 0.028059
v 0.235719 0.066468 0.002772
v 0.228943 0.066468 -0.022516
v 0.210431 0.066468 -0.041028
v 0.185144 0.066468 -0.047803
v 0.159856 0.066468 -0.041028
v 0.141344 0.066468 -0.022516
v 0.141344 0.489353 0.028059
v 0.134569 0.489353 0.002772
v 0.159856 0.489353 0.046571
v 0.185144 0.489353 0.053347
v 0.210431 0.489353 0.046571
v 0.228943 0.489353 0.028059
v 0.235719 0.489353 0.002772
v 0.228943 0.489353 -0.022516
v 0.210431 0.489353 -0.041028
v 0.185144 0.489353 -0.047803
v 0.159856 0.489353 -0.041028
v 0.141344 0.489353 -0.022516
v 0.132337 0.494552 0.033260
v 0.124168 0.494552 0.002772
v 0.154656 0.494552 0.055579
v 0.185144 0.494552 0.063748
v 0.215632 0.494552 0.055579
v 0.237951 0.494552 0.033260
v 0.246120 0.494552 0.002772
v 0.237951 0.494552 -0.027716
v 0.215632 0.494552 -0.050035
v 0.185144 0.494552 -0.058204
v 0.154656 0.494552 -0.050035
v 0.132337 0.494552 -0.027716
v 0.153379 0.507701 0.021111
v 0.148465 0.507701 0.002772
v 0.166805 0.507701 0.034536
v 0.185144 0.507701 0.039450
v 0.203483 0.507701 0.034536
v 0.216908 0.507701 0.021111
v 0.221822 0.507701 0.002772
v 0.216908 0.507701 -0.015567
v 0.203483 0.507701 -0.028993
v 0.185144 0.507701 -0.033907
v 0.166805 0.507701 -0.028993
v 0.153379 0.507701 -0.015567
v 0.132337 0.507701 0.033260
v 0.124168 0.507701 0.002772
v 0.154656 0.507701 0.055579
v 0.185144 0.507701 0.063748
v 0.215632 0.507701 0.055579
v 0.237951 0.507701 0.033260
v 0.246120 0.507701 0.002772
v 0.237951 0.507701 -0.027716
v 0.215632 0.507701 -0.050035
v 0.185144 0.507701 -0.058204
v 0.154656 0.507701 -0.050035
v 0.132337 0.507701 -0.027716
v 0.153379 0.492961 0.021111
v 0.148465 0.492961 0.002772
v 0.166805 0.492961 0.034536
v 0.185144 0.492961 0.039450
v 0.203483 0.492961 0.034536
v 0.216908 0.492961 0.021111
v 0.221822 0.492961 0.002772
v 0.216908 0.492961 -0.015567
v 0.203483 0.492961 -0.028993
v 0.185144 0.492961 -0.033907
v 0.166805 0.492961 -0.028993
v 0.153379 0.492961 -0.015567
v -0.254647 0.066468 0.002772
v -0.247871 0.066468 0.028059
v -0.229359 0.066468 0.046571
v -0.204072 0.066468 0.053347
v -0.178784 0.066468 0.046571
v -0.160272 0.066468 0.028059
v -0.153496 0.066468 0.002772
v -0.160272 0.066468 -0.022516
v -0.178784 0.066468 -0.041028
v -0.204072 0.066468 -0.047803
v -0.229359 0.066468 -0.041028
v -0.247871 0.066468 -0.022516
v -0.247871 0.489353 0.028059
v -0.254647 0.489353 0.002772
v -0.229359 0.489353 0.046571
v -0.204072 0.489353 0.053347
v -0.178784 0.489353 0.046571
v -0.160272 0.489353 0.028059
v -0.153496 0.489353 0.002772
v -0.160272 0.489353 -0.022516
v -0.178784 0.489353 -0.041028
v -0.204072 0.489353 -0.047803
v -0.229359 0.489353 -0.041028
v -0.247871 0.489353 -0.022516
v -0.256878 0.494552 0.033260
v -0.265048 0.494552 0.002772
v -0.234560 0.494552 0.055579
v -0.204072 0.494552 0.063748
v -0.173584 0.494552 0.055579
v -0.151265 0.494552 0.033260
v -0.143095 0.494552 0.002772
v -0.151265 0.494552 -0.027716
v -0.173584 0.494552 -0.050035
v -0.204072 0.494552 -0.058204
v -0.234560 0.494552 -0.050035
v -0.256878 0.494552 -0.027716
v -0.235836 0.507701 0.021111
v -0.240750 0.507701 0.002772
v -0.222411 0.507701 0.034536
v -0.204072 0.507701 0.039450
v -0.185732 0.507701 0.034536
v -0.172307 0.507701 0.021111
v -0.167393 0.507701 0.002772
v -0.172307 0.507701 -0.015567
v -0.185732 0.507701 -0.028993
v -0.204072 0.507701 -0.033907
v -0.222411 0.507701 -0.028993
v -0.235836 0.507701 -0.015567
v -0.256878 0.507701 0.033260
v -0.265048 0.507701 0.002772
v -0.234560 0.507701 0.055579
v -0.204072 0.507701 0.063748
v -0.173584 0.507701 0.055579
v -0.151265 0.507701 0.033260
v -0.143095 0.507701 0.002772
v -0.151265 0.507701 -0.027716
v -0.173584 0.507701 -0.050035
v -0.204072 0.507701 -0.058204
v -0.234560 0.507701 -0.050035
v -0.256878 0.507701 -0.027716
v -0.235836 0.492961 0.021111
v -0.240750 0.492961 0.002772
v -0.222411 0.492961 0.034536
v -0.204072 0.492961 0.039450
v -0.185732 0.492961 0.034536
v -0.172307 0.492961 0.021111
v -0.167393 0.492961 0.002772
v -0.172307 0.492961 -0.015567
v -0.185732 0.492961 -0.028993
v -0.204072 0.492961 -0.033907
v -0.222411 0.492961 -0.028993
v -0.235836 0.492961 -0.015567
vn 1.0000 -0.0000 -0.0000
vn -0.0000 1.0000 -0.0000
vn -0.0000 -1.0000 -0.0000
vn -1.0000 -0.0000 -0.0000
vn -0.0000 -0.0000 -1.0000
vn -0.0000 -0.0000 1.0000
vn 0.7027 0.1113 0.7027
vn 0.9651 0.0410 0.2586
vn 0.9651 -0.0410 -0.2586
vn 0.7027 -0.1113 -0.7027
vn -0.7027 -0.1113 -0.7027
vn -0.9651 -0.0410 -0.2586
vn -0.9651 0.0410 0.2586
vn -0.7027 0.1113 0.7027
vn 0.7027 0.3230 0.6339
vn 0.9651 0.1189 0.2333
vn 0.9651 -0.1189 -0.2333
vn 0.7027 -0.3230 -0.6339
vn -0.7027 -0.3230 -0.6339
vn -0.9651 -0.1189 -0.2333
vn -0.9651 0.1189 0.2333
vn -0.7027 0.3230 0.6339
vn 0.7027 0.5031 0.5031
vn 0.9651 0.1851 0.1851
vn 0.9651 -0.1851 -0.1851
vn 0.7027 -0.5031 -0.5031
vn -0.7027 -0.5031 -0.5031
vn -0.9651 -0.1851 -0.1851
vn -0.9651 0.1851 0.1851
vn -0.7027 0.5031 0.5031
vn 0.7027 0.6339 0.3230
vn 0.9651 0.2333 0.1189
vn 0.9651 -0.2333 -0.1189
vn 0.7027 -0.6339 -0.3230
vn -0.7027 -0.6339 -0.3230
vn -0.9651 -0.2333 -0.1189
vn -0.9651 0.2333 0.1189
vn -0.7027 0.6339 0.3230
vn 0.7027 0.7027 0.1113
vn 0.9651 0.2586 0.0410
vn 0.9651 -0.2586 -0.0410
vn 0.7027 -0.7027 -0.1113
vn -0.7027 -0.7027 -0.1113
vn -0.9651 -0.2586 -0.0410
vn -0.9651 0.2586 0.0410
vn -0.7027 0.7027 0.1113
vn 0.7027 0.7027 -0.1113
vn 0.9651 0.2586 -0.0410
vn 0.9651 -0.2586 0.0410
vn 0.7027 -0.7027 0.1113
vn -0.7027 -0.7027 0.1113
vn -0.9651 -0.2586 0.0410
vn -0.9651 0.2586 -0.0410
vn -0.7027 0.7027 -0.1113
vn 0.7027 0.6339 -0.3230
vn 0.9651 0.2333 -0.1189
vn 0.9651 -0.2333 0.1189
vn 0.7027 -0.6339 0.3230
vn -0.7027 -0.6339 0.3230
vn -0.9651 -0.2333 0.1189
vn -0.9651 0.2333 -0.1189
vn -0.7027 0.6339 -0.3230
vn 0.7027 0.5031 -0.5031
vn 0.9651 0.1851 -0.1851
vn 0.9651 -0.1851 0.1851
vn 0.7027 -0.5031 0.5031
vn -0.7027 -0.5031 0.5031
vn -0.9651 -0.1851 0.1851
vn -0.9651 0.1851 -0.1851
vn -0.7027 0.5031 -0.5031
vn 0.7027 0.3230 -0.6339
vn 0.9651 0.1189 -0.2333
vn 0.9651 -0.1189 0.2333
vn 0.7027 -0.3230 0.6339
vn -0.7027 -0.3230 0.6339
vn -0.9651 -0.1189 0.2333
vn -0.9651 0.1189 -0.2333
vn -0.7027 0.3230 -0.6339
vn 0.7027 0.1113 -0.7027
vn 0.9651 0.0410 -0.2586
vn 0.9651 -0.0410 0.2586
vn 0.7027 -0.1113 0.7027
vn -0.7027 -0.1113 0.7027
vn -0.9651 -0.0410 0.2586
vn -0.9651 0.0410 -0.2586
vn -0.7027 0.1113 -0.7027
vn 1.0000 -0.0000 0.0056
vn -0.0146 -0.0000 0.9999
vn 0.1189 -0.8881 -0.4440
vn 0.4439 -0.8881 0.1190
vn -0.1190 -0.8881 0.4439
vn -0.1189 -0.8881 -0.4439
vn 0.4439 -0.8881 -0.1190
vn 0.1190 -0.8881 0.4439
vn -0.3250 -0.8881 -0.3250
vn -0.4439 -0.8881 0.1190
vn 0.3250 -0.8881 -0.3250
vn 0.3250 -0.8881 0.3250
vn -0.4439 -0.8881 -0.1190
vn -0.3250 -0.8881 0.3250
vn 0.9659 -0.0000 -0.2588
vn -0.9659 -0.0000 0.2588
vn -0.2588 -0.0000 -0.9659
vn 0.7071 -0.0000 0.7071
vn -0.7071 -0.0000 0.7071
vn -0.7071 -0.0000 -0.7071
vn 0.9659 -0.0000 0.2588
vn 0.7071 -0.0000 -0.7071
vn -0.2588 -0.0000 0.9659
vn -0.9659 -0.0000 -0.2588
vn 0.2588 -0.0000 -0.9659
vn 0.2588 -0.0000 0.9659
vn -0.0000 0.8368 -0.5476
vn -0.4802 0.8772 -0.0000
vn -0.0000 0.8368 0.5476
vn 0.4802 0.8772 -0.0000
vn 0.0052 -0.3827 -0.9239
vn 0.0021 -0.9239 -0.3827
vn -0.0021 -0.9239 0.3827
vn -0.0052 -0.3827 0.9239
vn -0.0052 0.3827 0.9239
vn -0.0021 0.9239 0.3827
vn 0.0021 0.9239 -0.3827
vn 0.0052 0.3827 -0.9239
vn 0.1747 -0.3765 0.9098
vn -0.2132 -0.9212 -0.3254
vn -0.0733 0.9212 -0.3820
vn -0.0733 -0.9212 -0.3820
vn 0.1747 0.3765 0.9098
vn -0.1746 0.3765 -0.9098
vn -0.1746 -0.3765 -0.9098
vn 0.0733 -0.9212 0.3820
vn 0.0733 0.9212 0.3820
vn -0.7645 0.3765 -0.5233
vn -0.2132 0.9212 -0.3254
vn 0.5076 0.3765 0.7750
vn 0.2132 -0.9212 0.3254
vn -0.5078 -0.3765 -0.7749
vn -0.5078 0.3765 -0.7749
vn 0.2132 0.9212 0.3254
vn 0.5076 -0.3765 0.7750
vn -0.3823 0.9237 -0.0245
vn 0.3210 0.9212 0.2197
vn 0.7645 -0.3765 0.5232
vn -0.3210 -0.9212 -0.2197
vn -0.3210 0.9212 -0.2197
vn 0.7645 0.3765 0.5232
vn 0.3210 -0.9212 0.2197
vn -0.7645 -0.3765 -0.5233
vn -0.3823 -0.9237 -0.0245
vn -0.9061 -0.3765 -0.1930
vn -0.9061 0.3765 -0.1930
vn 0.3825 -0.9238 0.0160
vn 0.9061 -0.3765 0.1930
vn 0.9061 0.3765 0.1930
vn 0.9238 0.3827 0.0135
vn -0.9238 -0.3827 -0.0135
vn -0.9238 0.3827 -0.0135
vn 0.9238 -0.3827 0.0135
vn 0.3825 0.9238 0.0160
vn 0.1189 -0.8881 -0.4439
vn -0.1189 -0.8881 -0.4440
vn 0.4439 -0.8881 -0.1189
vn -0.4439 -0.8881 0.1189
vn -0.4440 -0.8881 -0.1189
vt 0.375000 0.308985
vt 0.625000 0.308985
vt 0.625000 0.500000
vt 0.375000 0.500000
vt 0.375000 0.000000
vt 0.625000 0.000000
vt 0.625000 0.250000
vt 0.375000 0.250000
vt 0.625000 0.750000
vt 0.375000 0.750000
vt 0.625000 1.000000
vt 0.375000 1.000000
vt 0.125000 0.500000
vt 0.125000 0.750000
vt 0.875000 0.500000
vt 0.875000 0.750000
vt 0.625000 0.923141
vt 0.375000 0.923141
vt 0.550000 0.583333
vt 0.550000 0.666667
vt 0.600000 0.666667
vt 0.600000 0.583333
vt 0.550000 0.750000
vt 0.600000 0.750000
vt 0.550000 0.833333
vt 0.600000 0.833333
vt 0.550000 0.916667
vt 0.600000 0.916667
vt 0.550000 0.083333
vt 0.550000 0.166667
vt 0.600000 0.166667
vt 0.600000 0.083333
vt 0.550000 0.250000
vt 0.600000 0.250000
vt 0.550000 0.333333
vt 0.600000 0.333333
vt 0.550000 0.416667
vt 0.600000 0.416667
vt 0.650000 0.666667
vt 0.650000 0.583333
vt 0.650000 0.750000
vt 0.650000 0.833333
vt 0.650000 0.916667
vt 0.650000 0.166667
vt 0.650000 0.083333
vt 0.650000 0.250000
vt 0.650000 0.333333
vt 0.650000 0.416667
vt 0.700000 0.666667
vt 0.700000 0.583333
vt 0.700000 0.750000
vt 0.700000 0.833333
vt 0.700000 0.916667
vt 0.700000 0.166667
vt 0.700000 0.083333
vt 0.700000 0.250000
vt 0.700000 0.333333
vt 0.700000 0.416667
vt 0.750000 0.666667
vt 0.750000 0.583333
vt 0.750000 0.750000
vt 0.750000 0.833333
vt 0.750000 0.916667
vt 0.750000 0.166667
vt 0.750000 0.083333
vt 0.750000 0.250000
vt 0.750000 0.333333
vt 0.750000 0.416667
vt 0.800000 0.666667
vt 0.800000 0.583333
vt 0.800000 0.750000
vt 0.800000 0.833333
vt 0.800000 0.916667
vt 0.800000 0.166667
vt 0.800000 0.083333
vt 0.800000 0.250000
vt 0.800000 0.333333
vt 0.800000 0.416667
vt 0.850000 0.666667
vt 0.850000 0.583333
vt 0.850000 0.750000
vt 0.850000 0.833333
vt 0.850000 0.916667
vt 0.850000 0.166667
vt 0.850000 0.083333
vt 0.850000 0.250000
vt 0.850000 0.333333
vt 0.850000 0.416667
vt 0.900000 0.666667
vt 0.900000 0.583333
vt 0.900000 0.750000
vt 0.900000 0.833333
vt 0.900000 0.916667
vt 0.900000 0.166667
vt 0.900000 0.083333
vt 0.900000 0.250000
vt 0.900000 0.333333
vt 0.900000 0.416667
vt 0.950000 0.666667
vt 0.950000 0.583333
vt 0.950000 0.750000
vt 0.950000 0.833333
vt 0.950000 0.916667
vt 0.950000 0.166667
vt 0.950000 0.083333
vt 0.950000 0.250000
vt 0.950000 0.333333
vt 0.950000 0.416667
vt 1.000000 0.666667
vt 1.000000 0.583333
vt 1.000000 0.750000
vt 1.000000 0.833333
vt 1.000000 0.916667
vt 1.000000 0.166667
vt 1.000000 0.083333
vt 1.000000 0.250000
vt 1.000000 0.333333
vt 1.000000 0.416667
vt 0.000000 0.583333
vt 0.000000 0.666667
vt 0.050000 0.666667
vt 0.050000 0.583333
vt 0.000000 0.750000
vt 0.050000 0.750000
vt 0.000000 0.833333
vt 0.050000 0.833333
vt 0.000000 0.916667
vt 0.050000 0.916667
vt 0.000000 0.083333
vt 0.000000 0.166667
vt 0.050000 0.166667
vt 0.050000 0.083333
vt 0.000000 0.250000
vt 0.050000 0.250000
vt 0.000000 0.333333
vt 0.050000 0.333333
vt 0.000000 0.416667
vt 0.050000 0.416667
vt 0.100000 0.666667
vt 0.100000 0.583333
vt 0.100000 0.750000
vt 0.100000 0.833333
vt 0.100000 0.916667
vt 0.100000 0.166667
vt 0.100000 0.083333
vt 0.100000 0.250000
vt 0.100000 0.333333
vt 0.100000 0.416667
vt 0.150000 0.666667
vt 0.150000 0.583333
vt 0.150000 0.750000
vt 0.150000 0.833333
vt 0.150000 0.916667
vt 0.150000 0.166667
vt 0.150000 0.083333
vt 0.150000 0.250000
vt 0.150000 0.333333
vt 0.150000 0.416667
vt 0.200000 0.666667
vt 0.200000 0.583333
vt 0.200000 0.750000
vt 0.200000 0.833333
vt 0.200000 0.916667
vt 0.200000 0.166667
vt 0.200000 0.083333
vt 0.200000 0.250000
vt 0.200000 0.333333
vt 0.200000 0.416667
vt 0.250000 0.666667
vt 0.250000 0.583333
vt 0.250000 0.750000
vt 0.250000 0.833333
vt 0.250000 0.916667
vt 0.250000 0.166667
vt 0.250000 0.083333
vt 0.250000 0.250000
vt 0.250000 0.333333
vt 0.250000 0.416667
vt 0.300000 0.666667
vt 0.300000 0.583333
vt 0.300000 0.750000
vt 0.300000 0.833333
vt 0.300000 0.916667
vt 0.300000 0.166667
vt 0.300000 0.083333
vt 0.300000 0.250000
vt 0.300000 0.333333
vt 0.300000 0.416667
vt 0.350000 0.666667
vt 0.350000 0.583333
vt 0.350000 0.750000
vt 0.350000 0.833333
vt 0.350000 0.916667
vt 0.350000 0.166667
vt 0.350000 0.083333
vt 0.350000 0.250000
vt 0.350000 0.333333
vt 0.350000 0.416667
vt 0.400000 0.666667
vt 0.400000 0.583333
vt 0.400000 0.750000
vt 0.400000 0.833333
vt 0.400000 0.916667
vt 0.400000 0.166667
vt 0.400000 0.083333
vt 0.400000 0.250000
vt 0.400000 0.333333
vt 0.400000 0.416667
vt 0.450000 0.666667
vt 0.450000 0.583333
vt 0.450000 0.750000
vt 0.450000 0.833333
vt 0.450000 0.916667
vt 0.450000 0.166667
vt 0.450000 0.083333
vt 0.450000 0.250000
vt 0.450000 0.333333
vt 0.450000 0.416667
vt 0.500000 0.666667
vt 0.500000 0.583333
vt 0.500000 0.750000
vt 0.500000 0.833333
vt 0.500000 0.916667
vt 0.500000 0.166667
vt 0.500000 0.083333
vt 0.500000 0.250000
vt 0.500000 0.333333
vt 0.500000 0.416667
vt 0.419706 0.419706
vt 0.250000 0.490000
vt 0.080294 0.419706
vt 0.010000 0.250000
vt 0.080294 0.080294
vt 0.250000 0.010000
vt 0.419706 0.080294
vt 0.490000 0.250000
vt 0.750000 0.490000
vt 0.919706 0.419706
vt 0.990000 0.250000
vt 0.919706 0.080294
vt 0.750000 0.010000
vt 0.580294 0.080294
vt 0.510000 0.250000
vt 0.580294 0.419706
vt 0.000000 0.000000
vt 0.451859 0.076859
vt 0.451859 0.173141
vt 0.548141 0.076859
vt 0.548141 0.173141
vt 0.201859 0.500000
vt 0.201859 0.750000
vt 0.798141 0.500000
vt 0.798141 0.750000
vt 1.000000 0.500000
vt 1.000000 1.000000
vt 0.875000 1.000000
vt 0.750000 1.000000
vt 0.750000 0.500000
vt 0.500000 1.000000
vt 0.500000 0.500000
vt 0.250000 1.000000
vt 0.250000 0.500000
vt 0.125000 1.000000
vt 0.000000 1.000000
vt 0.000000 0.500000
s 1
usemtl Material.010
f 10/1/1 11/2/1 4/3/1 3/4/1
f 13/5/2 14/6/2 16/7/2 15/8/2
f 15/8/1 16/7/1 20/3/1 19/4/1
f 19/4/3 20/3/3 18/9/3 17/10/3
f 17/10/4 18/9/4 14/11/4 13/12/4
f 15/13/5 19/4/5 17/10/5 13/14/5
f 20/3/6 16/15/6 14/16/6 18/9/6
f 277/10/4 278/9/4 283/17/4 281/18/4
usemtl Material.001
f 21/19/7 22/20/7 32/21/7 31/22/7
f 22/20/8 23/23/8 33/24/8 32/21/8
f 23/23/9 24/25/9 34/26/9 33/24/9
f 24/25/10 25/27/10 35/28/10 34/26/10
f 26/29/11 27/30/11 37/31/11 36/32/11
f 27/30/12 28/33/12 38/34/12 37/31/12
f 28/33/13 29/35/13 39/36/13 38/34/13
f 29/35/14 30/37/14 40/38/14 39/36/14
f 31/22/15 32/21/15 42/39/15 41/40/15
f 32/21/16 33/24/16 43/41/16 42/39/16
f 33/24/17 34/26/17 44/42/17 43/41/17
f 34/26/18 35/28/18 45/43/18 44/42/18
f 36/32/19 37/31/19 47/44/19 46/45/19
f 37/31/20 38/34/20 48/46/20 47/44/20
f 38/34/21 39/36/21 49/47/21 48/46/21
f 39/36/22 40/38/22 50/48/22 49/47/22
f 41/40/23 42/39/23 52/49/23 51/50/23
f 42/39/24 43/41/24 53/51/24 52/49/24
f 43/41/25 44/42/25 54/52/25 53/51/25
f 44/42/26 45/43/26 55/53/26 54/52/26
f 46/45/27 47/44/27 57/54/27 56/55/27
f 47/44/28 48/46/28 58/56/28 57/54/28
f 48/46/29 49/47/29 59/57/29 58/56/29
f 49/47/30 50/48/30 60/58/30 59/57/30
f 51/50/31 52/49/31 62/59/31 61/60/31
f 52/49/32 53/51/32 63/61/32 62/59/32
f 53/51/33 54/52/33 64/62/33 63/61/33
f 54/52/34 55/53/34 65/63/34 64/62/34
f 56/55/35 57/54/35 67/64/35 66/65/35
f 57/54/36 58/56/36 68/66/36 67/64/36
f 58/56/37 59/57/37 69/67/37 68/66/37
f 59/57/38 60/58/38 70/68/38 69/67/38
f 61/60/39 62/59/39 72/69/39 71/70/39
f 62/59/40 63/61/40 73/71/40 72/69/40
f 63/61/41 64/62/41 74/72/41 73/71/41
f 64/62/42 65/63/42 75/73/42 74/72/42
f 66/65/43 67/64/43 77/74/43 76/75/43
f 67/64/44 68/66/44 78/76/44 77/74/44
f 68/66/45 69/67/45 79/77/45 78/76/45
f 69/67/46 70/68/46 80/78/46 79/77/46
f 71/70/47 72/69/47 82/79/47 81/80/47
f 72/69/48 73/71/48 83/81/48 82/79/48
f 73/71/49 74/72/49 84/82/49 83/81/49
f 74/72/50 75/73/50 85/83/50 84/82/50
f 76/75/51 77/74/51 87/84/51 86/85/51
f 77/74/52 78/76/52 88/86/52 87/84/52
f 78/76/53 79/77/53 89/87/53 88/86/53
f 79/77/54 80/78/54 90/88/54 89/87/54
f 81/80/55 82/79/55 92/89/55 91/90/55
f 82/79/56 83/81/56 93/91/56 92/89/56
f 83/81/57 84/82/57 94/92/57 93/91/57
f 84/82/58 85/83/58 95/93/58 94/92/58
f 86/85/59 87/84/59 97/94/59 96/95/59
f 87/84/60 88/86/60 98/96/60 97/94/60
f 88/86/61 89/87/61 99/97/61 98/96/61
f 89/87/62 90/88/62 100/98/62 99/97/62
f 91/90/63 92/89/63 102/99/63 101/100/63
f 92/89/64 93/91/64 103/101/64 102/99/64
f 93/91/65 94/92/65 104/102/65 103/101/65
f 94/92/66 95/93/66 105/103/66 104/102/66
f 96/95/67 97/94/67 107/104/67 106/105/67
f 97/94/68 98/96/68 108/106/68 107/104/68
f 98/96/69 99/97/69 109/107/69 108/106/69
f 99/97/70 100/98/70 110/108/70 109/107/70
f 101/100/71 102/99/71 112/109/71 111/110/71
f 102/99/72 103/101/72 113/111/72 112/109/72
f 103/101/73 104/102/73 114/112/73 113/111/73
f 104/102/74 105/103/74 115/113/74 114/112/74
f 106/105/75 107/104/75 117/114/75 116/115/75
f 107/104/76 108/106/76 118/116/76 117/114/76
f 108/106/77 109/107/77 119/117/77 118/116/77
f 109/107/78 110/108/78 120/118/78 119/117/78
f 111/119/79 112/120/79 122/121/79 121/122/79
f 112/120/80 113/123/80 123/124/80 122/121/80
f 113/123/81 114/125/81 124/126/81 123/124/81
f 114/125/82 115/127/82 125/128/82 124/126/82
f 116/129/83 117/130/83 127/131/83 126/132/83
f 117/130/84 118/133/84 128/134/84 127/131/84
f 118/133/85 119/135/85 129/136/85 128/134/85
f 119/135/86 120/137/86 130/138/86 129/136/86
f 121/122/10 122/121/10 132/139/10 131/140/10
f 122/121/9 123/124/9 133/141/9 132/139/9
f 123/124/8 124/126/8 134/142/8 133/141/8
f 124/126/7 125/128/7 135/143/7 134/142/7
f 126/132/14 127/131/14 137/144/14 136/145/14
f 127/131/13 128/134/13 138/146/13 137/144/13
f 128/134/12 129/136/12 139/147/12 138/146/12
f 129/136/11 130/138/11 140/148/11 139/147/11
f 131/140/18 132/139/18 142/149/18 141/150/18
f 132/139/17 133/141/17 143/151/17 142/149/17
f 133/141/16 134/142/16 144/152/16 143/151/16
f 134/142/15 135/143/15 145/153/15 144/152/15
f 136/145/22 137/144/22 147/154/22 146/155/22
f 137/144/21 138/146/21 148/156/21 147/154/21
f 138/146/20 139/147/20 149/157/20 148/156/20
f 139/147/19 140/148/19 150/158/19 149/157/19
f 141/150/26 142/149/26 152/159/26 151/160/26
f 142/149/25 143/151/25 153/161/25 152/159/25
f 143/151/24 144/152/24 154/162/24 153/161/24
f 144/152/23 145/153/23 155/163/23 154/162/23
f 146/155/30 147/154/30 157/164/30 156/165/30
f 147/154/29 148/156/29 158/166/29 157/164/29
f 148/156/28 149/157/28 159/167/28 158/166/28
f 149/157/27 150/158/27 160/168/27 159/167/27
f 151/160/34 152/159/34 162/169/34 161/170/34
f 152/159/33 153/161/33 163/171/33 162/169/33
f 153/161/32 154/162/32 164/172/32 163/171/32
f 154/162/31 155/163/31 165/173/31 164/172/31
f 156/165/38 157/164/38 167/174/38 166/175/38
f 157/164/37 158/166/37 168/176/37 167/174/37
f 158/166/36 159/167/36 169/177/36 168/176/36
f 159/167/35 160/168/35 170/178/35 169/177/35
f 161/170/42 162/169/42 172/179/42 171/180/42
f 162/169/41 163/171/41 173/181/41 172/179/41
f 163/171/40 164/172/40 174/182/40 173/181/40
f 164/172/39 165/173/39 175/183/39 174/182/39
f 166/175/46 167/174/46 177/184/46 176/185/46
f 167/174/45 168/176/45 178/186/45 177/184/45
f 168/176/44 169/177/44 179/187/44 178/186/44
f 169/177/43 170/178/43 180/188/43 179/187/43
f 171/180/50 172/179/50 182/189/50 181/190/50
f 172/179/49 173/181/49 183/191/49 182/189/49
f 173/181/48 174/182/48 184/192/48 183/191/48
f 174/182/47 175/183/47 185/193/47 184/192/47
f 176/185/54 177/184/54 187/194/54 186/195/54
f 177/184/53 178/186/53 188/196/53 187/194/53
f 178/186/52 179/187/52 189/197/52 188/196/52
f 179/187/51 180/188/51 190/198/51 189/197/51
f 181/190/58 182/189/58 192/199/58 191/200/58
f 182/189/57 183/191/57 193/201/57 192/199/57
f 183/191/56 184/192/56 194/202/56 193/201/56
f 184/192/55 185/193/55 195/203/55 194/202/55
f 186/195/62 187/194/62 197/204/62 196/205/62
f 187/194/61 188/196/61 198/206/61 197/204/61
f 188/196/60 189/197/60 199/207/60 198/206/60
f 189/197/59 190/198/59 200/208/59 199/207/59
f 191/200/66 192/199/66 202/209/66 201/210/66
f 192/199/65 193/201/65 203/211/65 202/209/65
f 193/201/64 194/202/64 204/212/64 203/211/64
f 194/202/63 195/203/63 205/213/63 204/212/63
f 196/205/70 197/204/70 207/214/70 206/215/70
f 197/204/69 198/206/69 208/216/69 207/214/69
f 198/206/68 199/207/68 209/217/68 208/216/68
f 199/207/67 200/208/67 210/218/67 209/217/67
f 201/210/74 202/209/74 212/219/74 211/220/74
f 202/209/73 203/211/73 213/221/73 212/219/73
f 203/211/72 204/212/72 214/222/72 213/221/72
f 204/212/71 205/213/71 215/223/71 214/222/71
f 206/215/78 207/214/78 217/224/78 216/225/78
f 207/214/77 208/216/77 218/226/77 217/224/77
f 208/216/76 209/217/76 219/227/76 218/226/76
f 209/217/75 210/218/75 220/228/75 219/227/75
f 211/220/82 212/219/82 22/20/82 21/19/82
f 212/219/81 213/221/81 23/23/81 22/20/81
f 213/221/80 214/222/80 24/25/80 23/23/80
f 214/222/79 215/223/79 25/27/79 24/25/79
f 216/225/86 217/224/86 27/30/86 26/29/86
f 217/224/85 218/226/85 28/33/85 27/30/85
f 218/226/84 219/227/84 29/35/84 28/33/84
f 219/227/83 220/228/83 30/37/83 29/35/83
f 224/229/87 222/230/87 236/231/87 234/232/87 232/233/87 230/234/87 228/235/87 226/236/87
f 269/237/88 270/238/88 271/239/88 272/240/88 273/241/88 274/242/88 275/243/88 276/244/88
f 290/245/3 289/245/3 300/245/3 299/245/3 298/245/3 297/245/3 296/245/3 295/245/3 294/245/3 293/245/3 292/245/3 291/245/3
f 362/245/3 361/245/3 372/245/3 371/245/3 370/245/3 369/245/3 368/245/3 367/245/3 366/245/3 365/245/3 364/245/3 363/245/3
f 381/245/89 382/245/89 394/245/89 393/245/89
f 378/245/90 379/245/90 391/245/90 390/245/90
f 375/245/91 376/245/91 388/245/91 387/245/91
f 382/245/92 383/245/92 395/245/92 394/245/92
f 379/245/93 380/245/93 392/245/93 391/245/93
f 376/245/94 377/245/94 389/245/94 388/245/94
f 383/245/95 384/245/95 396/245/95 395/245/95
f 374/245/96 373/245/96 385/245/96 386/245/96
f 380/245/97 381/245/97 393/245/97 392/245/97
f 377/245/98 378/245/98 390/245/98 389/245/98
f 384/245/99 374/245/99 386/245/99 396/245/99
f 373/245/100 375/245/100 387/245/100 385/245/100
f 391/245/101 392/245/101 416/245/101 415/245/101
f 386/245/102 385/245/102 409/245/102 410/245/102
usemtl Material.057
f 328/245/103 329/245/103 353/245/103 352/245/103
f 349/245/2 351/245/2 352/245/2 353/245/2 354/245/2 355/245/2 356/245/2 357/245/2 358/245/2 359/245/2 360/245/2 350/245/2
f 335/245/104 336/245/104 360/245/104 359/245/104
f 326/245/101 325/245/101 349/245/101 350/245/101
f 332/245/105 333/245/105 357/245/105 356/245/105
f 329/245/106 330/245/106 354/245/106 353/245/106
f 336/245/107 326/245/107 350/245/107 360/245/107
f 325/245/108 327/245/108 351/245/108 349/245/108
f 333/245/109 334/245/109 358/245/109 357/245/109
f 330/245/110 331/245/110 355/245/110 354/245/110
f 327/245/111 328/245/111 352/245/111 351/245/111
f 334/245/112 335/245/112 359/245/112 358/245/112
f 331/245/102 332/245/102 356/245/102 355/245/102
f 400/245/103 401/245/103 425/245/103 424/245/103
f 421/245/2 423/245/2 424/245/2 425/245/2 426/245/2 427/245/2 428/245/2 429/245/2 430/245/2 431/245/2 432/245/2 422/245/2
f 407/245/104 408/245/104 432/245/104 431/245/104
f 398/245/101 397/245/101 421/245/101 422/245/101
f 404/245/105 405/245/105 429/245/105 428/245/105
f 401/245/106 402/245/106 426/245/106 425/245/106
f 408/245/107 398/245/107 422/245/107 432/245/107
f 397/245/108 399/245/108 423/245/108 421/245/108
f 405/245/109 406/245/109 430/245/109 429/245/109
f 402/245/110 403/245/110 427/245/110 426/245/110
f 399/245/111 400/245/111 424/245/111 423/245/111
f 406/245/112 407/245/112 431/245/112 430/245/112
f 403/245/102 404/245/102 428/245/102 427/245/102
usemtl ARMAS
f 3/4/3 4/3/3 2/9/3 1/10/3
f 10/1/113 5/5/113 6/246/113 9/247/113
f 5/5/114 7/6/114 8/248/114 6/246/114
f 7/6/115 11/2/115 12/249/115 8/248/115
f 11/2/116 10/1/116 9/247/116 12/249/116
f 10/250/5 3/4/5 1/10/5 5/251/5
f 6/246/2 8/248/2 12/249/2 9/247/2
f 1/10/4 2/9/4 7/17/4 5/18/4
f 4/3/6 11/252/6 7/253/6 2/9/6
f 221/254/117 222/255/117 224/256/117 223/15/117
f 223/15/118 224/256/118 226/257/118 225/258/118
f 225/258/119 226/257/119 228/11/119 227/3/119
f 227/3/120 228/11/120 230/259/120 229/260/120
f 229/260/121 230/259/121 232/12/121 231/4/121
f 231/4/122 232/12/122 234/261/122 233/262/122
f 233/262/123 234/261/123 236/263/123 235/13/123
f 235/13/124 236/263/124 222/264/124 221/265/124
f 227/3/125 229/260/125 241/260/125 240/3/125
f 238/15/126 239/258/126 247/258/126 246/15/126
f 233/262/127 235/13/127 244/13/127 243/262/127
f 223/15/128 225/258/128 239/258/128 238/15/128
f 229/260/129 231/4/129 242/4/129 241/260/129
f 235/13/130 221/265/130 237/265/130 244/13/130
f 221/254/131 223/15/131 238/15/131 237/254/131
f 225/258/132 227/3/132 240/3/132 239/258/132
f 231/4/133 233/262/133 243/262/133 242/4/133
f 252/13/134 245/265/134 253/265/134 260/13/134
f 243/262/135 244/13/135 252/13/135 251/262/135
f 241/260/136 242/4/136 250/4/136 249/260/136
f 239/258/137 240/3/137 248/3/137 247/258/137
f 237/254/138 238/15/138 246/15/138 245/254/138
f 244/13/139 237/265/139 245/265/139 252/13/139
f 242/4/140 243/262/140 251/262/140 250/4/140
f 240/3/141 241/260/141 249/260/141 248/3/141
f 259/262/142 260/13/142 268/13/142 276/13/142 275/262/142 267/262/142
f 250/4/143 251/262/143 259/262/143 258/4/143
f 248/3/144 249/260/144 257/260/144 256/3/144
f 246/15/145 247/258/145 255/258/145 254/15/145
f 251/262/146 252/13/146 260/13/146 259/262/146
f 249/260/147 250/4/147 258/4/147 257/260/147
f 247/258/148 248/3/148 256/3/148 255/258/148
f 245/254/149 246/15/149 254/15/149 253/254/149
f 263/258/150 271/258/150 270/15/150 262/15/150 254/15/150 255/258/150
f 253/254/151 254/15/151 262/15/151 261/254/151
f 260/13/152 253/265/152 261/265/152 268/13/152
f 264/3/153 272/3/153 271/258/153 263/258/153 255/258/153 256/3/153
f 256/3/154 257/260/154 265/260/154 264/3/154
f 257/260/155 258/4/155 266/4/155 265/260/155
f 265/260/156 266/4/156 274/4/156 273/260/156
f 261/254/157 262/15/157 270/15/157 269/254/157
f 268/13/158 261/265/158 269/265/158 276/13/158
f 264/3/159 265/260/159 273/260/159 272/3/159
f 267/262/160 275/262/160 274/4/160 266/4/160 258/4/160 259/262/160
f 279/4/3 280/3/3 278/9/3 277/10/3
f 286/1/113 281/5/113 282/246/113 285/247/113
f 281/5/114 283/6/114 284/248/114 282/246/114
f 283/6/115 287/2/115 288/249/115 284/248/115
f 287/2/116 286/1/116 285/247/116 288/249/116
f 286/250/5 279/4/5 277/10/5 281/251/5
f 282/246/2 284/248/2 288/249/2 285/247/2
f 280/3/6 287/252/6 283/253/6 278/9/6
f 286/1/1 287/2/1 280/3/1 279/4/1
f 309/245/161 310/245/161 322/245/161 321/245/161
f 292/245/112 293/245/112 305/245/112 304/245/112
f 299/245/106 300/245/106 312/245/106 311/245/106
f 289/245/102 290/245/102 301/245/102 302/245/102
f 296/245/108 297/245/108 309/245/108 308/245/108
f 293/245/104 294/245/104 306/245/104 305/245/104
f 300/245/110 289/245/110 302/245/110 312/245/110
f 290/245/105 291/245/105 303/245/105 301/245/105
f 297/245/111 298/245/111 310/245/111 309/245/111
f 294/245/107 295/245/107 307/245/107 306/245/107
f 291/245/109 292/245/109 304/245/109 303/245/109
f 298/245/103 299/245/103 311/245/103 310/245/103
f 295/245/101 296/245/101 308/245/101 307/245/101
f 313/245/105 315/245/105 339/245/105 337/245/105
f 306/245/90 307/245/90 319/245/90 318/245/90
f 303/245/91 304/245/91 316/245/91 315/245/91
f 310/245/162 311/245/162 323/245/162 322/245/162
f 307/245/163 308/245/163 320/245/163 319/245/163
f 304/245/94 305/245/94 317/245/94 316/245/94
f 311/245/95 312/245/95 324/245/95 323/245/95
f 302/245/164 301/245/164 313/245/164 314/245/164
f 308/245/97 309/245/97 321/245/97 320/245/97
f 305/245/98 306/245/98 318/245/98 317/245/98
f 312/245/165 302/245/165 314/245/165 324/245/165
f 301/245/100 303/245/100 315/245/100 313/245/100
f 321/245/111 322/245/111 346/245/111 345/245/111
f 318/245/107 319/245/107 343/245/107 342/245/107
f 315/245/109 316/245/109 340/245/109 339/245/109
f 322/245/103 323/245/103 347/245/103 346/245/103
f 319/245/101 320/245/101 344/245/101 343/245/101
f 316/245/112 317/245/112 341/245/112 340/245/112
f 323/245/106 324/245/106 348/245/106 347/245/106
f 314/245/102 313/245/102 337/245/102 338/245/102
f 320/245/108 321/245/108 345/245/108 344/245/108
f 317/245/104 318/245/104 342/245/104 341/245/104
f 324/245/110 314/245/110 338/245/110 348/245/110
f 325/245/2 326/245/2 338/245/2 337/245/2
f 327/245/2 325/245/2 337/245/2 339/245/2
f 328/245/2 327/245/2 339/245/2 340/245/2
f 329/245/2 328/245/2 340/245/2 341/245/2
f 330/245/2 329/245/2 341/245/2 342/245/2
f 331/245/2 330/245/2 342/245/2 343/245/2
f 332/245/2 331/245/2 343/245/2 344/245/2
f 333/245/2 332/245/2 344/245/2 345/245/2
f 334/245/2 333/245/2 345/245/2 346/245/2
f 335/245/2 334/245/2 346/245/2 347/245/2
f 336/245/2 335/245/2 347/245/2 348/245/2
f 326/245/2 336/245/2 348/245/2 338/245/2
f 364/245/112 365/245/112 377/245/112 376/245/112
f 371/245/106 372/245/106 384/245/106 383/245/106
f 361/245/102 362/245/102 373/245/102 374/245/102
f 368/245/108 369/245/108 381/245/108 380/245/108
f 365/245/104 366/245/104 378/245/104 377/245/104
f 372/245/110 361/245/110 374/245/110 384/245/110
f 362/245/105 363/245/105 375/245/105 373/245/105
f 369/245/111 370/245/111 382/245/111 381/245/111
f 366/245/107 367/245/107 379/245/107 378/245/107
f 363/245/109 364/245/109 376/245/109 375/245/109
f 370/245/103 371/245/103 383/245/103 382/245/103
f 367/245/101 368/245/101 380/245/101 379/245/101
f 385/245/105 387/245/105 411/245/105 409/245/105
f 393/245/111 394/245/111 418/245/111 417/245/111
f 390/245/107 391/245/107 415/245/107 414/245/107
f 387/245/109 388/245/109 412/245/109 411/245/109
f 394/245/103 395/245/103 419/245/103 418/245/103
f 388/245/112 389/245/112 413/245/112 412/245/112
f 395/245/106 396/245/106 420/245/106 419/245/106
f 392/245/108 393/245/108 417/245/108 416/245/108
f 389/245/104 390/245/104 414/245/104 413/245/104
f 396/245/110 386/245/110 410/245/110 420/245/110
f 397/245/2 398/245/2 410/245/2 409/245/2
f 399/245/2 397/245/2 409/245/2 411/245/2
f 400/245/2 399/245/2 411/245/2 412/245/2
f 401/245/2 400/245/2 412/245/2 413/245/2
f 402/245/2 401/245/2 413/245/2 414/245/2
f 403/245/2 402/245/2 414/245/2 415/245/2
f 404/245/2 403/245/2 415/245/2 416/245/2
f 405/245/2 404/245/2 416/245/2 417/245/2
f 406/245/2 405/245/2 417/245/2 418/245/2
f 407/245/2 406/245/2 418/245/2 419/245/2
f 408/245/2 407/245/2 419/245/2 420/245/2
f 398/245/2 408/245/2 420/245/2 410/245/2
