# Blender 4.5.3 LTS
# www.blender.org
mtllib BasicoMOVIL.mtl
o Cone.039
v 0.007753 0.019113 -0.000253
v 0.007682 0.013407 -0.014031
v 0.007512 -0.000370 -0.019738
v 0.007342 -0.014146 -0.014031
v 0.007272 -0.019852 -0.000253
v 0.007342 -0.014146 0.013524
v 0.007512 -0.000370 0.019231
v 0.007682 0.013407 0.013524
v -0.057139 0.000428 -0.000253
v 0.007863 0.010298 -0.069410
v 0.007861 0.010488 -0.010357
v -0.010111 0.010281 -0.069410
v -0.010105 0.010509 -0.010357
v 0.008091 -0.010028 -0.069410
v 0.008103 -0.011093 -0.010286
v -0.009883 -0.010045 -0.069410
v -0.009871 -0.011110 -0.010286
v 0.007861 0.010463 0.010151
v 0.007863 0.010298 0.069388
v -0.010113 0.010446 0.010151
v -0.010111 0.010281 0.069388
v 0.008103 -0.011117 0.010222
v 0.008091 -0.010028 0.069388
v -0.009871 -0.011135 0.010222
v -0.009883 -0.010045 0.069388
v 0.008776 -0.071214 -0.010358
v -0.009199 -0.071231 -0.010358
v 0.008776 -0.071263 0.009967
v -0.009198 -0.071281 0.009967
v 0.007198 0.069734 -0.010214
v -0.010776 0.069717 -0.010214
v 0.007198 0.069685 0.010110
v -0.010776 0.069667 0.010110
v -0.008456 0.000340 0.023127
v -0.008533 0.004872 0.022682
v -0.008661 0.009230 0.021361
v -0.008462 -0.008551 0.021361
v -0.008432 -0.004192 0.022682
v -0.018047 -0.000841 0.071447
v -0.017922 -0.014805 0.070072
v -0.017865 -0.028232 0.066000
v -0.017877 -0.040606 0.059387
v -0.017960 -0.051453 0.050488
v -0.018108 -0.060354 0.039644
v -0.018317 -0.066969 0.027272
v -0.018578 -0.071042 0.013848
v -0.018882 -0.072417 -0.000113
v -0.019217 -0.071043 -0.014074
v -0.019569 -0.066970 -0.027498
v -0.019926 -0.060356 -0.039870
v -0.020274 -0.051455 -0.050714
v -0.020599 -0.040609 -0.059613
v -0.020888 -0.028235 -0.066226
v -0.021132 -0.014808 -0.070298
v -0.021319 -0.000844 -0.071673
v -0.021444 0.013119 -0.070298
v -0.021501 0.026546 -0.066226
v -0.021489 0.038921 -0.059613
v -0.021407 0.049767 -0.050714
v -0.021258 0.058669 -0.039870
v -0.021049 0.065283 -0.027498
v -0.020788 0.069356 -0.014074
v -0.020484 0.070732 -0.000113
v -0.020150 0.069357 0.013848
v -0.019797 0.065284 0.027272
v -0.019440 0.058670 0.039644
v -0.019093 0.049769 0.050488
v -0.018768 0.038923 0.059387
v -0.018478 0.026549 0.066000
v -0.018234 0.013122 0.070072
v 0.008660 -0.000815 0.071579
v 0.008785 -0.014779 0.070204
v 0.008842 -0.028206 0.066132
v 0.008829 -0.040581 0.059519
v 0.008747 -0.051427 0.050620
v 0.008599 -0.060328 0.039776
v 0.008390 -0.066943 0.027404
v 0.008128 -0.071016 0.013980
v 0.007825 -0.072392 0.000019
v 0.007490 -0.071017 -0.013942
v 0.007137 -0.066944 -0.027366
v 0.006780 -0.060330 -0.039738
v 0.006433 -0.051429 -0.050582
v 0.006108 -0.040583 -0.059481
v 0.005818 -0.028209 -0.066094
v 0.005575 -0.014782 -0.070166
v 0.005387 -0.000819 -0.071541
v 0.005262 0.013145 -0.070166
v 0.005205 0.026572 -0.066094
v 0.005218 0.038946 -0.059481
v 0.005300 0.049793 -0.050582
v 0.005448 0.058694 -0.039738
v 0.005657 0.065309 -0.027366
v 0.005918 0.069382 -0.013942
v 0.006222 0.070758 0.000019
v 0.006557 0.069383 0.013980
v 0.006909 0.065310 0.027404
v 0.007266 0.058696 0.039776
v 0.007614 0.049795 0.050620
v 0.007939 0.038949 0.059519
v 0.008229 0.026575 0.066132
v 0.008472 0.013148 0.070204
vn -0.2572 0.8933 -0.3687
vn -0.2636 0.3719 -0.8900
vn -0.2727 -0.3653 -0.8900
vn -0.2792 -0.8867 -0.3687
vn -0.2792 -0.8867 0.3687
vn -0.2727 -0.3653 0.8900
vn 0.9999 -0.0123 -0.0000
vn -0.2636 0.3719 0.8900
vn -0.2572 0.8933 0.3687
vn 0.0001 1.0000 -0.0035
vn -0.9999 -0.0110 0.0001
vn 0.0010 -0.9998 -0.0180
vn 0.9999 0.0112 -0.0000
vn -0.0000 -0.0000 -1.0000
vn -0.0000 0.0033 1.0000
vn -0.0010 1.0000 0.0028
vn -0.9999 -0.0112 -0.0000
vn 0.0010 -0.9998 0.0184
vn -0.0000 -0.0033 -1.0000
vn -0.0000 -0.0000 1.0000
vn -0.0000 0.0012 -1.0000
vn -0.0000 -0.0042 1.0000
vn 0.0010 -1.0000 -0.0024
vn -0.0010 1.0000 0.0012
vn -0.0000 0.0024 -1.0000
vn -0.9999 -0.0113 -0.0002
vn -0.0000 0.0007 1.0000
vn -0.0001 -1.0000 -0.0021
vn -0.0010 1.0000 0.0024
vn 0.0032 0.6343 -0.7731
vn -0.0005 -0.9569 0.2904
vn 0.0024 0.7729 -0.6345
vn 0.0005 -0.9952 0.0980
vn 0.0015 0.8819 -0.4715
vn 0.0014 -0.9952 -0.0980
vn 0.0005 0.9569 -0.2904
vn 0.0024 -0.9569 -0.2904
vn -0.0005 0.9952 -0.0980
vn 0.0032 -0.8818 -0.4715
vn -0.0014 0.9952 0.0980
vn 0.0039 -0.7729 -0.6345
vn -0.0024 0.9569 0.2904
vn 0.0044 -0.6342 -0.7731
vn -0.0032 0.8818 0.4715
vn 0.0048 -0.4712 -0.8820
vn -0.0048 -0.0980 0.9952
vn -0.0039 0.7729 0.6345
vn 0.0050 -0.2901 -0.9570
vn -0.0045 -0.2902 0.9569
vn -0.0044 0.6342 0.7731
vn 0.0050 -0.0979 -0.9952
vn -0.0039 -0.4713 0.8820
vn -0.0048 0.4712 0.8820
vn 0.0048 0.0980 -0.9952
vn -0.0032 -0.6343 0.7731
vn -0.0050 0.2901 0.9570
vn 0.0045 0.2902 -0.9569
vn -0.0024 -0.7729 0.6345
vn -0.0050 0.0979 0.9952
vn 0.0039 0.4713 -0.8820
vn -0.0015 -0.8819 0.4715
vt 0.250000 0.490000
vt 0.250000 0.250000
vt 0.419706 0.419706
vt 0.490000 0.250000
vt 0.419706 0.080294
vt 0.250000 0.010000
vt 0.080294 0.080294
vt 0.010000 0.250000
vt 0.750000 0.490000
vt 0.919706 0.419706
vt 0.990000 0.250000
vt 0.919706 0.080294
vt 0.750000 0.010000
vt 0.580294 0.080294
vt 0.510000 0.250000
vt 0.580294 0.419706
vt 0.080294 0.419706
vt 0.375000 0.000000
vt 0.625000 0.000000
vt 0.625000 0.250000
vt 0.375000 0.250000
vt 0.625000 0.500000
vt 0.375000 0.500000
vt 0.625000 0.750000
vt 0.375000 0.750000
vt 0.625000 1.000000
vt 0.375000 1.000000
vt 0.125000 0.500000
vt 0.125000 0.750000
vt 0.875000 0.500000
vt 0.875000 0.750000
vt 0.000000 0.000000
s 0
usemtl Ruedas.001
f 1/1/1 2/3/1 9/2/1
f 2/3/2 3/4/2 9/2/2
f 3/4/3 4/5/3 9/2/3
f 4/5/4 5/6/4 9/2/4
f 5/6/5 6/7/5 9/2/5
f 6/7/6 7/8/6 9/2/6
f 1/9/7 8/16/7 7/15/7 6/14/7 5/13/7 4/12/7 3/11/7 2/10/7
f 7/8/8 8/17/8 9/2/8
f 8/17/9 1/1/9 9/2/9
f 10/18/10 12/21/10 13/20/10 11/19/10
f 12/21/11 16/23/11 17/22/11 13/20/11
f 16/23/12 14/25/12 15/24/12 17/22/12
f 14/25/13 10/27/13 11/26/13 15/24/13
f 12/28/14 10/29/14 14/25/14 16/23/14
f 17/22/15 15/24/15 11/31/15 13/30/15
f 18/18/16 20/21/16 21/20/16 19/19/16
f 20/21/17 24/23/17 25/22/17 21/20/17
f 24/23/18 22/25/18 23/24/18 25/22/18
f 22/25/13 18/27/13 19/26/13 23/24/13
f 20/28/19 18/29/19 22/25/19 24/23/19
f 25/22/20 23/24/20 19/31/20 21/30/20
f 26/18/21 27/21/21 17/20/21 15/19/21
f 27/21/17 29/23/17 24/22/17 17/20/17
f 29/23/22 28/25/22 22/24/22 24/22/22
f 28/25/13 26/27/13 15/26/13 22/24/13
f 27/28/23 26/29/23 28/25/23 29/23/23
f 24/22/24 22/24/24 15/31/24 17/30/24
f 11/18/25 13/21/25 31/20/25 30/19/25
f 13/21/26 20/23/26 33/22/26 31/20/26
f 20/23/27 18/25/27 32/24/27 33/22/27
f 18/25/13 11/27/13 30/26/13 32/24/13
f 13/28/28 11/29/28 18/25/28 20/23/28
f 33/22/29 32/24/29 30/31/29 31/30/29
f 59/32/30 91/32/30 90/32/30 58/32/30
f 46/32/31 78/32/31 77/32/31 45/32/31
f 60/32/32 92/32/32 91/32/32 59/32/32
f 47/32/33 79/32/33 78/32/33 46/32/33
f 61/32/34 93/32/34 92/32/34 60/32/34
f 48/32/35 80/32/35 79/32/35 47/32/35
f 62/32/36 94/32/36 93/32/36 61/32/36
f 49/32/37 81/32/37 80/32/37 48/32/37
f 63/32/38 95/32/38 94/32/38 62/32/38
f 50/32/39 82/32/39 81/32/39 49/32/39
f 64/32/40 96/32/40 95/32/40 63/32/40
f 51/32/41 83/32/41 82/32/41 50/32/41
f 65/32/42 97/32/42 96/32/42 64/32/42
f 52/32/43 84/32/43 83/32/43 51/32/43
f 66/32/44 98/32/44 97/32/44 65/32/44
f 53/32/45 85/32/45 84/32/45 52/32/45
f 40/32/46 72/32/46 71/32/46 39/32/46
f 67/32/47 99/32/47 98/32/47 66/32/47
f 54/32/48 86/32/48 85/32/48 53/32/48
f 41/32/49 73/32/49 72/32/49 40/32/49
f 68/32/50 100/32/50 99/32/50 67/32/50
f 55/32/51 87/32/51 86/32/51 54/32/51
f 42/32/52 74/32/52 73/32/52 41/32/52
f 69/32/53 101/32/53 100/32/53 68/32/53
f 56/32/54 88/32/54 87/32/54 55/32/54
f 43/32/55 75/32/55 74/32/55 42/32/55
f 70/32/56 102/32/56 101/32/56 69/32/56
f 57/32/57 89/32/57 88/32/57 56/32/57
f 44/32/58 76/32/58 75/32/58 43/32/58
f 39/32/59 71/32/59 102/32/59 70/32/59
f 58/32/60 90/32/60 89/32/60 57/32/60
f 45/32/61 77/32/61 76/32/61 44/32/61
l 34 35
l 35 36
l 37 38
l 38 34
