# Blender 4.5.3 LTS
# www.blender.org
mtllib Basico.mtl
o Cube.070
v 0.145003 -0.006970 -0.004617
v 0.219722 -0.072281 0.074471
v 0.123334 -0.006970 0.011917
v 0.179888 -0.072281 0.104865
v 0.145003 0.011587 -0.004617
v 0.219722 -0.025223 0.074471
v 0.123334 0.011587 0.011917
v 0.179888 -0.025223 0.104865
v 0.241065 0.143391 0.102441
v 0.201232 0.143391 0.132836
v -0.243791 0.261287 0.088960
v -0.246285 0.261241 0.091675
v -0.248201 0.261196 0.094824
v -0.249466 0.261155 0.098287
v -0.250032 0.261119 0.101930
v -0.249875 0.261089 0.105613
v -0.249004 0.261067 0.109196
v -0.247450 0.261053 0.112539
v -0.245273 0.261049 0.115515
v -0.242558 0.261053 0.118009
v -0.239409 0.261067 0.119926
v -0.235946 0.261089 0.121191
v -0.232303 0.261119 0.121757
v -0.228620 0.261155 0.121601
v -0.225038 0.261196 0.120729
v -0.221694 0.261241 0.119176
v -0.218719 0.261287 0.117000
v -0.216225 0.261334 0.114285
v -0.214308 0.261378 0.111136
v -0.213043 0.261420 0.107673
v -0.212478 0.261456 0.104030
v -0.212634 0.261485 0.100346
v -0.213506 0.261507 0.096764
v -0.215060 0.261521 0.093421
v -0.217236 0.261526 0.090445
v -0.219951 0.261521 0.087951
v -0.223100 0.261507 0.086034
v -0.226563 0.261485 0.084768
v -0.230206 0.261456 0.084203
v -0.233890 0.261420 0.084359
v -0.237472 0.261378 0.085230
v -0.240815 0.261334 0.086784
v 0.198785 0.261287 0.114963
v 0.201298 0.261240 0.117661
v 0.204289 0.261195 0.119816
v 0.207643 0.261154 0.121346
v 0.211231 0.261118 0.122193
v 0.214915 0.261088 0.122323
v 0.218554 0.261066 0.121733
v 0.222008 0.261053 0.120443
v 0.225144 0.261048 0.118505
v 0.227842 0.261053 0.115992
v 0.229998 0.261066 0.113001
v 0.231528 0.261088 0.109647
v 0.232375 0.261118 0.106059
v 0.232506 0.261154 0.102374
v 0.231915 0.261195 0.098735
v 0.230626 0.261240 0.095281
v 0.228688 0.261287 0.092146
v 0.226175 0.261333 0.089448
v 0.223184 0.261378 0.087293
v 0.219830 0.261419 0.085762
v 0.216242 0.261455 0.084916
v 0.212558 0.261485 0.084785
v 0.208919 0.261507 0.085376
v 0.205465 0.261521 0.086666
v 0.202329 0.261525 0.088604
v 0.199631 0.261521 0.091117
v 0.197475 0.261507 0.094108
v 0.195945 0.261485 0.097462
v 0.195098 0.261455 0.101050
v 0.194967 0.261419 0.104734
v 0.195558 0.261378 0.108373
v 0.196847 0.261333 0.111827
v 0.145171 0.006884 -0.048788
v 0.145171 0.024814 -0.050824
v 0.145171 0.036247 -0.055613
v 0.145171 0.046820 -0.063389
v 0.145171 0.056601 -0.073854
v 0.145171 0.071966 -0.101154
v 0.145171 0.144918 -0.239306
v 0.145171 0.149004 -0.264547
v 0.145171 0.138988 -0.297127
v 0.145171 0.129684 -0.306013
v 0.145171 0.120419 -0.314203
v 0.145171 0.109324 -0.321381
v 0.145171 0.086488 -0.325126
v 0.145171 0.002765 -0.329577
v 0.145171 -0.080957 -0.326498
v 0.145171 -0.103793 -0.322815
v 0.145171 -0.119015 -0.314203
v 0.145171 -0.128544 -0.306013
v 0.145171 -0.144308 -0.281349
v 0.145171 -0.146331 -0.247142
v 0.145171 -0.065620 -0.101154
v 0.145171 -0.059033 -0.086606
v 0.145171 -0.050152 -0.073854
v 0.145171 -0.040840 -0.063389
v 0.145171 -0.028287 -0.055613
v 0.145171 -0.011046 -0.049986
v 0.174045 0.006884 -0.048788
v 0.174045 0.024814 -0.050824
v 0.174045 0.036247 -0.055613
v 0.174045 0.046820 -0.063389
v 0.174045 0.056601 -0.073854
v 0.174045 0.071966 -0.101154
v 0.174045 0.144918 -0.239306
v 0.174045 0.149004 -0.264547
v 0.174045 0.138988 -0.297127
v 0.174045 0.129684 -0.306013
v 0.174045 0.120419 -0.314203
v 0.174045 0.109324 -0.321381
v 0.174045 0.086488 -0.325126
v 0.174045 0.002765 -0.329576
v 0.174045 -0.080957 -0.326498
v 0.174045 -0.103793 -0.322815
v 0.174045 -0.119015 -0.314203
v 0.174045 -0.128544 -0.306013
v 0.174045 -0.144308 -0.281349
v 0.174045 -0.146331 -0.247142
v 0.174045 -0.065620 -0.101154
v 0.174045 -0.059033 -0.086606
v 0.174045 -0.050152 -0.073854
v 0.174045 -0.040840 -0.063389
v 0.174045 -0.028287 -0.055613
v 0.174045 -0.011046 -0.049986
v 0.145171 0.007325 -0.033678
v 0.145171 0.025255 -0.035715
v 0.145171 0.036688 -0.040503
v 0.145171 0.047261 -0.048279
v 0.145171 0.058470 -0.057677
v 0.145171 0.073836 -0.084977
v 0.145171 -0.065848 -0.086044
v 0.145171 -0.058591 -0.071496
v 0.145171 -0.049711 -0.058744
v 0.145171 -0.040398 -0.048279
v 0.145171 -0.027846 -0.040503
v 0.145171 -0.010605 -0.034877
v 0.174045 0.007325 -0.033678
v 0.174045 0.025255 -0.035715
v 0.174045 0.036688 -0.040503
v 0.174045 0.047261 -0.048279
v 0.174045 0.058470 -0.057677
v 0.174045 0.073836 -0.084977
v 0.174045 -0.068965 -0.084156
v 0.174045 -0.049711 -0.058744
v 0.174045 -0.040398 -0.048279
v 0.174045 -0.027846 -0.040503
v 0.174045 -0.010605 -0.034877
v 0.145171 -0.153823 -0.243160
v 0.145171 -0.073112 -0.095284
v 0.174045 -0.153823 -0.243160
v 0.174045 -0.076245 -0.095284
v 0.145171 -0.059332 -0.089321
v 0.174045 -0.059332 -0.089321
v 0.145171 -0.065883 -0.084140
v 0.174045 -0.068873 -0.086062
v 0.145171 0.152325 -0.231485
v 0.174045 0.151876 -0.231754
v 0.145171 0.065971 -0.089801
v 0.174045 0.065971 -0.089801
v 0.145171 0.072439 -0.081980
v 0.174045 0.072342 -0.081980
v 0.145171 0.125844 -0.320482
v 0.145171 0.109423 -0.330722
v 0.145171 0.086587 -0.334467
v 0.145171 0.032264 -0.338007
v 0.145171 0.002865 -0.338917
v 0.145171 -0.080858 -0.335839
v 0.145171 -0.103694 -0.332156
v 0.145171 -0.118916 -0.323544
v 0.174045 0.125796 -0.320233
v 0.174045 0.109423 -0.330722
v 0.174045 0.086587 -0.334467
v 0.174045 0.032264 -0.338007
v 0.174045 0.002865 -0.338917
v 0.174045 -0.080858 -0.335839
v 0.174045 -0.103694 -0.332156
v 0.174045 -0.118916 -0.323544
v 0.145171 0.156947 -0.263071
v 0.145171 0.146931 -0.302033
v 0.145171 0.137627 -0.310919
v 0.174045 0.156947 -0.263156
v 0.174045 0.146931 -0.302033
v 0.174045 0.137627 -0.310920
v 0.145171 0.137603 -0.310885
v 0.145171 0.125799 -0.320289
v 0.174045 0.137691 -0.310792
v 0.174045 0.125799 -0.320289
v 0.145171 -0.134851 -0.310180
v 0.145171 -0.141495 -0.301434
v 0.145171 -0.151888 -0.281886
v 0.174045 -0.134834 -0.310061
v 0.174045 -0.141495 -0.301434
v 0.174045 -0.152117 -0.281866
v 0.145171 -0.152081 -0.281809
v 0.145171 -0.153812 -0.243167
v 0.174045 -0.152081 -0.281809
v 0.174045 -0.153660 -0.243168
v 0.145171 -0.118865 -0.323511
v 0.174045 -0.118958 -0.323784
v 0.174045 -0.126896 -0.316922
v 0.145171 0.017564 -0.338462
v 0.174045 0.017564 -0.338462
v 0.145171 0.032264 -0.338007
v 0.174045 0.032264 -0.338007
v 0.145171 0.017564 -0.338462
v 0.174045 0.017564 -0.338462
v -0.128693 -0.008512 0.026050
v -0.201736 -0.073823 0.106688
v -0.146861 -0.008512 0.005731
v -0.235134 -0.073823 0.069336
v -0.128692 0.010046 0.026050
v -0.201736 -0.026764 0.106688
v -0.146861 0.010046 0.005731
v -0.235134 -0.026764 0.069336
v -0.227964 0.141849 0.130139
v -0.261362 0.141849 0.092788
v 0.147118 0.085432 0.149919
v -0.146569 0.085432 0.149772
v 0.147034 0.085432 0.317380
v -0.146653 0.085432 0.317233
v 0.147118 -0.093628 0.149919
v -0.146569 -0.093628 0.149772
v 0.147034 -0.093628 0.317380
v -0.146652 -0.093628 0.317233
v -0.055253 0.047309 -0.067638
v -0.055253 0.047309 0.226049
v 0.045639 0.047309 -0.067638
v 0.045639 0.047309 0.226049
v -0.055253 -0.052486 -0.067638
v -0.055253 -0.052486 0.226049
v 0.045639 -0.052486 -0.067638
v 0.045639 -0.052486 0.226049
v -0.148961 0.144254 -0.248567
v -0.148961 0.144254 0.045120
v 0.144725 0.144254 -0.248567
v 0.144725 0.144254 0.045120
v -0.148961 -0.149432 -0.248567
v -0.148961 -0.149433 0.045120
v 0.144725 -0.149432 -0.248567
v 0.144725 -0.149433 0.045120
v 0.168509 0.052554 0.136820
v 0.175621 0.053250 0.144451
v 0.184089 0.053919 0.150546
v 0.193587 0.054535 0.154870
v 0.203752 0.055076 0.157257
v 0.214191 0.055519 0.157615
v 0.224504 0.055848 0.155931
v 0.234294 0.056051 0.152269
v 0.243186 0.056120 0.146771
v 0.250837 0.056051 0.139646
v 0.256954 0.055848 0.131170
v 0.261301 0.055519 0.121668
v 0.263711 0.055076 0.111504
v 0.264092 0.054535 0.101071
v 0.262430 0.053919 0.090767
v 0.258787 0.053250 0.080991
v 0.253304 0.052554 0.072116
v 0.246192 0.051859 0.064485
v 0.237724 0.051190 0.058390
v 0.228225 0.050574 0.054066
v 0.218061 0.050033 0.051679
v 0.207622 0.049590 0.051321
v 0.197309 0.049261 0.053005
v 0.187519 0.049058 0.056666
v 0.178627 0.048989 0.062165
v 0.170976 0.049058 0.069289
v 0.164859 0.049261 0.077766
v 0.160512 0.049590 0.087268
v 0.158102 0.050033 0.097431
v 0.157720 0.050574 0.107865
v 0.159383 0.051190 0.118168
v 0.163026 0.051859 0.127945
v 0.168509 0.214762 0.136820
v 0.175621 0.215458 0.144451
v 0.184089 0.216127 0.150546
v 0.193587 0.216743 0.154870
v 0.203752 0.217283 0.157257
v 0.214191 0.217727 0.157615
v 0.224504 0.218056 0.155931
v 0.234294 0.218259 0.152269
v 0.243186 0.218327 0.146771
v 0.250837 0.218259 0.139646
v 0.256954 0.218056 0.131170
v 0.261301 0.217727 0.121668
v 0.263711 0.217283 0.111504
v 0.264092 0.216743 0.101071
v 0.262430 0.216127 0.090767
v 0.258787 0.215458 0.080991
v 0.253304 0.214762 0.072116
v 0.246192 0.214067 0.064485
v 0.237724 0.213398 0.058390
v 0.228225 0.212781 0.054066
v 0.218061 0.212241 0.051679
v 0.207622 0.211798 0.051321
v 0.197309 0.211468 0.053005
v 0.187519 0.211265 0.056666
v 0.178627 0.211197 0.062165
v 0.170976 0.211265 0.069289
v 0.164859 0.211468 0.077766
v 0.160512 0.211798 0.087268
v 0.158102 0.212241 0.097431
v 0.157720 0.212781 0.107865
v 0.159383 0.213398 0.118168
v 0.163026 0.214067 0.127945
v 0.197526 0.268093 0.114678
v 0.199771 0.268313 0.117086
v 0.202443 0.268524 0.119009
v 0.205441 0.268718 0.120374
v 0.208648 0.268889 0.121127
v 0.211943 0.269029 0.121240
v 0.215197 0.269133 0.120709
v 0.218287 0.269197 0.119553
v 0.221093 0.269218 0.117818
v 0.223508 0.269197 0.115570
v 0.225438 0.269133 0.112895
v 0.226810 0.269029 0.109896
v 0.227571 0.268889 0.106689
v 0.227691 0.268718 0.103396
v 0.227166 0.268524 0.100144
v 0.226017 0.268313 0.097059
v 0.224287 0.268093 0.094258
v 0.222042 0.267874 0.091850
v 0.219370 0.267663 0.089926
v 0.216372 0.267468 0.088562
v 0.213164 0.267298 0.087808
v 0.209870 0.267158 0.087695
v 0.206615 0.267054 0.088227
v 0.203525 0.266990 0.089382
v 0.200719 0.266968 0.091118
v 0.198305 0.266990 0.093366
v 0.196374 0.267054 0.096041
v 0.195003 0.267158 0.099040
v 0.194242 0.267298 0.102247
v 0.194122 0.267468 0.105540
v 0.194646 0.267663 0.108792
v 0.195796 0.267874 0.111877
v -0.267881 0.052554 0.060417
v -0.274936 0.053250 0.068100
v -0.280355 0.053919 0.077016
v -0.283928 0.054535 0.086822
v -0.285518 0.055075 0.097141
v -0.285064 0.055519 0.107576
v -0.282584 0.055848 0.117727
v -0.278173 0.056051 0.127204
v -0.272000 0.056120 0.135641
v -0.264302 0.056051 0.142716
v -0.255377 0.055848 0.148155
v -0.245565 0.055519 0.151751
v -0.235245 0.055075 0.153364
v -0.224813 0.054535 0.152934
v -0.214670 0.053919 0.150475
v -0.205206 0.053250 0.146084
v -0.196785 0.052554 0.139928
v -0.189729 0.051859 0.132245
v -0.184311 0.051190 0.123329
v -0.180738 0.050574 0.113523
v -0.179148 0.050033 0.103204
v -0.179601 0.049590 0.092769
v -0.182081 0.049260 0.082618
v -0.186493 0.049058 0.073141
v -0.192666 0.048989 0.064704
v -0.200363 0.049058 0.057629
v -0.209289 0.049260 0.052190
v -0.219100 0.049590 0.048594
v -0.229420 0.050033 0.046981
v -0.239852 0.050574 0.047411
v -0.249995 0.051190 0.049870
v -0.259459 0.051859 0.054261
v -0.267881 0.214762 0.060417
v -0.274936 0.215458 0.068100
v -0.280355 0.216126 0.077016
v -0.283928 0.216743 0.086822
v -0.285518 0.217283 0.097141
v -0.285064 0.217726 0.107576
v -0.282584 0.218056 0.117727
v -0.278173 0.218259 0.127204
v -0.272000 0.218327 0.135641
v -0.264302 0.218259 0.142716
v -0.255377 0.218056 0.148155
v -0.245565 0.217726 0.151751
v -0.235245 0.217283 0.153364
v -0.224813 0.216743 0.152934
v -0.214670 0.216126 0.150475
v -0.205206 0.215458 0.146084
v -0.196785 0.214762 0.139928
v -0.189729 0.214066 0.132245
v -0.184311 0.213398 0.123329
v -0.180738 0.212781 0.113523
v -0.179148 0.212241 0.103204
v -0.179601 0.211798 0.092769
v -0.182082 0.211468 0.082618
v -0.186493 0.211265 0.073141
v -0.192666 0.211197 0.064704
v -0.200363 0.211265 0.057629
v -0.209289 0.211468 0.052190
v -0.219100 0.211798 0.048594
v -0.229420 0.212241 0.046981
v -0.239852 0.212781 0.047411
v -0.249995 0.213398 0.049870
v -0.259459 0.214066 0.054261
v -0.243551 0.268093 0.087626
v -0.245778 0.268313 0.090051
v -0.247488 0.268524 0.092865
v -0.248615 0.268718 0.095959
v -0.249117 0.268889 0.099216
v -0.248974 0.269029 0.102509
v -0.248191 0.269133 0.105713
v -0.246799 0.269197 0.108703
v -0.244851 0.269218 0.111366
v -0.242422 0.269197 0.113599
v -0.239605 0.269133 0.115315
v -0.236509 0.269029 0.116450
v -0.233252 0.268889 0.116959
v -0.229960 0.268718 0.116823
v -0.226759 0.268524 0.116047
v -0.223772 0.268313 0.114662
v -0.221114 0.268093 0.112719
v -0.218887 0.267874 0.110294
v -0.217178 0.267663 0.107480
v -0.216050 0.267468 0.104386
v -0.215548 0.267297 0.101129
v -0.215691 0.267158 0.097836
v -0.216474 0.267054 0.094632
v -0.217866 0.266990 0.091642
v -0.219814 0.266968 0.088979
v -0.222244 0.266990 0.086746
v -0.225060 0.267054 0.085030
v -0.228157 0.267158 0.083895
v -0.231414 0.267297 0.083386
v -0.234706 0.267468 0.083522
v -0.237907 0.267663 0.084298
v -0.240893 0.267874 0.085683
v -0.135699 0.085190 0.242153
v -0.119333 0.085190 0.281664
v -0.079821 0.085190 0.298031
v -0.040309 0.085190 0.281664
v -0.023943 0.085190 0.242152
v -0.040309 0.085190 0.202641
v -0.079821 0.085190 0.186274
v -0.119333 0.085190 0.202641
v -0.119333 0.131659 0.281664
v -0.135699 0.131659 0.242153
v -0.079821 0.131659 0.298031
v -0.040309 0.131659 0.281664
v -0.023943 0.131659 0.242153
v -0.040309 0.131659 0.202641
v -0.079821 0.131659 0.186274
v -0.119333 0.131659 0.202641
v -0.119333 0.102212 0.281664
v -0.135699 0.102212 0.242153
v -0.079821 0.102212 0.298031
v -0.040309 0.102212 0.281664
v -0.023943 0.102212 0.242152
v -0.040309 0.102212 0.202641
v -0.079821 0.102212 0.186274
v -0.119333 0.102212 0.202641
v 0.014174 0.085372 0.242152
v 0.030541 0.085372 0.281664
v 0.070053 0.085372 0.298031
v 0.109564 0.085372 0.281664
v 0.125931 0.085372 0.242153
v 0.109565 0.085372 0.202641
v 0.070053 0.085372 0.186274
v 0.030541 0.085372 0.202641
v 0.030541 0.131841 0.281664
v 0.014174 0.131841 0.242153
v 0.070053 0.131841 0.298031
v 0.109564 0.131841 0.281664
v 0.125931 0.131841 0.242153
v 0.109564 0.131841 0.202641
v 0.070053 0.131841 0.186274
v 0.030541 0.131841 0.202641
v 0.030541 0.106098 0.281664
v 0.014174 0.106098 0.242153
v 0.070053 0.106098 0.298031
v 0.109565 0.106098 0.281664
v 0.125931 0.106098 0.242153
v 0.109564 0.106098 0.202641
v 0.070053 0.106098 0.186274
v 0.030541 0.106098 0.202641
v -0.177844 0.006884 -0.048788
v -0.177844 0.024814 -0.050824
v -0.177844 0.036247 -0.055613
v -0.177844 0.046820 -0.063389
v -0.177844 0.056601 -0.073854
v -0.177844 0.071966 -0.101154
v -0.177844 0.144918 -0.239306
v -0.177844 0.149004 -0.264547
v -0.177844 0.138988 -0.297127
v -0.177844 0.129684 -0.306013
v -0.177844 0.120419 -0.314203
v -0.177844 0.109324 -0.321381
v -0.177844 0.086488 -0.325126
v -0.177844 0.002765 -0.329576
v -0.177844 -0.080957 -0.326498
v -0.177844 -0.103793 -0.322815
v -0.177844 -0.119015 -0.314203
v -0.177844 -0.128544 -0.306013
v -0.177844 -0.144308 -0.281349
v -0.177844 -0.146331 -0.247142
v -0.177844 -0.065620 -0.101154
v -0.177844 -0.059033 -0.086606
v -0.177844 -0.050152 -0.073854
v -0.177844 -0.040840 -0.063389
v -0.177844 -0.028287 -0.055613
v -0.177844 -0.011046 -0.049986
v -0.148970 0.006884 -0.048788
v -0.148970 0.024814 -0.050824
v -0.148970 0.036247 -0.055613
v -0.148970 0.046820 -0.063389
v -0.148970 0.056601 -0.073854
v -0.148970 0.071966 -0.101154
v -0.148970 0.144918 -0.239306
v -0.148970 0.149004 -0.264547
v -0.148970 0.138988 -0.297127
v -0.148970 0.129684 -0.306013
v -0.148970 0.120419 -0.314203
v -0.148970 0.109324 -0.321381
v -0.148970 0.086488 -0.325126
v -0.148970 0.002765 -0.329577
v -0.148970 -0.080957 -0.326498
v -0.148970 -0.103793 -0.322815
v -0.148970 -0.119015 -0.314203
v -0.148970 -0.128544 -0.306013
v -0.148970 -0.144308 -0.281349
v -0.148970 -0.146331 -0.247142
v -0.148970 -0.065620 -0.101154
v -0.148970 -0.059033 -0.086606
v -0.148970 -0.050152 -0.073854
v -0.148970 -0.040840 -0.063389
v -0.148970 -0.028287 -0.055613
v -0.148970 -0.011046 -0.049986
v -0.177844 0.007325 -0.033678
v -0.177844 0.025255 -0.035715
v -0.177844 0.036688 -0.040503
v -0.177844 0.047261 -0.048279
v -0.177844 0.059192 -0.058744
v -0.177844 0.074557 -0.086044
v -0.177844 -0.065848 -0.084218
v -0.177844 -0.058592 -0.069670
v -0.177844 -0.049711 -0.056918
v -0.177844 -0.040399 -0.048279
v -0.177844 -0.027846 -0.040503
v -0.177844 -0.010605 -0.034877
v -0.148970 0.007325 -0.033678
v -0.148970 0.025255 -0.035715
v -0.148970 0.036688 -0.040503
v -0.148970 0.047261 -0.048279
v -0.148970 0.059192 -0.058744
v -0.148970 0.074557 -0.086044
v -0.148970 -0.068965 -0.083003
v -0.148970 -0.049711 -0.056918
v -0.148970 -0.040399 -0.048279
v -0.148970 -0.027846 -0.040503
v -0.148970 -0.010605 -0.034877
v -0.177844 -0.154121 -0.242869
v -0.177844 -0.073410 -0.095666
v -0.148970 -0.154121 -0.242869
v -0.148970 -0.076542 -0.095666
v -0.177844 -0.059332 -0.089321
v -0.148970 -0.059332 -0.089321
v -0.177844 -0.065883 -0.084813
v -0.148970 -0.068873 -0.086062
v -0.177844 0.154099 -0.234688
v -0.148970 0.153651 -0.234957
v -0.177844 0.065971 -0.089801
v -0.148970 0.065971 -0.089801
v -0.177844 0.074214 -0.085183
v -0.148970 0.074117 -0.085183
v -0.177844 0.125844 -0.320482
v -0.177844 0.109423 -0.330722
v -0.177844 0.086587 -0.334467
v -0.177844 0.032264 -0.338007
v -0.177844 0.002865 -0.338917
v -0.177844 -0.080858 -0.335839
v -0.177844 -0.103694 -0.332156
v -0.177844 -0.118916 -0.323544
v -0.148970 0.125796 -0.320233
v -0.148970 0.109423 -0.330722
v -0.148970 0.086587 -0.334467
v -0.148970 0.032264 -0.338007
v -0.148970 0.002865 -0.338917
v -0.148970 -0.080858 -0.335839
v -0.148970 -0.103694 -0.332156
v -0.148970 -0.118916 -0.323544
v -0.177844 0.156947 -0.263071
v -0.177844 0.146931 -0.302033
v -0.177844 0.137627 -0.310920
v -0.148970 0.156947 -0.263156
v -0.148970 0.146931 -0.302033
v -0.148970 0.137627 -0.310920
v -0.177844 0.152267 -0.235433
v -0.177844 0.137603 -0.310885
v -0.177844 0.125799 -0.320289
v -0.148970 0.137690 -0.310792
v -0.148970 0.125799 -0.320289
v -0.177844 -0.134851 -0.310180
v -0.177844 -0.141495 -0.301434
v -0.177844 -0.151888 -0.281886
v -0.148970 -0.134834 -0.310061
v -0.148970 -0.141495 -0.301434
v -0.148970 -0.152117 -0.281866
v -0.177844 -0.152081 -0.281809
v -0.177844 -0.153812 -0.243167
v -0.148970 -0.152081 -0.281809
v -0.148970 -0.153660 -0.243168
v -0.177844 -0.118865 -0.323511
v -0.148970 -0.118958 -0.323784
v -0.148970 -0.126896 -0.316922
v -0.177844 0.017564 -0.338462
v -0.148970 0.017564 -0.338462
v -0.177844 0.032264 -0.338007
v -0.148970 0.032264 -0.338007
v -0.177844 0.017564 -0.338462
v -0.148970 0.017564 -0.338462
vn -0.3135 -0.8561 -0.4108
vn -0.8543 -0.0000 0.5198
vn 0.1954 0.9467 0.2561
vn 0.7269 -0.0000 -0.6867
vn -0.6066 -0.0000 -0.7950
vn -0.7950 -0.0000 0.6066
vn -0.5938 0.2043 -0.7782
vn 0.7950 -0.0000 -0.6066
vn 0.5987 -0.1610 0.7846
vn -0.0006 -0.0683 0.9977
vn -1.0000 -0.0000 -0.0000
vn -0.0000 0.5925 0.8056
vn -0.0012 0.4729 0.8811
vn -0.0022 0.7516 0.6596
vn -0.0000 -0.9999 -0.0106
vn -0.0500 -0.9926 -0.1105
vn 1.0000 -0.0000 -0.0000
vn 0.0105 0.8825 0.4701
vn -0.0000 -0.8843 -0.4669
vn -0.0478 -0.8807 0.4713
vn -0.0000 -0.4924 -0.8704
vn -0.0000 0.9934 -0.1148
vn -0.0000 0.3863 0.9224
vn -0.0000 0.0650 -0.9979
vn -0.0000 -0.4693 -0.8830
vn 0.0534 0.4638 0.8843
vn -0.0025 -0.7307 0.6827
vn -0.0013 -0.7730 0.6344
vn 0.0041 0.5343 -0.8453
vn 0.6066 -0.0000 0.7950
vn -0.0000 -0.0000 1.0000
vn -0.0000 0.6425 0.7663
vn -0.0000 0.6907 -0.7231
vn -0.0000 -0.5255 -0.8508
vn -0.0014 0.1776 -0.9841
vn -0.0000 -0.7492 -0.6623
vn -0.0022 0.5183 0.8552
vn -0.0897 -0.8345 0.5436
vn -0.0016 -0.5462 0.8376
vn -0.0000 0.0591 -0.9983
vn 0.0017 0.9999 0.0110
vn -0.0000 -0.5266 0.8501
vn 0.0086 0.9883 0.1521
vn -0.0010 -0.8795 -0.4759
vn -0.0000 0.1129 0.9936
vn -0.0000 -0.1592 -0.9872
vn 0.0023 0.3726 0.9280
vn -0.0002 -0.9990 -0.0449
vn -0.0000 -0.3102 0.9507
vn -0.0002 0.0481 0.9988
vn -0.0000 0.1618 -0.9868
vn -0.0000 -0.0667 0.9978
vn -0.0004 0.9684 -0.2492
vn -0.0000 0.8831 -0.4693
vn -0.0430 -0.8295 0.5569
vn 0.1060 0.9932 0.0479
vn -0.0060 0.5503 -0.8349
vn -0.0010 0.9705 -0.2409
vn -0.0001 -0.9741 -0.2261
vn -0.0000 -0.7470 0.6648
vn -0.0001 -0.6445 -0.7646
vn -0.0000 0.8714 0.4905
vn 0.0015 -0.7939 -0.6080
vn -1.0000 0.0001 -0.0000
vn -0.0000 -0.9850 0.1728
vn -0.0000 0.0309 -0.9995
vn 0.0031 0.6256 -0.7802
vn -0.0000 -0.0266 -0.9996
vn 0.3852 -0.8561 -0.3445
vn -0.5846 -0.0000 -0.8113
vn -0.2401 0.9467 0.2147
vn 0.7411 -0.0000 0.6713
vn 0.7455 -0.0000 -0.6666
vn -0.6666 -0.0000 -0.7455
vn 0.7297 0.2043 -0.6525
vn 0.6665 -0.0000 0.7455
vn -0.7357 -0.1610 0.6579
vn 0.2286 -0.0000 -0.9735
vn 0.3503 -0.0000 0.9366
vn 0.0343 -0.0000 -0.9994
vn 0.5259 -0.0000 0.8505
vn -0.1612 -0.0000 -0.9869
vn 0.6815 -0.0000 0.7318
vn -0.3503 -0.0000 -0.9367
vn 0.8109 -0.0000 0.5852
vn -0.5260 -0.0000 -0.8505
vn 0.9094 -0.0000 0.4160
vn -0.6815 -0.0000 -0.7319
vn 0.9730 -0.0000 0.2307
vn -0.8109 -0.0000 -0.5852
vn 0.9993 -0.0000 0.0365
vn -0.9094 -0.0000 -0.4160
vn 0.9872 -0.0000 -0.1592
vn -0.7315 -0.0000 0.6818
vn -0.9730 -0.0000 -0.2307
vn 0.9371 -0.0000 -0.3492
vn -0.5842 -0.0000 0.8116
vn -0.9993 -0.0000 -0.0366
vn 0.8507 -0.0000 -0.5256
vn -0.4143 -0.0000 0.9101
vn -0.9872 -0.0000 0.1593
vn 0.7315 -0.0000 -0.6818
vn -0.2286 -0.0000 0.9735
vn -0.9371 -0.0000 0.3492
vn 0.5842 -0.0000 -0.8116
vn -0.0343 -0.0000 0.9994
vn -0.8507 -0.0000 0.5256
vn 0.4143 -0.0000 -0.9101
vn 0.1612 -0.0000 0.9869
vn 0.0406 -0.9978 0.0531
vn 0.8006 0.5761 0.1647
vn -0.6732 0.5457 -0.4989
vn 0.8191 0.5736 0.0002
vn -0.7539 0.5471 -0.3638
vn 0.8046 0.5708 -0.1639
vn -0.6290 0.5643 0.5348
vn -0.8076 0.5490 -0.2155
vn 0.7580 0.5676 -0.3213
vn -0.5100 0.5676 0.6463
vn -0.8322 0.5514 -0.0590
vn 0.6819 0.5643 -0.4655
vn -0.3706 0.5708 0.7327
vn -0.8263 0.5543 0.1001
vn 0.5796 0.5608 -0.5913
vn -0.2160 0.5737 0.7901
vn -0.7897 0.5574 0.2561
vn 0.4556 0.5574 -0.6941
vn -0.0525 0.5761 0.8157
vn -0.7233 0.5608 0.4029
vn 0.3147 0.5543 -0.7706
vn 0.1135 0.5780 0.8081
vn 0.1629 0.5514 -0.8182
vn 0.2750 0.5793 0.7673
vn 0.0054 0.5490 -0.8358
vn 0.4252 0.5799 0.6949
vn -0.1519 0.5471 -0.8232
vn 0.5579 0.5799 0.5936
vn -0.3034 0.5457 -0.7811
vn 0.6675 0.5793 0.4678
vn -0.4440 0.5451 -0.7112
vn 0.7495 0.5780 0.3229
vn -0.5687 0.5451 -0.6160
vn 0.9883 -0.0000 0.1523
vn -0.9066 -0.0000 0.4220
vn 0.9991 -0.0000 -0.0434
vn -0.8071 -0.0000 0.5905
vn 0.9714 -0.0000 -0.2374
vn -0.6767 -0.0000 0.7363
vn 0.9066 -0.0000 -0.4220
vn -0.5204 -0.0000 0.8539
vn 0.8070 -0.0000 -0.5905
vn -0.3441 -0.0000 0.9389
vn 0.6767 -0.0000 -0.7362
vn -0.1544 -0.0000 0.9880
vn 0.5204 -0.0000 -0.8540
vn 0.0412 -0.0000 0.9992
vn 0.3441 -0.0000 -0.9389
vn 0.2356 -0.0000 0.9718
vn -0.7366 -0.0000 -0.6764
vn 0.1544 -0.0000 -0.9880
vn 0.4209 -0.0000 0.9071
vn -0.8545 -0.0000 -0.5194
vn -0.0412 -0.0000 -0.9992
vn 0.5902 -0.0000 0.8073
vn -0.9396 -0.0000 -0.3424
vn -0.2356 -0.0000 -0.9718
vn 0.7365 -0.0000 0.6764
vn -0.9883 -0.0000 -0.1523
vn -0.4209 -0.0000 -0.9071
vn 0.8546 -0.0000 0.5193
vn -0.9991 -0.0000 0.0435
vn -0.5901 -0.0000 -0.8073
vn 0.9396 -0.0000 0.3424
vn -0.9714 -0.0000 0.2373
vn -0.0498 -0.9978 0.0446
vn -0.1020 0.5761 0.8110
vn 0.4450 0.5457 -0.7100
vn 0.0634 0.5737 0.8166
vn 0.3042 0.5471 -0.7799
vn 0.2261 0.5708 0.7894
vn -0.5820 0.5643 -0.5856
vn 0.1520 0.5490 -0.8219
vn 0.3791 0.5676 0.7308
vn -0.6840 0.5676 -0.4582
vn -0.0058 0.5514 -0.8342
vn 0.5171 0.5643 0.6436
vn -0.7593 0.5708 -0.3125
vn -0.1641 0.5543 -0.8160
vn 0.6345 0.5608 0.5319
vn -0.8045 0.5737 -0.1540
vn -0.3167 0.5574 -0.7674
vn 0.7274 0.5574 0.4002
vn -0.8173 0.5761 0.0111
vn -0.4579 0.5608 -0.6898
vn 0.7927 0.5543 0.2540
vn -0.7969 0.5780 0.1759
vn 0.8284 0.5514 0.0988
vn -0.7437 0.5793 0.3338
vn 0.8337 0.5490 -0.0595
vn -0.6597 0.5799 0.4780
vn 0.8089 0.5470 -0.2155
vn -0.5485 0.5799 0.6023
vn 0.7552 0.5457 -0.3632
vn -0.4145 0.5793 0.7019
vn 0.6745 0.5451 -0.4979
vn -0.2636 0.5780 0.7723
vn 0.5700 0.5451 -0.6148
vn -0.9239 -0.0000 0.3827
vn -0.9239 -0.0000 -0.3827
vn 0.3827 -0.0000 -0.9239
vn 0.9239 -0.0000 0.3827
vn -0.3827 -0.0000 0.9239
vn -0.3827 -0.0000 -0.9239
vn 0.9239 -0.0000 -0.3827
vn 0.3827 -0.0000 0.9239
vn -0.0515 -0.9935 -0.1012
vn -0.0477 -0.8798 0.4730
vn -0.0000 0.9856 -0.1690
vn -0.0000 -0.4809 -0.8768
vn 0.0419 0.4343 0.8998
vn -0.0007 0.4476 -0.8942
vn -0.0008 -0.4910 0.8712
vn -0.0000 0.6594 0.7518
vn -0.0000 -0.5256 -0.8507
vn 0.0036 -0.4552 0.8904
vn -0.1069 -0.8366 0.5373
vn -0.0247 0.9896 0.1414
vn 0.0023 0.3722 0.9281
vn -0.0051 -0.9988 -0.0485
vn -0.0028 0.5450 0.8384
vn -0.0368 -0.8329 0.5522
vn 0.1042 0.9941 0.0299
vn -0.0060 0.5509 -0.8345
vn -0.0010 0.9706 -0.2409
vn -0.0011 0.9705 -0.2409
vn -0.0000 -0.9741 -0.2261
vn -0.0000 -0.6801 0.7331
vn -0.0000 0.8715 0.4905
vn -0.0000 -0.9849 0.1729
vn 0.0031 0.6255 -0.7802
vn 0.0094 -0.9999 -0.0084
vn 0.0077 0.9999 0.0101
vn -0.0000 1.0000 -0.0000
vn -0.0005 -0.0000 1.0000
vn -0.0000 -1.0000 -0.0000
vn 0.0005 -0.0000 -1.0000
vn 1.0000 -0.0000 0.0005
vn -1.0000 -0.0000 -0.0005
vn -0.0000 -0.0000 -1.0000
vt 0.375000 0.000000
vt 0.625000 0.000000
vt 0.625000 0.250000
vt 0.375000 0.250000
vt 0.625000 0.500000
vt 0.375000 0.500000
vt 0.625000 0.750000
vt 0.375000 0.750000
vt 0.625000 1.000000
vt 0.375000 1.000000
vt 0.125000 0.500000
vt 0.125000 0.750000
vt 0.000000 0.000000
vt 0.875000 0.500000
vt 0.875000 0.750000
s 1
usemtl Material.001
f 1/1/1 2/2/1 4/3/1 3/4/1
f 3/4/2 4/3/2 8/5/2 7/6/2
f 7/6/3 8/5/3 6/7/3 5/8/3
f 5/8/4 6/7/4 2/9/4 1/10/4
f 3/11/5 7/6/5 5/8/5 1/12/5
f 8/5/6 4/3/6 10/5/6
f 6/7/7 8/5/7 10/5/7 9/7/7
f 2/9/8 6/7/8 9/7/8
f 4/3/9 2/2/9 9/7/9 10/5/9
f 119/13/10 93/13/10 192/13/10 195/13/10
f 83/13/11 82/13/11 180/13/11 181/13/11 182/13/11 84/13/11
f 129/13/12 141/13/12 142/13/12 130/13/12
f 120/13/13 94/13/13 197/13/13 199/13/13
f 85/13/14 111/13/14 172/13/14 164/13/14
f 117/13/15 91/13/15 171/13/15 179/13/15
f 95/13/16 121/13/16 145/13/16 133/13/16
f 107/13/17 108/13/17 183/13/17 159/13/17
f 92/13/11 190/13/11 191/13/11 196/13/11 192/13/11 93/13/11
f 96/13/11 95/13/11 133/13/11 134/13/11 135/13/11 136/13/11 137/13/11 138/13/11 127/13/11 128/13/11 129/13/11 130/13/11 131/13/11 132/13/11 80/13/11 79/13/11 78/13/11 77/13/11 76/13/11 75/13/11 100/13/11 99/13/11 98/13/11 97/13/11
f 162/13/18 163/13/18 159/13/18 158/13/18
f 80/13/19 106/13/19 161/13/19 160/13/19
f 150/13/20 152/13/20 153/13/20 151/13/20
f 170/13/21 178/13/21 179/13/21 171/13/21
f 110/13/17 111/13/17 189/13/17 185/13/17 188/13/17
f 88/13/11 87/13/11 86/13/11 85/13/11 164/13/11 165/13/11 166/13/11 167/13/11 203/13/11 168/13/11 169/13/11 170/13/11 171/13/11 91/13/11 90/13/11 89/13/11
f 106/13/22 80/13/22 132/13/22 144/13/22
f 128/13/23 140/13/23 141/13/23 129/13/23
f 166/13/24 174/13/24 175/13/24 167/13/24
f 94/13/25 120/13/25 152/13/25 150/13/25
f 155/13/26 154/13/26 156/13/26 157/13/26
f 107/13/27 159/13/27 158/13/27 81/13/27
f 160/13/28 161/13/28 163/13/28 162/13/28
f 165/13/29 164/13/29 172/13/29 173/13/29
s 0
f 203/13/30 167/13/31 205/13/30 207/13/31
s 1
f 130/13/32 142/13/32 143/13/32 131/13/32
f 82/13/11 81/13/11 158/13/11 180/13/11
f 113/13/17 114/13/17 115/13/17 116/13/17 117/13/17 179/13/17 178/13/17 177/13/17 176/13/17 204/13/17 175/13/17 174/13/17 173/13/17 172/13/17 111/13/17 112/13/17
f 182/13/33 181/13/33 184/13/33 185/13/33
f 110/13/34 84/13/34 182/13/34 185/13/34
f 82/13/35 180/13/35 183/13/35 108/13/35
f 111/13/36 85/13/36 187/13/36 189/13/36
f 84/13/37 110/13/37 188/13/37 186/13/37
f 153/13/38 145/13/38 156/13/38 151/13/38
f 92/13/39 190/13/39 193/13/39 118/13/39
f 93/13/40 119/13/40 198/13/40 196/13/40
f 91/13/41 117/13/41 201/13/41 200/13/41
f 118/13/17 119/13/17 195/13/17 194/13/17 193/13/17
f 137/13/42 136/13/42 147/13/42 148/13/42
f 180/13/43 158/13/43 159/13/43 183/13/43
f 196/13/44 191/13/44 194/13/44 195/13/44
f 105/13/17 106/13/17 144/13/17 143/13/17 142/13/17 141/13/17 140/13/17 139/13/17 149/13/17 148/13/17 147/13/17 146/13/17 145/13/17 121/13/17 122/13/17 123/13/17 124/13/17 125/13/17 126/13/17 101/13/17 102/13/17 103/13/17 104/13/17
f 120/13/17 199/13/17 152/13/17 198/13/17 119/13/17
f 117/13/17 118/13/17 193/13/17 202/13/17 201/13/17
f 127/13/45 139/13/45 140/13/45 128/13/45
f 169/13/46 177/13/46 178/13/46 170/13/46
f 195/13/47 192/13/47 196/13/47
f 196/13/48 198/13/48 152/13/48 197/13/48
f 138/13/49 137/13/49 148/13/49 149/13/49
f 199/13/50 197/13/50 152/13/50
f 94/13/11 150/13/11 151/13/11 156/13/11 154/13/11 95/13/11
f 121/13/17 155/13/17 157/13/17 145/13/17 153/13/17 152/13/17 120/13/17
f 165/13/51 173/13/51 174/13/51 166/13/51
f 186/13/11 182/13/11 164/13/11 187/13/11 85/13/11 84/13/11
f 127/13/52 138/13/52 149/13/52 139/13/52
f 106/13/17 107/13/17 159/13/17 163/13/17 161/13/17
f 94/13/11 93/13/11 196/13/11 197/13/11
f 80/13/11 160/13/11 162/13/11 158/13/11 81/13/11
f 108/13/17 109/13/17 110/13/17 185/13/17 184/13/17 183/13/17
f 181/13/53 180/13/53 183/13/53 184/13/53
f 121/13/54 95/13/54 154/13/54 155/13/54
f 134/13/55 133/13/55 145/13/55 146/13/55 135/13/55
f 157/13/56 156/13/56 145/13/56
f 200/13/11 171/13/11 190/13/11 92/13/11 91/13/11
f 200/13/57 201/13/57 171/13/57
s 0
f 167/13/30 175/13/31 206/13/30 205/13/31
f 204/13/30 203/13/31 207/13/30 208/13/31
f 175/13/30 204/13/31 208/13/30 206/13/31
s 1
f 186/13/58 188/13/58 185/13/58 182/13/58
f 189/13/59 187/13/59 164/13/59
f 136/13/60 135/13/60 146/13/60 147/13/60
f 190/13/61 171/13/61 179/13/61 202/13/61 193/13/61
f 131/13/62 143/13/62 144/13/62 132/13/62
f 191/13/63 190/13/63 193/13/63 194/13/63
f 201/13/64 202/13/64 179/13/64
f 171/13/65 201/13/65 179/13/65
f 207/13/66 205/13/66 206/13/66 208/13/66
f 164/13/67 182/13/67 185/13/67 189/13/67
f 168/13/68 203/13/68 204/13/68 176/13/68 177/13/68 169/13/68
f 209/1/69 210/2/69 212/3/69 211/4/69
f 211/4/70 212/3/70 216/5/70 215/6/70
f 215/6/71 216/5/71 214/7/71 213/8/71
f 213/8/72 214/7/72 210/9/72 209/10/72
f 211/11/73 215/6/73 213/8/73 209/12/73
f 216/5/74 212/3/74 218/5/74
f 214/7/75 216/5/75 218/5/75 217/7/75
f 210/9/76 214/7/76 217/7/76
f 212/3/77 210/2/77 217/7/77 218/5/77
f 263/13/78 295/13/78 294/13/78 262/13/78
f 250/13/79 282/13/79 281/13/79 249/13/79
f 264/13/80 296/13/80 295/13/80 263/13/80
f 251/13/81 283/13/81 282/13/81 250/13/81
f 265/13/82 297/13/82 296/13/82 264/13/82
f 252/13/83 284/13/83 283/13/83 251/13/83
f 266/13/84 298/13/84 297/13/84 265/13/84
f 253/13/85 285/13/85 284/13/85 252/13/85
f 267/13/86 299/13/86 298/13/86 266/13/86
f 254/13/87 286/13/87 285/13/87 253/13/87
f 268/13/88 300/13/88 299/13/88 267/13/88
f 255/13/89 287/13/89 286/13/89 254/13/89
f 269/13/90 301/13/90 300/13/90 268/13/90
f 256/13/91 288/13/91 287/13/91 255/13/91
f 270/13/92 302/13/92 301/13/92 269/13/92
f 257/13/93 289/13/93 288/13/93 256/13/93
f 244/13/94 276/13/94 275/13/94 243/13/94
f 271/13/95 303/13/95 302/13/95 270/13/95
f 258/13/96 290/13/96 289/13/96 257/13/96
f 245/13/97 277/13/97 276/13/97 244/13/97
f 272/13/98 304/13/98 303/13/98 271/13/98
f 259/13/99 291/13/99 290/13/99 258/13/99
f 246/13/100 278/13/100 277/13/100 245/13/100
f 273/13/101 305/13/101 304/13/101 272/13/101
f 260/13/102 292/13/102 291/13/102 259/13/102
f 247/13/103 279/13/103 278/13/103 246/13/103
f 274/13/104 306/13/104 305/13/104 273/13/104
f 261/13/105 293/13/105 292/13/105 260/13/105
f 248/13/106 280/13/106 279/13/106 247/13/106
f 243/13/107 275/13/107 306/13/107 274/13/107
f 262/13/108 294/13/108 293/13/108 261/13/108
f 249/13/109 281/13/109 280/13/109 248/13/109
f 244/13/110 243/13/110 274/13/110 273/13/110 272/13/110 271/13/110 270/13/110 269/13/110 268/13/110 267/13/110 266/13/110 265/13/110 264/13/110 263/13/110 262/13/110 261/13/110 260/13/110 259/13/110 258/13/110 257/13/110 256/13/110 255/13/110 254/13/110 253/13/110 252/13/110 251/13/110 250/13/110 249/13/110 248/13/110 247/13/110 246/13/110 245/13/110
f 287/13/111 319/13/111 318/13/111 286/13/111
f 301/13/112 333/13/112 332/13/112 300/13/112
f 288/13/113 320/13/113 319/13/113 287/13/113
f 302/13/114 334/13/114 333/13/114 301/13/114
f 289/13/115 321/13/115 320/13/115 288/13/115
f 276/13/116 308/13/116 307/13/116 275/13/116
f 303/13/117 335/13/117 334/13/117 302/13/117
f 290/13/118 322/13/118 321/13/118 289/13/118
f 277/13/119 309/13/119 308/13/119 276/13/119
f 304/13/120 336/13/120 335/13/120 303/13/120
f 291/13/121 323/13/121 322/13/121 290/13/121
f 278/13/122 310/13/122 309/13/122 277/13/122
f 305/13/123 337/13/123 336/13/123 304/13/123
f 292/13/124 324/13/124 323/13/124 291/13/124
f 279/13/125 311/13/125 310/13/125 278/13/125
f 306/13/126 338/13/126 337/13/126 305/13/126
f 293/13/127 325/13/127 324/13/127 292/13/127
f 280/13/128 312/13/128 311/13/128 279/13/128
f 275/13/129 307/13/129 338/13/129 306/13/129
f 294/13/130 326/13/130 325/13/130 293/13/130
f 281/13/131 313/13/131 312/13/131 280/13/131
f 295/13/132 327/13/132 326/13/132 294/13/132
f 282/13/133 314/13/133 313/13/133 281/13/133
f 296/13/134 328/13/134 327/13/134 295/13/134
f 283/13/135 315/13/135 314/13/135 282/13/135
f 297/13/136 329/13/136 328/13/136 296/13/136
f 284/13/137 316/13/137 315/13/137 283/13/137
f 298/13/138 330/13/138 329/13/138 297/13/138
f 285/13/139 317/13/139 316/13/139 284/13/139
f 299/13/140 331/13/140 330/13/140 298/13/140
f 286/13/141 318/13/141 317/13/141 285/13/141
f 300/13/142 332/13/142 331/13/142 299/13/142
f 359/13/143 391/13/143 390/13/143 358/13/143
f 346/13/144 378/13/144 377/13/144 345/13/144
f 360/13/145 392/13/145 391/13/145 359/13/145
f 347/13/146 379/13/146 378/13/146 346/13/146
f 361/13/147 393/13/147 392/13/147 360/13/147
f 348/13/148 380/13/148 379/13/148 347/13/148
f 362/13/149 394/13/149 393/13/149 361/13/149
f 349/13/150 381/13/150 380/13/150 348/13/150
f 363/13/151 395/13/151 394/13/151 362/13/151
f 350/13/152 382/13/152 381/13/152 349/13/152
f 364/13/153 396/13/153 395/13/153 363/13/153
f 351/13/154 383/13/154 382/13/154 350/13/154
f 365/13/155 397/13/155 396/13/155 364/13/155
f 352/13/156 384/13/156 383/13/156 351/13/156
f 366/13/157 398/13/157 397/13/157 365/13/157
f 353/13/158 385/13/158 384/13/158 352/13/158
f 340/13/159 372/13/159 371/13/159 339/13/159
f 367/13/160 399/13/160 398/13/160 366/13/160
f 354/13/161 386/13/161 385/13/161 353/13/161
f 341/13/162 373/13/162 372/13/162 340/13/162
f 368/13/163 400/13/163 399/13/163 367/13/163
f 355/13/164 387/13/164 386/13/164 354/13/164
f 342/13/165 374/13/165 373/13/165 341/13/165
f 369/13/166 401/13/166 400/13/166 368/13/166
f 356/13/167 388/13/167 387/13/167 355/13/167
f 343/13/168 375/13/168 374/13/168 342/13/168
f 370/13/169 402/13/169 401/13/169 369/13/169
f 357/13/170 389/13/170 388/13/170 356/13/170
f 344/13/171 376/13/171 375/13/171 343/13/171
f 339/13/172 371/13/172 402/13/172 370/13/172
f 358/13/173 390/13/173 389/13/173 357/13/173
f 345/13/174 377/13/174 376/13/174 344/13/174
f 340/13/175 339/13/175 370/13/175 369/13/175 368/13/175 367/13/175 366/13/175 365/13/175 364/13/175 363/13/175 362/13/175 361/13/175 360/13/175 359/13/175 358/13/175 357/13/175 356/13/175 355/13/175 354/13/175 353/13/175 352/13/175 351/13/175 350/13/175 349/13/175 348/13/175 347/13/175 346/13/175 345/13/175 344/13/175 343/13/175 342/13/175 341/13/175
f 383/13/176 415/13/176 414/13/176 382/13/176
f 397/13/177 429/13/177 428/13/177 396/13/177
f 384/13/178 416/13/178 415/13/178 383/13/178
f 398/13/179 430/13/179 429/13/179 397/13/179
f 385/13/180 417/13/180 416/13/180 384/13/180
f 372/13/181 404/13/181 403/13/181 371/13/181
f 399/13/182 431/13/182 430/13/182 398/13/182
f 386/13/183 418/13/183 417/13/183 385/13/183
f 373/13/184 405/13/184 404/13/184 372/13/184
f 400/13/185 432/13/185 431/13/185 399/13/185
f 387/13/186 419/13/186 418/13/186 386/13/186
f 374/13/187 406/13/187 405/13/187 373/13/187
f 401/13/188 433/13/188 432/13/188 400/13/188
f 388/13/189 420/13/189 419/13/189 387/13/189
f 375/13/190 407/13/190 406/13/190 374/13/190
f 402/13/191 434/13/191 433/13/191 401/13/191
f 389/13/192 421/13/192 420/13/192 388/13/192
f 376/13/193 408/13/193 407/13/193 375/13/193
f 371/13/194 403/13/194 434/13/194 402/13/194
f 390/13/195 422/13/195 421/13/195 389/13/195
f 377/13/196 409/13/196 408/13/196 376/13/196
f 391/13/197 423/13/197 422/13/197 390/13/197
f 378/13/198 410/13/198 409/13/198 377/13/198
f 392/13/199 424/13/199 423/13/199 391/13/199
f 379/13/200 411/13/200 410/13/200 378/13/200
f 393/13/201 425/13/201 424/13/201 392/13/201
f 380/13/202 412/13/202 411/13/202 379/13/202
f 394/13/203 426/13/203 425/13/203 393/13/203
f 381/13/204 413/13/204 412/13/204 380/13/204
f 395/13/205 427/13/205 426/13/205 394/13/205
f 382/13/206 414/13/206 413/13/206 381/13/206
f 396/13/207 428/13/207 427/13/207 395/13/207
f 440/13/208 439/13/208 455/13/208 456/13/208
f 442/13/209 435/13/209 444/13/209 450/13/209
f 440/13/210 441/13/210 449/13/210 448/13/210
f 438/13/211 439/13/211 447/13/211 446/13/211
f 436/13/212 437/13/212 445/13/212 443/13/212
f 441/13/213 442/13/213 450/13/213 449/13/213
f 439/13/214 440/13/214 448/13/214 447/13/214
f 437/13/215 438/13/215 446/13/215 445/13/215
f 435/13/208 436/13/208 443/13/208 444/13/208
f 438/13/213 437/13/213 453/13/213 454/13/213
f 436/13/214 435/13/214 452/13/214 451/13/214
f 435/13/211 442/13/211 458/13/211 452/13/211
f 441/13/212 440/13/212 456/13/212 457/13/212
f 439/13/209 438/13/209 454/13/209 455/13/209
f 437/13/210 436/13/210 451/13/210 453/13/210
f 442/13/215 441/13/215 457/13/215 458/13/215
f 459/13/211 466/13/211 482/13/211 476/13/211
f 466/13/209 459/13/209 468/13/209 474/13/209
f 464/13/210 465/13/210 473/13/210 472/13/210
f 462/13/211 463/13/211 471/13/211 470/13/211
f 460/13/212 461/13/212 469/13/212 467/13/212
f 465/13/213 466/13/213 474/13/213 473/13/213
f 463/13/214 464/13/214 472/13/214 471/13/214
f 461/13/215 462/13/215 470/13/215 469/13/215
f 459/13/208 460/13/208 467/13/208 468/13/208
f 465/13/212 464/13/212 480/13/212 481/13/212
f 463/13/209 462/13/209 478/13/209 479/13/209
f 461/13/210 460/13/210 475/13/210 477/13/210
f 466/13/215 465/13/215 481/13/215 482/13/215
f 464/13/208 463/13/208 479/13/208 480/13/208
f 462/13/213 461/13/213 477/13/213 478/13/213
f 460/13/214 459/13/214 476/13/214 475/13/214
f 527/13/10 501/13/10 601/13/10 604/13/10
f 491/13/11 490/13/11 588/13/11 589/13/11 590/13/11 492/13/11
f 537/13/12 549/13/12 550/13/12 538/13/12
f 528/13/13 502/13/13 606/13/13 608/13/13
f 493/13/14 519/13/14 580/13/14 572/13/14
f 525/13/15 499/13/15 579/13/15 587/13/15
f 503/13/216 529/13/216 553/13/216 541/13/216
f 515/13/17 516/13/17 591/13/17 567/13/17
f 500/13/11 599/13/11 600/13/11 605/13/11 601/13/11 501/13/11
f 504/13/11 503/13/11 541/13/11 542/13/11 543/13/11 544/13/11 545/13/11 546/13/11 535/13/11 536/13/11 537/13/11 538/13/11 539/13/11 540/13/11 488/13/11 487/13/11 486/13/11 485/13/11 484/13/11 483/13/11 508/13/11 507/13/11 506/13/11 505/13/11
f 570/13/18 571/13/18 567/13/18 566/13/18
f 488/13/19 514/13/19 569/13/19 568/13/19
f 558/13/217 560/13/217 561/13/217 559/13/217
f 578/13/21 586/13/21 587/13/21 579/13/21
f 518/13/17 519/13/17 598/13/17 593/13/17 597/13/17
f 496/13/11 495/13/11 494/13/11 493/13/11 572/13/11 573/13/11 574/13/11 575/13/11 612/13/11 576/13/11 577/13/11 578/13/11 579/13/11 499/13/11 498/13/11 497/13/11
f 514/13/218 488/13/218 540/13/218 552/13/218
f 536/13/23 548/13/23 549/13/23 537/13/23
f 574/13/24 582/13/24 583/13/24 575/13/24
f 502/13/219 528/13/219 560/13/219 558/13/219
f 563/13/220 562/13/220 564/13/220 565/13/220
f 515/13/221 489/13/221 566/13/221 567/13/221
f 568/13/222 569/13/222 571/13/222 570/13/222
f 573/13/29 572/13/29 580/13/29 581/13/29
s 0
f 612/13/30 575/13/31 614/13/30 616/13/31
s 1
f 538/13/223 550/13/223 551/13/223 539/13/223
f 490/13/11 489/13/11 594/13/11 588/13/11
f 521/13/17 522/13/17 523/13/17 524/13/17 525/13/17 587/13/17 586/13/17 585/13/17 584/13/17 613/13/17 583/13/17 582/13/17 581/13/17 580/13/17 519/13/17 520/13/17
f 590/13/33 589/13/33 592/13/33 593/13/33
f 518/13/224 492/13/224 590/13/224 593/13/224
f 490/13/35 588/13/35 591/13/35 516/13/35
f 489/13/225 515/13/225 567/13/225 594/13/225
f 519/13/36 493/13/36 596/13/36 598/13/36
f 492/13/37 518/13/37 597/13/37 595/13/37
f 561/13/226 553/13/226 564/13/226 559/13/226
f 500/13/39 599/13/39 602/13/39 526/13/39
f 501/13/40 527/13/40 607/13/40 605/13/40
f 499/13/41 525/13/41 610/13/41 609/13/41
f 526/13/17 527/13/17 604/13/17 603/13/17 602/13/17
f 545/13/42 544/13/42 555/13/42 556/13/42
f 588/13/227 594/13/227 567/13/227 591/13/227
f 605/13/44 600/13/44 603/13/44 604/13/44
f 513/13/17 514/13/17 552/13/17 551/13/17 550/13/17 549/13/17 548/13/17 547/13/17 557/13/17 556/13/17 555/13/17 554/13/17 553/13/17 529/13/17 530/13/17 531/13/17 532/13/17 533/13/17 534/13/17 509/13/17 510/13/17 511/13/17 512/13/17
f 528/13/17 608/13/17 560/13/17 607/13/17 527/13/17
f 525/13/17 526/13/17 602/13/17 611/13/17 610/13/17
f 535/13/45 547/13/45 548/13/45 536/13/45
f 577/13/46 585/13/46 586/13/46 578/13/46
f 604/13/228 601/13/228 605/13/228
f 605/13/229 607/13/229 560/13/229 606/13/229
f 546/13/49 545/13/49 556/13/49 557/13/49
f 608/13/230 606/13/230 560/13/230
f 502/13/11 558/13/11 559/13/11 564/13/11 562/13/11 503/13/11
f 529/13/17 563/13/17 565/13/17 553/13/17 561/13/17 560/13/17 528/13/17
f 573/13/51 581/13/51 582/13/51 574/13/51
f 595/13/11 590/13/11 572/13/11 596/13/11 493/13/11 492/13/11
f 535/13/52 546/13/52 557/13/52 547/13/52
f 514/13/17 515/13/17 567/13/17 571/13/17 569/13/17
f 502/13/11 501/13/11 605/13/11 606/13/11
f 488/13/11 568/13/11 570/13/11 566/13/11 489/13/11
f 516/13/17 517/13/17 518/13/17 593/13/17 592/13/17 591/13/17
f 589/13/53 588/13/53 591/13/53 592/13/53
f 529/13/54 503/13/54 562/13/54 563/13/54
f 542/13/231 541/13/231 553/13/231 554/13/231 543/13/231
f 565/13/232 564/13/232 553/13/232
f 609/13/11 579/13/11 599/13/11 500/13/11 499/13/11
f 609/13/233 610/13/233 579/13/233
s 0
f 575/13/30 583/13/31 615/13/30 614/13/31
f 613/13/30 612/13/31 616/13/30 617/13/31
f 583/13/30 613/13/31 617/13/30 615/13/31
s 1
f 595/13/234 597/13/235 593/13/58 590/13/234
f 598/13/236 596/13/236 572/13/236
f 544/13/237 543/13/237 554/13/237 555/13/237
f 599/13/61 579/13/61 587/13/61 611/13/61 602/13/61
f 539/13/238 551/13/238 552/13/238 540/13/238
f 600/13/63 599/13/63 602/13/63 603/13/63
f 610/13/11 611/13/11 587/13/11
f 579/13/239 610/13/239 587/13/239
f 616/13/66 614/13/66 615/13/66 617/13/66
f 572/13/240 590/13/240 593/13/240 598/13/240
f 576/13/68 612/13/68 613/13/68 584/13/68 585/13/68 577/13/68
f 219/1/243 220/2/243 222/3/243 221/4/243
f 221/4/244 222/3/244 226/5/244 225/6/244
f 225/6/245 226/5/245 224/7/245 223/8/245
f 223/8/246 224/7/246 220/9/246 219/10/246
f 221/11/247 225/6/247 223/8/247 219/12/247
f 226/5/248 222/14/248 220/15/248 224/7/248
f 227/1/243 228/2/243 230/3/243 229/4/243
f 229/4/17 230/3/17 234/5/17 233/6/17
f 233/6/245 234/5/245 232/7/245 231/8/245
f 231/8/11 232/7/11 228/9/11 227/10/11
usemtl Material.011
f 12/13/241 11/13/241 42/13/241 41/13/241 40/13/241 39/13/241 38/13/241 37/13/241 36/13/241 35/13/241 34/13/241 33/13/241 32/13/241 31/13/241 30/13/241 29/13/241 28/13/241 27/13/241 26/13/241 25/13/241 24/13/241 23/13/241 22/13/241 21/13/241 20/13/241 19/13/241 18/13/241 17/13/241 16/13/241 15/13/241 14/13/241 13/13/241
f 44/13/242 45/13/242 46/13/242 47/13/242 48/13/242 49/13/242 50/13/242 51/13/242 52/13/242 53/13/242 54/13/242 55/13/242 56/13/242 57/13/242 58/13/242 59/13/242 60/13/242 61/13/242 62/13/242 63/13/242 64/13/242 65/13/242 66/13/242 67/13/242 68/13/242 69/13/242 70/13/242 71/13/242 72/13/242 73/13/242 74/13/242 43/13/242
usemtl miau
f 229/11/249 233/6/249 231/8/249 227/12/249
f 234/5/31 230/14/31 228/15/31 232/7/31
f 235/1/243 236/2/243 238/3/243 237/4/243
f 237/4/17 238/3/17 242/5/17 241/6/17
f 241/6/245 242/5/245 240/7/245 239/8/245
f 239/8/11 240/7/11 236/9/11 235/10/11
f 237/11/249 241/6/249 239/8/249 235/12/249
f 242/5/31 238/14/31 236/15/31 240/7/31
usemtl Material.034
f 451/13/245 452/13/245 458/13/245 457/13/245 456/13/245 455/13/245 454/13/245 453/13/245
f 475/13/245 476/13/245 482/13/245 481/13/245 480/13/245 479/13/245 478/13/245 477/13/245
