# Blender 4.5.3 LTS
# www.blender.org
mtllib BasicoINMOVIL.mtl
o Cube.070
v 0.145003 -0.006970 -0.004617
v 0.219722 -0.072281 0.074471
v 0.123334 -0.006970 0.011917
v 0.179888 -0.072281 0.104865
v 0.145003 0.011587 -0.004617
v 0.219722 -0.025223 0.074471
v 0.123334 0.011587 0.011917
v 0.179888 -0.025223 0.104865
v 0.241065 0.143391 0.102441
v 0.201232 0.143391 0.132836
v -0.243791 0.261287 0.088960
v -0.246285 0.261241 0.091675
v -0.248201 0.261196 0.094824
v -0.249466 0.261155 0.098287
v -0.250032 0.261119 0.101930
v -0.249875 0.261089 0.105613
v -0.249004 0.261067 0.109196
v -0.247450 0.261053 0.112539
v -0.245273 0.261049 0.115515
v -0.242558 0.261053 0.118009
v -0.239409 0.261067 0.119926
v -0.235946 0.261089 0.121191
v -0.232303 0.261119 0.121757
v -0.228620 0.261155 0.121601
v -0.225038 0.261196 0.120729
v -0.221694 0.261241 0.119176
v -0.218719 0.261287 0.117000
v -0.216225 0.261334 0.114285
v -0.214308 0.261378 0.111136
v -0.213043 0.261420 0.107673
v -0.212478 0.261456 0.104030
v -0.212634 0.261485 0.100346
v -0.213506 0.261507 0.096764
v -0.215060 0.261521 0.093421
v -0.217236 0.261526 0.090445
v -0.219951 0.261521 0.087951
v -0.223100 0.261507 0.086034
v -0.226563 0.261485 0.084768
v -0.230206 0.261456 0.084203
v -0.233890 0.261420 0.084359
v -0.237472 0.261378 0.085230
v -0.240815 0.261334 0.086784
v 0.198785 0.261287 0.114963
v 0.201298 0.261240 0.117661
v 0.204289 0.261195 0.119816
v 0.207643 0.261154 0.121346
v 0.211231 0.261118 0.122193
v 0.214915 0.261088 0.122323
v 0.218554 0.261066 0.121733
v 0.222008 0.261053 0.120443
v 0.225144 0.261048 0.118505
v 0.227842 0.261053 0.115992
v 0.229998 0.261066 0.113001
v 0.231528 0.261088 0.109647
v 0.232375 0.261118 0.106059
v 0.232506 0.261154 0.102374
v 0.231915 0.261195 0.098735
v 0.230626 0.261240 0.095281
v 0.228688 0.261287 0.092146
v 0.226175 0.261333 0.089448
v 0.223184 0.261378 0.087293
v 0.219830 0.261419 0.085762
v 0.216242 0.261455 0.084916
v 0.212558 0.261485 0.084785
v 0.208919 0.261507 0.085376
v 0.205465 0.261521 0.086666
v 0.202329 0.261525 0.088604
v 0.199631 0.261521 0.091117
v 0.197475 0.261507 0.094108
v 0.195945 0.261485 0.097462
v 0.195098 0.261455 0.101050
v 0.194967 0.261419 0.104734
v 0.195558 0.261378 0.108373
v 0.196847 0.261333 0.111827
v 0.145171 0.006884 -0.048788
v 0.145171 0.024814 -0.050824
v 0.145171 0.036247 -0.055613
v 0.145171 0.046820 -0.063389
v 0.145171 0.056601 -0.073854
v 0.145171 0.071966 -0.101154
v 0.145171 0.144918 -0.239306
v 0.145171 0.149004 -0.264547
v 0.145171 0.138988 -0.297127
v 0.145171 0.129684 -0.306013
v 0.145171 0.120419 -0.314203
v 0.145171 0.109324 -0.321381
v 0.145171 0.086488 -0.325126
v 0.145171 0.002765 -0.329577
v 0.145171 -0.080957 -0.326498
v 0.145171 -0.103793 -0.322815
v 0.145171 -0.119015 -0.314203
v 0.145171 -0.128544 -0.306013
v 0.145171 -0.144308 -0.281349
v 0.145171 -0.146331 -0.247142
v 0.145171 -0.065620 -0.101154
v 0.145171 -0.059033 -0.086606
v 0.145171 -0.050152 -0.073854
v 0.145171 -0.040840 -0.063389
v 0.145171 -0.028287 -0.055613
v 0.145171 -0.011046 -0.049986
v 0.174045 0.006884 -0.048788
v 0.174045 0.024814 -0.050824
v 0.174045 0.036247 -0.055613
v 0.174045 0.046820 -0.063389
v 0.174045 0.056601 -0.073854
v 0.174045 0.071966 -0.101154
v 0.174045 0.144918 -0.239306
v 0.174045 0.149004 -0.264547
v 0.174045 0.138988 -0.297127
v 0.174045 0.129684 -0.306013
v 0.174045 0.120419 -0.314203
v 0.174045 0.109324 -0.321381
v 0.174045 0.086488 -0.325126
v 0.174045 0.002765 -0.329576
v 0.174045 -0.080957 -0.326498
v 0.174045 -0.103793 -0.322815
v 0.174045 -0.119015 -0.314203
v 0.174045 -0.128544 -0.306013
v 0.174045 -0.144308 -0.281349
v 0.174045 -0.146331 -0.247142
v 0.174045 -0.065620 -0.101154
v 0.174045 -0.059033 -0.086606
v 0.174045 -0.050152 -0.073854
v 0.174045 -0.040840 -0.063389
v 0.174045 -0.028287 -0.055613
v 0.174045 -0.011046 -0.049986
v 0.145171 0.007325 -0.033678
v 0.145171 0.025255 -0.035715
v 0.145171 0.036688 -0.040503
v 0.145171 0.047261 -0.048279
v 0.145171 0.057042 -0.058744
v 0.145171 0.072408 -0.086044
v 0.145171 -0.065848 -0.086044
v 0.145171 -0.058591 -0.071496
v 0.145171 -0.049711 -0.058744
v 0.145171 -0.040398 -0.048279
v 0.145171 -0.027846 -0.040503
v 0.145171 -0.010605 -0.034877
v 0.174045 0.007325 -0.033678
v 0.174045 0.025255 -0.035715
v 0.174045 0.036688 -0.040503
v 0.174045 0.047261 -0.048279
v 0.174045 0.057042 -0.058744
v 0.174045 0.072408 -0.086044
v 0.174045 -0.068965 -0.086044
v 0.174045 -0.049711 -0.058744
v 0.174045 -0.040398 -0.048279
v 0.174045 -0.027846 -0.040503
v 0.174045 -0.010605 -0.034877
v 0.145171 -0.153823 -0.243160
v 0.145171 -0.073112 -0.097173
v 0.174045 -0.153823 -0.243160
v 0.174045 -0.076245 -0.097173
v 0.145171 -0.059332 -0.089321
v 0.174045 -0.059332 -0.089321
v 0.145171 -0.065883 -0.086028
v 0.174045 -0.068873 -0.086062
v 0.145171 0.152325 -0.235395
v 0.174045 0.151876 -0.235664
v 0.145171 0.065971 -0.089801
v 0.174045 0.065971 -0.089801
v 0.145171 0.072439 -0.085890
v 0.174045 0.072342 -0.085890
v 0.145171 0.125844 -0.320482
v 0.145171 0.109423 -0.330722
v 0.145171 0.086587 -0.334467
v 0.145171 0.032264 -0.338007
v 0.145171 0.002865 -0.338917
v 0.145171 -0.080858 -0.335839
v 0.145171 -0.103694 -0.332156
v 0.145171 -0.118916 -0.323544
v 0.174045 0.125796 -0.320233
v 0.174045 0.109423 -0.330722
v 0.174045 0.086587 -0.334467
v 0.174045 0.032264 -0.338007
v 0.174045 0.002865 -0.338917
v 0.174045 -0.080858 -0.335839
v 0.174045 -0.103694 -0.332156
v 0.174045 -0.118916 -0.323544
v 0.145171 0.156947 -0.263071
v 0.145171 0.146931 -0.302033
v 0.145171 0.137627 -0.310919
v 0.174045 0.156947 -0.263156
v 0.174045 0.146931 -0.302033
v 0.174045 0.137627 -0.310920
v 0.145171 0.152267 -0.235433
v 0.145171 0.137603 -0.310885
v 0.145171 0.125799 -0.320289
v 0.174045 0.137691 -0.310792
v 0.174045 0.125799 -0.320289
v 0.145171 -0.134851 -0.310180
v 0.145171 -0.141495 -0.301434
v 0.145171 -0.151888 -0.281886
v 0.174045 -0.134834 -0.310061
v 0.174045 -0.141495 -0.301434
v 0.174045 -0.152117 -0.281866
v 0.145171 -0.152081 -0.281809
v 0.145171 -0.153812 -0.243167
v 0.174045 -0.152081 -0.281809
v 0.174045 -0.153660 -0.243168
v 0.145171 -0.118865 -0.323511
v 0.174045 -0.118958 -0.323784
v 0.174045 -0.126896 -0.316922
v 0.145171 0.017564 -0.338462
v 0.174045 0.017564 -0.338462
v 0.145171 0.032264 -0.338007
v 0.174045 0.032264 -0.338007
v 0.145171 0.017564 -0.338462
v 0.174045 0.017564 -0.338462
v -0.128693 -0.008512 0.026050
v -0.201736 -0.073823 0.106688
v -0.146861 -0.008512 0.005731
v -0.235134 -0.073823 0.069336
v -0.128692 0.010046 0.026050
v -0.201736 -0.026764 0.106688
v -0.146861 0.010046 0.005731
v -0.235134 -0.026764 0.069336
v -0.227964 0.141849 0.130139
v -0.261362 0.141849 0.092788
v 0.147118 0.085432 0.149919
v -0.146569 0.085432 0.149772
v 0.147034 0.085432 0.317380
v -0.146653 0.085432 0.317233
v 0.147118 -0.093628 0.149919
v -0.146569 -0.093628 0.149772
v 0.147034 -0.093628 0.317380
v -0.146652 -0.093628 0.317233
v -0.055253 0.047309 -0.067638
v -0.055253 0.047309 0.226049
v 0.045639 0.047309 -0.067638
v 0.045639 0.047309 0.226049
v -0.055253 -0.052486 -0.067638
v -0.055253 -0.052486 0.226049
v 0.045639 -0.052486 -0.067638
v 0.045639 -0.052486 0.226049
v -0.148961 0.144254 -0.248567
v -0.148961 0.144254 0.045120
v 0.144725 0.144254 -0.248567
v 0.144725 0.144254 0.045120
v -0.148961 -0.149432 -0.248567
v -0.148961 -0.149433 0.045120
v 0.144725 -0.149432 -0.248567
v 0.144725 -0.149433 0.045120
v 0.168509 0.052554 0.136820
v 0.175621 0.053250 0.144451
v 0.184089 0.053919 0.150546
v 0.193587 0.054535 0.154870
v 0.203752 0.055076 0.157257
v 0.214191 0.055519 0.157615
v 0.224504 0.055848 0.155931
v 0.234294 0.056051 0.152269
v 0.243186 0.056120 0.146771
v 0.250837 0.056051 0.139646
v 0.256954 0.055848 0.131170
v 0.261301 0.055519 0.121668
v 0.263711 0.055076 0.111504
v 0.264092 0.054535 0.101071
v 0.262430 0.053919 0.090767
v 0.258787 0.053250 0.080991
v 0.253304 0.052554 0.072116
v 0.246192 0.051859 0.064485
v 0.237724 0.051190 0.058390
v 0.228225 0.050574 0.054066
v 0.218061 0.050033 0.051679
v 0.207622 0.049590 0.051321
v 0.197309 0.049261 0.053005
v 0.187519 0.049058 0.056666
v 0.178627 0.048989 0.062165
v 0.170976 0.049058 0.069289
v 0.164859 0.049261 0.077766
v 0.160512 0.049590 0.087268
v 0.158102 0.050033 0.097431
v 0.157720 0.050574 0.107865
v 0.159383 0.051190 0.118168
v 0.163026 0.051859 0.127945
v 0.168509 0.214762 0.136820
v 0.175621 0.215458 0.144451
v 0.184089 0.216127 0.150546
v 0.193587 0.216743 0.154870
v 0.203752 0.217283 0.157257
v 0.214191 0.217727 0.157615
v 0.224504 0.218056 0.155931
v 0.234294 0.218259 0.152269
v 0.243186 0.218327 0.146771
v 0.250837 0.218259 0.139646
v 0.256954 0.218056 0.131170
v 0.261301 0.217727 0.121668
v 0.263711 0.217283 0.111504
v 0.264092 0.216743 0.101071
v 0.262430 0.216127 0.090767
v 0.258787 0.215458 0.080991
v 0.253304 0.214762 0.072116
v 0.246192 0.214067 0.064485
v 0.237724 0.213398 0.058390
v 0.228225 0.212781 0.054066
v 0.218061 0.212241 0.051679
v 0.207622 0.211798 0.051321
v 0.197309 0.211468 0.053005
v 0.187519 0.211265 0.056666
v 0.178627 0.211197 0.062165
v 0.170976 0.211265 0.069289
v 0.164859 0.211468 0.077766
v 0.160512 0.211798 0.087268
v 0.158102 0.212241 0.097431
v 0.157720 0.212781 0.107865
v 0.159383 0.213398 0.118168
v 0.163026 0.214067 0.127945
v 0.197526 0.268093 0.114678
v 0.199771 0.268313 0.117086
v 0.202443 0.268524 0.119009
v 0.205441 0.268718 0.120374
v 0.208648 0.268889 0.121127
v 0.211943 0.269029 0.121240
v 0.215197 0.269133 0.120709
v 0.218287 0.269197 0.119553
v 0.221093 0.269218 0.117818
v 0.223508 0.269197 0.115570
v 0.225438 0.269133 0.112895
v 0.226810 0.269029 0.109896
v 0.227571 0.268889 0.106689
v 0.227691 0.268718 0.103396
v 0.227166 0.268524 0.100144
v 0.226017 0.268313 0.097059
v 0.224287 0.268093 0.094258
v 0.222042 0.267874 0.091850
v 0.219370 0.267663 0.089926
v 0.216372 0.267468 0.088562
v 0.213164 0.267298 0.087808
v 0.209870 0.267158 0.087695
v 0.206615 0.267054 0.088227
v 0.203525 0.266990 0.089382
v 0.200719 0.266968 0.091118
v 0.198305 0.266990 0.093366
v 0.196374 0.267054 0.096041
v 0.195003 0.267158 0.099040
v 0.194242 0.267298 0.102247
v 0.194122 0.267468 0.105540
v 0.194646 0.267663 0.108792
v 0.195796 0.267874 0.111877
v -0.267881 0.052554 0.060417
v -0.274936 0.053250 0.068100
v -0.280355 0.053919 0.077016
v -0.283928 0.054535 0.086822
v -0.285518 0.055075 0.097141
v -0.285064 0.055519 0.107576
v -0.282584 0.055848 0.117727
v -0.278173 0.056051 0.127204
v -0.272000 0.056120 0.135641
v -0.264302 0.056051 0.142716
v -0.255377 0.055848 0.148155
v -0.245565 0.055519 0.151751
v -0.235245 0.055075 0.153364
v -0.224813 0.054535 0.152934
v -0.214670 0.053919 0.150475
v -0.205206 0.053250 0.146084
v -0.196785 0.052554 0.139928
v -0.189729 0.051859 0.132245
v -0.184311 0.051190 0.123329
v -0.180738 0.050574 0.113523
v -0.179148 0.050033 0.103204
v -0.179601 0.049590 0.092769
v -0.182081 0.049260 0.082618
v -0.186493 0.049058 0.073141
v -0.192666 0.048989 0.064704
v -0.200363 0.049058 0.057629
v -0.209289 0.049260 0.052190
v -0.219100 0.049590 0.048594
v -0.229420 0.050033 0.046981
v -0.239852 0.050574 0.047411
v -0.249995 0.051190 0.049870
v -0.259459 0.051859 0.054261
v -0.267881 0.214762 0.060417
v -0.274936 0.215458 0.068100
v -0.280355 0.216126 0.077016
v -0.283928 0.216743 0.086822
v -0.285518 0.217283 0.097141
v -0.285064 0.217726 0.107576
v -0.282584 0.218056 0.117727
v -0.278173 0.218259 0.127204
v -0.272000 0.218327 0.135641
v -0.264302 0.218259 0.142716
v -0.255377 0.218056 0.148155
v -0.245565 0.217726 0.151751
v -0.235245 0.217283 0.153364
v -0.224813 0.216743 0.152934
v -0.214670 0.216126 0.150475
v -0.205206 0.215458 0.146084
v -0.196785 0.214762 0.139928
v -0.189729 0.214066 0.132245
v -0.184311 0.213398 0.123329
v -0.180738 0.212781 0.113523
v -0.179148 0.212241 0.103204
v -0.179601 0.211798 0.092769
v -0.182082 0.211468 0.082618
v -0.186493 0.211265 0.073141
v -0.192666 0.211197 0.064704
v -0.200363 0.211265 0.057629
v -0.209289 0.211468 0.052190
v -0.219100 0.211798 0.048594
v -0.229420 0.212241 0.046981
v -0.239852 0.212781 0.047411
v -0.249995 0.213398 0.049870
v -0.259459 0.214066 0.054261
v -0.243551 0.268093 0.087626
v -0.245778 0.268313 0.090051
v -0.247488 0.268524 0.092865
v -0.248615 0.268718 0.095959
v -0.249117 0.268889 0.099216
v -0.248974 0.269029 0.102509
v -0.248191 0.269133 0.105713
v -0.246799 0.269197 0.108703
v -0.244851 0.269218 0.111366
v -0.242422 0.269197 0.113599
v -0.239605 0.269133 0.115315
v -0.236509 0.269029 0.116450
v -0.233252 0.268889 0.116959
v -0.229960 0.268718 0.116823
v -0.226759 0.268524 0.116047
v -0.223772 0.268313 0.114662
v -0.221114 0.268093 0.112719
v -0.218887 0.267874 0.110294
v -0.217178 0.267663 0.107480
v -0.216050 0.267468 0.104386
v -0.215548 0.267297 0.101129
v -0.215691 0.267158 0.097836
v -0.216474 0.267054 0.094632
v -0.217866 0.266990 0.091642
v -0.219814 0.266968 0.088979
v -0.222244 0.266990 0.086746
v -0.225060 0.267054 0.085030
v -0.228157 0.267158 0.083895
v -0.231414 0.267297 0.083386
v -0.234706 0.267468 0.083522
v -0.237907 0.267663 0.084298
v -0.240893 0.267874 0.085683
v -0.135699 0.085190 0.242153
v -0.119333 0.085190 0.281664
v -0.079821 0.085190 0.298031
v -0.040309 0.085190 0.281664
v -0.023943 0.085190 0.242152
v -0.040309 0.085190 0.202641
v -0.079821 0.085190 0.186274
v -0.119333 0.085190 0.202641
v -0.119333 0.131659 0.281664
v -0.135699 0.131659 0.242153
v -0.079821 0.131659 0.298031
v -0.040309 0.131659 0.281664
v -0.023943 0.131659 0.242153
v -0.040309 0.131659 0.202641
v -0.079821 0.131659 0.186274
v -0.119333 0.131659 0.202641
v -0.119333 0.102212 0.281664
v -0.135699 0.102212 0.242153
v -0.079821 0.102212 0.298031
v -0.040309 0.102212 0.281664
v -0.023943 0.102212 0.242152
v -0.040309 0.102212 0.202641
v -0.079821 0.102212 0.186274
v -0.119333 0.102212 0.202641
v 0.014174 0.085372 0.242152
v 0.030541 0.085372 0.281664
v 0.070053 0.085372 0.298031
v 0.109564 0.085372 0.281664
v 0.125931 0.085372 0.242153
v 0.109565 0.085372 0.202641
v 0.070053 0.085372 0.186274
v 0.030541 0.085372 0.202641
v 0.030541 0.131841 0.281664
v 0.014174 0.131841 0.242153
v 0.070053 0.131841 0.298031
v 0.109564 0.131841 0.281664
v 0.125931 0.131841 0.242153
v 0.109564 0.131841 0.202641
v 0.070053 0.131841 0.186274
v 0.030541 0.131841 0.202641
v 0.030541 0.106098 0.281664
v 0.014174 0.106098 0.242153
v 0.070053 0.106098 0.298031
v 0.109565 0.106098 0.281664
v 0.125931 0.106098 0.242153
v 0.109564 0.106098 0.202641
v 0.070053 0.106098 0.186274
v 0.030541 0.106098 0.202641
v -0.177844 0.006884 -0.048788
v -0.177844 0.024814 -0.050824
v -0.177844 0.036247 -0.055613
v -0.177844 0.046820 -0.063389
v -0.177844 0.056601 -0.073854
v -0.177844 0.071966 -0.101154
v -0.177844 0.144918 -0.239306
v -0.177844 0.149004 -0.264547
v -0.177844 0.138988 -0.297127
v -0.177844 0.129684 -0.306013
v -0.177844 0.120419 -0.314203
v -0.177844 0.109324 -0.321381
v -0.177844 0.086488 -0.325126
v -0.177844 0.002765 -0.329576
v -0.177844 -0.080957 -0.326498
v -0.177844 -0.103793 -0.322815
v -0.177844 -0.119015 -0.314203
v -0.177844 -0.128544 -0.306013
v -0.177844 -0.144308 -0.281349
v -0.177844 -0.146331 -0.247142
v -0.177844 -0.065620 -0.101154
v -0.177844 -0.059033 -0.086606
v -0.177844 -0.050152 -0.073854
v -0.177844 -0.040840 -0.063389
v -0.177844 -0.028287 -0.055613
v -0.177844 -0.011046 -0.049986
v -0.148970 0.006884 -0.048788
v -0.148970 0.024814 -0.050824
v -0.148970 0.036247 -0.055613
v -0.148970 0.046820 -0.063389
v -0.148970 0.056601 -0.073854
v -0.148970 0.071966 -0.101154
v -0.148970 0.144918 -0.239306
v -0.148970 0.149004 -0.264547
v -0.148970 0.138988 -0.297127
v -0.148970 0.129684 -0.306013
v -0.148970 0.120419 -0.314203
v -0.148970 0.109324 -0.321381
v -0.148970 0.086488 -0.325126
v -0.148970 0.002765 -0.329577
v -0.148970 -0.080957 -0.326498
v -0.148970 -0.103793 -0.322815
v -0.148970 -0.119015 -0.314203
v -0.148970 -0.128544 -0.306013
v -0.148970 -0.144308 -0.281349
v -0.148970 -0.146331 -0.247142
v -0.148970 -0.065620 -0.101154
v -0.148970 -0.059033 -0.086606
v -0.148970 -0.050152 -0.073854
v -0.148970 -0.040840 -0.063389
v -0.148970 -0.028287 -0.055613
v -0.148970 -0.011046 -0.049986
v -0.177844 0.007325 -0.033678
v -0.177844 0.025255 -0.035715
v -0.177844 0.036688 -0.040503
v -0.177844 0.047261 -0.048279
v -0.177844 0.057042 -0.058744
v -0.177844 0.072408 -0.086044
v -0.177844 -0.065848 -0.086044
v -0.177844 -0.058592 -0.071496
v -0.177844 -0.049711 -0.058744
v -0.177844 -0.040399 -0.048279
v -0.177844 -0.027846 -0.040503
v -0.177844 -0.010605 -0.034877
v -0.148970 0.007325 -0.033678
v -0.148970 0.025255 -0.035715
v -0.148970 0.036688 -0.040503
v -0.148970 0.047261 -0.048279
v -0.148970 0.057042 -0.058744
v -0.148970 0.072408 -0.086044
v -0.148970 -0.068965 -0.086044
v -0.148970 -0.049711 -0.058744
v -0.148970 -0.040399 -0.048279
v -0.148970 -0.027846 -0.040503
v -0.148970 -0.010605 -0.034877
v -0.177844 -0.153823 -0.243160
v -0.177844 -0.073112 -0.097173
v -0.148970 -0.153823 -0.243160
v -0.148970 -0.076245 -0.097173
v -0.177844 -0.059332 -0.089321
v -0.148970 -0.059332 -0.089321
v -0.177844 -0.065883 -0.086029
v -0.148970 -0.068873 -0.086062
v -0.177844 0.152325 -0.235395
v -0.148970 0.151876 -0.235664
v -0.177844 0.065971 -0.089801
v -0.148970 0.065971 -0.089801
v -0.177844 0.072439 -0.085890
v -0.148970 0.072342 -0.085890
v -0.177844 0.125844 -0.320482
v -0.177844 0.109423 -0.330722
v -0.177844 0.086587 -0.334467
v -0.177844 0.032264 -0.338007
v -0.177844 0.002865 -0.338917
v -0.177844 -0.080858 -0.335839
v -0.177844 -0.103694 -0.332156
v -0.177844 -0.118916 -0.323544
v -0.148970 0.125796 -0.320233
v -0.148970 0.109423 -0.330722
v -0.148970 0.086587 -0.334467
v -0.148970 0.032264 -0.338007
v -0.148970 0.002865 -0.338917
v -0.148970 -0.080858 -0.335839
v -0.148970 -0.103694 -0.332156
v -0.148970 -0.118916 -0.323544
v -0.177844 0.156947 -0.263071
v -0.177844 0.146931 -0.302033
v -0.177844 0.137627 -0.310920
v -0.148970 0.156947 -0.263156
v -0.148970 0.146931 -0.302033
v -0.148970 0.137627 -0.310920
v -0.177844 0.152267 -0.235433
v -0.177844 0.137603 -0.310885
v -0.177844 0.125799 -0.320289
v -0.148970 0.137690 -0.310792
v -0.148970 0.125799 -0.320289
v -0.177844 -0.134851 -0.310180
v -0.177844 -0.141495 -0.301434
v -0.177844 -0.151888 -0.281886
v -0.148970 -0.134834 -0.310061
v -0.148970 -0.141495 -0.301434
v -0.148970 -0.152117 -0.281866
v -0.177844 -0.152081 -0.281809
v -0.177844 -0.153812 -0.243167
v -0.148970 -0.152081 -0.281809
v -0.148970 -0.153660 -0.243168
v -0.177844 -0.118865 -0.323511
v -0.148970 -0.118958 -0.323784
v -0.148970 -0.126896 -0.316922
v -0.177844 0.017564 -0.338462
v -0.148970 0.017564 -0.338462
v -0.177844 0.032264 -0.338007
v -0.148970 0.032264 -0.338007
v -0.177844 0.017564 -0.338462
v -0.148970 0.017564 -0.338462
vn -0.3135 -0.8561 -0.4108
vn -0.8543 -0.0000 0.5198
vn 0.1954 0.9467 0.2560
vn 0.7269 -0.0000 -0.6867
vn -0.6066 -0.0000 -0.7950
vn -0.7950 -0.0000 0.6066
vn -0.5938 0.2043 -0.7782
vn 0.7950 -0.0000 -0.6066
vn 0.5987 -0.1610 0.7846
vn -0.0095 0.9999 0.0084
vn 0.0077 0.9999 0.0101
vn -0.0006 -0.0683 0.9977
vn -1.0000 -0.0000 -0.0000
vn -0.0000 0.5925 0.8056
vn -0.0012 0.4729 0.8811
vn -0.0022 0.7516 0.6596
vn -0.0000 -0.9999 -0.0106
vn -0.0535 -0.9917 -0.1172
vn 1.0000 -0.0000 -0.0000
vn 0.0105 0.8825 0.4701
vn -0.0000 -0.8843 -0.4669
vn -0.0476 -0.8781 0.4761
vn -0.0000 -0.4924 -0.8704
vn -0.0000 0.9996 -0.0292
vn -0.0000 0.3863 0.9224
vn -0.0000 0.0650 -0.9979
vn -0.0000 -0.4693 -0.8831
vn 0.0201 0.3770 0.9260
vn -0.0005 0.4654 -0.8851
vn -0.0009 -0.5203 0.8540
vn 0.0041 0.5343 -0.8453
vn 0.6066 -0.0000 0.7950
vn -0.0000 0.7306 0.6828
vn -0.0000 0.6907 -0.7232
vn -0.0000 -0.5255 -0.8508
vn 0.0015 -0.1776 0.9841
vn 0.0004 -0.4650 0.8853
vn -0.0000 -0.7492 -0.6623
vn -0.0022 0.5182 0.8552
vn -0.0896 -0.8345 0.5436
vn 0.0016 0.5462 -0.8377
vn -0.0000 0.0590 -0.9983
vn 0.0017 0.9999 0.0109
vn -0.0000 -0.5266 0.8501
vn 0.0076 0.9847 0.1742
vn -0.0010 -0.8795 -0.4759
vn -0.0000 0.1129 0.9936
vn -0.0000 -0.1592 -0.9872
vn 0.0023 0.3726 0.9280
vn -0.0002 -0.9990 -0.0449
vn -0.0000 -0.3102 0.9507
vn -0.0002 0.0482 0.9988
vn -0.0000 0.1618 -0.9868
vn -0.0000 -0.0667 0.9978
vn -0.0004 0.9684 -0.2492
vn -0.0000 0.8831 -0.4693
vn -0.0258 -0.8389 0.5437
vn 0.0211 0.1932 0.9809
vn -0.0060 0.5503 -0.8349
vn -0.0010 0.9705 -0.2410
vn -0.0001 -0.9741 -0.2261
vn -0.0000 -0.7471 0.6648
vn -0.0001 -0.6445 -0.7646
vn -0.0000 0.8714 0.4905
vn 0.0015 -0.7939 -0.6080
vn -1.0000 -0.0001 -0.0002
vn -0.0000 -0.9850 0.1727
vn -0.0000 0.0309 -0.9995
vn 0.0031 0.6256 -0.7802
vn -0.0000 -0.0266 -0.9996
vn 0.3852 -0.8561 -0.3445
vn -0.5846 -0.0000 -0.8113
vn -0.2401 0.9467 0.2147
vn 0.7411 -0.0000 0.6713
vn 0.7455 -0.0000 -0.6666
vn -0.6666 -0.0000 -0.7455
vn 0.7297 0.2043 -0.6525
vn 0.6666 -0.0000 0.7455
vn -0.7357 -0.1610 0.6579
vn -0.0000 1.0000 -0.0000
vn -0.0005 -0.0000 1.0000
vn -0.0000 -1.0000 -0.0000
vn 0.0005 -0.0000 -1.0000
vn 1.0000 -0.0000 0.0005
vn -1.0000 -0.0000 -0.0005
vn -0.0000 -0.0000 -1.0000
vn -0.0000 -0.0000 1.0000
vn -0.2286 -0.0000 0.9735
vn -0.3503 -0.0000 -0.9366
vn -0.0343 -0.0000 0.9994
vn -0.5260 -0.0000 -0.8505
vn 0.1612 -0.0000 0.9869
vn -0.6815 -0.0000 -0.7319
vn 0.3503 -0.0000 0.9366
vn -0.8109 -0.0000 -0.5852
vn 0.5260 -0.0000 0.8505
vn -0.9094 -0.0000 -0.4160
vn 0.6815 -0.0000 0.7319
vn -0.9730 -0.0000 -0.2308
vn 0.8109 -0.0000 0.5852
vn -0.9993 -0.0000 -0.0365
vn 0.9094 -0.0000 0.4160
vn -0.9872 -0.0000 0.1593
vn 0.7316 -0.0000 -0.6818
vn 0.9730 -0.0000 0.2308
vn -0.9371 -0.0000 0.3491
vn 0.5842 -0.0000 -0.8116
vn 0.9993 -0.0000 0.0365
vn -0.8507 -0.0000 0.5256
vn 0.4143 -0.0000 -0.9101
vn 0.9872 -0.0000 -0.1593
vn -0.7316 -0.0000 0.6818
vn 0.2286 -0.0000 -0.9735
vn 0.9371 -0.0000 -0.3491
vn -0.5842 -0.0000 0.8116
vn 0.0343 -0.0000 -0.9994
vn 0.8507 -0.0000 -0.5256
vn -0.4143 -0.0000 0.9101
vn -0.1612 -0.0000 -0.9869
vn -0.0406 0.9978 -0.0531
vn -0.8006 -0.5761 -0.1648
vn 0.6733 -0.5457 0.4989
vn -0.8191 -0.5736 -0.0002
vn 0.7539 -0.5471 0.3638
vn -0.8045 -0.5708 0.1640
vn 0.6290 -0.5643 -0.5348
vn 0.8076 -0.5490 0.2155
vn -0.7580 -0.5676 0.3213
vn 0.5100 -0.5676 -0.6463
vn 0.8322 -0.5514 0.0590
vn -0.6819 -0.5643 0.4655
vn 0.3706 -0.5708 -0.7327
vn 0.8263 -0.5543 -0.1002
vn -0.5796 -0.5608 0.5913
vn 0.2160 -0.5736 -0.7901
vn 0.7897 -0.5574 -0.2561
vn -0.4555 -0.5574 0.6941
vn 0.0525 -0.5761 -0.8157
vn 0.7233 -0.5608 -0.4029
vn -0.3148 -0.5543 0.7705
vn -0.1135 -0.5780 -0.8081
vn -0.1628 -0.5514 0.8182
vn -0.2750 -0.5793 -0.7674
vn -0.0054 -0.5490 0.8358
vn -0.4252 -0.5799 -0.6949
vn 0.1519 -0.5471 0.8232
vn -0.5579 -0.5799 -0.5936
vn 0.3034 -0.5457 0.7811
vn -0.6675 -0.5793 -0.4678
vn 0.4440 -0.5451 0.7112
vn -0.7495 -0.5780 -0.3228
vn 0.5687 -0.5451 0.6160
vn -0.9883 -0.0000 -0.1523
vn 0.9066 -0.0000 -0.4220
vn -0.9991 -0.0000 0.0434
vn 0.8071 -0.0000 -0.5905
vn -0.9714 -0.0000 0.2374
vn 0.6767 -0.0000 -0.7363
vn -0.9066 -0.0000 0.4220
vn 0.5204 -0.0000 -0.8539
vn -0.8071 -0.0000 0.5905
vn 0.3441 -0.0000 -0.9389
vn -0.6767 -0.0000 0.7363
vn 0.1545 -0.0000 -0.9880
vn -0.5204 -0.0000 0.8539
vn -0.0412 -0.0000 -0.9991
vn -0.3441 -0.0000 0.9389
vn -0.2355 -0.0000 -0.9719
vn 0.7366 -0.0000 0.6764
vn -0.1545 -0.0000 0.9880
vn -0.4209 -0.0000 -0.9071
vn 0.8546 -0.0000 0.5193
vn 0.0412 -0.0000 0.9991
vn -0.5901 -0.0000 -0.8073
vn 0.9396 -0.0000 0.3423
vn 0.2355 -0.0000 0.9719
vn -0.7366 -0.0000 -0.6764
vn 0.9883 -0.0000 0.1523
vn 0.4209 -0.0000 0.9071
vn -0.8546 -0.0000 -0.5193
vn 0.9991 -0.0000 -0.0434
vn 0.5901 -0.0000 0.8073
vn -0.9396 -0.0000 -0.3423
vn 0.9714 -0.0000 -0.2373
vn 0.0498 0.9978 -0.0446
vn 0.1021 -0.5761 -0.8110
vn -0.4451 -0.5457 0.7100
vn -0.0634 -0.5737 -0.8166
vn -0.3042 -0.5471 0.7799
vn -0.2260 -0.5708 -0.7894
vn 0.5820 -0.5643 0.5855
vn -0.1521 -0.5490 0.8219
vn -0.3792 -0.5676 -0.7308
vn 0.6840 -0.5676 0.4582
vn 0.0059 -0.5514 0.8342
vn -0.5171 -0.5643 -0.6436
vn 0.7593 -0.5708 0.3125
vn 0.1641 -0.5543 0.8160
vn -0.6345 -0.5608 -0.5319
vn 0.8045 -0.5736 0.1540
vn 0.3167 -0.5574 0.7674
vn -0.7274 -0.5574 -0.4002
vn 0.8173 -0.5761 -0.0111
vn 0.4579 -0.5608 0.6898
vn -0.7926 -0.5543 -0.2540
vn 0.7969 -0.5780 -0.1759
vn -0.8284 -0.5514 -0.0988
vn 0.7437 -0.5793 -0.3338
vn -0.8337 -0.5490 0.0596
vn 0.6597 -0.5799 -0.4779
vn -0.8089 -0.5471 0.2154
vn 0.5485 -0.5799 -0.6024
vn -0.7551 -0.5457 0.3632
vn 0.4146 -0.5793 -0.7019
vn -0.6745 -0.5451 0.4979
vn 0.2636 -0.5780 -0.7723
vn -0.5700 -0.5451 0.6149
vn -0.9239 -0.0000 0.3827
vn -0.9239 -0.0000 -0.3827
vn 0.3827 -0.0000 -0.9239
vn 0.9239 -0.0000 0.3827
vn -0.3827 -0.0000 0.9239
vn -0.3827 -0.0000 -0.9239
vn 0.9239 -0.0000 -0.3827
vn 0.3827 -0.0000 0.9239
vn -0.0000 -0.8843 -0.4670
vn 0.0023 0.3722 0.9282
vn -0.0003 0.0482 0.9988
vn 0.0211 0.1922 0.9811
vn -0.0060 0.5509 -0.8345
vn -0.0010 0.9705 -0.2409
vn -0.0000 -0.9741 -0.2261
vn -1.0000 -0.0000 -0.0001
vn -0.0000 -0.9850 0.1728
vt 0.375000 0.000000
vt 0.625000 0.000000
vt 0.625000 0.250000
vt 0.375000 0.250000
vt 0.625000 0.500000
vt 0.375000 0.500000
vt 0.625000 0.750000
vt 0.375000 0.750000
vt 0.625000 1.000000
vt 0.375000 1.000000
vt 0.125000 0.500000
vt 0.125000 0.750000
vt 0.000000 0.000000
vt 0.875000 0.500000
vt 0.875000 0.750000
s 0
usemtl Material
f 1/1/1 2/2/1 4/3/1 3/4/1
f 3/4/2 4/3/2 8/5/2 7/6/2
f 7/6/3 8/5/3 6/7/3 5/8/3
f 5/8/4 6/7/4 2/9/4 1/10/4
f 3/11/5 7/6/5 5/8/5 1/12/5
f 8/5/6 4/3/6 10/5/6
f 6/7/7 8/5/7 10/5/7 9/7/7
f 2/9/8 6/7/8 9/7/8
f 4/3/9 2/2/9 9/7/9 10/5/9
f 119/13/12 93/13/12 193/13/12 196/13/12
f 83/13/13 82/13/13 180/13/13 181/13/13 182/13/13 84/13/13
f 129/13/14 141/13/14 142/13/14 130/13/14
f 120/13/15 94/13/15 198/13/15 200/13/15
f 85/13/16 111/13/16 172/13/16 164/13/16
f 117/13/17 91/13/17 171/13/17 179/13/17
f 95/13/18 121/13/18 145/13/18 133/13/18
f 107/13/19 108/13/19 183/13/19 159/13/19
f 92/13/13 191/13/13 192/13/13 197/13/13 193/13/13 93/13/13
f 96/13/13 95/13/13 133/13/13 134/13/13 135/13/13 136/13/13 137/13/13 138/13/13 127/13/13 128/13/13 129/13/13 130/13/13 131/13/13 132/13/13 80/13/13 79/13/13 78/13/13 77/13/13 76/13/13 75/13/13 100/13/13 99/13/13 98/13/13 97/13/13
f 162/13/20 163/13/20 159/13/20 158/13/20
f 80/13/21 106/13/21 161/13/21 160/13/21
f 150/13/22 152/13/22 153/13/22 151/13/22
f 170/13/23 178/13/23 179/13/23 171/13/23
f 110/13/19 111/13/19 190/13/19 185/13/19 189/13/19
f 88/13/13 87/13/13 86/13/13 85/13/13 164/13/13 165/13/13 166/13/13 167/13/13 204/13/13 168/13/13 169/13/13 170/13/13 171/13/13 91/13/13 90/13/13 89/13/13
f 106/13/24 80/13/24 132/13/24 144/13/24
f 128/13/25 140/13/25 141/13/25 129/13/25
f 166/13/26 174/13/26 175/13/26 167/13/26
f 94/13/27 120/13/27 152/13/27 150/13/27
f 155/13/28 154/13/28 156/13/28 157/13/28
f 107/13/29 81/13/29 158/13/29 159/13/29
f 160/13/30 161/13/30 163/13/30 162/13/30
f 165/13/31 164/13/31 172/13/31 173/13/31
f 204/13/32 167/13/32 206/13/32 208/13/32
f 130/13/33 142/13/33 143/13/33 131/13/33
f 82/13/13 81/13/13 186/13/13 180/13/13
f 113/13/19 114/13/19 115/13/19 116/13/19 117/13/19 179/13/19 178/13/19 177/13/19 176/13/19 205/13/19 175/13/19 174/13/19 173/13/19 172/13/19 111/13/19 112/13/19
f 182/13/34 181/13/34 184/13/34 185/13/34
f 110/13/35 84/13/35 182/13/35 185/13/35
f 82/13/36 108/13/36 183/13/36 180/13/36
f 81/13/37 107/13/37 159/13/37 186/13/37
f 111/13/38 85/13/38 188/13/38 190/13/38
f 84/13/39 110/13/39 189/13/39 187/13/39
f 153/13/40 145/13/40 156/13/40 151/13/40
f 92/13/41 118/13/41 194/13/41 191/13/41
f 93/13/42 119/13/42 199/13/42 197/13/42
f 91/13/43 117/13/43 202/13/43 201/13/43
f 118/13/19 119/13/19 196/13/19 195/13/19 194/13/19
f 137/13/44 136/13/44 147/13/44 148/13/44
f 180/13/45 186/13/45 159/13/45 183/13/45
f 197/13/46 192/13/46 195/13/46 196/13/46
f 105/13/19 106/13/19 144/13/19 143/13/19 142/13/19 141/13/19 140/13/19 139/13/19 149/13/19 148/13/19 147/13/19 146/13/19 145/13/19 121/13/19 122/13/19 123/13/19 124/13/19 125/13/19 126/13/19 101/13/19 102/13/19 103/13/19 104/13/19
f 120/13/19 200/13/19 152/13/19 199/13/19 119/13/19
f 117/13/19 118/13/19 194/13/19 203/13/19 202/13/19
f 127/13/47 139/13/47 140/13/47 128/13/47
f 169/13/48 177/13/48 178/13/48 170/13/48
f 196/13/49 193/13/49 197/13/49
f 197/13/50 199/13/50 152/13/50 198/13/50
f 138/13/51 137/13/51 148/13/51 149/13/51
f 200/13/52 198/13/52 152/13/52
f 94/13/13 150/13/13 151/13/13 156/13/13 154/13/13 95/13/13
f 121/13/19 155/13/19 157/13/19 145/13/19 153/13/19 152/13/19 120/13/19
f 165/13/53 173/13/53 174/13/53 166/13/53
f 187/13/13 182/13/13 164/13/13 188/13/13 85/13/13 84/13/13
f 127/13/54 138/13/54 149/13/54 139/13/54
f 106/13/19 107/13/19 159/13/19 163/13/19 161/13/19
f 94/13/13 93/13/13 197/13/13 198/13/13
f 80/13/13 160/13/13 162/13/13 158/13/13 81/13/13
f 108/13/19 109/13/19 110/13/19 185/13/19 184/13/19 183/13/19
f 181/13/55 180/13/55 183/13/55 184/13/55
f 121/13/56 95/13/56 154/13/56 155/13/56
f 134/13/57 133/13/57 145/13/57 146/13/57 135/13/57
f 157/13/58 156/13/58 145/13/58
f 201/13/13 171/13/13 191/13/13 92/13/13 91/13/13
f 201/13/59 202/13/59 171/13/59
f 167/13/32 175/13/32 207/13/32 206/13/32
f 205/13/32 204/13/32 208/13/32 209/13/32
f 175/13/32 205/13/32 209/13/32 207/13/32
f 187/13/60 189/13/60 185/13/60 182/13/60
f 190/13/61 188/13/61 164/13/61
f 136/13/62 135/13/62 146/13/62 147/13/62
f 191/13/63 171/13/63 179/13/63 203/13/63 194/13/63
f 131/13/64 143/13/64 144/13/64 132/13/64
f 192/13/65 191/13/65 194/13/65 195/13/65
f 202/13/66 203/13/66 179/13/66
f 171/13/67 202/13/67 179/13/67
f 208/13/68 206/13/68 207/13/68 209/13/68
f 164/13/69 182/13/69 185/13/69 190/13/69
f 168/13/70 204/13/70 205/13/70 176/13/70 177/13/70 169/13/70
f 210/1/71 211/2/71 213/3/71 212/4/71
f 212/4/72 213/3/72 217/5/72 216/6/72
f 216/6/73 217/5/73 215/7/73 214/8/73
f 214/8/74 215/7/74 211/9/74 210/10/74
f 212/11/75 216/6/75 214/8/75 210/12/75
f 217/5/76 213/3/76 219/5/76
f 215/7/77 217/5/77 219/5/77 218/7/77
f 211/9/78 215/7/78 218/7/78
f 213/3/79 211/2/79 218/7/79 219/5/79
f 264/13/88 263/13/88 295/13/88 296/13/88
f 251/13/89 250/13/89 282/13/89 283/13/89
f 265/13/90 264/13/90 296/13/90 297/13/90
f 252/13/91 251/13/91 283/13/91 284/13/91
f 266/13/92 265/13/92 297/13/92 298/13/92
f 253/13/93 252/13/93 284/13/93 285/13/93
f 267/13/94 266/13/94 298/13/94 299/13/94
f 254/13/95 253/13/95 285/13/95 286/13/95
f 268/13/96 267/13/96 299/13/96 300/13/96
f 255/13/97 254/13/97 286/13/97 287/13/97
f 269/13/98 268/13/98 300/13/98 301/13/98
f 256/13/99 255/13/99 287/13/99 288/13/99
f 270/13/100 269/13/100 301/13/100 302/13/100
f 257/13/101 256/13/101 288/13/101 289/13/101
f 271/13/102 270/13/102 302/13/102 303/13/102
f 258/13/103 257/13/103 289/13/103 290/13/103
f 245/13/104 244/13/104 276/13/104 277/13/104
f 272/13/105 271/13/105 303/13/105 304/13/105
f 259/13/106 258/13/106 290/13/106 291/13/106
f 246/13/107 245/13/107 277/13/107 278/13/107
f 273/13/108 272/13/108 304/13/108 305/13/108
f 260/13/109 259/13/109 291/13/109 292/13/109
f 247/13/110 246/13/110 278/13/110 279/13/110
f 274/13/111 273/13/111 305/13/111 306/13/111
f 261/13/112 260/13/112 292/13/112 293/13/112
f 248/13/113 247/13/113 279/13/113 280/13/113
f 275/13/114 274/13/114 306/13/114 307/13/114
f 262/13/115 261/13/115 293/13/115 294/13/115
f 249/13/116 248/13/116 280/13/116 281/13/116
f 244/13/117 275/13/117 307/13/117 276/13/117
f 263/13/118 262/13/118 294/13/118 295/13/118
f 250/13/119 249/13/119 281/13/119 282/13/119
f 245/13/120 246/13/120 247/13/120 248/13/120 249/13/120 250/13/120 251/13/120 252/13/120 253/13/120 254/13/120 255/13/120 256/13/120 257/13/120 258/13/120 259/13/120 260/13/120 261/13/120 262/13/120 263/13/120 264/13/120 265/13/120 266/13/120 267/13/120 268/13/120 269/13/120 270/13/120 271/13/120 272/13/120 273/13/120 274/13/120 275/13/120 244/13/120
f 288/13/121 287/13/121 319/13/121 320/13/121
f 302/13/122 301/13/122 333/13/122 334/13/122
f 289/13/123 288/13/123 320/13/123 321/13/123
f 303/13/124 302/13/124 334/13/124 335/13/124
f 290/13/125 289/13/125 321/13/125 322/13/125
f 277/13/126 276/13/126 308/13/126 309/13/126
f 304/13/127 303/13/127 335/13/127 336/13/127
f 291/13/128 290/13/128 322/13/128 323/13/128
f 278/13/129 277/13/129 309/13/129 310/13/129
f 305/13/130 304/13/130 336/13/130 337/13/130
f 292/13/131 291/13/131 323/13/131 324/13/131
f 279/13/132 278/13/132 310/13/132 311/13/132
f 306/13/133 305/13/133 337/13/133 338/13/133
f 293/13/134 292/13/134 324/13/134 325/13/134
f 280/13/135 279/13/135 311/13/135 312/13/135
f 307/13/136 306/13/136 338/13/136 339/13/136
f 294/13/137 293/13/137 325/13/137 326/13/137
f 281/13/138 280/13/138 312/13/138 313/13/138
f 276/13/139 307/13/139 339/13/139 308/13/139
f 295/13/140 294/13/140 326/13/140 327/13/140
f 282/13/141 281/13/141 313/13/141 314/13/141
f 296/13/142 295/13/142 327/13/142 328/13/142
f 283/13/143 282/13/143 314/13/143 315/13/143
f 297/13/144 296/13/144 328/13/144 329/13/144
f 284/13/145 283/13/145 315/13/145 316/13/145
f 298/13/146 297/13/146 329/13/146 330/13/146
f 285/13/147 284/13/147 316/13/147 317/13/147
f 299/13/148 298/13/148 330/13/148 331/13/148
f 286/13/149 285/13/149 317/13/149 318/13/149
f 300/13/150 299/13/150 331/13/150 332/13/150
f 287/13/151 286/13/151 318/13/151 319/13/151
f 301/13/152 300/13/152 332/13/152 333/13/152
f 360/13/153 359/13/153 391/13/153 392/13/153
f 347/13/154 346/13/154 378/13/154 379/13/154
f 361/13/155 360/13/155 392/13/155 393/13/155
f 348/13/156 347/13/156 379/13/156 380/13/156
f 362/13/157 361/13/157 393/13/157 394/13/157
f 349/13/158 348/13/158 380/13/158 381/13/158
f 363/13/159 362/13/159 394/13/159 395/13/159
f 350/13/160 349/13/160 381/13/160 382/13/160
f 364/13/161 363/13/161 395/13/161 396/13/161
f 351/13/162 350/13/162 382/13/162 383/13/162
f 365/13/163 364/13/163 396/13/163 397/13/163
f 352/13/164 351/13/164 383/13/164 384/13/164
f 366/13/165 365/13/165 397/13/165 398/13/165
f 353/13/166 352/13/166 384/13/166 385/13/166
f 367/13/167 366/13/167 398/13/167 399/13/167
f 354/13/168 353/13/168 385/13/168 386/13/168
f 341/13/169 340/13/169 372/13/169 373/13/169
f 368/13/170 367/13/170 399/13/170 400/13/170
f 355/13/171 354/13/171 386/13/171 387/13/171
f 342/13/172 341/13/172 373/13/172 374/13/172
f 369/13/173 368/13/173 400/13/173 401/13/173
f 356/13/174 355/13/174 387/13/174 388/13/174
f 343/13/175 342/13/175 374/13/175 375/13/175
f 370/13/176 369/13/176 401/13/176 402/13/176
f 357/13/177 356/13/177 388/13/177 389/13/177
f 344/13/178 343/13/178 375/13/178 376/13/178
f 371/13/179 370/13/179 402/13/179 403/13/179
f 358/13/180 357/13/180 389/13/180 390/13/180
f 345/13/181 344/13/181 376/13/181 377/13/181
f 340/13/182 371/13/182 403/13/182 372/13/182
f 359/13/183 358/13/183 390/13/183 391/13/183
f 346/13/184 345/13/184 377/13/184 378/13/184
f 341/13/185 342/13/185 343/13/185 344/13/185 345/13/185 346/13/185 347/13/185 348/13/185 349/13/185 350/13/185 351/13/185 352/13/185 353/13/185 354/13/185 355/13/185 356/13/185 357/13/185 358/13/185 359/13/185 360/13/185 361/13/185 362/13/185 363/13/185 364/13/185 365/13/185 366/13/185 367/13/185 368/13/185 369/13/185 370/13/185 371/13/185 340/13/185
f 384/13/186 383/13/186 415/13/186 416/13/186
f 398/13/187 397/13/187 429/13/187 430/13/187
f 385/13/188 384/13/188 416/13/188 417/13/188
f 399/13/189 398/13/189 430/13/189 431/13/189
f 386/13/190 385/13/190 417/13/190 418/13/190
f 373/13/191 372/13/191 404/13/191 405/13/191
f 400/13/192 399/13/192 431/13/192 432/13/192
f 387/13/193 386/13/193 418/13/193 419/13/193
f 374/13/194 373/13/194 405/13/194 406/13/194
f 401/13/195 400/13/195 432/13/195 433/13/195
f 388/13/196 387/13/196 419/13/196 420/13/196
f 375/13/197 374/13/197 406/13/197 407/13/197
f 402/13/198 401/13/198 433/13/198 434/13/198
f 389/13/199 388/13/199 420/13/199 421/13/199
f 376/13/200 375/13/200 407/13/200 408/13/200
f 403/13/201 402/13/201 434/13/201 435/13/201
f 390/13/202 389/13/202 421/13/202 422/13/202
f 377/13/203 376/13/203 408/13/203 409/13/203
f 372/13/204 403/13/204 435/13/204 404/13/204
f 391/13/205 390/13/205 422/13/205 423/13/205
f 378/13/206 377/13/206 409/13/206 410/13/206
f 392/13/207 391/13/207 423/13/207 424/13/207
f 379/13/208 378/13/208 410/13/208 411/13/208
f 393/13/209 392/13/209 424/13/209 425/13/209
f 380/13/210 379/13/210 411/13/210 412/13/210
f 394/13/211 393/13/211 425/13/211 426/13/211
f 381/13/212 380/13/212 412/13/212 413/13/212
f 395/13/213 394/13/213 426/13/213 427/13/213
f 382/13/214 381/13/214 413/13/214 414/13/214
f 396/13/215 395/13/215 427/13/215 428/13/215
f 383/13/216 382/13/216 414/13/216 415/13/216
f 397/13/217 396/13/217 428/13/217 429/13/217
f 441/13/218 440/13/218 456/13/218 457/13/218
f 443/13/219 436/13/219 445/13/219 451/13/219
f 441/13/220 442/13/220 450/13/220 449/13/220
f 439/13/221 440/13/221 448/13/221 447/13/221
f 437/13/222 438/13/222 446/13/222 444/13/222
f 442/13/223 443/13/223 451/13/223 450/13/223
f 440/13/224 441/13/224 449/13/224 448/13/224
f 438/13/225 439/13/225 447/13/225 446/13/225
f 436/13/218 437/13/218 444/13/218 445/13/218
f 439/13/223 438/13/223 454/13/223 455/13/223
f 437/13/224 436/13/224 453/13/224 452/13/224
f 436/13/221 443/13/221 459/13/221 453/13/221
f 442/13/222 441/13/222 457/13/222 458/13/222
f 440/13/219 439/13/219 455/13/219 456/13/219
f 438/13/220 437/13/220 452/13/220 454/13/220
f 443/13/225 442/13/225 458/13/225 459/13/225
f 460/13/221 467/13/221 483/13/221 477/13/221
f 467/13/219 460/13/219 469/13/219 475/13/219
f 465/13/220 466/13/220 474/13/220 473/13/220
f 463/13/221 464/13/221 472/13/221 471/13/221
f 461/13/222 462/13/222 470/13/222 468/13/222
f 466/13/223 467/13/223 475/13/223 474/13/223
f 464/13/224 465/13/224 473/13/224 472/13/224
f 462/13/225 463/13/225 471/13/225 470/13/225
f 460/13/218 461/13/218 468/13/218 469/13/218
f 466/13/222 465/13/222 481/13/222 482/13/222
f 464/13/219 463/13/219 479/13/219 480/13/219
f 462/13/220 461/13/220 476/13/220 478/13/220
f 467/13/225 466/13/225 482/13/225 483/13/225
f 465/13/218 464/13/218 480/13/218 481/13/218
f 463/13/223 462/13/223 478/13/223 479/13/223
f 461/13/224 460/13/224 477/13/224 476/13/224
f 528/13/12 502/13/12 602/13/12 605/13/12
f 492/13/13 491/13/13 589/13/13 590/13/13 591/13/13 493/13/13
f 538/13/14 550/13/14 551/13/14 539/13/14
f 529/13/15 503/13/15 607/13/15 609/13/15
f 494/13/16 520/13/16 581/13/16 573/13/16
f 526/13/17 500/13/17 580/13/17 588/13/17
f 504/13/18 530/13/18 554/13/18 542/13/18
f 516/13/19 517/13/19 592/13/19 568/13/19
f 501/13/13 600/13/13 601/13/13 606/13/13 602/13/13 502/13/13
f 505/13/13 504/13/13 542/13/13 543/13/13 544/13/13 545/13/13 546/13/13 547/13/13 536/13/13 537/13/13 538/13/13 539/13/13 540/13/13 541/13/13 489/13/13 488/13/13 487/13/13 486/13/13 485/13/13 484/13/13 509/13/13 508/13/13 507/13/13 506/13/13
f 571/13/20 572/13/20 568/13/20 567/13/20
f 489/13/226 515/13/226 570/13/226 569/13/226
f 559/13/22 561/13/22 562/13/22 560/13/22
f 579/13/23 587/13/23 588/13/23 580/13/23
f 519/13/19 520/13/19 599/13/19 594/13/19 598/13/19
f 497/13/13 496/13/13 495/13/13 494/13/13 573/13/13 574/13/13 575/13/13 576/13/13 613/13/13 577/13/13 578/13/13 579/13/13 580/13/13 500/13/13 499/13/13 498/13/13
f 515/13/24 489/13/24 541/13/24 553/13/24
f 537/13/25 549/13/25 550/13/25 538/13/25
f 575/13/26 583/13/26 584/13/26 576/13/26
f 503/13/27 529/13/27 561/13/27 559/13/27
f 564/13/28 563/13/28 565/13/28 566/13/28
f 516/13/29 490/13/29 567/13/29 568/13/29
f 569/13/30 570/13/30 572/13/30 571/13/30
f 574/13/31 573/13/31 581/13/31 582/13/31
f 613/13/32 576/13/32 615/13/32 617/13/32
f 539/13/33 551/13/33 552/13/33 540/13/33
f 491/13/13 490/13/13 595/13/13 589/13/13
f 522/13/19 523/13/19 524/13/19 525/13/19 526/13/19 588/13/19 587/13/19 586/13/19 585/13/19 614/13/19 584/13/19 583/13/19 582/13/19 581/13/19 520/13/19 521/13/19
f 591/13/34 590/13/34 593/13/34 594/13/34
f 519/13/35 493/13/35 591/13/35 594/13/35
f 491/13/36 517/13/36 592/13/36 589/13/36
f 490/13/37 516/13/37 568/13/37 595/13/37
f 520/13/38 494/13/38 597/13/38 599/13/38
f 493/13/39 519/13/39 598/13/39 596/13/39
f 562/13/40 554/13/40 565/13/40 560/13/40
f 501/13/41 527/13/41 603/13/41 600/13/41
f 502/13/42 528/13/42 608/13/42 606/13/42
f 500/13/43 526/13/43 611/13/43 610/13/43
f 527/13/19 528/13/19 605/13/19 604/13/19 603/13/19
f 546/13/44 545/13/44 556/13/44 557/13/44
f 589/13/45 595/13/45 568/13/45 592/13/45
f 606/13/46 601/13/46 604/13/46 605/13/46
f 514/13/19 515/13/19 553/13/19 552/13/19 551/13/19 550/13/19 549/13/19 548/13/19 558/13/19 557/13/19 556/13/19 555/13/19 554/13/19 530/13/19 531/13/19 532/13/19 533/13/19 534/13/19 535/13/19 510/13/19 511/13/19 512/13/19 513/13/19
f 529/13/19 609/13/19 561/13/19 608/13/19 528/13/19
f 526/13/19 527/13/19 603/13/19 612/13/19 611/13/19
f 536/13/47 548/13/47 549/13/47 537/13/47
f 578/13/48 586/13/48 587/13/48 579/13/48
f 605/13/227 602/13/227 606/13/227
f 606/13/50 608/13/50 561/13/50 607/13/50
f 547/13/51 546/13/51 557/13/51 558/13/51
f 609/13/228 607/13/228 561/13/228
f 503/13/13 559/13/13 560/13/13 565/13/13 563/13/13 504/13/13
f 530/13/19 564/13/19 566/13/19 554/13/19 562/13/19 561/13/19 529/13/19
f 574/13/53 582/13/53 583/13/53 575/13/53
f 596/13/13 591/13/13 573/13/13 597/13/13 494/13/13 493/13/13
f 536/13/54 547/13/54 558/13/54 548/13/54
f 515/13/19 516/13/19 568/13/19 572/13/19 570/13/19
f 503/13/13 502/13/13 606/13/13 607/13/13
f 489/13/13 569/13/13 571/13/13 567/13/13 490/13/13
f 517/13/19 518/13/19 519/13/19 594/13/19 593/13/19 592/13/19
f 590/13/55 589/13/55 592/13/55 593/13/55
f 530/13/56 504/13/56 563/13/56 564/13/56
f 543/13/57 542/13/57 554/13/57 555/13/57 544/13/57
f 566/13/229 565/13/229 554/13/229
f 610/13/13 580/13/13 600/13/13 501/13/13 500/13/13
f 610/13/230 611/13/230 580/13/230
f 576/13/32 584/13/32 616/13/32 615/13/32
f 614/13/32 613/13/32 617/13/32 618/13/32
f 584/13/32 614/13/32 618/13/32 616/13/32
f 596/13/231 598/13/231 594/13/231 591/13/231
f 599/13/232 597/13/232 573/13/232
f 545/13/62 544/13/62 555/13/62 556/13/62
f 600/13/63 580/13/63 588/13/63 612/13/63 603/13/63
f 540/13/64 552/13/64 553/13/64 541/13/64
f 601/13/65 600/13/65 603/13/65 604/13/65
f 611/13/233 612/13/233 588/13/233
f 580/13/234 611/13/234 588/13/234
f 617/13/68 615/13/68 616/13/68 618/13/68
f 573/13/69 591/13/69 594/13/69 599/13/69
f 577/13/70 613/13/70 614/13/70 585/13/70 586/13/70 578/13/70
usemtl Material.011
f 12/13/10 13/13/10 14/13/10 15/13/10 16/13/10 17/13/10 18/13/10 19/13/10 20/13/10 21/13/10 22/13/10 23/13/10 24/13/10 25/13/10 26/13/10 27/13/10 28/13/10 29/13/10 30/13/10 31/13/10 32/13/10 33/13/10 34/13/10 35/13/10 36/13/10 37/13/10 38/13/10 39/13/10 40/13/10 41/13/10 42/13/10 11/13/10
f 44/13/11 45/13/11 46/13/11 47/13/11 48/13/11 49/13/11 50/13/11 51/13/11 52/13/11 53/13/11 54/13/11 55/13/11 56/13/11 57/13/11 58/13/11 59/13/11 60/13/11 61/13/11 62/13/11 63/13/11 64/13/11 65/13/11 66/13/11 67/13/11 68/13/11 69/13/11 70/13/11 71/13/11 72/13/11 73/13/11 74/13/11 43/13/11
usemtl miau
f 220/1/80 221/2/80 223/3/80 222/4/80
f 222/4/81 223/3/81 227/5/81 226/6/81
f 226/6/82 227/5/82 225/7/82 224/8/82
f 224/8/83 225/7/83 221/9/83 220/10/83
f 222/11/84 226/6/84 224/8/84 220/12/84
f 227/5/85 223/14/85 221/15/85 225/7/85
f 228/1/80 229/2/80 231/3/80 230/4/80
f 230/4/19 231/3/19 235/5/19 234/6/19
f 234/6/82 235/5/82 233/7/82 232/8/82
f 232/8/13 233/7/13 229/9/13 228/10/13
f 230/11/86 234/6/86 232/8/86 228/12/86
f 235/5/87 231/14/87 229/15/87 233/7/87
f 236/1/80 237/2/80 239/3/80 238/4/80
f 238/4/19 239/3/19 243/5/19 242/6/19
f 242/6/82 243/5/82 241/7/82 240/8/82
f 240/8/13 241/7/13 237/9/13 236/10/13
f 238/11/86 242/6/86 240/8/86 236/12/86
f 243/5/87 239/14/87 237/15/87 241/7/87
usemtl Material.034
f 452/13/82 453/13/82 459/13/82 458/13/82 457/13/82 456/13/82 455/13/82 454/13/82
f 476/13/82 477/13/82 483/13/82 482/13/82 481/13/82 480/13/82 479/13/82 478/13/82
