# Blender 4.5.3 LTS
# www.blender.org
mtllib CorredorINMOVIL.mtl
o Circle.002
v 0.617649 0.205590 0.000244
v 0.650412 0.205590 0.122517
v 0.739923 0.205590 0.212028
v 0.862197 0.205590 0.244791
v 0.984470 0.205590 0.212028
v 1.073981 0.205590 0.122517
v 1.106744 0.205590 0.000244
v 1.073981 0.205590 -0.122030
v 0.984470 0.205590 -0.211541
v 0.862197 0.205590 -0.244304
v 0.739923 0.205590 -0.211541
v 0.650412 0.205590 -0.122030
v 0.650412 2.250378 0.122517
v 0.617649 2.250378 0.000244
v 0.739923 2.250378 0.212028
v 0.862197 2.250378 0.244791
v 0.984471 2.250378 0.212028
v 1.073981 2.250378 0.122517
v 1.106745 2.250378 0.000244
v 1.073981 2.250378 -0.122030
v 0.984471 2.250378 -0.211541
v 0.862197 2.250378 -0.244304
v 0.739923 2.250378 -0.211541
v 0.650412 2.250378 -0.122030
v 0.606859 2.275517 0.147663
v 0.567358 2.275517 0.000244
v 0.714777 2.275517 0.255582
v 0.862197 2.275517 0.295083
v 1.009616 2.275517 0.255582
v 1.117535 2.275517 0.147663
v 1.157036 2.275517 0.000244
v 1.117535 2.275517 -0.147176
v 1.009616 2.275517 -0.255094
v 0.862197 2.275517 -0.294595
v 0.714777 2.275517 -0.255094
v 0.606859 2.275517 -0.147176
v 0.708605 2.339095 0.088920
v 0.684844 2.339095 0.000244
v 0.773520 2.339095 0.153836
v 0.862197 2.339095 0.177596
v 0.950873 2.339095 0.153836
v 1.015789 2.339095 0.088920
v 1.039550 2.339095 0.000244
v 1.015789 2.339095 -0.088433
v 0.950873 2.339095 -0.153348
v 0.862197 2.339095 -0.177109
v 0.773520 2.339095 -0.153348
v 0.708605 2.339095 -0.088433
v 0.606859 2.339095 0.147663
v 0.567358 2.339095 0.000244
v 0.714777 2.339095 0.255582
v 0.862197 2.339095 0.295083
v 1.009616 2.339095 0.255582
v 1.117535 2.339095 0.147663
v 1.157036 2.339095 0.000244
v 1.117535 2.339095 -0.147176
v 1.009616 2.339095 -0.255094
v 0.862197 2.339095 -0.294595
v 0.714777 2.339095 -0.255094
v 0.606859 2.339095 -0.147176
v 0.708605 2.267825 0.088920
v 0.684844 2.267825 0.000244
v 0.773520 2.267825 0.153836
v 0.862197 2.267825 0.177596
v 0.950873 2.267825 0.153836
v 1.015789 2.267825 0.088920
v 1.039550 2.267825 0.000244
v 1.015789 2.267825 -0.088433
v 0.950873 2.267825 -0.153348
v 0.862197 2.267825 -0.177109
v 0.773520 2.267825 -0.153348
v 0.708605 2.267825 -0.088433
v -0.001096 -0.422501 -0.645679
v -0.001096 -0.422501 0.645679
v 1.542471 -0.422501 -0.645679
v 1.542471 -0.422501 0.645679
v -0.001096 0.162716 -0.645679
v 0.473454 0.422501 -0.248667
v -0.001096 0.162716 0.645679
v 0.473454 0.422501 0.248667
v 1.067921 0.422501 -0.248667
v 1.542471 0.162716 -0.645679
v 1.542471 0.162716 0.645679
v 1.067921 0.422501 0.248667
v 0.237094 -0.116429 2.634899
v 0.436658 -0.116429 2.435335
v 0.509704 -0.116429 2.162725
v 0.436658 -0.116429 1.890114
v 0.237094 -0.116429 1.690550
v -0.308126 -0.116429 1.690550
v -0.507690 -0.116429 1.890114
v -0.580736 -0.116429 2.162725
v -0.507690 -0.116429 2.435335
v -0.308126 -0.116429 2.634899
v 0.237094 0.703409 2.505049
v 0.436658 0.641741 2.315252
v 0.509704 0.557500 2.055985
v 0.436658 0.473259 1.796717
v 0.237094 0.411590 1.606920
v -0.308126 0.411590 1.606920
v -0.507690 0.473259 1.796717
v -0.580736 0.557500 2.055985
v -0.507690 0.641741 2.315252
v -0.308126 0.703410 2.505049
v 0.237094 1.442997 2.128211
v 0.436658 1.325696 1.966760
v 0.509704 1.165460 1.746214
v 0.436658 1.005224 1.525667
v 0.237094 0.887923 1.364217
v -0.308126 0.887923 1.364217
v -0.507690 1.005224 1.525667
v -0.580736 1.165460 1.746214
v -0.507690 1.325696 1.966760
v -0.308126 1.442997 2.128211
v 0.237094 2.029937 1.541270
v 0.436658 1.868486 1.423970
v 0.509704 1.647940 1.263734
v 0.436658 1.427394 1.103498
v 0.237094 1.265943 0.986197
v -0.308126 1.265943 0.986197
v -0.507690 1.427394 1.103498
v -0.580736 1.647940 1.263734
v -0.507690 1.868486 1.423970
v -0.308126 2.029937 1.541270
v 0.237094 2.406775 0.801684
v 0.436658 2.216978 0.740015
v 0.509704 1.957711 0.655774
v 0.436658 1.698443 0.571533
v 0.237094 1.508646 0.509864
v -0.308126 1.508646 0.509864
v -0.507690 1.698443 0.571533
v -0.580736 1.957711 0.655774
v -0.507690 2.216978 0.740015
v -0.308126 2.406775 0.801684
v 0.237094 2.536625 -0.018155
v 0.436658 2.337061 -0.018155
v 0.509704 2.064451 -0.018155
v 0.436658 1.791841 -0.018155
v 0.237094 1.592276 -0.018155
v -0.308126 1.592276 -0.018155
v -0.507690 1.791841 -0.018155
v -0.580736 2.064451 -0.018155
v -0.507690 2.337061 -0.018155
v -0.308126 2.536625 -0.018155
v 0.237094 2.406775 -0.837994
v 0.436658 2.216978 -0.776325
v 0.509704 1.957711 -0.692084
v 0.436658 1.698443 -0.607843
v 0.237094 1.508646 -0.546174
v -0.308126 1.508646 -0.546174
v -0.507690 1.698444 -0.607843
v -0.580736 1.957711 -0.692084
v -0.507690 2.216978 -0.776325
v -0.308126 2.406775 -0.837994
v 0.237094 2.029937 -1.577582
v 0.436658 1.868486 -1.460280
v 0.509704 1.647940 -1.300044
v 0.436658 1.427394 -1.139808
v 0.237094 1.265943 -1.022507
v -0.308126 1.265943 -1.022507
v -0.507690 1.427394 -1.139808
v -0.580736 1.647940 -1.300044
v -0.507690 1.868486 -1.460280
v -0.308126 2.029937 -1.577582
v 0.237094 1.442997 -2.164521
v 0.436658 1.325696 -2.003070
v 0.509704 1.165460 -1.782524
v 0.436658 1.005224 -1.561978
v 0.237094 0.887923 -1.400527
v -0.308126 0.887923 -1.400527
v -0.507690 1.005224 -1.561978
v -0.580736 1.165460 -1.782524
v -0.507690 1.325696 -2.003070
v -0.308126 1.442997 -2.164521
v 0.237094 0.703410 -2.541359
v 0.436658 0.641741 -2.351562
v 0.509704 0.557500 -2.092295
v 0.436658 0.473259 -1.833027
v 0.237094 0.411590 -1.643230
v -0.308126 0.411590 -1.643230
v -0.507690 0.473259 -1.833027
v -0.580736 0.557500 -2.092295
v -0.507690 0.641741 -2.351562
v -0.308126 0.703410 -2.541359
v 0.237094 -0.116429 -2.671209
v 0.436658 -0.116429 -2.471645
v 0.509704 -0.116429 -2.199035
v 0.436658 -0.116429 -1.926425
v 0.237094 -0.116429 -1.726861
v -0.308126 -0.116429 -1.726861
v -0.507690 -0.116429 -1.926425
v -0.580736 -0.116429 -2.199035
v -0.507690 -0.116428 -2.471645
v -0.308126 -0.116428 -2.671209
v 0.237094 -0.936266 -2.541360
v 0.436658 -0.874598 -2.351562
v 0.509704 -0.790357 -2.092295
v 0.436658 -0.706116 -1.833028
v 0.237094 -0.644447 -1.643231
v -0.308126 -0.644447 -1.643231
v -0.507690 -0.706116 -1.833028
v -0.580736 -0.790357 -2.092295
v -0.507690 -0.874598 -2.351562
v -0.308126 -0.936266 -2.541360
v 0.237094 -1.675854 -2.164521
v 0.436658 -1.558553 -2.003071
v 0.509704 -1.398317 -1.782524
v 0.436658 -1.238081 -1.561978
v 0.237094 -1.120780 -1.400527
v -0.308126 -1.120780 -1.400527
v -0.507690 -1.238081 -1.561978
v -0.580736 -1.398317 -1.782524
v -0.507690 -1.558553 -2.003071
v -0.308126 -1.675854 -2.164521
v 0.237094 -2.262794 -1.577582
v 0.436658 -2.101343 -1.460281
v 0.509704 -1.880797 -1.300044
v 0.436658 -1.660251 -1.139808
v 0.237094 -1.498801 -1.022507
v -0.308126 -1.498800 -1.022507
v -0.507690 -1.660251 -1.139808
v -0.580736 -1.880797 -1.300044
v -0.507690 -2.101343 -1.460281
v -0.308126 -2.262794 -1.577582
v 0.237094 -2.639633 -0.837994
v 0.436658 -2.449836 -0.776325
v 0.509704 -2.190569 -0.692084
v 0.436658 -1.931301 -0.607843
v 0.237094 -1.741504 -0.546174
v -0.308126 -1.741504 -0.546174
v -0.507690 -1.931301 -0.607843
v -0.580736 -2.190568 -0.692084
v -0.507690 -2.449836 -0.776325
v -0.308126 -2.639632 -0.837994
v 0.237094 -2.769483 -0.018155
v 0.436658 -2.569918 -0.018155
v 0.509704 -2.297308 -0.018155
v 0.436658 -2.024698 -0.018155
v 0.237094 -1.825134 -0.018155
v -0.308126 -1.825134 -0.018155
v -0.507690 -2.024698 -0.018155
v -0.580736 -2.297308 -0.018155
v -0.507690 -2.569918 -0.018155
v -0.308126 -2.769483 -0.018155
v 0.237094 -2.639633 0.801684
v 0.436658 -2.449836 0.740015
v 0.509704 -2.190569 0.655774
v 0.436658 -1.931301 0.571533
v 0.237094 -1.741504 0.509864
v -0.308126 -1.741504 0.509864
v -0.507690 -1.931301 0.571533
v -0.580736 -2.190569 0.655774
v -0.507690 -2.449836 0.740015
v -0.308126 -2.639633 0.801684
v 0.237094 -2.262796 1.541269
v 0.436658 -2.101344 1.423969
v 0.509704 -1.880799 1.263733
v 0.436658 -1.660252 1.103497
v 0.237094 -1.498801 0.986196
v -0.308126 -1.498801 0.986196
v -0.507690 -1.660252 1.103497
v -0.580736 -1.880799 1.263733
v -0.507690 -2.101344 1.423969
v -0.308126 -2.262796 1.541269
v 0.237094 -1.675856 2.128210
v 0.436658 -1.558555 1.966759
v 0.509704 -1.398319 1.746213
v 0.436658 -1.238082 1.525667
v 0.237094 -1.120781 1.364216
v -0.308126 -1.120781 1.364216
v -0.507690 -1.238082 1.525667
v -0.580736 -1.398319 1.746213
v -0.507690 -1.558555 1.966759
v -0.308126 -1.675856 2.128210
v 0.237094 -0.936268 2.505049
v 0.436658 -0.874600 2.315252
v 0.509704 -0.790359 2.055984
v 0.436658 -0.706117 1.796717
v 0.237094 -0.644449 1.606920
v -0.308126 -0.644449 1.606920
v -0.507690 -0.706117 1.796717
v -0.580736 -0.790359 2.055984
v -0.507690 -0.874600 2.315252
v -0.308126 -0.936268 2.505049
v -0.836672 -0.136169 -1.242280
v -0.248597 -0.136169 -1.239002
v -0.836950 -0.256501 -1.192438
v -0.248875 -0.256501 -1.189160
v -0.837620 -0.306344 -1.072109
v -0.249546 -0.306344 -1.068830
v -0.838291 -0.256501 -0.951779
v -0.250217 -0.256501 -0.948501
v -0.838569 -0.136169 -0.901937
v -0.250495 -0.136169 -0.898659
v -0.838291 -0.015838 -0.951779
v -0.250217 -0.015838 -0.948501
v -0.837620 0.034005 -1.072109
v -0.249546 0.034005 -1.068830
v -0.836950 -0.015838 -1.192438
v -0.248875 -0.015838 -1.189160
v -0.966347 -0.136169 -1.217389
v -0.947634 -0.256501 -1.171192
v -0.902458 -0.306343 -1.059663
v -0.857282 -0.256501 -0.948134
v -0.838569 -0.136169 -0.901937
v -0.857282 -0.015838 -0.948134
v -0.902458 0.034005 -1.059663
v -0.947634 -0.015838 -1.171192
v -1.076789 -0.136169 -1.145017
v -1.041903 -0.256501 -1.109419
v -0.957679 -0.306343 -1.023477
v -0.873456 -0.256501 -0.937535
v -0.838569 -0.136169 -0.901937
v -0.873456 -0.015838 -0.937535
v -0.957679 0.034005 -1.023477
v -1.041903 -0.015838 -1.109419
v -1.151376 -0.136169 -1.036059
v -1.105567 -0.256501 -1.016417
v -0.994973 -0.306343 -0.968997
v -0.884379 -0.256501 -0.921578
v -0.838569 -0.136169 -0.901936
v -0.884379 -0.015838 -0.921578
v -0.994973 0.034005 -0.968997
v -1.105567 -0.015838 -1.016417
v -1.178881 -0.136169 -0.906913
v -1.129044 -0.256501 -0.906184
v -1.008725 -0.306343 -0.904424
v -0.888407 -0.256500 -0.902665
v -0.838569 -0.136169 -0.901936
v -0.888407 -0.015838 -0.902665
v -1.008725 0.034005 -0.904424
v -1.129044 -0.015838 -0.906184
v -1.182723 -0.136169 -0.644158
v -1.132886 -0.256501 -0.643430
v -1.012568 -0.306343 -0.641670
v -0.892249 -0.256500 -0.639911
v -0.842411 -0.136169 -0.639182
v -0.892249 -0.015838 -0.639911
v -1.012568 0.034005 -0.641670
v -1.132886 -0.015838 -0.643430
v -1.775034 -0.422501 -0.645679
v -1.775034 -0.422501 0.645679
v -0.231467 -0.422501 -0.645679
v -0.231467 -0.422500 0.645679
v -1.775034 0.162716 -0.645679
v -1.300483 0.422501 -0.248667
v -1.775034 0.162716 0.645679
v -1.300483 0.422501 0.248667
v -0.706017 0.422501 -0.248667
v -0.231467 0.162716 -0.645679
v -0.231467 0.162716 0.645679
v -0.706017 0.422501 0.248667
v -0.222297 1.590180 -1.746447
v -0.222297 1.590180 1.671507
v 0.176049 1.590180 -1.746447
v 0.176049 1.590180 1.671507
v -0.222297 -1.610735 -1.746446
v -0.222297 -1.610735 1.671507
v 0.176049 -1.610735 -1.746446
v 0.176049 -1.610735 1.671507
v -1.264332 0.205590 0.000244
v -1.231568 0.205590 0.122517
v -1.142058 0.205590 0.212028
v -1.019784 0.205590 0.244791
v -0.897510 0.205590 0.212028
v -0.807999 0.205590 0.122517
v -0.775236 0.205590 0.000244
v -0.807999 0.205590 -0.122030
v -0.897510 0.205590 -0.211541
v -1.019784 0.205590 -0.244304
v -1.142058 0.205590 -0.211541
v -1.231568 0.205590 -0.122030
v -1.231568 2.250378 0.122517
v -1.264332 2.250378 0.000244
v -1.142058 2.250378 0.212028
v -1.019784 2.250378 0.244791
v -0.897510 2.250378 0.212028
v -0.807999 2.250378 0.122517
v -0.775236 2.250378 0.000244
v -0.807999 2.250378 -0.122030
v -0.897510 2.250378 -0.211541
v -1.019784 2.250378 -0.244304
v -1.142058 2.250378 -0.211541
v -1.231568 2.250378 -0.122030
v -1.275122 2.275517 0.147663
v -1.314623 2.275517 0.000244
v -1.167203 2.275517 0.255582
v -1.019784 2.275517 0.295083
v -0.872364 2.275517 0.255582
v -0.764446 2.275517 0.147663
v -0.724945 2.275517 0.000244
v -0.764446 2.275517 -0.147176
v -0.872364 2.275517 -0.255094
v -1.019784 2.275517 -0.294595
v -1.167203 2.275517 -0.255094
v -1.275122 2.275517 -0.147176
v -1.173376 2.339095 0.088920
v -1.197137 2.339095 0.000244
v -1.108460 2.339095 0.153836
v -1.019784 2.339095 0.177596
v -0.931108 2.339095 0.153836
v -0.866192 2.339094 0.088920
v -0.842431 2.339095 0.000244
v -0.866192 2.339095 -0.088433
v -0.931108 2.339095 -0.153348
v -1.019784 2.339095 -0.177109
v -1.108460 2.339095 -0.153348
v -1.173376 2.339095 -0.088433
v -1.275122 2.339095 0.147663
v -1.314623 2.339095 0.000244
v -1.167203 2.339095 0.255582
v -1.019784 2.339095 0.295083
v -0.872364 2.339094 0.255582
v -0.764446 2.339094 0.147663
v -0.724945 2.339094 0.000244
v -0.764446 2.339094 -0.147176
v -0.872364 2.339095 -0.255094
v -1.019784 2.339095 -0.294595
v -1.167203 2.339095 -0.255094
v -1.275122 2.339095 -0.147176
v -1.173376 2.267825 0.088920
v -1.197137 2.267825 0.000244
v -1.108460 2.267825 0.153836
v -1.019784 2.267825 0.177596
v -0.931108 2.267825 0.153836
v -0.866192 2.267825 0.088920
v -0.842431 2.267825 0.000244
v -0.866192 2.267825 -0.088433
v -0.931108 2.267825 -0.153348
v -1.019784 2.267825 -0.177109
v -1.108460 2.267825 -0.153348
v -1.173376 2.267825 -0.088433
vn -0.0000 -1.0000 -0.0000
vn 0.1190 -0.8881 -0.4440
vn 0.2588 -0.0000 0.9659
vn -0.7071 -0.0000 -0.7071
vn -0.9659 -0.0000 0.2588
vn 0.7071 -0.0000 -0.7071
vn 0.7071 -0.0000 0.7071
vn -0.9659 -0.0000 -0.2588
vn -0.7071 -0.0000 0.7071
vn 0.2588 -0.0000 -0.9659
vn 0.9659 -0.0000 0.2588
vn -0.2588 -0.0000 0.9659
vn -0.2588 -0.0000 -0.9659
vn 0.9659 -0.0000 -0.2588
vn 0.4440 -0.8881 0.1190
vn -0.1190 -0.8881 0.4440
vn -0.1190 -0.8881 -0.4440
vn 0.4440 -0.8881 -0.1190
vn 0.1190 -0.8881 0.4440
vn -0.3250 -0.8881 -0.3250
vn -0.4440 -0.8881 0.1190
vn 0.3250 -0.8881 -0.3250
vn 0.3250 -0.8881 0.3250
vn -0.4440 -0.8881 -0.1190
vn -0.3250 -0.8881 0.3250
vn -0.0000 1.0000 -0.0000
vn -0.0000 0.8368 -0.5475
vn -0.4802 0.8772 -0.0000
vn -0.0000 0.8368 0.5475
vn 0.4802 0.8772 -0.0000
vn -0.0000 -0.0000 -1.0000
vn -1.0000 -0.0000 -0.0000
vn -0.0000 -0.0000 1.0000
vn 1.0000 -0.0000 -0.0000
vn -0.7027 -0.1113 -0.7027
vn -0.9651 -0.0410 -0.2586
vn -0.9651 0.0410 0.2586
vn -0.7027 0.1113 0.7027
vn 0.7027 0.1113 0.7027
vn 0.9651 0.0410 0.2586
vn 0.9651 -0.0410 -0.2586
vn 0.7027 -0.1113 -0.7027
vn -0.7027 -0.3230 -0.6339
vn -0.9651 -0.1189 -0.2333
vn -0.9651 0.1189 0.2333
vn -0.7027 0.3230 0.6339
vn 0.7027 0.3230 0.6339
vn 0.9651 0.1189 0.2333
vn 0.9651 -0.1189 -0.2333
vn 0.7027 -0.3230 -0.6339
vn -0.7027 -0.5031 -0.5031
vn -0.9651 -0.1851 -0.1851
vn -0.9651 0.1851 0.1851
vn -0.7027 0.5031 0.5031
vn 0.7027 0.5031 0.5031
vn 0.9651 0.1851 0.1851
vn 0.9651 -0.1851 -0.1851
vn 0.7027 -0.5031 -0.5031
vn -0.7027 -0.6339 -0.3230
vn -0.9651 -0.2333 -0.1189
vn -0.9651 0.2333 0.1189
vn -0.7027 0.6339 0.3230
vn 0.7027 0.6339 0.3230
vn 0.9651 0.2333 0.1189
vn 0.9651 -0.2333 -0.1189
vn 0.7027 -0.6339 -0.3230
vn -0.7027 -0.7027 -0.1113
vn -0.9651 -0.2586 -0.0410
vn -0.9651 0.2586 0.0410
vn -0.7027 0.7027 0.1113
vn 0.7027 0.7027 0.1113
vn 0.9651 0.2586 0.0410
vn 0.9651 -0.2586 -0.0410
vn 0.7027 -0.7027 -0.1113
vn -0.7027 -0.7027 0.1113
vn -0.9651 -0.2586 0.0410
vn -0.9651 0.2586 -0.0410
vn -0.7027 0.7027 -0.1113
vn 0.7027 0.7027 -0.1113
vn 0.9651 0.2586 -0.0410
vn 0.9651 -0.2586 0.0410
vn 0.7027 -0.7027 0.1113
vn -0.7027 -0.6339 0.3230
vn -0.9651 -0.2333 0.1189
vn -0.9651 0.2333 -0.1189
vn -0.7027 0.6339 -0.3230
vn 0.7027 0.6339 -0.3230
vn 0.9651 0.2333 -0.1189
vn 0.9651 -0.2333 0.1189
vn 0.7027 -0.6339 0.3230
vn -0.7027 -0.5031 0.5031
vn -0.9651 -0.1851 0.1851
vn -0.9651 0.1851 -0.1851
vn -0.7027 0.5031 -0.5031
vn 0.7027 0.5031 -0.5031
vn 0.9651 0.1851 -0.1851
vn 0.9651 -0.1851 0.1851
vn 0.7027 -0.5031 0.5031
vn -0.7027 -0.3230 0.6339
vn -0.9651 -0.1189 0.2333
vn -0.9651 0.1189 -0.2333
vn -0.7027 0.3230 -0.6339
vn 0.7027 0.3230 -0.6339
vn 0.9651 0.1189 -0.2333
vn 0.9651 -0.1189 0.2333
vn 0.7027 -0.3230 0.6339
vn -0.7027 -0.1113 0.7027
vn -0.9651 -0.0410 0.2586
vn -0.9651 0.0410 -0.2586
vn -0.7027 0.1113 -0.7027
vn 0.7027 0.1113 -0.7027
vn 0.9651 0.0410 -0.2586
vn 0.9651 -0.0410 0.2586
vn 0.7027 -0.1113 0.7027
vn 0.0052 -0.3827 -0.9239
vn 0.0021 -0.9239 -0.3827
vn -0.0021 -0.9239 0.3827
vn -0.0052 -0.3827 0.9239
vn -0.0052 0.3827 0.9239
vn -0.0021 0.9239 0.3827
vn 1.0000 -0.0000 0.0056
vn 0.0021 0.9239 -0.3827
vn 0.0052 0.3827 -0.9239
vn 0.1747 -0.3764 0.9098
vn -0.2132 -0.9212 -0.3254
vn -0.0733 0.9212 -0.3820
vn -0.0733 -0.9212 -0.3820
vn 0.1747 0.3764 0.9098
vn -0.1746 0.3765 -0.9098
vn -0.1746 -0.3765 -0.9098
vn 0.0733 -0.9212 0.3820
vn 0.0733 0.9212 0.3820
vn -0.7645 0.3765 -0.5233
vn -0.2132 0.9212 -0.3253
vn 0.5078 0.3765 0.7749
vn 0.2132 -0.9212 0.3254
vn -0.5078 -0.3765 -0.7749
vn -0.5078 0.3765 -0.7749
vn 0.2132 0.9212 0.3254
vn 0.5078 -0.3765 0.7749
vn -0.3823 0.9237 -0.0245
vn 0.3210 0.9212 0.2197
vn 0.7645 -0.3765 0.5233
vn -0.3210 -0.9212 -0.2197
vn -0.3210 0.9212 -0.2197
vn 0.7645 0.3765 0.5233
vn 0.3210 -0.9212 0.2197
vn -0.7645 -0.3765 -0.5233
vn -0.3823 -0.9237 -0.0245
vn -0.9061 -0.3765 -0.1930
vn -0.9061 0.3765 -0.1930
vn 0.3825 -0.9238 0.0160
vn 0.9061 -0.3765 0.1930
vn 0.9061 0.3765 0.1930
vn -0.0146 -0.0000 0.9999
vn 0.9238 0.3827 0.0135
vn -0.9238 -0.3827 -0.0135
vn -0.9238 0.3827 -0.0135
vn 0.9238 -0.3827 0.0135
vn 0.3825 0.9238 0.0160
vt 0.000000 0.000000
vt 0.375000 0.500000
vt 0.625000 0.500000
vt 0.625000 0.750000
vt 0.375000 0.750000
vt 0.375000 0.308985
vt 0.375000 0.000000
vt 0.451859 0.076859
vt 0.451859 0.173141
vt 0.625000 0.000000
vt 0.548141 0.076859
vt 0.625000 0.308985
vt 0.548141 0.173141
vt 0.201859 0.500000
vt 0.201859 0.750000
vt 0.625000 0.923141
vt 0.375000 0.923141
vt 0.798141 0.500000
vt 0.798141 0.750000
vt 0.550000 0.583333
vt 0.600000 0.583333
vt 0.600000 0.666667
vt 0.550000 0.666667
vt 0.600000 0.750000
vt 0.550000 0.750000
vt 0.600000 0.833333
vt 0.550000 0.833333
vt 0.600000 0.916667
vt 0.550000 0.916667
vt 0.550000 0.083333
vt 0.600000 0.083333
vt 0.600000 0.166667
vt 0.550000 0.166667
vt 0.600000 0.250000
vt 0.550000 0.250000
vt 0.600000 0.333333
vt 0.550000 0.333333
vt 0.600000 0.416667
vt 0.550000 0.416667
vt 0.650000 0.583333
vt 0.650000 0.666667
vt 0.650000 0.750000
vt 0.650000 0.833333
vt 0.650000 0.916667
vt 0.650000 0.083333
vt 0.650000 0.166667
vt 0.650000 0.250000
vt 0.650000 0.333333
vt 0.650000 0.416667
vt 0.700000 0.583333
vt 0.700000 0.666667
vt 0.700000 0.750000
vt 0.700000 0.833333
vt 0.700000 0.916667
vt 0.700000 0.083333
vt 0.700000 0.166667
vt 0.700000 0.250000
vt 0.700000 0.333333
vt 0.700000 0.416667
vt 0.750000 0.583333
vt 0.750000 0.666667
vt 0.750000 0.750000
vt 0.750000 0.833333
vt 0.750000 0.916667
vt 0.750000 0.083333
vt 0.750000 0.166667
vt 0.750000 0.250000
vt 0.750000 0.333333
vt 0.750000 0.416667
vt 0.800000 0.583333
vt 0.800000 0.666667
vt 0.800000 0.750000
vt 0.800000 0.833333
vt 0.800000 0.916667
vt 0.800000 0.083333
vt 0.800000 0.166667
vt 0.800000 0.250000
vt 0.800000 0.333333
vt 0.800000 0.416667
vt 0.850000 0.583333
vt 0.850000 0.666667
vt 0.850000 0.750000
vt 0.850000 0.833333
vt 0.850000 0.916667
vt 0.850000 0.083333
vt 0.850000 0.166667
vt 0.850000 0.250000
vt 0.850000 0.333333
vt 0.850000 0.416667
vt 0.900000 0.583333
vt 0.900000 0.666667
vt 0.900000 0.750000
vt 0.900000 0.833333
vt 0.900000 0.916667
vt 0.900000 0.083333
vt 0.900000 0.166667
vt 0.900000 0.250000
vt 0.900000 0.333333
vt 0.900000 0.416667
vt 0.950000 0.583333
vt 0.950000 0.666667
vt 0.950000 0.750000
vt 0.950000 0.833333
vt 0.950000 0.916667
vt 0.950000 0.083333
vt 0.950000 0.166667
vt 0.950000 0.250000
vt 0.950000 0.333333
vt 0.950000 0.416667
vt 1.000000 0.583333
vt 1.000000 0.666667
vt 1.000000 0.750000
vt 1.000000 0.833333
vt 1.000000 0.916667
vt 1.000000 0.083333
vt 1.000000 0.166667
vt 1.000000 0.250000
vt 1.000000 0.333333
vt 1.000000 0.416667
vt 0.000000 0.583333
vt 0.050000 0.583333
vt 0.050000 0.666667
vt 0.000000 0.666667
vt 0.050000 0.750000
vt 0.000000 0.750000
vt 0.050000 0.833333
vt 0.000000 0.833333
vt 0.050000 0.916667
vt 0.000000 0.916667
vt 0.000000 0.083333
vt 0.050000 0.083333
vt 0.050000 0.166667
vt 0.000000 0.166667
vt 0.050000 0.250000
vt 0.000000 0.250000
vt 0.050000 0.333333
vt 0.000000 0.333333
vt 0.050000 0.416667
vt 0.000000 0.416667
vt 0.100000 0.583333
vt 0.100000 0.666667
vt 0.100000 0.750000
vt 0.100000 0.833333
vt 0.100000 0.916667
vt 0.100000 0.083333
vt 0.100000 0.166667
vt 0.100000 0.250000
vt 0.100000 0.333333
vt 0.100000 0.416667
vt 0.150000 0.583333
vt 0.150000 0.666667
vt 0.150000 0.750000
vt 0.150000 0.833333
vt 0.150000 0.916667
vt 0.150000 0.083333
vt 0.150000 0.166667
vt 0.150000 0.250000
vt 0.150000 0.333333
vt 0.150000 0.416667
vt 0.200000 0.583333
vt 0.200000 0.666667
vt 0.200000 0.750000
vt 0.200000 0.833333
vt 0.200000 0.916667
vt 0.200000 0.083333
vt 0.200000 0.166667
vt 0.200000 0.250000
vt 0.200000 0.333333
vt 0.200000 0.416667
vt 0.250000 0.583333
vt 0.250000 0.666667
vt 0.250000 0.750000
vt 0.250000 0.833333
vt 0.250000 0.916667
vt 0.250000 0.083333
vt 0.250000 0.166667
vt 0.250000 0.250000
vt 0.250000 0.333333
vt 0.250000 0.416667
vt 0.300000 0.583333
vt 0.300000 0.666667
vt 0.300000 0.750000
vt 0.300000 0.833333
vt 0.300000 0.916667
vt 0.300000 0.083333
vt 0.300000 0.166667
vt 0.300000 0.250000
vt 0.300000 0.333333
vt 0.300000 0.416667
vt 0.350000 0.583333
vt 0.350000 0.666667
vt 0.350000 0.750000
vt 0.350000 0.833333
vt 0.350000 0.916667
vt 0.350000 0.083333
vt 0.350000 0.166667
vt 0.350000 0.250000
vt 0.350000 0.333333
vt 0.350000 0.416667
vt 0.400000 0.583333
vt 0.400000 0.666667
vt 0.400000 0.750000
vt 0.400000 0.833333
vt 0.400000 0.916667
vt 0.400000 0.083333
vt 0.400000 0.166667
vt 0.400000 0.250000
vt 0.400000 0.333333
vt 0.400000 0.416667
vt 0.450000 0.583333
vt 0.450000 0.666667
vt 0.450000 0.750000
vt 0.450000 0.833333
vt 0.450000 0.916667
vt 0.450000 0.083333
vt 0.450000 0.166667
vt 0.450000 0.250000
vt 0.450000 0.333333
vt 0.450000 0.416667
vt 0.500000 0.583333
vt 0.500000 0.666667
vt 0.500000 0.750000
vt 0.500000 0.833333
vt 0.500000 0.916667
vt 0.500000 0.083333
vt 0.500000 0.166667
vt 0.500000 0.250000
vt 0.500000 0.333333
vt 0.500000 0.416667
vt 1.000000 0.500000
vt 1.000000 1.000000
vt 0.875000 1.000000
vt 0.875000 0.500000
vt 0.750000 1.000000
vt 0.750000 0.500000
vt 0.625000 1.000000
vt 0.500000 1.000000
vt 0.500000 0.500000
vt 0.375000 1.000000
vt 0.250000 1.000000
vt 0.250000 0.500000
vt 0.419706 0.419706
vt 0.250000 0.490000
vt 0.080294 0.419706
vt 0.010000 0.250000
vt 0.080294 0.080294
vt 0.250000 0.010000
vt 0.419706 0.080294
vt 0.490000 0.250000
vt 0.125000 1.000000
vt 0.125000 0.500000
vt 0.000000 1.000000
vt 0.000000 0.500000
vt 0.750000 0.490000
vt 0.919706 0.419706
vt 0.990000 0.250000
vt 0.919706 0.080294
vt 0.750000 0.010000
vt 0.580294 0.080294
vt 0.510000 0.250000
vt 0.580294 0.419706
vt 0.625000 0.250000
vt 0.375000 0.250000
vt 0.125000 0.750000
vt 0.875000 0.750000
s 0
usemtl Material.026
f 2/1/1 1/1/1 12/1/1 11/1/1 10/1/1 9/1/1 8/1/1 7/1/1 6/1/1 5/1/1 4/1/1 3/1/1
f 21/1/2 22/1/2 34/1/2 33/1/2
f 4/1/3 5/1/3 17/1/3 16/1/3
f 11/1/4 12/1/4 24/1/4 23/1/4
f 1/1/5 2/1/5 13/1/5 14/1/5
f 8/1/6 9/1/6 21/1/6 20/1/6
f 5/1/7 6/1/7 18/1/7 17/1/7
f 12/1/8 1/1/8 14/1/8 24/1/8
f 2/1/9 3/1/9 15/1/9 13/1/9
f 9/1/10 10/1/10 22/1/10 21/1/10
f 6/1/11 7/1/11 19/1/11 18/1/11
f 3/1/12 4/1/12 16/1/12 15/1/12
f 10/1/13 11/1/13 23/1/13 22/1/13
f 7/1/14 8/1/14 20/1/14 19/1/14
f 25/1/9 27/1/9 51/1/9 49/1/9
f 18/1/15 19/1/15 31/1/15 30/1/15
f 15/1/16 16/1/16 28/1/16 27/1/16
f 22/1/17 23/1/17 35/1/17 34/1/17
f 19/1/18 20/1/18 32/1/18 31/1/18
f 16/1/19 17/1/19 29/1/19 28/1/19
f 23/1/20 24/1/20 36/1/20 35/1/20
f 14/1/21 13/1/21 25/1/21 26/1/21
f 20/1/22 21/1/22 33/1/22 32/1/22
f 17/1/23 18/1/23 30/1/23 29/1/23
f 24/1/24 14/1/24 26/1/24 36/1/24
f 13/1/25 15/1/25 27/1/25 25/1/25
f 40/1/13 41/1/13 65/1/13 64/1/13
f 33/1/10 34/1/10 58/1/10 57/1/10
f 30/1/11 31/1/11 55/1/11 54/1/11
f 27/1/12 28/1/12 52/1/12 51/1/12
f 34/1/13 35/1/13 59/1/13 58/1/13
f 31/1/14 32/1/14 56/1/14 55/1/14
f 28/1/3 29/1/3 53/1/3 52/1/3
f 35/1/4 36/1/4 60/1/4 59/1/4
f 26/1/5 25/1/5 49/1/5 50/1/5
f 32/1/6 33/1/6 57/1/6 56/1/6
f 29/1/7 30/1/7 54/1/7 53/1/7
f 36/1/8 26/1/8 50/1/8 60/1/8
f 37/1/26 38/1/26 50/1/26 49/1/26
f 39/1/26 37/1/26 49/1/26 51/1/26
f 40/1/26 39/1/26 51/1/26 52/1/26
f 41/1/26 40/1/26 52/1/26 53/1/26
f 42/1/26 41/1/26 53/1/26 54/1/26
f 43/1/26 42/1/26 54/1/26 55/1/26
f 44/1/26 43/1/26 55/1/26 56/1/26
f 45/1/26 44/1/26 56/1/26 57/1/26
f 46/1/26 45/1/26 57/1/26 58/1/26
f 47/1/26 46/1/26 58/1/26 59/1/26
f 48/1/26 47/1/26 59/1/26 60/1/26
f 38/1/26 48/1/26 60/1/26 50/1/26
f 47/1/7 48/1/7 72/1/7 71/1/7
f 38/1/14 37/1/14 61/1/14 62/1/14
f 44/1/9 45/1/9 69/1/9 68/1/9
f 41/1/4 42/1/4 66/1/4 65/1/4
f 48/1/11 38/1/11 62/1/11 72/1/11
f 37/1/6 39/1/6 63/1/6 61/1/6
f 45/1/12 46/1/12 70/1/12 69/1/12
f 42/1/8 43/1/8 67/1/8 66/1/8
f 39/1/10 40/1/10 64/1/10 63/1/10
f 46/1/3 47/1/3 71/1/3 70/1/3
f 43/1/5 44/1/5 68/1/5 67/1/5
usemtl Material.027
f 61/1/26 63/1/26 64/1/26 65/1/26 66/1/26 67/1/26 68/1/26 69/1/26 70/1/26 71/1/26 72/1/26 62/1/26
usemtl Material.025
f 75/2/1 76/3/1 74/4/1 73/5/1
f 82/6/27 77/7/27 78/8/27 81/9/27
f 77/7/28 79/10/28 80/11/28 78/8/28
f 79/10/29 83/12/29 84/13/29 80/11/29
f 83/12/30 82/6/30 81/9/30 84/13/30
f 82/14/31 75/2/31 73/5/31 77/15/31
f 78/8/26 80/11/26 84/13/26 81/9/26
f 73/5/32 74/4/32 79/16/32 77/17/32
f 76/3/33 83/18/33 79/19/33 74/4/33
f 82/6/34 83/12/34 76/3/34 75/2/34
f 343/2/1 344/3/1 342/4/1 341/5/1
f 350/6/27 345/7/27 346/8/27 349/9/27
f 345/7/28 347/10/28 348/11/28 346/8/28
f 347/10/29 351/12/29 352/13/29 348/11/29
f 351/12/30 350/6/30 349/9/30 352/13/30
f 350/14/31 343/2/31 341/5/31 345/15/31
f 346/8/26 348/11/26 352/13/26 349/9/26
f 341/5/32 342/4/32 347/16/32 345/17/32
f 344/3/33 351/18/33 347/19/33 342/4/33
f 350/6/34 351/12/34 344/3/34 343/2/34
f 353/7/26 354/10/26 356/262/26 355/263/26
f 355/263/34 356/262/34 360/3/34 359/2/34
f 359/2/1 360/3/1 358/4/1 357/5/1
f 357/5/32 358/4/32 354/236/32 353/239/32
f 355/251/31 359/2/31 357/5/31 353/264/31
f 360/3/33 356/233/33 354/265/33 358/4/33
usemtl Material.023
f 85/20/35 95/21/35 96/22/35 86/23/35
f 86/23/36 96/22/36 97/24/36 87/25/36
f 87/25/37 97/24/37 98/26/37 88/27/37
f 88/27/38 98/26/38 99/28/38 89/29/38
f 90/30/39 100/31/39 101/32/39 91/33/39
f 91/33/40 101/32/40 102/34/40 92/35/40
f 92/35/41 102/34/41 103/36/41 93/37/41
f 93/37/42 103/36/42 104/38/42 94/39/42
f 95/21/43 105/40/43 106/41/43 96/22/43
f 96/22/44 106/41/44 107/42/44 97/24/44
f 97/24/45 107/42/45 108/43/45 98/26/45
f 98/26/46 108/43/46 109/44/46 99/28/46
f 100/31/47 110/45/47 111/46/47 101/32/47
f 101/32/48 111/46/48 112/47/48 102/34/48
f 102/34/49 112/47/49 113/48/49 103/36/49
f 103/36/50 113/48/50 114/49/50 104/38/50
f 105/40/51 115/50/51 116/51/51 106/41/51
f 106/41/52 116/51/52 117/52/52 107/42/52
f 107/42/53 117/52/53 118/53/53 108/43/53
f 108/43/54 118/53/54 119/54/54 109/44/54
f 110/45/55 120/55/55 121/56/55 111/46/55
f 111/46/56 121/56/56 122/57/56 112/47/56
f 112/47/57 122/57/57 123/58/57 113/48/57
f 113/48/58 123/58/58 124/59/58 114/49/58
f 115/50/59 125/60/59 126/61/59 116/51/59
f 116/51/60 126/61/60 127/62/60 117/52/60
f 117/52/61 127/62/61 128/63/61 118/53/61
f 118/53/62 128/63/62 129/64/62 119/54/62
f 120/55/63 130/65/63 131/66/63 121/56/63
f 121/56/64 131/66/64 132/67/64 122/57/64
f 122/57/65 132/67/65 133/68/65 123/58/65
f 123/58/66 133/68/66 134/69/66 124/59/66
f 125/60/67 135/70/67 136/71/67 126/61/67
f 126/61/68 136/71/68 137/72/68 127/62/68
f 127/62/69 137/72/69 138/73/69 128/63/69
f 128/63/70 138/73/70 139/74/70 129/64/70
f 130/65/71 140/75/71 141/76/71 131/66/71
f 131/66/72 141/76/72 142/77/72 132/67/72
f 132/67/73 142/77/73 143/78/73 133/68/73
f 133/68/74 143/78/74 144/79/74 134/69/74
f 135/70/75 145/80/75 146/81/75 136/71/75
f 136/71/76 146/81/76 147/82/76 137/72/76
f 137/72/77 147/82/77 148/83/77 138/73/77
f 138/73/78 148/83/78 149/84/78 139/74/78
f 140/75/79 150/85/79 151/86/79 141/76/79
f 141/76/80 151/86/80 152/87/80 142/77/80
f 142/77/81 152/87/81 153/88/81 143/78/81
f 143/78/82 153/88/82 154/89/82 144/79/82
f 145/80/83 155/90/83 156/91/83 146/81/83
f 146/81/84 156/91/84 157/92/84 147/82/84
f 147/82/85 157/92/85 158/93/85 148/83/85
f 148/83/86 158/93/86 159/94/86 149/84/86
f 150/85/87 160/95/87 161/96/87 151/86/87
f 151/86/88 161/96/88 162/97/88 152/87/88
f 152/87/89 162/97/89 163/98/89 153/88/89
f 153/88/90 163/98/90 164/99/90 154/89/90
f 155/90/91 165/100/91 166/101/91 156/91/91
f 156/91/92 166/101/92 167/102/92 157/92/92
f 157/92/93 167/102/93 168/103/93 158/93/93
f 158/93/94 168/103/94 169/104/94 159/94/94
f 160/95/95 170/105/95 171/106/95 161/96/95
f 161/96/96 171/106/96 172/107/96 162/97/96
f 162/97/97 172/107/97 173/108/97 163/98/97
f 163/98/98 173/108/98 174/109/98 164/99/98
f 165/100/99 175/110/99 176/111/99 166/101/99
f 166/101/100 176/111/100 177/112/100 167/102/100
f 167/102/101 177/112/101 178/113/101 168/103/101
f 168/103/102 178/113/102 179/114/102 169/104/102
f 170/105/103 180/115/103 181/116/103 171/106/103
f 171/106/104 181/116/104 182/117/104 172/107/104
f 172/107/105 182/117/105 183/118/105 173/108/105
f 173/108/106 183/118/106 184/119/106 174/109/106
f 175/120/107 185/121/107 186/122/107 176/123/107
f 176/123/108 186/122/108 187/124/108 177/125/108
f 177/125/109 187/124/109 188/126/109 178/127/109
f 178/127/110 188/126/110 189/128/110 179/129/110
f 180/130/111 190/131/111 191/132/111 181/133/111
f 181/133/112 191/132/112 192/134/112 182/135/112
f 182/135/113 192/134/113 193/136/113 183/137/113
f 183/137/114 193/136/114 194/138/114 184/139/114
f 185/121/38 195/140/38 196/141/38 186/122/38
f 186/122/37 196/141/37 197/142/37 187/124/37
f 187/124/36 197/142/36 198/143/36 188/126/36
f 188/126/35 198/143/35 199/144/35 189/128/35
f 190/131/42 200/145/42 201/146/42 191/132/42
f 191/132/41 201/146/41 202/147/41 192/134/41
f 192/134/40 202/147/40 203/148/40 193/136/40
f 193/136/39 203/148/39 204/149/39 194/138/39
f 195/140/46 205/150/46 206/151/46 196/141/46
f 196/141/45 206/151/45 207/152/45 197/142/45
f 197/142/44 207/152/44 208/153/44 198/143/44
f 198/143/43 208/153/43 209/154/43 199/144/43
f 200/145/50 210/155/50 211/156/50 201/146/50
f 201/146/49 211/156/49 212/157/49 202/147/49
f 202/147/48 212/157/48 213/158/48 203/148/48
f 203/148/47 213/158/47 214/159/47 204/149/47
f 205/150/54 215/160/54 216/161/54 206/151/54
f 206/151/53 216/161/53 217/162/53 207/152/53
f 207/152/52 217/162/52 218/163/52 208/153/52
f 208/153/51 218/163/51 219/164/51 209/154/51
f 210/155/58 220/165/58 221/166/58 211/156/58
f 211/156/57 221/166/57 222/167/57 212/157/57
f 212/157/56 222/167/56 223/168/56 213/158/56
f 213/158/55 223/168/55 224/169/55 214/159/55
f 215/160/62 225/170/62 226/171/62 216/161/62
f 216/161/61 226/171/61 227/172/61 217/162/61
f 217/162/60 227/172/60 228/173/60 218/163/60
f 218/163/59 228/173/59 229/174/59 219/164/59
f 220/165/66 230/175/66 231/176/66 221/166/66
f 221/166/65 231/176/65 232/177/65 222/167/65
f 222/167/64 232/177/64 233/178/64 223/168/64
f 223/168/63 233/178/63 234/179/63 224/169/63
f 225/170/70 235/180/70 236/181/70 226/171/70
f 226/171/69 236/181/69 237/182/69 227/172/69
f 227/172/68 237/182/68 238/183/68 228/173/68
f 228/173/67 238/183/67 239/184/67 229/174/67
f 230/175/74 240/185/74 241/186/74 231/176/74
f 231/176/73 241/186/73 242/187/73 232/177/73
f 232/177/72 242/187/72 243/188/72 233/178/72
f 233/178/71 243/188/71 244/189/71 234/179/71
f 235/180/78 245/190/78 246/191/78 236/181/78
f 236/181/77 246/191/77 247/192/77 237/182/77
f 237/182/76 247/192/76 248/193/76 238/183/76
f 238/183/75 248/193/75 249/194/75 239/184/75
f 240/185/82 250/195/82 251/196/82 241/186/82
f 241/186/81 251/196/81 252/197/81 242/187/81
f 242/187/80 252/197/80 253/198/80 243/188/80
f 243/188/79 253/198/79 254/199/79 244/189/79
f 245/190/86 255/200/86 256/201/86 246/191/86
f 246/191/85 256/201/85 257/202/85 247/192/85
f 247/192/84 257/202/84 258/203/84 248/193/84
f 248/193/83 258/203/83 259/204/83 249/194/83
f 250/195/90 260/205/90 261/206/90 251/196/90
f 251/196/89 261/206/89 262/207/89 252/197/89
f 252/197/88 262/207/88 263/208/88 253/198/88
f 253/198/87 263/208/87 264/209/87 254/199/87
f 255/200/94 265/210/94 266/211/94 256/201/94
f 256/201/93 266/211/93 267/212/93 257/202/93
f 257/202/92 267/212/92 268/213/92 258/203/92
f 258/203/91 268/213/91 269/214/91 259/204/91
f 260/205/98 270/215/98 271/216/98 261/206/98
f 261/206/97 271/216/97 272/217/97 262/207/97
f 262/207/96 272/217/96 273/218/96 263/208/96
f 263/208/95 273/218/95 274/219/95 264/209/95
f 265/210/102 275/220/102 276/221/102 266/211/102
f 266/211/101 276/221/101 277/222/101 267/212/101
f 267/212/100 277/222/100 278/223/100 268/213/100
f 268/213/99 278/223/99 279/224/99 269/214/99
f 270/215/106 280/225/106 281/226/106 271/216/106
f 271/216/105 281/226/105 282/227/105 272/217/105
f 272/217/104 282/227/104 283/228/104 273/218/104
f 273/218/103 283/228/103 284/229/103 274/219/103
f 275/220/110 85/20/110 86/23/110 276/221/110
f 276/221/109 86/23/109 87/25/109 277/222/109
f 277/222/108 87/25/108 88/27/108 278/223/108
f 278/223/107 88/27/107 89/29/107 279/224/107
f 280/225/114 90/30/114 91/33/114 281/226/114
f 281/226/113 91/33/113 92/35/113 282/227/113
f 282/227/112 92/35/112 93/37/112 283/228/112
f 283/228/111 93/37/111 94/39/111 284/229/111
f 362/1/1 361/1/1 372/1/1 371/1/1 370/1/1 369/1/1 368/1/1 367/1/1 366/1/1 365/1/1 364/1/1 363/1/1
f 381/1/2 382/1/2 394/1/2 393/1/2
f 364/1/3 365/1/3 377/1/3 376/1/3
f 371/1/4 372/1/4 384/1/4 383/1/4
f 361/1/5 362/1/5 373/1/5 374/1/5
f 368/1/6 369/1/6 381/1/6 380/1/6
f 365/1/7 366/1/7 378/1/7 377/1/7
f 372/1/8 361/1/8 374/1/8 384/1/8
f 362/1/9 363/1/9 375/1/9 373/1/9
f 369/1/10 370/1/10 382/1/10 381/1/10
f 366/1/11 367/1/11 379/1/11 378/1/11
f 363/1/12 364/1/12 376/1/12 375/1/12
f 370/1/13 371/1/13 383/1/13 382/1/13
f 367/1/14 368/1/14 380/1/14 379/1/14
f 385/1/9 387/1/9 411/1/9 409/1/9
f 378/1/15 379/1/15 391/1/15 390/1/15
f 375/1/16 376/1/16 388/1/16 387/1/16
f 382/1/17 383/1/17 395/1/17 394/1/17
f 379/1/18 380/1/18 392/1/18 391/1/18
f 376/1/19 377/1/19 389/1/19 388/1/19
f 383/1/20 384/1/20 396/1/20 395/1/20
f 374/1/21 373/1/21 385/1/21 386/1/21
f 380/1/22 381/1/22 393/1/22 392/1/22
f 377/1/23 378/1/23 390/1/23 389/1/23
f 384/1/24 374/1/24 386/1/24 396/1/24
f 373/1/25 375/1/25 387/1/25 385/1/25
f 400/1/13 401/1/13 425/1/13 424/1/13
f 393/1/10 394/1/10 418/1/10 417/1/10
f 390/1/11 391/1/11 415/1/11 414/1/11
f 387/1/12 388/1/12 412/1/12 411/1/12
f 394/1/13 395/1/13 419/1/13 418/1/13
f 391/1/14 392/1/14 416/1/14 415/1/14
f 388/1/3 389/1/3 413/1/3 412/1/3
f 395/1/4 396/1/4 420/1/4 419/1/4
f 386/1/5 385/1/5 409/1/5 410/1/5
f 392/1/6 393/1/6 417/1/6 416/1/6
f 389/1/7 390/1/7 414/1/7 413/1/7
f 396/1/8 386/1/8 410/1/8 420/1/8
f 397/1/26 398/1/26 410/1/26 409/1/26
f 399/1/26 397/1/26 409/1/26 411/1/26
f 400/1/26 399/1/26 411/1/26 412/1/26
f 401/1/26 400/1/26 412/1/26 413/1/26
f 402/1/26 401/1/26 413/1/26 414/1/26
f 403/1/26 402/1/26 414/1/26 415/1/26
f 404/1/26 403/1/26 415/1/26 416/1/26
f 405/1/26 404/1/26 416/1/26 417/1/26
f 406/1/26 405/1/26 417/1/26 418/1/26
f 407/1/26 406/1/26 418/1/26 419/1/26
f 408/1/26 407/1/26 419/1/26 420/1/26
f 398/1/26 408/1/26 420/1/26 410/1/26
f 407/1/7 408/1/7 432/1/7 431/1/7
f 398/1/14 397/1/14 421/1/14 422/1/14
f 404/1/9 405/1/9 429/1/9 428/1/9
f 401/1/4 402/1/4 426/1/4 425/1/4
f 408/1/11 398/1/11 422/1/11 432/1/11
f 397/1/6 399/1/6 423/1/6 421/1/6
f 405/1/12 406/1/12 430/1/12 429/1/12
f 402/1/8 403/1/8 427/1/8 426/1/8
f 399/1/10 400/1/10 424/1/10 423/1/10
f 406/1/3 407/1/3 431/1/3 430/1/3
f 403/1/5 404/1/5 428/1/5 427/1/5
usemtl Material.024
f 285/230/115 286/231/115 288/232/115 287/233/115
f 287/233/116 288/232/116 290/234/116 289/235/116
f 289/235/117 290/234/117 292/236/117 291/3/117
f 291/3/118 292/236/118 294/237/118 293/238/118
f 293/238/119 294/237/119 296/239/119 295/2/119
f 295/2/120 296/239/120 298/240/120 297/241/120
f 288/242/121 286/243/121 300/244/121 298/245/121 296/246/121 294/247/121 292/248/121 290/249/121
f 297/241/122 298/240/122 300/250/122 299/251/122
f 299/251/123 300/250/123 286/252/123 285/253/123
f 291/3/124 293/238/124 305/238/124 304/3/124
f 302/233/125 303/235/125 311/235/125 310/233/125
f 297/241/126 299/251/126 308/251/126 307/241/126
f 287/233/127 289/235/127 303/235/127 302/233/127
f 293/238/128 295/2/128 306/2/128 305/238/128
f 299/251/129 285/253/129 301/253/129 308/251/129
f 285/230/130 287/233/130 302/233/130 301/230/130
f 289/235/131 291/3/131 304/3/131 303/235/131
f 295/2/132 297/241/132 307/241/132 306/2/132
f 316/251/133 309/253/133 317/253/133 324/251/133
f 307/241/134 308/251/134 316/251/134 315/241/134
f 305/238/135 306/2/135 314/2/135 313/238/135
f 303/235/136 304/3/136 312/3/136 311/235/136
f 301/230/137 302/233/137 310/233/137 309/230/137
f 308/251/138 301/253/138 309/253/138 316/251/138
f 306/2/139 307/241/139 315/241/139 314/2/139
f 304/3/140 305/238/140 313/238/140 312/3/140
f 323/241/141 324/251/141 332/251/141 340/251/141 339/241/141 331/241/141
f 314/2/142 315/241/142 323/241/142 322/2/142
f 312/3/143 313/238/143 321/238/143 320/3/143
f 310/233/144 311/235/144 319/235/144 318/233/144
f 315/241/145 316/251/145 324/251/145 323/241/145
f 313/238/146 314/2/146 322/2/146 321/238/146
f 311/235/147 312/3/147 320/3/147 319/235/147
f 309/230/148 310/233/148 318/233/148 317/230/148
f 327/235/149 335/235/149 334/233/149 326/233/149 318/233/149 319/235/149
f 317/230/150 318/233/150 326/233/150 325/230/150
f 324/251/151 317/253/151 325/253/151 332/251/151
f 328/3/152 336/3/152 335/235/152 327/235/152 319/235/152 320/3/152
f 320/3/153 321/238/153 329/238/153 328/3/153
f 321/238/154 322/2/154 330/2/154 329/238/154
f 333/254/155 334/255/155 335/256/155 336/257/155 337/258/155 338/259/155 339/260/155 340/261/155
f 329/238/156 330/2/156 338/2/156 337/238/156
f 325/230/157 326/233/157 334/233/157 333/230/157
f 332/251/158 325/253/158 333/253/158 340/251/158
f 328/3/159 329/238/159 337/238/159 336/3/159
f 331/241/160 339/241/160 338/2/160 330/2/160 322/2/160 323/241/160
usemtl Material.022
f 421/1/26 423/1/26 424/1/26 425/1/26 426/1/26 427/1/26 428/1/26 429/1/26 430/1/26 431/1/26 432/1/26 422/1/26
