# Blender 4.5.3 LTS
# www.blender.org
mtllib CorredorMOVIL.mtl
o Torus.001
v -0.002015 -0.116429 2.700926
v 0.269894 -0.116429 2.628069
v 0.269894 -0.116429 1.686151
v -0.002015 -0.116429 1.613294
v -0.273923 -0.116429 1.686151
v -0.273923 -0.116429 2.628069
v -0.002014 0.723813 2.567845
v 0.269894 0.701299 2.498553
v 0.269894 0.410231 1.602737
v -0.002014 0.387716 1.533445
v -0.273923 0.410231 1.602737
v -0.273923 0.701299 2.498553
v -0.002014 1.481807 2.181628
v 0.269894 1.438982 2.122685
v 0.269894 0.885337 1.360658
v -0.002014 0.842513 1.301715
v -0.273923 0.885337 1.360658
v -0.273923 1.438982 2.122685
v -0.002014 2.083354 1.580081
v 0.269894 2.024411 1.537256
v 0.269894 1.262384 0.983611
v -0.002014 1.203441 0.940786
v -0.273923 1.262384 0.983611
v -0.273923 2.024411 1.537256
v -0.002014 2.469571 0.822088
v 0.269894 2.400279 0.799574
v 0.269894 1.504463 0.508505
v -0.002014 1.435171 0.485991
v -0.273923 1.504463 0.508505
v -0.273923 2.400279 0.799574
v -0.002014 2.602653 -0.018155
v 0.269894 2.529795 -0.018155
v 0.269894 1.587878 -0.018155
v -0.002014 1.515020 -0.018155
v -0.273923 1.587878 -0.018155
v -0.273923 2.529795 -0.018155
v -0.002014 2.469571 -0.858397
v 0.269894 2.400279 -0.835883
v 0.269894 1.504463 -0.544815
v -0.002014 1.435171 -0.522300
v -0.273923 1.504463 -0.544815
v -0.273923 2.400279 -0.835883
v -0.002014 2.083354 -1.616391
v 0.269894 2.024411 -1.573567
v 0.269894 1.262384 -1.019921
v -0.002014 1.203441 -0.977097
v -0.273923 1.262384 -1.019921
v -0.273923 2.024411 -1.573567
v -0.002014 1.481807 -2.217939
v 0.269894 1.438982 -2.158996
v 0.269894 0.885337 -1.396968
v -0.002014 0.842512 -1.338025
v -0.273923 0.885337 -1.396968
v -0.273923 1.438982 -2.158996
v -0.002014 0.723814 -2.604155
v 0.269894 0.701299 -2.534863
v 0.269894 0.410231 -1.639047
v -0.002014 0.387717 -1.569755
v -0.273923 0.410231 -1.639047
v -0.273923 0.701299 -2.534863
v -0.002015 -0.116428 -2.737236
v 0.269894 -0.116429 -2.664379
v 0.269894 -0.116429 -1.722461
v -0.002015 -0.116429 -1.649604
v -0.273923 -0.116429 -1.722461
v -0.273923 -0.116428 -2.664379
v -0.002015 -0.956670 -2.604156
v 0.269894 -0.934156 -2.534864
v 0.269894 -0.643088 -1.639047
v -0.002015 -0.620574 -1.569755
v -0.273923 -0.643088 -1.639047
v -0.273923 -0.934156 -2.534864
v -0.002015 -1.714664 -2.217939
v 0.269894 -1.671839 -2.158996
v 0.269894 -1.118194 -1.396968
v -0.002015 -1.075370 -1.338025
v -0.273923 -1.118194 -1.396968
v -0.273923 -1.671839 -2.158996
v -0.002015 -2.316212 -1.616392
v 0.269894 -2.257269 -1.573567
v 0.269894 -1.495241 -1.019922
v -0.002015 -1.436298 -0.977097
v -0.273923 -1.495241 -1.019922
v -0.273923 -2.257269 -1.573567
v -0.002015 -2.702429 -0.858398
v 0.269893 -2.633137 -0.835883
v 0.269894 -1.737320 -0.544815
v -0.002015 -1.668029 -0.522301
v -0.273923 -1.737320 -0.544815
v -0.273923 -2.633137 -0.835883
v -0.002015 -2.835510 -0.018155
v 0.269893 -2.762653 -0.018155
v 0.269894 -1.820735 -0.018155
v -0.002015 -1.747878 -0.018155
v -0.273923 -1.820735 -0.018155
v -0.273923 -2.762653 -0.018155
v -0.002015 -2.702429 0.822088
v 0.269893 -2.633137 0.799573
v 0.269894 -1.737320 0.508505
v -0.002015 -1.668029 0.485991
v -0.273923 -1.737320 0.508505
v -0.273923 -2.633137 0.799573
v -0.002015 -2.316213 1.580079
v 0.269894 -2.257270 1.537255
v 0.269894 -1.495242 0.983610
v -0.002015 -1.436299 0.940786
v -0.273923 -1.495242 0.983610
v -0.273923 -2.257270 1.537255
v -0.002015 -1.714666 2.181627
v 0.269894 -1.671841 2.122684
v 0.269894 -1.118196 1.360657
v -0.002015 -1.075371 1.301714
v -0.273923 -1.118196 1.360657
v -0.273923 -1.671841 2.122684
v -0.002015 -0.956672 2.567845
v 0.269894 -0.934158 2.498553
v 0.269894 -0.643089 1.602736
v -0.002015 -0.620575 1.533445
v -0.273923 -0.643089 1.602736
v -0.273923 -0.934158 2.498553
vn 0.2558 0.1512 0.9548
vn 0.2558 -0.1512 -0.9548
vn -0.2558 -0.1512 -0.9548
vn -0.2558 0.1512 0.9548
vn 0.2558 0.4389 0.8614
vn 0.2558 -0.4389 -0.8614
vn -0.2558 -0.4389 -0.8614
vn -0.2558 0.4389 0.8614
vn 0.2558 0.6836 0.6836
vn 0.2558 -0.6836 -0.6836
vn -0.2558 -0.6836 -0.6836
vn -0.2558 0.6836 0.6836
vn 0.2558 0.8614 0.4389
vn 0.2558 -0.8614 -0.4389
vn -0.2558 -0.8614 -0.4389
vn -0.2558 0.8614 0.4389
vn 0.2558 0.9548 0.1512
vn 0.2558 -0.9548 -0.1512
vn -0.2558 -0.9548 -0.1512
vn -0.2558 0.9548 0.1512
vn 0.2558 0.9548 -0.1512
vn 0.2558 -0.9548 0.1512
vn -0.2558 -0.9548 0.1512
vn -0.2558 0.9548 -0.1512
vn 0.2558 0.8614 -0.4389
vn 0.2558 -0.8614 0.4389
vn -0.2558 -0.8614 0.4389
vn -0.2558 0.8614 -0.4389
vn 0.2558 0.6836 -0.6836
vn 0.2558 -0.6836 0.6836
vn -0.2558 -0.6836 0.6836
vn -0.2558 0.6836 -0.6836
vn 0.2558 0.4389 -0.8614
vn 0.2558 -0.4389 0.8614
vn -0.2558 -0.4389 0.8614
vn -0.2558 0.4389 -0.8614
vn 0.2558 0.1512 -0.9548
vn 0.2558 -0.1512 0.9548
vn -0.2558 -0.1512 0.9548
vn -0.2558 0.1512 -0.9548
vt 0.550000 0.500000
vt 0.600000 0.500000
vt 0.600000 0.583333
vt 0.550000 0.583333
vt 0.550000 0.916667
vt 0.600000 0.916667
vt 0.600000 1.000000
vt 0.550000 1.000000
vt 0.550000 0.000000
vt 0.600000 0.000000
vt 0.600000 0.083333
vt 0.550000 0.083333
vt 0.550000 0.416667
vt 0.600000 0.416667
vt 0.650000 0.500000
vt 0.650000 0.583333
vt 0.650000 0.916667
vt 0.650000 1.000000
vt 0.650000 0.000000
vt 0.650000 0.083333
vt 0.650000 0.416667
vt 0.700000 0.500000
vt 0.700000 0.583333
vt 0.700000 0.916667
vt 0.700000 1.000000
vt 0.700000 0.000000
vt 0.700000 0.083333
vt 0.700000 0.416667
vt 0.750000 0.500000
vt 0.750000 0.583333
vt 0.750000 0.916667
vt 0.750000 1.000000
vt 0.750000 0.000000
vt 0.750000 0.083333
vt 0.750000 0.416667
vt 0.800000 0.500000
vt 0.800000 0.583333
vt 0.800000 0.916667
vt 0.800000 1.000000
vt 0.800000 0.000000
vt 0.800000 0.083333
vt 0.800000 0.416667
vt 0.850000 0.500000
vt 0.850000 0.583333
vt 0.850000 0.916667
vt 0.850000 1.000000
vt 0.850000 0.000000
vt 0.850000 0.083333
vt 0.850000 0.416667
vt 0.900000 0.500000
vt 0.900000 0.583333
vt 0.900000 0.916667
vt 0.900000 1.000000
vt 0.900000 0.000000
vt 0.900000 0.083333
vt 0.900000 0.416667
vt 0.950000 0.500000
vt 0.950000 0.583333
vt 0.950000 0.916667
vt 0.950000 1.000000
vt 0.950000 0.000000
vt 0.950000 0.083333
vt 0.950000 0.416667
vt 1.000000 0.500000
vt 1.000000 0.583333
vt 1.000000 0.916667
vt 1.000000 1.000000
vt 1.000000 0.000000
vt 1.000000 0.083333
vt 1.000000 0.416667
vt 0.000000 0.500000
vt 0.050000 0.500000
vt 0.050000 0.583333
vt 0.000000 0.583333
vt 0.000000 0.916667
vt 0.050000 0.916667
vt 0.050000 1.000000
vt 0.000000 1.000000
vt 0.000000 0.000000
vt 0.050000 0.000000
vt 0.050000 0.083333
vt 0.000000 0.083333
vt 0.000000 0.416667
vt 0.050000 0.416667
vt 0.100000 0.500000
vt 0.100000 0.583333
vt 0.100000 0.916667
vt 0.100000 1.000000
vt 0.100000 0.000000
vt 0.100000 0.083333
vt 0.100000 0.416667
vt 0.150000 0.500000
vt 0.150000 0.583333
vt 0.150000 0.916667
vt 0.150000 1.000000
vt 0.150000 0.000000
vt 0.150000 0.083333
vt 0.150000 0.416667
vt 0.200000 0.500000
vt 0.200000 0.583333
vt 0.200000 0.916667
vt 0.200000 1.000000
vt 0.200000 0.000000
vt 0.200000 0.083333
vt 0.200000 0.416667
vt 0.250000 0.500000
vt 0.250000 0.583333
vt 0.250000 0.916667
vt 0.250000 1.000000
vt 0.250000 0.000000
vt 0.250000 0.083333
vt 0.250000 0.416667
vt 0.300000 0.500000
vt 0.300000 0.583333
vt 0.300000 0.916667
vt 0.300000 1.000000
vt 0.300000 0.000000
vt 0.300000 0.083333
vt 0.300000 0.416667
vt 0.350000 0.500000
vt 0.350000 0.583333
vt 0.350000 0.916667
vt 0.350000 1.000000
vt 0.350000 0.000000
vt 0.350000 0.083333
vt 0.350000 0.416667
vt 0.400000 0.500000
vt 0.400000 0.583333
vt 0.400000 0.916667
vt 0.400000 1.000000
vt 0.400000 0.000000
vt 0.400000 0.083333
vt 0.400000 0.416667
vt 0.450000 0.500000
vt 0.450000 0.583333
vt 0.450000 0.916667
vt 0.450000 1.000000
vt 0.450000 0.000000
vt 0.450000 0.083333
vt 0.450000 0.416667
vt 0.500000 0.500000
vt 0.500000 0.583333
vt 0.500000 0.916667
vt 0.500000 1.000000
vt 0.500000 0.000000
vt 0.500000 0.083333
vt 0.500000 0.416667
s 0
usemtl Material.021
f 7/2/5 8/3/5 14/16/5 13/15/5
f 12/14/8 7/2/8 13/15/8 18/21/8
f 19/22/13 20/23/13 26/30/13 25/29/13
f 24/28/16 19/22/16 25/29/16 30/35/16
f 31/36/21 32/37/21 38/44/21 37/43/21
f 36/42/24 31/36/24 37/43/24 42/49/24
f 43/50/29 44/51/29 50/58/29 49/57/29
f 48/56/32 43/50/32 49/57/32 54/63/32
f 55/71/37 56/74/37 62/73/37 61/72/37
f 60/83/40 55/71/40 61/72/40 66/84/40
f 67/85/6 68/86/6 74/93/6 73/92/6
f 72/91/7 67/85/7 73/92/7 78/98/7
f 79/99/14 80/100/14 86/107/14 85/106/14
f 84/105/15 79/99/15 85/106/15 90/112/15
f 91/113/22 92/114/22 98/121/22 97/120/22
f 96/119/23 91/113/23 97/120/23 102/126/23
f 103/127/30 104/128/30 110/135/30 109/134/30
f 108/133/31 103/127/31 109/134/31 114/140/31
f 115/141/38 116/142/38 2/4/38 1/1/38
f 120/147/39 115/141/39 1/1/39 6/13/39
usemtl Material.022
f 1/1/1 2/4/1 8/3/1 7/2/1
f 3/5/2 4/8/2 10/7/2 9/6/2
f 4/9/3 5/12/3 11/11/3 10/10/3
f 6/13/4 1/1/4 7/2/4 12/14/4
f 9/6/6 10/7/6 16/18/6 15/17/6
f 10/10/7 11/11/7 17/20/7 16/19/7
f 13/15/9 14/16/9 20/23/9 19/22/9
f 15/17/10 16/18/10 22/25/10 21/24/10
f 16/19/11 17/20/11 23/27/11 22/26/11
f 18/21/12 13/15/12 19/22/12 24/28/12
f 21/24/14 22/25/14 28/32/14 27/31/14
f 22/26/15 23/27/15 29/34/15 28/33/15
f 25/29/17 26/30/17 32/37/17 31/36/17
f 27/31/18 28/32/18 34/39/18 33/38/18
f 28/33/19 29/34/19 35/41/19 34/40/19
f 30/35/20 25/29/20 31/36/20 36/42/20
f 33/38/22 34/39/22 40/46/22 39/45/22
f 34/40/23 35/41/23 41/48/23 40/47/23
f 37/43/25 38/44/25 44/51/25 43/50/25
f 39/45/26 40/46/26 46/53/26 45/52/26
f 40/47/27 41/48/27 47/55/27 46/54/27
f 42/49/28 37/43/28 43/50/28 48/56/28
f 45/52/30 46/53/30 52/60/30 51/59/30
f 46/54/31 47/55/31 53/62/31 52/61/31
f 49/57/33 50/58/33 56/65/33 55/64/33
f 51/59/34 52/60/34 58/67/34 57/66/34
f 52/61/35 53/62/35 59/69/35 58/68/35
f 54/63/36 49/57/36 55/64/36 60/70/36
f 57/75/38 58/78/38 64/77/38 63/76/38
f 58/79/39 59/82/39 65/81/39 64/80/39
f 61/72/2 62/73/2 68/86/2 67/85/2
f 63/76/1 64/77/1 70/88/1 69/87/1
f 64/80/4 65/81/4 71/90/4 70/89/4
f 66/84/3 61/72/3 67/85/3 72/91/3
f 69/87/5 70/88/5 76/95/5 75/94/5
f 70/89/8 71/90/8 77/97/8 76/96/8
f 73/92/10 74/93/10 80/100/10 79/99/10
f 75/94/9 76/95/9 82/102/9 81/101/9
f 76/96/12 77/97/12 83/104/12 82/103/12
f 78/98/11 73/92/11 79/99/11 84/105/11
f 81/101/13 82/102/13 88/109/13 87/108/13
f 82/103/16 83/104/16 89/111/16 88/110/16
f 85/106/18 86/107/18 92/114/18 91/113/18
f 87/108/17 88/109/17 94/116/17 93/115/17
f 88/110/20 89/111/20 95/118/20 94/117/20
f 90/112/19 85/106/19 91/113/19 96/119/19
f 93/115/21 94/116/21 100/123/21 99/122/21
f 94/117/24 95/118/24 101/125/24 100/124/24
f 97/120/26 98/121/26 104/128/26 103/127/26
f 99/122/25 100/123/25 106/130/25 105/129/25
f 100/124/28 101/125/28 107/132/28 106/131/28
f 102/126/27 97/120/27 103/127/27 108/133/27
f 105/129/29 106/130/29 112/137/29 111/136/29
f 106/131/32 107/132/32 113/139/32 112/138/32
f 109/134/34 110/135/34 116/142/34 115/141/34
f 111/136/33 112/137/33 118/144/33 117/143/33
f 112/138/36 113/139/36 119/146/36 118/145/36
f 114/140/35 109/134/35 115/141/35 120/147/35
f 117/143/37 118/144/37 4/8/37 3/5/37
f 118/145/40 119/146/40 5/12/40 4/9/40
