# Blender 4.5.3 LTS
# www.blender.org
mtllib Dividid.mtl
o Cylinder.074
v -0.079080 -0.185998 -0.340033
v 0.088478 -0.192404 -0.340033
v -0.079801 -0.204872 -0.331273
v 0.087757 -0.211279 -0.331273
v -0.080100 -0.212690 -0.310123
v 0.087458 -0.219096 -0.310123
v -0.079801 -0.204872 -0.288973
v 0.087757 -0.211279 -0.288973
v -0.079080 -0.185998 -0.280212
v 0.088478 -0.192404 -0.280212
v -0.078358 -0.167124 -0.288973
v 0.089200 -0.173530 -0.288973
v -0.078059 -0.159306 -0.310123
v 0.089499 -0.165712 -0.310123
v -0.078358 -0.167124 -0.331273
v 0.089200 -0.173530 -0.331273
v 0.055329 0.217143 -0.293019
v 0.055329 0.217143 -0.061421
v 0.081304 0.217112 -0.293019
v 0.081304 0.217112 -0.061421
v 0.055359 0.241459 -0.293019
v 0.055359 0.241459 -0.061421
v 0.081334 0.241427 -0.293019
v 0.081334 0.241427 -0.061421
v -0.080035 0.232242 -0.340033
v 0.087523 0.225836 -0.340033
v -0.080757 0.213368 -0.331273
v 0.086801 0.206962 -0.331273
v -0.081056 0.205550 -0.310123
v 0.086502 0.199144 -0.310123
v -0.080757 0.213368 -0.288973
v 0.086801 0.206962 -0.288973
v -0.080035 0.232242 -0.280212
v 0.087523 0.225836 -0.280212
v -0.079313 0.251116 -0.288973
v 0.088245 0.244710 -0.288973
v -0.079015 0.258934 -0.310123
v 0.088543 0.252528 -0.310123
v -0.079313 0.251116 -0.331273
v 0.088245 0.244710 -0.331273
v -0.083640 0.217749 -0.293019
v -0.083640 0.217749 -0.061421
v -0.057665 0.217718 -0.293019
v -0.057665 0.217718 -0.061421
v -0.083610 0.242065 -0.293019
v -0.083610 0.242065 -0.061421
v -0.057635 0.242033 -0.293019
v -0.057635 0.242033 -0.061421
v -0.095505 -0.092114 0.265498
v -0.093766 -0.090937 0.283095
v -0.088618 -0.089809 0.300015
v -0.080260 -0.088775 0.315609
v -0.069013 -0.087873 0.329278
v -0.055308 -0.087138 0.340495
v -0.039673 -0.086598 0.348830
v -0.022708 -0.086275 0.353963
v -0.005065 -0.086181 0.355696
v 0.012577 -0.086318 0.353963
v 0.029541 -0.086683 0.348830
v 0.045175 -0.087261 0.340495
v 0.058878 -0.088029 0.329278
v 0.070124 -0.088958 0.315609
v 0.078479 -0.090013 0.300015
v 0.083624 -0.091153 0.283095
v 0.085360 -0.092335 0.265498
v 0.083621 -0.093511 0.247902
v 0.078473 -0.094639 0.230981
v 0.070115 -0.095673 0.215388
v 0.058868 -0.096576 0.201719
v 0.045163 -0.097310 0.190502
v 0.029528 -0.097850 0.182167
v 0.012563 -0.098173 0.177034
v -0.005080 -0.098267 0.175301
v -0.022722 -0.098130 0.177034
v -0.039686 -0.097765 0.182167
v -0.055320 -0.097188 0.190502
v -0.069023 -0.096419 0.201719
v -0.080268 -0.095490 0.215388
v -0.088624 -0.094435 0.230981
v -0.093769 -0.093295 0.247902
v -0.095204 0.153839 0.267442
v -0.093465 0.155015 0.285038
v -0.088318 0.156143 0.301959
v -0.079960 0.157177 0.317552
v -0.068712 0.158080 0.331221
v -0.055007 0.158814 0.342438
v -0.039372 0.159354 0.350773
v -0.022407 0.159677 0.355906
v -0.004765 0.159772 0.357639
v 0.012878 0.159634 0.355906
v 0.029842 0.159269 0.350773
v 0.045476 0.158692 0.342438
v 0.059179 0.157923 0.331221
v 0.070424 0.156994 0.317552
v 0.078780 0.155939 0.301959
v 0.083924 0.154799 0.285038
v 0.085660 0.153618 0.267442
v 0.083921 0.152441 0.249845
v 0.078774 0.151313 0.232924
v 0.070416 0.150279 0.217331
v 0.059168 0.149377 0.203662
v 0.045463 0.148642 0.192445
v 0.029828 0.148102 0.184110
v 0.012863 0.147779 0.178977
v -0.004779 0.147685 0.177244
v -0.022422 0.147822 0.178977
v -0.039386 0.148187 0.184110
v -0.055020 0.148765 0.192445
v -0.068723 0.149533 0.203662
v -0.079968 0.150462 0.217331
v -0.088323 0.151517 0.232924
v -0.093468 0.152657 0.249845
v -0.033213 0.234628 0.268080
v -0.032664 0.234999 0.273634
v -0.031039 0.235355 0.278973
v -0.028401 0.235682 0.283895
v -0.024852 0.235966 0.288208
v -0.020527 0.236198 0.291748
v -0.015593 0.236368 0.294379
v -0.010239 0.236470 0.295998
v -0.004671 0.236500 0.296545
v 0.000897 0.236457 0.295998
v 0.006250 0.236342 0.294379
v 0.011184 0.236159 0.291748
v 0.015509 0.235917 0.288208
v 0.019058 0.235624 0.283895
v 0.021695 0.235291 0.278973
v 0.023318 0.234931 0.273634
v 0.023866 0.234558 0.268080
v 0.023317 0.234187 0.262527
v 0.021693 0.233831 0.257187
v 0.019055 0.233504 0.252266
v 0.015505 0.233220 0.247952
v 0.011180 0.232988 0.244412
v 0.006246 0.232818 0.241782
v 0.000892 0.232716 0.240162
v -0.004676 0.232686 0.239615
v -0.010243 0.232729 0.240162
v -0.015597 0.232844 0.241782
v -0.020531 0.233027 0.244412
v -0.024855 0.233269 0.247952
v -0.028404 0.233562 0.252266
v -0.031041 0.233895 0.257187
v -0.032665 0.234255 0.262527
v 0.056278 -0.198103 -0.293019
v 0.056278 -0.198103 -0.061421
v 0.082253 -0.198135 -0.293019
v 0.082253 -0.198135 -0.061421
v 0.056307 -0.173787 -0.293019
v 0.056307 -0.173787 -0.061421
v 0.082282 -0.173819 -0.293019
v 0.082282 -0.173819 -0.061421
v -0.082693 -0.197498 -0.293019
v -0.082693 -0.197498 -0.061420
v -0.056718 -0.197530 -0.293019
v -0.056718 -0.197530 -0.061420
v -0.082663 -0.173183 -0.293019
v -0.082663 -0.173183 -0.061420
v -0.056688 -0.173214 -0.293019
v -0.056688 -0.173214 -0.061420
v 0.118806 -0.342016 -0.083214
v 0.118806 -0.342016 0.088106
v -0.126654 -0.341716 -0.083214
v -0.126654 -0.341716 0.088106
v 0.119722 0.407747 -0.083214
v 0.119722 0.407747 0.088106
v -0.125738 0.408047 -0.083214
v -0.125738 0.408047 0.088106
v 0.015977 -0.184732 0.050695
v 0.035228 -0.283677 0.234184
v -0.030242 -0.184675 0.050695
v -0.049735 -0.283573 0.234184
v 0.016011 -0.156624 0.050695
v 0.035315 -0.212401 0.234184
v -0.030208 -0.156568 0.050695
v -0.049648 -0.212297 0.234184
v 0.035627 0.042985 0.293850
v -0.049336 0.043089 0.293850
v -0.036200 0.221629 0.267237
v -0.035587 0.221549 0.273458
v -0.033772 0.221471 0.279441
v -0.030825 0.221398 0.284954
v -0.026859 0.221332 0.289787
v -0.022027 0.221275 0.293753
v -0.016513 0.221231 0.296700
v -0.010531 0.221201 0.298514
v -0.004309 0.221186 0.299127
v 0.001912 0.221186 0.298514
v 0.007895 0.221202 0.296700
v 0.013408 0.221232 0.293753
v 0.018241 0.221277 0.289787
v 0.022207 0.221333 0.284954
v 0.025154 0.221399 0.279441
v 0.026969 0.221473 0.273458
v 0.027582 0.221551 0.267237
v 0.026969 0.221631 0.261015
v 0.025155 0.221709 0.255033
v 0.022208 0.221782 0.249519
v 0.018242 0.221848 0.244687
v 0.013409 0.221905 0.240721
v 0.007896 0.221949 0.237774
v 0.001913 0.221979 0.235959
v -0.004308 0.221994 0.235346
v -0.010530 0.221994 0.235959
v -0.016513 0.221978 0.237774
v -0.022026 0.221948 0.240721
v -0.026859 0.221903 0.244687
v -0.030825 0.221847 0.249519
v -0.033772 0.221781 0.255033
v -0.035587 0.221707 0.261015
v -0.065470 0.409317 0.009532
v -0.045786 0.409293 0.057059
v 0.001737 0.409235 0.076745
v 0.049259 0.409177 0.057059
v 0.068943 0.409153 0.009532
v 0.049259 0.409177 -0.037994
v 0.001737 0.409235 -0.057680
v -0.045786 0.409293 -0.037994
v -0.045725 0.459215 0.057059
v -0.065409 0.459239 0.009532
v 0.001798 0.459157 0.076745
v 0.049320 0.459099 0.057059
v 0.069004 0.459074 0.009532
v 0.049320 0.459098 -0.037994
v 0.001798 0.459157 -0.057680
v -0.045725 0.459215 -0.037994
v -0.045765 0.426144 0.057059
v -0.065449 0.426168 0.009532
v 0.001757 0.426086 0.076745
v 0.049279 0.426028 0.057059
v 0.068964 0.426004 0.009532
v 0.049279 0.426028 -0.037994
v 0.001757 0.426086 -0.057680
v -0.045765 0.426144 -0.037994
vn -0.0161 -0.4205 -0.9072
vn -0.0358 -0.9372 -0.3469
vn -0.0358 -0.9372 0.3469
vn -0.0161 -0.4205 0.9072
vn 0.0161 0.4205 0.9072
vn 0.0358 0.9372 0.3469
vn 0.9993 -0.0382 -0.0000
vn 0.0358 0.9372 -0.3469
vn 0.0161 0.4205 -0.9072
vn -0.9993 0.0382 -0.0000
vn 0.0012 1.0000 -0.0000
vn -1.0000 0.0012 -0.0000
vn -0.0012 -1.0000 -0.0000
vn 1.0000 -0.0012 -0.0000
vn -0.0000 -0.0000 1.0000
vn -0.0000 -0.0000 -1.0000
vn -0.7720 -0.0041 0.6356
vn 0.2894 0.0072 -0.9572
vn -0.6332 -0.0053 0.7740
vn 0.0977 0.0077 -0.9952
vn -0.4702 -0.0064 0.8825
vn -0.0977 0.0080 -0.9952
vn -0.2895 -0.0072 0.9572
vn -0.2894 0.0079 -0.9572
vn -0.0977 -0.0077 0.9952
vn -0.4702 0.0075 -0.8825
vn 0.0977 -0.0080 0.9952
vn -0.6332 0.0069 -0.7740
vn 0.2894 -0.0079 0.9572
vn -0.7720 0.0060 -0.6356
vn 0.4702 -0.0075 0.8825
vn -0.8813 0.0048 -0.4725
vn 0.9952 -0.0004 -0.0983
vn 0.6332 -0.0069 0.7740
vn -0.9567 0.0035 -0.2911
vn 0.9567 0.0011 -0.2911
vn 0.7720 -0.0060 0.6356
vn -0.9952 0.0020 -0.0983
vn 0.8813 0.0027 -0.4725
vn 0.8813 -0.0048 0.4725
vn -0.9952 0.0004 0.0983
vn 0.7720 0.0041 -0.6356
vn 0.9567 -0.0035 0.2911
vn -0.9567 -0.0011 0.2911
vn 0.6332 0.0053 -0.7740
vn 0.9952 -0.0020 0.0983
vn -0.8813 -0.0027 0.4725
vn 0.4702 0.0064 -0.8825
vn 0.0012 0.9978 -0.0669
vn -0.5190 -0.6169 -0.5917
vn 0.2220 -0.5908 0.7757
vn -0.6291 -0.6147 -0.4758
vn 0.3620 -0.5922 0.7199
vn -0.7135 -0.6121 -0.3409
vn 0.7929 -0.6081 -0.0377
vn 0.4894 -0.5941 0.6385
vn -0.7692 -0.6092 -0.1928
vn 0.7677 -0.6111 -0.1928
vn 0.5995 -0.5964 0.5338
vn -0.7944 -0.6062 -0.0377
vn 0.7120 -0.6138 -0.3409
vn 0.6882 -0.5991 0.4093
vn -0.7888 -0.6032 0.1183
vn 0.6276 -0.6162 -0.4758
vn 0.7518 -0.6020 0.2691
vn -0.7532 -0.6002 0.2691
vn 0.5175 -0.6182 -0.5917
vn 0.7873 -0.6051 0.1183
vn -0.6896 -0.5974 0.4093
vn 0.3858 -0.6196 -0.6835
vn -0.6009 -0.5949 0.5338
vn 0.2379 -0.6206 -0.7472
vn -0.4908 -0.5929 0.6385
vn 0.0799 -0.6210 -0.7798
vn -0.3634 -0.5913 0.7199
vn -0.0814 -0.6208 -0.7798
vn -0.2234 -0.5903 0.7757
vn -0.2394 -0.6200 -0.7472
vn -0.0758 -0.5898 0.8040
vn -0.3873 -0.6187 -0.6835
vn 0.0744 -0.5900 0.8040
vn -0.0011 -0.8802 -0.4745
vn -0.9945 0.0012 -0.1050
vn 0.0012 0.9568 0.2907
vn 0.9945 -0.0012 -0.1050
vn 0.0003 0.2275 -0.9738
vn -0.0002 -0.1797 0.9837
vn 0.0012 0.9999 0.0127
vn -0.9239 0.0011 0.3827
vn -0.9239 0.0011 -0.3827
vn 0.3827 -0.0005 -0.9239
vn 0.9239 -0.0011 0.3827
vn -0.3827 0.0005 0.9239
vn -0.3827 0.0005 -0.9239
vn 0.9239 -0.0011 -0.3827
vn 0.3827 -0.0005 0.9239
vn 0.2895 0.0072 -0.9572
vn 0.0012 0.9978 -0.0668
vn 0.4893 -0.5941 0.6385
vn 0.5174 -0.6182 -0.5917
vn -0.6010 -0.5949 0.5338
vn 0.0012 0.9999 0.0126
vn 0.0013 0.9999 0.0127
vn 0.0012 0.9999 0.0128
vt 1.000000 1.000000
vt 0.875000 0.500000
vt 1.000000 0.500000
vt 0.875000 1.000000
vt 0.750000 0.500000
vt 0.750000 1.000000
vt 0.625000 0.500000
vt 0.625000 1.000000
vt 0.500000 0.500000
vt 0.500000 1.000000
vt 0.375000 0.500000
vt 0.375000 1.000000
vt 0.250000 0.500000
vt 0.010000 0.250000
vt 0.250000 0.010000
vt 0.490000 0.250000
vt 0.250000 1.000000
vt 0.125000 0.500000
vt 0.125000 1.000000
vt 0.000000 0.500000
vt 0.919706 0.080294
vt 0.580294 0.080294
vt 0.580294 0.419706
vt 0.625000 0.000000
vt 0.375000 0.250000
vt 0.375000 0.000000
vt 0.625000 0.250000
vt 0.375000 0.750000
vt 0.625000 0.750000
vt 0.125000 0.750000
vt 0.000000 0.000000
vt 0.875000 0.750000
vt 0.419706 0.419706
vt 0.250000 0.490000
vt 0.080294 0.419706
vt 0.080294 0.080294
vt 0.419706 0.080294
vt 0.000000 1.000000
vt 0.750000 0.490000
vt 0.919706 0.419706
vt 0.990000 0.250000
vt 0.750000 0.010000
vt 0.510000 0.250000
s 0
usemtl ruedaRoja.001
f 2/1/1 3/2/1 1/3/1
f 4/4/2 5/5/2 3/2/2
f 6/6/3 7/7/3 5/5/3
f 8/8/4 9/9/4 7/7/4
f 10/10/5 11/11/5 9/9/5
f 12/12/6 13/13/6 11/11/6
f 14/14/7 10/15/7 6/16/7
f 14/17/8 15/18/8 13/13/8
f 16/19/9 1/20/9 15/18/9
f 7/21/10 11/22/10 15/23/10
f 18/24/11 19/25/11 17/26/11
f 20/27/12 23/11/12 19/25/12
f 24/7/13 21/28/13 23/11/13
f 22/29/14 17/12/14 21/28/14
f 19/18/15 21/28/15 17/30/15
f 20/2/16 22/29/16 24/7/16
f 25/3/1 28/4/1 27/2/1
f 28/4/2 29/5/2 27/2/2
f 30/6/3 31/7/3 29/5/3
f 32/8/4 33/9/4 31/7/4
f 34/10/5 35/11/5 33/9/5
f 36/12/6 37/13/6 35/11/6
f 38/14/7 34/15/7 30/16/7
f 38/17/8 39/18/8 37/13/8
f 40/19/9 25/20/9 39/18/9
f 31/21/10 35/22/10 39/23/10
f 42/24/11 43/25/11 41/26/11
f 44/27/12 47/11/12 43/25/12
f 48/7/13 45/28/13 47/11/13
f 46/29/14 41/12/14 45/28/14
f 43/18/15 45/28/15 41/30/15
f 44/2/16 46/29/16 48/7/16
f 146/24/11 147/25/11 145/26/11
f 147/25/12 152/7/12 151/11/12
f 152/7/13 149/28/13 151/11/13
f 150/29/14 145/12/14 149/28/14
f 147/18/15 149/28/15 145/30/15
f 148/2/16 150/29/16 152/7/16
f 154/24/11 155/25/11 153/26/11
f 156/27/12 159/11/12 155/25/12
f 160/7/13 157/28/13 159/11/13
f 158/29/14 153/12/14 157/28/14
f 155/18/15 157/28/15 153/30/15
f 156/2/16 158/29/16 160/7/16
f 2/1/1 4/4/1 3/2/1
f 4/4/2 6/6/2 5/5/2
f 6/6/3 8/8/3 7/7/3
f 8/8/4 10/10/4 9/9/4
f 10/10/5 12/12/5 11/11/5
f 12/12/6 14/17/6 13/13/6
f 6/16/7 4/33/7 2/34/7
f 2/34/7 16/35/7 14/14/7
f 14/14/7 12/36/7 10/15/7
f 10/15/7 8/37/7 6/16/7
f 6/16/7 2/34/7 14/14/7
f 14/17/8 16/19/8 15/18/8
f 16/19/9 2/38/9 1/20/9
f 15/23/10 1/39/10 3/40/10
f 3/40/10 5/41/10 7/21/10
f 7/21/10 9/42/10 11/22/10
f 11/22/10 13/43/10 15/23/10
f 15/23/10 3/40/10 7/21/10
f 18/24/11 20/27/11 19/25/11
f 20/27/12 24/7/12 23/11/12
f 24/7/13 22/29/13 21/28/13
f 22/29/14 18/8/14 17/12/14
f 19/18/15 23/11/15 21/28/15
f 20/2/16 18/32/16 22/29/16
f 25/3/1 26/1/1 28/4/1
f 28/4/2 30/6/2 29/5/2
f 30/6/3 32/8/3 31/7/3
f 32/8/4 34/10/4 33/9/4
f 34/10/5 36/12/5 35/11/5
f 36/12/6 38/17/6 37/13/6
f 30/16/7 28/33/7 26/34/7
f 26/34/7 40/35/7 38/14/7
f 38/14/7 36/36/7 34/15/7
f 34/15/7 32/37/7 30/16/7
f 30/16/7 26/34/7 38/14/7
f 38/17/8 40/19/8 39/18/8
f 40/19/9 26/38/9 25/20/9
f 39/23/10 25/39/10 27/40/10
f 27/40/10 29/41/10 31/21/10
f 31/21/10 33/42/10 35/22/10
f 35/22/10 37/43/10 39/23/10
f 39/23/10 27/40/10 31/21/10
f 42/24/11 44/27/11 43/25/11
f 44/27/12 48/7/12 47/11/12
f 48/7/13 46/29/13 45/28/13
f 46/29/14 42/8/14 41/12/14
f 43/18/15 47/11/15 45/28/15
f 44/2/16 42/32/16 46/29/16
f 146/24/11 148/27/11 147/25/11
f 147/25/12 148/27/12 152/7/12
f 152/7/13 150/29/13 149/28/13
f 150/29/14 146/8/14 145/12/14
f 147/18/15 151/11/15 149/28/15
f 148/2/16 146/32/16 150/29/16
f 154/24/11 156/27/11 155/25/11
f 156/27/12 160/7/12 159/11/12
f 160/7/13 158/29/13 157/28/13
f 158/29/14 154/8/14 153/12/14
f 155/18/15 159/11/15 157/28/15
f 156/2/16 154/32/16 158/29/16
usemtl Material
f 68/31/17 101/31/17 69/31/17
f 56/31/18 87/31/18 88/31/18
f 69/31/19 102/31/19 70/31/19
f 57/31/20 88/31/20 89/31/20
f 70/31/21 103/31/21 71/31/21
f 58/31/22 89/31/22 90/31/22
f 71/31/23 104/31/23 72/31/23
f 59/31/24 90/31/24 91/31/24
f 72/31/25 105/31/25 73/31/25
f 59/31/26 92/31/26 60/31/26
f 73/31/27 106/31/27 74/31/27
f 60/31/28 93/31/28 61/31/28
f 74/31/29 107/31/29 75/31/29
f 61/31/30 94/31/30 62/31/30
f 76/31/31 107/31/31 108/31/31
f 62/31/32 95/31/32 63/31/32
f 50/31/33 81/31/33 82/31/33
f 77/31/34 108/31/34 109/31/34
f 63/31/35 96/31/35 64/31/35
f 51/31/36 82/31/36 83/31/36
f 78/31/37 109/31/37 110/31/37
f 64/31/38 97/31/38 65/31/38
f 52/31/39 83/31/39 84/31/39
f 79/31/40 110/31/40 111/31/40
f 65/31/41 98/31/41 66/31/41
f 53/31/42 84/31/42 85/31/42
f 80/31/43 111/31/43 112/31/43
f 66/31/44 99/31/44 67/31/44
f 54/31/45 85/31/45 86/31/45
f 49/31/46 112/31/46 81/31/46
f 67/31/47 100/31/47 68/31/47
f 55/31/48 86/31/48 87/31/48
f 65/31/49 73/31/49 49/31/49
f 93/31/50 124/31/50 125/31/50
f 107/31/51 138/31/51 139/31/51
f 94/31/52 125/31/52 126/31/52
f 108/31/53 139/31/53 140/31/53
f 95/31/54 126/31/54 127/31/54
f 82/31/55 113/31/55 114/31/55
f 109/31/56 140/31/56 141/31/56
f 96/31/57 127/31/57 128/31/57
f 82/31/58 115/31/58 83/31/58
f 110/31/59 141/31/59 142/31/59
f 96/31/60 129/31/60 97/31/60
f 83/31/61 116/31/61 84/31/61
f 111/31/62 142/31/62 143/31/62
f 97/31/63 130/31/63 98/31/63
f 84/31/64 117/31/64 85/31/64
f 112/31/65 143/31/65 144/31/65
f 98/31/66 131/31/66 99/31/66
f 85/31/67 118/31/67 86/31/67
f 81/31/68 144/31/68 113/31/68
f 99/31/69 132/31/69 100/31/69
f 86/31/70 119/31/70 87/31/70
f 100/31/71 133/31/71 101/31/71
f 87/31/72 120/31/72 88/31/72
f 101/31/73 134/31/73 102/31/73
f 88/31/74 121/31/74 89/31/74
f 102/31/75 135/31/75 103/31/75
f 90/31/76 121/31/76 122/31/76
f 103/31/77 136/31/77 104/31/77
f 91/31/78 122/31/78 123/31/78
f 104/31/79 137/31/79 105/31/79
f 92/31/80 123/31/80 124/31/80
f 106/31/81 137/31/81 138/31/81
f 170/24/82 171/25/82 169/26/82
f 171/25/83 176/7/83 175/11/83
f 175/11/84 174/29/84 173/28/84
f 174/29/85 169/12/85 173/28/85
f 175/11/16 169/30/16 171/18/16
f 176/7/12 172/27/12 178/7/12
f 174/29/86 178/7/86 177/29/86
f 170/8/14 174/29/14 177/29/14
f 170/24/87 178/7/87 172/27/87
f 215/31/89 232/31/89 216/31/89
f 218/31/90 220/31/90 226/31/90
f 216/31/91 225/31/91 224/31/91
f 215/31/92 222/31/92 214/31/92
f 213/31/93 219/31/93 212/31/93
f 217/31/94 226/31/94 225/31/94
f 215/31/95 224/31/95 223/31/95
f 214/31/96 221/31/96 213/31/96
f 212/31/89 220/31/89 211/31/89
f 214/31/94 229/31/94 230/31/94
f 212/31/95 228/31/95 227/31/95
f 218/31/92 228/31/92 211/31/92
f 216/31/93 233/31/93 217/31/93
f 215/31/90 230/31/90 231/31/90
f 213/31/91 227/31/91 229/31/91
f 217/31/96 234/31/96 218/31/96
f 68/31/17 100/31/17 101/31/17
f 56/31/97 55/31/97 87/31/97
f 69/31/19 101/31/19 102/31/19
f 57/31/20 56/31/20 88/31/20
f 70/31/21 102/31/21 103/31/21
f 58/31/22 57/31/22 89/31/22
f 71/31/23 103/31/23 104/31/23
f 59/31/24 58/31/24 90/31/24
f 72/31/25 104/31/25 105/31/25
f 59/31/26 91/31/26 92/31/26
f 73/31/27 105/31/27 106/31/27
f 60/31/28 92/31/28 93/31/28
f 74/31/29 106/31/29 107/31/29
f 61/31/30 93/31/30 94/31/30
f 76/31/31 75/31/31 107/31/31
f 62/31/32 94/31/32 95/31/32
f 50/31/33 49/31/33 81/31/33
f 77/31/34 76/31/34 108/31/34
f 63/31/35 95/31/35 96/31/35
f 51/31/36 50/31/36 82/31/36
f 78/31/37 77/31/37 109/31/37
f 64/31/38 96/31/38 97/31/38
f 52/31/39 51/31/39 83/31/39
f 79/31/40 78/31/40 110/31/40
f 65/31/41 97/31/41 98/31/41
f 53/31/42 52/31/42 84/31/42
f 80/31/43 79/31/43 111/31/43
f 66/31/44 98/31/44 99/31/44
f 54/31/45 53/31/45 85/31/45
f 49/31/46 80/31/46 112/31/46
f 67/31/47 99/31/47 100/31/47
f 55/31/48 54/31/48 86/31/48
f 49/31/49 50/31/49 51/31/49
f 51/31/49 52/31/49 53/31/49
f 53/31/98 54/31/98 55/31/98
f 55/31/49 56/31/49 57/31/49
f 57/31/49 58/31/49 59/31/49
f 59/31/49 60/31/49 61/31/49
f 61/31/49 62/31/49 63/31/49
f 63/31/49 64/31/49 65/31/49
f 65/31/49 66/31/49 67/31/49
f 67/31/98 68/31/98 69/31/98
f 69/31/98 70/31/98 71/31/98
f 71/31/49 72/31/49 73/31/49
f 73/31/49 74/31/49 75/31/49
f 75/31/49 76/31/49 77/31/49
f 77/31/98 78/31/98 79/31/98
f 79/31/49 80/31/49 49/31/49
f 49/31/49 51/31/49 53/31/49
f 53/31/49 55/31/49 57/31/49
f 57/31/98 59/31/98 61/31/98
f 61/31/49 63/31/49 65/31/49
f 65/31/49 67/31/49 69/31/49
f 69/31/49 71/31/49 73/31/49
f 73/31/49 75/31/49 77/31/49
f 77/31/49 79/31/49 49/31/49
f 49/31/49 53/31/49 57/31/49
f 57/31/49 61/31/49 65/31/49
f 65/31/49 69/31/49 73/31/49
f 73/31/49 77/31/49 49/31/49
f 49/31/49 57/31/49 65/31/49
f 93/31/50 92/31/50 124/31/50
f 107/31/51 106/31/51 138/31/51
f 94/31/52 93/31/52 125/31/52
f 108/31/53 107/31/53 139/31/53
f 95/31/54 94/31/54 126/31/54
f 82/31/55 81/31/55 113/31/55
f 109/31/99 108/31/99 140/31/99
f 96/31/57 95/31/57 127/31/57
f 82/31/58 114/31/58 115/31/58
f 110/31/59 109/31/59 141/31/59
f 96/31/60 128/31/60 129/31/60
f 83/31/61 115/31/61 116/31/61
f 111/31/62 110/31/62 142/31/62
f 97/31/63 129/31/63 130/31/63
f 84/31/64 116/31/64 117/31/64
f 112/31/65 111/31/65 143/31/65
f 98/31/66 130/31/66 131/31/66
f 85/31/100 117/31/100 118/31/100
f 81/31/68 112/31/68 144/31/68
f 99/31/69 131/31/69 132/31/69
f 86/31/70 118/31/70 119/31/70
f 100/31/101 132/31/101 133/31/101
f 87/31/72 119/31/72 120/31/72
f 101/31/73 133/31/73 134/31/73
f 88/31/74 120/31/74 121/31/74
f 102/31/75 134/31/75 135/31/75
f 90/31/76 89/31/76 121/31/76
f 103/31/77 135/31/77 136/31/77
f 91/31/78 90/31/78 122/31/78
f 104/31/79 136/31/79 137/31/79
f 92/31/80 91/31/80 123/31/80
f 106/31/81 105/31/81 137/31/81
f 170/24/82 172/27/82 171/25/82
f 171/25/83 172/27/83 176/7/83
f 175/11/84 176/7/84 174/29/84
f 174/29/85 170/8/85 169/12/85
f 175/11/16 173/28/16 169/30/16
f 174/29/86 176/7/86 178/7/86
f 170/24/87 177/29/87 178/7/87
f 215/31/89 231/31/89 232/31/89
f 218/31/90 211/31/90 220/31/90
f 216/31/91 217/31/91 225/31/91
f 215/31/92 223/31/92 222/31/92
f 213/31/93 221/31/93 219/31/93
f 217/31/94 218/31/94 226/31/94
f 215/31/95 216/31/95 224/31/95
f 214/31/96 222/31/96 221/31/96
f 212/31/89 219/31/89 220/31/89
f 214/31/94 213/31/94 229/31/94
f 212/31/95 211/31/95 228/31/95
f 218/31/92 234/31/92 228/31/92
f 216/31/93 232/31/93 233/31/93
f 215/31/90 214/31/90 230/31/90
f 213/31/91 212/31/91 227/31/91
f 217/31/96 233/31/96 234/31/96
usemtl top
f 162/24/13 163/25/13 161/26/13
f 164/27/12 167/11/12 163/25/12
f 168/7/11 165/28/11 167/11/11
f 165/28/14 162/8/14 161/12/14
f 167/11/16 161/30/16 163/18/16
f 168/7/15 162/32/15 166/29/15
f 162/24/13 164/27/13 163/25/13
f 164/27/12 168/7/12 167/11/12
f 168/7/11 166/29/11 165/28/11
f 165/28/14 166/29/14 162/8/14
f 167/11/16 165/28/16 161/30/16
f 168/7/15 164/2/15 162/32/15
usemtl Material.011
f 195/31/88 203/31/88 179/31/88
f 179/31/88 180/31/88 181/31/88
f 181/31/88 182/31/88 183/31/88
f 183/31/88 184/31/88 185/31/88
f 185/31/102 186/31/102 187/31/102
f 187/31/88 188/31/88 189/31/88
f 189/31/102 190/31/102 191/31/102
f 191/31/88 192/31/88 193/31/88
f 193/31/103 194/31/103 195/31/103
f 195/31/88 196/31/88 197/31/88
f 197/31/88 198/31/88 199/31/88
f 199/31/88 200/31/88 201/31/88
f 201/31/102 202/31/102 203/31/102
f 203/31/88 204/31/88 205/31/88
f 205/31/104 206/31/104 207/31/104
f 207/31/88 208/31/88 209/31/88
f 209/31/88 210/31/88 179/31/88
f 179/31/88 181/31/88 183/31/88
f 183/31/88 185/31/88 187/31/88
f 187/31/88 189/31/88 191/31/88
f 191/31/88 193/31/88 195/31/88
f 195/31/88 197/31/88 199/31/88
f 199/31/88 201/31/88 203/31/88
f 203/31/88 205/31/88 207/31/88
f 207/31/88 209/31/88 179/31/88
f 179/31/88 183/31/88 187/31/88
f 187/31/88 191/31/88 195/31/88
f 195/31/88 199/31/88 203/31/88
f 203/31/88 207/31/88 179/31/88
f 179/31/88 187/31/88 195/31/88
usemtl Material.034
f 233/31/13 231/31/13 229/31/13
f 229/31/13 227/31/13 228/31/13
f 228/31/13 234/31/13 233/31/13
f 233/31/13 232/31/13 231/31/13
f 231/31/13 230/31/13 229/31/13
f 229/31/13 228/31/13 233/31/13
