# Blender 4.5.3 LTS
# www.blender.org
mtllib Divisible.mtl
o Cube.081
v -0.082748 -0.208431 -0.300638
v -0.082748 -0.208431 -0.069039
v -0.056771 -0.208469 -0.300638
v -0.056771 -0.208469 -0.069039
v -0.082712 -0.184117 -0.300638
v -0.082712 -0.184117 -0.069039
v -0.056735 -0.184155 -0.300638
v -0.056735 -0.184155 -0.069039
v -0.217506 0.221374 -0.347652
v -0.049949 0.215590 -0.347652
v -0.218315 0.202500 -0.338891
v -0.050759 0.196717 -0.338891
v -0.218651 0.194683 -0.317741
v -0.051094 0.188899 -0.317741
v -0.218315 0.202500 -0.296592
v -0.050759 0.196717 -0.296592
v -0.217506 0.221374 -0.287831
v -0.049949 0.215590 -0.287831
v -0.216696 0.240248 -0.296592
v -0.049139 0.234464 -0.296592
v -0.216360 0.248066 -0.317741
v -0.048804 0.242282 -0.317741
v -0.216696 0.240248 -0.338891
v -0.049139 0.234464 -0.338891
v -0.218119 -0.196829 -0.347652
v -0.050562 -0.202613 -0.347652
v -0.218928 -0.215703 -0.338891
v -0.051372 -0.221487 -0.338891
v -0.219264 -0.223521 -0.317741
v -0.051707 -0.229305 -0.317741
v -0.218928 -0.215703 -0.296592
v -0.051372 -0.221487 -0.296592
v -0.218119 -0.196829 -0.287831
v -0.050562 -0.202613 -0.287831
v -0.217309 -0.177955 -0.296592
v -0.049752 -0.183739 -0.296592
v -0.216973 -0.170137 -0.317741
v -0.049417 -0.175921 -0.317741
v -0.217309 -0.177955 -0.338891
v -0.049752 -0.183739 -0.338891
v 0.057784 -0.197233 -0.347652
v 0.225340 -0.203017 -0.347652
v 0.056974 -0.216107 -0.338891
v 0.224530 -0.221891 -0.338891
v 0.056638 -0.223925 -0.317741
v 0.224195 -0.229709 -0.317741
v 0.056974 -0.216107 -0.296592
v 0.224530 -0.221891 -0.296592
v 0.057784 -0.197233 -0.287831
v 0.225340 -0.203017 -0.287831
v 0.058593 -0.178359 -0.296592
v 0.226150 -0.184143 -0.296592
v 0.058929 -0.170541 -0.317741
v 0.226485 -0.176325 -0.317741
v 0.058593 -0.178359 -0.338891
v 0.226150 -0.184143 -0.338891
v 0.058396 0.220971 -0.347652
v 0.225953 0.215187 -0.347652
v 0.057586 0.202097 -0.338891
v 0.225143 0.196313 -0.338891
v 0.057251 0.194279 -0.317741
v 0.224807 0.188495 -0.317741
v 0.057586 0.202097 -0.296592
v 0.225143 0.196313 -0.296592
v 0.058396 0.220971 -0.287831
v 0.225953 0.215187 -0.287831
v 0.059206 0.239845 -0.296592
v 0.226762 0.234061 -0.296592
v 0.059542 0.247662 -0.317741
v 0.227098 0.241878 -0.317741
v 0.059206 0.239845 -0.338891
v 0.226762 0.234061 -0.338891
v 0.262640 -0.352985 -0.090833
v 0.262640 -0.352985 0.080487
v 0.017161 -0.352626 -0.090833
v 0.017161 -0.352626 0.080487
v 0.263739 0.396707 -0.090833
v 0.263739 0.396707 0.080487
v 0.018260 0.397067 -0.090833
v 0.018260 0.397067 0.080487
v -0.018489 -0.352573 -0.090833
v -0.018489 -0.352573 0.080487
v -0.263968 -0.352214 -0.090833
v -0.263968 -0.352214 0.080487
v -0.017390 0.397119 -0.090833
v -0.017390 0.397119 0.080487
v -0.262869 0.397479 -0.090833
v -0.262869 0.397479 0.080487
v 0.018148 -0.376754 -0.117033
v 0.018148 -0.376754 0.137614
v -0.017460 -0.376702 -0.117033
v -0.017460 -0.376702 0.137614
v 0.019243 0.428145 -0.117033
v 0.019243 0.428145 0.137614
v -0.016365 0.428197 -0.117033
v -0.016365 0.428197 0.137614
v -0.115324 -0.195301 0.043077
v -0.096096 -0.294242 0.226565
v -0.161546 -0.195233 0.043077
v -0.181065 -0.294117 0.226565
v -0.115283 -0.167196 0.043077
v -0.095991 -0.222972 0.226565
v -0.161505 -0.167128 0.043077
v -0.180960 -0.222848 0.226565
v -0.095617 0.032389 0.286231
v -0.180586 0.032514 0.286231
v 0.165456 -0.195712 0.043077
v 0.184685 -0.294653 0.226565
v 0.119234 -0.195644 0.043077
v 0.099716 -0.294528 0.226565
v 0.165497 -0.167607 0.043077
v 0.184789 -0.223383 0.226565
v 0.119275 -0.167539 0.043077
v 0.099820 -0.223259 0.226565
v 0.185163 0.031978 0.286231
v 0.100195 0.032103 0.286231
v -0.221120 0.206984 -0.300638
v -0.221120 0.206984 -0.069039
v -0.195142 0.206946 -0.300638
v -0.195142 0.206946 -0.069039
v -0.221084 0.231297 -0.300638
v -0.221084 0.231297 -0.069039
v -0.195107 0.231259 -0.300638
v -0.195107 0.231259 -0.069039
v -0.229075 -0.102651 0.257880
v -0.227336 -0.101601 0.275484
v -0.222188 -0.100595 0.292412
v -0.213829 -0.099674 0.308013
v -0.202580 -0.098872 0.321688
v -0.188875 -0.098221 0.332910
v -0.173238 -0.097745 0.341249
v -0.156272 -0.097462 0.346384
v -0.138628 -0.097384 0.348118
v -0.120984 -0.097514 0.346384
v -0.104019 -0.097846 0.341249
v -0.088384 -0.098368 0.332910
v -0.074680 -0.099060 0.321688
v -0.063434 -0.099894 0.308013
v -0.055078 -0.100840 0.292412
v -0.049933 -0.101861 0.275484
v -0.048197 -0.102917 0.257880
v -0.049936 -0.103967 0.240275
v -0.055084 -0.104973 0.223347
v -0.063443 -0.105894 0.207746
v -0.074691 -0.106696 0.194072
v -0.088397 -0.107347 0.182850
v -0.104034 -0.107823 0.174511
v -0.121000 -0.108106 0.169376
v -0.138644 -0.108184 0.167642
v -0.156287 -0.108054 0.169376
v -0.173253 -0.107722 0.174511
v -0.188888 -0.107200 0.182850
v -0.202592 -0.106508 0.194072
v -0.213838 -0.105674 0.207746
v -0.222194 -0.104728 0.223347
v -0.227339 -0.103707 0.240275
v -0.228715 0.143008 0.257880
v -0.226976 0.144059 0.275484
v -0.221828 0.145065 0.292412
v -0.213469 0.145986 0.308013
v -0.202220 0.146788 0.321688
v -0.188514 0.147439 0.332910
v -0.172878 0.147915 0.341249
v -0.155912 0.148197 0.346384
v -0.138268 0.148275 0.348118
v -0.120624 0.148146 0.346384
v -0.103659 0.147814 0.341249
v -0.088024 0.147292 0.332910
v -0.074320 0.146600 0.321688
v -0.063074 0.145765 0.308013
v -0.054718 0.144820 0.292412
v -0.049573 0.143799 0.275484
v -0.047837 0.142743 0.257880
v -0.049576 0.141692 0.240275
v -0.054724 0.140687 0.223347
v -0.063083 0.139766 0.207746
v -0.074331 0.138964 0.194072
v -0.088037 0.138312 0.182850
v -0.103673 0.137836 0.174511
v -0.120640 0.137554 0.169376
v -0.138284 0.137476 0.167642
v -0.155927 0.137606 0.169376
v -0.172893 0.137938 0.174511
v -0.188528 0.138460 0.182850
v -0.202231 0.139151 0.194072
v -0.213478 0.139986 0.207746
v -0.221834 0.140932 0.223347
v -0.226979 0.141952 0.240275
v -0.166699 0.223686 0.257880
v -0.166150 0.224018 0.263435
v -0.164525 0.224335 0.268778
v -0.161887 0.224626 0.273701
v -0.158337 0.224879 0.278017
v -0.154012 0.225085 0.281558
v -0.149077 0.225235 0.284190
v -0.143723 0.225324 0.285810
v -0.138155 0.225349 0.286358
v -0.132587 0.225308 0.285810
v -0.127233 0.225203 0.284190
v -0.122298 0.225038 0.281558
v -0.117974 0.224820 0.278017
v -0.114425 0.224556 0.273701
v -0.111788 0.224258 0.268778
v -0.110164 0.223936 0.263435
v -0.109616 0.223603 0.257880
v -0.110165 0.223271 0.252324
v -0.111789 0.222954 0.246982
v -0.114427 0.222663 0.242058
v -0.117977 0.222410 0.237743
v -0.122303 0.222204 0.234201
v -0.127237 0.222054 0.231570
v -0.132592 0.221965 0.229949
v -0.138160 0.221940 0.229402
v -0.143728 0.221981 0.229949
v -0.149082 0.222086 0.231570
v -0.154016 0.222251 0.234201
v -0.158341 0.222469 0.237743
v -0.161890 0.222733 0.242058
v -0.164527 0.223031 0.246982
v -0.166151 0.223353 0.252324
v -0.165237 0.211045 0.259618
v -0.164624 0.210973 0.265840
v -0.162810 0.210903 0.271822
v -0.159862 0.210836 0.277336
v -0.155896 0.210776 0.282168
v -0.151063 0.210724 0.286134
v -0.145549 0.210682 0.289081
v -0.139566 0.210653 0.290896
v -0.133344 0.210637 0.291509
v -0.127122 0.210635 0.290896
v -0.121139 0.210647 0.289081
v -0.115625 0.210672 0.286134
v -0.110792 0.210710 0.282168
v -0.106826 0.210759 0.277336
v -0.103879 0.210817 0.271822
v -0.102064 0.210882 0.265840
v -0.101451 0.210951 0.259618
v -0.102063 0.211023 0.253396
v -0.103878 0.211093 0.247414
v -0.106825 0.211160 0.241900
v -0.110792 0.211220 0.237068
v -0.115625 0.211272 0.233101
v -0.121138 0.211314 0.230154
v -0.127121 0.211343 0.228340
v -0.133343 0.211359 0.227727
v -0.139565 0.211361 0.228340
v -0.145548 0.211350 0.230154
v -0.151062 0.211324 0.233101
v -0.155895 0.211286 0.237068
v -0.159862 0.211237 0.241900
v -0.162809 0.211179 0.247414
v -0.164624 0.211114 0.253396
v 0.112886 0.210636 0.259618
v 0.113498 0.210564 0.265840
v 0.115313 0.210494 0.271822
v 0.118260 0.210427 0.277336
v 0.122227 0.210367 0.282168
v 0.127060 0.210315 0.286134
v 0.132573 0.210273 0.289081
v 0.138556 0.210244 0.290896
v 0.144778 0.210228 0.291509
v 0.151000 0.210226 0.290896
v 0.156983 0.210238 0.289081
v 0.162497 0.210263 0.286134
v 0.167330 0.210301 0.282168
v 0.171297 0.210350 0.277336
v 0.174244 0.210408 0.271822
v 0.176059 0.210473 0.265840
v 0.176672 0.210542 0.259618
v 0.176059 0.210614 0.253396
v 0.174245 0.210684 0.247414
v 0.171297 0.210751 0.241900
v 0.167331 0.210811 0.237068
v 0.162498 0.210863 0.233101
v 0.156984 0.210905 0.230154
v 0.151002 0.210934 0.228340
v 0.144780 0.210950 0.227727
v 0.138557 0.210952 0.228340
v 0.132574 0.210940 0.230154
v 0.127061 0.210915 0.233101
v 0.122227 0.210877 0.237068
v 0.118261 0.210828 0.241900
v 0.115314 0.210770 0.247414
v 0.113499 0.210705 0.253396
v 0.054264 -0.103068 0.257880
v 0.056003 -0.102017 0.275484
v 0.061151 -0.101012 0.292412
v 0.069510 -0.100091 0.308013
v 0.080758 -0.099289 0.321688
v 0.094464 -0.098638 0.332910
v 0.110101 -0.098162 0.341249
v 0.127067 -0.097879 0.346384
v 0.144711 -0.097801 0.348118
v 0.162355 -0.097931 0.346384
v 0.179320 -0.098263 0.341249
v 0.194955 -0.098785 0.332910
v 0.208659 -0.099477 0.321688
v 0.219905 -0.100311 0.308013
v 0.228261 -0.101257 0.292412
v 0.233406 -0.102278 0.275484
v 0.235142 -0.103333 0.257880
v 0.233403 -0.104384 0.240275
v 0.228255 -0.105390 0.223347
v 0.219896 -0.106311 0.207746
v 0.208647 -0.107113 0.194072
v 0.194942 -0.107764 0.182850
v 0.179305 -0.108240 0.174511
v 0.162339 -0.108523 0.169376
v 0.144695 -0.108600 0.167642
v 0.127051 -0.108471 0.169376
v 0.110086 -0.108139 0.174511
v 0.094451 -0.107617 0.182850
v 0.080747 -0.106925 0.194072
v 0.069501 -0.106091 0.207746
v 0.061145 -0.105145 0.223347
v 0.056000 -0.104124 0.240275
v 0.054624 0.142591 0.257880
v 0.056363 0.143642 0.275484
v 0.061511 0.144648 0.292412
v 0.069870 0.145569 0.308013
v 0.081118 0.146371 0.321688
v 0.094824 0.147022 0.332910
v 0.110461 0.147498 0.341249
v 0.127427 0.147781 0.346384
v 0.145071 0.147858 0.348118
v 0.162715 0.147729 0.346384
v 0.179680 0.147397 0.341249
v 0.195315 0.146875 0.332910
v 0.209019 0.146183 0.321688
v 0.220265 0.145348 0.308013
v 0.228621 0.144403 0.292412
v 0.233766 0.143382 0.275484
v 0.235502 0.142326 0.257880
v 0.233763 0.141275 0.240275
v 0.228615 0.140270 0.223347
v 0.220256 0.139349 0.207746
v 0.209008 0.138547 0.194072
v 0.195302 0.137896 0.182850
v 0.179665 0.137420 0.174511
v 0.162699 0.137137 0.169376
v 0.145055 0.137059 0.167642
v 0.127411 0.137189 0.169376
v 0.110446 0.137521 0.174511
v 0.094811 0.138043 0.182850
v 0.081107 0.138734 0.194072
v 0.069861 0.139569 0.207746
v 0.061505 0.140515 0.223347
v 0.056360 0.141535 0.240275
v 0.116640 0.223269 0.257880
v 0.117189 0.223601 0.263435
v 0.118814 0.223918 0.268778
v 0.121451 0.224209 0.273701
v 0.125001 0.224462 0.278017
v 0.129327 0.224668 0.281558
v 0.134261 0.224818 0.284190
v 0.139616 0.224907 0.285810
v 0.145184 0.224932 0.286358
v 0.150752 0.224891 0.285810
v 0.156106 0.224786 0.284190
v 0.161040 0.224621 0.281558
v 0.165365 0.224403 0.278017
v 0.168914 0.224140 0.273701
v 0.171551 0.223841 0.268778
v 0.173175 0.223519 0.263435
v 0.173723 0.223186 0.257880
v 0.173174 0.222854 0.252324
v 0.171549 0.222537 0.246982
v 0.168911 0.222246 0.242058
v 0.165361 0.221993 0.237743
v 0.161036 0.221787 0.234201
v 0.156101 0.221637 0.231570
v 0.150747 0.221548 0.229949
v 0.145179 0.221524 0.229402
v 0.139611 0.221564 0.229949
v 0.134257 0.221669 0.231570
v 0.129323 0.221834 0.234201
v 0.124998 0.222052 0.237743
v 0.121449 0.222316 0.242058
v 0.118812 0.222614 0.246982
v 0.117188 0.222936 0.252324
v 0.076941 0.398347 0.001914
v 0.096626 0.398318 0.049440
v 0.144152 0.398248 0.069126
v 0.191678 0.398179 0.049440
v 0.211364 0.398150 0.001914
v 0.191678 0.398179 -0.045613
v 0.144152 0.398248 -0.065299
v 0.096626 0.398318 -0.045613
v 0.096700 0.448235 0.049440
v 0.077014 0.448264 0.001914
v 0.144225 0.448165 0.069126
v 0.191751 0.448096 0.049440
v 0.211437 0.448067 0.001914
v 0.191751 0.448096 -0.045613
v 0.144225 0.448165 -0.065299
v 0.096700 0.448235 -0.045613
v 0.096651 0.415187 0.049440
v 0.076965 0.415216 0.001914
v 0.144177 0.415118 0.069126
v 0.191703 0.415048 0.049440
v 0.211389 0.415019 0.001914
v 0.191703 0.415048 -0.045613
v 0.144177 0.415118 -0.065299
v 0.096651 0.415187 -0.045613
v -0.201796 0.398756 0.001914
v -0.182111 0.398727 0.049440
v -0.134585 0.398657 0.069126
v -0.087059 0.398588 0.049440
v -0.067373 0.398559 0.001914
v -0.087059 0.398588 -0.045613
v -0.134585 0.398657 -0.065299
v -0.182111 0.398727 -0.045613
v -0.182037 0.448644 0.049440
v -0.201723 0.448673 0.001914
v -0.134512 0.448574 0.069126
v -0.086986 0.448505 0.049440
v -0.067300 0.448476 0.001914
v -0.086986 0.448505 -0.045613
v -0.134512 0.448574 -0.065299
v -0.182037 0.448644 -0.045613
v -0.182076 0.422069 0.049440
v -0.201762 0.422098 0.001914
v -0.134551 0.421999 0.069126
v -0.087025 0.421929 0.049440
v -0.067339 0.421901 0.001914
v -0.087025 0.421929 -0.045613
v -0.134551 0.421999 -0.065299
v -0.182076 0.422069 -0.045613
v -0.221729 -0.208228 -0.300638
v -0.221729 -0.208228 -0.069039
v -0.195752 -0.208266 -0.300638
v -0.195752 -0.208266 -0.069039
v -0.221694 -0.183914 -0.300638
v -0.221694 -0.183914 -0.069039
v -0.195717 -0.183952 -0.300638
v -0.195717 -0.183952 -0.069039
v -0.082139 0.206779 -0.300638
v -0.082139 0.206779 -0.069039
v -0.056162 0.206741 -0.300638
v -0.056162 0.206741 -0.069039
v -0.082104 0.231092 -0.300638
v -0.082104 0.231092 -0.069039
v -0.056127 0.231054 -0.300638
v -0.056127 0.231054 -0.069039
v 0.193763 0.206375 -0.300638
v 0.193763 0.206375 -0.069039
v 0.219740 0.206337 -0.300638
v 0.219740 0.206337 -0.069039
v 0.193798 0.230688 -0.300638
v 0.193798 0.230688 -0.069039
v 0.219776 0.230650 -0.300638
v 0.219776 0.230650 -0.069039
v 0.054781 0.206580 -0.300638
v 0.054781 0.206580 -0.069039
v 0.080759 0.206542 -0.300638
v 0.080759 0.206542 -0.069039
v 0.054817 0.230893 -0.300638
v 0.054817 0.230893 -0.069039
v 0.080794 0.230855 -0.300638
v 0.080794 0.230855 -0.069039
v 0.054173 -0.208631 -0.300638
v 0.054173 -0.208631 -0.069039
v 0.080150 -0.208669 -0.300638
v 0.080150 -0.208669 -0.069039
v 0.054209 -0.184318 -0.300638
v 0.054209 -0.184318 -0.069039
v 0.080186 -0.184356 -0.300638
v 0.080186 -0.184356 -0.069039
v 0.193155 -0.208835 -0.300638
v 0.193155 -0.208835 -0.069039
v 0.219132 -0.208873 -0.300638
v 0.219132 -0.208873 -0.069039
v 0.193190 -0.184521 -0.300638
v 0.193190 -0.184521 -0.069039
v 0.219167 -0.184559 -0.300638
v 0.219167 -0.184559 -0.069039
vn 0.0015 1.0000 -0.0000
vn 0.9568 -0.0014 0.2909
vn -0.0015 -1.0000 -0.0000
vn -1.0000 0.0015 -0.0000
vn 0.0810 0.6232 0.7779
vn 0.9945 -0.0015 -0.1050
vn -0.2361 0.6230 0.7457
vn -0.8815 0.0013 -0.4722
vn -0.4920 0.5932 -0.6373
vn -0.9239 0.0013 -0.3827
vn 0.4936 0.5917 -0.6373
vn -0.9945 0.0015 -0.1050
vn 0.5162 0.6187 0.5922
vn 0.6335 -0.0009 -0.7737
vn -0.6335 0.0009 -0.7737
vn 0.7939 0.6066 0.0419
vn 1.0000 -0.0014 -0.0000
vn -0.6021 0.5958 -0.5316
vn 0.0145 0.4205 -0.9072
vn 0.9239 -0.0014 0.3827
vn 0.6335 -0.0009 0.7737
vn 0.3827 -0.0006 -0.9239
vn -0.0000 -0.0000 -1.0000
vn -0.9952 0.0015 0.0982
vn 0.9952 -0.0015 -0.0982
vn 0.7677 0.6100 0.1965
vn -0.0145 -0.4205 -0.9072
vn -0.7877 0.6055 -0.1140
vn 0.2379 0.6223 0.7457
vn 0.9991 -0.0429 -0.0000
vn -0.0145 -0.4205 0.9072
vn 0.2897 -0.0004 -0.9571
vn 0.0978 -0.0001 -0.9952
vn 0.7723 -0.0011 0.6352
vn 1.0000 -0.0015 -0.0000
vn 0.7112 0.6132 0.3438
vn -0.4706 0.0007 0.8824
vn -0.7659 0.6122 0.1965
vn -0.6246 0.6180 0.4775
vn 0.0003 0.2275 -0.9738
vn -0.0000 -0.0000 1.0000
vn -0.0792 0.6234 0.7779
vn -0.3827 0.0006 -0.9239
vn 0.7723 -0.0011 -0.6352
vn 0.3827 -0.0006 0.9239
vn -0.0324 -0.9373 0.3470
vn -0.0324 -0.9373 -0.3470
vn -0.9239 0.0013 0.3827
vn 0.4706 -0.0007 0.8824
vn -0.9239 0.0014 0.3827
vn -0.0978 0.0001 -0.9952
vn -0.3641 0.5911 -0.7198
vn -0.7723 0.0011 -0.6353
vn -0.8815 0.0013 0.4722
vn 0.8815 -0.0013 -0.4722
vn -0.2234 0.5896 -0.7762
vn 0.3850 0.6208 0.6829
vn 0.4937 0.5917 -0.6373
vn -0.3832 0.6219 0.6829
vn -0.9991 0.0429 -0.0000
vn 0.6038 0.5940 -0.5316
vn 0.6038 0.5940 -0.5315
vn -0.2897 0.0004 0.9571
vn -0.0978 0.0001 0.9952
vn -1.0000 0.0014 -0.0000
vn -0.7921 0.6089 0.0419
vn 0.9952 -0.0015 0.0982
vn -0.6335 0.0009 0.7737
vn 0.0324 0.9373 -0.3470
vn 0.7894 0.6032 -0.1140
vn 0.6921 0.5967 -0.4061
vn -0.5144 0.6202 0.5922
vn -0.0003 -0.1797 0.9837
vn 0.2251 0.5889 -0.7762
vn -0.9239 0.0014 -0.3827
vn 0.9239 -0.0013 0.3827
vn 0.9239 -0.0014 -0.3827
vn 0.0145 0.4205 0.9072
vn 0.0978 -0.0001 0.9952
vn -0.3827 0.0006 0.9239
vn -0.6904 0.5988 -0.4060
vn 0.0324 0.9373 0.3470
vn 0.9568 -0.0014 -0.2909
vn -0.9568 0.0014 0.2909
vn -0.7723 0.0011 0.6352
vn 0.0324 0.9373 -0.3469
vn 0.5166 0.6186 0.5920
vn -0.4706 0.0007 -0.8824
vn 0.0765 0.5884 -0.8049
vn -0.9568 0.0014 -0.2909
vn -0.0748 0.5887 -0.8049
vn 0.4706 -0.0007 -0.8824
vn 0.6264 0.6162 0.4775
vn -0.7094 0.6153 0.3438
vn -0.2897 0.0004 -0.9571
vn -0.7723 0.0011 -0.6352
vn 0.8815 -0.0013 0.4722
vn -0.9952 0.0015 -0.0982
vn -0.7094 0.6153 0.3437
vn 0.3659 0.5900 -0.7198
vn -0.0013 -0.8802 -0.4745
vn 0.0014 0.9568 0.2907
vn 0.7549 0.5998 -0.2652
vn -0.7531 0.6020 -0.2652
vn 0.9239 -0.0013 -0.3827
vn 0.2897 -0.0004 0.9571
vn -0.0015 -0.9982 0.0597
vn -0.0015 -0.9982 0.0601
vn -0.0009 -0.9982 0.0596
vn -0.0012 -0.9982 0.0599
vn -0.0015 -0.9982 0.0594
vn -0.0012 -0.9982 0.0595
vn -0.0018 -0.9982 0.0597
vn 0.0015 0.9999 0.0113
vn -0.0015 -0.9999 -0.0113
vn -0.0015 -0.9999 -0.0110
vn -0.0010 -0.9999 -0.0114
vn -0.0011 -0.9999 -0.0112
vn -0.0017 -0.9999 -0.0115
vn -0.0016 -0.9999 -0.0110
vn -0.0013 -0.9999 -0.0116
vn -0.0012 -0.9999 -0.0115
vn -0.0010 -0.9999 -0.0112
vn -0.0012 -0.9999 -0.0111
vn -0.2361 0.6230 0.7458
vn 0.3659 0.5900 -0.7197
vn -0.0789 0.6233 0.7780
vt 0.375000 0.750000
vt 0.625000 0.750000
vt 0.625000 0.500000
vt 0.375000 0.500000
vt 0.000000 0.000000
vt 0.375000 0.250000
vt 0.625000 0.250000
vt 0.625000 0.000000
vt 0.375000 0.000000
vt 0.375000 1.000000
vt 0.625000 1.000000
vt 0.000000 1.000000
vt 0.000000 0.500000
vt 0.125000 0.500000
vt 0.125000 1.000000
vt 0.125000 0.750000
vt 0.875000 1.000000
vt 0.875000 0.500000
vt 1.000000 0.500000
vt 1.000000 1.000000
vt 0.490000 0.250000
vt 0.419706 0.419706
vt 0.250000 0.490000
vt 0.080294 0.419706
vt 0.010000 0.250000
vt 0.080294 0.080294
vt 0.250000 0.010000
vt 0.419706 0.080294
vt 0.500000 0.500000
vt 0.500000 1.000000
vt 0.875000 0.750000
vt 0.750000 0.500000
vt 0.750000 1.000000
vt 0.919706 0.080294
vt 0.750000 0.010000
vt 0.580294 0.080294
vt 0.510000 0.250000
vt 0.580294 0.419706
vt 0.750000 0.490000
vt 0.919706 0.419706
vt 0.990000 0.250000
vt 0.250000 0.500000
vt 0.250000 1.000000
s 1
usemtl ruedaRoja.001
f 457/1/1 458/2/1 460/3/1 459/4/1
f 455/6/3 456/7/3 454/8/3 453/9/3
f 117/10/4 118/11/4 122/2/4 121/1/4
f 447/6/3 448/7/3 446/8/3 445/9/3
f 471/6/3 472/7/3 470/8/3 469/9/3
f 439/6/3 440/7/3 438/8/3 437/9/3
f 443/4/17 444/3/17 440/7/17 439/6/17
f 26/12/19 25/13/19 39/14/19 40/15/19
f 1/16/23 5/1/23 7/4/23 3/14/23
f 475/4/17 476/3/17 472/7/17 471/6/17
f 1/10/4 2/11/4 6/2/4 5/1/4
f 44/17/27 43/18/27 41/19/27 42/20/27
f 30/21/30 28/22/30 26/23/30 40/24/30 38/25/30 36/26/30 34/27/30 32/28/30
f 49/29/31 47/3/31 48/11/31 50/30/31
f 7/4/35 8/3/35 4/7/35 3/6/35
f 474/2/41 470/31/41 472/18/41 476/3/41
f 459/4/17 460/3/17 456/7/17 455/6/17
f 441/1/1 442/2/1 444/3/1 443/4/1
f 31/3/46 29/32/46 30/33/46 32/11/46
f 62/33/47 61/32/47 59/18/47 60/17/47
f 30/33/47 29/32/47 27/18/47 28/17/47
f 58/12/19 57/13/19 71/14/19 72/15/19
f 31/34/60 33/35/60 35/36/60 37/37/60 39/38/60 25/39/60 27/40/60 29/41/60
f 54/25/30 52/26/30 50/27/30 48/28/30 46/21/30 44/22/30 42/23/30 56/24/30
f 47/34/60 49/35/60 51/36/60 53/37/60 55/38/60 41/39/60 43/40/60 45/41/60
f 70/25/30 68/26/30 66/27/30 64/28/30 62/21/30 60/22/30 58/23/30 72/24/30
f 14/21/30 12/22/30 10/23/30 24/24/30 22/25/30 20/26/30 18/27/30 16/28/30
f 67/36/60 69/37/60 71/38/60 57/39/60 59/40/60 61/41/60 63/34/60 65/35/60
f 429/10/65 430/11/65 434/2/65 433/1/65
f 429/16/23 433/1/23 435/4/23 431/14/23
f 14/33/47 13/32/47 11/18/47 12/17/47
f 46/33/47 45/32/47 43/18/47 44/17/47
f 24/15/69 23/14/69 21/42/69 22/43/69
f 442/2/41 438/31/41 440/18/41 444/3/41
f 445/10/65 446/11/65 450/2/65 449/1/65
f 451/4/35 452/3/35 448/7/35 447/6/35
f 445/16/23 449/1/23 451/4/23 447/14/23
f 458/2/41 454/31/41 456/18/41 460/3/41
f 35/4/78 33/29/78 34/30/78 36/10/78
f 465/1/1 466/2/1 468/3/1 467/4/1
f 60/17/27 59/18/27 57/19/27 58/20/27
f 461/10/4 462/11/4 466/2/4 465/1/4
f 466/2/41 462/31/41 464/18/41 468/3/41
f 69/42/82 67/4/82 68/10/82 70/43/82
f 469/10/65 470/11/65 474/2/65 473/1/65
f 449/1/1 450/2/1 452/3/1 451/4/1
f 3/6/3 4/7/3 2/8/3 1/9/3
f 72/15/86 71/14/86 69/42/86 70/43/86
f 40/15/69 39/14/69 37/42/69 38/43/69
f 119/6/3 120/7/3 118/8/3 117/9/3
f 121/1/1 122/2/1 124/3/1 123/4/1
f 123/4/17 124/3/17 120/7/17 119/6/17
f 117/16/23 121/1/23 123/4/23 119/14/23
f 122/2/41 118/31/41 120/18/41 124/3/41
f 433/1/1 434/2/1 436/3/1 435/4/1
f 10/12/19 9/13/19 23/14/19 24/15/19
f 435/4/17 436/3/17 432/7/17 431/6/17
f 56/15/69 55/14/69 53/42/69 54/43/69
f 23/38/60 9/39/60 11/40/60 13/41/60 15/34/60 17/35/60 19/36/60 21/37/60
f 51/4/78 49/29/78 50/30/78 52/10/78
f 47/3/46 45/32/46 46/33/46 48/11/46
f 431/6/3 432/7/3 430/8/3 429/9/3
f 434/2/41 430/31/41 432/18/41 436/3/41
f 437/10/65 438/11/65 442/2/65 441/1/65
f 437/16/23 441/1/23 443/4/23 439/14/23
f 53/42/82 51/4/82 52/10/82 54/43/82
f 28/17/27 27/18/27 25/19/27 26/20/27
f 12/17/27 11/18/27 9/19/27 10/20/27
f 63/3/46 61/32/46 62/33/46 64/11/46
f 5/1/1 6/2/1 8/3/1 7/4/1
f 463/6/3 464/7/3 462/8/3 461/9/3
f 450/2/41 446/31/41 448/18/41 452/3/41
f 42/12/19 41/13/19 55/14/19 56/15/19
f 453/16/23 457/1/23 459/4/23 455/14/23
f 19/4/78 17/29/78 18/30/78 20/10/78
f 467/4/35 468/3/35 464/7/35 463/6/35
f 33/29/31 31/3/31 32/11/31 34/30/31
f 67/4/78 65/29/78 66/30/78 68/10/78
f 6/2/41 2/31/41 4/18/41 8/3/41
f 473/1/1 474/2/1 476/3/1 475/4/1
f 17/29/31 15/3/31 16/11/31 18/30/31
f 65/29/31 63/3/31 64/11/31 66/30/31
f 461/16/23 465/1/23 467/4/23 463/14/23
f 37/42/82 35/4/82 36/10/82 38/43/82
f 469/16/23 473/1/23 475/4/23 471/14/23
f 453/10/4 454/11/4 458/2/4 457/1/4
f 21/42/82 19/4/82 20/10/82 22/43/82
f 15/3/46 13/32/46 14/33/46 16/11/46
usemtl top
f 87/4/4 83/6/4 84/7/4 88/3/4
f 73/10/35 77/1/35 78/2/35 74/11/35
f 75/6/3 73/9/3 74/8/3 76/7/3
f 81/10/35 85/1/35 86/2/35 82/11/35
f 78/2/41 80/3/41 76/18/41 74/31/41
f 77/1/1 79/4/1 80/3/1 78/2/1
f 79/4/4 75/6/4 76/7/4 80/3/4
f 83/6/3 81/9/3 82/8/3 84/7/3
f 81/16/23 83/14/23 87/4/23 85/1/23
f 85/1/1 87/4/1 88/3/1 86/2/1
f 86/2/41 88/3/41 84/18/41 82/31/41
f 73/16/23 75/14/23 79/4/23 77/1/23
usemtl Union
f 89/16/23 91/14/23 95/4/23 93/1/23
f 93/1/1 95/4/1 96/3/1 94/2/1
f 95/4/65 91/6/65 92/7/65 96/3/65
f 91/6/3 89/9/3 90/8/3 92/7/3
f 89/10/17 93/1/17 94/2/17 90/11/17
f 94/2/41 96/3/41 92/18/41 90/31/41
usemtl Material.001
f 332/5/2 331/5/2 299/5/2 300/5/2
f 358/5/5 357/5/5 325/5/5 326/5/5
f 107/10/6 111/1/6 112/2/6 108/11/6
f 355/5/7 323/5/7 324/5/7 356/5/7
f 346/5/8 314/5/8 315/5/8 347/5/8
f 217/5/9 216/5/9 184/5/9 185/5/9
f 425/5/10 409/5/10 408/5/10 424/5/10
f 209/5/11 177/5/11 178/5/11 210/5/11
f 104/3/12 103/4/12 99/6/12 100/7/12
f 114/3/12 113/4/12 109/6/12 110/7/12
f 201/5/13 200/5/13 168/5/13 169/5/13
f 338/5/14 337/5/14 305/5/14 306/5/14
f 344/5/15 312/5/15 313/5/15 345/5/15
f 365/5/16 364/5/16 332/5/16 333/5/16
f 378/5/18 377/5/18 345/5/18 346/5/18
f 416/5/20 408/5/20 409/5/20 417/5/20
f 169/5/21 168/5/21 136/5/21 137/5/21
f 423/5/22 407/5/22 406/5/22 421/5/22
f 157/5/24 125/5/24 126/5/24 158/5/24
f 174/5/25 173/5/25 141/5/25 142/5/25
f 204/5/26 203/5/26 171/5/26 172/5/26
f 189/5/28 220/5/28 188/5/28 157/5/28
f 199/5/29 198/5/29 166/5/29 167/5/29
f 340/5/32 339/5/32 307/5/32 308/5/32
f 341/5/33 340/5/33 308/5/33 309/5/33
f 330/5/34 329/5/34 297/5/34 298/5/34
f 363/5/36 362/5/36 330/5/36 331/5/36
f 322/5/37 290/5/37 291/5/37 323/5/37
f 350/5/38 318/5/38 319/5/38 351/5/38
f 352/5/39 320/5/39 321/5/39 353/5/39
f 334/5/25 333/5/25 301/5/25 302/5/25
f 105/2/40 102/2/40 104/3/40 106/3/40
f 356/5/42 324/5/42 325/5/42 357/5/42
f 419/5/43 411/5/43 412/5/43 420/5/43
f 177/5/44 176/5/44 144/5/44 145/5/44
f 404/5/45 388/5/45 387/5/45 403/5/45
f 426/5/48 410/5/48 409/5/48 425/5/48
f 180/5/32 179/5/32 147/5/32 148/5/32
f 168/5/49 167/5/49 135/5/49 136/5/49
f 390/5/50 381/5/50 382/5/50 389/5/50
f 181/5/51 149/5/51 150/5/51 182/5/51
f 170/5/34 169/5/34 137/5/34 138/5/34
f 376/5/52 375/5/52 343/5/52 344/5/52
f 185/5/53 153/5/53 154/5/53 186/5/53
f 159/5/54 127/5/54 128/5/54 160/5/54
f 176/5/55 175/5/55 143/5/55 144/5/55
f 215/5/56 214/5/56 182/5/56 183/5/56
f 200/5/57 199/5/57 167/5/57 168/5/57
f 369/5/58 337/5/58 338/5/58 370/5/58
f 354/5/59 322/5/59 323/5/59 355/5/59
f 208/5/61 176/5/61 177/5/61 209/5/61
f 368/5/62 336/5/62 337/5/62 369/5/62
f 323/5/63 291/5/63 292/5/63 324/5/63
f 324/5/64 292/5/64 293/5/64 325/5/64
f 349/5/66 317/5/66 318/5/66 350/5/66
f 319/5/54 287/5/54 288/5/54 320/5/54
f 333/5/67 332/5/67 300/5/67 301/5/67
f 321/5/68 289/5/68 290/5/68 322/5/68
f 375/5/56 374/5/56 342/5/56 343/5/56
f 364/5/26 363/5/26 331/5/26 332/5/26
f 365/5/70 333/5/70 334/5/70 366/5/70
f 367/5/71 335/5/71 336/5/71 368/5/71
f 104/3/4 100/7/4 106/3/4
f 353/5/72 321/5/72 322/5/72 354/5/72
f 98/11/35 102/2/35 105/2/35
f 395/5/43 387/5/43 388/5/43 396/5/43
f 105/2/73 106/3/73 100/7/73 98/8/73
f 371/5/74 339/5/74 340/5/74 372/5/74
f 420/5/75 412/5/75 405/5/75 414/5/75
f 401/5/75 385/5/75 384/5/75 400/5/75
f 114/3/4 110/7/4 116/3/4
f 115/2/73 116/3/73 110/7/73 108/8/73
f 108/11/35 112/2/35 115/2/35
f 398/5/76 381/5/76 388/5/76 404/5/76
f 418/5/77 417/5/77 409/5/77 410/5/77
f 178/5/14 177/5/14 145/5/14 146/5/14
f 428/5/45 412/5/45 411/5/45 427/5/45
f 166/5/79 165/5/79 133/5/79 134/5/79
f 389/5/80 382/5/80 383/5/80 391/5/80
f 163/5/63 131/5/63 132/5/63 164/5/63
f 219/5/81 218/5/81 186/5/81 187/5/81
f 194/5/59 162/5/59 163/5/59 195/5/59
f 175/5/83 174/5/83 142/5/83 143/5/83
f 158/5/84 126/5/84 127/5/84 159/5/84
f 186/5/8 154/5/8 155/5/8 187/5/8
f 160/5/85 128/5/85 129/5/85 161/5/85
f 162/5/37 130/5/37 131/5/37 163/5/37
f 361/5/13 360/5/87 328/5/13 329/5/13
f 205/5/70 173/5/70 174/5/70 206/5/70
f 216/5/52 215/5/52 183/5/52 184/5/52
f 205/5/16 204/5/16 172/5/16 173/5/16
f 183/5/88 151/5/88 152/5/88 184/5/88
f 192/5/39 160/5/39 161/5/39 193/5/39
f 193/5/72 161/5/72 162/5/72 194/5/72
f 372/5/89 340/5/89 341/5/89 373/5/89
f 347/5/90 315/5/90 316/5/90 348/5/90
f 360/5/57 359/5/57 327/5/57 328/5/57
f 214/5/91 213/5/91 181/5/91 182/5/91
f 211/5/74 179/5/74 180/5/74 212/5/74
f 337/5/44 336/5/44 304/5/44 305/5/44
f 339/5/92 338/5/92 306/5/92 307/5/92
f 326/5/79 325/5/79 293/5/79 294/5/79
f 202/5/93 201/5/93 169/5/93 170/5/93
f 191/5/94 159/5/94 160/5/94 192/5/94
f 342/5/95 310/5/95 311/5/95 343/5/95
f 189/5/66 157/5/66 158/5/66 190/5/66
f 345/5/96 313/5/96 314/5/96 346/5/96
f 331/5/97 330/5/97 298/5/97 299/5/97
f 335/5/83 334/5/83 302/5/83 303/5/83
f 317/5/24 285/5/24 286/5/24 318/5/24
f 318/5/84 286/5/84 287/5/84 319/5/84
f 320/5/85 288/5/85 289/5/85 321/5/85
f 188/5/98 156/5/98 125/5/98 157/5/98
f 362/5/93 361/5/93 329/5/93 330/5/93
f 336/5/55 335/5/55 303/5/55 304/5/55
f 343/5/88 311/5/88 312/5/88 344/5/88
f 414/5/50 405/5/50 406/5/50 413/5/50
f 351/5/99 319/5/99 320/5/99 352/5/99
f 377/5/9 376/5/9 344/5/9 345/5/9
f 370/5/100 338/5/100 339/5/100 371/5/100
f 99/6/101 97/9/101 98/8/101 100/7/101
f 379/5/81 378/5/81 346/5/81 347/5/81
f 101/1/102 103/4/102 104/3/102 102/2/102
f 366/5/103 334/5/103 335/5/103 367/5/103
f 380/5/104 379/5/104 347/5/104 348/5/104
f 115/2/40 112/2/40 114/3/40 116/3/40
f 97/16/23 99/14/23 103/4/23 101/1/23
f 349/5/28 380/5/28 348/5/28 317/5/28
f 374/5/91 373/5/91 341/5/91 342/5/91
f 181/5/33 180/5/33 148/5/33 149/5/33
f 109/6/101 107/9/101 108/8/101 110/7/101
f 107/16/23 109/14/23 113/4/23 111/1/23
f 415/5/45 407/5/45 408/5/45 416/5/45
f 396/5/75 388/5/75 381/5/75 390/5/75
f 394/5/22 386/5/22 387/5/22 395/5/22
f 392/5/20 384/5/20 385/5/20 393/5/20
f 399/5/22 383/5/22 382/5/22 397/5/22
f 359/5/29 358/5/29 326/5/29 327/5/29
f 418/5/22 410/5/22 411/5/22 419/5/22
f 393/5/77 385/5/77 386/5/77 394/5/77
f 397/5/105 382/5/105 381/5/105 398/5/105
f 111/1/102 113/4/102 114/3/102 112/2/102
f 422/5/20 405/5/20 412/5/20 428/5/20
f 402/5/50 386/5/50 385/5/50 401/5/50
f 427/5/80 411/5/80 410/5/80 426/5/80
f 403/5/80 387/5/80 386/5/80 402/5/80
f 400/5/43 384/5/43 383/5/43 399/5/43
f 164/5/64 132/5/64 133/5/64 165/5/64
f 167/5/106 166/5/106 134/5/106 135/5/106
f 413/5/80 406/5/80 407/5/80 415/5/80
f 391/5/45 383/5/45 384/5/45 392/5/45
f 424/5/43 408/5/43 407/5/43 423/5/43
f 421/5/77 406/5/77 405/5/77 422/5/77
f 179/5/92 178/5/92 146/5/92 147/5/92
f 182/5/95 150/5/95 151/5/95 183/5/95
f 133/5/107 132/5/108 131/5/107 130/5/107 129/5/107 128/5/107 127/5/107 126/5/109 125/5/107 156/5/107 155/5/107 154/5/110 153/5/107 152/5/107 151/5/107 150/5/111 149/5/107 148/5/108 147/5/107 146/5/107 145/5/107 144/5/112 143/5/107 142/5/107 141/5/107 140/5/113 139/5/107 138/5/107 137/5/107 136/5/107 135/5/107 134/5/107
f 171/5/97 170/5/97 138/5/97 139/5/97
f 184/5/15 152/5/15 153/5/15 185/5/15
f 172/5/2 171/5/2 139/5/2 140/5/2
f 173/5/67 172/5/67 140/5/67 141/5/67
f 161/5/68 129/5/68 130/5/68 162/5/68
f 293/5/107 292/5/107 291/5/107 290/5/107 289/5/107 288/5/107 287/5/107 286/5/107 285/5/107 316/5/107 315/5/107 314/5/107 313/5/107 312/5/107 311/5/107 310/5/107 309/5/107 308/5/107 307/5/107 306/5/107 305/5/107 304/5/107 303/5/107 302/5/107 301/5/107 300/5/107 299/5/107 298/5/107 297/5/107 296/5/107 295/5/107 294/5/107
f 97/10/6 101/1/6 102/2/6 98/11/6
f 187/5/90 155/5/90 156/5/90 188/5/90
f 198/5/5 197/5/5 165/5/5 166/5/5
f 218/5/18 217/5/18 185/5/18 186/5/18
f 190/5/38 158/5/38 159/5/38 191/5/38
f 207/5/71 175/5/71 176/5/71 208/5/71
f 341/5/51 309/5/51 310/5/51 342/5/51
f 220/5/104 219/5/104 187/5/104 188/5/104
f 203/5/36 202/5/36 170/5/36 171/5/36
f 328/5/49 327/5/49 295/5/49 296/5/49
f 206/5/103 174/5/103 175/5/103 207/5/103
f 195/5/125 163/5/125 164/5/125 196/5/125
f 329/5/21 328/5/21 296/5/21 297/5/21
f 327/5/106 326/5/106 294/5/106 295/5/106
f 212/5/89 180/5/89 181/5/89 213/5/89
f 210/5/126 178/5/126 179/5/126 211/5/126
f 196/5/42 164/5/42 165/5/127 197/5/42
f 348/5/98 316/5/98 285/5/98 317/5/98
usemtl Material.011
f 279/5/114 280/5/114 281/5/114 282/5/114 283/5/114 284/5/114 253/5/114 254/5/114 255/5/114 256/5/114 257/5/114 258/5/114 259/5/114 260/5/114 261/5/114 262/5/114 263/5/114 264/5/114 265/5/114 266/5/114 267/5/114 268/5/114 269/5/114 270/5/114 271/5/114 272/5/114 273/5/114 274/5/114 275/5/114 276/5/114 277/5/114 278/5/114
f 249/5/115 248/5/115 247/5/115 246/5/116 245/5/115 244/5/115 243/5/115 242/5/115 241/5/115 240/5/115 239/5/115 238/5/117 237/5/115 236/5/118 235/5/119 234/5/115 233/5/115 232/5/115 231/5/115 230/5/120 229/5/115 228/5/121 227/5/115 226/5/115 225/5/115 224/5/122 223/5/122 222/5/115 221/5/115 252/5/123 251/5/124 250/5/124
usemtl Material.034
f 427/5/3 426/5/3 425/5/3 424/5/3 423/5/3 421/5/3 422/5/3 428/5/3
f 398/5/3 404/5/3 403/5/3 402/5/3 401/5/3 400/5/3 399/5/3 397/5/3
