# Blender 4.5.3 LTS
# www.blender.org
mtllib RapidoINMOVIL.mtl
o Circle.013
v 0.000468 -0.409973 0.217259
v -0.073161 -0.409740 0.186760
v -0.103659 -0.409643 0.113131
v -0.073161 -0.409740 0.039502
v 0.000468 -0.409973 0.009004
v 0.074097 -0.410207 0.039502
v 0.104595 -0.410304 0.113131
v 0.074097 -0.410207 0.186760
v -0.073435 -0.496333 0.186760
v 0.000194 -0.496566 0.217259
v -0.103933 -0.496236 0.113131
v -0.073435 -0.496333 0.039502
v 0.000194 -0.496566 0.009004
v 0.073823 -0.496800 0.039502
v 0.104321 -0.496896 0.113131
v 0.073823 -0.496800 0.186760
v -0.073306 -0.455649 0.186760
v 0.000323 -0.455882 0.217259
v -0.103804 -0.455552 0.113131
v -0.073306 -0.455649 0.039502
v 0.000323 -0.455882 0.009004
v 0.073952 -0.456116 0.039502
v 0.104450 -0.456212 0.113131
v 0.073952 -0.456116 0.186760
v -0.069720 0.478263 0.052100
v -0.050058 0.478200 0.099568
v -0.002591 0.478050 0.119229
v 0.044876 0.477899 0.099568
v 0.064537 0.477837 0.052100
v 0.044876 0.477899 0.004633
v -0.002591 0.478050 -0.015028
v -0.050058 0.478200 0.004633
v -0.049881 0.534025 0.099568
v -0.069543 0.534087 0.052100
v -0.002414 0.533874 0.119229
v 0.045053 0.533724 0.099568
v 0.064714 0.533661 0.052100
v 0.045053 0.533724 0.004633
v -0.002414 0.533874 -0.015028
v -0.049881 0.534025 0.004633
v -0.049974 0.504689 0.099568
v -0.069636 0.504751 0.052100
v -0.002507 0.504539 0.119229
v 0.044960 0.504388 0.099568
v 0.064621 0.504326 0.052100
v 0.044960 0.504388 0.004633
v -0.002507 0.504539 -0.015028
v -0.049974 0.504689 0.004633
v -0.013685 -0.274098 0.340046
v -0.016816 -0.391269 0.507011
v -0.010864 -0.113628 0.196626
v -0.011796 -0.407669 0.213012
v 0.009932 -0.113674 0.196983
v 0.007110 -0.274144 0.340404
v 0.003979 -0.391315 0.507369
v 0.008999 -0.407715 0.213370
v -0.254342 -0.280953 0.073517
v -0.414951 -0.406733 0.073517
v -0.119520 -0.113170 0.073517
v -0.120454 -0.407667 0.073517
v -0.119520 -0.113170 0.052718
v -0.254342 -0.280953 0.052718
v -0.414951 -0.406733 0.052718
v -0.120454 -0.407667 0.052718
v 0.266345 -0.282604 0.073517
v 0.426153 -0.409400 0.073517
v 0.132590 -0.113969 0.073517
v 0.131656 -0.408466 0.073517
v 0.132590 -0.113969 0.052718
v 0.266345 -0.282604 0.052718
v 0.426153 -0.409400 0.052718
v 0.131656 -0.408466 0.052718
v 0.106091 -0.330247 -0.271860
v -0.101593 -0.329588 -0.271860
v 0.106174 -0.304052 -0.261009
v -0.101510 -0.303393 -0.261009
v 0.106209 -0.293201 -0.234814
v -0.101476 -0.292543 -0.234814
v 0.106174 -0.304052 -0.208618
v -0.101510 -0.303393 -0.208618
v 0.106091 -0.330247 -0.197768
v -0.101593 -0.329588 -0.197768
v 0.106008 -0.356442 -0.208618
v -0.101676 -0.355784 -0.208618
v 0.105974 -0.367293 -0.234814
v -0.101711 -0.366634 -0.234814
v 0.106008 -0.356442 -0.261009
v -0.101676 -0.355784 -0.261009
v 0.108826 0.532308 -0.271860
v -0.098858 0.532966 -0.271860
v 0.108909 0.558503 -0.261009
v -0.098775 0.559162 -0.261009
v 0.108943 0.569353 -0.234814
v -0.098741 0.570012 -0.234814
v 0.108909 0.558503 -0.208618
v -0.098775 0.559162 -0.208618
v 0.108826 0.532308 -0.197768
v -0.098858 0.532966 -0.197768
v 0.108743 0.506112 -0.208618
v -0.098941 0.506771 -0.208618
v 0.108708 0.495262 -0.234814
v -0.098976 0.495920 -0.234814
v 0.108743 0.506112 -0.261009
v -0.098941 0.506771 -0.261009
v -0.116020 0.477783 0.085265
v -0.146952 -0.408249 0.103396
v -0.118829 -0.407871 0.189956
v -0.042395 0.477838 0.138762
v -0.045204 -0.407815 0.243453
v 0.048610 0.477550 0.138762
v 0.045801 -0.408103 0.243453
v 0.122233 0.477027 0.085265
v 0.119424 -0.408626 0.189956
v 0.147545 -0.409183 0.103396
v 0.122230 0.476091 0.012046
v 0.119421 -0.409562 0.016836
v 0.048605 0.476035 -0.041451
v 0.045796 -0.409618 -0.036661
v -0.042400 0.476323 -0.041451
v -0.045208 -0.409330 -0.036661
v -0.116023 0.476846 0.012046
v -0.118832 -0.408807 0.016836
v -0.099210 0.497167 -0.229475
v -0.099799 0.311281 -0.004128
v -0.066444 0.497063 -0.229475
v -0.067033 0.311177 -0.004128
v -0.099126 0.523657 -0.207624
v -0.099715 0.337771 0.017723
v -0.066360 0.523553 -0.207624
v -0.066949 0.337667 0.017723
v 0.076094 0.496612 -0.229475
v 0.075505 0.310725 -0.004128
v 0.108861 0.496508 -0.229475
v 0.108271 0.310621 -0.004128
v 0.076178 0.523102 -0.207624
v 0.075589 0.337215 0.017723
v 0.108945 0.522998 -0.207624
v 0.108355 0.337111 0.017723
v -0.101999 -0.343731 -0.206993
v -0.101999 -0.343731 0.085129
v -0.069233 -0.343835 -0.206993
v -0.069233 -0.343835 0.085129
v -0.101891 -0.309391 -0.206993
v -0.101891 -0.309391 0.085129
v -0.069124 -0.309495 -0.206993
v -0.069124 -0.309495 0.085129
v 0.073304 -0.344287 -0.206993
v 0.073304 -0.344287 0.085129
v 0.106070 -0.344391 -0.206993
v 0.106070 -0.344391 0.085129
v 0.073413 -0.309947 -0.206993
v 0.073413 -0.309947 0.085129
v 0.106179 -0.310051 -0.206993
v 0.106179 -0.310051 0.085129
vn -0.9239 0.0029 0.3827
vn 0.3827 -0.0012 0.9239
vn 0.9239 -0.0029 -0.3827
vn -0.3827 0.0012 -0.9239
vn 0.9239 -0.0029 0.3827
vn 0.3827 -0.0012 -0.9239
vn -0.9239 0.0029 -0.3827
vn -0.3827 0.0012 0.9239
vn 0.0032 1.0000 -0.0000
vn -0.0032 -1.0000 -0.0000
vn -0.9998 0.0022 -0.0172
vn 0.9998 -0.0022 0.0172
vn -0.0081 0.8186 0.5743
vn -0.0032 -0.9984 0.0556
vn -0.0113 0.6665 0.7455
vn 0.0170 -0.0557 -0.9983
vn -0.0000 -0.0000 -1.0000
vn -0.0000 -0.0000 1.0000
vn 0.6166 -0.7873 -0.0000
vn 0.7795 -0.6264 -0.0000
vn -1.0000 0.0032 -0.0000
vn 0.6215 0.7834 -0.0000
vn 0.7835 0.6214 -0.0000
vn 0.0012 0.3827 -0.9239
vn 0.0029 0.9239 -0.3827
vn 0.0029 0.9239 0.3827
vn 0.0012 0.3827 0.9239
vn -0.0012 -0.3827 0.9239
vn -0.0029 -0.9239 0.3827
vn -0.0029 -0.9239 -0.3827
vn -0.0012 -0.3827 -0.9239
vn 1.0000 -0.0032 -0.0000
vn -0.9504 0.0395 0.3086
vn -0.5851 0.0970 0.8051
vn 0.0004 0.1174 0.9931
vn 0.5857 0.0933 0.8051
vn 0.9506 0.0335 0.3086
vn 0.5878 -0.0062 -0.8090
vn -0.0000 -0.0054 -1.0000
vn -0.0032 -1.0000 0.0054
vn -0.5878 -0.0025 -0.8090
vn 0.0020 1.0000 -0.0090
vn 0.0024 0.7714 0.6363
vn -0.0024 -0.7714 -0.6363
vn -0.0020 -0.6363 0.7714
vn 0.0020 0.6363 -0.7714
vn 0.9508 0.0208 -0.3090
vn -0.9507 0.0269 -0.3090
vn 0.0085 0.9999 -0.0128
vn 0.0032 1.0000 -0.0054
vt 0.000000 0.000000
vt 1.000000 1.000000
vt 1.000000 0.000000
vt 0.000000 1.000000
vt 0.875000 0.500000
vt 1.000000 0.500000
vt 0.875000 1.000000
vt 0.750000 0.500000
vt 0.750000 1.000000
vt 0.625000 0.500000
vt 0.625000 1.000000
vt 0.500000 0.500000
vt 0.500000 1.000000
vt 0.375000 0.500000
vt 0.375000 1.000000
vt 0.250000 0.500000
vt 0.010000 0.250000
vt 0.250000 0.010000
vt 0.490000 0.250000
vt 0.250000 1.000000
vt 0.125000 0.500000
vt 0.125000 1.000000
vt 0.000000 0.500000
vt 0.919706 0.080294
vt 0.580294 0.080294
vt 0.580294 0.419706
vt 0.900000 1.000000
vt 0.800000 0.500000
vt 0.900000 0.500000
vt 0.800000 1.000000
vt 0.700000 0.500000
vt 0.600000 1.000000
vt 0.600000 0.500000
vt 0.500000 1.000000
vt 0.500000 0.500000
vt 0.400000 1.000000
vt 0.400000 0.500000
vt 0.300000 1.000000
vt 0.300000 0.500000
vt 0.200000 0.500000
vt 0.021746 0.324164
vt 0.391068 0.055836
vt 0.478254 0.324164
vt 0.200000 1.000000
vt 0.100000 0.500000
vt 0.100000 1.000000
vt -0.000000 0.500000
vt 0.750000 0.010000
vt 0.521746 0.175836
vt 0.608932 0.444164
vt 0.375000 0.000000
vt 0.625000 0.250000
vt 0.375000 0.250000
vt 0.375000 0.750000
vt 0.125000 0.750000
vt 0.625000 0.750000
vt 0.625000 0.000000
vt 0.875000 0.750000
vt 0.419706 0.419706
vt 0.250000 0.490000
vt 0.080294 0.419706
vt 0.080294 0.080294
vt 0.419706 0.080294
vt 0.750000 0.490000
vt 0.919706 0.419706
vt 0.990000 0.250000
vt 0.510000 0.250000
vt 0.700000 1.000000
vt 0.391068 0.444164
vt 0.108932 0.444164
vt 0.021746 0.175836
vt 0.108932 0.055836
vt 0.478254 0.175836
vt -0.000000 1.000000
vt 0.891068 0.444164
vt 0.978254 0.324164
vt 0.978254 0.175836
vt 0.608932 0.055836
vt 0.521746 0.324164
s 0
usemtl Material
f 6/1/1 23/1/1 7/1/1
f 1/1/2 16/1/2 8/1/2
f 7/1/3 14/1/3 6/1/3
f 5/1/4 12/1/4 4/1/4
f 3/1/1 9/1/1 2/1/1
f 8/1/5 15/1/5 7/1/5
f 6/1/6 13/1/6 5/1/6
f 4/1/7 11/1/7 3/1/7
f 2/1/8 10/1/8 1/1/8
f 4/1/2 21/1/2 5/1/2
f 2/1/3 19/1/3 3/1/3
f 7/1/7 24/1/7 8/1/7
f 5/1/8 22/1/8 6/1/8
f 3/1/5 20/1/5 4/1/5
f 1/1/6 17/1/6 2/1/6
f 8/1/4 18/1/4 1/1/4
f 25/1/3 41/1/3 26/1/3
f 32/1/7 34/1/7 40/1/7
f 30/1/6 39/1/6 38/1/6
f 29/1/5 36/1/5 28/1/5
f 27/1/8 33/1/8 26/1/8
f 31/1/4 40/1/4 39/1/4
f 29/1/3 38/1/3 37/1/3
f 28/1/2 35/1/2 27/1/2
f 26/1/1 34/1/1 25/1/1
f 32/1/5 42/1/5 25/1/5
f 30/1/8 47/1/8 31/1/8
f 28/1/7 45/1/7 29/1/7
f 27/1/6 41/1/6 43/1/6
f 31/1/2 48/1/2 32/1/2
f 29/1/1 46/1/1 30/1/1
f 27/1/4 44/1/4 28/1/4
f 105/6/33 106/2/33 107/27/33
f 107/27/34 108/28/34 105/29/34
f 109/30/35 110/31/35 108/28/35
f 110/31/36 113/32/36 112/33/36
f 112/33/37 113/32/37 114/34/37
f 112/35/32 116/36/32 115/37/32
f 115/37/38 118/38/38 117/39/38
f 118/38/39 119/40/39 117/39/39
f 120/41/40 113/42/40 109/43/40
f 120/44/41 121/45/41 119/40/41
f 122/46/21 105/47/21 121/45/21
f 112/48/42 117/49/42 121/50/42
f 6/1/1 22/1/1 23/1/1
f 1/1/2 10/1/2 16/1/2
f 7/1/3 15/1/3 14/1/3
f 5/1/4 13/1/4 12/1/4
f 3/1/1 11/1/1 9/1/1
f 8/1/5 16/1/5 15/1/5
f 6/1/6 14/1/6 13/1/6
f 4/1/7 12/1/7 11/1/7
f 2/1/8 9/1/8 10/1/8
f 4/1/2 20/1/2 21/1/2
f 2/1/3 17/1/3 19/1/3
f 7/1/7 23/1/7 24/1/7
f 5/1/8 21/1/8 22/1/8
f 3/1/5 19/1/5 20/1/5
f 1/1/6 18/1/6 17/1/6
f 8/1/4 24/1/4 18/1/4
f 25/1/3 42/1/3 41/1/3
f 32/1/7 25/1/7 34/1/7
f 30/1/6 31/1/6 39/1/6
f 29/1/5 37/1/5 36/1/5
f 27/1/8 35/1/8 33/1/8
f 31/1/4 32/1/4 40/1/4
f 29/1/3 30/1/3 38/1/3
f 28/1/2 36/1/2 35/1/2
f 26/1/1 33/1/1 34/1/1
f 32/1/5 48/1/5 42/1/5
f 30/1/8 46/1/8 47/1/8
f 28/1/7 44/1/7 45/1/7
f 27/1/6 26/1/6 41/1/6
f 31/1/2 47/1/2 48/1/2
f 29/1/1 45/1/1 46/1/1
f 27/1/4 43/1/4 44/1/4
f 107/27/34 109/30/34 108/28/34
f 109/30/35 111/68/35 110/31/35
f 110/31/36 111/68/36 113/32/36
f 112/35/47 114/34/47 116/36/47
f 115/37/38 116/36/38 118/38/38
f 118/38/39 120/44/39 119/40/39
f 109/43/40 107/69/40 106/60/40
f 106/60/40 122/70/40 120/41/40
f 120/41/40 118/71/40 116/72/40
f 116/72/40 114/18/40 113/42/40
f 113/42/40 111/73/40 109/43/40
f 109/43/40 106/60/40 120/41/40
f 120/41/40 116/72/40 113/42/40
f 120/44/41 122/46/41 121/45/41
f 122/46/48 106/74/48 105/47/48
f 121/50/49 105/75/49 108/76/49
f 108/76/50 110/77/50 112/48/50
f 112/48/49 115/78/49 117/49/49
f 117/49/50 119/79/50 121/50/50
f 121/50/42 108/76/42 112/48/42
usemtl Material.034
f 23/1/9 21/1/9 19/1/9
f 47/1/10 45/1/10 43/1/10
f 19/1/9 17/1/9 18/1/9
f 18/1/9 24/1/9 23/1/9
f 23/1/9 22/1/9 21/1/9
f 21/1/9 20/1/9 19/1/9
f 19/1/9 18/1/9 23/1/9
f 43/1/10 41/1/10 42/1/10
f 42/1/10 48/1/10 47/1/10
f 47/1/10 46/1/10 45/1/10
f 45/1/10 44/1/10 43/1/10
f 43/1/10 42/1/10 47/1/10
usemtl Material.005
f 49/1/11 52/2/11 50/3/11
f 54/1/12 56/2/12 53/4/12
f 50/3/13 54/1/13 49/1/13
f 52/2/14 55/3/14 50/3/14
f 49/1/15 53/4/15 51/4/15
f 51/4/16 56/2/16 52/2/16
f 57/1/17 60/2/17 58/3/17
f 62/1/18 64/2/18 61/4/18
f 58/3/19 62/1/19 57/1/19
f 60/2/9 63/3/9 58/3/9
f 57/1/20 61/4/20 59/4/20
f 59/4/21 64/2/21 60/2/21
f 65/1/18 68/2/18 66/3/18
f 70/1/17 72/2/17 69/4/17
f 66/3/22 70/1/22 65/1/22
f 68/2/10 71/3/10 66/3/10
f 65/1/23 69/4/23 67/4/23
f 67/4/21 72/2/21 68/2/21
f 49/1/11 51/4/11 52/2/11
f 54/1/12 55/3/12 56/2/12
f 50/3/13 55/3/13 54/1/13
f 52/2/14 56/2/14 55/3/14
f 49/1/15 54/1/15 53/4/15
f 51/4/16 53/4/16 56/2/16
f 57/1/17 59/4/17 60/2/17
f 62/1/18 63/3/18 64/2/18
f 58/3/19 63/3/19 62/1/19
f 60/2/9 64/2/9 63/3/9
f 57/1/20 62/1/20 61/4/20
f 59/4/21 61/4/21 64/2/21
f 65/1/18 67/4/18 68/2/18
f 70/1/17 71/3/17 72/2/17
f 66/3/22 71/3/22 70/1/22
f 68/2/10 72/2/10 71/3/10
f 65/1/23 70/1/23 69/4/23
f 67/4/21 69/4/21 72/2/21
usemtl ruedaRoja.001
f 74/2/24 75/5/24 73/6/24
f 76/7/25 77/8/25 75/5/25
f 78/9/26 79/10/26 77/8/26
f 80/11/27 81/12/27 79/10/27
f 82/13/28 83/14/28 81/12/28
f 84/15/29 85/16/29 83/14/29
f 86/17/21 82/18/21 78/19/21
f 86/20/30 87/21/30 85/16/30
f 88/22/31 73/23/31 87/21/31
f 79/24/32 83/25/32 87/26/32
f 90/2/24 91/5/24 89/6/24
f 92/7/25 93/8/25 91/5/25
f 93/8/26 96/11/26 95/10/26
f 96/11/27 97/12/27 95/10/27
f 98/13/28 99/14/28 97/12/28
f 100/15/29 101/16/29 99/14/29
f 102/17/21 98/18/21 94/19/21
f 101/16/30 104/22/30 103/21/30
f 104/22/31 89/23/31 103/21/31
f 95/24/32 99/25/32 103/26/32
f 123/51/43 126/52/43 125/53/43
f 126/52/21 129/14/21 125/53/21
f 130/10/44 127/54/44 129/14/44
f 127/54/32 124/11/32 123/15/32
f 125/21/45 127/54/45 123/55/45
f 126/5/46 128/56/46 130/10/46
f 132/57/43 133/53/43 131/51/43
f 133/53/21 138/10/21 137/14/21
f 137/14/44 136/56/44 135/54/44
f 136/56/32 131/15/32 135/54/32
f 133/21/45 135/54/45 131/55/45
f 138/10/46 132/58/46 136/56/46
f 140/57/9 141/53/9 139/51/9
f 142/52/21 145/14/21 141/53/21
f 146/10/10 143/54/10 145/14/10
f 143/54/32 140/11/32 139/15/32
f 141/21/18 143/54/18 139/55/18
f 146/10/17 140/58/17 144/56/17
f 148/57/9 149/53/9 147/51/9
f 150/52/21 153/14/21 149/53/21
f 154/10/10 151/54/10 153/14/10
f 152/56/32 147/15/32 151/54/32
f 149/21/18 151/54/18 147/55/18
f 154/10/17 148/58/17 152/56/17
f 74/2/24 76/7/24 75/5/24
f 76/7/25 78/9/25 77/8/25
f 78/9/26 80/11/26 79/10/26
f 80/11/27 82/13/27 81/12/27
f 82/13/28 84/15/28 83/14/28
f 84/15/29 86/20/29 85/16/29
f 78/19/21 76/59/21 74/60/21
f 74/60/21 88/61/21 86/17/21
f 86/17/21 84/62/21 82/18/21
f 82/18/21 80/63/21 78/19/21
f 78/19/21 74/60/21 86/17/21
f 86/20/30 88/22/30 87/21/30
f 88/22/31 74/4/31 73/23/31
f 87/26/32 73/64/32 75/65/32
f 75/65/32 77/66/32 79/24/32
f 79/24/32 81/48/32 83/25/32
f 83/25/32 85/67/32 87/26/32
f 87/26/32 75/65/32 79/24/32
f 90/2/24 92/7/24 91/5/24
f 92/7/25 94/9/25 93/8/25
f 93/8/26 94/9/26 96/11/26
f 96/11/27 98/13/27 97/12/27
f 98/13/28 100/15/28 99/14/28
f 100/15/29 102/20/29 101/16/29
f 94/19/21 92/59/21 90/60/21
f 90/60/21 104/61/21 102/17/21
f 102/17/21 100/62/21 98/18/21
f 98/18/21 96/63/21 94/19/21
f 94/19/21 90/60/21 102/17/21
f 101/16/30 102/20/30 104/22/30
f 104/22/31 90/4/31 89/23/31
f 103/26/32 89/64/32 91/65/32
f 91/65/32 93/66/32 95/24/32
f 95/24/32 97/48/32 99/25/32
f 99/25/32 101/67/32 103/26/32
f 103/26/32 91/65/32 95/24/32
f 123/51/43 124/57/43 126/52/43
f 126/52/21 130/10/21 129/14/21
f 130/10/44 128/56/44 127/54/44
f 127/54/32 128/56/32 124/11/32
f 125/21/45 129/14/45 127/54/45
f 126/5/46 124/58/46 128/56/46
f 132/57/43 134/52/43 133/53/43
f 133/53/21 134/52/21 138/10/21
f 137/14/44 138/10/44 136/56/44
f 136/56/32 132/11/32 131/15/32
f 133/21/45 137/14/45 135/54/45
f 138/10/46 134/5/46 132/58/46
f 140/57/9 142/52/9 141/53/9
f 142/52/21 146/10/21 145/14/21
f 146/10/10 144/56/10 143/54/10
f 143/54/32 144/56/32 140/11/32
f 141/21/18 145/14/18 143/54/18
f 146/10/17 142/5/17 140/58/17
f 148/57/9 150/52/9 149/53/9
f 150/52/21 154/10/21 153/14/21
f 154/10/10 152/56/10 151/54/10
f 152/56/32 148/11/32 147/15/32
f 149/21/18 153/14/18 151/54/18
f 154/10/17 150/5/17 148/58/17
