# Blender 4.5.3 LTS
# www.blender.org
mtllib Rapido.mtl
o Circle.013
v 0.000468 -0.410151 0.221428
v -0.073161 -0.409917 0.190930
v -0.103659 -0.409821 0.117301
v -0.073161 -0.409917 0.043671
v 0.000468 -0.410151 0.013173
v 0.074097 -0.410384 0.043671
v 0.104595 -0.410481 0.117301
v 0.074097 -0.410384 0.190930
v -0.073435 -0.496510 0.190930
v 0.000194 -0.496743 0.221428
v -0.103933 -0.496413 0.117301
v -0.073435 -0.496510 0.043671
v 0.000194 -0.496743 0.013173
v 0.073823 -0.496977 0.043671
v 0.104321 -0.497074 0.117301
v 0.073823 -0.496977 0.190930
v -0.073306 -0.455826 0.190930
v 0.000323 -0.456059 0.221428
v -0.103804 -0.455729 0.117301
v -0.073306 -0.455826 0.043671
v 0.000323 -0.456059 0.013173
v 0.073952 -0.456293 0.043671
v 0.104450 -0.456390 0.117301
v 0.073952 -0.456293 0.190930
v -0.069720 0.478085 0.056270
v -0.050058 0.478023 0.103737
v -0.002591 0.477872 0.123399
v 0.044876 0.477722 0.103737
v 0.064537 0.477660 0.056270
v 0.044876 0.477722 0.008803
v -0.002591 0.477872 -0.010859
v -0.050058 0.478023 0.008803
v -0.049881 0.533848 0.103737
v -0.069543 0.533910 0.056270
v -0.002414 0.533697 0.123399
v 0.045053 0.533546 0.103737
v 0.064714 0.533484 0.056270
v 0.045053 0.533546 0.008803
v -0.002414 0.533697 -0.010859
v -0.049881 0.533848 0.008803
v -0.049974 0.504512 0.103737
v -0.069636 0.504574 0.056270
v -0.002507 0.504361 0.123399
v 0.044960 0.504211 0.103737
v 0.064621 0.504148 0.056270
v 0.044960 0.504211 0.008803
v -0.002507 0.504361 -0.010859
v -0.049974 0.504512 0.008803
v -0.013685 -0.274276 0.344216
v -0.016816 -0.391446 0.511181
v -0.010864 -0.113805 0.200795
v -0.011796 -0.407847 0.217182
v 0.009932 -0.113851 0.201153
v 0.007110 -0.274322 0.344573
v 0.003979 -0.391492 0.511538
v 0.008999 -0.407893 0.217539
v -0.254342 -0.281130 0.077686
v -0.414951 -0.406911 0.077686
v -0.119520 -0.113347 0.077686
v -0.120454 -0.407844 0.077686
v -0.119520 -0.113347 0.056888
v -0.254342 -0.281130 0.056888
v -0.414951 -0.406911 0.056888
v -0.120454 -0.407844 0.056888
v 0.266345 -0.282781 0.077686
v 0.426153 -0.409577 0.077686
v 0.132590 -0.114146 0.077686
v 0.131656 -0.408643 0.077686
v 0.132590 -0.114146 0.056888
v 0.266345 -0.282781 0.056888
v 0.426153 -0.409577 0.056888
v 0.131656 -0.408643 0.056888
v 0.106091 -0.330424 -0.267690
v -0.101593 -0.329766 -0.267690
v 0.106174 -0.304229 -0.256840
v -0.101510 -0.303570 -0.256840
v 0.106209 -0.293378 -0.230644
v -0.101476 -0.292720 -0.230644
v 0.106174 -0.304229 -0.204449
v -0.101510 -0.303570 -0.204449
v 0.106091 -0.330424 -0.193598
v -0.101593 -0.329766 -0.193598
v 0.106008 -0.356620 -0.204449
v -0.101676 -0.355961 -0.204449
v 0.105974 -0.367470 -0.230644
v -0.101711 -0.366812 -0.230644
v 0.106008 -0.356620 -0.256840
v -0.101676 -0.355961 -0.256840
v 0.108826 0.532130 -0.267690
v -0.098858 0.532789 -0.267690
v 0.108909 0.558326 -0.256840
v -0.098775 0.558984 -0.256840
v 0.108943 0.569176 -0.230644
v -0.098741 0.569835 -0.230644
v 0.108909 0.558326 -0.204449
v -0.098775 0.558984 -0.204449
v 0.108826 0.532130 -0.193598
v -0.098858 0.532789 -0.193598
v 0.108743 0.505935 -0.204449
v -0.098941 0.506594 -0.204449
v 0.108708 0.495084 -0.230644
v -0.098976 0.495743 -0.230644
v 0.108743 0.505935 -0.256840
v -0.098941 0.506594 -0.256840
v -0.116020 0.477605 0.089434
v -0.146952 -0.408427 0.107565
v -0.118829 -0.408048 0.194125
v -0.042395 0.477661 0.142931
v -0.045204 -0.407992 0.247622
v 0.048610 0.477373 0.142931
v 0.045801 -0.408281 0.247622
v 0.122233 0.476850 0.089434
v 0.119424 -0.408803 0.194125
v 0.147545 -0.409361 0.107565
v 0.122230 0.475913 0.016215
v 0.119421 -0.409740 0.021005
v 0.048605 0.475858 -0.037282
v 0.045796 -0.409796 -0.032492
v -0.042400 0.476146 -0.037282
v -0.045208 -0.409507 -0.032492
v -0.116023 0.476669 0.016215
v -0.118832 -0.408984 0.021005
v -0.099210 0.496990 -0.225306
v -0.099799 0.311103 0.000041
v -0.066444 0.496886 -0.225306
v -0.067033 0.310999 0.000041
v -0.099126 0.523480 -0.203454
v -0.099715 0.337593 0.021893
v -0.066360 0.523376 -0.203454
v -0.066949 0.337489 0.021893
v 0.076094 0.496434 -0.225306
v 0.075505 0.310548 0.000041
v 0.108861 0.496330 -0.225306
v 0.108271 0.310444 0.000041
v 0.076178 0.522924 -0.203454
v 0.075589 0.337038 0.021893
v 0.108945 0.522820 -0.203454
v 0.108355 0.336934 0.021893
v -0.101999 -0.343908 -0.202824
v -0.101999 -0.343908 0.089299
v -0.069233 -0.344012 -0.202824
v -0.069233 -0.344012 0.089299
v -0.101891 -0.309569 -0.202824
v -0.101891 -0.309569 0.089299
v -0.069124 -0.309673 -0.202824
v -0.069124 -0.309673 0.089299
v 0.073304 -0.344464 -0.202824
v 0.073304 -0.344464 0.089299
v 0.106070 -0.344568 -0.202824
v 0.106070 -0.344568 0.089299
v 0.073413 -0.310124 -0.202824
v 0.073413 -0.310124 0.089299
v 0.106179 -0.310228 -0.202824
v 0.106179 -0.310228 0.089299
vn -0.9239 0.0029 0.3827
vn 0.3827 -0.0012 0.9239
vn 0.9239 -0.0029 -0.3827
vn -0.3827 0.0012 -0.9239
vn 0.9239 -0.0029 0.3827
vn 0.3827 -0.0012 -0.9239
vn -0.9239 0.0029 -0.3827
vn -0.3827 0.0012 0.9239
vn 0.0032 1.0000 -0.0000
vn -0.0032 -1.0000 -0.0000
vn -0.9998 0.0022 -0.0172
vn 0.9998 -0.0022 0.0172
vn -0.0081 0.8186 0.5743
vn -0.0032 -0.9984 0.0556
vn -0.0113 0.6665 0.7455
vn 0.0170 -0.0557 -0.9983
vn -0.0000 -0.0000 1.0000
vn -0.0000 -0.0000 -1.0000
vn -0.6166 0.7873 -0.0000
vn -0.7795 0.6264 -0.0000
vn 1.0000 -0.0032 -0.0000
vn 0.6215 0.7834 -0.0000
vn 0.7835 0.6214 -0.0000
vn -1.0000 0.0032 -0.0000
vn 0.0012 0.3827 -0.9239
vn 0.0029 0.9239 -0.3827
vn 0.0029 0.9239 0.3827
vn 0.0012 0.3827 0.9239
vn -0.0012 -0.3827 0.9239
vn -0.0029 -0.9239 0.3827
vn -0.0029 -0.9239 -0.3827
vn -0.0012 -0.3827 -0.9239
vn -0.9504 0.0395 0.3086
vn -0.5851 0.0970 0.8051
vn 0.0004 0.1174 0.9931
vn 0.5857 0.0933 0.8051
vn 0.9506 0.0335 0.3086
vn 0.9848 0.0103 -0.1734
vn 0.5878 -0.0062 -0.8090
vn -0.0000 -0.0054 -1.0000
vn -0.0032 -1.0000 0.0054
vn -0.5878 -0.0025 -0.8090
vn -0.9847 0.0165 -0.1734
vn 0.0032 1.0000 -0.0091
vn -0.0024 -0.7714 -0.6363
vn 0.0024 0.7714 0.6363
vn 0.0020 0.6363 -0.7714
vn -0.0020 -0.6363 0.7714
vt 0.000000 0.000000
vt 0.000000 1.000000
vt 1.000000 1.000000
vt 1.000000 0.000000
vt 1.000000 0.500000
vt 0.875000 1.000000
vt 0.875000 0.500000
vt 0.750000 1.000000
vt 0.750000 0.500000
vt 0.625000 1.000000
vt 0.625000 0.500000
vt 0.500000 1.000000
vt 0.500000 0.500000
vt 0.375000 1.000000
vt 0.375000 0.500000
vt 0.250000 1.000000
vt 0.250000 0.500000
vt 0.419706 0.419706
vt 0.250000 0.490000
vt 0.080294 0.419706
vt 0.010000 0.250000
vt 0.080294 0.080294
vt 0.250000 0.010000
vt 0.419706 0.080294
vt 0.490000 0.250000
vt 0.125000 1.000000
vt 0.125000 0.500000
vt 0.000000 0.500000
vt 0.750000 0.490000
vt 0.919706 0.419706
vt 0.990000 0.250000
vt 0.919706 0.080294
vt 0.750000 0.010000
vt 0.580294 0.080294
vt 0.510000 0.250000
vt 0.580294 0.419706
vt 0.900000 1.000000
vt 0.900000 0.500000
vt 0.800000 1.000000
vt 0.800000 0.500000
vt 0.700000 1.000000
vt 0.700000 0.500000
vt 0.600000 1.000000
vt 0.600000 0.500000
vt 0.500000 1.000000
vt 0.500000 0.500000
vt 0.400000 1.000000
vt 0.400000 0.500000
vt 0.300000 1.000000
vt 0.300000 0.500000
vt 0.200000 1.000000
vt 0.200000 0.500000
vt 0.391068 0.444164
vt 0.108932 0.444164
vt 0.021746 0.324164
vt 0.021746 0.175836
vt 0.108932 0.055836
vt 0.391068 0.055836
vt 0.478254 0.175836
vt 0.478254 0.324164
vt 0.100000 1.000000
vt 0.100000 0.500000
vt -0.000000 1.000000
vt -0.000000 0.500000
vt 0.891068 0.444164
vt 0.978254 0.324164
vt 0.978254 0.175836
vt 0.608932 0.055836
vt 0.521746 0.175836
vt 0.521746 0.324164
vt 0.608932 0.444164
vt 0.375000 0.000000
vt 0.375000 0.250000
vt 0.625000 0.250000
vt 0.625000 0.000000
vt 0.375000 0.750000
vt 0.625000 0.750000
vt 0.125000 0.750000
vt 0.875000 0.750000
s 0
usemtl Material.001
f 7/1/1 6/1/1 22/1/1 23/1/1
f 8/1/2 1/1/2 10/1/2 16/1/2
f 6/1/3 7/1/3 15/1/3 14/1/3
f 4/1/4 5/1/4 13/1/4 12/1/4
f 2/1/1 3/1/1 11/1/1 9/1/1
f 7/1/5 8/1/5 16/1/5 15/1/5
f 5/1/6 6/1/6 14/1/6 13/1/6
f 3/1/7 4/1/7 12/1/7 11/1/7
f 1/1/8 2/1/8 9/1/8 10/1/8
f 5/1/2 4/1/2 20/1/2 21/1/2
f 3/1/3 2/1/3 17/1/3 19/1/3
f 8/1/7 7/1/7 23/1/7 24/1/7
f 6/1/8 5/1/8 21/1/8 22/1/8
f 4/1/5 3/1/5 19/1/5 20/1/5
f 2/1/6 1/1/6 18/1/6 17/1/6
f 1/1/4 8/1/4 24/1/4 18/1/4
f 26/1/3 25/1/3 42/1/3 41/1/3
f 32/1/7 25/1/7 34/1/7 40/1/7
f 30/1/6 31/1/6 39/1/6 38/1/6
f 28/1/5 29/1/5 37/1/5 36/1/5
f 26/1/8 27/1/8 35/1/8 33/1/8
f 31/1/4 32/1/4 40/1/4 39/1/4
f 29/1/3 30/1/3 38/1/3 37/1/3
f 27/1/2 28/1/2 36/1/2 35/1/2
f 25/1/1 26/1/1 33/1/1 34/1/1
f 25/1/5 32/1/5 48/1/5 42/1/5
f 31/1/8 30/1/8 46/1/8 47/1/8
f 29/1/7 28/1/7 44/1/7 45/1/7
f 27/1/6 26/1/6 41/1/6 43/1/6
f 32/1/2 31/1/2 47/1/2 48/1/2
f 30/1/1 29/1/1 45/1/1 46/1/1
f 28/1/4 27/1/4 43/1/4 44/1/4
f 112/44/37 113/43/37 114/45/37
f 105/65/44 108/66/44 110/67/44 112/33/44 115/68/44 117/69/44 119/70/44 121/71/44
usemtl Material.034
f 17/1/9 18/1/9 24/1/9 23/1/9 22/1/9 21/1/9 20/1/9 19/1/9
f 41/1/10 42/1/10 48/1/10 47/1/10 46/1/10 45/1/10 44/1/10 43/1/10
usemtl Material.005
f 49/1/11 51/2/11 52/3/11 50/4/11
f 54/1/12 55/4/12 56/3/12 53/2/12
f 49/1/13 50/4/13 55/4/13 54/1/13
f 50/4/14 52/3/14 56/3/14 55/4/14
f 51/2/15 49/1/15 54/1/15 53/2/15
f 52/3/16 51/2/16 53/2/16 56/3/16
f 57/1/17 58/4/17 60/3/17 59/2/17
f 62/1/18 61/2/18 64/3/18 63/4/18
f 57/1/19 62/1/19 63/4/19 58/4/19
f 58/4/10 63/4/10 64/3/10 60/3/10
f 59/2/20 61/2/20 62/1/20 57/1/20
f 60/3/21 64/3/21 61/2/21 59/2/21
f 65/1/17 67/2/17 68/3/17 66/4/17
f 70/1/18 71/4/18 72/3/18 69/2/18
f 65/1/22 66/4/22 71/4/22 70/1/22
f 66/4/10 68/3/10 72/3/10 71/4/10
f 67/2/23 65/1/23 70/1/23 69/2/23
f 68/3/24 67/2/24 69/2/24 72/3/24
usemtl ruedaRoja.001
f 73/5/25 74/3/25 76/6/25 75/7/25
f 75/7/26 76/6/26 78/8/26 77/9/26
f 77/9/27 78/8/27 80/10/27 79/11/27
f 79/11/28 80/10/28 82/12/28 81/13/28
f 81/13/29 82/12/29 84/14/29 83/15/29
f 83/15/30 84/14/30 86/16/30 85/17/30
f 76/18/24 74/19/24 88/20/24 86/21/24 84/22/24 82/23/24 80/24/24 78/25/24
f 85/17/31 86/16/31 88/26/31 87/27/31
f 87/27/32 88/26/32 74/2/32 73/28/32
f 73/29/21 75/30/21 77/31/21 79/32/21 81/33/21 83/34/21 85/35/21 87/36/21
f 89/5/25 90/3/25 92/6/25 91/7/25
f 91/7/26 92/6/26 94/8/26 93/9/26
f 93/9/27 94/8/27 96/10/27 95/11/27
f 95/11/28 96/10/28 98/12/28 97/13/28
f 97/13/29 98/12/29 100/14/29 99/15/29
f 99/15/30 100/14/30 102/16/30 101/17/30
f 92/18/24 90/19/24 104/20/24 102/21/24 100/22/24 98/23/24 96/24/24 94/25/24
f 101/17/31 102/16/31 104/26/31 103/27/31
f 103/27/32 104/26/32 90/2/32 89/28/32
f 89/29/21 91/30/21 93/31/21 95/32/21 97/33/21 99/34/21 101/35/21 103/36/21
f 123/72/45 125/73/45 126/74/45 124/75/45
f 125/73/21 129/15/21 130/11/21 126/74/21
f 129/15/46 127/76/46 128/77/46 130/11/46
f 127/76/24 123/14/24 124/10/24 128/77/24
f 125/27/47 123/78/47 127/76/47 129/15/47
f 130/11/48 128/77/48 124/79/48 126/7/48
f 131/72/45 133/73/45 134/74/45 132/75/45
f 133/73/21 137/15/21 138/11/21 134/74/21
f 137/15/46 135/76/46 136/77/46 138/11/46
f 135/76/24 131/14/24 132/10/24 136/77/24
f 133/27/47 131/78/47 135/76/47 137/15/47
f 138/11/48 136/77/48 132/79/48 134/7/48
f 139/72/10 141/73/10 142/74/10 140/75/10
f 141/73/21 145/15/21 146/11/21 142/74/21
f 145/15/9 143/76/9 144/77/9 146/11/9
f 143/76/24 139/14/24 140/10/24 144/77/24
f 141/27/18 139/78/18 143/76/18 145/15/18
f 146/11/17 144/77/17 140/79/17 142/7/17
f 147/72/10 149/73/10 150/74/10 148/75/10
f 149/73/21 153/15/21 154/11/21 150/74/21
f 153/15/9 151/76/9 152/77/9 154/11/9
f 151/76/24 147/14/24 148/10/24 152/77/24
f 149/27/18 147/78/18 151/76/18 153/15/18
f 154/11/17 152/77/17 148/79/17 150/7/17
usemtl Cambio
f 105/5/33 106/3/33 107/37/33
f 105/38/34 107/37/34 109/39/34 108/40/34
f 108/40/35 109/39/35 111/41/35 110/42/35
f 110/42/36 111/41/36 113/43/36 112/44/36
f 112/46/38 114/45/38 116/47/38 115/48/38
f 115/48/39 116/47/39 118/49/39 117/50/39
f 117/50/40 118/49/40 120/51/40 119/52/40
f 107/53/41 106/19/41 122/54/41 120/55/41 118/56/41 116/57/41 114/23/41 113/58/41 111/59/41 109/60/41
f 119/52/42 120/51/42 122/61/42 121/62/42
f 121/62/43 122/61/43 106/63/43 105/64/43
