# Blender 4.5.3 LTS
# www.blender.org
mtllib RuedaTIPO2.mtl
o Torus.025
v -0.001874 -0.004551 -0.186765
v 0.016532 -0.004385 -0.181833
v 0.030005 -0.004263 -0.168359
v 0.034937 -0.004219 -0.149953
v 0.030005 -0.004263 -0.131547
v 0.016532 -0.004385 -0.118073
v -0.020279 -0.004717 -0.118073
v -0.033753 -0.004838 -0.131547
v -0.038684 -0.004883 -0.149953
v -0.033753 -0.004838 -0.168359
v -0.020279 -0.004717 -0.181833
v -0.002387 0.052325 -0.177757
v 0.016032 0.050967 -0.173066
v 0.029544 0.046925 -0.160251
v 0.034527 0.041282 -0.142746
v 0.029646 0.035550 -0.125241
v 0.016210 0.031265 -0.112426
v -0.020601 0.030933 -0.112426
v -0.034112 0.034975 -0.125241
v -0.039095 0.040618 -0.142746
v -0.034215 0.046350 -0.160251
v -0.020778 0.050635 -0.173066
v -0.002850 0.103634 -0.151613
v 0.015582 0.100901 -0.147623
v 0.029127 0.093103 -0.136722
v 0.034156 0.082329 -0.121831
v 0.029322 0.071466 -0.106940
v 0.015920 0.063425 -0.096039
v -0.020891 0.063093 -0.096039
v -0.034436 0.070891 -0.106940
v -0.039465 0.081665 -0.121831
v -0.034631 0.092528 -0.136722
v -0.021229 0.100569 -0.147623
v -0.003217 0.144352 -0.110892
v 0.015224 0.140529 -0.107993
v 0.028796 0.129750 -0.100073
v 0.033862 0.114904 -0.089255
v 0.029065 0.099969 -0.078436
v 0.015690 0.088947 -0.070516
v -0.021121 0.088615 -0.070516
v -0.034693 0.099394 -0.078436
v -0.039759 0.114240 -0.089255
v -0.034962 0.129174 -0.100073
v -0.021586 0.140196 -0.107993
v -0.003453 0.170495 -0.059582
v 0.014995 0.165971 -0.058058
v 0.028584 0.153278 -0.053894
v 0.033674 0.135818 -0.048206
v 0.028900 0.118269 -0.042518
v 0.015542 0.105333 -0.038355
v -0.021269 0.105001 -0.038355
v -0.034858 0.117694 -0.042518
v -0.039948 0.135154 -0.048206
v -0.035174 0.152703 -0.053894
v -0.021816 0.165639 -0.058058
v -0.003534 0.179504 -0.002704
v 0.014916 0.174738 -0.002704
v 0.028511 0.161386 -0.002704
v 0.033609 0.143025 -0.002704
v 0.028843 0.124575 -0.002704
v 0.015491 0.110980 -0.002704
v -0.021320 0.110648 -0.002704
v -0.034915 0.124000 -0.002704
v -0.040013 0.142361 -0.002704
v -0.035247 0.160811 -0.002704
v -0.021895 0.174406 -0.002704
v -0.003453 0.170495 0.054175
v 0.014995 0.165971 0.052651
v 0.028584 0.153278 0.048487
v 0.033674 0.135818 0.042799
v 0.028900 0.118269 0.037111
v 0.015542 0.105333 0.032947
v -0.021269 0.105001 0.032947
v -0.034858 0.117694 0.037111
v -0.039948 0.135154 0.042799
v -0.035174 0.152703 0.048487
v -0.021816 0.165639 0.052651
v -0.003217 0.144352 0.105485
v 0.015224 0.140529 0.102586
v 0.028796 0.129750 0.094666
v 0.033862 0.114904 0.083847
v 0.029065 0.099969 0.073029
v 0.015690 0.088947 0.065109
v -0.021121 0.088615 0.065109
v -0.034693 0.099394 0.073029
v -0.039759 0.114240 0.083847
v -0.034962 0.129174 0.094666
v -0.021586 0.140196 0.102586
v -0.002850 0.103634 0.146205
v 0.015582 0.100901 0.142215
v 0.029127 0.093103 0.131315
v 0.034156 0.082329 0.116424
v 0.029322 0.071466 0.101533
v 0.015920 0.063425 0.090632
v -0.020891 0.063093 0.090632
v -0.034436 0.070891 0.101533
v -0.039465 0.081665 0.116424
v -0.034631 0.092528 0.131315
v -0.021229 0.100569 0.142215
v -0.002387 0.052325 0.172350
v 0.016032 0.050967 0.167659
v 0.029544 0.046925 0.154844
v 0.034527 0.041282 0.137339
v 0.029646 0.035550 0.119834
v 0.016210 0.031265 0.107019
v -0.020601 0.030933 0.107019
v -0.034112 0.034975 0.119834
v -0.039095 0.040618 0.137339
v -0.034215 0.046350 0.154844
v -0.020778 0.050635 0.167659
v -0.001874 -0.004551 0.181358
v 0.016532 -0.004385 0.176426
v 0.030005 -0.004263 0.162952
v 0.034937 -0.004219 0.144546
v 0.030005 -0.004263 0.126140
v 0.016532 -0.004385 0.112665
v -0.020279 -0.004717 0.112665
v -0.033753 -0.004838 0.126140
v -0.038684 -0.004883 0.144546
v -0.033753 -0.004838 0.162952
v -0.020279 -0.004717 0.176426
v -0.001361 -0.061426 0.172350
v 0.017031 -0.059736 0.167659
v 0.030467 -0.055451 0.154844
v 0.035348 -0.049719 0.137339
v 0.030365 -0.044076 0.119834
v 0.016853 -0.040034 0.107019
v -0.019957 -0.040366 0.107019
v -0.033394 -0.044651 0.119834
v -0.038274 -0.050383 0.137339
v -0.033291 -0.056026 0.154844
v -0.019780 -0.060069 0.167659
v -0.000898 -0.112735 0.146206
v 0.017482 -0.109670 0.142216
v 0.030884 -0.101629 0.131315
v 0.035718 -0.090766 0.116424
v 0.030689 -0.079992 0.101533
v 0.017144 -0.072194 0.090632
v -0.019667 -0.072526 0.090632
v -0.033070 -0.080567 0.101533
v -0.037904 -0.091430 0.116424
v -0.032874 -0.102204 0.131315
v -0.019329 -0.110002 0.142216
v -0.000530 -0.153454 0.105485
v 0.017839 -0.149298 0.102586
v 0.031215 -0.138276 0.094666
v 0.036012 -0.123341 0.083847
v 0.030946 -0.108495 0.073029
v 0.017374 -0.097716 0.065109
v -0.019437 -0.098048 0.065109
v -0.032812 -0.109070 0.073029
v -0.037610 -0.124005 0.083847
v -0.032544 -0.138851 0.094666
v -0.018972 -0.149630 0.102586
v -0.000294 -0.179597 0.054175
v 0.018069 -0.174740 0.052651
v 0.031427 -0.161804 0.048487
v 0.036201 -0.144255 0.042799
v 0.031111 -0.126795 0.037111
v 0.017522 -0.114103 0.032947
v -0.019289 -0.114435 0.032947
v -0.032647 -0.127370 0.037111
v -0.037421 -0.144920 0.042799
v -0.032331 -0.162380 0.048487
v -0.018742 -0.175072 0.052651
v -0.000213 -0.188605 -0.002704
v 0.018148 -0.183507 -0.002704
v 0.031500 -0.169912 -0.002704
v 0.036266 -0.151462 -0.002704
v 0.031168 -0.133101 -0.002704
v 0.017573 -0.119749 -0.002704
v -0.019238 -0.120081 -0.002704
v -0.032590 -0.133676 -0.002704
v -0.037356 -0.152126 -0.002704
v -0.032258 -0.170487 -0.002704
v -0.018663 -0.183839 -0.002704
v -0.000294 -0.179597 -0.059582
v 0.018069 -0.174740 -0.058058
v 0.031427 -0.161804 -0.053894
v 0.036201 -0.144255 -0.048206
v 0.031111 -0.126795 -0.042518
v 0.017522 -0.114103 -0.038355
v -0.019289 -0.114435 -0.038355
v -0.032647 -0.127370 -0.042518
v -0.037421 -0.144920 -0.048206
v -0.032331 -0.162380 -0.053894
v -0.018742 -0.175072 -0.058058
v -0.000530 -0.153454 -0.110892
v 0.017839 -0.149298 -0.107993
v 0.031215 -0.138276 -0.100073
v 0.036012 -0.123341 -0.089255
v 0.030946 -0.108495 -0.078436
v 0.017374 -0.097716 -0.070516
v -0.019437 -0.098048 -0.070516
v -0.032812 -0.109070 -0.078436
v -0.037610 -0.124005 -0.089255
v -0.032544 -0.138851 -0.100073
v -0.018972 -0.149630 -0.107993
v -0.000898 -0.112735 -0.151613
v 0.017482 -0.109670 -0.147623
v 0.030884 -0.101629 -0.136722
v 0.035718 -0.090766 -0.121831
v 0.030689 -0.079992 -0.106940
v 0.017144 -0.072194 -0.096039
v -0.019667 -0.072526 -0.096039
v -0.033070 -0.080567 -0.106940
v -0.037904 -0.091430 -0.121831
v -0.032874 -0.102204 -0.136722
v -0.019329 -0.110002 -0.147623
v -0.001361 -0.061427 -0.177757
v 0.017031 -0.059737 -0.173066
v 0.030467 -0.055451 -0.160251
v 0.035348 -0.049719 -0.142746
v 0.030365 -0.044076 -0.125241
v 0.016853 -0.040034 -0.112426
v -0.019957 -0.040366 -0.112426
v -0.033394 -0.044651 -0.125241
v -0.038274 -0.050384 -0.142746
v -0.033291 -0.056027 -0.160251
v -0.019780 -0.060069 -0.173066
v -0.012590 0.090465 -0.117817
v -0.012415 0.066698 -0.133785
v -0.012292 0.040273 -0.144809
v -0.012226 0.012204 -0.150467
v -0.012221 -0.016429 -0.150540
v -0.012275 -0.044526 -0.145026
v -0.012387 -0.071007 -0.134137
v -0.012553 -0.094855 -0.118292
v -0.012766 -0.115154 -0.098098
v -0.013018 -0.131122 -0.074333
v -0.013299 -0.142148 -0.047909
v -0.013599 -0.147806 -0.019842
v -0.013906 -0.147879 0.008789
v -0.014208 -0.142365 0.036884
v -0.014494 -0.131475 0.063364
v -0.014753 -0.115629 0.087211
v -0.014974 -0.095434 0.107508
v -0.015149 -0.071667 0.123476
v -0.015272 -0.045242 0.134500
v -0.015338 -0.017174 0.140158
v -0.015344 0.011459 0.140231
v -0.015289 0.039556 0.134718
v -0.015177 0.066038 0.123829
v -0.015012 0.089886 0.107983
v -0.014799 0.110184 0.087789
v -0.014547 0.126153 0.064024
v -0.014265 0.137178 0.037600
v -0.013965 0.142836 0.009533
v -0.013658 0.142909 -0.019098
v -0.013356 0.137395 -0.047193
v -0.013070 0.126506 -0.073673
v -0.012811 0.110659 -0.097520
v 0.017750 0.090738 -0.117817
v 0.017925 0.066972 -0.133785
v 0.018048 0.040546 -0.144809
v 0.018114 0.012478 -0.150467
v 0.018119 -0.016155 -0.150540
v 0.018065 -0.044252 -0.145026
v 0.017953 -0.070733 -0.134137
v 0.017787 -0.094582 -0.118292
v 0.017574 -0.114880 -0.098098
v 0.017322 -0.130849 -0.074333
v 0.017041 -0.141874 -0.047909
v 0.016741 -0.147532 -0.019842
v 0.016434 -0.147605 0.008789
v 0.016132 -0.142091 0.036884
v 0.015846 -0.131202 0.063364
v 0.015587 -0.115355 0.087211
v 0.015366 -0.095160 0.107508
v 0.015191 -0.071394 0.123476
v 0.015068 -0.044968 0.134500
v 0.015002 -0.016900 0.140158
v 0.014996 0.011733 0.140231
v 0.015050 0.039830 0.134718
v 0.015163 0.066311 0.123829
v 0.015328 0.090160 0.107983
v 0.015541 0.110458 0.087789
v 0.015793 0.126427 0.064024
v 0.016075 0.137452 0.037600
v 0.016375 0.143110 0.009533
v 0.016682 0.143183 -0.019098
v 0.016984 0.137669 -0.047193
v 0.017270 0.126780 -0.073673
v 0.017528 0.110933 -0.097520
vn 0.2545 0.1535 -0.9548
vn 0.7017 0.1176 -0.7027
vn 0.9647 0.0497 -0.2586
vn 0.9654 -0.0323 0.2586
vn 0.7037 -0.1050 0.7027
vn -0.7017 -0.1176 0.7027
vn -0.9647 -0.0497 0.2586
vn -0.9654 0.0323 -0.2586
vn -0.7037 0.1050 -0.7027
vn -0.2572 0.1489 -0.9548
vn 0.2519 0.4412 -0.8614
vn 0.6998 0.3293 -0.6339
vn 0.9640 0.1276 -0.2333
vn 0.9661 -0.1102 0.2333
vn 0.7056 -0.3166 0.6339
vn -0.6998 -0.3293 0.6339
vn -0.9640 -0.1276 0.2333
vn -0.9661 0.1102 -0.2333
vn -0.7056 0.3166 -0.6339
vn -0.2598 0.4366 -0.8614
vn 0.2497 0.6859 -0.6836
vn 0.6981 0.5094 -0.5031
vn 0.9634 0.1938 -0.1851
vn 0.9667 -0.1764 0.1851
vn 0.7072 -0.4967 0.5031
vn -0.6981 -0.5094 0.5031
vn -0.9634 -0.1938 0.1851
vn -0.9667 0.1764 -0.1851
vn -0.7072 0.4967 -0.5031
vn -0.2620 0.6812 -0.6836
vn 0.2481 0.8636 -0.4389
vn 0.6970 0.6402 -0.3230
vn 0.9630 0.2420 -0.1189
vn 0.9672 -0.2246 0.1189
vn 0.7084 -0.6276 0.3230
vn -0.6970 -0.6402 0.3230
vn -0.9630 -0.2420 0.1189
vn -0.9672 0.2246 -0.1189
vn -0.7084 0.6276 -0.3230
vn -0.2636 0.8590 -0.4389
vn 0.2472 0.9571 -0.1512
vn 0.6963 0.7090 -0.1113
vn 0.9627 0.2673 -0.0410
vn 0.9674 -0.2499 0.0410
vn 0.7090 -0.6963 0.1113
vn -0.6963 -0.7090 0.1113
vn -0.9627 -0.2673 0.0410
vn -0.9674 0.2499 -0.0410
vn -0.7090 0.6963 -0.1113
vn -0.2644 0.9525 -0.1512
vn 0.2472 0.9571 0.1512
vn 0.6963 0.7090 0.1113
vn 0.9627 0.2673 0.0410
vn 0.9674 -0.2499 -0.0410
vn 0.7090 -0.6963 -0.1113
vn -0.6963 -0.7090 -0.1113
vn -0.9627 -0.2673 -0.0410
vn -0.9674 0.2499 0.0410
vn -0.7090 0.6963 0.1113
vn -0.2644 0.9525 0.1512
vn 0.2481 0.8636 0.4389
vn 0.6970 0.6402 0.3230
vn 0.9630 0.2420 0.1189
vn 0.9672 -0.2246 -0.1189
vn 0.7084 -0.6276 -0.3230
vn -0.6970 -0.6402 -0.3230
vn -0.9630 -0.2420 -0.1189
vn -0.9672 0.2246 0.1189
vn -0.7084 0.6276 0.3230
vn -0.2636 0.8590 0.4389
vn 0.2497 0.6859 0.6836
vn 0.6981 0.5094 0.5031
vn 0.9634 0.1938 0.1851
vn 0.9667 -0.1764 -0.1851
vn 0.7072 -0.4967 -0.5031
vn -0.6981 -0.5094 -0.5031
vn -0.9634 -0.1938 -0.1851
vn -0.9667 0.1764 0.1851
vn -0.7072 0.4967 0.5031
vn -0.2620 0.6812 0.6836
vn 0.2519 0.4412 0.8614
vn 0.6998 0.3293 0.6339
vn 0.9640 0.1276 0.2333
vn 0.9661 -0.1102 -0.2333
vn 0.7056 -0.3166 -0.6339
vn -0.6998 -0.3293 -0.6339
vn -0.9640 -0.1276 -0.2333
vn -0.9661 0.1102 0.2333
vn -0.7056 0.3166 0.6339
vn -0.2598 0.4366 0.8614
vn 0.2545 0.1535 0.9548
vn 0.7017 0.1176 0.7027
vn 0.9647 0.0497 0.2586
vn 0.9654 -0.0323 -0.2586
vn 0.7037 -0.1050 -0.7027
vn -0.7017 -0.1176 -0.7027
vn -0.9647 -0.0497 -0.2586
vn -0.9654 0.0322 0.2586
vn -0.7037 0.1050 0.7027
vn -0.2572 0.1489 0.9548
vn 0.2572 -0.1489 0.9548
vn 0.9654 -0.0322 0.2586
vn -0.9654 0.0322 -0.2586
vn -0.2545 -0.1535 0.9548
vn 0.2598 -0.4366 0.8614
vn -0.2519 -0.4412 0.8614
vn 0.2620 -0.6812 0.6836
vn -0.2497 -0.6859 0.6836
vn 0.2636 -0.8590 0.4389
vn -0.2481 -0.8636 0.4389
vn 0.2644 -0.9525 0.1512
vn -0.2472 -0.9571 0.1512
vn 0.2644 -0.9525 -0.1512
vn -0.2472 -0.9571 -0.1512
vn 0.2636 -0.8590 -0.4389
vn -0.2481 -0.8636 -0.4389
vn 0.2620 -0.6812 -0.6836
vn -0.2497 -0.6859 -0.6836
vn 0.2598 -0.4366 -0.8614
vn 0.7056 -0.3167 -0.6339
vn -0.2519 -0.4412 -0.8614
vn 0.2572 -0.1489 -0.9548
vn -0.9654 0.0323 0.2586
vn -0.2545 -0.1535 -0.9548
vn -0.9999 -0.0002 -0.0107
vn 0.9654 -0.0322 -0.2586
vt 0.600000 0.500000
vt 0.550000 0.583333
vt 0.550000 0.500000
vt 0.600000 0.583333
vt 0.550000 0.666667
vt 0.600000 0.666667
vt 0.550000 0.750000
vt 0.600000 0.750000
vt 0.550000 0.833333
vt 0.600000 0.833333
vt 0.550000 0.916667
vt 0.600000 0.083333
vt 0.550000 0.166667
vt 0.550000 0.083333
vt 0.600000 0.250000
vt 0.550000 0.250000
vt 0.550000 0.333333
vt 0.600000 0.333333
vt 0.550000 0.416667
vt 0.600000 0.416667
vt 0.650000 0.500000
vt 0.650000 0.583333
vt 0.650000 0.666667
vt 0.650000 0.833333
vt 0.650000 0.916667
vt 0.600000 0.916667
vt 0.650000 0.083333
vt 0.600000 0.166667
vt 0.650000 0.166667
vt 0.650000 0.250000
vt 0.650000 0.333333
vt 0.650000 0.416667
vt 0.700000 0.500000
vt 0.700000 0.666667
vt 0.650000 0.750000
vt 0.700000 0.833333
vt 0.700000 0.916667
vt 0.700000 0.083333
vt 0.700000 0.166667
vt 0.700000 0.333333
vt 0.750000 0.500000
vt 0.700000 0.583333
vt 0.750000 0.583333
vt 0.750000 0.750000
vt 0.700000 0.750000
vt 0.750000 0.833333
vt 0.750000 0.083333
vt 0.750000 0.166667
vt 0.700000 0.250000
vt 0.750000 0.333333
vt 0.700000 0.416667
vt 0.750000 0.416667
vt 0.800000 0.500000
vt 0.800000 0.583333
vt 0.750000 0.666667
vt 0.800000 0.666667
vt 0.800000 0.750000
vt 0.800000 0.833333
vt 0.750000 0.916667
vt 0.800000 0.083333
vt 0.800000 0.250000
vt 0.750000 0.250000
vt 0.800000 0.333333
vt 0.800000 0.416667
vt 0.850000 0.583333
vt 0.850000 0.666667
vt 0.850000 0.750000
vt 0.850000 0.833333
vt 0.800000 0.916667
vt 0.850000 0.083333
vt 0.800000 0.166667
vt 0.850000 0.250000
vt 0.850000 0.333333
vt 0.850000 0.416667
vt 0.850000 0.500000
vt 0.900000 0.583333
vt 0.900000 0.666667
vt 0.900000 0.750000
vt 0.900000 0.916667
vt 0.850000 0.916667
vt 0.900000 0.083333
vt 0.850000 0.166667
vt 0.900000 0.166667
vt 0.900000 0.250000
vt 0.900000 0.333333
vt 0.900000 0.416667
vt 0.900000 0.500000
vt 0.950000 0.583333
vt 0.950000 0.750000
vt 0.900000 0.833333
vt 0.950000 0.833333
vt 0.950000 0.083333
vt 0.950000 0.166667
vt 0.950000 0.333333
vt 0.950000 0.416667
vt 1.000000 0.500000
vt 0.950000 0.500000
vt 1.000000 0.583333
vt 0.950000 0.666667
vt 1.000000 0.666667
vt 1.000000 0.750000
vt 1.000000 0.833333
vt 0.950000 0.916667
vt 1.000000 0.083333
vt 1.000000 0.166667
vt 0.950000 0.250000
vt 1.000000 0.250000
vt 1.000000 0.416667
vt 0.050000 0.500000
vt 0.000000 0.583333
vt 0.000000 0.500000
vt 0.050000 0.583333
vt 0.000000 0.666667
vt 0.050000 0.666667
vt 0.000000 0.750000
vt 0.050000 0.750000
vt 0.000000 0.833333
vt 0.050000 0.833333
vt 0.000000 0.916667
vt 0.050000 0.083333
vt 0.000000 0.166667
vt 0.000000 0.083333
vt 0.050000 0.166667
vt 0.000000 0.250000
vt 0.050000 0.250000
vt 0.000000 0.333333
vt 0.050000 0.333333
vt 0.000000 0.416667
vt 0.050000 0.416667
vt 0.100000 0.500000
vt 0.100000 0.583333
vt 0.100000 0.750000
vt 0.100000 0.833333
vt 0.050000 0.916667
vt 0.100000 0.083333
vt 0.100000 0.250000
vt 0.100000 0.333333
vt 0.150000 0.500000
vt 0.150000 0.666667
vt 0.100000 0.666667
vt 0.150000 0.833333
vt 0.100000 0.916667
vt 0.150000 0.083333
vt 0.100000 0.166667
vt 0.150000 0.250000
vt 0.150000 0.333333
vt 0.100000 0.416667
vt 0.200000 0.500000
vt 0.150000 0.583333
vt 0.200000 0.666667
vt 0.150000 0.750000
vt 0.200000 0.750000
vt 0.200000 0.833333
vt 0.150000 0.916667
vt 0.200000 0.083333
vt 0.150000 0.166667
vt 0.200000 0.166667
vt 0.200000 0.250000
vt 0.200000 0.416667
vt 0.150000 0.416667
vt 0.250000 0.500000
vt 0.200000 0.583333
vt 0.250000 0.583333
vt 0.250000 0.666667
vt 0.250000 0.833333
vt 0.200000 0.916667
vt 0.250000 0.166667
vt 0.250000 0.250000
vt 0.200000 0.333333
vt 0.250000 0.416667
vt 0.300000 0.500000
vt 0.300000 0.583333
vt 0.300000 0.666667
vt 0.250000 0.750000
vt 0.300000 0.833333
vt 0.250000 0.916667
vt 0.300000 0.083333
vt 0.250000 0.083333
vt 0.300000 0.166667
vt 0.300000 0.333333
vt 0.250000 0.333333
vt 0.300000 0.416667
vt 0.350000 0.500000
vt 0.350000 0.666667
vt 0.300000 0.750000
vt 0.350000 0.750000
vt 0.350000 0.833333
vt 0.300000 0.916667
vt 0.350000 0.083333
vt 0.350000 0.166667
vt 0.300000 0.250000
vt 0.350000 0.333333
vt 0.400000 0.500000
vt 0.350000 0.583333
vt 0.400000 0.583333
vt 0.400000 0.666667
vt 0.400000 0.750000
vt 0.400000 0.833333
vt 0.350000 0.916667
vt 0.400000 0.083333
vt 0.400000 0.166667
vt 0.350000 0.250000
vt 0.400000 0.333333
vt 0.400000 0.416667
vt 0.350000 0.416667
vt 0.450000 0.583333
vt 0.450000 0.750000
vt 0.450000 0.833333
vt 0.400000 0.916667
vt 0.450000 0.083333
vt 0.450000 0.166667
vt 0.400000 0.250000
vt 0.450000 0.333333
vt 0.450000 0.416667
vt 0.500000 0.500000
vt 0.450000 0.500000
vt 0.500000 0.583333
vt 0.450000 0.666667
vt 0.500000 0.666667
vt 0.500000 0.750000
vt 0.500000 0.833333
vt 0.450000 0.916667
vt 0.500000 0.083333
vt 0.500000 0.166667
vt 0.450000 0.250000
vt 0.500000 0.333333
vt 0.500000 0.416667
vt 0.500000 0.916667
vt 0.500000 0.250000
vt 0.000000 0.000000
vt 1.000000 0.916667
vt 1.000000 0.333333
s 0
usemtl Marca_rueda_roja.001
f 23/21/11 13/4/11 12/1/11
f 24/22/12 14/6/12 13/4/12
f 25/23/13 15/8/13 14/6/13
f 15/8/14 27/24/14 16/10/14
f 16/10/15 28/25/15 17/26/15
f 29/27/16 19/28/16 18/12/16
f 30/29/17 20/15/17 19/28/17
f 31/30/18 21/18/18 20/15/18
f 32/31/19 22/20/19 21/18/19
f 33/32/20 12/1/20 22/20/20
f 45/41/31 35/42/31 34/33/31
f 46/43/32 36/34/32 35/42/32
f 36/34/33 48/44/33 37/45/33
f 37/45/34 49/46/34 38/36/34
f 49/46/35 39/37/35 38/36/35
f 51/47/36 41/39/36 40/38/36
f 52/48/37 42/49/37 41/39/37
f 42/49/38 54/50/38 43/40/38
f 54/50/39 44/51/39 43/40/39
f 55/52/40 34/33/40 44/51/40
f 56/53/51 68/65/51 57/54/51
f 68/65/52 58/56/52 57/54/52
f 69/66/53 59/57/53 58/56/53
f 70/67/54 60/58/54 59/57/54
f 71/68/55 61/69/55 60/58/55
f 73/70/56 63/71/56 62/60/56
f 63/71/57 75/72/57 64/61/57
f 75/72/58 65/63/58 64/61/58
f 76/73/59 66/64/59 65/63/59
f 77/74/60 56/53/60 66/64/60
f 78/87/71 90/88/71 79/76/71
f 90/88/72 80/77/72 79/76/72
f 80/77/73 92/89/73 81/78/73
f 92/89/74 82/90/74 81/78/74
f 93/91/75 83/79/75 82/90/75
f 95/92/76 85/83/76 84/81/76
f 96/93/77 86/84/77 85/83/77
f 86/84/78 98/94/78 87/85/78
f 98/94/79 88/86/79 87/85/79
f 99/95/80 78/87/80 88/86/80
f 111/109/91 101/110/91 100/111/91
f 112/112/92 102/113/92 101/110/92
f 113/114/93 103/115/93 102/113/93
f 114/116/94 104/117/94 103/115/94
f 115/118/95 105/119/95 104/117/95
f 117/120/96 107/121/96 106/122/96
f 118/123/97 108/124/97 107/121/97
f 119/125/98 109/126/98 108/124/98
f 120/127/99 110/128/99 109/126/99
f 121/129/100 100/111/100 110/128/100
f 133/138/105 123/131/105 122/130/105
f 123/131/15 135/139/15 124/140/15
f 135/139/14 125/132/14 124/140/14
f 125/132/13 137/141/13 126/133/13
f 137/141/12 127/142/12 126/133/12
f 139/143/19 129/144/19 128/135/19
f 129/144/18 141/145/18 130/136/18
f 130/136/17 142/146/17 131/137/17
f 142/146/16 132/147/16 131/137/16
f 132/147/106 133/138/106 122/130/106
f 155/161/109 145/162/109 144/148/109
f 156/163/35 146/150/35 145/162/35
f 157/164/34 147/152/34 146/150/34
f 147/152/33 159/165/33 148/153/33
f 159/165/32 149/166/32 148/153/32
f 150/155/39 162/167/39 151/157/39
f 162/167/38 152/158/38 151/157/38
f 163/168/37 153/169/37 152/158/37
f 153/169/36 165/170/36 154/159/36
f 165/170/110 144/148/110 154/159/110
f 177/183/113 167/172/113 166/171/113
f 167/172/55 179/184/55 168/173/55
f 179/184/54 169/185/54 168/173/54
f 180/186/53 170/175/53 169/185/53
f 181/187/52 171/188/52 170/175/52
f 183/189/59 173/179/59 172/177/59
f 184/190/58 174/191/58 173/179/58
f 174/191/57 186/192/57 175/180/57
f 186/192/56 176/182/56 175/180/56
f 176/182/114 177/183/114 166/171/114
f 188/193/117 200/206/117 189/195/117
f 200/206/75 190/196/75 189/195/75
f 190/196/74 202/207/74 191/197/74
f 202/207/73 192/198/73 191/197/73
f 203/208/72 193/209/72 192/198/72
f 205/210/79 195/201/79 194/200/79
f 206/211/78 196/212/78 195/201/78
f 196/212/77 208/213/77 197/203/77
f 197/203/76 209/214/76 198/204/76
f 209/214/118 188/193/118 198/204/118
f 1/3/122 211/217/122 210/215/122
f 2/2/95 212/219/95 211/217/95
f 3/5/94 213/220/94 212/219/94
f 4/7/93 214/221/93 213/220/93
f 5/9/92 215/228/92 214/221/92
f 7/14/99 217/224/99 216/223/99
f 8/13/123 218/229/123 217/224/123
f 9/16/97 219/226/97 218/229/97
f 10/17/96 220/227/96 219/226/96
f 11/19/124 210/215/124 220/227/124
f 23/21/11 24/22/11 13/4/11
f 24/22/12 25/23/12 14/6/12
f 25/23/13 26/35/13 15/8/13
f 15/8/14 26/35/14 27/24/14
f 16/10/15 27/24/15 28/25/15
f 29/27/16 30/29/16 19/28/16
f 30/29/17 31/30/17 20/15/17
f 31/30/18 32/31/18 21/18/18
f 32/31/19 33/32/19 22/20/19
f 33/32/20 23/21/20 12/1/20
f 45/41/31 46/43/31 35/42/31
f 46/43/32 47/55/32 36/34/32
f 36/34/33 47/55/33 48/44/33
f 37/45/34 48/44/34 49/46/34
f 49/46/35 50/59/35 39/37/35
f 51/47/36 52/48/36 41/39/36
f 52/48/37 53/62/37 42/49/37
f 42/49/38 53/62/38 54/50/38
f 54/50/39 55/52/39 44/51/39
f 55/52/40 45/41/40 34/33/40
f 56/53/51 67/75/51 68/65/51
f 68/65/52 69/66/52 58/56/52
f 69/66/53 70/67/53 59/57/53
f 70/67/54 71/68/54 60/58/54
f 71/68/55 72/80/55 61/69/55
f 73/70/56 74/82/56 63/71/56
f 63/71/57 74/82/57 75/72/57
f 75/72/58 76/73/58 65/63/58
f 76/73/59 77/74/59 66/64/59
f 77/74/60 67/75/60 56/53/60
f 78/87/71 89/97/71 90/88/71
f 90/88/72 91/99/72 80/77/72
f 80/77/73 91/99/73 92/89/73
f 92/89/74 93/91/74 82/90/74
f 93/91/75 94/103/75 83/79/75
f 95/92/76 96/93/76 85/83/76
f 96/93/77 97/106/77 86/84/77
f 86/84/78 97/106/78 98/94/78
f 98/94/79 99/95/79 88/86/79
f 99/95/80 89/97/80 78/87/80
f 111/109/91 112/112/91 101/110/91
f 112/112/92 113/114/92 102/113/92
f 113/114/93 114/116/93 103/115/93
f 114/116/94 115/118/94 104/117/94
f 115/118/95 116/134/95 105/119/95
f 117/120/96 118/123/96 107/121/96
f 118/123/97 119/125/97 108/124/97
f 119/125/123 120/127/123 109/126/123
f 120/127/99 121/129/99 110/128/99
f 121/129/100 111/109/100 100/111/100
f 133/138/105 134/149/105 123/131/105
f 123/131/15 134/149/15 135/139/15
f 135/139/14 136/151/14 125/132/14
f 125/132/13 136/151/13 137/141/13
f 137/141/12 138/154/12 127/142/12
f 139/143/19 140/156/19 129/144/19
f 129/144/18 140/156/18 141/145/18
f 130/136/17 141/145/17 142/146/17
f 142/146/16 143/160/16 132/147/16
f 132/147/106 143/160/106 133/138/106
f 155/161/109 156/163/109 145/162/109
f 156/163/35 157/164/35 146/150/35
f 157/164/34 158/174/34 147/152/34
f 147/152/33 158/174/33 159/165/33
f 159/165/32 160/176/32 149/166/32
f 150/155/39 161/178/39 162/167/39
f 162/167/38 163/168/38 152/158/38
f 163/168/37 164/181/37 153/169/37
f 153/169/36 164/181/36 165/170/36
f 165/170/110 155/161/110 144/148/110
f 177/183/113 178/194/113 167/172/113
f 167/172/55 178/194/55 179/184/55
f 179/184/54 180/186/54 169/185/54
f 180/186/53 181/187/53 170/175/53
f 181/187/52 182/199/52 171/188/52
f 183/189/59 184/190/59 173/179/59
f 184/190/58 185/202/58 174/191/58
f 174/191/57 185/202/57 186/192/57
f 186/192/56 187/205/56 176/182/56
f 176/182/114 187/205/114 177/183/114
f 188/193/117 199/216/117 200/206/117
f 200/206/75 201/218/75 190/196/75
f 190/196/74 201/218/74 202/207/74
f 202/207/73 203/208/73 192/198/73
f 203/208/72 204/222/72 193/209/72
f 205/210/79 206/211/79 195/201/79
f 206/211/78 207/225/78 196/212/78
f 196/212/77 207/225/77 208/213/77
f 197/203/76 208/213/76 209/214/76
f 209/214/118 199/216/118 188/193/118
f 1/3/122 2/2/122 211/217/122
f 2/2/95 3/5/95 212/219/95
f 3/5/126 4/7/126 213/220/126
f 4/7/93 5/9/93 214/221/93
f 5/9/92 6/11/92 215/228/92
f 7/14/99 8/13/99 217/224/99
f 8/13/98 9/16/98 218/229/98
f 9/16/97 10/17/97 219/226/97
f 10/17/96 11/19/96 220/227/96
f 11/19/124 1/3/124 210/215/124
usemtl ruedaRoja.001
f 12/1/1 2/2/1 1/3/1
f 13/4/2 3/5/2 2/2/2
f 14/6/3 4/7/3 3/5/3
f 15/8/4 5/9/4 4/7/4
f 16/10/5 6/11/5 5/9/5
f 18/12/6 8/13/6 7/14/6
f 8/13/7 20/15/7 9/16/7
f 20/15/8 10/17/8 9/16/8
f 21/18/9 11/19/9 10/17/9
f 22/20/10 1/3/10 11/19/10
f 34/33/21 24/22/21 23/21/21
f 24/22/22 36/34/22 25/23/22
f 36/34/23 26/35/23 25/23/23
f 26/35/24 38/36/24 27/24/24
f 27/24/25 39/37/25 28/25/25
f 40/38/26 30/29/26 29/27/26
f 41/39/27 31/30/27 30/29/27
f 31/30/28 43/40/28 32/31/28
f 43/40/29 33/32/29 32/31/29
f 33/32/30 34/33/30 23/21/30
f 56/53/41 46/43/41 45/41/41
f 57/54/42 47/55/42 46/43/42
f 58/56/43 48/44/43 47/55/43
f 59/57/44 49/46/44 48/44/44
f 60/58/45 50/59/45 49/46/45
f 62/60/46 52/48/46 51/47/46
f 52/48/47 64/61/47 53/62/47
f 53/62/48 65/63/48 54/50/48
f 54/50/49 66/64/49 55/52/49
f 66/64/50 45/41/50 55/52/50
f 67/75/61 79/76/61 68/65/61
f 68/65/62 80/77/62 69/66/62
f 80/77/63 70/67/63 69/66/63
f 81/78/64 71/68/64 70/67/64
f 71/68/65 83/79/65 72/80/65
f 84/81/66 74/82/66 73/70/66
f 85/83/67 75/72/67 74/82/67
f 86/84/68 76/73/68 75/72/68
f 87/85/69 77/74/69 76/73/69
f 88/86/70 67/75/70 77/74/70
f 100/96/81 90/88/81 89/97/81
f 101/98/82 91/99/82 90/88/82
f 102/100/83 92/89/83 91/99/83
f 103/101/84 93/91/84 92/89/84
f 104/102/85 94/103/85 93/91/85
f 106/104/86 96/93/86 95/92/86
f 107/105/87 97/106/87 96/93/87
f 108/107/88 98/94/88 97/106/88
f 98/94/89 110/108/89 99/95/89
f 99/95/90 100/96/90 89/97/90
f 122/130/101 112/112/101 111/109/101
f 123/131/5 113/114/5 112/112/5
f 113/114/102 125/132/102 114/116/102
f 125/132/3 115/118/3 114/116/3
f 126/133/2 116/134/2 115/118/2
f 128/135/9 118/123/9 117/120/9
f 118/123/103 130/136/103 119/125/103
f 130/136/7 120/127/7 119/125/7
f 131/137/6 121/129/6 120/127/6
f 121/129/104 122/130/104 111/109/104
f 144/148/107 134/149/107 133/138/107
f 134/149/25 146/150/25 135/139/25
f 146/150/24 136/151/24 135/139/24
f 147/152/23 137/141/23 136/151/23
f 148/153/22 138/154/22 137/141/22
f 150/155/29 140/156/29 139/143/29
f 151/157/28 141/145/28 140/156/28
f 152/158/27 142/146/27 141/145/27
f 142/146/26 154/159/26 143/160/26
f 154/159/108 133/138/108 143/160/108
f 166/171/111 156/163/111 155/161/111
f 167/172/45 157/164/45 156/163/45
f 168/173/44 158/174/44 157/164/44
f 158/174/43 170/175/43 159/165/43
f 170/175/42 160/176/42 159/165/42
f 172/177/49 162/167/49 161/178/49
f 173/179/48 163/168/48 162/167/48
f 163/168/47 175/180/47 164/181/47
f 175/180/46 165/170/46 164/181/46
f 176/182/112 155/161/112 165/170/112
f 188/193/115 178/194/115 177/183/115
f 189/195/65 179/184/65 178/194/65
f 190/196/64 180/186/64 179/184/64
f 191/197/63 181/187/63 180/186/63
f 192/198/62 182/199/62 181/187/62
f 194/200/69 184/190/69 183/189/69
f 195/201/68 185/202/68 184/190/68
f 185/202/67 197/203/67 186/192/67
f 186/192/66 198/204/66 187/205/66
f 198/204/116 177/183/116 187/205/116
f 210/215/119 200/206/119 199/216/119
f 211/217/120 201/218/120 200/206/120
f 212/219/84 202/207/84 201/218/84
f 213/220/83 203/208/83 202/207/83
f 214/221/82 204/222/82 203/208/82
f 216/223/89 206/211/89 205/210/89
f 217/224/88 207/225/88 206/211/88
f 207/225/87 219/226/87 208/213/87
f 219/226/86 209/214/86 208/213/86
f 220/227/121 199/216/121 209/214/121
f 12/1/1 13/4/1 2/2/1
f 13/4/2 14/6/2 3/5/2
f 14/6/3 15/8/3 4/7/3
f 15/8/102 16/10/102 5/9/102
f 16/10/5 17/26/5 6/11/5
f 18/12/6 19/28/6 8/13/6
f 8/13/7 19/28/7 20/15/7
f 20/15/103 21/18/103 10/17/103
f 21/18/9 22/20/9 11/19/9
f 22/20/10 12/1/10 1/3/10
f 34/33/21 35/42/21 24/22/21
f 24/22/22 35/42/22 36/34/22
f 36/34/23 37/45/23 26/35/23
f 26/35/24 37/45/24 38/36/24
f 27/24/25 38/36/25 39/37/25
f 40/38/26 41/39/26 30/29/26
f 41/39/27 42/49/27 31/30/27
f 31/30/28 42/49/28 43/40/28
f 43/40/29 44/51/29 33/32/29
f 33/32/30 44/51/30 34/33/30
f 56/53/41 57/54/41 46/43/41
f 57/54/42 58/56/42 47/55/42
f 58/56/43 59/57/43 48/44/43
f 59/57/44 60/58/44 49/46/44
f 60/58/45 61/69/45 50/59/45
f 62/60/46 63/71/46 52/48/46
f 52/48/47 63/71/47 64/61/47
f 53/62/48 64/61/48 65/63/48
f 54/50/49 65/63/49 66/64/49
f 66/64/50 56/53/50 45/41/50
f 67/75/61 78/87/61 79/76/61
f 68/65/62 79/76/62 80/77/62
f 80/77/63 81/78/63 70/67/63
f 81/78/64 82/90/64 71/68/64
f 71/68/65 82/90/65 83/79/65
f 84/81/66 85/83/66 74/82/66
f 85/83/67 86/84/67 75/72/67
f 86/84/68 87/85/68 76/73/68
f 87/85/69 88/86/69 77/74/69
f 88/86/70 78/87/70 67/75/70
f 100/96/81 101/98/81 90/88/81
f 101/98/82 102/100/82 91/99/82
f 102/100/83 103/101/83 92/89/83
f 103/101/84 104/102/84 93/91/84
f 104/102/85 105/231/85 94/103/85
f 106/104/86 107/105/86 96/93/86
f 107/105/87 108/107/87 97/106/87
f 108/107/88 109/232/88 98/94/88
f 98/94/89 109/232/89 110/108/89
f 99/95/90 110/108/90 100/96/90
f 122/130/101 123/131/101 112/112/101
f 123/131/5 124/140/5 113/114/5
f 113/114/4 124/140/4 125/132/4
f 125/132/3 126/133/3 115/118/3
f 126/133/2 127/142/2 116/134/2
f 128/135/9 129/144/9 118/123/9
f 118/123/103 129/144/103 130/136/103
f 130/136/7 131/137/7 120/127/7
f 131/137/6 132/147/6 121/129/6
f 121/129/104 132/147/104 122/130/104
f 144/148/107 145/162/107 134/149/107
f 134/149/25 145/162/25 146/150/25
f 146/150/24 147/152/24 136/151/24
f 147/152/23 148/153/23 137/141/23
f 148/153/22 149/166/22 138/154/22
f 150/155/29 151/157/29 140/156/29
f 151/157/28 152/158/28 141/145/28
f 152/158/27 153/169/27 142/146/27
f 142/146/26 153/169/26 154/159/26
f 154/159/108 144/148/108 133/138/108
f 166/171/111 167/172/111 156/163/111
f 167/172/45 168/173/45 157/164/45
f 168/173/44 169/185/44 158/174/44
f 158/174/43 169/185/43 170/175/43
f 170/175/42 171/188/42 160/176/42
f 172/177/49 173/179/49 162/167/49
f 173/179/48 174/191/48 163/168/48
f 163/168/47 174/191/47 175/180/47
f 175/180/46 176/182/46 165/170/46
f 176/182/112 166/171/112 155/161/112
f 188/193/115 189/195/115 178/194/115
f 189/195/65 190/196/65 179/184/65
f 190/196/64 191/197/64 180/186/64
f 191/197/63 192/198/63 181/187/63
f 192/198/62 193/209/62 182/199/62
f 194/200/69 195/201/69 184/190/69
f 195/201/68 196/212/68 185/202/68
f 185/202/67 196/212/67 197/203/67
f 186/192/66 197/203/66 198/204/66
f 198/204/116 188/193/116 177/183/116
f 210/215/119 211/217/119 200/206/119
f 211/217/85 212/219/85 201/218/85
f 212/219/84 213/220/84 202/207/84
f 213/220/83 214/221/83 203/208/83
f 214/221/82 215/228/82 204/222/82
f 216/223/89 217/224/89 206/211/89
f 217/224/88 218/229/88 207/225/88
f 207/225/87 218/229/87 219/226/87
f 219/226/86 220/227/86 209/214/86
f 220/227/121 210/215/121 199/216/121
usemtl Material.011
f 237/230/125 245/230/125 221/230/125
f 221/230/125 222/230/125 223/230/125
f 223/230/125 224/230/125 225/230/125
f 225/230/125 226/230/125 227/230/125
f 227/230/125 228/230/125 229/230/125
f 229/230/125 230/230/125 231/230/125
f 231/230/125 232/230/125 233/230/125
f 233/230/125 234/230/125 235/230/125
f 235/230/125 236/230/125 237/230/125
f 237/230/125 238/230/125 239/230/125
f 239/230/125 240/230/125 241/230/125
f 241/230/125 242/230/125 243/230/125
f 243/230/125 244/230/125 245/230/125
f 245/230/125 246/230/125 247/230/125
f 247/230/125 248/230/125 249/230/125
f 249/230/125 250/230/125 251/230/125
f 251/230/125 252/230/125 221/230/125
f 221/230/125 223/230/125 225/230/125
f 225/230/125 227/230/125 229/230/125
f 229/230/125 231/230/125 233/230/125
f 233/230/125 235/230/125 237/230/125
f 237/230/125 239/230/125 241/230/125
f 241/230/125 243/230/125 245/230/125
f 245/230/125 247/230/125 249/230/125
f 249/230/125 251/230/125 221/230/125
f 221/230/125 225/230/125 229/230/125
f 229/230/125 233/230/125 237/230/125
f 237/230/125 241/230/125 245/230/125
f 245/230/125 249/230/125 221/230/125
f 221/230/125 229/230/125 237/230/125
usemtl Material.011
f 269/230/125 277/230/125 253/230/125
f 253/230/125 254/230/125 255/230/125
f 255/230/125 256/230/125 257/230/125
f 257/230/125 258/230/125 259/230/125
f 259/230/125 260/230/125 261/230/125
f 261/230/125 262/230/125 263/230/125
f 263/230/125 264/230/125 265/230/125
f 265/230/125 266/230/125 267/230/125
f 267/230/125 268/230/125 269/230/125
f 269/230/125 270/230/125 271/230/125
f 271/230/125 272/230/125 273/230/125
f 273/230/125 274/230/125 275/230/125
f 275/230/125 276/230/125 277/230/125
f 277/230/125 278/230/125 279/230/125
f 279/230/125 280/230/125 281/230/125
f 281/230/125 282/230/125 283/230/125
f 283/230/125 284/230/125 253/230/125
f 253/230/125 255/230/125 257/230/125
f 257/230/125 259/230/125 261/230/125
f 261/230/125 263/230/125 265/230/125
f 265/230/125 267/230/125 269/230/125
f 269/230/125 271/230/125 273/230/125
f 273/230/125 275/230/125 277/230/125
f 277/230/125 279/230/125 281/230/125
f 281/230/125 283/230/125 253/230/125
f 253/230/125 257/230/125 261/230/125
f 261/230/125 265/230/125 269/230/125
f 269/230/125 273/230/125 277/230/125
f 277/230/125 281/230/125 253/230/125
f 253/230/125 261/230/125 269/230/125
