# Blender 4.5.3 LTS
# www.blender.org
mtllib Rueda.mtl
o Torus.001
v 0.001874 -0.186765 -0.004551
v -0.016532 -0.181833 -0.004385
v -0.030005 -0.168359 -0.004263
v -0.034937 -0.149953 -0.004219
v -0.030005 -0.131547 -0.004263
v -0.016532 -0.118073 -0.004385
v 0.020279 -0.118073 -0.004717
v 0.033753 -0.131547 -0.004838
v 0.038684 -0.149953 -0.004883
v 0.033753 -0.168359 -0.004838
v 0.020279 -0.181833 -0.004717
v 0.002387 -0.177757 0.052325
v -0.016032 -0.173066 0.050967
v -0.029544 -0.160251 0.046925
v -0.034527 -0.142746 0.041282
v -0.029646 -0.125241 0.035550
v -0.016210 -0.112426 0.031265
v 0.020601 -0.112426 0.030933
v 0.034112 -0.125241 0.034975
v 0.039095 -0.142746 0.040618
v 0.034215 -0.160251 0.046350
v 0.020778 -0.173066 0.050635
v 0.002850 -0.151613 0.103634
v -0.015582 -0.147623 0.100901
v -0.029127 -0.136722 0.093103
v -0.034156 -0.121831 0.082329
v -0.029322 -0.106940 0.071466
v -0.015920 -0.096039 0.063425
v 0.020891 -0.096039 0.063093
v 0.034436 -0.106940 0.070891
v 0.039465 -0.121831 0.081665
v 0.034631 -0.136722 0.092528
v 0.021229 -0.147623 0.100569
v 0.003217 -0.110892 0.144352
v -0.015224 -0.107993 0.140529
v -0.028796 -0.100073 0.129750
v -0.033862 -0.089255 0.114904
v -0.029065 -0.078436 0.099969
v -0.015690 -0.070516 0.088947
v 0.021121 -0.070516 0.088615
v 0.034693 -0.078436 0.099394
v 0.039759 -0.089255 0.114240
v 0.034962 -0.100073 0.129174
v 0.021586 -0.107993 0.140196
v 0.003453 -0.059582 0.170495
v -0.014995 -0.058058 0.165971
v -0.028584 -0.053894 0.153278
v -0.033674 -0.048206 0.135818
v -0.028900 -0.042518 0.118269
v -0.015542 -0.038355 0.105333
v 0.021269 -0.038355 0.105001
v 0.034858 -0.042518 0.117694
v 0.039948 -0.048206 0.135154
v 0.035174 -0.053894 0.152703
v 0.021816 -0.058058 0.165639
v 0.003534 -0.002704 0.179504
v -0.014916 -0.002704 0.174738
v -0.028511 -0.002704 0.161386
v -0.033609 -0.002704 0.143025
v -0.028843 -0.002704 0.124575
v -0.015491 -0.002704 0.110980
v 0.021320 -0.002704 0.110648
v 0.034915 -0.002704 0.124000
v 0.040013 -0.002704 0.142361
v 0.035247 -0.002704 0.160811
v 0.021895 -0.002704 0.174406
v 0.003453 0.054175 0.170495
v -0.014995 0.052651 0.165971
v -0.028584 0.048487 0.153278
v -0.033674 0.042799 0.135818
v -0.028900 0.037111 0.118269
v -0.015542 0.032947 0.105333
v 0.021269 0.032947 0.105001
v 0.034858 0.037111 0.117694
v 0.039948 0.042799 0.135154
v 0.035174 0.048487 0.152703
v 0.021816 0.052651 0.165639
v 0.003217 0.105485 0.144352
v -0.015224 0.102586 0.140529
v -0.028796 0.094666 0.129750
v -0.033862 0.083847 0.114904
v -0.029065 0.073029 0.099969
v -0.015690 0.065109 0.088947
v 0.021121 0.065109 0.088615
v 0.034693 0.073029 0.099394
v 0.039759 0.083847 0.114240
v 0.034962 0.094666 0.129174
v 0.021586 0.102586 0.140196
v 0.002850 0.146205 0.103634
v -0.015582 0.142215 0.100901
v -0.029127 0.131315 0.093103
v -0.034156 0.116424 0.082329
v -0.029322 0.101533 0.071466
v -0.015920 0.090632 0.063425
v 0.020891 0.090632 0.063093
v 0.034436 0.101533 0.070891
v 0.039465 0.116424 0.081665
v 0.034631 0.131315 0.092528
v 0.021229 0.142215 0.100569
v 0.002387 0.172350 0.052325
v -0.016032 0.167659 0.050967
v -0.029544 0.154844 0.046925
v -0.034527 0.137339 0.041282
v -0.029646 0.119834 0.035550
v -0.016210 0.107019 0.031265
v 0.020601 0.107019 0.030933
v 0.034112 0.119834 0.034975
v 0.039095 0.137339 0.040618
v 0.034215 0.154844 0.046350
v 0.020778 0.167659 0.050635
v 0.001874 0.181358 -0.004551
v -0.016532 0.176426 -0.004385
v -0.030005 0.162952 -0.004263
v -0.034937 0.144546 -0.004219
v -0.030005 0.126140 -0.004263
v -0.016532 0.112665 -0.004385
v 0.020279 0.112665 -0.004717
v 0.033753 0.126140 -0.004838
v 0.038684 0.144546 -0.004883
v 0.033753 0.162952 -0.004838
v 0.020279 0.176426 -0.004717
v 0.001361 0.172350 -0.061426
v -0.017031 0.167659 -0.059736
v -0.030467 0.154844 -0.055451
v -0.035348 0.137339 -0.049719
v -0.030365 0.119834 -0.044076
v -0.016853 0.107019 -0.040034
v 0.019957 0.107019 -0.040366
v 0.033394 0.119834 -0.044651
v 0.038274 0.137339 -0.050383
v 0.033291 0.154844 -0.056026
v 0.019780 0.167659 -0.060069
v 0.000898 0.146206 -0.112735
v -0.017482 0.142216 -0.109670
v -0.030884 0.131315 -0.101629
v -0.035718 0.116424 -0.090766
v -0.030689 0.101533 -0.079992
v -0.017144 0.090632 -0.072194
v 0.019667 0.090632 -0.072526
v 0.033070 0.101533 -0.080567
v 0.037904 0.116424 -0.091430
v 0.032874 0.131315 -0.102204
v 0.019329 0.142216 -0.110002
v 0.000530 0.105485 -0.153454
v -0.017839 0.102586 -0.149298
v -0.031215 0.094666 -0.138276
v -0.036012 0.083847 -0.123341
v -0.030946 0.073029 -0.108495
v -0.017374 0.065109 -0.097716
v 0.019437 0.065109 -0.098048
v 0.032812 0.073029 -0.109070
v 0.037610 0.083847 -0.124005
v 0.032544 0.094666 -0.138851
v 0.018972 0.102586 -0.149630
v 0.000294 0.054175 -0.179597
v -0.018069 0.052651 -0.174740
v -0.031427 0.048487 -0.161804
v -0.036201 0.042799 -0.144255
v -0.031111 0.037111 -0.126795
v -0.017522 0.032947 -0.114103
v 0.019289 0.032947 -0.114435
v 0.032647 0.037111 -0.127370
v 0.037421 0.042799 -0.144920
v 0.032331 0.048487 -0.162380
v 0.018742 0.052651 -0.175072
v 0.000213 -0.002704 -0.188605
v -0.018148 -0.002704 -0.183507
v -0.031500 -0.002704 -0.169912
v -0.036266 -0.002704 -0.151462
v -0.031168 -0.002704 -0.133101
v -0.017573 -0.002704 -0.119749
v 0.019238 -0.002704 -0.120081
v 0.032590 -0.002704 -0.133676
v 0.037356 -0.002704 -0.152126
v 0.032258 -0.002704 -0.170487
v 0.018663 -0.002704 -0.183839
v 0.000294 -0.059582 -0.179597
v -0.018069 -0.058058 -0.174740
v -0.031427 -0.053894 -0.161804
v -0.036201 -0.048206 -0.144255
v -0.031111 -0.042518 -0.126795
v -0.017522 -0.038355 -0.114103
v 0.019289 -0.038355 -0.114435
v 0.032647 -0.042518 -0.127370
v 0.037421 -0.048206 -0.144920
v 0.032331 -0.053894 -0.162380
v 0.018742 -0.058058 -0.175072
v 0.000530 -0.110892 -0.153454
v -0.017839 -0.107993 -0.149298
v -0.031215 -0.100073 -0.138276
v -0.036012 -0.089255 -0.123341
v -0.030946 -0.078436 -0.108495
v -0.017374 -0.070516 -0.097716
v 0.019437 -0.070516 -0.098048
v 0.032812 -0.078436 -0.109070
v 0.037610 -0.089255 -0.124005
v 0.032544 -0.100073 -0.138851
v 0.018972 -0.107993 -0.149630
v 0.000898 -0.151613 -0.112735
v -0.017482 -0.147623 -0.109670
v -0.030884 -0.136722 -0.101629
v -0.035718 -0.121831 -0.090766
v -0.030689 -0.106940 -0.079992
v -0.017144 -0.096039 -0.072194
v 0.019667 -0.096039 -0.072526
v 0.033070 -0.106940 -0.080567
v 0.037904 -0.121831 -0.091430
v 0.032874 -0.136722 -0.102204
v 0.019329 -0.147623 -0.110002
v 0.001361 -0.177757 -0.061427
v -0.017031 -0.173066 -0.059737
v -0.030467 -0.160251 -0.055451
v -0.035348 -0.142746 -0.049719
v -0.030365 -0.125241 -0.044076
v -0.016853 -0.112426 -0.040034
v 0.019957 -0.112426 -0.040366
v 0.033394 -0.125241 -0.044651
v 0.038274 -0.142746 -0.050384
v 0.033291 -0.160251 -0.056027
v 0.019780 -0.173066 -0.060069
v 0.012590 -0.117817 0.090465
v 0.012415 -0.133785 0.066698
v 0.012292 -0.144809 0.040273
v 0.012226 -0.150467 0.012204
v 0.012221 -0.150540 -0.016429
v 0.012275 -0.145026 -0.044526
v 0.012387 -0.134137 -0.071007
v 0.012553 -0.118292 -0.094855
v 0.012766 -0.098098 -0.115154
v 0.013018 -0.074333 -0.131122
v 0.013299 -0.047909 -0.142148
v 0.013599 -0.019842 -0.147806
v 0.013906 0.008789 -0.147879
v 0.014208 0.036884 -0.142365
v 0.014494 0.063364 -0.131475
v 0.014753 0.087211 -0.115629
v 0.014974 0.107508 -0.095434
v 0.015149 0.123476 -0.071667
v 0.015272 0.134500 -0.045242
v 0.015338 0.140158 -0.017174
v 0.015344 0.140231 0.011459
v 0.015289 0.134718 0.039556
v 0.015177 0.123829 0.066038
v 0.015012 0.107983 0.089886
v 0.014799 0.087789 0.110184
v 0.014547 0.064024 0.126153
v 0.014265 0.037600 0.137178
v 0.013965 0.009533 0.142836
v 0.013658 -0.019098 0.142909
v 0.013356 -0.047193 0.137395
v 0.013070 -0.073673 0.126506
v 0.012811 -0.097520 0.110659
v -0.017866 -0.117817 0.090738
v -0.017925 -0.133785 0.066972
v -0.018048 -0.144809 0.040546
v -0.018114 -0.150467 0.012478
v -0.018235 -0.150540 -0.016155
v -0.018065 -0.145026 -0.044252
v -0.017953 -0.134137 -0.070733
v -0.017787 -0.118292 -0.094582
v -0.017690 -0.098098 -0.114880
v -0.017322 -0.074333 -0.130849
v -0.017041 -0.047909 -0.141874
v -0.016741 -0.019842 -0.147532
v -0.016550 0.008789 -0.147605
v -0.016132 0.036884 -0.142091
v -0.015846 0.063364 -0.131202
v -0.015587 0.087211 -0.115355
v -0.015482 0.107508 -0.095160
v -0.015191 0.123476 -0.071394
v -0.015068 0.134500 -0.044968
v -0.015002 0.140158 -0.016900
v -0.015112 0.140231 0.011733
v -0.015050 0.134718 0.039830
v -0.015163 0.123829 0.066311
v -0.015328 0.107983 0.090160
v -0.015657 0.087789 0.110458
v -0.015793 0.064024 0.126427
v -0.016075 0.037600 0.137452
v -0.016375 0.009533 0.143110
v -0.016798 -0.019098 0.143183
v -0.016984 -0.047193 0.137669
v -0.017270 -0.073673 0.126780
v -0.017528 -0.097520 0.110933
vn -0.2519 -0.8614 0.4412
vn -0.2519 -0.8613 0.4412
vn -0.6998 -0.6339 0.3293
vn -0.9640 -0.2333 0.1276
vn -0.9661 0.2333 -0.1102
vn -0.9661 0.2333 -0.1101
vn -0.7056 0.6339 -0.3166
vn 0.6998 0.6339 -0.3293
vn 0.9640 0.2333 -0.1276
vn 0.9662 -0.2333 0.1102
vn 0.7056 -0.6339 0.3166
vn 0.7056 -0.6339 0.3167
vn 0.2598 -0.8614 0.4365
vn -0.2480 -0.4389 0.8636
vn -0.6970 -0.3230 0.6402
vn -0.9630 -0.1189 0.2420
vn -0.9672 0.1189 -0.2246
vn -0.7084 0.3230 -0.6276
vn 0.6970 0.3230 -0.6402
vn 0.9630 0.1189 -0.2420
vn 0.9672 -0.1189 0.2246
vn 0.7084 -0.3230 0.6276
vn 0.2636 -0.4389 0.8590
vn -0.2472 0.1512 0.9571
vn -0.6964 0.1113 0.7090
vn -0.6963 0.1113 0.7090
vn -0.9627 0.0410 0.2673
vn -0.9674 -0.0410 -0.2499
vn -0.7090 -0.1113 -0.6963
vn 0.6963 -0.1113 -0.7090
vn 0.9627 -0.0410 -0.2673
vn 0.9674 0.0410 0.2499
vn 0.7090 0.1113 0.6963
vn 0.2644 0.1512 0.9525
vn 0.2645 0.1512 0.9525
vn -0.2497 0.6836 0.6859
vn -0.2496 0.6836 0.6859
vn -0.6981 0.5031 0.5094
vn -0.6982 0.5031 0.5094
vn -0.9634 0.1851 0.1938
vn -0.9667 -0.1851 -0.1764
vn -0.7072 -0.5031 -0.4967
vn 0.6981 -0.5031 -0.5094
vn 0.9634 -0.1851 -0.1938
vn 0.9667 0.1851 0.1764
vn 0.7072 0.5031 0.4967
vn 0.2620 0.6836 0.6812
vn -0.2545 0.9548 0.1535
vn -0.7017 0.7027 0.1176
vn -0.9647 0.2586 0.0497
vn -0.9654 -0.2586 -0.0323
vn -0.7037 -0.7027 -0.1050
vn 0.7017 -0.7027 -0.1176
vn 0.9647 -0.2586 -0.0497
vn 0.9655 0.2586 0.0322
vn 0.9654 0.2586 0.0322
vn 0.7037 0.7027 0.1050
vn 0.2572 0.9548 0.1489
vn -0.2598 0.8614 -0.4365
vn 0.2519 0.8614 -0.4412
vn -0.2636 0.4389 -0.8590
vn 0.2481 0.4389 -0.8636
vn -0.2645 -0.1512 -0.9525
vn 0.2472 -0.1512 -0.9571
vn -0.2620 -0.6836 -0.6812
vn 0.9667 0.1852 0.1764
vn 0.9634 -0.1852 -0.1938
vn 0.9634 -0.1852 -0.1939
vn 0.6982 -0.5031 -0.5094
vn 0.2497 -0.6836 -0.6859
vn -0.2572 -0.9548 -0.1489
vn -0.9654 -0.2586 -0.0322
vn 0.9655 0.2586 0.0323
vn 0.2545 -0.9548 -0.1535
vn 0.7084 -0.3230 0.6275
vn 0.6964 -0.1113 -0.7090
vn -0.7037 -0.7027 -0.1049
vn -0.9662 0.2333 -0.1102
vn 0.2519 0.8613 -0.4412
vn 0.7090 0.1113 0.6964
vn -0.2545 -0.9548 0.1535
vn -0.7017 -0.7027 0.1176
vn -0.9647 -0.2586 0.0497
vn -0.9654 0.2586 -0.0323
vn -0.7037 0.7027 -0.1050
vn 0.7017 0.7027 -0.1176
vn 0.9647 0.2586 -0.0497
vn 0.9655 -0.2586 0.0322
vn 0.7037 -0.7027 0.1050
vn 0.2572 -0.9548 0.1489
vn -0.2497 -0.6836 0.6859
vn -0.6982 -0.5031 0.5094
vn -0.9634 -0.1851 0.1938
vn -0.9667 0.1851 -0.1764
vn -0.9668 0.1851 -0.1764
vn -0.7072 0.5031 -0.4967
vn 0.6982 0.5031 -0.5094
vn 0.9634 0.1851 -0.1938
vn 0.9667 -0.1851 0.1764
vn 0.7072 -0.5031 0.4967
vn 0.2620 -0.6836 0.6812
vn -0.2472 -0.1512 0.9571
vn -0.6964 -0.1113 0.7090
vn -0.9627 -0.0410 0.2673
vn -0.9674 0.0410 -0.2499
vn -0.7090 0.1113 -0.6963
vn 0.6964 0.1113 -0.7090
vn 0.9627 0.0410 -0.2673
vn 0.9674 -0.0410 0.2499
vn 0.7090 -0.1113 0.6963
vn 0.2645 -0.1512 0.9525
vn 0.2644 -0.1512 0.9525
vn -0.2480 0.4389 0.8636
vn -0.6970 0.3230 0.6402
vn -0.9630 0.1189 0.2420
vn -0.9672 -0.1189 -0.2246
vn -0.7084 -0.3230 -0.6276
vn 0.6970 -0.3230 -0.6402
vn 0.9630 -0.1189 -0.2420
vn 0.9672 0.1189 0.2246
vn 0.7084 0.3230 0.6276
vn 0.2636 0.4389 0.8590
vn -0.2519 0.8613 0.4412
vn -0.6998 0.6339 0.3293
vn -0.9640 0.2333 0.1276
vn -0.9661 -0.2333 -0.1102
vn -0.9661 -0.2333 -0.1101
vn -0.7056 -0.6339 -0.3166
vn 0.6998 -0.6339 -0.3293
vn 0.9640 -0.2333 -0.1276
vn 0.9662 0.2333 0.1102
vn 0.7056 0.6339 0.3167
vn 0.2598 0.8613 0.4366
vn -0.2572 0.9548 -0.1489
vn -0.9654 0.2586 -0.0322
vn 0.7037 -0.7027 0.1049
vn 0.9655 -0.2586 0.0323
vn 0.9647 0.2586 -0.0496
vn 0.2545 0.9548 -0.1535
vn -0.2620 0.6836 -0.6812
vn 0.9667 -0.1852 0.1764
vn 0.9634 0.1852 -0.1939
vn 0.2497 0.6836 -0.6859
vn -0.2645 0.1512 -0.9525
vn -0.6963 -0.1113 0.7090
vn 0.7090 -0.1113 0.6964
vn 0.6963 0.1113 -0.7090
vn 0.2472 0.1512 -0.9571
vn -0.2636 -0.4389 -0.8590
vn -0.6969 0.3230 0.6403
vn 0.2481 -0.4389 -0.8636
vn -0.2598 -0.8614 -0.4366
vn 0.2519 -0.8613 -0.4412
vn 0.9654 -0.2586 0.0322
vn -0.2496 -0.6836 0.6859
vn 0.7072 -0.5031 0.4968
vn 0.9654 -0.2586 0.0323
vn -0.6981 -0.5031 0.5094
vn 0.9667 -0.1852 0.1765
vn -0.2598 -0.8614 -0.4365
vn -0.6998 0.6339 0.3294
vn 0.9999 -0.0107 -0.0002
vn 0.9999 -0.0106 -0.0002
vn 0.9999 -0.0107 -0.0001
vn 0.9999 -0.0108 -0.0001
vn 0.9999 -0.0108 -0.0002
vn 0.9999 -0.0106 -0.0001
vn 0.9999 -0.0108 -0.0003
vn 0.9999 -0.0106 -0.0003
vn -0.9999 0.0107 0.0002
vn 1.0000 0.0024 -0.0049
vn 0.9999 0.0086 -0.0082
vn 1.0000 -0.0001 -0.0034
vn 0.9999 0.0100 -0.0044
vn 1.0000 0.0027 -0.0036
vn 1.0000 0.0018 0.0057
vn 0.9999 0.0085 0.0077
vn 1.0000 -0.0009 0.0050
vn 0.9999 0.0067 0.0114
vn 1.0000 0.0012 0.0069
vn 0.9999 -0.0060 0.0129
vn 0.9998 -0.0027 0.0191
vn 0.9999 -0.0075 0.0105
vn 0.9998 -0.0066 0.0203
vn 0.9999 -0.0073 0.0133
vn 0.9998 -0.0166 0.0124
vn 0.9996 -0.0186 0.0190
vn 0.9998 -0.0160 0.0097
vn 0.9996 -0.0223 0.0173
vn 0.9998 -0.0179 0.0118
vn 0.9997 -0.0238 0.0045
vn 0.9995 -0.0299 0.0078
vn 0.9998 -0.0214 0.0031
vn 0.9995 -0.0312 0.0039
vn 0.9997 -0.0242 0.0032
vn 0.9997 -0.0233 -0.0061
vn 0.9995 -0.0302 -0.0081
vn 0.9998 -0.0205 -0.0054
vn 0.9995 -0.0282 -0.0118
vn 0.9997 -0.0227 -0.0073
vn 0.9998 -0.0155 -0.0133
vn 0.9996 -0.0188 -0.0195
vn 0.9998 -0.0140 -0.0108
vn 0.9997 -0.0148 -0.0206
vn 0.9998 -0.0141 -0.0136
vn 0.9999 -0.0048 -0.0128
vn 0.9998 -0.0028 -0.0195
vn 0.9999 -0.0055 -0.0101
vn 0.9998 0.0010 -0.0177
vn 0.9999 -0.0036 -0.0122
vt 0.650000 0.500000
vt 0.600000 0.583333
vt 0.600000 0.500000
vt 0.650000 0.583333
vt 0.600000 0.666667
vt 0.650000 0.666667
vt 0.600000 0.750000
vt 0.650000 0.833333
vt 0.600000 0.833333
vt 0.650000 0.916667
vt 0.600000 0.916667
vt 0.650000 0.083333
vt 0.600000 0.166667
vt 0.600000 0.083333
vt 0.650000 0.166667
vt 0.600000 0.250000
vt 0.650000 0.250000
vt 0.600000 0.333333
vt 0.650000 0.333333
vt 0.600000 0.416667
vt 0.650000 0.416667
vt 0.750000 0.500000
vt 0.700000 0.583333
vt 0.700000 0.500000
vt 0.750000 0.583333
vt 0.700000 0.666667
vt 0.750000 0.750000
vt 0.700000 0.750000
vt 0.750000 0.833333
vt 0.700000 0.833333
vt 0.700000 0.916667
vt 0.750000 0.083333
vt 0.700000 0.166667
vt 0.700000 0.083333
vt 0.750000 0.166667
vt 0.700000 0.250000
vt 0.750000 0.333333
vt 0.700000 0.333333
vt 0.700000 0.416667
vt 0.750000 0.416667
vt 0.800000 0.500000
vt 0.850000 0.583333
vt 0.800000 0.583333
vt 0.800000 0.666667
vt 0.850000 0.666667
vt 0.800000 0.750000
vt 0.850000 0.750000
vt 0.800000 0.833333
vt 0.850000 0.833333
vt 0.800000 0.916667
vt 0.850000 0.083333
vt 0.800000 0.166667
vt 0.800000 0.083333
vt 0.850000 0.250000
vt 0.800000 0.250000
vt 0.800000 0.333333
vt 0.850000 0.333333
vt 0.800000 0.416667
vt 0.850000 0.416667
vt 0.900000 0.500000
vt 0.950000 0.583333
vt 0.900000 0.583333
vt 0.900000 0.666667
vt 0.950000 0.750000
vt 0.900000 0.750000
vt 0.900000 0.833333
vt 0.950000 0.833333
vt 0.900000 0.916667
vt 0.950000 0.083333
vt 0.900000 0.166667
vt 0.900000 0.083333
vt 0.950000 0.166667
vt 0.900000 0.250000
vt 0.950000 0.333333
vt 0.900000 0.333333
vt 0.900000 0.416667
vt 0.950000 0.416667
vt 0.050000 0.500000
vt 0.000000 0.583333
vt 0.000000 0.500000
vt 0.050000 0.583333
vt 0.000000 0.666667
vt 0.050000 0.666667
vt 0.000000 0.750000
vt 0.050000 0.750000
vt 0.000000 0.833333
vt 0.050000 0.833333
vt 0.000000 0.916667
vt 0.050000 0.083333
vt 0.000000 0.166667
vt 0.000000 0.083333
vt 0.050000 0.166667
vt 0.000000 0.250000
vt 0.050000 0.250000
vt 0.000000 0.333333
vt 0.050000 0.333333
vt 0.000000 0.416667
vt 0.050000 0.416667
vt 0.150000 0.500000
vt 0.100000 0.583333
vt 0.100000 0.500000
vt 0.150000 0.666667
vt 0.100000 0.666667
vt 0.100000 0.750000
vt 0.150000 0.833333
vt 0.100000 0.833333
vt 0.100000 0.916667
vt 0.150000 0.083333
vt 0.100000 0.166667
vt 0.100000 0.083333
vt 0.150000 0.250000
vt 0.100000 0.250000
vt 0.150000 0.333333
vt 0.100000 0.333333
vt 0.100000 0.416667
vt 0.250000 0.500000
vt 0.200000 0.583333
vt 0.200000 0.500000
vt 0.250000 0.583333
vt 0.200000 0.666667
vt 0.250000 0.666667
vt 0.200000 0.750000
vt 0.250000 0.833333
vt 0.200000 0.833333
vt 0.200000 0.916667
vt 0.200000 0.083333
vt 0.250000 0.166667
vt 0.200000 0.166667
vt 0.200000 0.250000
vt 0.250000 0.250000
vt 0.200000 0.333333
vt 0.250000 0.416667
vt 0.200000 0.416667
vt 0.350000 0.500000
vt 0.300000 0.583333
vt 0.300000 0.500000
vt 0.350000 0.666667
vt 0.300000 0.666667
vt 0.300000 0.750000
vt 0.350000 0.750000
vt 0.300000 0.833333
vt 0.350000 0.833333
vt 0.300000 0.916667
vt 0.350000 0.083333
vt 0.300000 0.166667
vt 0.300000 0.083333
vt 0.350000 0.166667
vt 0.300000 0.250000
vt 0.350000 0.333333
vt 0.300000 0.333333
vt 0.300000 0.416667
vt 0.400000 0.500000
vt 0.450000 0.583333
vt 0.400000 0.583333
vt 0.400000 0.666667
vt 0.450000 0.750000
vt 0.400000 0.750000
vt 0.400000 0.833333
vt 0.450000 0.833333
vt 0.400000 0.916667
vt 0.450000 0.083333
vt 0.400000 0.166667
vt 0.400000 0.083333
vt 0.450000 0.166667
vt 0.400000 0.250000
vt 0.450000 0.333333
vt 0.400000 0.333333
vt 0.450000 0.416667
vt 0.400000 0.416667
vt 0.550000 0.500000
vt 0.500000 0.583333
vt 0.500000 0.500000
vt 0.550000 0.583333
vt 0.500000 0.666667
vt 0.550000 0.666667
vt 0.500000 0.750000
vt 0.550000 0.750000
vt 0.500000 0.833333
vt 0.550000 0.833333
vt 0.500000 0.916667
vt 0.550000 0.083333
vt 0.500000 0.166667
vt 0.500000 0.083333
vt 0.550000 0.166667
vt 0.500000 0.250000
vt 0.550000 0.250000
vt 0.500000 0.333333
vt 0.550000 0.333333
vt 0.500000 0.416667
vt 0.550000 0.416667
vt 0.650000 0.750000
vt 0.750000 0.666667
vt 0.750000 0.916667
vt 0.750000 0.250000
vt 0.850000 0.500000
vt 0.850000 0.916667
vt 0.850000 0.166667
vt 0.950000 0.500000
vt 0.950000 0.666667
vt 0.950000 0.916667
vt 0.950000 0.250000
vt 0.050000 0.916667
vt 0.150000 0.583333
vt 0.150000 0.750000
vt 0.150000 0.916667
vt 0.150000 0.166667
vt 0.150000 0.416667
vt 0.250000 0.750000
vt 0.250000 0.916667
vt 0.250000 0.083333
vt 0.250000 0.333333
vt 0.350000 0.583333
vt 0.350000 0.916667
vt 0.350000 0.250000
vt 0.350000 0.416667
vt 0.450000 0.500000
vt 0.450000 0.666667
vt 0.450000 0.916667
vt 0.450000 0.250000
vt 0.550000 0.916667
vt 1.000000 0.500000
vt 1.000000 0.583333
vt 1.000000 0.666667
vt 1.000000 0.750000
vt 1.000000 0.833333
vt 1.000000 0.083333
vt 1.000000 0.166667
vt 1.000000 0.250000
vt 1.000000 0.416667
vt 1.000000 0.916667
vt 1.000000 0.333333
vt 0.000000 0.000000
s 1
usemtl Marca_rueda_roja.002
f 23/1/1 13/2/1 12/3/2
f 24/4/3 14/5/3 13/2/3
f 25/6/4 15/7/4 14/5/4
f 15/7/5 27/8/6 16/9/5
f 16/9/7 28/10/7 17/11/7
f 29/12/8 19/13/8 18/14/8
f 30/15/9 20/16/9 19/13/9
f 31/17/10 21/18/10 20/16/10
f 32/19/11 22/20/12 21/18/12
f 33/21/13 12/3/13 22/20/13
f 45/22/14 35/23/14 34/24/14
f 46/25/15 36/26/15 35/23/15
f 36/26/16 48/27/16 37/28/16
f 37/28/17 49/29/17 38/30/17
f 49/29/18 39/31/18 38/30/18
f 51/32/19 41/33/19 40/34/19
f 52/35/20 42/36/20 41/33/20
f 42/36/21 54/37/21 43/38/21
f 54/37/22 44/39/22 43/38/22
f 55/40/23 34/24/23 44/39/23
f 56/41/24 68/42/24 57/43/24
f 68/42/25 58/44/25 57/43/26
f 69/45/27 59/46/27 58/44/27
f 70/47/28 60/48/28 59/46/28
f 71/49/29 61/50/29 60/48/29
f 73/51/30 63/52/30 62/53/30
f 63/52/31 75/54/31 64/55/31
f 75/54/32 65/56/32 64/55/32
f 76/57/33 66/58/33 65/56/33
f 77/59/34 56/41/35 66/58/35
f 78/60/36 90/61/36 79/62/37
f 90/61/38 80/63/38 79/62/39
f 80/63/40 92/64/40 81/65/40
f 92/64/41 82/66/41 81/65/41
f 93/67/42 83/68/42 82/66/42
f 95/69/43 85/70/43 84/71/43
f 96/72/44 86/73/44 85/70/44
f 86/73/45 98/74/45 87/75/45
f 98/74/46 88/76/46 87/75/46
f 99/77/47 78/60/47 88/76/47
f 111/78/48 101/79/48 100/80/48
f 112/81/49 102/82/49 101/79/49
f 113/83/50 103/84/50 102/82/50
f 114/85/51 104/86/51 103/84/51
f 115/87/52 105/88/52 104/86/52
f 117/89/53 107/90/53 106/91/53
f 118/92/54 108/93/54 107/90/54
f 119/94/55 109/95/55 108/93/56
f 120/96/57 110/97/57 109/95/57
f 121/98/58 100/80/58 110/97/58
f 133/99/59 123/100/59 122/101/59
f 123/100/7 135/102/7 124/103/7
f 135/102/5 125/104/5 124/103/5
f 125/104/4 137/105/4 126/106/4
f 137/105/3 127/107/3 126/106/3
f 139/108/12 129/109/12 128/110/12
f 129/109/10 141/111/10 130/112/10
f 130/112/9 142/113/9 131/114/9
f 142/113/8 132/115/8 131/114/8
f 132/115/60 133/99/60 122/101/60
f 155/116/61 145/117/61 144/118/61
f 156/119/18 146/120/18 145/117/18
f 157/121/17 147/122/17 146/120/17
f 147/122/16 159/123/16 148/124/16
f 159/123/15 149/125/15 148/124/15
f 150/126/22 162/127/22 151/128/22
f 162/127/21 152/129/21 151/128/21
f 163/130/20 153/131/20 152/129/20
f 153/131/19 165/132/19 154/133/19
f 165/132/62 144/118/62 154/133/62
f 177/134/63 167/135/63 166/136/63
f 167/135/29 179/137/29 168/138/29
f 179/137/28 169/139/28 168/138/28
f 180/140/27 170/141/27 169/139/27
f 181/142/26 171/143/26 170/141/26
f 183/144/33 173/145/33 172/146/33
f 184/147/32 174/148/32 173/145/32
f 174/148/31 186/149/31 175/150/31
f 186/149/30 176/151/30 175/150/30
f 176/151/64 177/134/64 166/136/64
f 188/152/65 200/153/65 189/154/65
f 200/153/42 190/155/42 189/154/42
f 190/155/41 202/156/41 191/157/41
f 202/156/40 192/158/40 191/157/40
f 203/159/38 193/160/38 192/158/38
f 205/161/46 195/162/46 194/163/46
f 206/164/45 196/165/66 195/162/66
f 196/165/67 208/166/68 197/167/44
f 197/167/43 209/168/69 198/169/43
f 209/168/70 188/152/70 198/169/70
f 1/170/71 211/171/71 210/172/71
f 2/173/52 212/174/52 211/171/52
f 3/175/72 213/176/51 212/174/51
f 4/177/50 214/178/50 213/176/50
f 5/179/49 215/180/49 214/178/49
f 7/181/57 217/182/57 216/183/57
f 8/184/73 218/185/73 217/182/73
f 9/186/54 219/187/54 218/185/54
f 10/188/53 220/189/53 219/187/53
f 11/190/74 210/172/74 220/189/74
f 23/1/1 24/4/1 13/2/1
f 24/4/3 25/6/3 14/5/3
f 25/6/4 26/191/4 15/7/4
f 15/7/5 26/191/6 27/8/6
f 16/9/7 27/8/7 28/10/7
f 29/12/8 30/15/8 19/13/8
f 30/15/9 31/17/9 20/16/9
f 31/17/10 32/19/10 21/18/10
f 32/19/11 33/21/11 22/20/12
f 33/21/13 23/1/13 12/3/13
f 45/22/14 46/25/14 35/23/14
f 46/25/15 47/192/15 36/26/15
f 36/26/16 47/192/16 48/27/16
f 37/28/17 48/27/17 49/29/17
f 49/29/18 50/193/18 39/31/18
f 51/32/19 52/35/19 41/33/19
f 52/35/20 53/194/20 42/36/20
f 42/36/21 53/194/21 54/37/21
f 54/37/22 55/40/75 44/39/22
f 55/40/23 45/22/23 34/24/23
f 56/41/24 67/195/24 68/42/24
f 68/42/25 69/45/25 58/44/25
f 69/45/27 70/47/27 59/46/27
f 70/47/28 71/49/28 60/48/28
f 71/49/29 72/196/29 61/50/29
f 73/51/76 74/197/76 63/52/76
f 63/52/31 74/197/31 75/54/31
f 75/54/32 76/57/32 65/56/32
f 76/57/33 77/59/33 66/58/33
f 77/59/34 67/195/34 56/41/35
f 78/60/36 89/198/36 90/61/36
f 90/61/38 91/199/38 80/63/38
f 80/63/40 91/199/40 92/64/40
f 92/64/41 93/67/41 82/66/41
f 93/67/42 94/200/42 83/68/42
f 95/69/69 96/72/69 85/70/69
f 96/72/44 97/201/44 86/73/44
f 86/73/45 97/201/45 98/74/45
f 98/74/46 99/77/46 88/76/46
f 99/77/47 89/198/47 78/60/47
f 111/78/48 112/81/48 101/79/48
f 112/81/49 113/83/49 102/82/49
f 113/83/50 114/85/50 103/84/50
f 114/85/51 115/87/51 104/86/51
f 115/87/77 116/202/77 105/88/77
f 117/89/53 118/92/53 107/90/53
f 118/92/54 119/94/54 108/93/54
f 119/94/55 120/96/55 109/95/55
f 120/96/57 121/98/57 110/97/57
f 121/98/58 111/78/58 100/80/58
f 133/99/59 134/203/59 123/100/59
f 123/100/7 134/203/7 135/102/7
f 135/102/5 136/204/78 125/104/5
f 125/104/4 136/204/4 137/105/4
f 137/105/3 138/205/3 127/107/3
f 139/108/12 140/206/12 129/109/12
f 129/109/10 140/206/10 141/111/10
f 130/112/9 141/111/9 142/113/9
f 142/113/8 143/207/8 132/115/8
f 132/115/60 143/207/79 133/99/60
f 155/116/61 156/119/61 145/117/61
f 156/119/18 157/121/18 146/120/18
f 157/121/17 158/208/17 147/122/17
f 147/122/16 158/208/16 159/123/16
f 159/123/15 160/209/15 149/125/15
f 150/126/22 161/210/22 162/127/22
f 162/127/21 163/130/21 152/129/21
f 163/130/20 164/211/20 153/131/20
f 153/131/19 164/211/19 165/132/19
f 165/132/62 155/116/62 144/118/62
f 177/134/63 178/212/63 167/135/63
f 167/135/29 178/212/29 179/137/29
f 179/137/28 180/140/28 169/139/28
f 180/140/27 181/142/27 170/141/27
f 181/142/26 182/213/26 171/143/26
f 183/144/80 184/147/80 173/145/80
f 184/147/32 185/214/32 174/148/32
f 174/148/31 185/214/31 186/149/31
f 186/149/30 187/215/30 176/151/30
f 176/151/64 187/215/64 177/134/64
f 188/152/65 199/216/65 200/153/65
f 200/153/42 201/217/42 190/155/42
f 190/155/41 201/217/41 202/156/41
f 202/156/40 203/159/40 192/158/40
f 203/159/39 204/218/39 193/160/39
f 205/161/46 206/164/46 195/162/46
f 206/164/45 207/219/45 196/165/66
f 196/165/67 207/219/68 208/166/68
f 197/167/43 208/166/69 209/168/69
f 209/168/70 199/216/70 188/152/70
f 1/170/71 2/173/71 211/171/71
f 2/173/52 3/175/52 212/174/52
f 3/175/72 4/177/72 213/176/51
f 4/177/50 5/179/50 214/178/50
f 5/179/49 6/220/49 215/180/49
f 7/181/57 8/184/57 217/182/57
f 8/184/73 9/186/73 218/185/73
f 9/186/54 10/188/54 219/187/54
f 10/188/53 11/190/53 220/189/53
f 11/190/74 1/170/74 210/172/74
usemtl ruedaRoja.002
f 12/3/81 2/173/81 1/170/81
f 13/2/82 3/175/82 2/173/82
f 14/5/83 4/177/83 3/175/83
f 15/7/84 5/179/84 4/177/84
f 16/9/85 6/220/85 5/179/85
f 18/14/86 8/184/86 7/181/86
f 8/184/87 20/16/87 9/186/87
f 20/16/88 10/188/88 9/186/88
f 21/18/89 11/190/89 10/188/89
f 22/20/90 1/170/90 11/190/90
f 34/24/91 24/4/91 23/1/91
f 24/4/92 36/26/92 25/6/92
f 36/26/93 26/191/93 25/6/93
f 26/191/94 38/30/95 27/8/94
f 27/8/96 39/31/96 28/10/96
f 40/34/97 30/15/97 29/12/97
f 41/33/98 31/17/98 30/15/98
f 31/17/99 43/38/99 32/19/99
f 43/38/100 33/21/100 32/19/100
f 33/21/101 34/24/101 23/1/101
f 56/41/102 46/25/102 45/22/102
f 57/43/103 47/192/103 46/25/103
f 58/44/104 48/27/104 47/192/104
f 59/46/105 49/29/105 48/27/105
f 60/48/106 50/193/106 49/29/106
f 62/53/107 52/35/107 51/32/107
f 52/35/108 64/55/108 53/194/108
f 53/194/109 65/56/109 54/37/109
f 54/37/110 66/58/110 55/40/110
f 66/58/111 45/22/112 55/40/112
f 67/195/113 79/62/113 68/42/113
f 68/42/114 80/63/114 69/45/114
f 80/63/115 70/47/115 69/45/115
f 81/65/116 71/49/116 70/47/116
f 71/49/117 83/68/117 72/196/117
f 84/71/118 74/197/118 73/51/118
f 85/70/119 75/54/119 74/197/119
f 86/73/120 76/57/120 75/54/120
f 87/75/121 77/59/121 76/57/121
f 88/76/122 67/195/122 77/59/122
f 100/221/123 90/61/123 89/198/123
f 101/222/124 91/199/124 90/61/124
f 102/223/125 92/64/125 91/199/125
f 103/224/126 93/67/127 92/64/127
f 104/225/128 94/200/128 93/67/128
f 106/226/129 96/72/129 95/69/129
f 107/227/130 97/201/130 96/72/130
f 108/228/131 98/74/131 97/201/131
f 98/74/132 110/229/132 99/77/132
f 99/77/133 100/221/133 89/198/133
f 122/101/134 112/81/134 111/78/134
f 123/100/85 113/83/85 112/81/85
f 113/83/135 125/104/84 114/85/135
f 125/104/83 115/87/83 114/85/83
f 126/106/82 116/202/82 115/87/82
f 128/110/136 118/92/136 117/89/136
f 118/92/137 130/112/137 119/94/137
f 130/112/87 120/96/87 119/94/138
f 131/114/86 121/98/86 120/96/86
f 121/98/139 122/101/139 111/78/139
f 144/118/140 134/203/140 133/99/140
f 134/203/96 146/120/96 135/102/96
f 146/120/95 136/204/94 135/102/94
f 147/122/93 137/105/93 136/204/93
f 148/124/92 138/205/92 137/105/92
f 150/126/100 140/206/100 139/108/100
f 151/128/141 141/111/141 140/206/99
f 152/129/98 142/113/142 141/111/142
f 142/113/97 154/133/97 143/207/97
f 154/133/143 133/99/143 143/207/143
f 166/136/144 156/119/144 155/116/144
f 167/135/106 157/121/106 156/119/106
f 168/138/105 158/208/105 157/121/105
f 158/208/104 170/141/104 159/123/104
f 170/141/145 160/209/145 159/123/145
f 172/146/146 162/127/146 161/210/146
f 173/145/109 163/130/109 162/127/109
f 163/130/108 175/150/108 164/211/108
f 175/150/147 165/132/147 164/211/147
f 176/151/148 155/116/148 165/132/148
f 188/152/149 178/212/149 177/134/149
f 189/154/117 179/137/117 178/212/117
f 190/155/116 180/140/116 179/137/116
f 191/157/115 181/142/115 180/140/115
f 192/158/150 182/213/150 181/142/150
f 194/163/121 184/147/121 183/144/121
f 195/162/120 185/214/120 184/147/120
f 185/214/119 197/167/119 186/149/119
f 186/149/118 198/169/118 187/215/118
f 198/169/151 177/134/151 187/215/151
f 210/172/152 200/153/152 199/216/152
f 211/171/128 201/217/128 200/153/128
f 212/174/126 202/156/127 201/217/127
f 213/176/125 203/159/125 202/156/125
f 214/178/124 204/218/124 203/159/124
f 216/183/132 206/164/132 205/161/132
f 217/182/131 207/219/131 206/164/131
f 207/219/130 219/187/130 208/166/130
f 219/187/129 209/168/129 208/166/129
f 220/189/153 199/216/153 209/168/153
f 12/3/81 13/2/81 2/173/81
f 13/2/82 14/5/82 3/175/82
f 14/5/83 15/7/83 4/177/83
f 15/7/84 16/9/84 5/179/84
f 16/9/85 17/11/85 6/220/85
f 18/14/86 19/13/86 8/184/86
f 8/184/87 19/13/87 20/16/87
f 20/16/88 21/18/154 10/188/88
f 21/18/89 22/20/89 11/190/89
f 22/20/90 12/3/90 1/170/90
f 34/24/91 35/23/155 24/4/91
f 24/4/92 35/23/92 36/26/92
f 36/26/93 37/28/93 26/191/93
f 26/191/94 37/28/95 38/30/95
f 27/8/96 38/30/96 39/31/96
f 40/34/97 41/33/97 30/15/97
f 41/33/98 42/36/98 31/17/98
f 31/17/99 42/36/99 43/38/99
f 43/38/100 44/39/156 33/21/100
f 33/21/101 44/39/101 34/24/101
f 56/41/102 57/43/102 46/25/102
f 57/43/103 58/44/145 47/192/103
f 58/44/104 59/46/104 48/27/104
f 59/46/105 60/48/105 49/29/105
f 60/48/106 61/50/106 50/193/106
f 62/53/147 63/52/147 52/35/147
f 52/35/108 63/52/108 64/55/108
f 53/194/109 64/55/109 65/56/109
f 54/37/110 65/56/110 66/58/110
f 66/58/111 56/41/111 45/22/112
f 67/195/113 78/60/113 79/62/113
f 68/42/114 79/62/114 80/63/114
f 80/63/115 81/65/115 70/47/115
f 81/65/116 82/66/116 71/49/116
f 71/49/117 82/66/117 83/68/117
f 84/71/118 85/70/118 74/197/118
f 85/70/119 86/73/119 75/54/119
f 86/73/120 87/75/120 76/57/120
f 87/75/121 88/76/121 77/59/121
f 88/76/122 78/60/122 67/195/122
f 100/221/123 101/222/123 90/61/123
f 101/222/124 102/223/124 91/199/124
f 102/223/125 103/224/125 92/64/125
f 103/224/126 104/225/126 93/67/127
f 104/225/128 105/230/128 94/200/128
f 106/226/129 107/227/129 96/72/129
f 107/227/130 108/228/130 97/201/130
f 108/228/131 109/231/131 98/74/131
f 98/74/132 109/231/132 110/229/132
f 99/77/133 110/229/133 100/221/133
f 122/101/134 123/100/134 112/81/134
f 123/100/85 124/103/85 113/83/85
f 113/83/135 124/103/84 125/104/84
f 125/104/83 126/106/83 115/87/83
f 126/106/82 127/107/82 116/202/82
f 128/110/89 129/109/89 118/92/89
f 118/92/137 129/109/157 130/112/137
f 130/112/87 131/114/87 120/96/87
f 131/114/86 132/115/86 121/98/86
f 121/98/139 132/115/139 122/101/139
f 144/118/140 145/117/140 134/203/140
f 134/203/96 145/117/96 146/120/96
f 146/120/95 147/122/95 136/204/94
f 147/122/93 148/124/93 137/105/93
f 148/124/158 149/125/158 138/205/158
f 150/126/100 151/128/100 140/206/100
f 151/128/141 152/129/159 141/111/141
f 152/129/98 153/131/98 142/113/142
f 142/113/97 153/131/97 154/133/97
f 154/133/143 144/118/143 133/99/143
f 166/136/144 167/135/144 156/119/144
f 167/135/106 168/138/106 157/121/106
f 168/138/105 169/139/105 158/208/105
f 158/208/104 169/139/104 170/141/104
f 170/141/145 171/143/145 160/209/145
f 172/146/110 173/145/110 162/127/110
f 173/145/109 174/148/109 163/130/109
f 163/130/108 174/148/108 175/150/108
f 175/150/147 176/151/147 165/132/147
f 176/151/148 166/136/148 155/116/148
f 188/152/149 189/154/149 178/212/149
f 189/154/117 190/155/117 179/137/117
f 190/155/116 191/157/116 180/140/116
f 191/157/115 192/158/115 181/142/115
f 192/158/114 193/160/114 182/213/114
f 194/163/121 195/162/121 184/147/121
f 195/162/120 196/165/120 185/214/120
f 185/214/119 196/165/119 197/167/119
f 186/149/118 197/167/118 198/169/118
f 198/169/151 188/152/151 177/134/151
f 210/172/152 211/171/160 200/153/152
f 211/171/128 212/174/128 201/217/128
f 212/174/126 213/176/126 202/156/127
f 213/176/125 214/178/125 203/159/125
f 214/178/161 215/180/161 204/218/161
f 216/183/132 217/182/132 206/164/132
f 217/182/131 218/185/131 207/219/131
f 207/219/130 218/185/130 219/187/130
f 219/187/129 220/189/129 209/168/129
f 220/189/153 210/172/153 199/216/153
usemtl Material.002
f 237/232/162 245/232/162 221/232/162
f 221/232/162 222/232/163 223/232/162
f 223/232/162 224/232/163 225/232/162
f 225/232/162 226/232/162 227/232/162
f 227/232/162 228/232/164 229/232/162
f 229/232/162 230/232/164 231/232/162
f 231/232/162 232/232/162 233/232/162
f 233/232/162 234/232/162 235/232/162
f 235/232/162 236/232/165 237/232/162
f 237/232/162 238/232/163 239/232/162
f 239/232/162 240/232/166 241/232/162
f 241/232/162 242/232/167 243/232/164
f 243/232/164 244/232/168 245/232/162
f 245/232/162 246/232/168 247/232/162
f 247/232/162 248/232/162 249/232/162
f 249/232/162 250/232/162 251/232/162
f 251/232/162 252/232/169 221/232/162
f 221/232/162 223/232/162 225/232/162
f 225/232/162 227/232/162 229/232/162
f 229/232/162 231/232/162 233/232/162
f 233/232/162 235/232/162 237/232/162
f 237/232/162 239/232/162 241/232/162
f 241/232/162 243/232/164 245/232/162
f 245/232/162 247/232/162 249/232/162
f 249/232/162 251/232/162 221/232/162
f 221/232/162 225/232/162 229/232/162
f 229/232/162 233/232/162 237/232/162
f 237/232/162 241/232/162 245/232/162
f 245/232/162 249/232/162 221/232/162
f 221/232/162 229/232/162 237/232/162
f 269/232/170 253/232/170 277/232/170
f 253/232/171 254/232/172 255/232/173
f 255/232/173 256/232/174 257/232/175
f 257/232/176 258/232/177 259/232/178
f 259/232/178 260/232/179 261/232/180
f 261/232/181 262/232/182 263/232/183
f 263/232/183 264/232/184 265/232/185
f 265/232/186 266/232/187 267/232/188
f 267/232/188 268/232/189 269/232/190
f 269/232/191 270/232/192 271/232/193
f 271/232/193 272/232/194 273/232/195
f 273/232/196 274/232/197 275/232/198
f 275/232/198 276/232/199 277/232/200
f 277/232/201 278/232/202 279/232/203
f 279/232/203 280/232/204 281/232/205
f 281/232/206 282/232/207 283/232/208
f 283/232/208 284/232/209 253/232/210
f 253/232/171 255/232/173 257/232/175
f 257/232/176 259/232/178 261/232/180
f 261/232/181 263/232/183 265/232/185
f 265/232/186 267/232/188 269/232/190
f 269/232/191 271/232/193 273/232/195
f 273/232/196 275/232/198 277/232/200
f 277/232/201 279/232/203 281/232/205
f 281/232/206 283/232/208 253/232/210
f 253/232/170 261/232/170 257/232/170
f 261/232/170 269/232/170 265/232/170
f 269/232/170 277/232/170 273/232/170
f 277/232/170 253/232/170 281/232/170
f 253/232/170 269/232/170 261/232/170
