# Blender 4.5.3 LTS
# www.blender.org
mtllib RuedaIZQ.mtl
o Cone.042
v -0.013170 -0.003943 0.019925
v -0.013240 0.009835 0.014219
v -0.013410 0.015542 0.000443
v -0.013580 0.009835 -0.013334
v -0.013651 -0.003943 -0.019040
v -0.013580 -0.017720 -0.013334
v -0.013410 -0.023427 0.000443
v -0.013240 -0.017720 0.014219
v 0.051241 -0.003943 -0.000355
v -0.013498 0.065214 0.011116
v -0.013491 0.006161 0.011305
v 0.004470 0.065214 0.010655
v 0.004470 0.006161 0.010883
v -0.014227 0.065214 -0.009198
v -0.014265 0.006090 -0.010262
v 0.003741 0.065214 -0.009659
v 0.003703 0.006090 -0.010723
v -0.013492 -0.014347 0.011281
v -0.013498 -0.073584 0.011116
v 0.004476 -0.014347 0.010820
v 0.004470 -0.073584 0.010655
v -0.014266 -0.014418 -0.010287
v -0.014227 -0.073584 -0.009198
v 0.003702 -0.014418 -0.010748
v 0.003741 -0.073584 -0.009659
v -0.016422 0.006162 -0.070349
v 0.001546 0.006162 -0.070810
v -0.016424 -0.014163 -0.070398
v 0.001545 -0.014163 -0.070859
v -0.011366 0.006019 0.070517
v 0.006602 0.006019 0.070056
v -0.011368 -0.014306 0.070468
v 0.006601 -0.014306 0.070007
v 0.002570 -0.027323 0.000758
v 0.002759 -0.026877 0.005287
v 0.002995 -0.025557 0.009640
v 0.002357 -0.025557 -0.008130
v 0.002434 -0.026877 -0.003772
v 0.012129 -0.075643 -0.000660
v 0.011660 -0.074268 -0.014616
v 0.011271 -0.070196 -0.028037
v 0.010979 -0.063583 -0.040408
v 0.010793 -0.054683 -0.051253
v 0.010722 -0.043839 -0.060156
v 0.010767 -0.031468 -0.066773
v 0.010928 -0.018043 -0.070852
v 0.011198 -0.004083 -0.072235
v 0.011566 0.009878 -0.070868
v 0.012019 0.023302 -0.066806
v 0.012539 0.035674 -0.060202
v 0.013106 0.046518 -0.051313
v 0.013699 0.055417 -0.040478
v 0.014294 0.062030 -0.028115
v 0.014869 0.066103 -0.014698
v 0.015401 0.067478 -0.000743
v 0.015870 0.066103 0.013213
v 0.016259 0.062030 0.026634
v 0.016551 0.055417 0.039005
v 0.016737 0.046518 0.049850
v 0.016808 0.035674 0.058753
v 0.016763 0.023302 0.065370
v 0.016602 0.009878 0.069449
v 0.016332 -0.004083 0.070832
v 0.015964 -0.018043 0.069465
v 0.015511 -0.031468 0.065403
v 0.014991 -0.043839 0.058799
v 0.014424 -0.054683 0.049910
v 0.013831 -0.063583 0.039075
v 0.013236 -0.070196 0.026712
v 0.012661 -0.074268 0.013295
v -0.014569 -0.075775 0.000025
v -0.015038 -0.074400 -0.013931
v -0.015427 -0.070328 -0.027352
v -0.015719 -0.063715 -0.039723
v -0.015905 -0.054816 -0.050569
v -0.015976 -0.043972 -0.059471
v -0.015931 -0.031600 -0.066089
v -0.015770 -0.018176 -0.070167
v -0.015500 -0.004215 -0.071550
v -0.015132 0.009746 -0.070183
v -0.014679 0.023170 -0.066121
v -0.014159 0.035542 -0.059518
v -0.013591 0.046386 -0.050628
v -0.012999 0.055285 -0.039793
v -0.012404 0.061898 -0.027430
v -0.011829 0.065970 -0.014013
v -0.011297 0.067345 -0.000059
v -0.010827 0.065970 0.013898
v -0.010439 0.061898 0.027319
v -0.010146 0.055285 0.039690
v -0.009961 0.046386 0.050535
v -0.009889 0.035542 0.059438
v -0.009935 0.023170 0.066055
v -0.010096 0.009746 0.070134
v -0.010365 -0.004215 0.071516
v -0.010734 -0.018176 0.070150
v -0.011187 -0.031600 0.066087
v -0.011707 -0.043972 0.059484
v -0.012274 -0.054816 0.050595
v -0.012867 -0.063715 0.039760
v -0.013462 -0.070328 0.027397
v -0.014036 -0.074400 0.013980
vn 0.2792 0.3686 0.8867
vn 0.2727 0.8900 0.3653
vn 0.2637 0.8900 -0.3719
vn 0.2572 0.3686 -0.8933
vn 0.2572 -0.3686 -0.8933
vn 0.2636 -0.8900 -0.3719
vn -0.9999 -0.0000 0.0123
vn 0.2727 -0.8900 0.3653
vn 0.2792 -0.3686 0.8867
vn 0.0246 0.0035 0.9997
vn 0.9994 -0.0001 -0.0357
vn -0.0256 0.0180 -0.9995
vn -0.9994 -0.0000 0.0359
vn -0.0000 1.0000 -0.0000
vn 0.0001 -1.0000 0.0033
vn 0.0256 -0.0028 0.9997
vn 0.9994 -0.0000 -0.0359
vn -0.0256 -0.0184 -0.9995
vn -0.0001 1.0000 -0.0033
vn -0.0000 -1.0000 -0.0000
vn -0.0000 1.0000 0.0012
vn -0.0001 -1.0000 -0.0042
vn -0.0256 0.0024 -0.9997
vn 0.0256 -0.0012 0.9997
vn 0.0001 1.0000 0.0024
vn 0.9994 0.0002 -0.0359
vn -0.0000 -1.0000 0.0007
vn -0.0246 0.0021 -0.9997
vn 0.0256 -0.0024 0.9997
vn 0.0124 0.7731 0.6342
vn -0.0231 -0.2904 -0.9566
vn 0.0167 0.6345 0.7727
vn -0.0250 -0.0981 -0.9949
vn 0.0203 0.4715 0.8817
vn -0.0260 0.0981 -0.9948
vn 0.0231 0.2904 0.9566
vn -0.0260 0.2903 -0.9566
vn 0.0250 0.0980 0.9949
vn -0.0249 0.4715 -0.8815
vn 0.0260 -0.0981 0.9948
vn -0.0229 0.6345 -0.7726
vn 0.0260 -0.2904 0.9566
vn -0.0201 0.7731 -0.6339
vn 0.0249 -0.4716 0.8815
vn -0.0164 0.8820 -0.4710
vn 0.0024 -0.9952 -0.0981
vn 0.0230 -0.6345 0.7726
vn -0.0122 0.9570 -0.2899
vn -0.0027 -0.9569 -0.2903
vn 0.0201 -0.7731 0.6339
vn -0.0075 0.9952 -0.0978
vn -0.0077 -0.8820 -0.4713
vn 0.0164 -0.8820 0.4710
vn -0.0024 0.9952 0.0981
vn -0.0124 -0.7731 -0.6342
vn 0.0122 -0.9570 0.2899
vn 0.0027 0.9569 0.2903
vn -0.0167 -0.6345 -0.7727
vn 0.0074 -0.9952 0.0978
vn 0.0077 0.8820 0.4713
vn -0.0203 -0.4715 -0.8816
vt 0.250000 0.490000
vt 0.250000 0.250000
vt 0.419706 0.419706
vt 0.490000 0.250000
vt 0.419706 0.080294
vt 0.250000 0.010000
vt 0.080294 0.080294
vt 0.010000 0.250000
vt 0.750000 0.490000
vt 0.919706 0.419706
vt 0.990000 0.250000
vt 0.919706 0.080294
vt 0.750000 0.010000
vt 0.580294 0.080294
vt 0.510000 0.250000
vt 0.580294 0.419706
vt 0.080294 0.419706
vt 0.375000 0.000000
vt 0.625000 0.000000
vt 0.625000 0.250000
vt 0.375000 0.250000
vt 0.625000 0.500000
vt 0.375000 0.500000
vt 0.625000 0.750000
vt 0.375000 0.750000
vt 0.625000 1.000000
vt 0.375000 1.000000
vt 0.125000 0.500000
vt 0.125000 0.750000
vt 0.875000 0.500000
vt 0.875000 0.750000
vt 0.000000 0.000000
s 1
usemtl Ruedas.001
f 1/1/1 9/2/1 2/3/1
f 2/3/2 9/2/2 3/4/2
f 3/4/3 9/2/3 4/5/3
f 4/5/4 9/2/4 5/6/4
f 5/6/5 9/2/5 6/7/5
f 6/7/6 9/2/6 7/8/6
f 1/9/7 2/10/7 3/11/7 4/12/7 5/13/7 6/14/7 7/15/7 8/16/7
f 7/8/8 9/2/8 8/17/8
f 8/17/9 9/2/9 1/1/9
f 10/18/10 11/19/10 13/20/10 12/21/10
f 12/21/11 13/20/11 17/22/11 16/23/11
f 16/23/12 17/22/12 15/24/12 14/25/12
f 14/25/13 15/24/13 11/26/13 10/27/13
f 12/28/14 16/23/14 14/25/14 10/29/14
f 17/22/15 13/30/15 11/31/15 15/24/15
f 18/18/16 19/19/16 21/20/16 20/21/16
f 20/21/17 21/20/17 25/22/17 24/23/17
f 24/23/18 25/22/18 23/24/18 22/25/18
f 22/25/13 23/24/13 19/26/13 18/27/13
f 20/28/19 24/23/19 22/25/19 18/29/19
f 25/22/20 21/30/20 19/31/20 23/24/20
f 26/18/21 15/19/21 17/20/21 27/21/21
f 27/21/17 17/20/17 24/22/17 29/23/17
f 29/23/22 24/22/22 22/24/22 28/25/22
f 28/25/13 22/24/13 15/26/13 26/27/13
f 27/28/23 29/23/23 28/25/23 26/29/23
f 24/22/24 17/30/24 15/31/24 22/24/24
f 11/18/25 30/19/25 31/20/25 13/21/25
f 13/21/26 31/20/26 33/22/26 20/23/26
f 20/23/27 33/22/27 32/24/27 18/25/27
f 18/25/13 32/24/13 30/26/13 11/27/13
f 13/28/28 20/23/28 18/25/28 11/29/28
f 33/22/29 31/30/29 30/31/29 32/24/29
f 59/32/30 58/32/30 90/32/30 91/32/30
f 46/32/31 45/32/31 77/32/31 78/32/31
f 60/32/32 59/32/32 91/32/32 92/32/32
f 47/32/33 46/32/33 78/32/33 79/32/33
f 61/32/34 60/32/34 92/32/34 93/32/34
f 48/32/35 47/32/35 79/32/35 80/32/35
f 62/32/36 61/32/36 93/32/36 94/32/36
f 49/32/37 48/32/37 80/32/37 81/32/37
f 63/32/38 62/32/38 94/32/38 95/32/38
f 50/32/39 49/32/39 81/32/39 82/32/39
f 64/32/40 63/32/40 95/32/40 96/32/40
f 51/32/41 50/32/41 82/32/41 83/32/41
f 65/32/42 64/32/42 96/32/42 97/32/42
f 52/32/43 51/32/43 83/32/43 84/32/43
f 66/32/44 65/32/44 97/32/44 98/32/44
f 53/32/45 52/32/45 84/32/45 85/32/45
f 40/32/46 39/32/46 71/32/46 72/32/46
f 67/32/47 66/32/47 98/32/47 99/32/47
f 54/32/48 53/32/48 85/32/48 86/32/48
f 41/32/49 40/32/49 72/32/49 73/32/49
f 68/32/50 67/32/50 99/32/50 100/32/50
f 55/32/51 54/32/51 86/32/51 87/32/51
f 42/32/52 41/32/52 73/32/52 74/32/52
f 69/32/53 68/32/53 100/32/53 101/32/53
f 56/32/54 55/32/54 87/32/54 88/32/54
f 43/32/55 42/32/55 74/32/55 75/32/55
f 70/32/56 69/32/56 101/32/56 102/32/56
f 57/32/57 56/32/57 88/32/57 89/32/57
f 44/32/58 43/32/58 75/32/58 76/32/58
f 39/32/59 70/32/59 102/32/59 71/32/59
f 58/32/60 57/32/60 89/32/60 90/32/60
f 45/32/61 44/32/61 76/32/61 77/32/61
l 34 35
l 35 36
l 37 38
l 34 38
