# Blender 4.5.3 LTS
# www.blender.org
mtllib TanqueINMOVIL.mtl
o Circle.054
v -0.176666 0.404313 0.269792
v -0.157471 0.403603 0.316165
v -0.111130 0.401888 0.335374
v -0.064788 0.400173 0.316165
v -0.045593 0.399462 0.269792
v -0.064788 0.400173 0.223419
v -0.111130 0.401888 0.204211
v -0.157471 0.403603 0.223419
v -0.155454 0.458103 0.316165
v -0.174649 0.458813 0.269792
v -0.109113 0.456388 0.335374
v -0.062771 0.454673 0.316165
v -0.043576 0.453963 0.269792
v -0.062771 0.454673 0.223419
v -0.109113 0.456388 0.204211
v -0.155454 0.458103 0.223419
v -0.156514 0.429463 0.316165
v -0.175709 0.430173 0.269792
v -0.110172 0.427748 0.335374
v -0.063831 0.426033 0.316165
v -0.044636 0.425323 0.269792
v -0.063831 0.426033 0.223419
v -0.110172 0.427748 0.204211
v -0.156514 0.429463 0.223419
v -0.235031 -0.216515 0.189390
v -0.235031 -0.373887 0.428115
v 0.212928 -0.216515 0.189390
v 0.212928 -0.373887 0.428115
v -0.235031 -0.373887 0.112000
v 0.212928 -0.373887 0.111880
v 0.363318 -0.122781 0.218613
v 0.363154 0.130959 0.114880
v 0.362969 0.617338 -0.021857
v 0.362959 0.662764 -0.099541
v 0.362984 0.647222 -0.182237
v 0.363008 0.634779 -0.204792
v 0.362477 0.613545 -0.225579
v 0.363059 0.576115 -0.243798
v 0.363598 -0.254775 -0.247438
v 0.363637 -0.314120 -0.225579
v 0.363661 -0.351271 -0.204792
v 0.363701 -0.412730 -0.142188
v 0.363706 -0.420617 -0.131236
v 0.363502 -0.405455 0.085697
v 0.363485 -0.379773 0.122624
v 0.363462 -0.345149 0.154990
v 0.363439 -0.308843 0.181552
v 0.363407 -0.259904 0.201290
v 0.363364 -0.192685 0.215571
v 0.269812 -0.122841 0.218613
v 0.269767 -0.131116 0.213444
v 0.269647 0.130898 0.114880
v 0.269463 0.617278 -0.021857
v 0.269453 0.662704 -0.099541
v 0.269478 0.647161 -0.182237
v 0.269502 0.634718 -0.204792
v 0.268971 0.613485 -0.225579
v 0.269553 0.576055 -0.243798
v 0.270092 -0.254836 -0.247438
v 0.270131 -0.314181 -0.225579
v 0.270155 -0.351332 -0.204792
v 0.270195 -0.412791 -0.142188
v 0.270200 -0.420678 -0.131236
v 0.269995 -0.405515 0.085697
v 0.269979 -0.379833 0.122624
v 0.269956 -0.345210 0.154990
v 0.269933 -0.308904 0.181552
v 0.269901 -0.259964 0.201290
v 0.269857 -0.192746 0.215571
v 0.363272 -0.129335 0.251796
v 0.363152 0.132678 0.153231
v 0.363502 -0.406345 0.124049
v 0.363484 -0.378053 0.160975
v 0.363461 -0.343430 0.193342
v 0.363438 -0.307123 0.219904
v 0.363406 -0.258184 0.239641
v 0.269766 -0.129396 0.251796
v 0.269646 0.132618 0.153231
v 0.270004 -0.418555 0.124049
v 0.269955 -0.343490 0.193342
v 0.269932 -0.307184 0.219904
v 0.269900 -0.258245 0.239641
v 0.269856 -0.191026 0.253923
v 0.363725 -0.449829 -0.121130
v 0.363521 -0.434666 0.095803
v 0.270219 -0.449889 -0.121130
v 0.270022 -0.446939 0.095803
v 0.363486 -0.380939 0.115731
v 0.269980 -0.381000 0.115731
v 0.363502 -0.406482 0.124089
v 0.270004 -0.418198 0.124003
v 0.362950 0.646214 -0.011931
v 0.269445 0.644405 -0.012613
v 0.363152 0.132801 0.153622
v 0.362463 0.634695 -0.241517
v 0.363059 0.576502 -0.267507
v 0.363254 0.275677 -0.285999
v 0.363328 0.161056 -0.288309
v 0.363598 -0.254389 -0.271147
v 0.363637 -0.313734 -0.249288
v 0.268957 0.634448 -0.240884
v 0.269553 0.576441 -0.267507
v 0.269748 0.275617 -0.285999
v 0.269822 0.160996 -0.288309
v 0.270092 -0.254450 -0.271147
v 0.270130 -0.313795 -0.249288
v 0.362939 0.693731 -0.095794
v 0.362964 0.678189 -0.194690
v 0.362988 0.665745 -0.217244
v 0.269433 0.693671 -0.096010
v 0.269458 0.678128 -0.194690
v 0.269481 0.665685 -0.217244
v 0.362951 0.645989 -0.012027
v 0.362988 0.665654 -0.217157
v 0.362464 0.634520 -0.241027
v 0.269481 0.665934 -0.216921
v 0.268957 0.634460 -0.241027
v 0.363677 -0.375861 -0.215367
v 0.363694 -0.401766 -0.193167
v 0.363720 -0.442285 -0.143551
v 0.270171 -0.375856 -0.215065
v 0.270187 -0.401827 -0.193167
v 0.270214 -0.443239 -0.143501
v 0.363720 -0.443036 -0.143355
v 0.363725 -0.449786 -0.121147
v 0.270214 -0.443096 -0.143355
v 0.270218 -0.449255 -0.121150
v 0.363636 -0.313537 -0.249203
v 0.270130 -0.313959 -0.249896
v 0.270151 -0.344907 -0.232481
v 0.363291 0.218367 -0.287154
v 0.269785 0.218306 -0.287154
v 0.363254 0.275677 -0.285999
v 0.269748 0.275617 -0.285999
v 0.363291 0.218367 -0.287154
v 0.269785 0.218306 -0.287154
v -0.297527 0.664738 -0.097451
v -0.297527 0.664738 0.028726
v 0.270320 0.664738 -0.097451
v 0.270320 0.664738 0.028726
v -0.297527 -0.382543 -0.158962
v -0.297527 -0.382543 0.125839
v 0.270320 -0.382543 -0.158962
v 0.270320 -0.382543 0.125839
v 0.270320 0.402918 -0.216679
v -0.297527 0.402918 0.190553
v 0.270320 0.402918 0.190553
v -0.297527 0.402918 -0.216679
v 0.270320 -0.251633 0.204938
v -0.297527 -0.251633 -0.216679
v 0.270320 -0.251633 -0.216679
v -0.308956 -0.251633 0.204938
v -0.222234 0.407743 0.094736
v 0.182808 0.407743 0.094736
v -0.222234 0.101045 0.094736
v 0.182808 0.101045 0.094736
v -0.162698 0.362662 0.390146
v -0.222234 0.407743 0.346724
v 0.123272 0.362662 0.390146
v 0.182808 0.407743 0.346724
v -0.162698 0.146126 0.390146
v -0.222234 0.101045 0.346724
v 0.123272 0.146126 0.390146
v 0.182808 0.101045 0.346724
v 0.020108 0.433524 0.280397
v 0.022101 0.433495 0.292032
v 0.026325 0.433520 0.303056
v 0.032617 0.433598 0.313044
v 0.040737 0.433725 0.321613
v 0.050372 0.433897 0.328432
v 0.061151 0.434107 0.333241
v 0.072661 0.434347 0.335854
v 0.084459 0.434609 0.336171
v 0.096092 0.434881 0.334179
v 0.107112 0.435153 0.329956
v 0.117097 0.435416 0.323664
v 0.125662 0.435658 0.315543
v 0.132479 0.435871 0.305907
v 0.137285 0.436046 0.295126
v 0.139896 0.436177 0.283614
v 0.140211 0.436258 0.271813
v 0.138219 0.436287 0.260178
v 0.133995 0.436262 0.249154
v 0.127702 0.436185 0.239166
v 0.119583 0.436058 0.230597
v 0.109948 0.435886 0.223778
v 0.099169 0.435676 0.218969
v 0.087659 0.435435 0.216356
v 0.075861 0.435174 0.216039
v 0.064228 0.434902 0.218031
v 0.053207 0.434629 0.222254
v 0.043223 0.434367 0.228546
v 0.034657 0.434124 0.236667
v 0.027840 0.433912 0.246303
v 0.023034 0.433736 0.257084
v 0.020424 0.433605 0.268596
v 0.017642 0.400925 0.279883
v 0.019642 0.400780 0.291749
v 0.023923 0.400594 0.302997
v 0.030321 0.400374 0.313193
v 0.038588 0.400129 0.321947
v 0.048408 0.399868 0.328922
v 0.059403 0.399601 0.333850
v 0.071151 0.399339 0.336541
v 0.083200 0.399091 0.336892
v 0.095087 0.398868 0.334890
v 0.106355 0.398677 0.330611
v 0.116572 0.398526 0.324220
v 0.125344 0.398420 0.315963
v 0.132335 0.398365 0.306157
v 0.137276 0.398362 0.295178
v 0.139977 0.398410 0.283449
v 0.140334 0.398509 0.271420
v 0.138334 0.398654 0.259554
v 0.134053 0.398841 0.248306
v 0.127655 0.399060 0.238110
v 0.119388 0.399305 0.229356
v 0.109568 0.399566 0.222381
v 0.098573 0.399833 0.217453
v 0.086825 0.400095 0.214762
v 0.074776 0.400343 0.214411
v 0.062889 0.400566 0.216413
v 0.051621 0.400758 0.220692
v 0.041404 0.400908 0.227083
v 0.032631 0.401014 0.235340
v 0.025641 0.401069 0.245147
v 0.020700 0.401073 0.256125
v 0.017999 0.401024 0.267854
v 0.017395 0.468211 0.280207
v 0.019395 0.468066 0.292073
v 0.023676 0.467880 0.303320
v 0.030073 0.467660 0.313517
v 0.038341 0.467415 0.322271
v 0.048161 0.467154 0.329246
v 0.059156 0.466887 0.334173
v 0.070904 0.466625 0.336865
v 0.082953 0.466378 0.337216
v 0.094840 0.466154 0.335214
v 0.106108 0.465963 0.330935
v 0.116325 0.465812 0.324544
v 0.125097 0.465707 0.316287
v 0.132088 0.465651 0.306480
v 0.137029 0.465648 0.295502
v 0.139730 0.465697 0.283773
v 0.140087 0.465795 0.271744
v 0.138086 0.465941 0.259878
v 0.133805 0.466127 0.248630
v 0.127408 0.466347 0.238434
v 0.119141 0.466592 0.229680
v 0.109321 0.466853 0.222705
v 0.098326 0.467119 0.217777
v 0.086578 0.467382 0.215086
v 0.074529 0.467629 0.214735
v 0.062642 0.467853 0.216737
v 0.051373 0.468044 0.221016
v 0.041157 0.468195 0.227407
v 0.032384 0.468300 0.235664
v 0.025393 0.468355 0.245470
v 0.020452 0.468359 0.256449
v 0.017752 0.468310 0.268178
v -0.184552 0.400925 0.279883
v -0.182551 0.400780 0.291749
v -0.178270 0.400594 0.302997
v -0.171873 0.400374 0.313193
v -0.163605 0.400129 0.321947
v -0.153785 0.399868 0.328922
v -0.142790 0.399601 0.333850
v -0.131042 0.399339 0.336541
v -0.118994 0.399091 0.336892
v -0.107106 0.398868 0.334890
v -0.095838 0.398677 0.330611
v -0.085621 0.398526 0.324220
v -0.076849 0.398420 0.315963
v -0.069858 0.398365 0.306157
v -0.064917 0.398362 0.295178
v -0.062216 0.398410 0.283449
v -0.061859 0.398509 0.271420
v -0.063860 0.398654 0.259554
v -0.068141 0.398841 0.248306
v -0.074538 0.399060 0.238110
v -0.082805 0.399305 0.229356
v -0.092625 0.399566 0.222381
v -0.103621 0.399833 0.217453
v -0.115368 0.400095 0.214762
v -0.127417 0.400343 0.214411
v -0.139304 0.400566 0.216413
v -0.150573 0.400758 0.220692
v -0.160790 0.400908 0.227083
v -0.169562 0.401014 0.235340
v -0.176553 0.401069 0.245147
v -0.181494 0.401073 0.256125
v -0.184194 0.401024 0.267854
v -0.184799 0.468211 0.280207
v -0.182798 0.468066 0.292073
v -0.178517 0.467880 0.303320
v -0.172120 0.467660 0.313517
v -0.163853 0.467415 0.322271
v -0.154033 0.467154 0.329246
v -0.143038 0.466888 0.334173
v -0.131290 0.466625 0.336865
v -0.119241 0.466378 0.337216
v -0.107354 0.466154 0.335214
v -0.096085 0.465963 0.330935
v -0.085869 0.465812 0.324544
v -0.077096 0.465707 0.316287
v -0.070105 0.465651 0.306480
v -0.065165 0.465648 0.295502
v -0.062464 0.465697 0.283773
v -0.062107 0.465795 0.271744
v -0.064107 0.465941 0.259878
v -0.068388 0.466127 0.248630
v -0.074785 0.466347 0.238434
v -0.083053 0.466592 0.229680
v -0.092873 0.466853 0.222705
v -0.103868 0.467119 0.217777
v -0.115616 0.467381 0.215086
v -0.127665 0.467629 0.214735
v -0.139552 0.467853 0.216737
v -0.150820 0.468044 0.221016
v -0.161037 0.468195 0.227407
v -0.169809 0.468300 0.235664
v -0.176800 0.468355 0.245470
v -0.181741 0.468359 0.256449
v -0.184442 0.468310 0.268178
v -0.182085 0.433524 0.280397
v -0.180092 0.433495 0.292032
v -0.175869 0.433520 0.303056
v -0.169576 0.433598 0.313044
v -0.161456 0.433725 0.321613
v -0.151822 0.433897 0.328432
v -0.141042 0.434107 0.333241
v -0.129533 0.434347 0.335854
v -0.117734 0.434609 0.336171
v -0.106102 0.434881 0.334179
v -0.095081 0.435153 0.329956
v -0.085096 0.435416 0.323664
v -0.076531 0.435658 0.315543
v -0.069714 0.435871 0.305907
v -0.064908 0.436046 0.295126
v -0.062297 0.436177 0.283614
v -0.061982 0.436258 0.271813
v -0.063975 0.436287 0.260178
v -0.068198 0.436262 0.249154
v -0.074491 0.436185 0.239166
v -0.082611 0.436058 0.230597
v -0.092245 0.435886 0.223778
v -0.103025 0.435675 0.218969
v -0.114535 0.435435 0.216356
v -0.126333 0.435174 0.216039
v -0.137965 0.434902 0.218031
v -0.148986 0.434629 0.222254
v -0.158971 0.434367 0.228546
v -0.167536 0.434124 0.236667
v -0.174353 0.433912 0.246303
v -0.179159 0.433736 0.257084
v -0.181770 0.433605 0.268596
v -0.392312 -0.122781 0.218613
v -0.392148 0.130959 0.114880
v -0.391963 0.617338 -0.021857
v -0.391953 0.662764 -0.099541
v -0.391978 0.647222 -0.182237
v -0.392002 0.634779 -0.204792
v -0.391471 0.613545 -0.225579
v -0.392053 0.576115 -0.243798
v -0.392592 -0.254776 -0.247438
v -0.392631 -0.314120 -0.225579
v -0.392655 -0.351271 -0.204792
v -0.392695 -0.412730 -0.142188
v -0.392700 -0.420617 -0.131236
v -0.392496 -0.405455 0.085697
v -0.392479 -0.379773 0.122624
v -0.392457 -0.345149 0.154990
v -0.392433 -0.308843 0.181552
v -0.392401 -0.259904 0.201290
v -0.392358 -0.192685 0.215571
v -0.298806 -0.122841 0.218613
v -0.298761 -0.131116 0.213444
v -0.298642 0.130898 0.114880
v -0.298457 0.617278 -0.021857
v -0.298447 0.662704 -0.099541
v -0.298472 0.647161 -0.182237
v -0.298495 0.634718 -0.204792
v -0.297965 0.613485 -0.225579
v -0.298547 0.576055 -0.243798
v -0.299086 -0.254836 -0.247438
v -0.299125 -0.314181 -0.225579
v -0.299149 -0.351332 -0.204792
v -0.299189 -0.412791 -0.142188
v -0.299194 -0.420678 -0.131236
v -0.298990 -0.405515 0.085697
v -0.298973 -0.379833 0.122624
v -0.298951 -0.345210 0.154990
v -0.298927 -0.308904 0.181552
v -0.298895 -0.259964 0.201290
v -0.298852 -0.192746 0.215571
v -0.392266 -0.129335 0.251796
v -0.392146 0.132678 0.153231
v -0.392496 -0.406345 0.124049
v -0.392478 -0.378053 0.160975
v -0.392456 -0.343430 0.193342
v -0.392432 -0.307123 0.219904
v -0.392400 -0.258184 0.239641
v -0.392357 -0.190966 0.253923
v -0.298760 -0.129396 0.251796
v -0.298640 0.132618 0.153231
v -0.298998 -0.418555 0.124049
v -0.298949 -0.343490 0.193342
v -0.298926 -0.307184 0.219904
v -0.298894 -0.258245 0.239641
v -0.298850 -0.191026 0.253923
v -0.392719 -0.449829 -0.121130
v -0.392515 -0.434666 0.095803
v -0.299213 -0.449890 -0.121130
v -0.299017 -0.446939 0.095803
v -0.392480 -0.380939 0.115731
v -0.298974 -0.381000 0.115731
v -0.392496 -0.406482 0.124089
v -0.298998 -0.418199 0.124003
v -0.391944 0.646214 -0.011931
v -0.298439 0.644405 -0.012613
v -0.392146 0.132801 0.153622
v -0.391457 0.634695 -0.241517
v -0.392053 0.576502 -0.267507
v -0.392248 0.275677 -0.285999
v -0.392322 0.161056 -0.288309
v -0.392592 -0.254389 -0.271147
v -0.392631 -0.313734 -0.249288
v -0.297951 0.634448 -0.240884
v -0.298547 0.576441 -0.267507
v -0.298742 0.275617 -0.285999
v -0.299086 -0.254450 -0.271147
v -0.299125 -0.313795 -0.249288
v -0.391933 0.693731 -0.095794
v -0.391958 0.678189 -0.194690
v -0.391981 0.665745 -0.217244
v -0.298426 0.693671 -0.096010
v -0.298452 0.678128 -0.194690
v -0.298475 0.665685 -0.217244
v -0.391944 0.645989 -0.012027
v -0.391981 0.665654 -0.217157
v -0.391457 0.634520 -0.241027
v -0.298475 0.665934 -0.216921
v -0.297951 0.634460 -0.241027
v -0.392671 -0.375861 -0.215367
v -0.392688 -0.401766 -0.193167
v -0.392714 -0.442285 -0.143551
v -0.299165 -0.375856 -0.215065
v -0.299182 -0.401827 -0.193167
v -0.299209 -0.443239 -0.143501
v -0.392715 -0.443036 -0.143355
v -0.392719 -0.449786 -0.121147
v -0.299208 -0.443097 -0.143355
v -0.299212 -0.449255 -0.121150
v -0.392631 -0.313537 -0.249203
v -0.299125 -0.313959 -0.249896
v -0.299145 -0.344907 -0.232481
v -0.392285 0.218367 -0.287154
v -0.298779 0.218306 -0.287154
v -0.392248 0.275677 -0.285999
v -0.298742 0.275617 -0.285999
v -0.392285 0.218367 -0.287154
v -0.298779 0.218306 -0.287154
v 0.185282 -0.048785 0.523850
v 0.178735 -0.063995 0.542972
v 0.160848 -0.075130 0.556970
v 0.136414 -0.079206 0.562094
v 0.111981 -0.075130 0.556970
v 0.094094 -0.063995 0.542972
v 0.087547 -0.048785 0.523850
v 0.094094 -0.033574 0.504728
v 0.111981 -0.022439 0.490730
v 0.136414 -0.018363 0.485606
v 0.160848 -0.022439 0.490730
v 0.178735 -0.033574 0.504728
v 0.136414 0.039212 0.593849
v 0.189847 -0.322493 0.308213
v 0.182518 -0.305466 0.286809
v 0.162497 -0.293002 0.271140
v 0.135147 -0.288440 0.265405
v 0.107797 -0.293002 0.271140
v 0.087775 -0.305466 0.286809
v 0.080446 -0.322493 0.308213
v 0.087775 -0.339519 0.329617
v 0.107797 -0.351983 0.345286
v 0.135147 -0.356545 0.351021
v 0.162497 -0.351983 0.345286
v 0.182518 -0.339519 0.329617
v 0.189847 -0.064276 0.513616
v 0.182519 -0.047250 0.492211
v 0.162497 -0.034786 0.476543
v 0.135147 -0.030224 0.470807
v 0.107797 -0.034786 0.476543
v 0.087775 -0.047250 0.492211
v 0.080446 -0.064276 0.513616
v 0.087775 -0.081303 0.535020
v 0.107797 -0.093767 0.550689
v 0.135147 -0.098329 0.556424
v 0.162497 -0.093767 0.550689
v 0.182519 -0.081303 0.535020
v 0.196161 -0.039363 0.488421
v 0.205600 -0.061292 0.515989
v 0.170373 -0.023309 0.468240
v 0.135147 -0.017433 0.460853
v 0.099920 -0.023309 0.468240
v 0.074132 -0.039363 0.488421
v 0.064693 -0.061292 0.515989
v 0.074132 -0.083222 0.543558
v 0.099920 -0.099276 0.563739
v 0.135147 -0.105152 0.571126
v 0.170373 -0.099276 0.563739
v 0.196161 -0.083222 0.543558
v 0.178556 -0.028587 0.509981
v 0.185271 -0.044189 0.529595
v 0.160209 -0.017165 0.495623
v 0.135147 -0.012985 0.490367
v 0.110084 -0.017165 0.495623
v 0.091737 -0.028587 0.509981
v 0.085022 -0.044189 0.529595
v 0.091737 -0.059791 0.549208
v 0.110084 -0.071212 0.563567
v 0.135147 -0.075393 0.568822
v 0.160209 -0.071212 0.563567
v 0.178556 -0.059791 0.549208
v 0.196161 -0.022259 0.502026
v 0.205600 -0.044189 0.529595
v 0.170373 -0.006205 0.481845
v 0.135147 -0.000329 0.474458
v 0.099920 -0.006205 0.481845
v 0.074132 -0.022259 0.502026
v 0.064693 -0.044189 0.529595
v 0.074132 -0.066118 0.557163
v 0.099920 -0.082172 0.577344
v 0.135147 -0.088048 0.584731
v 0.170373 -0.082172 0.577344
v 0.196161 -0.066118 0.557163
v 0.036921 -0.048785 0.523850
v 0.030374 -0.063995 0.542972
v 0.012487 -0.075130 0.556970
v -0.011947 -0.079206 0.562094
v -0.036381 -0.075130 0.556970
v -0.054267 -0.063995 0.542972
v -0.060814 -0.048785 0.523850
v -0.054267 -0.033574 0.504728
v -0.036381 -0.022439 0.490730
v -0.011947 -0.018363 0.485606
v 0.012487 -0.022439 0.490730
v 0.030374 -0.033574 0.504728
v -0.011947 0.039212 0.593849
v 0.041486 -0.322493 0.308213
v 0.034157 -0.305466 0.286809
v 0.014136 -0.293002 0.271140
v -0.013214 -0.288440 0.265405
v -0.040564 -0.293002 0.271140
v -0.060586 -0.305466 0.286809
v -0.067915 -0.322493 0.308213
v -0.060586 -0.339519 0.329617
v -0.040564 -0.351983 0.345286
v -0.013214 -0.356545 0.351021
v 0.014136 -0.351983 0.345286
v 0.034157 -0.339519 0.329617
v 0.041486 -0.064276 0.513616
v 0.034157 -0.047250 0.492211
v 0.014136 -0.034786 0.476543
v -0.013214 -0.030224 0.470807
v -0.040564 -0.034786 0.476543
v -0.060586 -0.047250 0.492211
v -0.067915 -0.064276 0.513616
v -0.060586 -0.081303 0.535020
v -0.040564 -0.093767 0.550689
v -0.013214 -0.098329 0.556424
v 0.014136 -0.093767 0.550689
v 0.034157 -0.081303 0.535020
v 0.047800 -0.039363 0.488421
v 0.057239 -0.061292 0.515989
v 0.022012 -0.023309 0.468240
v -0.013214 -0.017433 0.460853
v -0.048441 -0.023309 0.468240
v -0.074229 -0.039363 0.488421
v -0.083668 -0.061292 0.515989
v -0.074229 -0.083222 0.543558
v -0.048441 -0.099276 0.563739
v -0.013214 -0.105152 0.571126
v 0.022012 -0.099276 0.563739
v 0.047800 -0.083222 0.543558
v 0.030195 -0.028587 0.509981
v 0.036910 -0.044189 0.529595
v 0.011848 -0.017165 0.495623
v -0.013214 -0.012985 0.490367
v -0.038277 -0.017165 0.495623
v -0.056624 -0.028587 0.509981
v -0.063339 -0.044189 0.529595
v -0.056624 -0.059791 0.549208
v -0.038277 -0.071212 0.563567
v -0.013214 -0.075393 0.568822
v 0.011848 -0.071212 0.563567
v 0.030195 -0.059791 0.549208
v 0.047800 -0.022259 0.502026
v 0.057239 -0.044189 0.529595
v 0.022012 -0.006205 0.481845
v -0.013214 -0.000329 0.474458
v -0.048441 -0.006205 0.481845
v -0.074229 -0.022259 0.502026
v -0.083668 -0.044189 0.529595
v -0.074229 -0.066118 0.557163
v -0.048441 -0.082172 0.577344
v -0.013214 -0.088048 0.584731
v 0.022012 -0.082172 0.577344
v 0.047800 -0.066118 0.557163
v -0.116909 -0.048785 0.523850
v -0.123456 -0.063995 0.542972
v -0.141343 -0.075131 0.556970
v -0.165777 -0.079206 0.562094
v -0.190211 -0.075131 0.556970
v -0.208098 -0.063995 0.542972
v -0.214645 -0.048785 0.523850
v -0.208098 -0.033574 0.504728
v -0.190211 -0.022439 0.490730
v -0.165777 -0.018363 0.485606
v -0.141343 -0.022439 0.490730
v -0.123456 -0.033574 0.504728
v -0.165777 0.039212 0.593849
v -0.112345 -0.322493 0.308213
v -0.119673 -0.305466 0.286809
v -0.139695 -0.293002 0.271140
v -0.167045 -0.288440 0.265405
v -0.194395 -0.293002 0.271140
v -0.214417 -0.305466 0.286809
v -0.221745 -0.322493 0.308213
v -0.214417 -0.339519 0.329617
v -0.194395 -0.351983 0.345286
v -0.167045 -0.356545 0.351021
v -0.139695 -0.351983 0.345286
v -0.119673 -0.339519 0.329617
v -0.112345 -0.064276 0.513616
v -0.119673 -0.047250 0.492211
v -0.139695 -0.034786 0.476543
v -0.167045 -0.030224 0.470807
v -0.194395 -0.034786 0.476543
v -0.214417 -0.047250 0.492211
v -0.221745 -0.064276 0.513616
v -0.214417 -0.081303 0.535020
v -0.194395 -0.093767 0.550689
v -0.167045 -0.098329 0.556424
v -0.139695 -0.093767 0.550689
v -0.119673 -0.081303 0.535020
v -0.106030 -0.039363 0.488421
v -0.096591 -0.061292 0.515989
v -0.131818 -0.023309 0.468240
v -0.167045 -0.017433 0.460853
v -0.202272 -0.023309 0.468240
v -0.228059 -0.039363 0.488421
v -0.237498 -0.061292 0.515989
v -0.228059 -0.083222 0.543558
v -0.202272 -0.099276 0.563739
v -0.167045 -0.105152 0.571126
v -0.131818 -0.099276 0.563739
v -0.106030 -0.083222 0.543558
v -0.123636 -0.028587 0.509981
v -0.116920 -0.044189 0.529595
v -0.141983 -0.017165 0.495623
v -0.167045 -0.012985 0.490367
v -0.192107 -0.017165 0.495623
v -0.210454 -0.028587 0.509981
v -0.217170 -0.044189 0.529595
v -0.210454 -0.059791 0.549208
v -0.192107 -0.071212 0.563567
v -0.167045 -0.075393 0.568822
v -0.141983 -0.071212 0.563567
v -0.123636 -0.059791 0.549208
v -0.106030 -0.022259 0.502026
v -0.096591 -0.044189 0.529595
v -0.131818 -0.006205 0.481845
v -0.167045 -0.000329 0.474458
v -0.202272 -0.006205 0.481845
v -0.228059 -0.022259 0.502026
v -0.237498 -0.044189 0.529595
v -0.228059 -0.066118 0.557163
v -0.202272 -0.082172 0.577344
v -0.167045 -0.088048 0.584731
v -0.131818 -0.082172 0.577344
v -0.106030 -0.066118 0.557163
v 0.009892 0.404313 0.269792
v 0.029087 0.403603 0.316165
v 0.075428 0.401887 0.335374
v 0.121769 0.400172 0.316165
v 0.140964 0.399462 0.269792
v 0.121769 0.400172 0.223419
v 0.075428 0.401887 0.204211
v 0.029087 0.403603 0.223419
v 0.031104 0.458103 0.316165
v 0.011909 0.458813 0.269792
v 0.077445 0.456388 0.335374
v 0.123786 0.454673 0.316165
v 0.142981 0.453963 0.269792
v 0.123786 0.454673 0.223419
v 0.077445 0.456388 0.204211
v 0.031104 0.458103 0.223419
v 0.030044 0.429463 0.316165
v 0.010849 0.430173 0.269792
v 0.076385 0.427748 0.335374
v 0.122726 0.426033 0.316165
v 0.141921 0.425323 0.269792
v 0.122726 0.426033 0.223419
v 0.076385 0.427748 0.204211
v 0.030044 0.429463 0.223419
vn 0.9232 -0.0342 -0.3827
vn -0.9232 0.0342 -0.3827
vn 0.3824 -0.0142 -0.9239
vn 0.9232 -0.0342 0.3827
vn -0.3824 0.0142 0.9239
vn -0.3824 0.0142 -0.9239
vn 0.3824 -0.0142 0.9239
vn -0.9232 0.0342 0.3827
vn -0.0370 -0.9993 -0.0000
vn -0.0000 0.8349 0.5504
vn 1.0000 -0.0000 -0.0000
vn -0.0000 -1.0000 -0.0000
vn -1.0000 -0.0000 -0.0000
vn -0.0000 0.4413 -0.8974
vn -0.0000 -0.0461 0.9989
vn 1.0000 0.0004 0.0003
vn -0.0002 0.3328 0.9430
vn -0.0004 0.5897 0.8076
vn 0.0006 -0.9999 -0.0163
vn 0.0006 -0.9997 -0.0232
vn -1.0000 -0.0006 -0.0002
vn 1.0000 0.0006 -0.0000
vn 0.0006 -0.9999 0.0136
vn 0.0002 -0.3456 -0.9384
vn -0.9999 0.0078 0.0115
vn 0.9933 0.0146 -0.1150
vn 0.0006 -0.9990 0.0448
vn -0.0000 0.0614 -0.9981
vn 0.0002 -0.3269 -0.9450
vn -0.0002 0.3110 0.9504
vn -0.0002 0.3226 -0.9465
vn 0.0006 -0.9544 0.2985
vn -0.0003 0.4078 -0.9131
vn 0.0370 0.9993 -0.0000
vn 1.0000 0.0006 0.0002
vn -1.0000 -0.0006 -0.0000
vn -0.0006 0.8756 -0.4830
vn 0.0002 -0.3731 -0.9278
vn 0.0022 0.1201 -0.9928
vn 0.0004 -0.5930 -0.8052
vn -0.0002 0.3718 0.9283
vn 0.0922 -0.7024 0.7058
vn 0.0029 -0.3951 0.9186
vn -0.0000 0.0385 -0.9993
vn -0.0006 0.9997 0.0247
vn 0.0002 -0.3740 0.9274
vn -0.0017 0.8688 0.4952
vn 0.0027 -0.7700 -0.6380
vn -1.0000 -0.0007 -0.0000
vn -0.0021 0.2528 0.9675
vn 0.0006 -0.9568 -0.2908
vn 0.0002 0.0315 0.9995
vn 1.0000 0.0046 0.0001
vn 0.9999 -0.0054 -0.0150
vn 1.0000 0.0004 0.0001
vn -1.0000 -0.0004 -0.0003
vn -0.0003 0.9879 -0.1553
vn -0.0005 0.7747 -0.6323
vn -0.0826 -0.7911 0.6061
vn -0.0168 0.1268 0.9918
vn 1.0000 0.0007 -0.0000
vn 0.0050 0.3943 -0.9190
vn 0.0008 0.7926 -0.6098
vn 0.0006 -0.9419 -0.3359
vn 0.0004 -0.5905 0.8071
vn 0.0003 -0.4829 -0.8757
vn -0.0025 -0.6507 -0.7593
vn 0.0006 -0.9656 0.2599
vn -0.0000 0.0202 -0.9998
vn -0.0004 0.6159 -0.7879
vn 0.0046 0.3083 0.9513
vn -0.0000 1.0000 -0.0000
vn -0.0000 -0.4034 -0.9150
vn -0.0000 0.5258 0.8506
vn -0.0000 -0.0000 -1.0000
vn -0.0000 0.4144 -0.9101
vn -0.0000 -0.0338 -0.9994
vn -0.0000 -0.5172 0.8559
vn -0.0000 0.6937 0.7202
vn 0.5893 -0.0000 0.8079
vn -0.0000 -0.6937 0.7202
vn -0.5893 -0.0000 0.8079
vn -0.0000 -0.0000 1.0000
vn 0.0002 0.3521 0.9360
vn -0.0002 0.3521 0.9360
vn 1.0000 -0.0004 -0.0000
vn -0.9995 -0.0022 -0.0306
vn -1.0000 -0.0004 -0.0000
vn -0.0010 -0.0431 0.9991
vn -1.0000 0.0004 0.0003
vn 0.0002 0.3328 0.9430
vn -0.0038 0.6018 0.7986
vn -0.0006 -0.9999 -0.0163
vn -0.0006 -0.9997 -0.0232
vn 1.0000 -0.0006 -0.0002
vn -1.0000 0.0007 -0.0000
vn -1.0000 0.0006 -0.0000
vn -0.0046 0.3083 0.9513
vn -0.1298 -0.9891 0.0693
vn -0.0002 -0.3456 -0.9384
vn 0.9999 0.0112 -0.0093
vn 0.0006 0.9990 -0.0448
vn -0.0000 0.0220 0.9998
vn -0.0002 -0.3269 -0.9450
vn 0.0281 0.2170 0.9758
vn 0.0002 0.3226 -0.9465
vn -0.0006 -0.9544 0.2985
vn 0.0003 0.4078 -0.9131
vn -1.0000 0.0006 0.0002
vn 1.0000 -0.0006 -0.0000
vn 0.0006 0.8756 -0.4830
vn -0.0002 -0.3731 -0.9278
vn 0.0001 0.1133 -0.9936
vn 0.0004 -0.3245 0.9459
vn -0.0004 -0.5930 -0.8052
vn 0.0002 0.3718 0.9283
vn -0.0922 -0.7024 0.7058
vn -0.0003 -0.3864 0.9223
vn 0.0006 0.9997 0.0247
vn -0.0002 -0.3740 0.9274
vn 0.0017 0.8688 0.4952
vn -0.0027 -0.7700 -0.6380
vn 0.0331 -0.0338 -0.9989
vn 0.0021 0.2528 0.9675
vn -0.0006 -0.9568 -0.2908
vn -0.0001 -0.2078 0.9782
vn -0.0002 0.0316 0.9995
vn -1.0000 0.0045 0.0001
vn 1.0000 0.0001 -0.0008
vn -0.9999 -0.0054 -0.0150
vn -0.0000 0.0345 0.9994
vn -1.0000 0.0005 0.0004
vn 1.0000 -0.0004 -0.0003
vn 0.0006 0.9878 -0.1556
vn 0.0005 0.7747 -0.6323
vn -0.0073 -0.6829 0.7305
vn 0.0168 0.1268 0.9918
vn -0.0050 0.3943 -0.9190
vn 0.0004 0.6909 0.7229
vn -0.0006 -0.9419 -0.3360
vn -0.0004 -0.5905 0.8071
vn -0.0068 -0.4904 -0.8715
vn -0.0004 -0.6446 -0.7645
vn -1.0000 0.0006 -0.0001
vn -0.0006 -0.9657 0.2597
vn 0.0057 0.6060 -0.7955
vn 0.8906 0.1544 0.4277
vn 0.6520 -0.1030 0.7512
vn 0.2386 -0.2515 0.9380
vn -0.2386 -0.2515 0.9380
vn -0.6520 -0.1030 0.7512
vn -0.8906 0.1544 0.4277
vn -0.8906 0.4515 0.0542
vn -0.6520 0.7088 -0.2693
vn -0.2386 0.8574 -0.4560
vn 0.2386 0.8574 -0.4560
vn -0.0000 -0.7826 -0.6225
vn 0.6520 0.7088 -0.2693
vn 0.8906 0.4515 0.0542
vn 0.2348 -0.7200 -0.6531
vn -0.2588 0.6013 -0.7559
vn 0.7071 -0.4402 0.5534
vn 0.9659 0.1611 -0.2026
vn -0.7071 -0.4402 0.5534
vn -0.7071 0.4402 -0.5534
vn 0.9659 -0.1611 0.2026
vn 0.7071 0.4402 -0.5534
vn -0.2588 -0.6013 0.7559
vn -0.9659 0.1611 -0.2026
vn 0.2588 0.6013 -0.7559
vn 0.2588 -0.6013 0.7559
vn -0.9659 -0.1611 0.2026
vn -0.1719 -0.8661 -0.4693
vn -0.1719 -0.6521 -0.7384
vn 0.2348 -0.7983 -0.5546
vn 0.1719 -0.6521 -0.7384
vn -0.0629 -0.9053 -0.4201
vn -0.2348 -0.7200 -0.6531
vn 0.0629 -0.6130 -0.7876
vn 0.0629 -0.9053 -0.4201
vn -0.2348 -0.7983 -0.5546
vn -0.0629 -0.6130 -0.7876
vn 0.1719 -0.8661 -0.4693
vn -0.0000 0.7826 0.6225
vn -0.1719 -0.8661 -0.4694
vn 0.1719 -0.8661 -0.4694
vn -0.9659 -0.1611 0.2025
vn -0.0002 0.4418 -0.8971
vn 0.0010 -0.0431 0.9991
vn 1.0000 0.0009 0.0006
vn 1.0000 0.0020 -0.0001
vn 0.0018 0.3269 0.9451
vn 0.0038 0.6018 0.7986
vn 0.1227 -0.9396 -0.3195
vn 1.0000 0.0005 -0.0000
vn 0.1298 -0.9891 0.0693
vn -0.9998 0.0066 0.0187
vn -0.9986 0.0414 -0.0323
vn 0.9999 0.0097 0.0120
vn 0.9997 -0.0007 0.0245
vn -0.0281 0.2170 0.9758
vn 0.0006 0.3251 -0.9457
vn -0.0072 0.4171 -0.9089
vn -0.9999 -0.0096 -0.0122
vn -0.9997 0.0008 -0.0242
vn -0.9999 -0.0004 -0.0147
vn -0.9910 -0.0167 0.1328
vn -0.0001 0.1133 -0.9936
vn -0.0004 -0.3245 0.9459
vn 0.0034 0.3622 0.9321
vn 0.0908 -0.7054 0.7029
vn 0.0003 -0.3864 0.9223
vn -0.0046 0.9999 0.0092
vn -0.0178 0.8609 0.5085
vn 0.0005 -0.7680 -0.6404
vn -1.0000 0.0018 0.0059
vn -1.0000 -0.0016 -0.0030
vn 0.5088 -0.8280 -0.2358
vn 0.0010 -0.9563 -0.2923
vn 0.0001 -0.2078 0.9782
vn 1.0000 0.0013 0.0017
vn 0.0843 -0.0935 0.9920
vn 1.0000 0.0009 0.0016
vn 1.0000 0.0010 0.0009
vn 1.0000 -0.0003 0.0010
vn -1.0000 -0.0010 -0.0009
vn -1.0000 0.0003 -0.0009
vn -1.0000 -0.0010 0.0004
vn -1.0000 -0.0023 -0.0006
vn 1.0000 0.0008 -0.0002
vn 0.9998 -0.0104 -0.0149
vn 0.9999 -0.0132 -0.0049
vn 1.0000 0.0004 -0.0000
vn 1.0000 0.0005 0.0004
vn -1.0000 -0.0020 0.0001
vn -1.0000 -0.0009 -0.0006
vn -0.0006 0.9878 -0.1556
vn 0.0004 -0.6829 0.7305
vn 0.0882 -0.6756 0.7320
vn -0.0004 0.6908 0.7231
vn -0.0029 -0.4792 -0.8777
vn 0.0004 -0.6446 -0.7645
vn -0.0057 0.6060 -0.7955
vn 0.0129 0.3069 0.9517
vn 1.0000 -0.0005 -0.0004
vn -0.9994 0.0181 0.0293
vn -0.9962 -0.0870 -0.0000
vn -0.9999 0.0103 -0.0110
vn -1.0000 -0.0005 -0.0004
vn -1.0000 0.0020 -0.0001
vn -1.0000 0.0009 0.0006
vn -0.0018 0.3269 0.9451
vn 0.0004 0.5897 0.8076
vn -0.1227 -0.9396 -0.3195
vn -1.0000 0.0014 -0.0033
vn -1.0000 0.0005 -0.0000
vn -1.0000 0.0013 0.0017
vn -1.0000 0.0011 -0.0009
vn -1.0000 0.0006 0.0015
vn -1.0000 0.0002 0.0022
vn -1.0000 0.0005 0.0013
vn -0.0129 0.3069 0.9517
vn -0.0006 -0.9999 0.0136
vn 0.9998 0.0066 0.0187
vn 0.9999 0.0079 0.0116
vn -0.9999 0.0097 0.0120
vn -0.9997 -0.0009 0.0249
vn -0.9999 0.0003 0.0150
vn -0.9933 0.0146 -0.1150
vn 0.0002 0.3110 0.9504
vn -0.0006 0.3251 -0.9457
vn 0.0072 0.4171 -0.9089
vn 1.0000 -0.0007 -0.0000
vn 0.9999 -0.0066 -0.0081
vn 0.9999 -0.0154 -0.0002
vn -0.0022 0.1201 -0.9928
vn -0.0034 0.3622 0.9321
vn -0.0908 -0.7054 0.7029
vn -0.0029 -0.3951 0.9186
vn 0.0046 0.9999 0.0092
vn 0.0178 0.8609 0.5085
vn -0.0005 -0.7680 -0.6404
vn 1.0000 0.0018 0.0059
vn 1.0000 -0.0005 -0.0000
vn 1.0000 -0.0014 0.0033
vn 1.0000 -0.0011 0.0009
vn 1.0000 -0.0013 -0.0017
vn 1.0000 -0.0006 -0.0015
vn 1.0000 -0.0004 -0.0019
vn 1.0000 -0.0008 -0.0000
vn -0.0000 -0.0413 -0.9991
vn -0.0010 -0.9563 -0.2923
vn -1.0000 0.0010 0.0009
vn -1.0000 -0.0003 0.0010
vn 1.0000 -0.0010 -0.0009
vn 1.0000 -0.0029 -0.0007
vn -1.0000 0.0012 0.0007
vn -0.9999 -0.0131 -0.0048
vn -0.9998 -0.0104 -0.0149
vn -1.0000 0.0004 -0.0000
vn 1.0000 -0.0009 -0.0006
vn 1.0000 -0.0020 0.0001
vn 0.0003 0.9879 -0.1553
vn -0.1031 -0.7895 0.6050
vn -0.0004 -0.6783 0.7348
vn -0.0008 0.7925 -0.6099
vn 0.0029 -0.4792 -0.8777
vn -0.0003 -0.4753 -0.8798
vn 0.0025 -0.6507 -0.7593
vn 0.0004 0.6159 -0.7879
vn 0.9659 -0.1611 0.2025
vt 0.000000 0.000000
vt 0.375000 0.000000
vt 0.625000 0.250000
vt 0.375000 0.250000
vt 0.625000 0.500000
vt 0.375000 0.500000
vt 0.375000 0.750000
vt 0.625000 1.000000
vt 0.375000 1.000000
vt 0.125000 0.500000
vt 0.125000 0.750000
vt 0.625000 0.000000
vt 0.343750 0.750000
vt 0.343750 0.500000
vt 0.875000 0.500000
vt 0.812500 0.750000
vt 0.812500 0.500000
vt 0.187500 0.750000
vt 0.187500 0.500000
vt 0.656250 0.500000
vt 0.625000 0.750000
vt 0.838253 0.713253
vt 0.875000 0.500000
vt 0.875000 0.750000
vt 0.661747 0.536747
vt 0.838253 0.536747
vt 0.661747 0.713253
vt 0.591415 0.500000
vt 0.591415 0.750000
vt 0.588253 0.000000
vt 0.588253 0.250000
vt 0.375000 0.312500
vt 0.375000 0.937500
vt 0.625000 0.781250
vt 0.656250 0.750000
vt 0.250000 0.490000
vt 0.250000 0.250000
vt 0.370000 0.457846
vt 0.457846 0.370000
vt 0.490000 0.250000
vt 0.457846 0.130000
vt 0.370000 0.042154
vt 0.250000 0.010000
vt 0.130000 0.042154
vt 0.042154 0.130000
vt 0.010000 0.250000
vt 0.042154 0.370000
vt 0.990000 0.250000
vt 0.630000 0.042154
vt 0.630000 0.457846
vt 0.130000 0.457846
vt 0.875000 0.750000
vt 0.588253 1.000000
vt 0.625000 0.312500
vt 0.625000 0.468750
vt 0.375000 0.468750
vt 0.625000 0.937500
vt 0.375000 0.781250
vt 0.750000 0.490000
vt 0.870000 0.457846
vt 0.957846 0.370000
vt 0.957846 0.130000
vt 0.870000 0.042154
vt 0.750000 0.010000
vt 0.542154 0.130000
vt 0.510000 0.250000
vt 0.542154 0.370000
s 0
usemtl Material
f 1/1/1 17/1/1 2/1/1
f 1/1/2 16/1/2 8/1/2
f 7/1/3 14/1/3 6/1/3
f 5/1/4 12/1/4 4/1/4
f 3/1/5 9/1/5 2/1/5
f 8/1/6 15/1/6 7/1/6
f 6/1/1 13/1/1 5/1/1
f 4/1/7 11/1/7 3/1/7
f 2/1/8 10/1/8 1/1/8
f 8/1/4 18/1/4 1/1/4
f 6/1/5 23/1/5 7/1/5
f 4/1/2 21/1/2 5/1/2
f 2/1/3 19/1/3 3/1/3
f 7/1/7 24/1/7 8/1/7
f 5/1/8 22/1/8 6/1/8
f 3/1/6 20/1/6 4/1/6
f 25/2/10 28/3/10 27/4/10
f 27/4/11 28/5/11 30/6/11
f 28/5/12 29/7/12 30/6/12
f 29/7/13 26/8/13 25/9/13
f 27/10/14 29/7/14 25/11/14
f 62/1/15 120/1/15 42/1/15
f 72/1/20 64/1/20 44/1/20
f 93/1/21 54/1/21 53/1/21
f 116/1/25 117/1/25 57/1/25
f 131/1/34 133/1/34 97/1/34
f 132/1/36 106/1/36 59/1/36
f 114/1/41 56/1/41 36/1/41
f 42/1/44 126/1/44 62/1/44
f 121/1/36 123/1/36 62/1/36
f 68/1/49 67/1/49 83/1/49
f 62/1/36 86/1/36 127/1/36
f 129/1/36 121/1/36 61/1/36
f 123/1/50 124/1/50 120/1/50
f 127/1/52 86/1/52 125/1/52
f 64/1/36 79/1/36 89/1/36
f 110/1/56 112/1/56 55/1/56
f 128/1/62 100/1/62 129/1/62
f 97/1/34 134/1/34 103/1/34
f 132/1/34 135/1/34 131/1/34
f 103/1/34 136/1/34 132/1/34
f 117/1/64 95/1/64 115/1/64
f 129/1/61 106/1/61 130/1/61
f 100/1/68 106/1/68 129/1/68
f 138/12/72 139/4/72 137/2/72
f 144/5/12 141/7/12 143/6/12
f 143/6/73 150/13/73 151/14/73
f 140/15/74 146/16/74 147/17/74
f 151/14/75 148/18/75 145/19/75
f 145/19/76 137/11/76 139/10/76
f 149/20/78 142/21/78 144/5/78
f 154/10/75 155/7/75 153/11/75
f 157/22/79 160/23/79 158/24/79
f 163/25/80 160/23/80 159/26/80
f 161/27/81 164/28/81 163/25/81
f 157/22/82 162/29/82 161/27/82
f 162/29/13 153/9/13 155/7/13
f 158/30/72 154/4/72 153/2/72
f 159/26/83 161/27/83 163/25/83
f 160/31/11 156/6/11 154/4/11
f 164/28/12 155/7/12 156/6/12
f 143/6/11 145/32/11 140/3/11
f 379/1/86 405/1/86 378/1/86
f 148/33/87 141/7/87 152/34/87
f 78/1/88 53/1/88 52/1/88
f 388/1/89 446/1/89 449/1/89
f 390/1/94 398/1/94 370/1/94
f 149/20/103 146/16/103 152/35/103
f 457/1/34 459/1/34 461/1/34
f 449/1/124 446/1/124 450/1/124
f 453/1/127 451/1/127 413/1/127
f 418/1/137 417/1/137 406/1/137
f 424/1/34 460/1/34 459/1/34
f 458/1/34 461/1/34 462/1/34
f 430/1/34 462/1/34 460/1/34
f 440/1/139 438/1/139 435/1/139
f 443/1/140 441/1/140 422/1/140
f 455/1/144 456/1/144 432/1/144
f 486/1/157 482/1/157 478/1/157
f 489/1/160 501/1/160 488/1/160
f 480/1/161 491/1/161 479/1/161
f 487/1/162 498/1/162 486/1/162
f 476/1/163 489/1/163 488/1/163
f 483/1/164 496/1/164 495/1/164
f 481/1/165 492/1/165 480/1/165
f 476/1/166 499/1/166 487/1/166
f 478/1/167 489/1/167 477/1/167
f 485/1/168 496/1/168 484/1/168
f 482/1/169 493/1/169 481/1/169
f 479/1/170 490/1/170 478/1/170
f 486/1/171 497/1/171 485/1/171
f 482/1/172 495/1/172 494/1/172
f 511/1/162 534/1/162 510/1/162
f 496/1/173 507/1/173 495/1/173
f 492/1/174 505/1/174 504/1/174
f 499/1/175 501/1/175 511/1/175
f 490/1/176 500/1/176 489/1/176
f 496/1/177 509/1/177 508/1/177
f 493/1/178 506/1/178 505/1/178
f 491/1/179 502/1/179 490/1/179
f 497/1/180 510/1/180 509/1/180
f 494/1/181 507/1/181 506/1/181
f 491/1/182 504/1/182 503/1/182
f 499/1/183 510/1/183 498/1/183
f 516/1/184 520/1/184 513/1/184
f 500/1/163 525/1/163 501/1/163
f 507/1/164 532/1/164 531/1/164
f 505/1/165 528/1/165 504/1/165
f 501/1/166 535/1/166 511/1/166
f 500/1/167 526/1/167 524/1/167
f 508/1/168 533/1/168 532/1/168
f 506/1/169 529/1/169 505/1/169
f 502/1/170 527/1/170 526/1/170
f 510/1/171 533/1/171 509/1/171
f 507/1/172 530/1/172 506/1/172
f 504/1/161 527/1/161 503/1/161
f 512/1/184 525/1/184 524/1/184
f 512/1/184 526/1/184 514/1/184
f 514/1/184 527/1/184 515/1/184
f 515/1/184 528/1/184 516/1/184
f 516/1/184 529/1/184 517/1/184
f 517/1/184 530/1/184 518/1/184
f 518/1/184 531/1/184 519/1/184
f 520/1/184 531/1/184 532/1/184
f 521/1/184 532/1/184 533/1/184
f 521/1/184 534/1/184 522/1/184
f 522/1/184 535/1/184 523/1/184
f 523/1/184 525/1/184 513/1/184
f 559/1/157 555/1/157 551/1/157
f 562/1/160 574/1/160 561/1/160
f 553/1/161 564/1/161 552/1/161
f 560/1/162 571/1/162 559/1/162
f 550/1/163 561/1/163 549/1/163
f 557/1/164 568/1/164 556/1/164
f 554/1/165 565/1/165 553/1/165
f 549/1/166 572/1/166 560/1/166
f 551/1/167 562/1/167 550/1/167
f 558/1/168 569/1/168 557/1/168
f 555/1/169 566/1/169 554/1/169
f 552/1/170 563/1/170 551/1/170
f 558/1/171 571/1/171 570/1/171
f 556/1/172 567/1/172 555/1/172
f 583/1/162 608/1/162 607/1/162
f 568/1/185 581/1/185 580/1/185
f 565/1/174 578/1/174 577/1/174
f 561/1/175 584/1/175 572/1/175
f 563/1/176 573/1/176 562/1/176
f 570/1/177 581/1/177 569/1/177
f 566/1/178 579/1/178 578/1/178
f 564/1/179 575/1/179 563/1/179
f 570/1/180 583/1/180 582/1/180
f 568/1/181 579/1/181 567/1/181
f 564/1/182 577/1/182 576/1/182
f 572/1/183 583/1/183 571/1/183
f 589/1/184 593/1/184 586/1/184
f 573/1/163 598/1/163 574/1/163
f 581/1/164 604/1/164 580/1/164
f 577/1/165 602/1/165 601/1/165
f 574/1/166 608/1/166 584/1/166
f 575/1/167 597/1/167 573/1/167
f 581/1/168 606/1/168 605/1/168
f 578/1/169 603/1/169 602/1/169
f 575/1/170 600/1/170 599/1/170
f 583/1/171 606/1/171 582/1/171
f 579/1/172 604/1/172 603/1/172
f 577/1/161 600/1/161 576/1/161
f 585/1/184 598/1/184 597/1/184
f 585/1/184 599/1/184 587/1/184
f 588/1/184 599/1/184 600/1/184
f 588/1/184 601/1/184 589/1/184
f 589/1/184 602/1/184 590/1/184
f 590/1/184 603/1/184 591/1/184
f 592/1/184 603/1/184 604/1/184
f 592/1/184 605/1/184 593/1/184
f 594/1/184 605/1/184 606/1/184
f 595/1/184 606/1/184 607/1/184
f 595/1/184 608/1/184 596/1/184
f 586/1/184 608/1/184 598/1/184
f 632/1/157 628/1/157 624/1/157
f 635/1/160 647/1/160 634/1/160
f 626/1/161 637/1/161 625/1/161
f 633/1/162 644/1/162 632/1/162
f 622/1/163 635/1/163 634/1/163
f 630/1/164 641/1/164 629/1/164
f 627/1/165 638/1/165 626/1/165
f 622/1/166 645/1/166 633/1/166
f 623/1/167 636/1/167 635/1/167
f 631/1/168 642/1/168 630/1/168
f 628/1/169 639/1/169 627/1/169
f 625/1/170 636/1/170 624/1/170
f 632/1/171 643/1/171 631/1/171
f 628/1/172 641/1/172 640/1/172
f 656/1/162 681/1/162 680/1/162
f 641/1/173 654/1/173 653/1/173
f 638/1/174 651/1/174 650/1/174
f 634/1/175 657/1/175 645/1/175
f 636/1/176 646/1/176 635/1/176
f 643/1/177 654/1/177 642/1/177
f 639/1/178 652/1/178 651/1/178
f 637/1/179 648/1/179 636/1/179
f 643/1/180 656/1/180 655/1/180
f 640/1/181 653/1/181 652/1/181
f 637/1/182 650/1/182 649/1/182
f 645/1/186 656/1/186 644/1/186
f 662/1/184 666/1/184 659/1/184
f 646/1/163 671/1/163 647/1/163
f 653/1/164 678/1/164 677/1/164
f 650/1/165 675/1/165 674/1/165
f 647/1/166 681/1/166 657/1/166
f 648/1/167 670/1/167 646/1/167
f 655/1/168 678/1/168 654/1/168
f 652/1/169 675/1/169 651/1/169
f 649/1/170 672/1/170 648/1/170
f 656/1/171 679/1/171 655/1/171
f 653/1/187 676/1/187 652/1/187
f 649/1/161 674/1/161 673/1/161
f 658/1/184 671/1/184 670/1/184
f 660/1/184 670/1/184 672/1/184
f 660/1/184 673/1/184 661/1/184
f 661/1/184 674/1/184 662/1/184
f 663/1/184 674/1/184 675/1/184
f 663/1/184 676/1/184 664/1/184
f 665/1/184 676/1/184 677/1/184
f 665/1/184 678/1/184 666/1/184
f 666/1/184 679/1/184 667/1/184
f 667/1/184 680/1/184 668/1/184
f 668/1/184 681/1/184 669/1/184
f 669/1/184 671/1/184 659/1/184
f 682/1/1 698/1/1 683/1/1
f 682/1/2 697/1/2 689/1/2
f 688/1/3 695/1/3 687/1/3
f 686/1/4 693/1/4 685/1/4
f 684/1/5 690/1/5 683/1/5
f 689/1/6 696/1/6 688/1/6
f 687/1/1 694/1/1 686/1/1
f 685/1/7 692/1/7 684/1/7
f 683/1/8 691/1/8 682/1/8
f 689/1/4 699/1/4 682/1/4
f 687/1/5 704/1/5 688/1/5
f 685/1/2 702/1/2 686/1/2
f 683/1/3 700/1/3 684/1/3
f 688/1/7 705/1/7 689/1/7
f 686/1/8 703/1/8 687/1/8
f 684/1/6 701/1/6 685/1/6
f 1/1/1 18/1/1 17/1/1
f 1/1/2 10/1/2 16/1/2
f 7/1/3 15/1/3 14/1/3
f 5/1/4 13/1/4 12/1/4
f 3/1/5 11/1/5 9/1/5
f 8/1/6 16/1/6 15/1/6
f 6/1/1 14/1/1 13/1/1
f 4/1/7 12/1/7 11/1/7
f 2/1/8 9/1/8 10/1/8
f 8/1/4 24/1/4 18/1/4
f 6/1/5 22/1/5 23/1/5
f 4/1/2 20/1/2 21/1/2
f 2/1/3 17/1/3 19/1/3
f 7/1/7 23/1/7 24/1/7
f 5/1/8 21/1/8 22/1/8
f 3/1/6 19/1/6 20/1/6
f 25/2/10 26/12/10 28/3/10
f 28/5/12 26/21/12 29/7/12
f 27/10/188 30/6/188 29/7/188
f 62/1/189 123/1/189 120/1/189
f 72/1/194 79/1/194 64/1/194
f 93/1/21 110/1/21 54/1/21
f 57/1/197 56/1/197 116/1/197
f 116/1/198 112/1/198 117/1/198
f 131/1/34 135/1/34 133/1/34
f 58/1/204 57/1/204 101/1/204
f 101/1/205 102/1/205 103/1/205
f 132/1/49 104/1/49 105/1/49
f 101/1/206 103/1/206 132/1/206
f 58/1/207 101/1/207 132/1/207
f 132/1/36 105/1/36 106/1/36
f 106/1/36 60/1/36 59/1/36
f 59/1/36 58/1/36 132/1/36
f 114/1/210 116/1/210 56/1/210
f 42/1/44 124/1/44 126/1/44
f 62/1/36 61/1/36 121/1/36
f 121/1/49 122/1/49 123/1/49
f 52/1/216 51/1/216 50/1/216
f 78/1/36 52/1/36 50/1/36
f 83/1/217 77/1/217 78/1/217
f 81/1/49 82/1/49 83/1/49
f 79/1/36 80/1/36 81/1/36
f 65/1/49 64/1/49 79/1/49
f 66/1/36 65/1/36 79/1/36
f 79/1/36 81/1/36 83/1/36
f 83/1/36 78/1/36 50/1/36
f 83/1/49 50/1/49 69/1/49
f 67/1/49 66/1/49 79/1/49
f 83/1/36 69/1/36 68/1/36
f 67/1/36 79/1/36 83/1/36
f 127/1/36 63/1/36 62/1/36
f 62/1/36 126/1/36 86/1/36
f 61/1/36 60/1/36 129/1/36
f 129/1/218 130/1/218 121/1/218
f 64/1/226 63/1/226 86/1/226
f 86/1/227 87/1/227 79/1/227
f 79/1/228 91/1/228 89/1/228
f 64/1/229 86/1/229 79/1/229
f 55/1/21 54/1/21 110/1/21
f 110/1/235 111/1/235 112/1/235
f 112/1/236 56/1/236 55/1/236
f 97/1/34 133/1/34 134/1/34
f 132/1/34 136/1/34 135/1/34
f 103/1/34 134/1/34 136/1/34
f 138/12/72 140/3/72 139/4/72
f 144/5/12 142/21/12 141/7/12
f 143/6/73 141/7/73 150/13/73
f 140/15/74 138/52/74 146/16/74
f 151/14/75 150/13/75 148/18/75
f 145/19/76 148/18/76 137/11/76
f 149/20/78 152/35/78 142/21/78
f 154/10/75 156/6/75 155/7/75
f 157/22/79 159/26/79 160/23/79
f 163/25/80 164/28/80 160/23/80
f 161/27/81 162/29/81 164/28/81
f 157/22/82 158/24/82 162/29/82
f 162/29/13 158/53/13 153/9/13
f 158/30/72 160/31/72 154/4/72
f 159/26/83 157/22/83 161/27/83
f 160/31/11 164/28/11 156/6/11
f 164/28/12 162/29/12 155/7/12
f 140/3/11 147/54/11 149/55/11
f 149/55/11 144/5/11 143/6/11
f 143/6/11 151/56/11 145/32/11
f 145/32/11 139/4/11 140/3/11
f 140/3/11 149/55/11 143/6/11
f 379/1/245 420/1/245 405/1/245
f 152/34/246 146/57/246 138/8/246
f 138/8/13 137/9/13 148/33/13
f 148/33/13 150/58/13 141/7/13
f 141/7/247 142/21/247 152/34/247
f 152/34/248 138/8/248 148/33/248
f 78/1/249 93/1/249 53/1/249
f 388/1/15 368/1/15 446/1/15
f 390/1/254 406/1/254 398/1/254
f 149/20/103 147/17/103 146/16/103
f 457/1/34 424/1/34 459/1/34
f 424/1/34 430/1/34 460/1/34
f 458/1/34 457/1/34 461/1/34
f 430/1/34 458/1/34 462/1/34
f 440/1/306 442/1/306 438/1/306
f 478/1/157 477/1/157 476/1/157
f 476/1/157 487/1/157 486/1/157
f 486/1/157 485/1/157 484/1/157
f 484/1/157 483/1/157 482/1/157
f 482/1/157 481/1/157 480/1/157
f 480/1/157 479/1/157 478/1/157
f 478/1/157 476/1/157 486/1/157
f 486/1/157 484/1/157 482/1/157
f 482/1/157 480/1/157 478/1/157
f 489/1/160 500/1/160 501/1/160
f 480/1/161 492/1/161 491/1/161
f 487/1/162 499/1/162 498/1/162
f 476/1/163 477/1/163 489/1/163
f 483/1/164 484/1/164 496/1/164
f 481/1/165 493/1/165 492/1/165
f 476/1/166 488/1/166 499/1/166
f 478/1/167 490/1/167 489/1/167
f 485/1/168 497/1/168 496/1/168
f 482/1/169 494/1/169 493/1/169
f 479/1/170 491/1/170 490/1/170
f 486/1/171 498/1/171 497/1/171
f 482/1/172 483/1/172 495/1/172
f 511/1/162 535/1/162 534/1/162
f 496/1/173 508/1/173 507/1/173
f 492/1/174 493/1/174 505/1/174
f 499/1/175 488/1/175 501/1/175
f 490/1/176 502/1/176 500/1/176
f 496/1/177 497/1/177 509/1/177
f 493/1/178 494/1/178 506/1/178
f 491/1/179 503/1/179 502/1/179
f 497/1/180 498/1/180 510/1/180
f 494/1/181 495/1/181 507/1/181
f 491/1/182 492/1/182 504/1/182
f 499/1/183 511/1/183 510/1/183
f 513/1/184 512/1/184 514/1/184
f 514/1/184 515/1/184 516/1/184
f 516/1/184 517/1/184 518/1/184
f 518/1/184 519/1/184 520/1/184
f 520/1/184 521/1/184 522/1/184
f 522/1/184 523/1/184 513/1/184
f 513/1/184 514/1/184 516/1/184
f 516/1/184 518/1/184 520/1/184
f 520/1/184 522/1/184 513/1/184
f 500/1/163 524/1/163 525/1/163
f 507/1/164 508/1/164 532/1/164
f 505/1/165 529/1/165 528/1/165
f 501/1/166 525/1/166 535/1/166
f 500/1/167 502/1/167 526/1/167
f 508/1/168 509/1/168 533/1/168
f 506/1/169 530/1/169 529/1/169
f 502/1/170 503/1/170 527/1/170
f 510/1/171 534/1/171 533/1/171
f 507/1/187 531/1/187 530/1/187
f 504/1/161 528/1/161 527/1/161
f 512/1/184 513/1/184 525/1/184
f 512/1/184 524/1/184 526/1/184
f 514/1/184 526/1/184 527/1/184
f 515/1/184 527/1/184 528/1/184
f 516/1/184 528/1/184 529/1/184
f 517/1/184 529/1/184 530/1/184
f 518/1/184 530/1/184 531/1/184
f 520/1/184 519/1/184 531/1/184
f 521/1/184 520/1/184 532/1/184
f 521/1/184 533/1/184 534/1/184
f 522/1/184 534/1/184 535/1/184
f 523/1/184 535/1/184 525/1/184
f 551/1/157 550/1/157 549/1/157
f 549/1/157 560/1/157 559/1/157
f 559/1/157 558/1/157 557/1/157
f 557/1/157 556/1/157 555/1/157
f 555/1/157 554/1/157 553/1/157
f 553/1/157 552/1/157 551/1/157
f 551/1/157 549/1/157 559/1/157
f 559/1/157 557/1/157 555/1/157
f 555/1/157 553/1/157 551/1/157
f 562/1/160 573/1/160 574/1/160
f 553/1/161 565/1/161 564/1/161
f 560/1/162 572/1/162 571/1/162
f 550/1/163 562/1/163 561/1/163
f 557/1/164 569/1/164 568/1/164
f 554/1/165 566/1/165 565/1/165
f 549/1/166 561/1/166 572/1/166
f 551/1/167 563/1/167 562/1/167
f 558/1/168 570/1/168 569/1/168
f 555/1/169 567/1/169 566/1/169
f 552/1/170 564/1/170 563/1/170
f 558/1/171 559/1/171 571/1/171
f 556/1/172 568/1/172 567/1/172
f 583/1/162 584/1/162 608/1/162
f 568/1/173 569/1/173 581/1/173
f 565/1/174 566/1/174 578/1/174
f 561/1/175 574/1/175 584/1/175
f 563/1/176 575/1/176 573/1/176
f 570/1/177 582/1/177 581/1/177
f 566/1/178 567/1/178 579/1/178
f 564/1/179 576/1/179 575/1/179
f 570/1/180 571/1/180 583/1/180
f 568/1/181 580/1/181 579/1/181
f 564/1/182 565/1/182 577/1/182
f 572/1/183 584/1/183 583/1/183
f 586/1/184 585/1/184 587/1/184
f 587/1/184 588/1/184 589/1/184
f 589/1/184 590/1/184 591/1/184
f 591/1/184 592/1/184 593/1/184
f 593/1/184 594/1/184 595/1/184
f 595/1/184 596/1/184 586/1/184
f 586/1/184 587/1/184 589/1/184
f 589/1/184 591/1/184 593/1/184
f 593/1/184 595/1/184 586/1/184
f 573/1/163 597/1/163 598/1/163
f 581/1/164 605/1/164 604/1/164
f 577/1/165 578/1/165 602/1/165
f 574/1/311 598/1/311 608/1/311
f 575/1/167 599/1/167 597/1/167
f 581/1/168 582/1/168 606/1/168
f 578/1/169 579/1/169 603/1/169
f 575/1/170 576/1/170 600/1/170
f 583/1/171 607/1/171 606/1/171
f 579/1/172 580/1/172 604/1/172
f 577/1/161 601/1/161 600/1/161
f 585/1/184 586/1/184 598/1/184
f 585/1/184 597/1/184 599/1/184
f 588/1/184 587/1/184 599/1/184
f 588/1/184 600/1/184 601/1/184
f 589/1/184 601/1/184 602/1/184
f 590/1/184 602/1/184 603/1/184
f 592/1/184 591/1/184 603/1/184
f 592/1/184 604/1/184 605/1/184
f 594/1/184 593/1/184 605/1/184
f 595/1/184 594/1/184 606/1/184
f 595/1/184 607/1/184 608/1/184
f 586/1/184 596/1/184 608/1/184
f 624/1/157 623/1/157 622/1/157
f 622/1/157 633/1/157 632/1/157
f 632/1/157 631/1/157 630/1/157
f 630/1/157 629/1/157 628/1/157
f 628/1/157 627/1/157 626/1/157
f 626/1/157 625/1/157 624/1/157
f 624/1/157 622/1/157 632/1/157
f 632/1/157 630/1/157 628/1/157
f 628/1/157 626/1/157 624/1/157
f 635/1/160 646/1/160 647/1/160
f 626/1/161 638/1/161 637/1/161
f 633/1/162 645/1/162 644/1/162
f 622/1/163 623/1/163 635/1/163
f 630/1/164 642/1/164 641/1/164
f 627/1/165 639/1/165 638/1/165
f 622/1/166 634/1/166 645/1/166
f 623/1/167 624/1/167 636/1/167
f 631/1/168 643/1/168 642/1/168
f 628/1/169 640/1/169 639/1/169
f 625/1/170 637/1/170 636/1/170
f 632/1/171 644/1/171 643/1/171
f 628/1/172 629/1/172 641/1/172
f 656/1/162 657/1/162 681/1/162
f 641/1/173 642/1/173 654/1/173
f 638/1/174 639/1/174 651/1/174
f 634/1/175 647/1/175 657/1/175
f 636/1/176 648/1/176 646/1/176
f 643/1/177 655/1/177 654/1/177
f 639/1/178 640/1/178 652/1/178
f 637/1/179 649/1/179 648/1/179
f 643/1/180 644/1/180 656/1/180
f 640/1/181 641/1/181 653/1/181
f 637/1/182 638/1/182 650/1/182
f 645/1/186 657/1/186 656/1/186
f 659/1/184 658/1/184 660/1/184
f 660/1/184 661/1/184 662/1/184
f 662/1/184 663/1/184 664/1/184
f 664/1/184 665/1/184 666/1/184
f 666/1/184 667/1/184 668/1/184
f 668/1/184 669/1/184 659/1/184
f 659/1/184 660/1/184 662/1/184
f 662/1/184 664/1/184 666/1/184
f 666/1/184 668/1/184 659/1/184
f 646/1/163 670/1/163 671/1/163
f 653/1/164 654/1/164 678/1/164
f 650/1/165 651/1/165 675/1/165
f 647/1/166 671/1/166 681/1/166
f 648/1/167 672/1/167 670/1/167
f 655/1/168 679/1/168 678/1/168
f 652/1/169 676/1/169 675/1/169
f 649/1/170 673/1/170 672/1/170
f 656/1/171 680/1/171 679/1/171
f 653/1/172 677/1/172 676/1/172
f 649/1/161 650/1/161 674/1/161
f 658/1/184 659/1/184 671/1/184
f 660/1/184 658/1/184 670/1/184
f 660/1/184 672/1/184 673/1/184
f 661/1/184 673/1/184 674/1/184
f 663/1/184 662/1/184 674/1/184
f 663/1/184 675/1/184 676/1/184
f 665/1/184 664/1/184 676/1/184
f 665/1/184 677/1/184 678/1/184
f 666/1/184 678/1/184 679/1/184
f 667/1/184 679/1/184 680/1/184
f 668/1/184 680/1/184 681/1/184
f 669/1/184 681/1/184 671/1/184
f 682/1/1 699/1/1 698/1/1
f 682/1/2 691/1/2 697/1/2
f 688/1/3 696/1/3 695/1/3
f 686/1/4 694/1/4 693/1/4
f 684/1/5 692/1/5 690/1/5
f 689/1/6 697/1/6 696/1/6
f 687/1/1 695/1/1 694/1/1
f 685/1/7 693/1/7 692/1/7
f 683/1/8 690/1/8 691/1/8
f 689/1/4 705/1/4 699/1/4
f 687/1/5 703/1/5 704/1/5
f 685/1/2 701/1/2 702/1/2
f 683/1/3 698/1/3 700/1/3
f 688/1/7 704/1/7 705/1/7
f 686/1/8 702/1/8 703/1/8
f 684/1/6 700/1/6 701/1/6
usemtl Material.034
f 23/1/9 21/1/9 19/1/9
f 704/1/9 702/1/9 700/1/9
f 19/1/9 17/1/9 18/1/9
f 18/1/9 24/1/9 23/1/9
f 23/1/9 22/1/9 21/1/9
f 21/1/9 20/1/9 19/1/9
f 19/1/9 18/1/9 23/1/9
f 700/1/9 698/1/9 699/1/9
f 699/1/9 705/1/9 704/1/9
f 704/1/9 703/1/9 702/1/9
f 702/1/9 701/1/9 700/1/9
f 700/1/9 699/1/9 704/1/9
usemtl Material.016
f 463/36/147 475/37/147 464/38/147
f 464/38/148 475/37/148 465/39/148
f 465/39/149 475/37/149 466/40/149
f 466/40/150 475/37/150 467/41/150
f 467/41/151 475/37/151 468/42/151
f 468/42/152 475/37/152 469/43/152
f 469/43/153 475/37/153 470/44/153
f 470/44/154 475/37/154 471/45/154
f 471/45/155 475/37/155 472/46/155
f 472/46/156 475/37/156 473/47/156
f 466/48/157 470/49/157 474/50/157
f 473/47/158 475/37/158 474/51/158
f 474/51/159 475/37/159 463/36/159
f 536/36/147 548/37/147 537/38/147
f 537/38/148 548/37/148 538/39/148
f 538/39/149 548/37/149 539/40/149
f 539/40/150 548/37/150 540/41/150
f 540/41/151 548/37/151 541/42/151
f 541/42/152 548/37/152 542/43/152
f 542/43/153 548/37/153 543/44/153
f 543/44/154 548/37/154 544/45/154
f 544/45/155 548/37/155 545/46/155
f 545/46/156 548/37/156 546/47/156
f 539/48/157 543/49/157 547/50/157
f 546/47/158 548/37/158 547/51/158
f 547/51/159 548/37/159 536/36/159
f 609/36/147 621/37/147 610/38/147
f 610/38/148 621/37/148 611/39/148
f 611/39/149 621/37/149 612/40/149
f 612/40/150 621/37/150 613/41/150
f 613/41/151 621/37/151 614/42/151
f 614/42/152 621/37/152 615/43/152
f 615/43/153 621/37/153 616/44/153
f 616/44/154 621/37/154 617/45/154
f 617/45/155 621/37/155 618/46/155
f 618/46/156 621/37/156 619/47/156
f 612/48/157 616/49/157 620/50/157
f 619/47/158 621/37/158 620/51/158
f 620/51/159 621/37/159 609/36/159
f 474/50/157 463/59/157 464/60/157
f 464/60/157 465/61/157 466/48/157
f 466/48/157 467/62/157 468/63/157
f 468/63/157 469/64/157 470/49/157
f 470/49/157 471/65/157 472/66/157
f 472/66/157 473/67/157 474/50/157
f 474/50/157 464/60/157 466/48/157
f 466/48/157 468/63/157 470/49/157
f 470/49/157 472/66/157 474/50/157
f 547/50/157 536/59/157 537/60/157
f 537/60/157 538/61/157 539/48/157
f 539/48/157 540/62/157 541/63/157
f 541/63/157 542/64/157 543/49/157
f 543/49/157 544/65/157 545/66/157
f 545/66/157 546/67/157 547/50/157
f 547/50/157 537/60/157 539/48/157
f 539/48/157 541/63/157 543/49/157
f 543/49/157 545/66/157 547/50/157
f 620/50/157 609/59/157 610/60/157
f 610/60/157 611/61/157 612/48/157
f 612/48/157 613/62/157 614/63/157
f 614/63/157 615/64/157 616/49/157
f 616/49/157 617/65/157 618/66/157
f 618/66/157 619/67/157 620/50/157
f 620/50/157 610/60/157 612/48/157
f 612/48/157 614/63/157 616/49/157
f 616/49/157 618/66/157 620/50/157
usemtl Horuga
f 35/1/16 109/1/16 107/1/16
f 127/1/17 43/1/17 63/1/17
f 37/1/18 101/1/18 57/1/18
f 106/1/19 40/1/19 60/1/19
f 120/1/22 119/1/22 118/1/22
f 84/1/23 87/1/23 86/1/23
f 99/1/24 106/1/24 105/1/24
f 131/1/26 95/1/26 38/1/26
f 52/1/27 71/1/27 78/1/27
f 429/1/28 424/1/28 423/1/28
f 43/1/29 86/1/29 63/1/29
f 89/1/30 90/1/30 88/1/30
f 93/1/31 33/1/31 53/1/31
f 71/1/32 94/1/32 78/1/32
f 102/1/33 95/1/33 96/1/33
f 34/1/35 113/1/35 33/1/35
f 112/1/37 108/1/37 109/1/37
f 56/1/38 109/1/38 36/1/38
f 34/1/39 110/1/39 107/1/39
f 117/1/40 37/1/40 57/1/40
f 85/1/42 79/1/42 87/1/42
f 41/1/43 121/1/43 118/1/43
f 128/1/45 60/1/45 40/1/45
f 76/1/46 81/1/46 75/1/46
f 110/1/47 113/1/47 107/1/47
f 123/1/48 119/1/48 124/1/48
f 125/1/51 126/1/51 124/1/51
f 76/1/22 48/1/22 49/1/22
f 44/1/53 90/1/53 84/1/53
f 36/1/54 115/1/54 109/1/54
f 43/1/22 124/1/22 42/1/22
f 33/1/55 94/1/55 71/1/55
f 108/1/57 110/1/57 107/1/57
f 89/1/58 44/1/58 64/1/58
f 73/1/59 80/1/59 72/1/59
f 91/1/60 79/1/60 90/1/60
f 40/1/61 118/1/61 100/1/61
f 114/1/63 112/1/63 116/1/63
f 81/1/65 74/1/65 75/1/65
f 121/1/66 106/1/66 100/1/66
f 119/1/67 121/1/67 118/1/67
f 136/1/69 133/1/69 135/1/69
f 95/1/70 112/1/70 109/1/70
f 420/1/71 421/1/71 405/1/71
f 457/1/77 431/1/77 426/1/77
f 396/1/84 405/1/84 397/1/84
f 70/1/85 78/1/85 77/1/85
f 361/1/90 433/1/90 435/1/90
f 97/1/28 102/1/28 96/1/28
f 369/1/91 453/1/91 389/1/91
f 363/1/92 428/1/92 422/1/92
f 366/1/93 432/1/93 386/1/93
f 380/1/95 420/1/95 379/1/95
f 444/1/96 450/1/96 446/1/96
f 400/1/97 374/1/97 373/1/97
f 94/1/98 93/1/98 78/1/98
f 411/1/99 414/1/99 412/1/99
f 426/1/100 432/1/100 427/1/100
f 383/1/101 438/1/101 442/1/101
f 365/1/97 457/1/97 427/1/97
f 358/1/102 405/1/102 378/1/102
f 369/1/104 413/1/104 411/1/104
f 416/1/105 417/1/105 418/1/105
f 359/1/106 420/1/106 379/1/106
f 397/1/107 405/1/107 421/1/107
f 422/1/108 429/1/108 423/1/108
f 360/1/109 439/1/109 433/1/109
f 384/1/110 432/1/110 429/1/110
f 434/1/111 438/1/111 435/1/111
f 382/1/112 435/1/112 438/1/112
f 360/1/113 436/1/113 380/1/113
f 359/1/114 420/1/114 439/1/114
f 363/1/115 443/1/115 383/1/115
f 382/1/116 440/1/116 362/1/116
f 406/1/117 412/1/117 414/1/117
f 367/1/118 447/1/118 387/1/118
f 388/1/44 450/1/44 368/1/44
f 386/1/119 454/1/119 366/1/119
f 388/1/110 448/1/110 447/1/110
f 401/1/120 409/1/120 402/1/120
f 439/1/121 436/1/121 433/1/121
f 445/1/122 449/1/122 450/1/122
f 407/1/110 394/1/110 395/1/110
f 453/1/110 452/1/110 388/1/110
f 387/1/110 456/1/110 455/1/110
f 99/1/123 104/1/123 131/1/123
f 452/1/125 451/1/125 450/1/125
f 402/1/126 410/1/126 403/1/126
f 411/1/128 417/1/128 370/1/128
f 418/1/129 414/1/129 389/1/129
f 435/1/130 441/1/130 362/1/130
f 396/1/131 410/1/131 404/1/131
f 369/1/96 450/1/96 451/1/96
f 397/1/132 419/1/132 359/1/132
f 381/1/133 438/1/133 436/1/133
f 434/1/134 436/1/134 437/1/134
f 370/1/135 416/1/135 390/1/135
f 399/1/136 406/1/136 400/1/136
f 427/1/97 367/1/97 366/1/97
f 454/1/138 455/1/138 427/1/138
f 400/1/141 408/1/141 401/1/141
f 427/1/142 456/1/142 447/1/142
f 445/1/143 447/1/143 448/1/143
f 427/1/145 455/1/145 432/1/145
f 459/1/69 462/1/69 461/1/69
f 422/1/146 438/1/146 443/1/146
f 35/1/190 36/1/190 109/1/190
f 109/1/191 108/1/191 107/1/191
f 107/1/35 34/1/35 35/1/35
f 127/1/192 125/1/192 43/1/192
f 37/1/193 95/1/193 101/1/193
f 106/1/19 100/1/19 40/1/19
f 118/1/22 41/1/22 42/1/22
f 120/1/195 124/1/195 119/1/195
f 118/1/22 42/1/22 120/1/22
f 84/1/196 85/1/196 87/1/196
f 99/1/24 100/1/24 106/1/24
f 39/1/22 40/1/22 100/1/22
f 100/1/22 99/1/22 98/1/22
f 131/1/61 97/1/61 96/1/61
f 100/1/22 98/1/22 131/1/22
f 38/1/22 39/1/22 100/1/22
f 95/1/199 37/1/199 38/1/199
f 131/1/200 96/1/200 95/1/200
f 38/1/22 100/1/22 131/1/22
f 52/1/27 32/1/27 71/1/27
f 429/1/28 430/1/28 424/1/28
f 43/1/29 84/1/29 86/1/29
f 89/1/201 91/1/201 90/1/201
f 93/1/202 92/1/202 33/1/202
f 102/1/203 101/1/203 95/1/203
f 34/1/35 107/1/35 113/1/35
f 112/1/37 111/1/37 108/1/37
f 56/1/38 112/1/38 109/1/38
f 34/1/208 54/1/208 110/1/208
f 33/1/209 113/1/209 93/1/209
f 117/1/40 115/1/40 37/1/40
f 85/1/211 90/1/211 79/1/211
f 41/1/212 61/1/212 121/1/212
f 128/1/213 129/1/213 60/1/213
f 76/1/46 82/1/46 81/1/46
f 110/1/214 93/1/214 113/1/214
f 123/1/215 122/1/215 119/1/215
f 125/1/219 86/1/219 126/1/219
f 76/1/22 75/1/22 74/1/22
f 74/1/61 73/1/61 72/1/61
f 72/1/22 44/1/22 45/1/22
f 72/1/22 45/1/22 46/1/22
f 76/1/61 74/1/61 72/1/61
f 83/1/220 82/1/220 76/1/220
f 70/1/131 77/1/131 83/1/131
f 32/1/195 71/1/195 70/1/195
f 31/1/221 32/1/221 70/1/221
f 70/1/222 83/1/222 76/1/222
f 76/1/22 72/1/22 46/1/22
f 76/1/22 46/1/22 47/1/22
f 31/1/223 70/1/223 76/1/223
f 49/1/22 31/1/22 76/1/22
f 76/1/22 47/1/22 48/1/22
f 84/1/224 43/1/224 44/1/224
f 44/1/22 88/1/22 90/1/22
f 90/1/225 85/1/225 84/1/225
f 109/1/230 114/1/230 36/1/230
f 36/1/231 37/1/231 115/1/231
f 115/1/232 95/1/232 109/1/232
f 43/1/22 125/1/22 124/1/22
f 71/1/233 32/1/233 33/1/233
f 33/1/234 92/1/234 94/1/234
f 108/1/237 111/1/237 110/1/237
f 89/1/58 88/1/58 44/1/58
f 73/1/238 74/1/238 80/1/238
f 80/1/239 79/1/239 72/1/239
f 100/1/22 128/1/22 40/1/22
f 40/1/22 41/1/22 118/1/22
f 114/1/240 109/1/240 112/1/240
f 81/1/65 80/1/65 74/1/65
f 100/1/241 118/1/241 121/1/241
f 121/1/22 130/1/22 106/1/22
f 119/1/242 122/1/242 121/1/242
f 136/1/69 134/1/69 133/1/69
f 95/1/243 117/1/243 112/1/243
f 420/1/244 419/1/244 421/1/244
f 426/1/110 425/1/110 457/1/110
f 457/1/77 458/1/77 431/1/77
f 396/1/84 404/1/84 405/1/84
f 70/1/85 71/1/85 78/1/85
f 361/1/109 360/1/109 433/1/109
f 433/1/250 434/1/250 435/1/250
f 435/1/251 362/1/251 361/1/251
f 97/1/28 103/1/28 102/1/28
f 369/1/252 451/1/252 453/1/252
f 363/1/253 383/1/253 428/1/253
f 366/1/93 427/1/93 432/1/93
f 380/1/95 436/1/95 420/1/95
f 368/1/97 367/1/97 444/1/97
f 444/1/96 445/1/96 450/1/96
f 446/1/97 368/1/97 444/1/97
f 371/1/97 370/1/97 398/1/97
f 398/1/97 399/1/97 400/1/97
f 400/1/97 401/1/97 402/1/97
f 402/1/255 403/1/255 396/1/255
f 396/1/256 397/1/256 358/1/256
f 396/1/257 358/1/257 357/1/257
f 400/1/258 402/1/258 396/1/258
f 371/1/97 398/1/97 400/1/97
f 372/1/96 371/1/96 400/1/96
f 396/1/259 357/1/259 375/1/259
f 396/1/260 375/1/260 374/1/260
f 373/1/97 372/1/97 400/1/97
f 400/1/261 396/1/261 374/1/261
f 94/1/262 92/1/262 93/1/262
f 411/1/263 413/1/263 414/1/263
f 426/1/100 431/1/100 432/1/100
f 442/1/264 382/1/264 383/1/264
f 383/1/265 443/1/265 438/1/265
f 364/1/266 363/1/266 422/1/266
f 422/1/267 423/1/267 424/1/267
f 422/1/268 424/1/268 457/1/268
f 364/1/269 422/1/269 457/1/269
f 457/1/97 426/1/97 427/1/97
f 427/1/97 366/1/97 365/1/97
f 365/1/97 364/1/97 457/1/97
f 358/1/102 397/1/102 405/1/102
f 369/1/104 389/1/104 413/1/104
f 416/1/270 415/1/270 417/1/270
f 359/1/271 419/1/271 420/1/271
f 422/1/272 428/1/272 429/1/272
f 360/1/109 359/1/109 439/1/109
f 385/1/273 386/1/273 432/1/273
f 432/1/110 431/1/110 458/1/110
f 458/1/110 430/1/110 429/1/110
f 429/1/274 428/1/274 383/1/274
f 384/1/110 385/1/110 432/1/110
f 429/1/275 383/1/275 384/1/275
f 432/1/110 458/1/110 429/1/110
f 434/1/111 437/1/111 438/1/111
f 382/1/112 362/1/112 435/1/112
f 360/1/276 433/1/276 436/1/276
f 363/1/115 441/1/115 443/1/115
f 382/1/277 442/1/277 440/1/277
f 406/1/278 417/1/278 412/1/278
f 367/1/279 444/1/279 447/1/279
f 388/1/44 452/1/44 450/1/44
f 386/1/280 455/1/280 454/1/280
f 447/1/110 387/1/110 388/1/110
f 388/1/110 449/1/110 448/1/110
f 401/1/120 408/1/120 409/1/120
f 439/1/281 420/1/281 436/1/281
f 445/1/282 448/1/282 449/1/282
f 376/1/283 377/1/283 378/1/283
f 378/1/284 405/1/284 404/1/284
f 404/1/285 410/1/285 409/1/285
f 409/1/110 408/1/110 407/1/110
f 407/1/110 406/1/110 390/1/110
f 407/1/110 390/1/110 391/1/110
f 404/1/286 409/1/286 407/1/286
f 376/1/287 378/1/287 404/1/287
f 395/1/288 376/1/288 404/1/288
f 407/1/273 391/1/273 392/1/273
f 407/1/110 392/1/110 393/1/110
f 395/1/289 404/1/289 407/1/289
f 407/1/110 393/1/110 394/1/110
f 388/1/110 389/1/110 453/1/110
f 453/1/290 413/1/290 452/1/290
f 455/1/110 386/1/110 387/1/110
f 387/1/110 447/1/110 456/1/110
f 131/1/49 98/1/49 99/1/49
f 99/1/291 105/1/291 104/1/291
f 104/1/69 132/1/69 131/1/69
f 452/1/292 413/1/292 451/1/292
f 402/1/126 409/1/126 410/1/126
f 370/1/293 369/1/293 411/1/293
f 411/1/294 412/1/294 417/1/294
f 417/1/97 415/1/97 370/1/97
f 390/1/110 416/1/110 418/1/110
f 418/1/273 406/1/273 414/1/273
f 414/1/295 413/1/295 389/1/295
f 389/1/296 390/1/296 418/1/296
f 362/1/297 440/1/297 435/1/297
f 435/1/298 422/1/298 441/1/298
f 441/1/299 363/1/299 362/1/299
f 396/1/131 403/1/131 410/1/131
f 369/1/97 368/1/97 450/1/97
f 359/1/300 358/1/300 397/1/300
f 397/1/300 421/1/300 419/1/300
f 436/1/95 380/1/95 381/1/95
f 381/1/301 382/1/301 438/1/301
f 438/1/302 437/1/302 436/1/302
f 434/1/303 433/1/303 436/1/303
f 370/1/135 415/1/135 416/1/135
f 399/1/304 398/1/304 406/1/304
f 406/1/305 407/1/305 400/1/305
f 366/1/96 454/1/96 427/1/96
f 427/1/97 444/1/97 367/1/97
f 400/1/141 407/1/141 408/1/141
f 447/1/307 444/1/307 427/1/307
f 427/1/308 432/1/308 456/1/308
f 445/1/309 444/1/309 447/1/309
f 459/1/69 460/1/69 462/1/69
f 422/1/310 435/1/310 438/1/310
l 205 204
l 221 220
l 237 236
l 253 252
l 269 268
l 286 285
l 301 300
l 318 317
