# Blender 4.5.3 LTS
# www.blender.org
mtllib Tanque.mtl
o Circle.054
v -0.176666 0.404313 0.292439
v -0.157471 0.403603 0.338812
v -0.111130 0.401888 0.358021
v -0.064788 0.400173 0.338812
v -0.045593 0.399462 0.292439
v -0.064788 0.400173 0.246066
v -0.111130 0.401888 0.226858
v -0.157471 0.403603 0.246066
v -0.155454 0.458103 0.338812
v -0.174649 0.458813 0.292439
v -0.109113 0.456388 0.358021
v -0.062771 0.454673 0.338812
v -0.043576 0.453963 0.292439
v -0.062771 0.454673 0.246066
v -0.109113 0.456388 0.226858
v -0.155454 0.458103 0.246066
v -0.156514 0.429463 0.338812
v -0.175709 0.430173 0.292439
v -0.110172 0.427748 0.358021
v -0.063831 0.426033 0.338812
v -0.044636 0.425323 0.292439
v -0.063831 0.426033 0.246066
v -0.110172 0.427748 0.226858
v -0.156514 0.429463 0.246066
v -0.235031 -0.216515 0.189390
v -0.235031 -0.373887 0.428115
v 0.212928 -0.216515 0.189390
v 0.212928 -0.373887 0.428115
v -0.235031 -0.373887 0.112000
v 0.212928 -0.373887 0.111880
v 0.363318 -0.122781 0.218613
v 0.363154 0.130959 0.114880
v 0.362969 0.617338 -0.021857
v 0.362959 0.662764 -0.099541
v 0.362984 0.647222 -0.182237
v 0.363008 0.634779 -0.204792
v 0.362477 0.613545 -0.225579
v 0.363059 0.576115 -0.243798
v 0.363598 -0.254775 -0.247438
v 0.363637 -0.314120 -0.225579
v 0.363661 -0.351271 -0.204792
v 0.363701 -0.412730 -0.142188
v 0.363706 -0.420617 -0.131236
v 0.363502 -0.405455 0.085697
v 0.363485 -0.379773 0.122624
v 0.363462 -0.345149 0.154990
v 0.363439 -0.308843 0.181552
v 0.363407 -0.259904 0.201290
v 0.363364 -0.192685 0.215571
v 0.269812 -0.122841 0.218613
v 0.269767 -0.131116 0.213444
v 0.269647 0.130898 0.114880
v 0.269463 0.617278 -0.021857
v 0.269453 0.662704 -0.099541
v 0.269478 0.647161 -0.182237
v 0.269502 0.634718 -0.204792
v 0.268971 0.613485 -0.225579
v 0.269553 0.576055 -0.243798
v 0.270092 -0.254836 -0.247438
v 0.270131 -0.314181 -0.225579
v 0.270155 -0.351332 -0.204792
v 0.270195 -0.412791 -0.142188
v 0.270200 -0.420678 -0.131236
v 0.269995 -0.405515 0.085697
v 0.269979 -0.379833 0.122624
v 0.269956 -0.345210 0.154990
v 0.269933 -0.308904 0.181552
v 0.269901 -0.259964 0.201290
v 0.269857 -0.192746 0.215571
v 0.363272 -0.129335 0.251796
v 0.363152 0.132678 0.153231
v 0.363502 -0.406345 0.124049
v 0.363484 -0.378053 0.160975
v 0.363461 -0.343430 0.193342
v 0.363438 -0.307123 0.219904
v 0.363406 -0.258184 0.239641
v 0.269766 -0.129396 0.251796
v 0.269646 0.132618 0.153231
v 0.270004 -0.418555 0.124049
v 0.269955 -0.343490 0.193342
v 0.269932 -0.307184 0.219904
v 0.269900 -0.258245 0.239641
v 0.269856 -0.191026 0.253923
v 0.363725 -0.449829 -0.121130
v 0.363521 -0.434666 0.095803
v 0.270219 -0.449889 -0.121130
v 0.270022 -0.446939 0.095803
v 0.363486 -0.380939 0.115731
v 0.269980 -0.381000 0.115731
v 0.363502 -0.406482 0.124089
v 0.270004 -0.418198 0.124003
v 0.362950 0.646214 -0.011931
v 0.269445 0.644405 -0.012613
v 0.363152 0.132801 0.153622
v 0.362463 0.634695 -0.241517
v 0.363059 0.576502 -0.267507
v 0.363254 0.275677 -0.285999
v 0.363328 0.161056 -0.288309
v 0.363598 -0.254389 -0.271147
v 0.363637 -0.313734 -0.249288
v 0.268957 0.634448 -0.240884
v 0.269553 0.576441 -0.267507
v 0.269748 0.275617 -0.285999
v 0.270092 -0.254450 -0.271147
v 0.270130 -0.313795 -0.249288
v 0.362939 0.693731 -0.095794
v 0.362964 0.678189 -0.194690
v 0.362988 0.665745 -0.217244
v 0.269433 0.693671 -0.096010
v 0.269458 0.678128 -0.194690
v 0.269481 0.665685 -0.217244
v 0.362951 0.645989 -0.012027
v 0.362988 0.665654 -0.217157
v 0.362464 0.634520 -0.241027
v 0.269481 0.665934 -0.216921
v 0.268957 0.634460 -0.241027
v 0.363677 -0.375861 -0.215367
v 0.363694 -0.401766 -0.193167
v 0.363720 -0.442285 -0.143551
v 0.270171 -0.375856 -0.215065
v 0.270187 -0.401827 -0.193167
v 0.270214 -0.443239 -0.143501
v 0.363720 -0.443036 -0.143355
v 0.363725 -0.449786 -0.121147
v 0.270214 -0.443096 -0.143355
v 0.270218 -0.449255 -0.121150
v 0.363636 -0.313537 -0.249203
v 0.270130 -0.313959 -0.249896
v 0.363291 0.218367 -0.287154
v 0.269785 0.218306 -0.287154
v 0.363254 0.275677 -0.285999
v 0.269748 0.275617 -0.285999
v 0.363291 0.218367 -0.287154
v 0.269785 0.218306 -0.287154
v -0.297527 0.664738 -0.097451
v -0.297527 0.664738 0.028726
v 0.270320 0.664738 -0.097451
v 0.270320 0.664738 0.028726
v -0.297527 -0.382543 -0.158962
v -0.297527 -0.382543 0.125839
v 0.270320 -0.382543 -0.158962
v 0.270320 -0.382543 0.125839
v 0.270320 0.402918 -0.216679
v -0.297527 0.402918 0.190553
v 0.270320 0.402918 0.190553
v -0.297527 0.402918 -0.216679
v 0.270320 -0.251633 0.204938
v -0.297527 -0.251633 -0.216679
v 0.270320 -0.251633 -0.216679
v -0.308956 -0.251633 0.204938
v -0.222234 0.407743 0.094736
v 0.182808 0.407743 0.094736
v -0.222234 0.101045 0.094736
v 0.182808 0.101045 0.094736
v -0.162698 0.362662 0.426664
v -0.222234 0.407743 0.383242
v 0.123272 0.362662 0.426664
v 0.182808 0.407743 0.383242
v -0.162698 0.146126 0.426664
v -0.222234 0.101045 0.383242
v 0.123272 0.146126 0.426664
v 0.182808 0.101045 0.383242
v 0.071151 0.399339 0.336541
v 0.083200 0.399091 0.336892
v 0.086825 0.400095 0.214762
v 0.074776 0.400343 0.214411
v -0.131042 0.399339 0.336541
v -0.118994 0.399091 0.336892
v -0.127417 0.400343 0.214411
v -0.139304 0.400566 0.216413
v -0.392312 -0.122781 0.218613
v -0.392148 0.130959 0.114880
v -0.391963 0.617338 -0.021857
v -0.391953 0.662764 -0.099541
v -0.391978 0.647222 -0.182237
v -0.392002 0.634779 -0.204792
v -0.391471 0.613545 -0.225579
v -0.392053 0.576115 -0.243798
v -0.392592 -0.254776 -0.247438
v -0.392631 -0.314120 -0.225579
v -0.392655 -0.351271 -0.204792
v -0.392695 -0.412730 -0.142188
v -0.392700 -0.420617 -0.131236
v -0.392496 -0.405455 0.085697
v -0.392479 -0.379773 0.122624
v -0.392457 -0.345149 0.154990
v -0.392433 -0.308843 0.181552
v -0.392401 -0.259904 0.201290
v -0.392358 -0.192685 0.215571
v -0.298806 -0.122841 0.218613
v -0.298761 -0.131116 0.213444
v -0.298642 0.130898 0.114880
v -0.298457 0.617278 -0.021857
v -0.298447 0.662704 -0.099541
v -0.298472 0.647161 -0.182237
v -0.298495 0.634718 -0.204792
v -0.297965 0.613485 -0.225579
v -0.298547 0.576055 -0.243798
v -0.299086 -0.254836 -0.247438
v -0.299125 -0.314181 -0.225579
v -0.299149 -0.351332 -0.204792
v -0.299189 -0.412791 -0.142188
v -0.299194 -0.420678 -0.131236
v -0.298990 -0.405515 0.085697
v -0.298973 -0.379833 0.122624
v -0.298951 -0.345210 0.154990
v -0.298927 -0.308904 0.181552
v -0.298895 -0.259964 0.201290
v -0.298852 -0.192746 0.215571
v -0.392266 -0.129335 0.251796
v -0.392146 0.132678 0.153231
v -0.392496 -0.406345 0.124049
v -0.392478 -0.378053 0.160975
v -0.392456 -0.343430 0.193342
v -0.392432 -0.307123 0.219904
v -0.392400 -0.258184 0.239641
v -0.392357 -0.190966 0.253923
v -0.298760 -0.129396 0.251796
v -0.298640 0.132618 0.153231
v -0.298998 -0.418555 0.124049
v -0.298949 -0.343490 0.193342
v -0.298926 -0.307184 0.219904
v -0.298894 -0.258245 0.239641
v -0.298850 -0.191026 0.253923
v -0.392719 -0.449829 -0.121130
v -0.392515 -0.434666 0.095803
v -0.299213 -0.449890 -0.121130
v -0.299017 -0.446939 0.095803
v -0.392480 -0.380939 0.115731
v -0.298974 -0.381000 0.115731
v -0.392496 -0.406482 0.124089
v -0.298998 -0.418199 0.124003
v -0.391944 0.646214 -0.011931
v -0.298439 0.644405 -0.012613
v -0.392146 0.132801 0.153622
v -0.391457 0.634695 -0.241517
v -0.392053 0.576502 -0.267507
v -0.392248 0.275677 -0.285999
v -0.392592 -0.254389 -0.271147
v -0.392631 -0.313734 -0.249288
v -0.297951 0.634448 -0.240884
v -0.298547 0.576441 -0.267507
v -0.298742 0.275617 -0.285999
v -0.299086 -0.254450 -0.271147
v -0.299125 -0.313795 -0.249288
v -0.391933 0.693731 -0.095794
v -0.391958 0.678189 -0.194690
v -0.391981 0.665745 -0.217244
v -0.298426 0.693671 -0.096010
v -0.298452 0.678128 -0.194690
v -0.298475 0.665685 -0.217244
v -0.391944 0.645989 -0.012027
v -0.391981 0.665654 -0.217157
v -0.391457 0.634520 -0.241027
v -0.298475 0.665934 -0.216921
v -0.297951 0.634460 -0.241027
v -0.392671 -0.375861 -0.215367
v -0.392688 -0.401766 -0.193167
v -0.392714 -0.442285 -0.143551
v -0.299165 -0.375856 -0.215065
v -0.299182 -0.401827 -0.193167
v -0.299209 -0.443239 -0.143501
v -0.392715 -0.443036 -0.143355
v -0.392719 -0.449786 -0.121147
v -0.299208 -0.443097 -0.143355
v -0.299212 -0.449255 -0.121150
v -0.392631 -0.313537 -0.249203
v -0.299125 -0.313959 -0.249896
v -0.299145 -0.344907 -0.232481
v -0.392285 0.218367 -0.287154
v -0.298779 0.218306 -0.287154
v -0.392248 0.275677 -0.285999
v -0.298742 0.275617 -0.285999
v -0.392285 0.218367 -0.287154
v -0.298779 0.218306 -0.287154
v 0.185282 -0.048785 0.523850
v 0.178735 -0.063995 0.542972
v 0.160848 -0.075130 0.556970
v 0.136414 -0.079206 0.562094
v 0.111981 -0.075130 0.556970
v 0.094094 -0.063995 0.542972
v 0.087547 -0.048785 0.523850
v 0.094094 -0.033574 0.504728
v 0.111981 -0.022439 0.490730
v 0.136414 -0.018363 0.485606
v 0.160848 -0.022439 0.490730
v 0.178735 -0.033574 0.504728
v 0.136414 0.039212 0.593849
v 0.189847 -0.322493 0.308213
v 0.182518 -0.305466 0.286809
v 0.162497 -0.293002 0.271140
v 0.135147 -0.288440 0.265405
v 0.107797 -0.293002 0.271140
v 0.087775 -0.305466 0.286809
v 0.080446 -0.322493 0.308213
v 0.087775 -0.339519 0.329617
v 0.107797 -0.351983 0.345286
v 0.135147 -0.356545 0.351021
v 0.162497 -0.351983 0.345286
v 0.182518 -0.339519 0.329617
v 0.189847 -0.064276 0.513616
v 0.182519 -0.047250 0.492211
v 0.162497 -0.034786 0.476543
v 0.135147 -0.030224 0.470807
v 0.107797 -0.034786 0.476543
v 0.087775 -0.047250 0.492211
v 0.080446 -0.064276 0.513616
v 0.087775 -0.081303 0.535020
v 0.107797 -0.093767 0.550689
v 0.135147 -0.098329 0.556424
v 0.162497 -0.093767 0.550689
v 0.182519 -0.081303 0.535020
v 0.196161 -0.039363 0.488421
v 0.205600 -0.061292 0.515989
v 0.170373 -0.023309 0.468240
v 0.135147 -0.017433 0.460853
v 0.099920 -0.023309 0.468240
v 0.074132 -0.039363 0.488421
v 0.064693 -0.061292 0.515989
v 0.074132 -0.083222 0.543558
v 0.099920 -0.099276 0.563739
v 0.135147 -0.105152 0.571126
v 0.170373 -0.099276 0.563739
v 0.196161 -0.083222 0.543558
v 0.196161 -0.022259 0.502026
v 0.205600 -0.044189 0.529595
v 0.170373 -0.006205 0.481845
v 0.135147 -0.000329 0.474458
v 0.099920 -0.006205 0.481845
v 0.074132 -0.022259 0.502026
v 0.064693 -0.044189 0.529595
v 0.074132 -0.066118 0.557163
v 0.099920 -0.082172 0.577344
v 0.135147 -0.088048 0.584731
v 0.170373 -0.082172 0.577344
v 0.196161 -0.066118 0.557163
v 0.036921 -0.048785 0.523850
v 0.030374 -0.063995 0.542972
v 0.012487 -0.075130 0.556970
v -0.011947 -0.079206 0.562094
v -0.036381 -0.075130 0.556970
v -0.054267 -0.063995 0.542972
v -0.060814 -0.048785 0.523850
v -0.054267 -0.033574 0.504728
v -0.036381 -0.022439 0.490730
v -0.011947 -0.018363 0.485606
v 0.012487 -0.022439 0.490730
v 0.030374 -0.033574 0.504728
v -0.011947 0.039212 0.593849
v 0.041486 -0.322493 0.308213
v 0.034157 -0.305466 0.286809
v 0.014136 -0.293002 0.271140
v -0.013214 -0.288440 0.265405
v -0.040564 -0.293002 0.271140
v -0.060586 -0.305466 0.286809
v -0.067915 -0.322493 0.308213
v -0.060586 -0.339519 0.329617
v -0.040564 -0.351983 0.345286
v -0.013214 -0.356545 0.351021
v 0.014136 -0.351983 0.345286
v 0.034157 -0.339519 0.329617
v 0.041486 -0.064276 0.513616
v 0.034157 -0.047250 0.492211
v 0.014136 -0.034786 0.476543
v -0.013214 -0.030224 0.470807
v -0.040564 -0.034786 0.476543
v -0.060586 -0.047250 0.492211
v -0.067915 -0.064276 0.513616
v -0.060586 -0.081303 0.535020
v -0.040564 -0.093767 0.550689
v -0.013214 -0.098329 0.556424
v 0.014136 -0.093767 0.550689
v 0.034157 -0.081303 0.535020
v 0.047800 -0.039363 0.488421
v 0.057239 -0.061292 0.515989
v 0.022012 -0.023309 0.468240
v -0.013214 -0.017433 0.460853
v -0.048441 -0.023309 0.468240
v -0.074229 -0.039363 0.488421
v -0.083668 -0.061292 0.515989
v -0.074229 -0.083222 0.543558
v -0.048441 -0.099276 0.563739
v -0.013214 -0.105152 0.571126
v 0.022012 -0.099276 0.563739
v 0.047800 -0.083222 0.543558
v 0.047800 -0.022259 0.502026
v 0.057239 -0.044189 0.529595
v 0.022012 -0.006205 0.481845
v -0.013214 -0.000329 0.474458
v -0.048441 -0.006205 0.481845
v -0.074229 -0.022259 0.502026
v -0.083668 -0.044189 0.529595
v -0.074229 -0.066118 0.557163
v -0.048441 -0.082172 0.577344
v -0.013214 -0.088048 0.584731
v 0.022012 -0.082172 0.577344
v 0.047800 -0.066118 0.557163
v -0.116909 -0.048785 0.523850
v -0.123456 -0.063995 0.542972
v -0.141343 -0.075131 0.556970
v -0.165777 -0.079206 0.562094
v -0.190211 -0.075131 0.556970
v -0.208098 -0.063995 0.542972
v -0.214645 -0.048785 0.523850
v -0.208098 -0.033574 0.504728
v -0.190211 -0.022439 0.490730
v -0.165777 -0.018363 0.485606
v -0.141343 -0.022439 0.490730
v -0.123456 -0.033574 0.504728
v -0.165777 0.039212 0.593849
v -0.112345 -0.322493 0.308213
v -0.119673 -0.305466 0.286809
v -0.139695 -0.293002 0.271140
v -0.167045 -0.288440 0.265405
v -0.194395 -0.293002 0.271140
v -0.214417 -0.305466 0.286809
v -0.221745 -0.322493 0.308213
v -0.214417 -0.339519 0.329617
v -0.194395 -0.351983 0.345286
v -0.167045 -0.356545 0.351021
v -0.139695 -0.351983 0.345286
v -0.119673 -0.339519 0.329617
v -0.112345 -0.064276 0.513616
v -0.119673 -0.047250 0.492211
v -0.139695 -0.034786 0.476543
v -0.167045 -0.030224 0.470807
v -0.194395 -0.034786 0.476543
v -0.214417 -0.047250 0.492211
v -0.221745 -0.064276 0.513616
v -0.214417 -0.081303 0.535020
v -0.194395 -0.093767 0.550689
v -0.167045 -0.098329 0.556424
v -0.139695 -0.093767 0.550689
v -0.119673 -0.081303 0.535020
v -0.106030 -0.039363 0.488421
v -0.096591 -0.061292 0.515989
v -0.131818 -0.023309 0.468240
v -0.167045 -0.017433 0.460853
v -0.202272 -0.023309 0.468240
v -0.228059 -0.039363 0.488421
v -0.237498 -0.061292 0.515989
v -0.228059 -0.083222 0.543558
v -0.202272 -0.099276 0.563739
v -0.167045 -0.105152 0.571126
v -0.131818 -0.099276 0.563739
v -0.106030 -0.083222 0.543558
v -0.106030 -0.022259 0.502026
v -0.096591 -0.044189 0.529595
v -0.131818 -0.006205 0.481845
v -0.167045 -0.000329 0.474458
v -0.202272 -0.006205 0.481845
v -0.228059 -0.022259 0.502026
v -0.237498 -0.044189 0.529595
v -0.228059 -0.066118 0.557163
v -0.202272 -0.082172 0.577344
v -0.167045 -0.088048 0.584731
v -0.131818 -0.082172 0.577344
v -0.106030 -0.066118 0.557163
v 0.009892 0.404313 0.292439
v 0.029087 0.403603 0.338812
v 0.075428 0.401887 0.358021
v 0.121769 0.400172 0.338812
v 0.140964 0.399462 0.292439
v 0.121769 0.400172 0.246066
v 0.075428 0.401887 0.226858
v 0.029087 0.403603 0.246066
v 0.031104 0.458103 0.338812
v 0.011909 0.458813 0.292439
v 0.077445 0.456388 0.358021
v 0.123786 0.454673 0.338812
v 0.142981 0.453963 0.292439
v 0.123786 0.454673 0.246066
v 0.077445 0.456388 0.226858
v 0.031104 0.458103 0.246066
v 0.030044 0.429463 0.338812
v 0.010849 0.430173 0.292439
v 0.076385 0.427748 0.358021
v 0.122726 0.426033 0.338812
v 0.141921 0.425323 0.292439
v 0.122726 0.426033 0.246066
v 0.076385 0.427748 0.226858
v 0.030044 0.429463 0.246066
vn 0.3824 -0.0142 -0.9239
vn -0.0000 -1.0000 -0.0000
vn 0.1719 -0.6521 -0.7384
vn 0.2588 0.6013 -0.7559
vn 0.9659 -0.1611 0.2026
vn -0.0370 -0.9993 -0.0000
vn -0.0629 -0.9053 -0.4201
vn 0.0004 -0.5930 -0.8052
vn -0.9232 0.0342 -0.3827
vn 0.9232 -0.0342 -0.3827
vn -0.9659 0.1611 -0.2026
vn 0.9659 0.1611 -0.2026
vn 1.0000 -0.0000 -0.0000
vn -1.0000 -0.0000 -0.0000
vn -0.0005 0.9878 -0.1554
vn 0.0006 -0.9997 -0.0232
vn 0.0069 0.3079 0.9514
vn 0.0128 0.3069 0.9517
vn 0.0106 0.3073 0.9516
vn 0.0046 0.3083 0.9513
vn -0.0006 0.9998 0.0201
vn -0.0000 -0.0000 1.0000
vn -0.0006 0.9999 -0.0101
vn -0.3824 0.0142 0.9239
vn -0.9999 -0.0074 -0.0149
vn -0.9998 -0.0103 -0.0150
vn -0.9998 -0.0098 -0.0148
vn -0.9999 -0.0132 -0.0047
vn 0.2588 -0.6013 0.7559
vn 1.0000 0.0006 -0.0000
vn -1.0000 -0.0006 -0.0000
vn -0.0021 0.2525 0.9676
vn 0.0001 0.0315 0.9995
vn 0.0005 0.1150 -0.9934
vn -0.0001 0.1133 -0.9936
vn 0.0016 0.1185 -0.9930
vn 0.0022 0.1200 -0.9928
vn 0.0050 0.3944 -0.9189
vn 0.0050 0.3943 -0.9190
vn 1.0000 0.0007 -0.0000
vn -0.0007 0.9998 -0.0201
vn -0.0006 0.9999 0.0101
vn 0.0006 -0.9417 -0.3364
vn 0.0006 -0.9656 0.2601
vn -0.1719 -0.6521 -0.7384
vn 0.0002 -0.3456 -0.9384
vn -0.2588 0.6013 -0.7559
vn -1.0000 0.0007 -0.0000
vn 0.0002 0.3521 0.9360
vn 0.7071 0.4402 -0.5534
vn 0.0006 0.9990 -0.0448
vn -0.0001 0.4416 -0.8972
vn 0.0002 -0.0454 0.9990
vn 0.0010 -0.0430 0.9991
vn 0.0007 -0.0440 0.9990
vn -0.0000 -0.0460 0.9989
vn -0.0006 -0.9997 -0.0232
vn 0.0006 0.9999 0.0101
vn 0.0005 0.9998 -0.0201
vn 0.0021 0.2525 0.9676
vn -0.0001 0.0315 0.9995
vn -0.0003 0.0318 0.9995
vn 0.0168 0.1271 0.9917
vn 1.0000 -0.0006 -0.0000
vn 1.0000 -0.0005 -0.0000
vn 1.0000 -0.0007 -0.0000
vn 0.0007 0.9999 -0.0101
vn 0.0006 0.9998 0.0201
vn 0.0004 0.6909 0.7230
vn -0.0006 -0.9417 -0.3364
vn -1.0000 0.0006 -0.0002
vn -0.2588 -0.6013 0.7559
vn -0.9232 0.0342 0.3827
vn -0.7071 -0.4402 0.5534
vn -0.0000 0.0614 -0.9981
vn -0.0006 0.8756 -0.4831
vn 0.9232 -0.0342 0.3827
vn -0.0000 -0.0000 -1.0000
vn 0.9659 0.1611 -0.2025
vn -0.0000 0.0345 0.9994
vn -0.0000 -0.6937 0.7202
vn -0.7071 0.4402 -0.5534
vn -0.1719 -0.8661 -0.4694
vn -0.0000 -0.7826 -0.6225
vn -0.3824 0.0142 -0.9239
vn 0.2348 -0.7983 -0.5546
vn -0.9659 -0.1611 0.2026
vn 0.0629 -0.9053 -0.4201
vn -0.0000 1.0000 -0.0000
vn -0.2348 -0.7200 -0.6531
vn 0.9659 -0.1611 0.2025
vn 0.3824 -0.0142 0.9239
vn 0.0007 -0.9999 -0.0163
vn -0.2348 -0.7983 -0.5546
vn 0.0006 -0.9990 0.0448
vn 0.7071 -0.4402 0.5534
vn -0.9659 0.1611 -0.2025
vn 0.0002 -0.3740 0.9274
vn -0.0000 0.4144 -0.9101
vn -0.0002 0.3521 0.9360
vn 0.0629 -0.6130 -0.7876
vn -0.0002 -0.3731 -0.9278
vn 1.0000 -0.0006 -0.0002
vn -0.0007 -0.9999 -0.0163
vn -1.0000 0.0006 0.0002
vn -0.0002 -0.3456 -0.9384
vn 0.5893 -0.0000 0.8079
vn -0.5893 -0.0000 0.8079
vn 0.1719 -0.8661 -0.4693
vn -0.0004 -0.5930 -0.8052
vn -0.0002 -0.3740 0.9274
vn -0.0000 0.6937 0.7202
vn -0.0000 0.0201 -0.9998
vn -1.0000 0.0007 0.0003
vn -1.0000 0.0015 -0.0000
vn -1.0000 0.0018 -0.0000
vn -1.0000 0.0012 0.0002
vn -0.0000 0.0385 -0.9993
vn 0.1227 -0.9396 -0.3195
vn -0.0000 -0.0413 -0.9991
vn 0.0331 -0.0338 -0.9989
vn -0.9999 -0.0096 -0.0122
vn 0.9998 -0.0099 -0.0149
vn 0.9998 -0.0104 -0.0149
vn 0.9998 -0.0084 -0.0163
vn 0.9999 -0.0132 -0.0049
vn 0.9999 -0.0109 -0.0078
vn -0.9910 -0.0167 0.1329
vn 1.0000 -0.0006 -0.0001
vn 1.0000 -0.0006 -0.0006
vn 1.0000 -0.0006 -0.0024
vn 1.0000 0.0018 0.0059
vn 1.0000 0.0008 0.0036
vn 1.0000 -0.0009 0.0009
vn 1.0000 -0.0013 0.0032
vn 1.0000 -0.0009 0.0024
vn -0.0004 -0.0450 0.9990
vn -0.0001 -0.0459 0.9989
vn -0.0005 -0.0446 0.9990
vn -0.0009 -0.0432 0.9991
vn -0.9659 -0.1611 0.2025
vn -0.0000 0.0220 0.9998
vn -1.0000 -0.0007 -0.0003
vn -1.0000 -0.0016 -0.0000
vn -1.0000 -0.0019 -0.0000
vn -1.0000 -0.0012 -0.0002
vn -1.0000 -0.0009 -0.0005
vn 1.0000 -0.0011 -0.0002
vn 1.0000 -0.0007 -0.0003
vn 1.0000 -0.0018 -0.0000
vn -0.9998 0.0065 0.0183
vn -0.9998 0.0066 0.0188
vn -0.9986 0.0411 -0.0322
vn -0.9986 0.0410 -0.0321
vn -0.9999 0.0078 0.0115
vn 0.0004 0.5897 0.8076
vn -0.0038 0.6018 0.7986
vn 0.9997 -0.0007 0.0245
vn 1.0000 0.0006 0.0001
vn -0.9962 -0.0870 -0.0000
vn -0.1227 -0.9396 -0.3195
vn -0.0008 0.7925 -0.6098
vn -0.0008 0.7925 -0.6099
vn -0.0000 0.7826 0.6225
vn 0.0629 -0.6129 -0.7876
vn 0.1719 -0.8661 -0.4694
vn -0.0000 0.8349 0.5504
vn -0.0629 -0.6130 -0.7876
vn -0.0001 -0.2078 0.9782
vn -0.0005 0.7747 -0.6323
vn 0.0006 0.8756 -0.4831
vn 0.8906 0.1544 0.4277
vn 0.6520 -0.1030 0.7512
vn 0.2386 -0.2515 0.9380
vn -0.2387 -0.2515 0.9380
vn -0.6520 -0.1030 0.7512
vn -0.8906 0.1544 0.4277
vn -0.8906 0.4515 0.0542
vn -0.6520 0.7088 -0.2693
vn -0.2387 0.8574 -0.4560
vn 0.2387 0.8574 -0.4560
vn 0.6520 0.7088 -0.2693
vn 0.8906 0.4515 0.0542
vn -0.2386 -0.2515 0.9380
vn -0.0000 -0.5172 0.8559
vn 0.2348 -0.7200 -0.6531
vn 0.0002 -0.3269 -0.9450
vn -0.0000 0.5258 0.8506
vn -1.0000 -0.0006 -0.0001
vn -1.0000 -0.0009 -0.0011
vn -1.0000 -0.0016 -0.0029
vn -1.0000 -0.0011 -0.0017
vn -1.0000 0.0011 0.0042
vn -1.0000 0.0018 0.0059
vn -0.0046 0.9999 0.0091
vn -0.0007 0.9997 0.0247
vn 0.0006 -0.9999 0.0136
vn 0.0002 -0.3731 -0.9278
vn 0.9933 0.0146 -0.1150
vn -0.0002 0.3110 0.9504
vn -0.0002 0.3226 -0.9466
vn 0.0006 -0.9544 0.2985
vn -0.0047 0.6079 -0.7940
vn -0.0057 0.6060 -0.7955
vn -0.0014 0.6140 -0.7893
vn -0.0004 0.6159 -0.7878
vn 1.0000 0.0006 0.0002
vn -0.0004 0.1148 -0.9934
vn -0.0022 0.1201 -0.9928
vn -0.0017 0.1186 -0.9929
vn 0.0001 0.1133 -0.9936
vn -0.0911 -0.7049 0.7035
vn -0.0908 -0.7053 0.7030
vn -0.0919 -0.7030 0.7052
vn -0.0922 -0.7024 0.7058
vn -0.0009 -0.3884 0.9215
vn -0.0030 -0.3951 0.9186
vn -0.0023 -0.3931 0.9195
vn -0.0003 -0.3864 0.9223
vn 0.0046 0.9999 0.0091
vn 0.0007 0.9997 0.0247
vn -0.0008 -0.7682 -0.6402
vn -0.0005 -0.7681 -0.6404
vn -0.0026 -0.7698 -0.6383
vn -0.0026 -0.7700 -0.6380
vn -0.0008 -0.9566 -0.2916
vn -0.0007 -0.9567 -0.2910
vn -0.0029 -0.4792 -0.8777
vn 0.0003 -0.4829 -0.8757
vn 1.0000 0.0004 0.0002
vn 1.0000 0.0006 0.0006
vn 0.0005 0.9878 -0.1554
vn -0.0826 -0.7911 0.6061
vn -0.0169 0.1272 0.9917
vn -0.0169 0.1273 0.9917
vn 0.0008 0.7926 -0.6098
vn -0.0003 0.3314 0.9435
vn -0.0018 0.3270 0.9450
vn -0.0013 0.3282 0.9446
vn 0.0002 0.3328 0.9430
vn 0.0025 -0.6507 -0.7594
vn -0.0004 -0.6446 -0.7645
vn 0.0046 0.6079 -0.7940
vn 0.0004 0.6159 -0.7879
vn 0.0014 0.6140 -0.7893
vn 0.0057 0.6060 -0.7955
vn -0.0108 0.3073 0.9516
vn -0.0129 0.3069 0.9517
vn -0.0069 0.3079 0.9514
vn -0.0046 0.3083 0.9513
vn 0.0014 0.3282 0.9446
vn 0.0018 0.3269 0.9451
vn 0.0003 0.3314 0.9435
vn -0.0002 0.3328 0.9430
vn 0.0038 0.6018 0.7986
vn -0.0004 0.5897 0.8076
vn -0.0000 -0.4034 -0.9150
vn -0.0003 -0.6460 -0.7633
vn 0.0004 -0.6446 -0.7645
vn -0.0019 -0.6493 -0.7605
vn -0.0025 -0.6507 -0.7593
vn -0.1298 -0.9891 0.0693
vn 0.9999 0.0079 0.0116
vn 0.9999 0.0079 0.0117
vn 0.9999 0.0112 -0.0093
vn 0.9998 0.0066 0.0187
vn -1.0000 -0.0006 -0.0002
vn 0.0281 0.2170 0.9758
vn 0.0002 0.3226 -0.9466
vn -0.0006 -0.9544 0.2984
vn -0.0009 0.4088 -0.9126
vn -0.0073 0.4171 -0.9089
vn -0.0065 0.4161 -0.9093
vn -0.0003 0.4078 -0.9131
vn -1.0000 -0.0004 -0.0001
vn 0.0004 -0.3245 0.9459
vn 0.0027 0.3642 0.9313
vn 0.0034 0.3622 0.9321
vn 0.0006 0.3698 0.9291
vn -0.0002 0.3718 0.9283
vn -0.9998 -0.0006 0.0219
vn -0.9999 0.0003 0.0150
vn -0.9998 -0.0000 0.0178
vn -0.9997 -0.0009 0.0249
vn -0.0178 0.8608 0.5086
vn -0.0178 0.8609 0.5085
vn -0.0017 0.8688 0.4952
vn -0.9995 -0.0022 -0.0306
vn -0.9994 0.0181 0.0293
vn -1.0000 0.0004 0.0002
vn -1.0000 0.0003 -0.0002
vn -0.9998 0.0005 -0.0216
vn -0.9999 -0.0003 -0.0148
vn -0.9998 -0.0001 -0.0174
vn -0.9997 0.0008 -0.0242
vn -0.2542 -0.0326 -0.9666
vn -0.0000 -0.0338 -0.9994
vn -0.2376 -0.0327 -0.9708
vn -0.0050 0.3944 -0.9189
vn -0.0050 0.3943 -0.9190
vn 0.0029 -0.4792 -0.8777
vn -0.0003 -0.4753 -0.8798
vn -0.0068 -0.4904 -0.8715
vn -0.0061 -0.6821 0.7312
vn -0.0004 -0.6783 0.7348
vn -0.0069 -0.6830 0.7304
vn -0.0073 -0.6829 0.7305
vn -0.0006 -0.9655 0.2604
vn -0.0004 -0.5905 0.8071
vn 1.0000 0.0006 -0.0002
vn 1.0000 -0.0010 -0.0000
vn 0.1298 -0.9891 0.0693
vn 0.9999 0.0097 0.0120
vn -0.0281 0.2170 0.9758
vn 0.0006 0.3251 -0.9457
vn -0.0004 -0.3245 0.9459
vn 0.0001 -0.2078 0.9782
vn 1.0000 0.0008 0.0005
vn 1.0000 0.0007 0.0001
vn 1.0000 0.0010 0.0010
vn 0.0843 -0.0935 0.9920
vn 1.0000 0.0031 0.0003
vn 1.0000 0.0009 0.0008
vn 1.0000 0.0029 0.0005
vn 1.0000 -0.0001 0.0009
vn 1.0000 0.0008 -0.0000
vn 1.0000 0.0008 -0.0001
vn 0.0009 -0.3884 0.9215
vn 0.0003 -0.3864 0.9223
vn 0.0023 -0.3931 0.9195
vn 0.0029 -0.3951 0.9187
vn 0.0004 -0.5905 0.8071
vn 0.0004 -0.6829 0.7305
vn 0.0882 -0.6756 0.7320
vn -0.0004 0.6907 0.7231
vn -0.0002 -0.3269 -0.9450
vn -1.0000 -0.0019 -0.0006
vn -1.0000 -0.0014 -0.0008
vn -1.0000 -0.0009 -0.0008
vn -1.0000 0.0002 -0.0009
vn 0.0918 -0.7032 0.7050
vn 0.0909 -0.7052 0.7031
vn 0.0912 -0.7047 0.7037
vn 0.0921 -0.7025 0.7057
vn 1.0000 -0.0004 -0.0002
vn -0.0007 -0.9999 0.0136
vn 0.0177 0.8609 0.5085
vn 0.0178 0.8609 0.5085
vn 0.0017 0.8688 0.4952
vn -0.9999 0.0097 0.0120
vn -0.0006 0.3698 0.9291
vn -0.0034 0.3622 0.9321
vn -0.0027 0.3642 0.9313
vn 0.0002 0.3718 0.9283
vn -0.9933 0.0146 -0.1150
vn -1.0000 0.0006 -0.0000
vn 0.0002 0.3110 0.9504
vn -0.0006 0.3251 -0.9457
vn 0.9999 -0.0135 -0.0020
vn 1.0000 -0.0010 -0.0002
vn 0.9999 -0.0076 -0.0071
vn 0.9999 -0.0066 -0.0081
vn 0.0065 0.4161 -0.9093
vn 0.0073 0.4171 -0.9089
vn 0.0009 0.4088 -0.9126
vn 0.0003 0.4078 -0.9131
vn -1.0000 0.0007 -0.0008
vn -1.0000 0.0008 0.0004
vn -1.0000 0.0010 0.0010
vn -1.0000 0.0010 0.0015
vn -1.0000 0.0005 0.0015
vn -1.0000 0.0006 0.0009
vn -1.0000 0.0009 -0.0024
vn -1.0000 0.0014 -0.0034
vn 0.0008 -0.9566 -0.2916
vn 0.0007 -0.9567 -0.2910
vn -1.0000 -0.0006 0.0001
vn 0.0025 -0.7698 -0.6383
vn 0.0006 -0.7681 -0.6403
vn 0.0007 -0.7681 -0.6403
vn 0.0026 -0.7700 -0.6380
vn -1.0000 0.0009 0.0008
vn -1.0000 0.0030 0.0003
vn -1.0000 -0.0000 0.0009
vn -1.0000 0.0029 0.0005
vn 1.0000 -0.0020 -0.0006
vn 1.0000 -0.0011 -0.0000
vn 1.0000 -0.0006 0.0001
vn 1.0000 -0.0018 -0.0002
vn 1.0000 -0.0011 -0.0010
vn -1.0000 0.0012 0.0007
vn 0.0005 0.7747 -0.6323
vn 1.0000 0.0015 -0.0000
vn 1.0000 0.0007 0.0003
vn 1.0000 0.0017 -0.0001
vn 1.0000 0.0019 -0.0000
vn -0.1031 -0.7895 0.6050
vt 0.000000 0.000000
vt 0.625000 0.500000
vt 0.625000 0.750000
vt 0.375000 0.750000
vt 0.375000 0.500000
vt 0.375000 0.250000
vt 0.625000 1.000000
vt 0.375000 1.000000
vt 0.125000 0.500000
vt 0.125000 0.750000
vt 0.343750 0.500000
vt 0.343750 0.750000
vt 0.187500 0.750000
vt 0.187500 0.500000
vt 0.661747 0.713253
vt 0.591415 0.750000
vt 0.591415 0.500000
vt 0.661747 0.536747
vt 0.838253 0.536747
vt 0.838253 0.713253
vt 0.510000 0.250000
vt 0.542154 0.370000
vt 0.630000 0.457846
vt 0.750000 0.490000
vt 0.870000 0.457846
vt 0.957846 0.370000
vt 0.990000 0.250000
vt 0.957846 0.130000
vt 0.870000 0.042154
vt 0.750000 0.010000
vt 0.630000 0.042154
vt 0.542154 0.130000
vt 0.588253 1.000000
vt 0.625000 0.000000
vt 0.625000 0.250000
vt 0.375000 0.000000
vt 0.375000 0.468750
vt 0.375000 0.312500
vt 0.625000 0.312500
vt 0.625000 0.468750
vt 0.875000 0.500000
vt 0.875000 0.750000
vt 0.656250 0.500000
vt 0.812500 0.500000
vt 0.812500 0.750000
vt 0.656250 0.750000
vt 0.625000 0.781250
vt 0.250000 0.490000
vt 0.250000 0.250000
vt 0.370000 0.457846
vt 0.457846 0.370000
vt 0.490000 0.250000
vt 0.457846 0.130000
vt 0.370000 0.042154
vt 0.250000 0.010000
vt 0.130000 0.042154
vt 0.042154 0.130000
vt 0.010000 0.250000
vt 0.042154 0.370000
vt 0.130000 0.457846
vt 0.588253 0.250000
vt 0.375000 0.937500
vt 0.375000 0.781250
vt 0.625000 0.937500
vt 0.588253 0.000000
s 1
usemtl Material.001
f 465/1/1 473/1/1 472/1/1 464/1/1
f 303/1/3 315/1/3 313/1/3 302/1/3
f 438/1/4 450/1/4 449/1/4 437/1/4
f 289/1/5 301/1/5 312/1/5 300/1/5
f 432/1/7 444/1/7 443/1/7 431/1/7
f 459/1/9 468/1/9 474/1/9 466/1/9
f 315/1/4 316/1/4 328/1/4 327/1/4
f 459/1/10 476/1/10 475/1/10 460/1/10
f 379/1/11 380/1/11 392/1/11 391/1/11
f 351/1/12 363/1/12 362/1/12 350/1/12
f 72/1/16 64/1/16 44/1/16
f 435/1/12 447/1/12 448/1/12 436/1/12
s 0
f 129/1/21 131/1/22 97/1/23
s 1
f 461/1/24 469/1/24 467/1/24 460/1/24
f 464/1/24 480/1/24 481/1/24 465/1/24
f 323/1/29 335/1/29 334/1/29 322/1/29
f 126/1/31 63/1/31 62/1/31 125/1/31 86/1/31
f 122/1/32 123/1/32 119/1/32
f 126/1/33 86/1/33 124/1/33
f 6/1/10 14/1/10 13/1/10 5/1/10
f 127/1/38 100/1/39 128/1/39
s 0
f 97/1/40 132/1/22 103/1/30
f 130/1/40 133/1/22 129/1/30
f 103/1/41 134/1/22 130/1/42
s 1
f 116/1/43 95/1/43 114/1/43
f 100/1/44 105/1/44 128/1/44
f 366/1/45 367/1/45 379/1/45 378/1/45
f 415/1/47 427/1/47 426/1/47 414/1/47
f 425/1/3 437/1/3 435/1/3 424/1/3
f 313/1/50 315/1/50 327/1/50 325/1/50
f 319/1/11 331/1/11 330/1/11 318/1/11
f 441/1/11 453/1/11 452/1/11 440/1/11
f 27/9/52 30/5/52 29/4/52 25/10/52
f 62/1/53 122/1/54 119/1/55 42/1/56
f 204/1/57 212/1/57 184/1/57
s 0
f 270/1/58 272/1/59 274/1/22
s 1
f 262/1/60 259/1/60 263/1/60
f 266/1/61 264/1/61 227/1/62
f 232/1/63 231/1/63 220/1/63
s 0
f 238/1/64 273/1/65 272/1/22
f 271/1/66 274/1/66 275/1/22
f 243/1/67 275/1/68 273/1/22
s 1
f 253/1/69 251/1/69 248/1/69
f 256/1/70 254/1/70 236/1/70
f 268/1/71 269/1/71 245/1/71
f 352/1/50 364/1/50 363/1/50 351/1/50
f 293/1/47 305/1/47 304/1/47 292/1/47
f 382/1/72 383/1/72 395/1/72 394/1/72
f 378/1/47 390/1/47 389/1/47 377/1/47
f 356/1/11 368/1/11 367/1/11 355/1/11
f 2/1/73 9/1/73 10/1/73 1/1/73
f 382/1/74 394/1/74 393/1/74 381/1/74
f 296/1/74 297/1/74 309/1/74 308/1/74
f 6/1/24 22/1/24 23/1/24 7/1/24
f 298/1/72 310/1/72 309/1/72 297/1/72
f 295/1/11 307/1/11 306/1/11 294/1/11
f 8/1/77 24/1/77 18/1/77 1/1/77
f 313/1/79 325/1/79 326/1/79 314/1/79
f 445/1/29 457/1/29 456/1/29 444/1/29
f 3/1/24 11/1/24 9/1/24 2/1/24
f 359/1/29 360/1/29 372/1/29 371/1/29
f 159/15/81 160/16/81 162/17/81 161/18/81
f 4/1/9 20/1/9 21/1/9 5/1/9
f 157/19/22 155/20/22 159/15/22 161/18/22
f 460/1/1 475/1/1 477/1/1 461/1/1
f 61/1/31 60/1/31 128/1/31 120/1/31
f 320/1/74 321/1/74 333/1/74 332/1/74
f 354/1/47 366/1/47 365/1/47 353/1/47
f 353/1/4 365/1/4 364/1/4 352/1/4
f 294/1/82 306/1/82 305/1/82 293/1/82
f 369/1/83 370/1/83 382/1/83 381/1/83
f 8/1/85 16/1/85 15/1/85 7/1/85
f 362/1/86 375/1/86 385/1/86 373/1/86
f 357/1/87 369/1/87 368/1/87 356/1/87
f 160/16/14 156/33/14 151/8/14 153/4/14
f 371/1/88 372/1/88 384/1/88 383/1/88
f 289/1/12 290/1/12 302/1/12 301/1/12
f 5/1/73 21/1/73 22/1/73 6/1/73
f 292/1/4 304/1/4 303/1/4 291/1/4
f 464/1/10 472/1/10 471/1/10 463/1/10
f 367/1/90 368/1/90 380/1/90 379/1/90
f 375/1/91 387/1/91 397/1/91 385/1/91
f 4/1/92 12/1/92 11/1/92 3/1/92
f 384/1/29 396/1/29 395/1/29 383/1/29
f 307/1/94 308/1/94 320/1/94 319/1/94
f 152/9/78 154/5/78 153/4/78 151/10/78
f 299/1/29 311/1/29 310/1/29 298/1/29
f 324/1/96 336/1/96 335/1/96 323/1/96
f 417/1/97 429/1/97 428/1/97 416/1/97
f 312/1/86 301/1/86 314/1/86 324/1/86
f 445/1/96 446/1/96 458/1/96 457/1/96
f 430/1/83 431/1/83 443/1/83 442/1/83
f 462/1/9 478/1/9 479/1/9 463/1/9
f 306/1/90 307/1/90 319/1/90 318/1/90
f 426/1/101 438/1/101 437/1/101 425/1/101
f 310/1/88 311/1/88 323/1/88 322/1/88
f 161/18/107 162/17/107 158/41/107 157/19/107
f 155/20/108 156/42/108 160/16/108 159/15/108
f 312/1/109 324/1/109 323/1/109 311/1/109
f 463/1/77 471/1/77 470/1/77 462/1/77
f 437/1/50 449/1/50 447/1/50 435/1/50
f 2/1/1 17/1/1 19/1/1 3/1/1
f 155/20/112 157/19/112 158/41/112 156/42/112
f 321/1/72 322/1/72 334/1/72 333/1/72
f 361/1/96 373/1/96 372/1/96 360/1/96
f 162/17/2 160/16/2 153/4/2 154/5/2
f 1/1/9 10/1/9 16/1/9 8/1/9
f 411/1/79 412/1/79 424/1/79 423/1/79
f 466/1/77 482/1/77 476/1/77 459/1/77
f 460/1/73 467/1/73 468/1/73 459/1/73
f 72/1/119 79/1/119 64/1/119
s 0
f 129/1/22 133/1/42 131/1/41
s 1
f 58/1/122 57/1/122 101/1/122
f 358/1/74 370/1/74 369/1/74 357/1/74
f 58/1/128 101/1/128 130/1/128
f 7/1/92 23/1/92 24/1/92 8/1/92
f 3/1/85 19/1/85 20/1/85 4/1/85
f 202/1/137 182/1/138 259/1/139 262/1/140
f 320/1/141 332/1/141 331/1/141 319/1/141
f 55/1/143 54/1/143 109/1/144 110/1/145 111/1/146 56/1/147
f 360/1/84 359/1/84 358/1/84 357/1/84 356/1/84 355/1/84 354/1/84 353/1/84 352/1/84 351/1/84 350/1/84 361/1/84
s 0
f 97/1/22 131/1/30 132/1/30
f 130/1/22 134/1/40 133/1/40
f 103/1/22 132/1/23 134/1/21
s 1
f 374/1/12 386/1/12 387/1/12 375/1/12
f 359/1/72 371/1/72 370/1/72 358/1/72
f 104/1/31 105/1/31 60/1/31 59/1/31 58/1/31 130/1/31
f 57/1/151 56/1/152 115/1/153 111/1/154 116/1/155
f 204/1/161 220/1/161 212/1/161
s 0
f 270/1/68 238/1/22 272/1/67
f 238/1/64 243/1/22 273/1/66
f 271/1/64 270/1/22 274/1/66
f 243/1/59 271/1/22 275/1/58
s 1
f 253/1/162 255/1/163 251/1/163
f 291/1/84 290/1/84 289/1/84 300/1/84 299/1/84 298/1/84 297/1/84 296/1/84 295/1/84 294/1/84 293/1/84 292/1/84
f 384/1/96 385/1/96 397/1/96 396/1/96
f 461/1/85 477/1/85 478/1/85 462/1/85
f 329/1/164 330/1/164 331/1/164 332/1/164 333/1/164 334/1/164 335/1/164 336/1/164 326/1/164 325/1/164 327/1/164 328/1/164
f 364/1/3 376/1/3 374/1/3 363/1/3
f 365/1/165 377/1/165 376/1/165 364/1/165
f 373/1/166 385/1/166 384/1/166 372/1/166
f 62/1/31 61/1/31 120/1/31 121/1/31 122/1/31
f 371/1/7 383/1/7 382/1/7 370/1/7
f 1/1/10 18/1/10 17/1/10 2/1/10
f 376/1/50 388/1/50 386/1/50 374/1/50
f 393/1/164 394/1/164 395/1/164 396/1/164 397/1/164 387/1/164 386/1/164 388/1/164 389/1/164 390/1/164 391/1/164 392/1/164
f 365/1/168 366/1/168 378/1/168 377/1/168
f 415/1/84 414/1/84 413/1/84 412/1/84 411/1/84 422/1/84 421/1/84 420/1/84 419/1/84 418/1/84 417/1/84 416/1/84
f 314/1/91 326/1/91 336/1/91 324/1/91
f 318/1/82 330/1/82 329/1/82 317/1/82
f 350/1/5 362/1/5 373/1/5 361/1/5
f 436/1/91 448/1/91 458/1/91 446/1/91
f 378/1/82 379/1/82 391/1/82 390/1/82
f 411/1/91 423/1/91 434/1/91 422/1/91
f 376/1/4 377/1/4 389/1/4 388/1/4
f 302/1/186 313/1/186 314/1/186 301/1/186
f 309/1/83 321/1/83 320/1/83 308/1/83
f 291/1/50 303/1/50 302/1/50 290/1/50
f 380/1/141 381/1/141 393/1/141 392/1/141
f 5/1/77 13/1/77 12/1/77 4/1/77
f 79/1/189 80/1/189 81/1/189 82/1/189 83/1/190 77/1/191 78/1/192 52/1/193 51/1/194 50/1/189 69/1/189 68/1/189 67/1/189 66/1/189 65/1/189 64/1/189
f 300/1/96 312/1/96 311/1/96 299/1/96
f 424/1/186 435/1/186 436/1/186 423/1/186
f 419/1/74 431/1/74 430/1/74 418/1/74
f 416/1/82 428/1/82 427/1/82 415/1/82
f 420/1/72 432/1/72 431/1/72 419/1/72
f 414/1/4 426/1/4 425/1/4 413/1/4
f 421/1/29 433/1/29 432/1/29 420/1/29
f 417/1/141 418/1/141 430/1/141 429/1/141
f 305/1/45 306/1/45 318/1/45 317/1/45
f 427/1/45 428/1/45 440/1/45 439/1/45
f 304/1/165 316/1/165 315/1/165 303/1/165
f 429/1/94 430/1/94 442/1/94 441/1/94
f 309/1/7 310/1/7 322/1/7 321/1/7
f 432/1/88 433/1/88 445/1/88 444/1/88
f 158/61/13 162/17/13 154/5/13 152/6/13
f 412/1/50 413/1/50 425/1/50 424/1/50
f 426/1/168 427/1/168 439/1/168 438/1/168
f 434/1/166 446/1/166 445/1/166 433/1/166
f 93/1/267 109/1/267 54/1/267 53/1/267
f 466/1/85 474/1/85 473/1/85 465/1/85
f 439/1/82 440/1/82 452/1/82 451/1/82
f 295/1/87 296/1/87 308/1/87 307/1/87
f 78/1/275 93/1/275 53/1/275 52/1/275
f 423/1/86 436/1/86 446/1/86 434/1/86
f 304/1/168 305/1/168 317/1/168 316/1/168
f 113/1/277 115/1/278 56/1/279 36/1/280
f 444/1/72 456/1/72 455/1/72 443/1/72
f 369/1/94 381/1/94 380/1/94 368/1/94
f 428/1/90 429/1/90 441/1/90 440/1/90
f 442/1/141 454/1/141 453/1/141 441/1/141
f 438/1/47 439/1/47 451/1/47 450/1/47
f 7/1/1 15/1/1 14/1/1 6/1/1
f 452/1/164 453/1/164 454/1/164 455/1/164 456/1/164 457/1/164 458/1/164 448/1/164 447/1/164 449/1/164 450/1/164 451/1/164
f 103/1/292 130/1/293 101/1/294 102/1/295
f 422/1/96 434/1/96 433/1/96 421/1/96
f 355/1/82 367/1/82 366/1/82 354/1/82
f 317/1/47 329/1/47 328/1/47 316/1/47
f 465/1/92 481/1/92 482/1/92 466/1/92
f 462/1/92 470/1/92 469/1/92 461/1/92
f 156/65/89 158/61/89 152/6/89 151/36/89
f 463/1/73 479/1/73 480/1/73 464/1/73
f 42/1/118 123/1/118 125/1/118 62/1/118
f 79/1/337 64/1/338 63/1/339 86/1/339 87/1/340
f 193/1/345 234/1/345 219/1/345 192/1/345
f 79/1/31 91/1/31 89/1/31 64/1/31
f 363/1/186 374/1/186 375/1/186 362/1/186
f 442/1/74 443/1/74 455/1/74 454/1/74
usemtl Material.034
f 23/1/6 22/1/6 21/1/6 20/1/6 19/1/6 17/1/6 18/1/6 24/1/6
f 479/1/6 478/1/6 477/1/6 475/1/6 476/1/6 482/1/6 481/1/6 480/1/6
usemtl Material.016
f 285/21/84 286/22/84 287/23/84 276/24/84 277/25/84 278/26/84 279/27/84 280/28/84 281/29/84 282/30/84 283/31/84 284/32/84
f 407/21/84 408/22/84 409/23/84 398/24/84 399/25/84 400/26/84 401/27/84 402/28/84 403/29/84 404/30/84 405/31/84 406/32/84
f 276/48/172 288/49/172 277/50/172
f 277/50/173 288/49/173 278/51/173
f 278/51/174 288/49/174 279/52/174
f 279/52/175 288/49/175 280/53/175
f 280/53/176 288/49/176 281/54/176
f 281/54/177 288/49/177 282/55/177
f 282/55/178 288/49/178 283/56/178
f 283/56/179 288/49/179 284/57/179
f 284/57/180 288/49/180 285/58/180
f 285/58/181 288/49/181 286/59/181
f 286/59/182 288/49/182 287/60/182
f 287/60/183 288/49/183 276/48/183
f 337/48/172 349/49/172 338/50/172
f 338/50/173 349/49/173 339/51/173
f 339/51/174 349/49/174 340/52/174
f 340/52/184 349/49/184 341/53/184
f 341/53/176 349/49/176 342/54/176
f 342/54/177 349/49/177 343/55/177
f 343/55/178 349/49/178 344/56/178
f 344/56/179 349/49/179 345/57/179
f 345/57/180 349/49/180 346/58/180
f 346/58/181 349/49/181 347/59/181
f 347/59/182 349/49/182 348/60/182
f 348/60/183 349/49/183 337/48/183
f 398/48/172 410/49/172 399/50/172
f 399/50/173 410/49/173 400/51/173
f 400/51/174 410/49/174 401/52/174
f 401/52/184 410/49/184 402/53/184
f 402/53/176 410/49/176 403/54/176
f 403/54/177 410/49/177 404/55/177
f 404/55/178 410/49/178 405/56/178
f 405/56/179 410/49/179 406/57/179
f 406/57/180 410/49/180 407/58/180
f 407/58/181 410/49/181 408/59/181
f 408/59/182 410/49/182 409/60/182
f 409/60/183 410/49/183 398/48/183
f 338/25/84 339/26/84 340/27/84 341/28/84 342/29/84 343/30/84 344/31/84 345/32/84 346/21/84 347/22/84 348/23/84 337/24/84
usemtl Horuga
f 116/1/8 114/1/8 37/1/8 57/1/8
f 107/1/15 110/1/15 109/1/15 106/1/15
f 234/1/17 233/1/18 235/1/19 219/1/20
f 254/1/25 177/1/26 176/1/27 248/1/28 236/1/28
f 43/1/30 124/1/30 123/1/30 42/1/30
f 34/1/34 54/1/35 109/1/36 106/1/37
f 99/1/46 100/1/46 105/1/46 104/1/46
f 183/1/48 182/1/48 263/1/48 264/1/48
f 210/1/49 218/1/49 219/1/49 211/1/49
f 172/1/51 211/1/51 219/1/51 192/1/51
f 242/1/75 243/1/75 238/1/75 237/1/75
f 111/1/76 110/1/76 107/1/76 108/1/76
f 40/1/30 41/1/30 117/1/30 100/1/30
f 210/1/80 217/1/80 224/1/80 218/1/80
f 105/1/93 100/1/93 40/1/93 60/1/93
f 240/1/48 257/1/48 181/1/48 180/1/48
f 52/1/95 32/1/95 71/1/95 78/1/95
f 76/1/98 82/1/98 81/1/98 75/1/98
f 70/1/100 71/1/100 78/1/100 77/1/100
f 196/1/102 176/1/102 248/1/102 251/1/102
f 194/1/103 249/1/103 234/1/103 193/1/103
f 180/1/104 240/1/104 245/1/104 200/1/104
f 174/1/105 173/1/105 252/1/105 246/1/105
f 239/1/106 244/1/106 245/1/106 240/1/106
f 177/1/110 254/1/110 256/1/110 197/1/110
f 215/1/111 222/1/111 223/1/111 216/1/111
f 272/1/113 273/1/113 275/1/113 274/1/113
f 175/1/114 174/1/114 246/1/115 247/1/116 248/1/117 176/1/114
f 202/1/118 265/1/118 263/1/118 182/1/118
f 99/1/120 104/1/120 130/1/113 129/1/121
f 36/1/123 37/1/124 114/1/125 95/1/126 108/1/127
f 221/1/129 220/1/129 204/1/129 205/1/129 206/1/129 207/1/129 208/1/129 209/1/130 190/1/131 191/1/132 192/1/133 219/1/129 218/1/134 224/1/135 223/1/136 222/1/129
f 249/1/148 194/1/149 195/1/149 196/1/149 251/1/149 250/1/150
f 177/1/156 197/1/156 241/1/157 236/1/157
f 96/1/158 95/1/158 129/1/159 97/1/159
f 216/1/169 223/1/169 224/1/169 217/1/169
f 89/1/170 88/1/170 44/1/170 64/1/170
f 247/1/171 250/1/171 251/1/171 248/1/171
f 43/1/187 84/1/187 86/1/187 63/1/187
f 127/1/195 128/1/195 60/1/196 40/1/196
f 84/1/197 87/1/197 86/1/197
f 56/1/198 111/1/198 108/1/198 36/1/198
f 129/1/199 95/1/199 38/1/199
f 89/1/200 90/1/200 88/1/200
f 93/1/201 33/1/201 53/1/201
f 71/1/202 94/1/202 78/1/202
f 95/1/203 116/1/204 111/1/205 108/1/206
f 34/1/207 106/1/207 112/1/207 33/1/207
f 174/1/208 246/1/209 249/1/210 194/1/211
f 220/1/212 231/1/213 226/1/214 228/1/215
f 181/1/216 257/1/217 260/1/218 201/1/219
f 200/1/220 268/1/220 267/1/221 180/1/221
f 258/1/222 261/1/223 262/1/224 263/1/225
f 265/1/226 227/1/226 264/1/226 263/1/227
f 100/1/228 117/1/228 120/1/229 105/1/229
f 71/1/230 32/1/230 33/1/231 92/1/231 94/1/230
f 247/1/232 246/1/232 249/1/232 250/1/232
f 73/1/233 80/1/233 72/1/233
f 91/1/234 79/1/235 90/1/235
f 113/1/236 111/1/236 115/1/236
f 134/1/113 132/1/113 131/1/113 133/1/113
f 183/1/237 264/1/238 266/1/239 203/1/240
f 258/1/241 257/1/241 260/1/242 261/1/242
f 236/1/243 248/1/244 251/1/245 256/1/246
f 94/1/247 92/1/248 93/1/249 78/1/250
f 126/1/251 124/1/252 43/1/253 63/1/254
f 37/1/255 95/1/255 101/1/256 57/1/256
f 257/1/48 258/1/48 263/1/48 259/1/48 182/1/48 181/1/48
f 97/1/75 103/1/75 102/1/75 96/1/75
f 118/1/258 121/1/259 120/1/260 117/1/261
f 225/1/262 228/1/262 226/1/262
f 197/1/263 256/1/264 251/1/265 255/1/266 196/1/266
f 230/1/268 231/1/268 232/1/268
f 173/1/269 234/1/269 193/1/269
f 211/1/270 219/1/270 235/1/270
f 102/1/271 101/1/272 95/1/273 96/1/274
f 173/1/276 234/1/276 252/1/276
f 238/1/281 270/1/282 236/1/283 237/1/284
f 109/1/285 93/1/286 112/1/287 106/1/287
f 201/1/64 260/1/64 269/1/64 268/1/64 200/1/64
f 173/1/290 172/1/290 211/1/291 235/1/290 233/1/290
f 270/1/296 271/1/297 244/1/297 239/1/298
f 267/1/299 268/1/300 240/1/300
f 260/1/301 257/1/301 240/1/302 245/1/302 269/1/303
f 220/1/304 221/1/305 214/1/306 213/1/307
f 240/1/308 268/1/308 245/1/308
f 214/1/309 221/1/309 222/1/309 215/1/309
f 120/1/310 128/1/310 105/1/310
f 202/1/64 203/1/64 266/1/64 227/1/311 265/1/64
f 84/1/312 85/1/312 87/1/312
f 100/1/30 99/1/30 98/1/30 129/1/30 38/1/30 39/1/30 40/1/30
f 95/1/313 37/1/313 38/1/313
f 89/1/314 91/1/314 90/1/314
f 93/1/315 92/1/315 33/1/315
f 33/1/316 112/1/316 93/1/316
f 83/1/317 82/1/317 76/1/317
f 70/1/80 77/1/80 83/1/80
f 70/1/318 76/1/318 75/1/319 74/1/318 73/1/318 72/1/318 44/1/318 45/1/318 46/1/318 47/1/318 48/1/318 49/1/318 31/1/318 32/1/320 71/1/318
f 70/1/321 83/1/321 76/1/321
f 84/1/322 43/1/323 44/1/323 88/1/323 90/1/324 85/1/325
f 108/1/326 113/1/327 36/1/327
f 41/1/328 61/1/329 120/1/330 117/1/331
f 81/1/332 80/1/332 74/1/332 75/1/332
f 73/1/333 74/1/333 80/1/333
f 80/1/334 79/1/334 72/1/334
f 100/1/30 127/1/30 40/1/30
f 113/1/335 108/1/335 111/1/335
f 183/1/336 203/1/336 227/1/336 225/1/336
f 85/1/341 90/1/342 79/1/343 87/1/344
f 225/1/346 227/1/346 228/1/346
f 252/1/347 234/1/348 249/1/349 246/1/349
f 178/1/350 177/1/350 236/1/350
f 196/1/351 255/1/352 253/1/353 176/1/354
f 178/1/355 236/1/355 270/1/355
f 260/1/66 201/1/66 202/1/66 262/1/66 261/1/66
f 270/1/296 239/1/298 240/1/356 180/1/356 179/1/356 178/1/356
f 230/1/357 229/1/357 231/1/357
f 173/1/358 233/1/358 234/1/358
f 197/1/359 198/1/66 199/1/360 200/1/360 245/1/64 244/1/66 271/1/360 243/1/360 242/1/361 241/1/362
f 236/1/363 241/1/364 242/1/365 237/1/366
f 210/1/367 211/1/368 172/1/369 171/1/370 189/1/371 188/1/372 187/1/368 186/1/368 185/1/368 184/1/368 212/1/368 213/1/368 214/1/368 215/1/368 216/1/373 217/1/374
f 42/1/30 119/1/30 123/1/30 118/1/30 117/1/30 41/1/30
f 124/1/375 86/1/375 125/1/375 123/1/376
f 129/1/377 98/1/377 99/1/377
f 122/1/378 121/1/379 118/1/380 123/1/381
f 184/1/382 183/1/382 225/1/383 226/1/384 231/1/385 229/1/382
f 203/1/386 204/1/387 230/1/388 232/1/389 220/1/66 228/1/149 227/1/390
f 176/1/391 253/1/391 248/1/391
f 184/1/392 229/1/392 230/1/392 204/1/392
f 106/1/393 34/1/394 35/1/394 36/1/394 108/1/395 107/1/396
f 213/1/397 212/1/397 220/1/397
f 180/1/356 267/1/356 240/1/356
usemtl Bomba
f 28/2/2 26/3/2 29/4/2 30/5/2
f 27/6/13 28/2/13 30/5/13
f 29/4/14 26/7/14 25/8/14
f 149/11/78 148/12/78 146/13/78 143/14/78
f 136/34/89 138/35/89 137/6/89 135/36/89
f 141/5/13 149/37/13 143/38/13 137/6/13 138/35/13 145/39/13 147/40/13 142/2/13
f 143/14/99 146/13/99 135/10/99 137/9/99
f 147/43/142 145/44/142 144/45/142 150/46/142
f 139/4/160 140/3/160 150/47/160
f 25/36/167 26/34/167 28/35/167 27/6/167
f 147/43/185 150/46/185 140/3/185 142/2/185
f 138/41/188 136/42/188 144/45/188 145/44/188
f 142/2/2 140/3/2 139/4/2 141/5/2
f 141/5/257 139/4/257 148/12/257 149/11/257
f 136/7/14 135/8/14 146/62/14 148/63/14 139/4/288 150/47/289 144/64/289
l 163 164
l 165 166
l 167 168
l 169 170
