# Blender 4.5.3 LTS
# www.blender.org
mtllib VoladorMOVIL.mtl
o Plane.278
v -0.035515 -0.166838 0.018170
v -0.000583 0.273900 0.024985
v -0.002585 -0.284410 0.020244
v 0.031932 0.196357 -0.000310
v -0.002211 -0.277019 0.022398
v 0.001833 0.278871 0.022398
v -0.033975 -0.001485 0.005282
v 0.034344 -0.001982 0.005282
v 0.035702 -0.093742 0.005282
v -0.076403 -0.092927 0.005282
v -0.033677 0.090264 0.005282
v 0.067815 0.125929 0.005282
v 0.000459 0.090015 0.022398
v -0.166016 0.030124 0.018170
v 0.275355 0.004393 0.024985
v -0.293672 -0.004579 0.020244
v 0.198507 -0.029731 -0.000310
v -0.286275 -0.004799 0.022398
v 0.280375 0.002082 0.022398
v -0.000667 0.032034 0.005282
v 0.000261 -0.036280 0.005282
v -0.091451 -0.039552 0.005282
v -0.091948 -0.002977 0.022398
v -0.092974 0.072545 0.005282
v 0.091068 0.033649 0.005282
v 0.128842 -0.067076 0.005282
v 0.091531 -0.000484 0.022398
vn 0.1622 0.1599 0.9737
vn 0.9675 -0.1146 0.2252
vn -0.0164 -0.0142 0.9998
vn 0.1633 -0.1588 0.9737
vn -0.0057 -0.4695 0.8829
vn -0.0052 0.4542 0.8909
vn 0.5947 -0.0043 0.8039
vn 0.2825 -0.0739 0.9564
vn 0.3420 0.0051 0.9397
vn 0.4439 -0.0032 0.8961
vn -0.1684 0.0782 0.9826
vn -0.5185 0.0017 0.8551
vn 0.7359 -0.0054 0.6771
vn -0.1230 0.0009 0.9924
vn -0.7993 0.0541 0.5985
vn 0.0081 -0.5946 0.8039
vn 0.0093 -0.9911 -0.1329
vn 0.0034 -0.2472 0.9690
vn 0.0119 -0.3342 0.9424
vn -0.1964 -0.8201 0.5375
vn 0.0746 0.1700 0.9826
vn -0.0091 0.5184 0.8551
vn 0.0100 -0.7359 0.6771
vn -0.0000 -0.0000 1.0000
vn 0.0786 -0.1512 0.9854
vn -0.0237 0.4121 0.9108
vt 0.750000 0.500000
vt 1.000000 1.000000
vt 0.750000 1.000000
vt 0.000000 0.500000
vt 0.500000 1.000000
vt 0.000000 1.000000
vt 0.000000 0.000000
vt 1.000000 0.000000
vt 0.250000 0.500000
vt 0.500000 0.000000
vt 1.000000 0.500000
vt 0.250000 1.000000
vt 0.250000 0.000000
vt 0.750000 0.000000
s 0
usemtl helice.001
f 13/1/1 12/3/1 4/2/1
f 5/4/2 3/6/2 8/5/2
f 1/7/3 13/1/3 2/8/3
f 27/1/4 26/3/4 17/2/4
f 23/9/5 16/6/5 21/5/5
f 20/10/6 18/4/6 27/1/6
f 13/1/7 4/2/7 6/11/7
f 13/1/8 8/5/8 12/3/8
f 8/5/9 3/6/9 9/12/9
f 5/4/10 8/5/10 13/1/10
f 1/7/11 7/10/11 10/13/11
f 7/10/12 2/8/12 11/14/12
f 2/8/13 13/1/13 6/11/13
f 13/1/14 1/7/14 5/4/14
f 1/7/15 2/8/15 7/10/15
f 27/1/16 17/2/16 19/11/16
f 16/6/17 23/9/17 18/4/17
f 23/9/18 26/3/18 27/1/18
f 21/5/19 16/6/19 22/12/19
f 23/9/20 21/5/20 26/3/20
f 14/7/21 20/10/21 24/13/21
f 20/10/22 15/8/22 25/14/22
f 15/8/23 27/1/23 19/11/23
f 27/1/24 18/4/24 23/9/24
f 18/4/25 20/10/25 14/7/25
f 20/10/26 27/1/26 15/8/26
