# Blender 4.5.3 LTS
# www.blender.org
mtllib Volador.mtl
o Cylinder.081
v -0.386911 0.488809 0.029007
v -0.380581 0.503783 0.029007
v -0.365517 0.509895 0.029007
v -0.350543 0.503565 0.029007
v -0.344431 0.488500 0.029007
v -0.350761 0.473526 0.029007
v -0.365826 0.467414 0.029007
v -0.380799 0.473745 0.029007
v -0.368310 0.488674 -0.061278
v -0.386911 0.488809 -0.024753
v -0.367523 0.490534 -0.061278
v -0.380581 0.503783 -0.024753
v -0.365652 0.491293 -0.061278
v -0.365517 0.509895 -0.024753
v -0.363792 0.490507 -0.061278
v -0.350543 0.503565 -0.024753
v -0.363032 0.488636 -0.061278
v -0.344431 0.488500 -0.024753
v -0.363819 0.486776 -0.061278
v -0.350761 0.473526 -0.024753
v -0.365690 0.486016 -0.061278
v -0.365826 0.467414 -0.024753
v -0.367550 0.486803 -0.061278
v -0.380799 0.473745 -0.024753
v -0.367090 0.490095 0.089424
v -0.380581 0.503783 0.051687
v -0.386911 0.488809 0.051687
v -0.367693 0.488670 0.089424
v -0.365656 0.490676 0.089424
v -0.365517 0.509895 0.051687
v -0.364231 0.490074 0.089424
v -0.350543 0.503565 0.051687
v -0.363649 0.488640 0.089424
v -0.344431 0.488500 0.051687
v -0.364252 0.487215 0.089424
v -0.350761 0.473526 0.051687
v -0.365686 0.486633 0.089424
v -0.365826 0.467414 0.051687
v -0.367111 0.487236 0.089424
v -0.380799 0.473745 0.051687
v 0.065293 0.286862 -0.026524
v 0.064477 0.174665 -0.105088
v -0.071841 0.287859 -0.026524
v -0.072657 0.175662 -0.105088
v 0.065330 0.291845 -0.033641
v 0.064513 0.179648 -0.112204
v -0.071805 0.292842 -0.033641
v -0.072621 0.180645 -0.112204
v -0.005592 -0.031349 -0.230297
v 0.045433 0.037818 -0.177176
v 0.075958 -0.058504 -0.177176
v -0.006217 -0.117299 -0.177175
v -0.087528 -0.057314 -0.177176
v -0.055606 0.038553 -0.177176
v 0.042341 -0.047310 -0.215945
v 0.024400 0.009306 -0.215945
v 0.072333 -0.006655 -0.184721
v -0.004998 0.050393 -0.184721
v -0.034989 0.009738 -0.215945
v -0.005960 -0.081869 -0.215945
v 0.041974 -0.097830 -0.184721
v -0.053753 -0.046611 -0.215945
v -0.054120 -0.097131 -0.184721
v -0.083150 -0.005524 -0.184721
v 0.024767 0.059826 -0.134199
v -0.034622 0.060258 -0.134199
v 0.090503 -0.032049 -0.134199
v 0.072561 0.024568 -0.134199
v 0.023438 -0.122957 -0.134199
v 0.071739 -0.088398 -0.134199
v -0.083745 -0.087267 -0.134199
v -0.035951 -0.122525 -0.134199
v -0.082924 0.025699 -0.134199
v -0.101687 -0.030650 -0.134199
v 0.352490 -0.563860 0.029007
v 0.358820 -0.548886 0.029007
v 0.373885 -0.542774 0.029007
v 0.388859 -0.549105 0.029007
v 0.394971 -0.564169 0.029007
v 0.388640 -0.579143 0.029007
v 0.373576 -0.585255 0.029007
v 0.358602 -0.578925 0.029007
v 0.371092 -0.563996 -0.061278
v 0.352490 -0.563860 -0.024753
v 0.371878 -0.562136 -0.061278
v 0.358820 -0.548886 -0.024753
v 0.373750 -0.561376 -0.061278
v 0.373885 -0.542774 -0.024753
v 0.375610 -0.562163 -0.061278
v 0.388859 -0.549105 -0.024753
v 0.376369 -0.564034 -0.061278
v 0.394971 -0.564169 -0.024753
v 0.375582 -0.565894 -0.061278
v 0.388640 -0.579143 -0.024753
v 0.373711 -0.566653 -0.061278
v 0.373576 -0.585255 -0.024753
v 0.371851 -0.565867 -0.061278
v 0.358602 -0.578925 -0.024753
v 0.372311 -0.562575 0.089424
v 0.358820 -0.548886 0.051687
v 0.352490 -0.563860 0.051687
v 0.371709 -0.564000 0.089424
v 0.373745 -0.561993 0.089424
v 0.373885 -0.542774 0.051687
v 0.375170 -0.562596 0.089424
v 0.388859 -0.549105 0.051687
v 0.375752 -0.564029 0.089424
v 0.394971 -0.564169 0.051687
v 0.375149 -0.565455 0.089424
v 0.388640 -0.579143 0.051687
v 0.373716 -0.566036 0.089424
v 0.373576 -0.585255 0.051687
v 0.372291 -0.565434 0.089424
v 0.358602 -0.578925 0.051687
v -0.414303 -0.558279 0.029007
v -0.407973 -0.543305 0.029007
v -0.392908 -0.537193 0.029007
v -0.377934 -0.543524 0.029007
v -0.371823 -0.558588 0.029007
v -0.378153 -0.573562 0.029007
v -0.393217 -0.579674 0.029007
v -0.408191 -0.573344 0.029007
v -0.395701 -0.558415 -0.061278
v -0.414303 -0.558279 -0.024753
v -0.394915 -0.556555 -0.061278
v -0.407973 -0.543305 -0.024753
v -0.393044 -0.555795 -0.061278
v -0.392908 -0.537193 -0.024753
v -0.391184 -0.556582 -0.061278
v -0.377934 -0.543524 -0.024753
v -0.390424 -0.558453 -0.061278
v -0.371823 -0.558588 -0.024753
v -0.391211 -0.560313 -0.061278
v -0.378153 -0.573562 -0.024753
v -0.393082 -0.561072 -0.061278
v -0.393217 -0.579674 -0.024753
v -0.394942 -0.560286 -0.061278
v -0.408191 -0.573344 -0.024753
v -0.394482 -0.556994 0.089424
v -0.407973 -0.543305 0.051687
v -0.414303 -0.558279 0.051687
v -0.395084 -0.558419 0.089424
v -0.393048 -0.556412 0.089424
v -0.392908 -0.537193 0.051687
v -0.391623 -0.557015 0.089424
v -0.377934 -0.543524 0.051687
v -0.391041 -0.558449 0.089424
v -0.371823 -0.558588 0.051687
v -0.391644 -0.559874 0.089424
v -0.378153 -0.573562 0.051687
v -0.393078 -0.560455 0.089424
v -0.393217 -0.579674 0.051687
v -0.394503 -0.559853 0.089424
v -0.408191 -0.573344 0.051687
v 0.346133 0.483476 0.029007
v 0.352463 0.498450 0.029007
v 0.367528 0.504562 0.029007
v 0.382502 0.498232 0.029007
v 0.388614 0.483167 0.029007
v 0.382283 0.468193 0.029007
v 0.367219 0.462082 0.029007
v 0.352245 0.468412 0.029007
v 0.364735 0.483341 -0.061278
v 0.346133 0.483476 -0.024753
v 0.365521 0.485201 -0.061278
v 0.352463 0.498450 -0.024753
v 0.367392 0.485960 -0.061278
v 0.367528 0.504562 -0.024753
v 0.369253 0.485174 -0.061278
v 0.382502 0.498232 -0.024753
v 0.370012 0.483303 -0.061278
v 0.388614 0.483167 -0.024753
v 0.369225 0.481443 -0.061278
v 0.382283 0.468193 -0.024753
v 0.367354 0.480683 -0.061278
v 0.367219 0.462082 -0.024753
v 0.365494 0.481470 -0.061278
v 0.352245 0.468412 -0.024753
v 0.365954 0.484762 0.089424
v 0.352463 0.498450 0.051687
v 0.346133 0.483476 0.051687
v 0.365352 0.483337 0.089424
v 0.367388 0.485343 0.089424
v 0.367528 0.504562 0.051687
v 0.368813 0.484741 0.089424
v 0.382502 0.498232 0.051687
v 0.369395 0.483307 0.089424
v 0.388614 0.483167 0.051687
v 0.368792 0.481882 0.089424
v 0.382283 0.468193 0.051687
v 0.367359 0.481300 0.089424
v 0.367219 0.462082 0.051687
v 0.365933 0.481903 0.089424
v 0.352245 0.468412 0.051687
v -0.146329 0.141631 -0.080437
v -0.146329 0.141631 -0.036134
v -0.104171 0.172027 -0.080437
v -0.104171 0.172027 -0.036134
v -0.395739 0.499655 -0.074402
v -0.366724 0.447307 -0.080437
v -0.395739 0.499655 -0.042169
v -0.366724 0.447307 -0.036134
v -0.365067 0.521770 -0.074402
v -0.324566 0.477704 -0.080437
v -0.365067 0.521770 -0.042169
v -0.324566 0.477704 -0.036134
v 0.042941 -0.020254 -0.205871
v 0.023167 -0.020014 -0.205951
v 0.043038 -0.006904 -0.189955
v 0.023264 -0.006664 -0.190035
v 0.041358 0.109950 -0.310157
v 0.044565 0.084333 -0.293604
v 0.028751 0.110102 -0.310208
v 0.024790 0.084572 -0.293685
v 0.041420 0.118460 -0.300010
v 0.044662 0.097683 -0.277688
v 0.028813 0.118613 -0.300061
v 0.024887 0.097922 -0.277768
v 0.110465 -0.314648 -0.036134
v 0.061484 -0.259304 -0.080437
v 0.146701 -0.281071 -0.036134
v 0.097720 -0.225727 -0.080437
v 0.378452 -0.593077 -0.042706
v 0.334123 -0.556020 -0.036134
v 0.378452 -0.593077 -0.073866
v 0.334123 -0.556020 -0.080437
v 0.403938 -0.569461 -0.042706
v 0.370360 -0.522442 -0.036134
v 0.403938 -0.569461 -0.073866
v 0.370360 -0.522442 -0.080437
v -0.142674 -0.298192 -0.036134
v -0.106495 -0.262342 -0.080437
v -0.182700 -0.265092 -0.036134
v -0.146521 -0.234274 -0.080437
v -0.395971 -0.592868 -0.042451
v -0.354962 -0.554899 -0.036134
v -0.395971 -0.592868 -0.074120
v -0.354962 -0.554899 -0.080437
v -0.424583 -0.569207 -0.042451
v -0.394988 -0.521798 -0.036134
v -0.394988 -0.521798 -0.080437
v -0.424583 -0.569207 -0.074120
v 0.145722 0.144905 -0.036134
v 0.145722 0.144905 -0.080437
v 0.104011 0.175912 -0.036134
v 0.104011 0.175912 -0.080437
v 0.400314 0.499263 -0.042169
v 0.370541 0.447344 -0.036134
v 0.400314 0.499263 -0.074402
v 0.370541 0.447344 -0.080437
v 0.369967 0.521822 -0.042169
v 0.328830 0.478350 -0.036134
v 0.369967 0.521822 -0.074402
v 0.328830 0.478350 -0.080437
v -0.036684 -0.016868 -0.210738
v -0.055672 -0.016638 -0.210815
v -0.036590 -0.004049 -0.195455
v -0.055579 -0.003819 -0.195532
v -0.038204 0.108158 -0.310877
v -0.035125 0.083560 -0.294983
v -0.050309 0.108305 -0.310926
v -0.054113 0.083790 -0.295060
v -0.038145 0.116330 -0.301134
v -0.035031 0.096379 -0.279700
v -0.050250 0.116477 -0.301183
v -0.054020 0.096609 -0.279777
v 0.091011 -0.179398 -0.139762
v 0.226563 -0.387219 -0.005139
v -0.104339 -0.178010 -0.138712
v -0.242899 -0.383804 0.003231
v 0.093132 0.115278 -0.142233
v 0.231715 0.321105 -0.005140
v -0.102172 0.116732 -0.139762
v -0.237747 0.324520 -0.005139
v 0.226563 -0.387219 -0.007049
v 0.182393 -0.319511 0.037613
v -0.197749 -0.316746 0.037613
v 0.186565 0.254047 0.037613
v 0.231715 0.321105 -0.007049
v -0.193577 0.256812 0.037613
v -0.237747 0.324520 -0.007049
v -0.006664 -0.178704 -0.139237
v 0.042173 -0.179051 -0.139500
v 0.044306 0.115641 -0.141615
v -0.053346 0.116369 -0.140380
v -0.055501 -0.178357 -0.138974
v 0.019893 0.115823 -0.141306
v 0.017755 -0.178877 -0.139368
v -0.031083 -0.178530 -0.139106
v -0.079920 -0.178184 -0.138843
v 0.046181 0.261304 -0.092877
v 0.029353 0.284874 -0.059156
v -0.011606 0.295928 -0.045891
v -0.052704 0.287991 -0.060852
v -0.069865 0.265712 -0.095275
v -0.053037 0.246754 -0.140436
v -0.012078 0.235699 -0.153702
v 0.029020 0.243637 -0.138741
v 0.027276 0.249456 -0.043653
v 0.044104 0.225886 -0.077374
v -0.013517 0.283396 -0.036192
v -0.054650 0.270631 -0.047193
v -0.071890 0.237477 -0.071263
v -0.055139 0.203353 -0.094303
v -0.014209 0.188250 -0.102816
v 0.026924 0.201014 -0.091815
v 0.028368 0.270492 -0.057811
v 0.045196 0.246921 -0.091532
v -0.012592 0.281546 -0.044546
v -0.053689 0.273609 -0.059507
v -0.065455 0.251290 -0.093931
v -0.053991 0.232185 -0.121893
v -0.013063 0.216705 -0.130519
v 0.028034 0.224642 -0.115588
vn 0.9211 -0.3894 -0.0000
vn -0.3759 0.9266 -0.0000
vn -0.0073 -1.0000 -0.0000
vn 0.0071 0.2699 -0.9629
vn 0.0028 0.2686 -0.9633
vn -0.6630 0.0108 0.7486
vn -0.6630 0.0108 0.7485
vn -0.3402 0.8385 0.4258
vn -0.8385 -0.3402 -0.4258
vn -0.0000 -0.0000 -1.0000
vn 0.3495 -0.3772 -0.8576
vn -0.3524 -0.8334 0.4258
vn 0.0073 1.0000 -0.0000
vn 0.8385 0.3402 -0.4258
vn 0.3402 -0.8385 -0.4258
vn -0.0000 -0.0000 1.0000
vn 0.3760 -0.9266 -0.0000
vn 0.3589 -0.1113 -0.9267
vn -0.0032 -0.5430 -0.8397
vn 0.8334 -0.3524 -0.4258
vn -0.9211 0.3894 -0.0000
vn 0.5848 -0.8111 -0.0000
vn 0.0067 -0.5062 0.8624
vn 0.8334 -0.3524 0.4258
vn 0.3523 0.8334 -0.4258
vn -0.8334 0.3523 0.4258
vn 0.7350 0.6779 0.0171
vn 0.3523 0.8334 0.4258
vn -0.8385 -0.3402 0.4257
vn -0.8385 -0.3402 0.4258
vn -0.3894 -0.9211 -0.0000
vn 0.3894 0.9211 -0.0000
vn 0.5966 0.8025 -0.0000
vn -0.8334 0.3523 -0.4258
vn 0.0042 0.5736 -0.8192
vn -0.3524 -0.8334 -0.4258
vn -0.0119 -0.7661 0.6426
vn 0.3402 -0.8384 -0.4258
vn -0.3523 -0.8334 -0.4258
vn 0.8385 0.3402 0.4258
vn -0.9999 0.0121 -0.0041
vn 0.0119 0.7661 -0.6426
vn 0.0047 0.6426 0.7662
vn 0.3524 0.8334 -0.4258
vn -0.8385 -0.3401 0.4257
vn -0.3523 -0.8334 0.4258
vn 0.9267 0.3759 -0.0000
vn 0.0591 -0.0819 0.9949
vn 0.7603 -0.6437 0.0866
vn -0.3535 0.7307 0.5840
vn -0.3532 0.7310 0.5838
vn -0.3538 0.7304 0.5843
vn -0.3760 0.9266 -0.0000
vn -0.8384 -0.3402 -0.4258
vn 0.0034 0.4186 -0.9082
vn -0.0024 -0.4195 -0.9078
vn -0.0024 -0.4203 -0.9074
vn -0.3402 0.8384 -0.4258
vn -0.3401 0.8385 0.4258
vn -0.3526 -0.8333 -0.4258
vn 0.3402 -0.8385 0.4257
vn 0.9266 0.3759 -0.0000
vn -0.9266 -0.3759 -0.0000
vn -0.8675 0.4975 -0.0000
vn -0.3402 0.8385 -0.4258
vn 0.3524 0.8334 0.4258
vn 0.6414 0.7672 -0.0000
vn 0.6373 0.7706 -0.0000
vn 0.8386 0.3397 -0.4258
vn 0.8386 0.3397 -0.4259
vn -0.3894 -0.9210 -0.0000
vn 1.0000 -0.0073 -0.0000
vn -0.9266 -0.3760 -0.0000
vn 0.3158 0.1001 -0.9435
vn 0.2731 0.6983 -0.6617
vn 0.1928 -0.2694 -0.9435
vn -0.1967 -0.2666 -0.9435
vn -0.3143 0.1047 -0.9435
vn 0.2746 0.9030 -0.3304
vn 0.9437 0.0179 -0.3304
vn 0.3086 -0.8920 -0.3304
vn -0.7529 -0.5691 -0.3304
vn -0.7740 0.5402 -0.3304
vn 0.5889 0.7983 -0.1256
vn 0.9413 -0.3134 -0.1256
vn -0.0072 -0.9921 -0.1256
vn -0.9457 -0.2997 -0.1256
vn -0.5773 0.8068 -0.1256
vn -0.9319 0.3103 -0.1876
vn -0.9433 0.0316 -0.3304
vn -0.5831 -0.7904 -0.1876
vn -0.3216 -0.8874 -0.3304
vn 0.5716 -0.7988 -0.1876
vn 0.7446 -0.5800 -0.3304
vn 0.9364 0.2967 -0.1876
vn 0.7817 0.5289 -0.3304
vn 0.0071 0.9822 -0.1876
vn -0.2614 0.9069 -0.3304
vn -0.5797 0.4755 -0.6617
vn -0.5760 0.1918 -0.7947
vn -0.7490 -0.0331 -0.6617
vn -0.6314 -0.4044 -0.6617
vn -0.3604 -0.4885 -0.7947
vn -0.2000 -0.7226 -0.6617
vn 0.1895 -0.7254 -0.6617
vn 0.3532 -0.4937 -0.7947
vn 0.6254 -0.4135 -0.6617
vn -0.2629 0.7022 -0.6617
vn 0.0044 0.6071 -0.7946
vn 0.0024 0.3313 -0.9435
vn 0.7485 -0.0440 -0.6617
vn 0.5787 0.1834 -0.7946
vn 0.5865 0.4670 -0.6617
vn -0.0047 -0.6426 -0.7662
vn -0.8334 0.3523 0.4257
vn -0.8138 -0.5812 -0.0000
vn -0.3235 -0.0661 -0.9439
vn -0.6797 0.7335 -0.0000
vn 0.0591 -0.0819 -0.9949
vn 0.0722 0.0873 -0.9936
vn 0.8746 0.4848 -0.0000
vn -0.0774 0.0836 0.9935
vn -0.7651 0.6418 -0.0527
vn -0.6794 0.7338 -0.0000
vn 0.7263 -0.6873 -0.0000
vn 0.9266 0.3760 -0.0000
vn 0.0722 0.0873 0.9936
vn -0.8334 0.3523 -0.4257
vn -0.5966 -0.8025 -0.0000
vn -0.0603 -0.0811 0.9949
vn -0.3523 -0.8334 0.4257
vn 0.8385 0.3402 0.4257
vn 0.8384 0.3402 0.4258
vn -0.7363 -0.6767 -0.0000
vn 0.8334 -0.3523 -0.4257
vn -0.0603 -0.0811 -0.9949
vn 0.8483 -0.5295 -0.0000
vn -0.7350 -0.6779 -0.0171
vn -0.9916 0.1023 -0.0797
vn -0.0163 0.6786 -0.7343
vn -0.0162 0.6787 -0.7343
vn -0.0695 -0.9976 0.0004
vn -0.0696 -0.9976 0.0004
vn 0.8334 -0.3523 0.4257
vn 0.8333 -0.3528 0.4257
vn -0.9209 0.2888 0.2619
vn -0.9162 0.3062 0.2586
vn 0.8026 -0.5966 -0.0000
vn -0.3797 -0.6686 -0.6394
vn -0.3866 -0.6629 -0.6412
vn -0.3865 -0.6629 -0.6412
vn -0.0001 -0.0001 -1.0000
vn -0.0000 -0.0001 -1.0000
vn 0.0061 0.7324 0.6808
vn -0.0031 -0.4196 -0.9077
vn -0.7103 -0.0032 -0.7038
vn -0.7037 0.0018 -0.7105
vn -0.7026 0.0026 -0.7116
vn -0.7178 0.0028 -0.6962
vn 0.0049 0.6787 -0.7344
vn 0.6961 -0.0110 -0.7179
vn 0.7114 -0.0110 -0.7027
vn 0.7039 -0.0051 -0.7102
vn 0.6971 -0.0102 -0.7169
vn -0.0182 -0.5542 -0.8322
vn -0.0084 -0.5496 -0.8354
vn -0.0162 -0.5516 -0.8339
vn -0.0190 -0.5523 -0.8334
vn -0.0113 -0.5626 -0.8267
vn -0.0085 -0.5641 -0.8256
vn -0.0174 -0.5594 -0.8287
vn -0.8895 0.0182 -0.4566
vn 0.0040 0.5524 0.8335
vn 0.0060 0.8191 0.5736
vn -0.0066 0.5407 -0.8412
vn -0.0060 -0.8191 -0.5736
vn -0.0292 -0.4189 -0.9076
vn -0.0292 -0.4189 -0.9075
vn -0.0291 -0.4189 -0.9076
vn -0.3751 0.5988 0.7076
vn -0.3732 0.6028 0.7053
vn 0.0227 0.4193 0.9076
vn 0.0227 0.4193 0.9075
vn 0.3600 -0.6985 -0.6184
vn 0.3790 -0.6847 -0.6226
vn -0.8026 0.5966 -0.0000
vn -0.4097 -0.5362 -0.7380
vn 0.3402 -0.8385 0.4258
vn 0.8385 0.3402 -0.4257
vn 0.8383 0.3405 -0.4258
vn -0.0031 -0.5430 -0.8397
vn 0.3759 -0.9267 -0.0000
vn 0.3759 -0.9266 -0.0000
vn 0.9999 -0.0121 0.0041
vn -0.5848 0.8111 -0.0000
vn -0.9916 0.1022 -0.0797
vn 0.9944 0.0782 -0.0716
vn -0.0042 -0.5736 0.8191
vn 0.9944 0.0782 -0.0717
vn 0.9999 -0.0121 0.0040
vn -1.0000 0.0073 -0.0000
vn 0.8334 -0.3523 -0.4258
vn 0.7071 -0.0051 0.7071
vn -0.0774 0.0836 -0.9935
vn 0.8557 -0.4015 -0.3265
vn 0.3823 0.7169 0.5830
vn 0.3912 0.7037 0.5931
vn 0.4350 0.3395 0.8340
vn -0.0112 0.7984 -0.6021
vn 0.0430 0.8288 -0.5579
vn -0.9446 -0.1707 -0.2803
vn 0.8111 0.5848 -0.0000
vn -0.9438 0.0943 0.3168
vn -0.0127 -0.0071 -0.9999
vn -0.0074 -0.0081 -0.9999
vn -0.0016 -0.0024 -1.0000
vn -0.0100 -0.0023 -0.9999
vn -0.9999 0.0071 0.0148
vn -0.9999 0.0072 0.0149
vn -0.0054 -0.0035 -1.0000
vn -0.0127 -0.0035 -0.9999
vn -0.0073 -1.0000 -0.0002
vn 0.8684 0.2243 -0.4423
vn -0.8111 -0.5848 -0.0000
vn 0.9183 0.1124 0.3797
vn 0.9421 -0.1793 -0.2834
vn 0.3872 0.5266 0.7568
vn -0.9224 -0.2595 -0.2862
vn -0.8821 0.3818 0.2757
vn 0.9147 -0.0993 -0.3917
vn 0.1055 0.7937 -0.5992
vn 0.9274 0.3039 0.2180
vn 0.9454 0.2308 0.2300
vn 0.9455 0.2308 0.2300
vn 0.1314 0.6789 -0.7224
vn 0.2167 0.8452 -0.4886
vn 0.0408 0.8320 -0.5533
vt 0.500000 0.876753
vt 0.375000 0.876753
vt 0.375000 0.702278
vt 0.500000 0.702278
vt 0.875000 0.898543
vt 0.750000 0.876753
vt 0.750000 0.702278
vt 0.875000 0.702278
vt 0.553822 0.750000
vt 0.492993 0.750000
vt 0.491206 0.500000
vt 0.550533 0.500000
vt 0.875000 0.500000
vt 0.851218 0.523783
vt 0.648782 0.523782
vt 0.450642 1.000000
vt 0.467316 1.000000
vt 0.750000 0.490000
vt 0.750000 0.279814
vt 0.728919 0.271081
vt 0.580294 0.419706
vt 0.375000 0.500000
vt 0.375000 0.716132
vt 0.125000 0.712918
vt 0.125000 0.500000
vt 0.625000 0.250000
vt 0.625000 0.500000
vt 0.375000 0.250000
vt 0.250000 0.876753
vt 0.409954 1.000000
vt 0.407684 1.000000
vt 0.125000 0.876753
vt 0.574981 0.250000
vt 0.565571 0.000000
vt 0.562908 0.000000
vt 0.375000 0.718695
vt 0.125000 0.715945
vt 0.919706 0.080294
vt 0.750000 0.010000
vt 0.750000 0.220186
vt 0.771081 0.228919
vt 0.510000 0.250000
vt 0.720186 0.250000
vt 0.728919 0.228919
vt 0.580294 0.080294
vt 0.424358 1.000000
vt 0.426655 1.000000
vt 0.448345 1.000000
vt 0.465046 1.000000
vt 0.250000 0.702278
vt 0.000000 0.000000
vt 0.170314 0.545314
vt 0.170314 0.704686
vt 0.125000 0.750000
vt 1.000000 0.876753
vt 1.000000 0.702278
vt 0.590945 0.784055
vt 0.590945 0.965945
vt 0.409055 0.965945
vt 0.409055 0.784055
vt 0.851218 0.726218
vt 0.875000 0.750000
vt 0.779814 0.250000
vt 0.990000 0.250000
vt 0.875000 0.712918
vt 0.625000 0.716132
vt 0.000000 0.908949
vt 0.625000 0.037082
vt 0.375000 0.037082
vt 0.625000 0.876753
vt 0.125000 0.702278
vt 0.625000 0.702278
vt 0.919706 0.419706
vt 0.771081 0.271081
vt 1.000000 0.000000
vt 1.000000 1.000000
vt 0.000000 1.000000
vt 0.625000 0.750000
vt 0.420314 0.250000
vt 0.415691 0.500000
vt 0.329686 0.545314
vt 0.329686 0.704686
vt 0.415691 0.750000
vt 0.375000 1.000000
vt 0.625000 0.532655
vt 0.375000 0.750000
vt 0.375000 0.532655
vt 0.302008 0.638001
vt 0.302007 0.651003
vt 0.302006 0.677006
vt 0.875000 0.535646
vt 0.000000 0.702278
vt 0.625000 1.000000
vt 0.587917 0.962917
vt 0.412082 0.962917
vt 0.589354 0.285646
vt 0.589354 0.464354
vt 0.410646 0.464354
vt 0.410646 0.285646
vt 0.558936 0.250000
vt 0.181819 0.000000
vt 0.227273 0.078731
vt 0.136365 0.078731
vt 0.272728 0.157461
vt 0.318182 0.078731
vt 0.363637 0.157461
vt 0.909091 0.000000
vt 0.954545 0.078731
vt 0.863636 0.078731
vt 0.727273 0.000000
vt 0.772727 0.078731
vt 0.681818 0.078731
vt 0.545455 0.000000
vt 0.590909 0.078731
vt 0.500000 0.078731
vt 0.318182 0.236191
vt 0.090910 0.157461
vt 0.181819 0.157461
vt 0.136365 0.236191
vt 0.818182 0.157461
vt 0.909091 0.157461
vt 0.863636 0.236191
vt 0.636364 0.157461
vt 0.727273 0.157461
vt 0.681818 0.236191
vt 0.454546 0.157461
vt 0.545455 0.157461
vt 0.500000 0.236191
vt 0.227273 0.236191
vt 0.045455 0.236191
vt 0.772727 0.236191
vt 0.590909 0.236191
vt 0.409092 0.236191
vt 0.954545 0.236191
vt 1.000000 0.157461
vt 0.409092 0.078731
vt 0.363637 0.000000
vt 0.625000 0.000000
vt 0.420314 0.000000
vt 0.875000 0.715945
vt 0.625000 0.718695
vt 0.412082 0.787082
vt 0.587917 0.787082
vt 0.375000 0.219476
vt 0.625000 0.219476
vt 0.375000 0.000000
vt 0.125000 0.535646
vt 0.302009 0.598997
vt 0.197991 0.611997
vt 0.197992 0.625000
vt 0.197992 0.638003
vt 0.197991 0.598995
vt 0.302010 0.572994
vt 0.197990 0.572990
vt 0.197990 0.585992
vt 0.197994 0.677010
vt 0.125000 0.749339
vt 0.197993 0.651005
vt 0.648782 0.726218
vt 0.625000 0.034055
vt 0.375000 0.034055
vt 0.420314 1.000000
vt 0.562624 1.000000
vt 0.565571 1.000000
s 1
usemtl helice.002
f 188/1/1 190/2/1 174/3/1 172/4/1
f 180/5/2 184/6/2 168/7/2 166/8/2
f 144/6/8 140/5/8 139/16/8 143/17/8
f 124/18/9 123/19/9 137/20/9 138/21/9
f 38/29/12 37/30/12 39/31/12 40/32/12
f 98/21/9 84/18/9 83/19/9 97/20/9
f 108/1/1 110/2/1 94/3/1 92/4/1
f 90/38/14 92/39/14 91/40/14 89/41/14
f 136/42/15 135/43/15 133/44/15 134/45/15
f 182/46/16 193/31/16 191/30/16 189/47/16 187/48/16 185/49/16 183/17/16 179/16/16
f 150/2/17 152/29/17 136/50/17 134/3/17
f 92/39/20 94/45/20 93/44/20 91/40/20
f 141/55/21 140/5/21 126/8/21 124/56/21
f 108/1/24 107/48/24 109/47/24 110/2/24
f 181/55/21 180/5/21 166/8/21 164/56/21
f 16/38/25 15/41/25 13/63/25 14/64/25
f 181/67/26 182/46/26 179/16/26 180/5/26
f 30/6/28 29/17/28 31/49/28 32/70/28
f 34/1/1 36/2/1 20/3/1 18/4/1
f 27/67/29 40/32/29 39/31/29 28/46/29
f 101/67/30 114/32/30 113/31/30 102/46/30
f 112/29/31 114/32/31 98/71/31 96/50/31
f 30/6/32 32/70/32 16/72/32 14/7/32
f 124/18/34 126/73/34 125/74/34 123/19/34
f 24/21/36 23/20/36 21/43/36 22/42/36
f 133/44/10 135/43/10 137/20/10 123/19/10 125/74/10 127/63/10 129/41/10 131/40/10
f 20/45/38 22/42/38 21/43/38 19/44/38
f 138/21/39 137/20/39 135/43/39 136/42/39
f 146/70/40 145/49/40 147/48/40 148/1/40
f 90/38/44 89/41/44 87/63/44 88/64/44
f 144/6/32 146/70/32 130/72/32 128/7/32
f 154/32/45 153/31/45 142/46/45 141/67/45
f 154/32/46 152/29/46 151/30/46 153/31/46
f 146/70/47 148/1/47 132/4/47 130/72/47
f 152/29/31 154/32/31 138/71/31 136/50/31
f 26/5/53 30/6/53 14/7/53 12/8/53
f 24/21/54 10/18/54 9/19/54 23/20/54
f 166/73/34 165/74/34 163/19/34 164/18/34
f 128/64/58 127/63/58 125/74/58 126/73/58
f 101/67/26 102/46/26 99/16/26 100/5/26
f 188/1/40 186/70/40 185/49/40 187/48/40
f 184/6/59 180/5/59 179/16/59 183/17/59
f 33/48/16 31/49/16 29/17/16 25/16/16 28/46/16 39/31/16 37/30/16 35/47/16
f 178/21/39 177/20/39 175/43/60 176/42/39
f 140/5/2 144/6/2 128/7/2 126/8/2
f 184/6/32 186/70/32 170/72/32 168/7/32
f 181/67/30 194/32/30 193/31/30 182/46/30
f 192/29/61 190/2/61 189/47/61 191/30/61
f 188/1/24 187/48/24 189/47/24 190/2/24
f 192/29/31 194/32/31 178/71/31 176/50/31
f 93/44/10 95/43/10 97/20/10 83/19/10 85/74/10 87/63/10 89/41/10 91/40/10
f 186/70/62 188/1/62 172/4/62 170/72/62
f 27/55/21 26/5/21 12/8/21 10/56/21
f 23/20/10 9/19/10 11/74/10 13/63/10 15/41/10 17/40/10 19/44/10 21/43/10
f 114/32/63 101/67/63 84/92/63 98/71/63
f 174/45/20 173/44/20 171/40/20 172/39/20
f 102/46/16 113/31/16 111/30/16 109/47/16 107/48/16 105/49/16 103/17/16 99/16/16
f 12/73/65 14/64/65 13/63/65 11/74/65
f 110/2/17 112/29/17 96/50/17 94/3/17
f 144/6/66 143/17/66 145/49/66 146/70/66
f 169/41/10 171/40/10 173/44/10 175/43/10 177/20/10 163/19/10 165/74/10 167/63/10
f 130/38/14 132/39/14 131/40/69 129/41/70
f 38/29/71 40/32/71 24/71/71 22/50/71
f 194/32/73 181/67/73 164/92/73 178/71/73
f 104/6/8 100/5/8 99/16/8 103/17/8
f 84/18/34 86/73/34 85/74/34 83/19/34
f 148/1/1 150/2/1 134/3/1 132/4/1
f 142/46/16 153/31/16 151/30/16 149/47/16 147/48/16 145/49/16 143/17/16 139/16/16
f 27/67/115 28/46/115 25/16/115 26/5/115
f 174/45/15 176/42/15 175/43/15 173/44/15
f 106/70/126 108/1/126 92/4/126 90/72/126
f 12/73/128 11/74/128 9/19/128 10/18/128
f 178/21/9 164/18/9 163/19/9 177/20/9
f 172/39/14 171/40/14 169/41/14 170/38/14
f 194/32/131 192/29/131 191/30/131 193/31/131
f 170/38/25 169/41/25 167/63/25 168/64/25
f 34/1/132 32/70/132 31/49/132 33/48/132
f 108/1/133 106/70/133 105/49/133 107/48/133
f 30/6/8 26/5/8 25/16/8 29/17/8
f 134/45/135 133/44/135 131/40/135 132/39/135
f 184/6/28 183/17/28 185/49/28 186/70/28
f 104/6/66 103/17/66 105/49/66 106/70/66
f 112/29/46 111/30/46 113/31/46 114/32/46
f 130/38/44 129/41/44 127/63/44 128/64/44
f 110/2/61 109/47/61 111/30/61 112/29/61
f 104/6/32 106/70/32 90/72/32 88/7/32
f 100/5/2 104/6/2 88/7/2 86/8/2
f 34/1/144 33/48/145 35/47/145 36/2/144
f 40/32/73 27/67/73 10/92/73 24/71/73
f 154/32/63 141/67/63 124/92/63 138/71/63
f 94/45/15 96/42/15 95/43/15 93/44/15
f 166/73/65 168/64/65 167/63/65 165/74/65
f 101/55/21 100/5/21 86/8/21 84/56/21
f 38/29/188 36/2/188 35/47/188 37/30/188
f 16/38/189 18/39/189 17/40/190 15/41/189
f 190/2/192 192/29/192 176/50/192 174/3/192
f 36/2/193 38/29/193 22/50/193 20/3/193
f 86/73/58 88/64/58 87/63/58 85/74/58
f 148/1/144 147/48/144 149/47/144 150/2/144
f 152/29/188 150/2/188 149/47/188 151/30/188
f 141/67/26 142/46/26 139/16/26 140/5/26
f 98/21/39 97/20/39 95/43/39 96/42/39
f 20/45/202 19/44/202 17/40/202 18/39/202
f 32/70/62 34/1/62 18/4/62 16/72/62
usemtl gris
f 46/75/35 48/76/35 47/77/35 45/51/35
f 49/101/74 56/102/74 55/103/74
f 50/104/75 56/105/75 58/106/75
f 49/107/76 55/108/76 60/109/76
f 49/110/77 60/111/77 62/112/77
f 49/113/78 62/114/78 59/115/78
f 50/104/79 58/106/79 65/116/79
f 51/117/80 57/118/80 67/119/80
f 52/120/81 61/121/81 69/122/81
f 53/123/82 63/124/82 71/125/82
f 54/126/83 64/127/83 73/128/83
f 50/104/84 65/116/84 68/129/84
f 51/117/85 67/119/85 70/130/85
f 52/120/86 69/122/86 72/131/86
f 53/123/87 71/125/87 74/132/87
f 54/126/88 73/128/88 66/133/88
f 73/128/89 64/127/89 74/132/89
f 64/127/90 53/123/90 74/132/90
f 71/125/91 63/124/91 72/131/91
f 63/124/92 52/120/92 72/131/92
f 69/122/93 61/121/93 70/134/93
f 61/121/94 51/135/94 70/134/94
f 67/119/95 57/118/95 68/129/95
f 57/118/96 50/104/96 68/129/96
f 65/116/97 58/106/97 66/133/97
f 58/106/98 54/126/98 66/133/98
f 59/115/99 64/127/99 54/126/99
f 59/115/100 62/114/100 64/127/100
f 62/114/101 53/123/101 64/127/101
f 62/112/102 63/124/102 53/123/102
f 62/112/103 60/111/103 63/124/103
f 60/111/104 52/120/104 63/124/104
f 60/109/105 61/121/105 52/120/105
f 60/109/106 55/108/106 61/121/106
f 55/108/107 51/135/107 61/121/107
f 58/106/108 59/136/108 54/126/108
f 58/106/109 56/105/109 59/136/109
f 56/105/110 49/137/110 59/136/110
f 55/103/111 57/118/111 51/117/111
f 55/103/112 56/102/112 57/118/112
f 56/102/113 50/104/113 57/118/113
f 41/51/174 45/51/174 47/77/174 43/77/174
f 44/76/176 48/76/176 46/75/176 42/75/176
f 41/51/72 42/75/72 46/75/72 45/51/72
f 43/77/198 44/76/198 42/75/198 41/51/198
f 43/77/201 47/77/201 48/76/201 44/76/201
usemtl amarillo
f 279/9/3 272/10/4 274/11/5 281/12/3
f 221/22/10 228/23/10 224/24/10 219/25/10
f 220/26/11 222/27/11 221/22/11 219/28/11
f 270/33/13 268/34/13 275/35/13
f 245/22/10 252/36/10 248/37/10 243/25/10
f 205/57/22 201/58/22 199/59/22 203/60/22
f 220/13/16 226/65/16 230/66/16 222/27/16
f 226/68/27 220/26/27 219/28/27 224/69/27
f 244/26/33 246/27/33 245/22/33 243/28/33
f 204/36/48 203/60/48 199/59/48 200/84/48
f 241/85/49 234/78/49 233/86/49 240/87/49
f 287/88/55 284/89/56 271/90/57
f 238/91/16 232/62/16 234/78/16 241/85/16
f 249/58/64 250/93/64 248/84/64 247/59/64
f 225/94/67 226/93/67 224/84/67 223/95/67
f 237/96/68 242/97/68 239/98/68 235/99/68
f 270/100/72 281/12/72 274/11/72
f 246/27/16 244/13/16 250/140/16 254/141/16
f 196/13/10 202/140/10 206/141/10 198/27/10
f 227/142/116 228/23/116 230/66/116 229/143/116
f 229/143/118 225/94/118 223/95/118 227/142/118
f 206/141/119 202/93/119 201/58/119 205/57/119
f 240/87/120 236/144/120 235/99/120 239/98/120
f 201/58/121 202/93/121 200/84/121 199/59/121
f 226/93/122 225/94/122 229/143/122 230/66/122
f 232/138/123 238/145/123 236/144/123 231/146/123
f 235/99/124 236/144/124 238/145/124 237/96/124
f 251/60/125 252/36/125 254/141/125 253/57/125
f 241/85/127 242/97/127 237/96/127 238/145/127
f 236/147/10 240/87/10 233/86/10 231/54/10
f 253/57/129 249/58/129 247/59/129 251/60/129
f 250/93/130 249/58/130 253/57/130 254/141/130
f 203/60/134 204/36/134 206/141/134 205/57/134
f 248/84/136 252/36/136 251/60/136 247/59/136
f 240/87/137 239/98/137 242/97/137 241/85/137
f 222/27/138 230/66/138 228/23/138 221/22/138
f 284/89/140 287/88/140 285/148/141
f 271/90/142 284/89/142 285/148/143
f 246/27/148 254/141/148 252/36/148 245/22/148
f 289/149/152 282/150/10 288/151/153
f 286/152/155 289/149/155 288/151/155
f 290/155/160 286/152/160 288/151/160
f 283/158/10 288/151/153 282/150/10
f 283/158/177 282/150/178 289/149/179
f 283/158/182 289/149/182 286/152/183
f 250/160/186 244/26/186 243/28/186 248/161/186
f 234/78/187 232/93/187 231/84/187 233/86/187
f 196/26/195 198/27/195 197/22/195 195/28/195
f 197/22/16 204/36/16 200/37/16 195/25/16
f 279/9/201 275/163/201 268/164/201 272/10/201
f 224/84/204 228/23/204 227/142/204 223/95/204
f 202/160/212 196/26/212 195/28/212 200/161/212
f 287/88/214 271/90/215 267/156/216 283/158/217 286/152/218 290/155/219 269/154/220 273/153/221 285/148/222
f 198/27/224 206/141/224 204/36/224 197/22/224
usemtl helice.001
f 261/52/19 259/53/19 260/54/19 262/25/19
f 208/13/37 207/62/37 209/78/37 210/27/37
f 214/79/41 208/26/41 210/27/41 218/80/41
f 261/52/42 265/81/42 263/82/42 259/53/42
f 266/80/43 258/27/43 257/78/43 264/83/43
f 255/138/114 256/26/114 262/79/114 260/139/114
f 213/52/139 214/25/139 218/80/139 217/81/139
f 217/81/154 218/80/154 216/83/154 215/82/154
f 213/52/191 211/53/191 212/54/191 214/25/191
f 213/52/42 217/81/42 215/82/42 211/53/42
f 265/81/154 266/80/154 264/83/154 263/82/154
f 256/13/37 255/62/37 257/78/37 258/27/37
f 209/78/194 207/93/194 212/162/194 216/83/194
f 218/80/43 210/27/43 209/78/43 216/83/43
f 207/138/114 208/26/114 214/79/114 212/139/114
f 261/52/196 262/25/196 266/80/196 265/81/196
f 211/53/197 215/82/197 216/83/197 212/54/197
f 259/53/199 263/82/199 264/83/199 260/54/199
f 257/78/200 255/93/200 260/162/200 264/83/200
f 262/79/41 256/26/41 258/27/41 266/80/41
usemtl techo_Dron
f 281/12/6 270/13/7 277/14/6 280/15/7
f 276/61/23 277/14/23 270/13/23 275/62/23
f 270/25/156 274/11/157 273/153/158 269/154/159
f 267/156/161 271/90/162 272/10/163 268/157/164
f 288/151/165 283/158/166 267/156/167 268/157/168 270/25/169 269/154/170 290/155/171
f 279/9/173 281/12/173 280/15/173 278/159/173
f 285/148/175 273/153/175 274/11/5 272/10/4 271/90/175
f 277/14/16 276/61/16 278/159/16 280/15/16
f 279/9/203 278/159/203 276/61/203 275/62/203
usemtl Material.001
f 294/51/18 293/51/18 309/51/18 310/51/18
f 297/51/50 313/51/51 314/51/50 298/51/52
f 292/51/117 307/51/117 309/51/117 293/51/117
f 295/51/146 303/51/146 302/51/147 294/51/147
f 297/51/149 305/51/149 304/51/150 296/51/151
f 291/51/172 308/51/172 307/51/172 292/51/172
f 294/51/180 302/51/180 301/51/181 293/51/181
f 297/51/184 298/51/184 306/51/185 305/51/185
f 298/51/205 300/51/205 306/51/205
f 297/51/206 296/51/206 312/51/207 313/51/207
f 292/51/208 301/51/208 299/51/208
f 296/51/211 303/51/211 295/51/211
f 298/51/213 308/51/213 291/51/213
f 295/51/223 310/51/223 311/51/223
f 291/51/225 292/51/225 299/51/225 300/51/225
f 298/51/226 291/51/226 300/51/226
f 292/51/227 293/51/227 301/51/227
f 296/51/228 304/51/228 303/51/228
f 298/51/229 314/51/229 308/51/229
f 295/51/230 294/51/230 310/51/230
f 296/51/232 295/51/232 311/51/233 312/51/234
usemtl Material.034
f 308/51/209 313/51/209 309/51/210 307/51/210
f 313/51/231 311/51/231 309/51/231
f 308/51/235 314/51/235 313/51/235
f 313/51/236 312/51/236 311/51/236
f 311/51/237 310/51/237 309/51/237
l 2 26
l 1 27
l 3 30
l 4 32
l 5 34
l 6 36
l 7 38
l 8 40
l 76 100
l 75 101
l 77 104
l 78 106
l 79 108
l 80 110
l 81 112
l 82 114
l 116 140
l 115 141
l 117 144
l 118 146
l 119 148
l 120 150
l 121 152
l 122 154
l 156 180
l 155 181
l 157 184
l 158 186
l 159 188
l 160 190
l 161 192
l 162 194
