# Blender 4.5.3 LTS
# www.blender.org
mtllib VoladorINMOVIL.mtl
o Cylinder.081
v -0.386911 0.488809 0.029007
v -0.380581 0.503783 0.029007
v -0.365517 0.509895 0.029007
v -0.350543 0.503565 0.029007
v -0.344431 0.488500 0.029007
v -0.350761 0.473526 0.029007
v -0.365826 0.467414 0.029007
v -0.380799 0.473745 0.029007
v -0.368310 0.488674 -0.061278
v -0.386911 0.488809 -0.024753
v -0.367523 0.490534 -0.061278
v -0.380581 0.503783 -0.024753
v -0.365652 0.491293 -0.061278
v -0.365517 0.509895 -0.024753
v -0.363792 0.490507 -0.061278
v -0.350543 0.503565 -0.024753
v -0.363032 0.488636 -0.061278
v -0.344431 0.488500 -0.024753
v -0.363819 0.486776 -0.061278
v -0.350761 0.473526 -0.024753
v -0.365690 0.486016 -0.061278
v -0.365826 0.467414 -0.024753
v -0.367550 0.486803 -0.061278
v -0.380799 0.473745 -0.024753
v -0.367090 0.490095 0.089424
v -0.380581 0.503783 0.051687
v -0.386911 0.488809 0.051687
v -0.367693 0.488670 0.089424
v -0.365656 0.490676 0.089424
v -0.365517 0.509895 0.051687
v -0.364231 0.490074 0.089424
v -0.350543 0.503565 0.051687
v -0.363649 0.488640 0.089424
v -0.344431 0.488500 0.051687
v -0.364252 0.487215 0.089424
v -0.350761 0.473526 0.051687
v -0.365686 0.486633 0.089424
v -0.365826 0.467414 0.051687
v -0.367111 0.487236 0.089424
v -0.380799 0.473745 0.051687
v 0.065293 0.286862 -0.026524
v 0.064477 0.174665 -0.105088
v -0.071841 0.287859 -0.026524
v -0.072657 0.175662 -0.105088
v 0.065330 0.291845 -0.033641
v 0.064513 0.179648 -0.112204
v -0.071805 0.292842 -0.033641
v -0.072621 0.180645 -0.112204
v -0.005592 -0.031349 -0.230297
v 0.045433 0.037818 -0.177176
v 0.075958 -0.058504 -0.177176
v -0.006217 -0.117299 -0.177175
v -0.087528 -0.057314 -0.177176
v -0.055606 0.038553 -0.177176
v 0.042341 -0.047310 -0.215945
v 0.024400 0.009306 -0.215945
v 0.072333 -0.006655 -0.184721
v -0.004998 0.050393 -0.184721
v -0.034989 0.009738 -0.215945
v -0.005960 -0.081869 -0.215945
v 0.041974 -0.097830 -0.184721
v -0.053753 -0.046611 -0.215945
v -0.054120 -0.097131 -0.184721
v -0.083150 -0.005524 -0.184721
v 0.024767 0.059826 -0.134199
v -0.034622 0.060258 -0.134199
v 0.090503 -0.032049 -0.134199
v 0.072561 0.024568 -0.134199
v 0.023438 -0.122957 -0.134199
v 0.071739 -0.088398 -0.134199
v -0.083745 -0.087267 -0.134199
v -0.035951 -0.122525 -0.134199
v -0.082924 0.025699 -0.134199
v -0.101687 -0.030650 -0.134199
v 0.352490 -0.563860 0.029007
v 0.358820 -0.548886 0.029007
v 0.373885 -0.542774 0.029007
v 0.388859 -0.549105 0.029007
v 0.394971 -0.564169 0.029007
v 0.388640 -0.579143 0.029007
v 0.373576 -0.585255 0.029007
v 0.358602 -0.578925 0.029007
v 0.371092 -0.563996 -0.061278
v 0.352490 -0.563860 -0.024753
v 0.371878 -0.562136 -0.061278
v 0.358820 -0.548886 -0.024753
v 0.373750 -0.561376 -0.061278
v 0.373885 -0.542774 -0.024753
v 0.375610 -0.562163 -0.061278
v 0.388859 -0.549105 -0.024753
v 0.376369 -0.564034 -0.061278
v 0.394971 -0.564169 -0.024753
v 0.375582 -0.565894 -0.061278
v 0.388640 -0.579143 -0.024753
v 0.373711 -0.566653 -0.061278
v 0.373576 -0.585255 -0.024753
v 0.371851 -0.565867 -0.061278
v 0.358602 -0.578925 -0.024753
v 0.372311 -0.562575 0.089424
v 0.358820 -0.548886 0.051687
v 0.352490 -0.563860 0.051687
v 0.371709 -0.564000 0.089424
v 0.373745 -0.561993 0.089424
v 0.373885 -0.542774 0.051687
v 0.375170 -0.562596 0.089424
v 0.388859 -0.549105 0.051687
v 0.375752 -0.564029 0.089424
v 0.394971 -0.564169 0.051687
v 0.375149 -0.565455 0.089424
v 0.388640 -0.579143 0.051687
v 0.373716 -0.566036 0.089424
v 0.373576 -0.585255 0.051687
v 0.372291 -0.565434 0.089424
v 0.358602 -0.578925 0.051687
v -0.414303 -0.558279 0.029007
v -0.407973 -0.543305 0.029007
v -0.392908 -0.537193 0.029007
v -0.377934 -0.543524 0.029007
v -0.371823 -0.558588 0.029007
v -0.378153 -0.573562 0.029007
v -0.393217 -0.579674 0.029007
v -0.408191 -0.573344 0.029007
v -0.395701 -0.558415 -0.061278
v -0.414303 -0.558279 -0.024753
v -0.394915 -0.556555 -0.061278
v -0.407973 -0.543305 -0.024753
v -0.393044 -0.555795 -0.061278
v -0.392908 -0.537193 -0.024753
v -0.391184 -0.556582 -0.061278
v -0.377934 -0.543524 -0.024753
v -0.390424 -0.558453 -0.061278
v -0.371823 -0.558588 -0.024753
v -0.391211 -0.560313 -0.061278
v -0.378153 -0.573562 -0.024753
v -0.393082 -0.561072 -0.061278
v -0.393217 -0.579674 -0.024753
v -0.394942 -0.560286 -0.061278
v -0.408191 -0.573344 -0.024753
v -0.394482 -0.556994 0.089424
v -0.407973 -0.543305 0.051687
v -0.414303 -0.558279 0.051687
v -0.395084 -0.558419 0.089424
v -0.393048 -0.556412 0.089424
v -0.392908 -0.537193 0.051687
v -0.391623 -0.557015 0.089424
v -0.377934 -0.543524 0.051687
v -0.391041 -0.558449 0.089424
v -0.371823 -0.558588 0.051687
v -0.391644 -0.559874 0.089424
v -0.378153 -0.573562 0.051687
v -0.393078 -0.560455 0.089424
v -0.393217 -0.579674 0.051687
v -0.394503 -0.559853 0.089424
v -0.408191 -0.573344 0.051687
v 0.346133 0.483476 0.029007
v 0.352463 0.498450 0.029007
v 0.367528 0.504562 0.029007
v 0.382502 0.498232 0.029007
v 0.388614 0.483167 0.029007
v 0.382283 0.468193 0.029007
v 0.367219 0.462082 0.029007
v 0.352245 0.468412 0.029007
v 0.364735 0.483341 -0.061278
v 0.346133 0.483476 -0.024753
v 0.365521 0.485201 -0.061278
v 0.352463 0.498450 -0.024753
v 0.367392 0.485960 -0.061278
v 0.367528 0.504562 -0.024753
v 0.369253 0.485174 -0.061278
v 0.382502 0.498232 -0.024753
v 0.370012 0.483303 -0.061278
v 0.388614 0.483167 -0.024753
v 0.369225 0.481443 -0.061278
v 0.382283 0.468193 -0.024753
v 0.367354 0.480683 -0.061278
v 0.367219 0.462082 -0.024753
v 0.365494 0.481470 -0.061278
v 0.352245 0.468412 -0.024753
v 0.365954 0.484762 0.089424
v 0.352463 0.498450 0.051687
v 0.346133 0.483476 0.051687
v 0.365352 0.483337 0.089424
v 0.367388 0.485343 0.089424
v 0.367528 0.504562 0.051687
v 0.368813 0.484741 0.089424
v 0.382502 0.498232 0.051687
v 0.369395 0.483307 0.089424
v 0.388614 0.483167 0.051687
v 0.368792 0.481882 0.089424
v 0.382283 0.468193 0.051687
v 0.367359 0.481300 0.089424
v 0.367219 0.462082 0.051687
v 0.365933 0.481903 0.089424
v 0.352245 0.468412 0.051687
v -0.146329 0.141631 -0.080437
v -0.146329 0.141631 -0.036134
v -0.104171 0.172027 -0.080437
v -0.104171 0.172027 -0.036134
v -0.395739 0.499655 -0.074402
v -0.366724 0.447307 -0.080437
v -0.395739 0.499655 -0.042169
v -0.366724 0.447307 -0.036134
v -0.365067 0.521770 -0.074402
v -0.324566 0.477704 -0.080437
v -0.365067 0.521770 -0.042169
v -0.324566 0.477704 -0.036134
v 0.042941 -0.020254 -0.205871
v 0.023167 -0.020014 -0.205951
v 0.043038 -0.006904 -0.189955
v 0.023264 -0.006664 -0.190035
v 0.041358 0.109950 -0.310157
v 0.044565 0.084333 -0.293604
v 0.028751 0.110102 -0.310208
v 0.024790 0.084572 -0.293685
v 0.041420 0.118460 -0.300010
v 0.044662 0.097683 -0.277688
v 0.028813 0.118613 -0.300061
v 0.024887 0.097922 -0.277768
v 0.110465 -0.314648 -0.036134
v 0.110465 -0.314648 -0.080437
v 0.146701 -0.281071 -0.036134
v 0.146701 -0.281071 -0.080437
v 0.378452 -0.593077 -0.042706
v 0.334123 -0.556020 -0.036134
v 0.378452 -0.593077 -0.073866
v 0.334123 -0.556020 -0.080437
v 0.403938 -0.569461 -0.042706
v 0.370360 -0.522442 -0.036134
v 0.403938 -0.569461 -0.073866
v 0.370360 -0.522442 -0.080437
v -0.142674 -0.298192 -0.036134
v -0.142674 -0.298192 -0.080437
v -0.182700 -0.265092 -0.036134
v -0.182700 -0.265092 -0.080437
v -0.395971 -0.592868 -0.042451
v -0.354962 -0.554899 -0.036134
v -0.395971 -0.592868 -0.074120
v -0.354962 -0.554899 -0.080437
v -0.424583 -0.569207 -0.042451
v -0.394988 -0.521798 -0.036134
v -0.394988 -0.521798 -0.080437
v -0.424583 -0.569207 -0.074120
v 0.145722 0.144905 -0.036134
v 0.145722 0.144905 -0.080437
v 0.104011 0.175912 -0.036134
v 0.104011 0.175912 -0.080437
v 0.400314 0.499263 -0.042169
v 0.370541 0.447344 -0.036134
v 0.400314 0.499263 -0.074402
v 0.370541 0.447344 -0.080437
v 0.369967 0.521822 -0.042169
v 0.328830 0.478350 -0.036134
v 0.369967 0.521822 -0.074402
v 0.328830 0.478350 -0.080437
v -0.036684 -0.016868 -0.210738
v -0.055672 -0.016638 -0.210815
v -0.036590 -0.004049 -0.195455
v -0.055579 -0.003819 -0.195532
v -0.038204 0.108158 -0.310877
v -0.035125 0.083560 -0.294983
v -0.050309 0.108305 -0.310926
v -0.054113 0.083790 -0.295060
v -0.038145 0.116330 -0.301134
v -0.035031 0.096379 -0.279700
v -0.050250 0.116477 -0.301183
v -0.054020 0.096609 -0.279777
v 0.091011 -0.179398 -0.139762
v 0.226563 -0.387219 -0.005139
v -0.104339 -0.178010 -0.138712
v -0.242899 -0.383804 0.003323
v 0.093132 0.115278 -0.142233
v 0.231715 0.321105 -0.005140
v -0.102172 0.116732 -0.139762
v -0.237747 0.324520 -0.005139
v 0.226563 -0.387219 -0.007049
v 0.182393 -0.319511 0.037613
v -0.197749 -0.316746 0.037613
v -0.242899 -0.383804 -0.007049
v 0.186565 0.254047 0.037613
v 0.231715 0.321105 -0.007049
v -0.193577 0.256812 0.037613
v -0.237747 0.324520 -0.007049
v -0.006664 -0.178704 -0.139237
v -0.008168 -0.385512 -0.000908
v -0.004520 0.116005 -0.140998
v -0.003016 0.322813 -0.005139
v -0.007678 -0.318129 0.037613
v -0.008168 -0.385512 -0.007049
v -0.003506 0.255430 0.037613
v -0.003016 0.322813 -0.007049
v 0.042173 -0.179051 -0.139500
v 0.114349 0.321959 -0.005139
v 0.109197 -0.386365 -0.007049
v 0.091529 0.254738 0.037613
v 0.109197 -0.386365 -0.003024
v 0.044306 0.115641 -0.141615
v 0.087357 -0.318820 0.037613
v 0.114349 0.321959 -0.007049
v -0.125534 -0.384658 0.001207
v -0.053346 0.116369 -0.140380
v -0.102714 -0.317437 0.037613
v -0.120381 0.323666 -0.007049
v -0.055501 -0.178357 -0.138974
v -0.120381 0.323666 -0.005139
v -0.125534 -0.384658 -0.007049
v -0.098542 0.256121 0.037613
v 0.050514 -0.385938 -0.001966
v 0.019893 0.115823 -0.141306
v 0.039840 -0.318474 0.037613
v 0.055667 0.322386 -0.007049
v 0.017755 -0.178877 -0.139368
v 0.055667 0.322386 -0.005139
v 0.050514 -0.385938 -0.007049
v 0.044012 0.255084 0.037613
v -0.031083 -0.178530 -0.139106
v -0.061699 0.323239 -0.005139
v -0.066851 -0.385085 -0.007049
v -0.051024 0.255775 0.037613
v -0.066851 -0.385085 0.000149
v -0.028933 0.116187 -0.140689
v -0.055196 -0.317783 0.037613
v -0.061699 0.323239 -0.007049
v -0.184217 -0.384231 0.002265
v -0.077759 0.116550 -0.140071
v -0.150232 -0.317092 0.037613
v -0.179064 0.324093 -0.007049
v -0.079920 -0.178184 -0.138843
v -0.179064 0.324093 -0.005139
v -0.184217 -0.384231 -0.007049
v -0.146059 0.256467 0.037613
v 0.066592 -0.179224 -0.139631
v 0.173032 0.321532 -0.005140
v 0.167880 -0.386792 -0.007049
v 0.139047 0.254393 0.037613
v 0.167880 -0.386792 -0.004081
v 0.068719 0.115460 -0.141924
v 0.134875 -0.319166 0.037613
v 0.173032 0.321532 -0.007049
v 0.204478 -0.353365 0.015282
v -0.220324 -0.350275 0.015282
v -0.215662 0.290666 0.015282
v 0.209140 0.287576 0.015282
v -0.003261 0.289121 0.015282
v -0.007923 -0.351820 0.015282
v 0.098277 -0.352593 0.015282
v 0.102939 0.288349 0.015282
v -0.109462 0.289894 0.015282
v -0.114124 -0.351048 0.015282
v 0.049839 0.288735 0.015282
v 0.045177 -0.352206 0.015282
v -0.061024 -0.351434 0.015282
v -0.056361 0.289507 0.015282
v -0.162562 0.290280 0.015282
v -0.167224 -0.350661 0.015282
v 0.151377 -0.352979 0.015282
v 0.156040 0.287962 0.015282
v -0.103256 -0.030639 -0.139237
v -0.240323 -0.029642 -0.000908
v 0.092071 -0.032060 -0.140998
v 0.229139 -0.033057 -0.005139
v -0.195663 -0.029967 0.037613
v -0.240323 -0.029642 -0.007049
v 0.184479 -0.032732 0.037613
v 0.229139 -0.033057 -0.007049
v 0.089443 -0.032041 0.037613
v -0.100628 -0.030658 0.037613
v 0.041926 -0.031695 0.037613
v -0.053110 -0.031004 0.037613
v 0.206809 -0.032894 0.015282
v -0.217993 -0.029804 0.015282
v 0.042969 0.111694 0.037613
v -0.194620 0.113423 0.037613
v 0.046181 0.261304 -0.092877
v 0.029353 0.284874 -0.059156
v -0.011606 0.295928 -0.045891
v -0.052704 0.287991 -0.060852
v -0.069865 0.265712 -0.095275
v -0.053037 0.246754 -0.140436
v -0.012078 0.235699 -0.153702
v 0.029020 0.243637 -0.138741
v 0.027276 0.249456 -0.043653
v 0.044104 0.225886 -0.077374
v -0.013517 0.283396 -0.036192
v -0.054650 0.270631 -0.047193
v -0.071890 0.237477 -0.071263
v -0.055139 0.203353 -0.094303
v -0.014209 0.188250 -0.102816
v 0.026924 0.201014 -0.091815
v 0.028368 0.270492 -0.057811
v 0.045196 0.246921 -0.091532
v -0.012592 0.281546 -0.044546
v -0.053689 0.273609 -0.059507
v -0.065455 0.251290 -0.093931
v -0.053991 0.232185 -0.121893
v -0.013063 0.216705 -0.130519
v 0.028034 0.224642 -0.115588
vn -0.8334 0.3523 -0.4258
vn -0.3402 0.8385 -0.4258
vn 0.3523 0.8334 -0.4258
vn 0.8385 0.3402 -0.4258
vn 0.8334 -0.3523 -0.4258
vn 0.3402 -0.8385 -0.4258
vn -0.3523 -0.8334 -0.4258
vn -0.8385 -0.3402 -0.4258
vn -0.0000 -0.0000 -1.0000
vn -0.8334 0.3523 0.4258
vn -0.3402 0.8385 0.4258
vn 0.3523 0.8334 0.4258
vn 0.8385 0.3402 0.4258
vn 0.8334 -0.3523 0.4258
vn 0.3402 -0.8385 0.4258
vn -0.3523 -0.8334 0.4258
vn -0.8385 -0.3402 0.4258
vn -0.9211 0.3894 -0.0000
vn -0.0000 -0.0000 1.0000
vn -0.3760 0.9266 -0.0000
vn -0.9266 -0.3760 -0.0000
vn 0.3894 0.9211 -0.0000
vn 0.9266 0.3760 -0.0000
vn 0.9211 -0.3894 -0.0000
vn 0.3760 -0.9266 -0.0000
vn -0.3894 -0.9211 -0.0000
vn -0.0042 -0.5736 0.8192
vn 0.0042 0.5736 -0.8192
vn -1.0000 0.0073 -0.0000
vn 1.0000 -0.0073 -0.0000
vn -0.0060 -0.8191 -0.5736
vn 0.0060 0.8191 0.5736
vn 0.3158 0.1001 -0.9435
vn 0.2731 0.6983 -0.6617
vn 0.1928 -0.2694 -0.9435
vn -0.1967 -0.2666 -0.9435
vn -0.3143 0.1047 -0.9435
vn 0.2746 0.9030 -0.3304
vn 0.9437 0.0179 -0.3304
vn 0.3086 -0.8920 -0.3304
vn -0.7529 -0.5691 -0.3304
vn -0.7740 0.5402 -0.3304
vn 0.5889 0.7983 -0.1256
vn 0.9413 -0.3134 -0.1256
vn -0.0072 -0.9921 -0.1256
vn -0.9457 -0.2997 -0.1256
vn -0.5773 0.8068 -0.1256
vn -0.9319 0.3103 -0.1876
vn -0.9433 0.0316 -0.3304
vn -0.5831 -0.7904 -0.1876
vn -0.3216 -0.8874 -0.3304
vn 0.5716 -0.7988 -0.1876
vn 0.7446 -0.5800 -0.3304
vn 0.9364 0.2967 -0.1876
vn 0.7817 0.5289 -0.3304
vn 0.0071 0.9822 -0.1876
vn -0.2614 0.9069 -0.3304
vn -0.5797 0.4755 -0.6617
vn -0.5760 0.1918 -0.7947
vn -0.7490 -0.0331 -0.6617
vn -0.6314 -0.4044 -0.6617
vn -0.3604 -0.4885 -0.7947
vn -0.2000 -0.7226 -0.6617
vn 0.1895 -0.7254 -0.6617
vn 0.3532 -0.4937 -0.7947
vn 0.6254 -0.4135 -0.6617
vn -0.2629 0.7022 -0.6617
vn 0.0044 0.6070 -0.7947
vn 0.0024 0.3313 -0.9435
vn 0.7485 -0.0440 -0.6617
vn 0.5787 0.1834 -0.7947
vn 0.5865 0.4670 -0.6617
vn -0.8334 0.3523 -0.4257
vn -0.3402 0.8384 -0.4257
vn 0.8334 -0.3524 -0.4258
vn 0.3402 -0.8384 -0.4258
vn -0.8384 -0.3402 -0.4258
vn -0.3401 0.8385 0.4257
vn -0.8334 0.3524 -0.4258
vn 0.8384 0.3402 -0.4258
vn -0.3401 0.8385 0.4258
vn 0.3401 -0.8385 0.4258
vn 0.3402 -0.8385 0.4257
vn -0.5848 0.8111 -0.0000
vn 0.8746 0.4848 -0.0000
vn -0.7363 -0.6767 -0.0000
vn 0.0591 -0.0819 0.9949
vn 0.0591 -0.0819 -0.9949
vn 0.8111 0.5848 -0.0000
vn 0.5848 -0.8111 -0.0000
vn -0.8111 -0.5848 -0.0000
vn -0.0119 -0.7661 0.6426
vn -0.0032 -0.5430 -0.8397
vn -0.9916 0.1023 -0.0797
vn 0.0061 0.7324 0.6808
vn 0.9944 0.0782 -0.0717
vn 0.0119 0.7661 -0.6426
vn -0.0047 -0.6426 -0.7662
vn 0.9999 -0.0121 0.0041
vn -0.9999 0.0121 -0.0041
vn 0.0047 0.6426 0.7662
vn 0.6797 -0.7335 -0.0000
vn 0.6414 0.7672 -0.0000
vn -0.8138 -0.5812 -0.0000
vn -0.0774 0.0836 -0.9935
vn -0.0774 0.0836 0.9935
vn 0.7335 0.6797 -0.0000
vn -0.6797 0.7335 -0.0000
vn -0.7335 -0.6797 -0.0000
vn -0.6373 -0.7706 -0.0000
vn -0.6794 0.7338 -0.0000
vn 0.0722 0.0873 -0.9936
vn 0.0722 0.0873 0.9936
vn 0.8483 -0.5295 -0.0000
vn -0.7706 0.6373 -0.0000
vn 0.6373 0.7706 -0.0000
vn 0.7706 -0.6373 -0.0000
vn 0.5966 0.8026 -0.0000
vn -0.8675 0.4975 -0.0000
vn 0.7263 -0.6873 -0.0000
vn -0.0603 -0.0811 -0.9949
vn -0.0603 -0.0811 0.9949
vn -0.8026 0.5966 -0.0000
vn -0.5966 -0.8026 -0.0000
vn 0.8026 -0.5966 -0.0000
vn 0.0040 0.5525 -0.8335
vn -0.0190 -0.5584 -0.8294
vn -0.7103 -0.0032 -0.7038
vn 0.7071 -0.0051 0.7071
vn 0.0073 1.0000 -0.0000
vn -0.0073 -1.0000 -0.0000
vn -0.0040 -0.5524 0.8335
vn 0.0040 0.5524 0.8335
vn 0.7039 -0.0051 -0.7102
vn -0.0098 -0.0049 -0.9999
vn -0.7071 0.0051 0.7071
vn -0.8895 0.0183 -0.4566
vn 0.8557 -0.4015 -0.3265
vn -0.3866 -0.6629 -0.6412
vn -0.9162 0.3062 0.2586
vn 0.4350 0.3395 0.8340
vn 0.3790 -0.6847 -0.6226
vn -0.9446 -0.1707 -0.2803
vn -0.3732 0.6027 0.7053
vn 0.9183 0.1123 0.3797
vn 0.1055 0.7937 -0.5992
vn -0.9438 0.0943 0.3168
vn 0.3912 0.7037 0.5932
vn 0.8684 0.2243 -0.4422
vn -0.3235 -0.0661 -0.9439
vn -0.3537 0.7305 0.5842
vn 0.9454 0.2308 0.2299
vn 0.3589 -0.1112 -0.9267
vn 0.3524 0.8334 -0.4258
vn -0.3524 -0.8334 -0.4257
vn 0.3523 0.8334 0.4257
vn 0.3401 -0.8385 0.4257
vn -0.3522 -0.8335 0.4258
vn 0.8334 -0.3523 -0.4257
vn 0.3402 -0.8384 -0.4257
vn -0.8385 -0.3402 -0.4257
vn 0.8385 0.3402 0.4257
vn -0.8385 -0.3402 0.4257
vn 0.0155 0.6788 0.7342
vn 0.0110 -0.8113 -0.5845
vn -0.0031 -0.4194 -0.9078
vn -0.0163 0.6787 -0.7343
vn -0.0066 0.5407 -0.8412
vn -0.0696 -0.9976 0.0005
vn 0.0072 1.0000 -0.0000
vn -0.0190 -0.5523 -0.8334
vn 0.4537 0.8912 -0.0000
vn 0.5486 -0.8361 -0.0000
vn -0.0084 -0.5496 -0.8354
vn -0.0190 -0.5549 -0.8317
vn -0.0031 -0.4197 -0.9077
vn -0.0084 -0.5641 -0.8256
vn 0.0049 0.6787 -0.7344
vn 0.2355 -0.9719 -0.0000
vn -0.0084 -0.5580 -0.8298
vn -0.7026 0.0026 -0.7116
vn -0.7178 0.0028 -0.6962
vn 0.6961 -0.0110 -0.7179
vn 0.7115 -0.0110 -0.7027
vn -0.2341 -0.0018 0.9722
vn -0.0054 -0.0083 -1.0000
vn 0.0031 0.4194 -0.9078
vn -0.0127 -0.0077 -0.9999
vn -0.0054 -0.0077 -1.0000
vn -0.0127 -0.0071 -0.9999
vn -0.0292 -0.4188 -0.9076
vn -0.9999 0.0073 0.0147
vn 0.0227 0.4192 0.9076
vn -0.0127 -0.0035 -0.9999
vn -0.0054 -0.0035 -1.0000
vn -0.0054 -0.0053 -1.0000
vn 0.9421 -0.1793 -0.2834
vn -0.3797 -0.6686 -0.6394
vn -0.9209 0.2888 0.2619
vn 0.3872 0.5266 0.7568
vn 0.3600 -0.6985 -0.6184
vn -0.9224 -0.2595 -0.2862
vn -0.3751 0.5988 0.7076
vn 0.0430 0.8288 -0.5579
vn 0.1314 0.6788 -0.7224
vn 0.2167 0.8452 -0.4886
vn 0.0408 0.8320 -0.5533
vn -0.0112 0.7984 -0.6021
vn -0.8822 0.3818 0.2757
vn 0.3823 0.7170 0.5829
vn 0.9147 -0.0993 -0.3917
vn -0.3533 0.7309 0.5839
vn 0.9274 0.3039 0.2180
vt 0.919706 0.419706
vt 0.750000 0.279814
vt 0.750000 0.490000
vt 0.779814 0.250000
vt 0.771081 0.271081
vt 0.919706 0.080294
vt 0.990000 0.250000
vt 0.750000 0.220186
vt 0.771081 0.228919
vt 0.580294 0.080294
vt 0.750000 0.010000
vt 0.720186 0.250000
vt 0.728919 0.228919
vt 0.580294 0.419706
vt 0.510000 0.250000
vt 0.728919 0.271081
vt 0.000000 0.908949
vt 0.450642 1.000000
vt 0.875000 0.898543
vt 0.750000 0.876753
vt 0.467316 1.000000
vt 0.465046 1.000000
vt 0.625000 0.876753
vt 0.500000 0.876753
vt 0.448345 1.000000
vt 0.426655 1.000000
vt 0.375000 0.876753
vt 0.250000 0.876753
vt 0.409954 1.000000
vt 0.407684 1.000000
vt 0.125000 0.876753
vt 0.424358 1.000000
vt 1.000000 0.876753
vt 0.875000 0.702278
vt 1.000000 0.702278
vt 0.750000 0.702278
vt 0.000000 0.702278
vt 0.125000 0.702278
vt 0.625000 0.702278
vt 0.500000 0.702278
vt 0.375000 0.702278
vt 0.250000 0.702278
vt 0.000000 1.000000
vt 1.000000 0.000000
vt 0.000000 0.000000
vt 1.000000 1.000000
vt 0.181819 0.000000
vt 0.227273 0.078731
vt 0.136365 0.078731
vt 0.272728 0.157461
vt 0.318182 0.078731
vt 0.363637 0.157461
vt 0.909091 0.000000
vt 0.954545 0.078731
vt 0.863636 0.078731
vt 0.727273 0.000000
vt 0.772727 0.078731
vt 0.681818 0.078731
vt 0.545455 0.000000
vt 0.590909 0.078731
vt 0.500000 0.078731
vt 0.318182 0.236191
vt 0.090910 0.157461
vt 0.181819 0.157461
vt 0.136365 0.236191
vt 0.818182 0.157461
vt 0.909091 0.157461
vt 0.863636 0.236191
vt 0.636364 0.157461
vt 0.727273 0.157461
vt 0.681818 0.236191
vt 0.454546 0.157461
vt 0.545455 0.157461
vt 0.500000 0.236191
vt 0.227273 0.236191
vt 0.045455 0.236191
vt 0.772727 0.236191
vt 0.590909 0.236191
vt 0.409092 0.236191
vt 0.954545 0.236191
vt 1.000000 0.157461
vt 0.409092 0.078731
vt 0.363637 0.000000
vt 0.625000 0.250000
vt 0.375000 0.500000
vt 0.375000 0.250000
vt 0.590945 0.965945
vt 0.375000 1.000000
vt 0.409055 0.965945
vt 0.409055 0.784055
vt 0.625000 0.718695
vt 0.590945 0.784055
vt 0.375000 0.718695
vt 0.125000 0.715945
vt 0.125000 0.500000
vt 0.625000 0.034055
vt 0.375000 0.034055
vt 0.875000 0.500000
vt 0.625000 0.500000
vt 0.625000 0.750000
vt 0.170314 0.545314
vt 0.125000 0.750000
vt 0.415691 0.500000
vt 0.329686 0.545314
vt 0.415691 0.750000
vt 0.329686 0.704686
vt 0.170314 0.704686
vt 0.625000 0.000000
vt 0.420314 0.250000
vt 0.420314 0.000000
vt 0.420314 1.000000
vt 0.587917 0.962917
vt 0.412082 0.962917
vt 0.412082 0.787082
vt 0.625000 0.716132
vt 0.587917 0.787082
vt 0.625000 1.000000
vt 0.125000 0.712918
vt 0.625000 0.037082
vt 0.375000 0.037082
vt 0.375000 0.716132
vt 0.375000 0.750000
vt 0.410646 0.285646
vt 0.625000 0.219476
vt 0.589354 0.285646
vt 0.375000 0.532655
vt 0.410646 0.464354
vt 0.625000 0.532655
vt 0.589354 0.464354
vt 0.125000 0.535646
vt 0.125000 0.750000
vt 0.375000 0.219476
vt 0.375000 0.000000
vt 0.875000 0.535646
vt 0.875000 0.715945
vt 0.491876 0.593750
vt 0.492546 0.687500
vt 0.302006 0.677006
vt 0.125000 0.593502
vt 0.125000 0.531167
vt 0.197990 0.585992
vt 0.250000 0.572992
vt 0.308103 0.500000
vt 0.732205 0.738109
vt 0.875000 0.750000
vt 0.714411 0.750000
vt 0.573805 0.218750
vt 0.558936 0.250000
vt 0.574981 0.250000
vt 0.529282 0.875000
vt 0.562624 1.000000
vt 0.565571 1.000000
vt 0.554734 0.375000
vt 0.491206 0.500000
vt 0.533093 0.375000
vt 0.553411 0.718750
vt 0.492993 0.750000
vt 0.492770 0.718750
vt 0.551766 0.593750
vt 0.492099 0.625000
vt 0.569100 0.093750
vt 0.560922 0.125000
vt 0.570276 0.125000
vt 0.875000 0.687500
vt 0.875000 0.718750
vt 0.863109 0.709831
vt 0.551355 0.562500
vt 0.550944 0.531250
vt 0.599863 0.540168
vt 0.566748 0.031250
vt 0.561915 0.062500
vt 0.567924 0.062500
vt 0.552588 0.656250
vt 0.492323 0.656250
vt 0.750000 0.574391
vt 0.851218 0.599696
vt 0.750000 0.599696
vt 0.250000 0.677008
vt 0.125000 0.749339
vt 0.491653 0.562500
vt 0.491429 0.531250
vt 0.571452 0.156250
vt 0.559929 0.187500
vt 0.572628 0.187500
vt 0.197991 0.598995
vt 0.302009 0.611998
vt 0.552177 0.625000
vt 0.561418 0.093750
vt 0.560425 0.156250
vt 0.731383 0.511891
vt 0.550533 0.500000
vt 0.712766 0.500000
vt 0.559432 0.218750
vt 0.565571 0.000000
vt 0.562411 0.031250
vt 0.552999 0.687500
vt 0.699391 0.523782
vt 0.863109 0.511891
vt 0.600069 0.568446
vt 0.648782 0.549087
vt 0.750000 0.650304
vt 0.750000 0.675609
vt 0.648782 0.675609
vt 0.750000 0.726218
vt 0.863109 0.738109
vt 0.863109 0.681554
vt 0.851218 0.700913
vt 0.648782 0.700913
vt 0.851218 0.549087
vt 0.750000 0.523782
vt 0.851218 0.625000
vt 0.699391 0.650304
vt 0.648782 0.625000
vt 0.553822 0.750000
vt 0.875000 0.750000
vt 0.875000 0.712918
vt 0.302008 0.638001
vt 0.302008 0.625000
vt 0.302009 0.598997
vt 0.302006 0.664004
vt 0.302007 0.651003
vt 0.302010 0.585995
vt 0.302010 0.572994
vt 0.197993 0.651005
vt 0.197993 0.664008
vt 0.197994 0.677010
vt 0.125000 0.718172
vt 0.125000 0.687004
vt 0.125000 0.655837
vt 0.125000 0.624670
vt 0.197991 0.611997
vt 0.197992 0.625000
vt 0.197992 0.638003
vt 0.197990 0.572990
vt 0.125000 0.562335
vt 0.601302 0.738109
vt 0.558223 0.875000
vt 0.863109 0.540168
vt 0.875000 0.500000
vt 0.875000 0.531250
vt 0.863109 0.568446
vt 0.875000 0.562500
vt 0.863109 0.596723
vt 0.875000 0.593750
vt 0.863109 0.625000
vt 0.875000 0.625000
vt 0.863109 0.653277
vt 0.875000 0.656250
vt 0.601097 0.709832
vt 0.600891 0.681554
vt 0.600685 0.653277
vt 0.600480 0.625000
vt 0.600274 0.596723
vt 0.599657 0.511891
vt 0.648783 0.599696
vt 0.648782 0.574391
vt 0.851218 0.574391
vt 0.308997 0.749670
vt 0.562908 -0.000000
vt 0.851218 0.523783
vt 0.648782 0.523782
vt 0.648782 0.726218
vt 0.648782 0.650304
vt 0.851218 0.650304
vt 0.851218 0.675609
vt 0.851218 0.726218
s 0
usemtl helice.002
f 12/1/1 9/2/1 10/3/1
f 12/1/2 13/4/2 11/5/2
f 16/6/3 13/4/3 14/7/3
f 16/6/4 17/8/4 15/9/4
f 20/10/5 17/8/5 18/11/5
f 20/10/6 21/12/6 19/13/6
f 24/14/7 21/12/7 22/15/7
f 24/14/8 9/2/8 23/16/8
f 15/9/9 19/13/9 23/16/9
f 27/17/10 25/18/10 26/19/10
f 30/20/11 25/18/11 29/21/11
f 30/20/12 31/22/12 32/23/12
f 34/24/13 31/22/13 33/25/13
f 34/24/14 35/26/14 36/27/14
f 38/28/15 35/26/15 37/29/15
f 38/28/16 39/30/16 40/31/16
f 27/17/17 39/30/17 28/32/17
f 27/33/18 12/34/18 10/35/18
f 37/29/19 33/25/19 29/21/19
f 26/19/20 14/36/20 12/34/20
f 40/31/21 10/37/21 24/38/21
f 30/20/22 16/39/22 14/36/22
f 32/23/23 18/40/23 16/39/23
f 34/24/24 20/41/24 18/40/24
f 36/27/25 22/42/25 20/41/25
f 38/28/26 24/38/26 22/42/26
f 84/3/73 85/5/73 83/2/73
f 86/1/74 87/4/74 85/5/74
f 90/6/3 87/4/3 88/7/3
f 90/6/4 91/8/4 89/9/4
f 92/11/75 93/13/75 91/8/75
f 94/10/76 95/12/76 93/13/76
f 98/14/7 95/12/7 96/15/7
f 98/14/77 83/2/77 97/16/77
f 89/9/9 93/13/9 97/16/9
f 101/17/10 99/18/10 100/19/10
f 104/20/78 99/18/78 103/21/78
f 104/20/12 105/22/12 106/23/12
f 108/24/13 105/22/13 107/25/13
f 108/24/14 109/26/14 110/27/14
f 110/27/15 111/29/15 112/28/15
f 112/28/16 113/30/16 114/31/16
f 101/17/17 113/30/17 102/32/17
f 101/33/18 86/34/18 84/35/18
f 111/29/19 107/25/19 103/21/19
f 100/19/20 88/36/20 86/34/20
f 114/31/21 84/37/21 98/38/21
f 104/20/22 90/39/22 88/36/22
f 106/23/23 92/40/23 90/39/23
f 108/24/24 94/41/24 92/40/24
f 110/27/25 96/42/25 94/41/25
f 112/28/26 98/38/26 96/42/26
f 124/3/79 125/5/79 123/2/79
f 128/7/2 125/5/2 126/1/2
f 130/6/3 127/4/3 128/7/3
f 130/6/80 131/8/80 129/9/80
f 134/10/5 131/8/5 132/11/5
f 136/15/6 133/13/6 134/10/6
f 138/14/7 135/12/7 136/15/7
f 124/3/8 137/16/8 138/14/8
f 129/9/9 133/13/9 137/16/9
f 141/17/10 139/18/10 140/19/10
f 144/20/81 139/18/81 143/21/81
f 144/20/12 145/22/12 146/23/12
f 146/23/13 147/25/13 148/24/13
f 148/24/14 149/26/14 150/27/14
f 152/28/82 149/26/82 151/29/82
f 154/31/16 151/29/16 153/30/16
f 154/31/17 142/32/17 141/17/17
f 141/33/18 126/34/18 124/35/18
f 151/29/19 147/25/19 143/21/19
f 140/19/20 128/36/20 126/34/20
f 154/31/21 124/37/21 138/38/21
f 144/20/22 130/39/22 128/36/22
f 146/23/23 132/40/23 130/39/23
f 148/24/24 134/41/24 132/40/24
f 150/27/25 136/42/25 134/41/25
f 152/28/26 138/38/26 136/42/26
f 166/1/1 163/2/1 164/3/1
f 166/1/2 167/4/2 165/5/2
f 170/6/3 167/4/3 168/7/3
f 172/11/4 169/9/4 170/6/4
f 174/10/5 171/8/5 172/11/5
f 174/10/76 175/12/76 173/13/76
f 178/14/7 175/12/7 176/15/7
f 178/14/8 163/2/8 177/16/8
f 169/9/9 173/13/9 177/16/9
f 181/17/10 179/18/10 180/19/10
f 184/20/11 179/18/11 183/21/11
f 184/20/12 185/22/12 186/23/12
f 188/24/13 185/22/13 187/25/13
f 188/24/14 189/26/14 190/27/14
f 192/28/83 189/26/83 191/29/83
f 194/31/16 191/29/16 193/30/16
f 181/17/17 193/30/17 182/32/17
f 181/33/18 166/34/18 164/35/18
f 191/29/19 187/25/19 183/21/19
f 180/19/20 168/36/20 166/34/20
f 194/31/21 164/37/21 178/38/21
f 184/20/22 170/39/22 168/36/22
f 186/23/23 172/40/23 170/39/23
f 188/24/24 174/41/24 172/40/24
f 190/27/25 176/42/25 174/41/25
f 192/28/26 178/38/26 176/42/26
f 12/1/1 11/5/1 9/2/1
f 12/1/2 14/7/2 13/4/2
f 16/6/3 15/9/3 13/4/3
f 16/6/4 18/11/4 17/8/4
f 20/10/5 19/13/5 17/8/5
f 20/10/6 22/15/6 21/12/6
f 24/14/7 23/16/7 21/12/7
f 24/14/8 10/3/8 9/2/8
f 23/16/9 9/2/9 11/5/9
f 11/5/9 13/4/9 15/9/9
f 15/9/9 17/8/9 19/13/9
f 19/13/9 21/12/9 23/16/9
f 23/16/9 11/5/9 15/9/9
f 27/17/10 28/32/10 25/18/10
f 30/20/11 26/19/11 25/18/11
f 30/20/12 29/21/12 31/22/12
f 34/24/13 32/23/13 31/22/13
f 34/24/14 33/25/14 35/26/14
f 38/28/15 36/27/15 35/26/15
f 38/28/16 37/29/16 39/30/16
f 27/17/17 40/31/17 39/30/17
f 27/33/18 26/19/18 12/34/18
f 29/21/19 25/18/19 28/32/19
f 28/32/19 39/30/19 37/29/19
f 37/29/19 35/26/19 33/25/19
f 33/25/19 31/22/19 29/21/19
f 29/21/19 28/32/19 37/29/19
f 26/19/20 30/20/20 14/36/20
f 40/31/21 27/17/21 10/37/21
f 30/20/22 32/23/22 16/39/22
f 32/23/23 34/24/23 18/40/23
f 34/24/24 36/27/24 20/41/24
f 36/27/25 38/28/25 22/42/25
f 38/28/26 40/31/26 24/38/26
f 84/3/1 86/1/1 85/5/1
f 86/1/2 88/7/2 87/4/2
f 90/6/154 89/9/154 87/4/154
f 90/6/4 92/11/4 91/8/4
f 92/11/5 94/10/5 93/13/5
f 94/10/6 96/15/6 95/12/6
f 98/14/155 97/16/155 95/12/155
f 98/14/8 84/3/8 83/2/8
f 97/16/9 83/2/9 85/5/9
f 85/5/9 87/4/9 89/9/9
f 89/9/9 91/8/9 93/13/9
f 93/13/9 95/12/9 97/16/9
f 97/16/9 85/5/9 89/9/9
f 101/17/10 102/32/10 99/18/10
f 104/20/11 100/19/11 99/18/11
f 104/20/156 103/21/156 105/22/156
f 108/24/13 106/23/13 105/22/13
f 108/24/14 107/25/14 109/26/14
f 110/27/157 109/26/157 111/29/157
f 112/28/158 111/29/158 113/30/158
f 101/17/17 114/31/17 113/30/17
f 101/33/18 100/19/18 86/34/18
f 103/21/19 99/18/19 102/32/19
f 102/32/19 113/30/19 111/29/19
f 111/29/19 109/26/19 107/25/19
f 107/25/19 105/22/19 103/21/19
f 103/21/19 102/32/19 111/29/19
f 100/19/20 104/20/20 88/36/20
f 114/31/21 101/17/21 84/37/21
f 104/20/22 106/23/22 90/39/22
f 106/23/23 108/24/23 92/40/23
f 108/24/24 110/27/24 94/41/24
f 110/27/25 112/28/25 96/42/25
f 112/28/26 114/31/26 98/38/26
f 124/3/1 126/1/1 125/5/1
f 128/7/74 127/4/74 125/5/74
f 130/6/154 129/9/154 127/4/154
f 130/6/4 132/11/4 131/8/4
f 134/10/159 133/13/159 131/8/159
f 136/15/160 135/12/160 133/13/160
f 138/14/7 137/16/7 135/12/7
f 124/3/161 123/2/161 137/16/161
f 137/16/9 123/2/9 125/5/9
f 125/5/9 127/4/9 129/9/9
f 129/9/9 131/8/9 133/13/9
f 133/13/9 135/12/9 137/16/9
f 137/16/9 125/5/9 129/9/9
f 141/17/10 142/32/10 139/18/10
f 144/20/11 140/19/11 139/18/11
f 144/20/12 143/21/12 145/22/12
f 146/23/162 145/22/162 147/25/162
f 148/24/14 147/25/14 149/26/14
f 152/28/15 150/27/15 149/26/15
f 154/31/16 152/28/16 151/29/16
f 154/31/163 153/30/163 142/32/163
f 141/33/18 140/19/18 126/34/18
f 143/21/19 139/18/19 142/32/19
f 142/32/19 153/30/19 151/29/19
f 151/29/19 149/26/19 147/25/19
f 147/25/19 145/22/19 143/21/19
f 143/21/19 142/32/19 151/29/19
f 140/19/20 144/20/20 128/36/20
f 154/31/21 141/17/21 124/37/21
f 144/20/22 146/23/22 130/39/22
f 146/23/23 148/24/23 132/40/23
f 148/24/24 150/27/24 134/41/24
f 150/27/25 152/28/25 136/42/25
f 152/28/26 154/31/26 138/38/26
f 166/1/1 165/5/1 163/2/1
f 166/1/2 168/7/2 167/4/2
f 170/6/3 169/9/3 167/4/3
f 172/11/4 171/8/4 169/9/4
f 174/10/159 173/13/159 171/8/159
f 174/10/6 176/15/6 175/12/6
f 178/14/7 177/16/7 175/12/7
f 178/14/8 164/3/8 163/2/8
f 177/16/9 163/2/9 165/5/9
f 165/5/9 167/4/9 169/9/9
f 169/9/9 171/8/9 173/13/9
f 173/13/9 175/12/9 177/16/9
f 177/16/9 165/5/9 169/9/9
f 181/17/10 182/32/10 179/18/10
f 184/20/11 180/19/11 179/18/11
f 184/20/156 183/21/156 185/22/156
f 188/24/13 186/23/13 185/22/13
f 188/24/14 187/25/14 189/26/14
f 192/28/15 190/27/15 189/26/15
f 194/31/16 192/28/16 191/29/16
f 181/17/17 194/31/17 193/30/17
f 181/33/18 180/19/18 166/34/18
f 183/21/19 179/18/19 182/32/19
f 182/32/19 193/30/19 191/29/19
f 191/29/19 189/26/19 187/25/19
f 187/25/19 185/22/19 183/21/19
f 183/21/19 182/32/19 191/29/19
f 180/19/20 184/20/20 168/36/20
f 194/31/21 181/17/21 164/37/21
f 184/20/22 186/23/22 170/39/22
f 186/23/23 188/24/23 172/40/23
f 188/24/24 190/27/24 174/41/24
f 190/27/25 192/28/25 176/42/25
f 192/28/26 194/31/26 178/38/26
usemtl gris
f 43/43/27 42/44/27 41/45/27
f 46/44/28 47/43/28 45/45/28
f 43/43/29 48/46/29 44/46/29
f 41/45/30 46/44/30 45/45/30
f 44/46/31 46/44/31 42/44/31
f 41/45/32 47/43/32 43/43/32
f 49/47/33 56/48/33 55/49/33
f 50/50/34 56/51/34 58/52/34
f 49/53/35 55/54/35 60/55/35
f 49/56/36 60/57/36 62/58/36
f 49/59/37 62/60/37 59/61/37
f 50/50/38 58/52/38 65/62/38
f 51/63/39 57/64/39 67/65/39
f 52/66/40 61/67/40 69/68/40
f 53/69/41 63/70/41 71/71/41
f 54/72/42 64/73/42 73/74/42
f 50/50/43 65/62/43 68/75/43
f 51/63/44 67/65/44 70/76/44
f 52/66/45 69/68/45 72/77/45
f 53/69/46 71/71/46 74/78/46
f 54/72/47 73/74/47 66/79/47
f 73/74/48 64/73/48 74/78/48
f 64/73/49 53/69/49 74/78/49
f 71/71/50 63/70/50 72/77/50
f 63/70/51 52/66/51 72/77/51
f 69/68/52 61/67/52 70/80/52
f 61/67/53 51/81/53 70/80/53
f 67/65/54 57/64/54 68/75/54
f 57/64/55 50/50/55 68/75/55
f 65/62/56 58/52/56 66/79/56
f 58/52/57 54/72/57 66/79/57
f 59/61/58 64/73/58 54/72/58
f 59/61/59 62/60/59 64/73/59
f 62/60/60 53/69/60 64/73/60
f 62/58/61 63/70/61 53/69/61
f 62/58/62 60/57/62 63/70/62
f 60/57/63 52/66/63 63/70/63
f 60/55/64 61/67/64 52/66/64
f 60/55/65 55/54/65 61/67/65
f 55/54/66 51/81/66 61/67/66
f 58/52/67 59/82/67 54/72/67
f 58/52/68 56/51/68 59/82/68
f 56/51/69 49/83/69 59/82/69
f 55/49/70 57/64/70 51/63/70
f 55/49/71 56/48/71 57/64/71
f 56/48/72 50/50/72 57/64/72
f 43/43/27 44/46/27 42/44/27
f 46/44/28 48/46/28 47/43/28
f 43/43/29 47/43/29 48/46/29
f 41/45/30 42/44/30 46/44/30
f 44/46/31 48/46/31 46/44/31
f 41/45/32 45/45/32 47/43/32
usemtl amarillo
f 196/84/84 197/85/84 195/86/84
f 201/87/85 200/88/85 199/89/85
f 203/90/86 206/91/86 205/92/86
f 204/93/87 199/89/87 200/88/87
f 206/91/88 201/87/88 205/92/88
f 197/85/19 200/94/19 195/95/19
f 202/96/89 195/86/89 200/97/89
f 205/92/90 199/89/90 203/90/90
f 196/98/9 206/91/9 198/99/9
f 198/99/91 204/93/91 197/85/91
f 220/84/102 221/85/102 219/86/102
f 225/112/103 224/88/103 223/113/103
f 227/114/104 230/115/104 229/116/104
f 224/88/105 227/114/105 223/113/105
f 226/117/106 229/116/106 230/115/106
f 221/85/9 224/118/9 219/95/9
f 226/119/107 219/86/107 224/120/107
f 229/116/108 223/113/108 227/114/108
f 220/98/19 230/115/19 222/99/19
f 222/99/109 228/121/109 221/85/109
f 234/100/110 231/88/110 233/122/110
f 235/123/111 238/124/111 237/125/111
f 240/126/112 235/123/112 239/127/112
f 241/128/113 237/125/113 238/124/113
f 240/126/114 242/129/114 241/128/114
f 236/130/9 233/122/9 231/131/9
f 232/108/115 236/132/115 231/133/115
f 237/125/116 239/127/116 235/123/116
f 238/134/19 234/100/19 241/128/19
f 241/128/117 233/122/117 240/126/117
f 244/84/118 245/85/118 243/86/118
f 249/87/119 248/88/119 247/89/119
f 251/90/120 254/91/120 253/92/120
f 248/88/121 251/90/121 247/89/121
f 250/117/122 253/92/122 254/91/122
f 245/85/9 248/94/9 243/95/9
f 250/96/123 243/86/123 248/97/123
f 253/92/124 247/89/124 251/90/124
f 246/99/19 250/135/19 254/91/19
f 246/99/125 252/93/125 245/85/125
f 316/136/126 292/137/126 271/138/126
f 319/139/127 323/140/127 327/141/127
f 357/142/128 270/95/128 358/143/128
f 369/144/129 275/145/129 364/146/129
f 323/147/130 278/148/130 270/149/130
f 360/150/29 275/151/29 268/152/29
f 362/153/30 274/154/30 358/155/30
f 338/156/131 272/157/131 332/158/131
f 322/159/131 286/160/131 316/136/131
f 307/161/130 288/162/130 284/163/130
f 293/164/132 333/165/132 355/166/132
f 302/167/133 326/168/133 353/169/133
f 335/170/130 293/171/130 295/172/130
f 310/173/131 292/137/131 312/174/131
f 359/178/134 272/157/134 268/179/134
f 326/168/131 304/180/131 328/181/131
f 319/182/130 305/183/130 299/184/130
f 303/185/135 357/142/135 320/186/135
f 290/187/131 312/174/131 286/160/131
f 295/172/130 313/188/130 307/161/130
f 284/163/130 317/189/130 319/182/130
f 370/190/136 282/191/136 362/192/136
f 302/167/131 316/136/131 304/180/131
f 282/191/131 328/181/131 274/154/131
f 299/184/130 329/193/130 323/147/130
f 268/194/130 333/195/130 335/170/130
f 298/196/131 332/158/131 292/137/131
f 337/207/19 334/208/19 365/202/19
f 325/209/19 330/200/19 361/210/19
f 287/211/19 371/212/19 289/213/19
f 278/148/30 358/155/30 270/149/30
f 280/214/29 360/150/29 272/157/29
f 196/84/84 198/99/84 197/85/84
f 201/87/85 202/117/85 200/88/85
f 203/90/86 204/93/86 206/91/86
f 204/93/87 203/90/87 199/89/87
f 206/91/88 202/117/88 201/87/88
f 197/85/19 204/93/19 200/94/19
f 202/96/89 196/84/89 195/86/89
f 205/92/90 201/87/90 199/89/90
f 196/98/9 202/135/9 206/91/9
f 198/99/91 206/91/91 204/93/91
f 220/84/102 222/99/102 221/85/102
f 225/112/103 226/117/103 224/88/103
f 227/114/104 228/121/104 230/115/104
f 224/88/105 228/121/105 227/114/105
f 226/117/106 225/112/106 229/116/106
f 221/85/9 228/121/9 224/118/9
f 226/119/107 220/84/107 219/86/107
f 229/116/108 225/112/108 223/113/108
f 220/98/19 226/216/19 230/115/19
f 222/99/109 230/115/109 228/121/109
f 234/100/110 232/117/110 231/88/110
f 235/123/111 236/132/111 238/124/111
f 240/126/112 236/132/112 235/123/112
f 241/128/113 242/129/113 237/125/113
f 240/126/114 239/127/114 242/129/114
f 236/130/9 240/126/9 233/122/9
f 232/108/115 238/124/115 236/132/115
f 237/125/116 242/129/116 239/127/116
f 238/134/19 232/215/19 234/100/19
f 241/128/117 234/100/117 233/122/117
f 244/84/118 246/99/118 245/85/118
f 249/87/119 250/117/119 248/88/119
f 251/90/120 252/93/120 254/91/120
f 248/88/121 252/93/121 251/90/121
f 250/117/122 249/87/122 253/92/122
f 245/85/9 252/93/9 248/94/9
f 250/96/123 244/84/123 243/86/123
f 253/92/124 249/87/124 247/89/124
f 246/99/19 244/98/19 250/135/19
f 246/99/125 254/91/125 252/93/125
f 308/217/164 285/218/164 320/186/164
f 308/217/165 320/186/165 300/219/165
f 271/138/166 336/220/166 296/221/166
f 296/221/167 308/217/167 300/219/167
f 324/222/168 273/223/168 274/154/168
f 271/138/169 296/221/169 300/219/169
f 300/219/168 324/222/168 274/154/168
f 274/154/130 328/181/130 304/180/130
f 316/136/131 286/160/131 312/174/131
f 274/154/170 304/180/170 316/136/170
f 271/138/168 300/219/168 274/154/168
f 332/158/126 272/157/126 271/138/126
f 316/136/130 312/174/130 292/137/130
f 292/137/126 332/158/126 271/138/126
f 271/138/126 274/154/126 316/136/126
f 291/224/9 331/225/9 267/226/9
f 267/226/171 268/179/171 335/227/171
f 335/227/172 295/228/172 307/229/172
f 335/227/173 307/229/173 284/230/173
f 291/224/174 267/226/174 335/227/174
f 315/231/9 283/232/9 311/233/9
f 311/233/174 291/224/174 335/227/174
f 311/233/175 335/227/175 284/230/175
f 303/185/176 315/231/176 311/233/176
f 270/95/177 269/234/177 327/141/177
f 327/141/178 303/185/178 311/233/178
f 311/233/175 284/230/175 319/139/175
f 319/139/179 299/235/179 323/140/179
f 323/140/127 270/95/127 327/141/127
f 327/141/180 311/233/180 319/139/180
f 274/154/181 273/223/181 357/142/181
f 357/142/182 269/234/182 270/95/182
f 358/143/128 274/154/128 357/142/128
f 280/214/129 342/236/129 369/144/129
f 369/144/129 339/205/129 275/145/129
f 364/146/129 280/214/129 369/144/129
f 323/147/130 329/193/130 278/148/130
f 360/150/29 364/237/29 275/151/29
f 362/153/30 282/191/30 274/154/30
f 338/156/131 280/214/131 272/157/131
f 322/159/131 290/187/131 286/160/131
f 307/161/130 313/188/130 288/162/130
f 354/238/132 340/198/132 278/239/132
f 354/238/132 278/239/132 329/240/132
f 348/241/132 354/238/132 329/240/132
f 348/241/132 329/240/132 305/242/132
f 351/243/132 348/241/132 305/242/132
f 351/243/132 305/242/132 317/244/132
f 344/245/132 351/243/132 317/244/132
f 344/245/132 317/244/132 288/246/132
f 350/247/132 344/245/132 288/246/132
f 350/247/132 288/246/132 313/248/132
f 345/206/132 350/247/132 313/248/132
f 345/206/132 313/248/132 293/164/132
f 275/145/132 339/205/132 355/166/132
f 355/166/132 345/206/132 293/164/132
f 333/165/132 275/145/132 355/166/132
f 356/249/133 342/236/133 280/214/133
f 356/249/133 280/214/133 338/156/133
f 346/250/133 356/249/133 338/156/133
f 346/250/133 338/156/133 298/196/133
f 349/251/133 346/250/133 298/196/133
f 349/251/133 298/196/133 310/173/133
f 343/252/133 349/251/133 310/173/133
f 343/252/133 310/173/133 290/187/133
f 352/253/133 343/252/133 290/187/133
f 352/253/133 290/187/133 322/159/133
f 347/199/133 352/253/133 322/159/133
f 347/199/133 322/159/133 302/167/133
f 282/191/133 341/254/133 353/169/133
f 353/169/133 347/199/133 302/167/133
f 326/168/133 282/191/133 353/169/133
f 335/170/130 333/195/130 293/171/130
f 310/173/131 298/196/131 292/137/131
f 268/179/183 267/226/183 359/178/183
f 359/178/184 271/138/184 272/157/184
f 272/157/19 360/258/19 268/179/19
f 326/168/131 302/167/131 304/180/131
f 319/182/130 317/189/130 305/183/130
f 271/138/185 359/178/185 267/226/185
f 271/138/186 267/226/186 331/225/186
f 308/217/187 296/221/187 336/220/187
f 336/220/188 271/138/188 331/225/188
f 291/224/9 311/233/9 283/232/9
f 336/220/189 331/225/189 291/224/189
f 308/217/190 336/220/190 291/224/190
f 291/224/191 283/232/191 315/231/191
f 303/185/192 327/141/192 269/234/192
f 291/224/193 315/231/193 303/185/193
f 320/186/190 308/217/190 291/224/190
f 324/222/131 300/219/131 320/186/131
f 357/142/194 273/223/194 324/222/194
f 303/185/195 269/234/195 357/142/195
f 320/186/196 291/224/196 303/185/196
f 357/142/194 324/222/194 320/186/194
f 290/187/131 310/173/131 312/174/131
f 295/172/130 293/171/130 313/188/130
f 284/163/130 288/162/130 317/189/130
f 278/239/136 340/198/136 370/190/136
f 370/190/136 341/254/136 282/191/136
f 362/192/136 278/239/136 370/190/136
f 302/167/131 322/159/131 316/136/131
f 282/191/131 326/168/131 328/181/131
f 299/184/130 305/183/130 329/193/130
f 268/194/130 275/259/130 333/195/130
f 298/196/131 338/156/131 332/158/131
f 337/207/19 276/266/19 363/204/19
f 363/204/19 279/262/19 334/208/19
f 334/208/19 294/203/19 365/202/19
f 365/202/19 297/265/19 337/207/19
f 337/207/19 363/204/19 334/208/19
f 325/209/19 301/257/19 366/175/19
f 366/175/19 306/256/19 330/200/19
f 330/200/19 281/261/19 372/197/19
f 361/210/19 277/260/19 325/209/19
f 330/200/19 372/197/19 361/210/19
f 325/209/19 366/175/19 330/200/19
f 289/213/19 318/255/19 368/177/19
f 368/177/19 321/176/19 287/211/19
f 287/211/19 309/264/19 367/201/19
f 371/212/19 314/263/19 289/213/19
f 287/211/19 367/201/19 371/212/19
f 289/213/19 368/177/19 287/211/19
f 278/148/30 362/153/30 358/155/30
f 280/214/29 364/237/29 360/150/29
usemtl helice.001
f 208/98/92 209/100/92 210/99/92
f 213/101/93 212/102/93 214/95/93
f 213/101/94 218/103/94 217/104/94
f 217/104/95 216/105/95 215/106/95
f 211/107/96 216/105/96 212/102/96
f 213/101/97 215/106/97 211/107/97
f 207/108/98 214/109/98 212/110/98
f 209/100/99 212/111/99 216/105/99
f 214/109/100 210/99/100 218/103/100
f 218/103/101 209/100/101 216/105/101
f 256/98/92 257/100/92 258/99/92
f 261/101/93 260/102/93 262/95/93
f 261/101/94 266/103/94 265/104/94
f 265/104/95 264/105/95 263/106/95
f 259/107/96 264/105/96 260/102/96
f 261/101/97 263/106/97 259/107/97
f 255/108/98 262/109/98 260/110/98
f 257/100/99 260/111/99 264/105/99
f 262/109/100 258/99/100 266/103/100
f 266/103/101 257/100/101 264/105/101
f 208/98/92 207/215/92 209/100/92
f 213/101/93 211/107/93 212/102/93
f 213/101/94 214/95/94 218/103/94
f 217/104/95 218/103/95 216/105/95
f 211/107/96 215/106/96 216/105/96
f 213/101/97 217/104/97 215/106/97
f 207/108/98 208/84/98 214/109/98
f 209/100/99 207/117/99 212/111/99
f 214/109/100 208/84/100 210/99/100
f 218/103/101 210/99/101 209/100/101
f 256/98/92 255/215/92 257/100/92
f 261/101/93 259/107/93 260/102/93
f 261/101/94 262/95/94 266/103/94
f 265/104/95 266/103/95 264/105/95
f 259/107/96 263/106/96 264/105/96
f 261/101/97 265/104/97 263/106/97
f 255/108/98 256/84/98 262/109/98
f 257/100/99 255/117/99 260/111/99
f 262/109/100 256/84/100 258/99/100
f 266/103/101 258/99/101 257/100/101
usemtl techo_Dron
f 366/175/19 321/176/19 368/177/19
f 372/197/136 370/190/136 340/198/136
f 347/199/133 353/169/133 330/200/133
f 367/201/19 365/202/19 294/203/19
f 363/204/129 339/205/129 369/144/129
f 345/206/132 355/166/132 337/207/132
f 318/255/19 306/256/19 366/175/19
f 366/175/19 301/257/19 321/176/19
f 368/177/19 318/255/19 366/175/19
f 340/198/136 277/260/136 361/210/136
f 372/197/136 281/261/136 341/254/136
f 340/198/136 361/210/136 372/197/136
f 372/197/136 341/254/136 370/190/136
f 334/208/133 279/262/133 342/236/133
f 334/208/133 342/236/133 356/249/133
f 294/203/133 334/208/133 356/249/133
f 294/203/133 356/249/133 346/250/133
f 314/263/133 294/203/133 346/250/133
f 314/263/133 346/250/133 349/251/133
f 289/213/133 314/263/133 349/251/133
f 289/213/133 349/251/133 343/252/133
f 318/255/133 289/213/133 343/252/133
f 318/255/133 343/252/133 352/253/133
f 306/256/133 318/255/133 352/253/133
f 306/256/133 352/253/133 347/199/133
f 341/254/133 281/261/133 330/200/133
f 330/200/133 306/256/133 347/199/133
f 353/169/133 341/254/133 330/200/133
f 294/203/19 314/263/19 371/212/19
f 367/201/19 309/264/19 297/265/19
f 294/203/19 371/212/19 367/201/19
f 367/201/19 297/265/19 365/202/19
f 342/236/129 279/262/129 363/204/129
f 363/204/129 276/266/129 339/205/129
f 369/144/129 342/236/129 363/204/129
f 325/209/132 277/260/132 340/198/132
f 325/209/132 340/198/132 354/238/132
f 301/257/132 325/209/132 354/238/132
f 301/257/132 354/238/132 348/241/132
f 321/176/132 301/257/132 348/241/132
f 321/176/132 348/241/132 351/243/132
f 287/211/132 321/176/132 351/243/132
f 287/211/132 351/243/132 344/245/132
f 309/264/132 287/211/132 344/245/132
f 309/264/132 344/245/132 350/247/132
f 297/265/132 309/264/132 350/247/132
f 297/265/132 350/247/132 345/206/132
f 339/205/132 276/266/132 337/207/132
f 337/207/132 297/265/132 345/206/132
f 355/166/132 339/205/132 337/207/132
usemtl Material
f 373/45/137 389/45/137 374/45/137
f 380/45/138 382/45/138 388/45/138
f 379/45/139 386/45/139 378/45/139
f 377/45/140 384/45/140 376/45/140
f 374/45/141 383/45/141 381/45/141
f 379/45/142 388/45/142 387/45/142
f 378/45/143 385/45/143 377/45/143
f 376/45/144 383/45/144 375/45/144
f 373/45/145 381/45/145 382/45/145
f 380/45/147 390/45/147 373/45/147
f 379/45/148 394/45/148 395/45/148
f 377/45/149 392/45/149 393/45/149
f 374/45/150 391/45/150 375/45/150
f 379/45/151 396/45/151 380/45/151
f 378/45/152 393/45/152 394/45/152
f 376/45/153 391/45/153 392/45/153
f 373/45/137 390/45/137 389/45/137
f 380/45/197 373/45/197 382/45/197
f 379/45/198 387/45/198 386/45/198
f 377/45/199 385/45/199 384/45/199
f 374/45/200 375/45/200 383/45/200
f 379/45/201 380/45/201 388/45/201
f 378/45/202 386/45/202 385/45/202
f 376/45/203 384/45/203 383/45/203
f 373/45/145 374/45/145 381/45/145
f 380/45/209 396/45/209 390/45/209
f 379/45/210 378/45/210 394/45/210
f 377/45/211 376/45/211 392/45/211
f 374/45/150 389/45/150 391/45/150
f 379/45/212 395/45/212 396/45/212
f 378/45/213 377/45/213 393/45/213
f 376/45/153 375/45/153 391/45/153
usemtl Material.034
f 395/45/146 393/45/146 391/45/146
f 391/45/204 389/45/204 390/45/204
f 390/45/205 396/45/205 395/45/205
f 395/45/206 394/45/206 393/45/206
f 393/45/207 392/45/207 391/45/207
f 391/45/208 390/45/208 395/45/208
l 26 2
l 27 1
l 30 3
l 32 4
l 34 5
l 36 6
l 38 7
l 40 8
l 100 76
l 101 75
l 104 77
l 106 78
l 108 79
l 110 80
l 112 81
l 114 82
l 140 116
l 141 115
l 144 117
l 146 118
l 148 119
l 150 120
l 152 121
l 154 122
l 180 156
l 181 155
l 184 157
l 186 158
l 188 159
l 190 160
l 192 161
l 194 162
